<?xml version="1.0" encoding="UTF-8" standalone="no"?>
<!-- Created with Inkscape (http://www.inkscape.org/) -->

<svg
   xmlns:dc="http://purl.org/dc/elements/1.1/"
   xmlns:cc="http://creativecommons.org/ns#"
   xmlns:rdf="http://www.w3.org/1999/02/22-rdf-syntax-ns#"
   xmlns:svg="http://www.w3.org/2000/svg"
   xmlns="http://www.w3.org/2000/svg"
   xmlns:xlink="http://www.w3.org/1999/xlink"
   xmlns:sodipodi="http://sodipodi.sourceforge.net/DTD/sodipodi-0.dtd"
   xmlns:inkscape="http://www.inkscape.org/namespaces/inkscape"
   width="220"
   height="50"
   id="svg2"
   sodipodi:version="0.32"
   inkscape:version="0.47 r22583"
   version="1.0"
   inkscape:export-filename="/home/filips/svn/geokrety/statpics/wzory/8.png"
   inkscape:export-xdpi="90.681816"
   inkscape:export-ydpi="90.681816"
   sodipodi:docname="geokret-banerek-chmury.svg"
   inkscape:output_extension="org.inkscape.output.svg.inkscape">
  <defs
     id="defs4">
    <inkscape:perspective
       sodipodi:type="inkscape:persp3d"
       inkscape:vp_x="0 : 526.18109 : 1"
       inkscape:vp_y="0 : 1000 : 0"
       inkscape:vp_z="744.09448 : 526.18109 : 1"
       inkscape:persp3d-origin="372.04724 : 350.78739 : 1"
       id="perspective10" />
    <inkscape:perspective
       id="perspective2420"
       inkscape:persp3d-origin="372.04724 : 350.78739 : 1"
       inkscape:vp_z="744.09448 : 526.18109 : 1"
       inkscape:vp_y="0 : 1000 : 0"
       inkscape:vp_x="0 : 526.18109 : 1"
       sodipodi:type="inkscape:persp3d" />
    <inkscape:perspective
       id="perspective10457"
       inkscape:persp3d-origin="372.04724 : 350.78739 : 1"
       inkscape:vp_z="744.09448 : 526.18109 : 1"
       inkscape:vp_y="0 : 1000 : 0"
       inkscape:vp_x="0 : 526.18109 : 1"
       sodipodi:type="inkscape:persp3d" />
    <inkscape:perspective
       sodipodi:type="inkscape:persp3d"
       inkscape:vp_x="0 : 526.18109 : 1"
       inkscape:vp_y="0 : 1000 : 0"
       inkscape:vp_z="744.09448 : 526.18109 : 1"
       inkscape:persp3d-origin="372.04724 : 350.78739 : 1"
       id="perspective2447" />
    <inkscape:perspective
       id="perspective10-7"
       inkscape:persp3d-origin="372.04724 : 350.78739 : 1"
       inkscape:vp_z="744.09448 : 526.18109 : 1"
       inkscape:vp_y="0 : 1000 : 0"
       inkscape:vp_x="0 : 526.18109 : 1"
       sodipodi:type="inkscape:persp3d" />
    <radialGradient
       gradientTransform="matrix(0.7709009,0.1611989,-0.5605066,2.6805219,639.52607,-1676.9634)"
       gradientUnits="userSpaceOnUse"
       xlink:href="#linearGradient8692"
       id="radialGradient8743"
       fy="714.31006"
       fx="289.24622"
       r="41.924889"
       cy="714.31006"
       cx="289.24622" />
    <linearGradient
       gradientTransform="matrix(0.9302621,0,0,0.9302638,179.66682,-386.35649)"
       gradientUnits="userSpaceOnUse"
       xlink:href="#linearGradient8684"
       id="linearGradient8739"
       y2="846.91321"
       x2="348.08875"
       y1="866.71741"
       x1="349.12021" />
    <clipPath
       id="clipPath7584">
      <path
         id="path7586"
         style="opacity:1;color:#000000;fill:#ffe680;fill-opacity:1;fill-rule:evenodd;stroke:none;stroke-width:2.9000001;stroke-linecap:butt;stroke-linejoin:miter;marker:none;marker-start:none;marker-mid:none;marker-end:none;stroke-miterlimit:4;stroke-dasharray:none;stroke-dashoffset:0;stroke-opacity:1;visibility:visible;display:inline;overflow:visible;enable-background:accumulate"
         transform="matrix(1.2068871,-1.2530897e-3,-1.2530906e-3,1.2814137,57.904774,-232.44469)"
         d="M -346.64019,823.55931 A 71.761391,72.369537 0 0 1 -274.20412,751.94058 L -274.88263,824.30688 z" />
    </clipPath>
    <filter
       x="-0.14126769"
       width="1.2825354"
       y="-0.14336312"
       height="1.2867262"
       id="filter7578">
      <feGaussianBlur
         inkscape:collect="always"
         stdDeviation="5.143983"
         id="feGaussianBlur7580" />
    </filter>
    <linearGradient
       gradientTransform="matrix(0.9457072,0,0,1.9663363,98.406763,3795.2475)"
       gradientUnits="userSpaceOnUse"
       xlink:href="#linearGradient4228"
       id="linearGradient4234"
       y2="-1807.698"
       x2="283.19113"
       y1="-1574.4014"
       x1="283.19098" />
    <linearGradient
       id="linearGradient4228">
      <stop
         id="stop4230"
         offset="0"
         style="stop-color:#3771c8;stop-opacity:1" />
      <stop
         id="stop6519"
         offset="0.5"
         style="stop-color:#56b0ff;stop-opacity:1" />
      <stop
         id="stop4232"
         offset="1"
         style="stop-color:#cff0ff;stop-opacity:1" />
    </linearGradient>
    <linearGradient
       id="linearGradient8684">
      <stop
         id="stop8686"
         offset="0"
         style="stop-color:#808080;stop-opacity:1" />
      <stop
         id="stop8688"
         offset="1"
         style="stop-color:#ffffff;stop-opacity:1" />
    </linearGradient>
    <linearGradient
       id="linearGradient8692">
      <stop
         id="stop8694"
         offset="0"
         style="stop-color:#ffffff;stop-opacity:1" />
      <stop
         id="stop10690"
         offset="0.5"
         style="stop-color:#ebebeb;stop-opacity:1" />
      <stop
         id="stop8696"
         offset="1"
         style="stop-color:#b3b3b3;stop-opacity:1" />
    </linearGradient>
    <inkscape:perspective
       id="perspective4878"
       inkscape:persp3d-origin="335.29691 : 228.00102 : 1"
       inkscape:vp_z="670.59381 : 342.00153 : 1"
       inkscape:vp_y="0 : 1000 : 0"
       inkscape:vp_x="0 : 342.00153 : 1"
       sodipodi:type="inkscape:persp3d" />
    <inkscape:perspective
       id="perspective5227"
       inkscape:persp3d-origin="800 : 400 : 1"
       inkscape:vp_z="1600 : 600 : 1"
       inkscape:vp_y="0 : 1000 : 0"
       inkscape:vp_x="0 : 600 : 1"
       sodipodi:type="inkscape:persp3d" />
  </defs>
  <sodipodi:namedview
     id="base"
     pagecolor="#ffffff"
     bordercolor="#666666"
     borderopacity="1.0"
     gridtolerance="10000"
     guidetolerance="10"
     objecttolerance="10"
     inkscape:pageopacity="0.0"
     inkscape:pageshadow="2"
     inkscape:zoom="2.568174"
     inkscape:cx="80.823311"
     inkscape:cy="30.570761"
     inkscape:document-units="px"
     inkscape:current-layer="g2781"
     showgrid="false"
     inkscape:window-width="1250"
     inkscape:window-height="747"
     inkscape:window-x="-4"
     inkscape:window-y="-4"
     inkscape:window-maximized="1" />
  <metadata
     id="metadata7">
    <rdf:RDF>
      <cc:Work
         rdf:about="">
        <dc:format>image/svg+xml</dc:format>
        <dc:type
           rdf:resource="http://purl.org/dc/dcmitype/StillImage" />
        <dc:title></dc:title>
      </cc:Work>
    </rdf:RDF>
  </metadata>
  <g
     inkscape:label="Layer 1"
     inkscape:groupmode="layer"
     id="layer1">
    <rect
       style="fill:none;stroke:#000000;stroke-width:0.96889281;stroke-opacity:1"
       id="rect2381"
       width="219.03108"
       height="49.031109"
       x="0.48444641"
       y="0.48444474"
       inkscape:export-filename="/home/filips/svn/geokrety/statpics/wzory/7.png"
       inkscape:export-xdpi="90"
       inkscape:export-ydpi="90" />
    <g
       id="g2781"
       transform="translate(2.1755254,-83.757726)">
      <rect
         width="217.33591"
         height="47.710316"
         x="-1.1785549"
         y="84.663017"
         style="fill:#559dcc;fill-opacity:1;fill-rule:nonzero;stroke:none;display:inline"
         id="rect8727" />
      <path
         d="m 24.1403,100.03934 c -5.2746,0 -9.645435,2.57883 -10.388817,5.93359 -0.185951,-0.0106 -0.373058,-0.0181 -0.563038,-0.0181 -3.6291533,0 -6.5846922,2.03929 -6.6655505,4.57138 -0.6063107,-0.22413 -1.3028954,-0.35257 -2.0462907,-0.35257 -2.3230742,0 -4.21061687,1.24913 -4.21061687,2.7865 0,1.53738 2.37696117,3.22302 4.70004907,3.22302 19.688667,0.0419 32.770134,0.172 52.390584,0.0873 2.641566,0 5.057664,-0.82899 5.057664,-2.57711 0,-1.74813 -2.144186,-3.16712 -4.785751,-3.16712 -0.688707,0 -1.342427,0.0969 -1.934286,0.27044 -1.072338,-1.1751 -3.018612,-1.96117 -5.242839,-1.96117 -0.875813,0 -1.710395,0.12306 -2.464025,0.34255 -0.419773,-1.7836 -2.751407,-3.15108 -5.563711,-3.15108 -2.220144,0 -4.140931,0.85126 -5.058193,2.08737 -0.82024,-0.3213 -1.757602,-0.52743 -2.757641,-0.58294 0.02105,-0.17962 0.03331,-0.3597 0.03331,-0.54288 0,-3.83557 -4.704989,-6.94923 -10.50085,-6.94923 z"
         style="fill:#ffffff;fill-opacity:1;fill-rule:nonzero;stroke:none;display:inline"
         id="path8733" />
      <path
         d="m 40.451492,117.22321 c -4.516834,0 -8.259709,2.20835 -8.896297,5.08113 -0.159225,-0.009 -0.31947,-0.0154 -0.482125,-0.0154 -3.107756,0 -5.638718,1.74631 -5.707927,3.91463 -0.519234,-0.19194 -1.115733,-0.30192 -1.752335,-0.30192 -1.989328,0 -3.605694,1.06967 -3.605694,2.38617 0,1.31651 2.035473,2.75998 4.024843,2.75998 16.860061,0.0359 28.062123,0.14728 44.863806,0.0748 2.262016,0 4.331019,-0.70987 4.331019,-2.20686 0,-1.49698 -1.836145,-2.7121 -4.098202,-2.7121 -0.589764,0 -1.149562,0.083 -1.6564,0.23158 -0.91827,-1.00627 -2.584916,-1.67942 -4.489604,-1.67942 -0.749996,0 -1.464652,0.10537 -2.11003,0.29334 -0.359478,-1.52735 -2.356128,-2.69837 -4.764402,-2.69837 -1.90119,0 -3.546023,0.72895 -4.331494,1.78749 -0.702396,-0.27516 -1.505081,-0.45168 -2.361462,-0.4992 0.01802,-0.15382 0.02853,-0.30803 0.02853,-0.46489 0,-3.28453 -4.029047,-5.95086 -8.992231,-5.95086 z"
         style="fill:#ffffff;fill-opacity:1;fill-rule:nonzero;stroke:none;display:inline"
         id="path8735" />
      <path
         d="m 47.366515,156.74628 c -2.946164,0 -5.38749,1.44042 -5.802706,3.31421 -0.103859,-0.007 -0.208363,-0.0106 -0.314463,-0.0106 -2.02709,0 -3.677897,1.13903 -3.723062,2.55334 -0.338657,-0.12519 -0.727747,-0.19692 -1.142949,-0.19692 -1.297574,0 -2.351868,0.6977 -2.351868,1.5564 0,0.8587 1.327662,1.80022 2.625236,1.80022 10.997114,0.0234 18.303785,0.096 29.26281,0.0487 1.475442,0 2.824973,-0.46303 2.824973,-1.43946 0,-0.97641 -1.19764,-1.76898 -2.673083,-1.76898 -0.384679,0 -0.749818,0.0541 -1.080407,0.15105 -0.598948,-0.65635 -1.68605,-1.09541 -2.928391,-1.09541 -0.489188,0 -0.955338,0.0686 -1.376268,0.19133 -0.234491,-0.99624 -1.536814,-1.76005 -3.107635,-1.76005 -1.240068,0 -2.312923,0.47548 -2.825272,1.16592 -0.45812,-0.17948 -0.981681,-0.29461 -1.540256,-0.32561 0.01174,-0.10031 0.01858,-0.20091 0.01858,-0.30322 0,-2.14238 -2.627971,-3.88151 -5.865246,-3.88151 z"
         style="fill:#ffffff;fill-opacity:1;fill-rule:nonzero;stroke:none;display:inline"
         id="path8739" />
      <path
         d="m 27.909821,166.38625 c -1.314203,0 -2.403238,0.64253 -2.588454,1.47839 -0.04633,-0.003 -0.09296,-0.004 -0.140283,-0.004 -0.904214,0 -1.640629,0.5081 -1.660782,1.13899 -0.15106,-0.0559 -0.324628,-0.0878 -0.509844,-0.0878 -0.578823,0 -1.04911,0.31122 -1.04911,0.69427 0,0.38305 0.59224,0.80305 1.171049,0.80305 4.905596,0.0106 8.164944,0.0428 13.053543,0.0217 0.65817,0 1.26018,-0.20654 1.26018,-0.6421 0,-0.43557 -0.53427,-0.78912 -1.192426,-0.78912 -0.171595,0 -0.334481,0.0241 -0.481949,0.0673 -0.267176,-0.29278 -0.752105,-0.48865 -1.306297,-0.48865 -0.218215,0 -0.426157,0.0307 -0.613931,0.0853 -0.10459,-0.44439 -0.685535,-0.78511 -1.386243,-0.78511 -0.553172,0 -1.031746,0.2121 -1.260276,0.52008 -0.204362,-0.0801 -0.437914,-0.13144 -0.6871,-0.14524 0.0053,-0.0447 0.0083,-0.0897 0.0083,-0.13526 0,-0.95567 -1.172287,-1.73145 -2.616377,-1.73145 z"
         style="fill:#ffffff;fill-opacity:1;fill-rule:nonzero;stroke:none;display:inline"
         id="path8741" />
      <path
         d="m 77.790127,101.6742 c 1.821069,0 3.330095,0.89035 3.586752,2.04858 0.06421,-0.004 0.128812,-0.007 0.194388,-0.007 1.252968,0 2.273379,0.70406 2.301302,1.57827 0.20933,-0.0774 0.449835,-0.12173 0.706478,-0.12173 0.802059,0 1.453724,0.43126 1.453724,0.96204 0,0.53079 -0.820647,1.11275 -1.622706,1.11275 -6.797547,0.0145 -11.313946,0.0593 -18.087937,0.0301 -0.911997,0 -1.746171,-0.28621 -1.746171,-0.88974 0,-0.60354 0.740294,-1.09346 1.65229,-1.09346 0.237784,0 0.46347,0.0334 0.667818,0.0934 0.370228,-0.4057 1.042183,-0.6771 1.8101,-0.6771 0.30238,0 0.590513,0.0424 0.850708,0.11827 0.144923,-0.61579 0.949935,-1.08793 1.920881,-1.08793 0.766515,0 1.429666,0.2939 1.746348,0.72068 0.283192,-0.11095 0.606813,-0.1821 0.952084,-0.20126 -0.0073,-0.062 -0.0115,-0.12426 -0.0115,-0.18744 0,-1.32423 1.624408,-2.39922 3.62544,-2.39922 z"
         style="fill:#ffffff;fill-opacity:1;fill-rule:nonzero;stroke:none;display:inline"
         id="path8751" />
      <path
         d="m 44.736574,88.094137 c 1.727256,0 3.158568,0.84448 3.401984,1.94306 0.06092,-0.004 0.122186,-0.005 0.184373,-0.005 1.188454,0 2.156297,0.6678 2.182778,1.49698 0.198552,-0.0734 0.426646,-0.11548 0.670076,-0.11548 0.760733,0 1.378869,0.40906 1.378869,0.9125 0,0.50344 -0.778409,1.05544 -1.539127,1.05544 -6.447391,0.0137 -10.731177,0.0563 -17.156223,0.0286 -0.865036,0 -1.656236,-0.27147 -1.656236,-0.84393 0,-0.57244 0.702178,-1.03711 1.567214,-1.03711 0.225495,0 0.439574,0.0317 0.633404,0.0886 0.351149,-0.3848 0.988486,-0.64221 1.716845,-0.64221 0.286798,0 0.560099,0.0403 0.806903,0.11215 0.13744,-0.58407 0.900975,-1.03187 1.821912,-1.03187 0.727039,0 1.356034,0.27876 1.656399,0.68355 0.268619,-0.10524 0.575558,-0.17273 0.903057,-0.1909 -0.007,-0.0588 -0.01094,-0.11774 -0.01094,-0.17777 0,-1.25603 1.540733,-2.27565 3.438699,-2.27565 z"
         style="fill:#ffffff;fill-opacity:1;fill-rule:nonzero;stroke:none;display:inline"
         id="path8753" />
      <path
         d="m 93.381504,137.58761 c 6.034106,0 11.034246,2.95015 11.884676,6.78792 0.21273,-0.012 0.42677,-0.0206 0.6441,-0.0206 4.15168,0 7.53277,2.33292 7.62528,5.2296 0.69362,-0.25641 1.49051,-0.40334 2.34093,-0.40334 2.65758,0 4.8169,1.42899 4.8169,3.18773 0,1.75872 -2.71923,3.68708 -5.37681,3.68708 -22.523534,0.048 -37.488541,0.19675 -59.93406,0.0999 -3.021903,0 -5.785899,-0.94835 -5.785899,-2.94817 0,-1.99984 2.452961,-3.62314 5.474839,-3.62314 0.787893,0 1.535698,0.11082 2.212795,0.30937 1.22672,-1.34429 3.453246,-2.24354 5.997734,-2.24354 1.001917,0 1.95667,0.14073 2.818794,0.39187 0.480234,-2.04042 3.147586,-3.6048 6.364818,-3.6048 2.539806,0 4.737171,0.97383 5.786512,2.38792 0.938328,-0.36756 2.010652,-0.60337 3.154676,-0.66687 -0.02408,-0.20548 -0.03809,-0.4115 -0.03809,-0.62105 0,-4.38784 5.382428,-7.94981 12.012802,-7.94981 z"
         style="fill:#ffffff;fill-opacity:1;fill-rule:nonzero;stroke:none;display:inline"
         id="path8755" />
      <path
         d="m 93.76025,166.38625 c 5.701205,0 10.42551,2.78739 11.22902,6.41346 0.20099,-0.012 0.40324,-0.0196 0.60857,-0.0196 3.92265,0 7.11722,2.20421 7.20463,4.94109 0.65533,-0.24226 1.40827,-0.38108 2.21177,-0.38108 2.51097,0 4.55115,1.35014 4.55115,3.01186 0,1.66169 -2.5692,3.48367 -5.08017,3.48367 -21.280972,0.0454 -35.42038,0.1859 -56.627625,0.0943 -2.855181,0 -5.466701,-0.89604 -5.466701,-2.78553 0,-1.8895 2.317617,-3.42326 5.172813,-3.42326 0.744402,0 1.450976,0.10471 2.090707,0.29232 1.15906,-1.27014 3.262736,-2.11978 5.666859,-2.11978 0.946628,0 1.848705,0.1329 2.663297,0.37025 0.453726,-1.92786 2.973923,-3.40593 6.013668,-3.40593 2.399699,0 4.475847,0.92011 5.467272,2.25618 0.886577,-0.34729 1.899735,-0.57009 2.980659,-0.63009 -0.02277,-0.19413 -0.03598,-0.38879 -0.03598,-0.58678 0,-4.14577 5.085478,-7.51122 11.35006,-7.51122 z"
         style="fill:#ffffff;fill-opacity:1;fill-rule:nonzero;stroke:none;display:inline"
         id="path8757" />
      <path
         d="m 56.716279,184.51878 c 1.75507,0 3.20942,0.85807 3.456783,1.97433 0.06186,-0.004 0.124131,-0.007 0.18734,-0.007 1.207572,0 2.190983,0.67855 2.217886,1.52108 0.201736,-0.0746 0.433544,-0.11734 0.68088,-0.11734 0.77298,0 1.40105,0.41564 1.40105,0.92718 0,0.51154 -0.790915,1.07242 -1.563908,1.07242 -6.551191,0.014 -10.903914,0.0572 -17.43242,0.029 -0.878944,0 -1.68288,-0.27585 -1.68288,-0.85751 0,-0.58167 0.713458,-1.05383 1.592402,-1.05383 0.229169,0 0.44669,0.0322 0.643622,0.0899 0.356812,-0.39101 1.004408,-0.65257 1.744511,-0.65257 0.291398,0 0.569093,0.041 0.819858,0.11402 0.139684,-0.59349 0.915521,-1.0485 1.851291,-1.0485 0.738714,0 1.377847,0.28325 1.683057,0.69456 0.272919,-0.10697 0.584824,-0.17551 0.917562,-0.19397 -0.007,-0.0597 -0.01106,-0.11974 -0.01106,-0.18065 0,-1.27624 1.565526,-2.31228 3.494042,-2.31228 z"
         style="fill:#ffffff;fill-opacity:1;fill-rule:nonzero;stroke:none;display:inline"
         id="path8759" />
      <path
         d="m 103.97174,85.155905 c -5.042119,0 -9.220295,2.465169 -9.93091,5.672052 -0.177745,-0.01064 -0.356634,-0.01716 -0.538216,-0.01716 -3.46918,0 -6.294452,1.949399 -6.371772,4.369893 -0.579585,-0.214261 -1.245471,-0.337031 -1.956085,-0.337031 -2.220703,0 -4.025019,1.194063 -4.025019,2.663679 0,1.469616 2.272167,3.080962 4.49287,3.080962 18.820882,0.04 31.325762,0.16441 50.081412,0.0834 2.52513,0 4.83475,-0.792443 4.83475,-2.463522 0,-1.671079 -2.04969,-3.027517 -4.57483,-3.027517 -0.65835,0 -1.28325,0.0926 -1.84902,0.25851 -1.02505,-1.123299 -2.88557,-1.874723 -5.01176,-1.874723 -0.83721,0 -1.635,0.117607 -2.35541,0.327452 -0.40128,-1.704991 -2.63015,-3.012205 -5.3185,-3.012205 -2.12229,0 -3.95842,0.813741 -4.83524,1.995378 -0.78408,-0.30715 -1.68013,-0.504196 -2.6361,-0.557252 0.0202,-0.171702 0.0318,-0.343843 0.0318,-0.51895 0,-3.66651 -4.49759,-6.642927 -10.038,-6.642927 z"
         style="fill:#ffffff;fill-opacity:1;fill-rule:nonzero;stroke:none;display:inline"
         id="path8769" />
      <path
         d="m 100.64487,114.203 c -3.441335,0 -6.292978,1.68252 -6.778002,3.87127 -0.121342,-0.007 -0.243404,-0.012 -0.367357,-0.012 -2.367763,0 -4.296075,1.3305 -4.348832,2.98251 -0.395566,-0.14623 -0.850054,-0.23003 -1.33505,-0.23003 -1.515667,0 -2.747136,0.81498 -2.747136,1.81801 0,1.00303 1.55079,2.1028 3.066457,2.1028 12.84552,0.0274 21.38031,0.11228 34.18133,0.0569 1.72342,0 3.29978,-0.54086 3.29978,-1.68141 0,-1.14052 -1.39895,-2.06632 -3.1224,-2.06632 -0.44931,0 -0.87581,0.0632 -1.26196,0.17645 -0.69965,-0.76667 -1.96946,-1.27953 -3.42061,-1.27954 -0.57141,0 -1.11591,0.0802 -1.60762,0.22349 -0.27387,-1.16368 -1.79508,-2.05587 -3.62994,-2.05587 -1.44849,0 -2.70168,0.55539 -3.30013,1.36187 -0.53514,-0.20964 -1.14671,-0.34411 -1.79916,-0.38033 0.0137,-0.1172 0.0217,-0.23468 0.0217,-0.35419 0,-2.50246 -3.06966,-4.5339 -6.85106,-4.5339 z"
         style="fill:#ffffff;fill-opacity:1;fill-rule:nonzero;stroke:none;display:inline"
         id="path8771" />
      <path
         d="m 112.60907,146.78539 c -3.78254,0 -6.91696,1.84934 -7.45006,4.25511 -0.13336,-0.008 -0.26754,-0.0133 -0.40376,-0.0133 -2.60255,0 -4.72204,1.46241 -4.78002,3.27824 -0.4348,-0.16073 -0.93435,-0.25283 -1.46744,-0.25283 -1.66594,0 -3.01952,0.89577 -3.01954,1.99825 0,1.10249 1.70459,2.3113 3.37053,2.3113 14.11918,0.0301 23.50019,0.12333 37.57046,0.0627 1.89432,0 3.62696,-0.59448 3.62696,-1.8481 0,-1.25363 -1.53766,-2.27121 -3.43197,-2.27121 -0.4939,0 -0.96268,0.0694 -1.38712,0.19394 -0.76899,-0.8427 -2.16472,-1.40641 -3.75976,-1.40641 -0.62806,0 -1.22655,0.0882 -1.767,0.24566 -0.30104,-1.27907 -1.97311,-2.25973 -3.98987,-2.25973 -1.59213,0 -2.96956,0.61046 -3.62734,1.49691 -0.58821,-0.23042 -1.26041,-0.37824 -1.97757,-0.41804 0.0151,-0.12879 0.0239,-0.25795 0.0239,-0.3893 0,-2.75059 -3.37405,-4.98345 -7.53038,-4.98345 z"
         style="fill:#ffffff;fill-opacity:1;fill-rule:nonzero;stroke:none;display:inline"
         id="path8773" />
      <path
         d="m 135.99789,170.82432 c -3.44408,0 -6.29801,1.68385 -6.7834,3.87435 -0.12144,-0.007 -0.24361,-0.012 -0.36764,-0.012 -2.36967,0 -4.29951,1.33156 -4.35231,2.9849 -0.39589,-0.14636 -0.85073,-0.23021 -1.33612,-0.23021 -1.51688,0 -2.74934,0.81561 -2.74934,1.81946 0,1.00382 1.55204,2.10448 3.06892,2.10448 12.85577,0.0274 21.39739,0.11229 34.20857,0.0569 1.72483,0 3.30246,-0.54129 3.30246,-1.68272 0,-1.14146 -1.40006,-2.06799 -3.12491,-2.06799 -0.44968,0 -0.87653,0.0632 -1.263,0.17657 -0.70015,-0.76728 -1.97099,-1.28054 -3.42332,-1.28054 -0.57184,0 -1.11681,0.0804 -1.60889,0.22367 -0.27411,-1.16461 -1.79653,-2.05751 -3.63284,-2.05751 -1.44966,0 -2.70384,0.55583 -3.30274,1.36295 -0.5356,-0.2098 -1.14765,-0.34439 -1.80065,-0.38063 0.0138,-0.11734 0.0218,-0.23487 0.0218,-0.35447 0,-2.50446 -3.07215,-4.53752 -6.85657,-4.53752 z"
         style="fill:#ffffff;fill-opacity:1;fill-rule:nonzero;stroke:none;display:inline"
         id="path8775" />
      <path
         d="m 122.5178,188.65833 c -2.82946,0 -5.17412,1.38338 -5.57289,3.18298 -0.0998,-0.005 -0.20012,-0.009 -0.30204,-0.009 -1.94678,0 -3.53224,1.09394 -3.57562,2.45224 -0.32523,-0.12027 -0.69893,-0.18913 -1.09769,-0.18913 -1.24618,0 -2.25871,0.67007 -2.25871,1.49477 0,0.82469 1.27507,1.72893 2.52127,1.72893 10.56164,0.0225 17.57894,0.0923 28.10399,0.0468 1.41702,0 2.7131,-0.4447 2.7131,-1.38245 0,-0.93775 -1.15022,-1.69894 -2.56724,-1.69894 -0.36944,0 -0.72012,0.052 -1.03761,0.14507 -0.57522,-0.63036 -1.61926,-1.05203 -2.81243,-1.05203 -0.46979,0 -0.91749,0.066 -1.32178,0.18376 -0.22518,-0.95679 -1.47595,-1.69035 -2.98454,-1.69035 -1.19099,0 -2.22135,0.45665 -2.71341,1.11972 -0.43999,-0.17235 -0.94281,-0.28292 -1.47926,-0.31269 0.0113,-0.0963 0.0178,-0.19297 0.0178,-0.29123 0,-2.05752 -2.52389,-3.72779 -5.63298,-3.72779 z"
         style="fill:#ffffff;fill-opacity:1;fill-rule:nonzero;stroke:none;display:inline"
         id="path8777" />
      <path
         d="m 191.16484,52.521991 c 5.03337,0 9.20428,2.460886 9.91367,5.662194 0.17745,-0.01064 0.35599,-0.01716 0.53727,-0.01716 3.46315,0 6.28353,1.946006 6.36069,4.362297 0.57857,-0.213889 1.24332,-0.336446 1.95269,-0.336446 2.21683,0 4.01803,1.191988 4.01803,2.659049 0,1.467062 -2.26824,3.075598 -4.48507,3.075598 -18.78815,0.04004 -31.27129,0.164132 -49.99435,0.08328 -2.52072,0 -4.82634,-0.79107 -4.82634,-2.459235 0,-1.668166 2.04616,-3.022249 4.56687,-3.022249 0.65721,0 1.28102,0.09246 1.84583,0.258058 1.02327,-1.121343 2.88053,-1.871464 5.00303,-1.871464 0.83576,0 1.63214,0.117341 2.35133,0.32688 0.40057,-1.702024 2.62556,-3.006963 5.30922,-3.006963 2.11861,0 3.95155,0.81233 4.82686,1.991905 0.78271,-0.306618 1.6772,-0.503318 2.63151,-0.556281 -0.0201,-0.171409 -0.0318,-0.343244 -0.0318,-0.518045 0,-3.660151 4.48977,-6.631379 10.02053,-6.631379 z"
         style="fill:#ffffff;fill-opacity:1;fill-rule:nonzero;stroke:none;display:inline"
         id="path8787" />
      <path
         d="m 150.74607,98.141782 c 5.02927,0 9.19674,2.458878 9.90557,5.657568 0.17729,-0.0106 0.35571,-0.0172 0.53683,-0.0172 3.46035,0 6.27838,1.94443 6.35549,4.35874 0.57809,-0.21372 1.2423,-0.33618 1.95107,-0.33618 2.21506,0 4.0148,1.19103 4.0148,2.65688 0,1.46586 -2.26641,3.07308 -4.48144,3.07308 -18.77277,0.04 -31.24571,0.164 -49.95345,0.0833 -2.51867,0 -4.8224,-0.79042 -4.8224,-2.45721 0,-1.66681 2.04448,-3.01979 4.56316,-3.01979 0.65664,0 1.27995,0.0923 1.84428,0.25786 1.02245,-1.12044 2.87819,-1.86995 4.99897,-1.86995 0.83505,0 1.63081,0.11734 2.34938,0.32663 0.40025,-1.70064 2.62341,-3.00451 5.3049,-3.00451 2.11687,0 3.94832,0.81166 4.8229,1.99026 0.78208,-0.30635 1.67583,-0.50289 2.62936,-0.55581 -0.0201,-0.17126 -0.0318,-0.34297 -0.0318,-0.51763 0,-3.65715 4.48612,-6.625955 10.01234,-6.625955 z"
         style="fill:#ffffff;fill-opacity:1;fill-rule:nonzero;stroke:none;display:inline"
         id="path8789" />
      <path
         d="m 183.91388,117.06607 c 3.94239,0 7.20924,1.92749 7.76488,4.43491 0.13897,-0.008 0.27883,-0.0134 0.42083,-0.0134 2.71248,0 4.92155,1.52421 4.98197,3.41676 0.45317,-0.16752 0.97383,-0.26352 1.52946,-0.26352 1.73633,0 3.14711,0.93363 3.14711,2.0827 0,1.14907 -1.7766,2.40896 -3.51293,2.40896 -14.71578,0.0314 -24.49318,0.12852 -39.15799,0.0652 -1.97436,0 -3.78021,-0.61959 -3.78021,-1.92618 0,-1.30659 1.60264,-2.36719 3.57701,-2.36719 0.51473,0 1.00334,0.0724 1.44571,0.20213 0.8015,-0.87829 2.25618,-1.46582 3.91863,-1.46582 0.6546,0 1.27838,0.0919 1.84167,0.25603 0.31375,-1.33311 2.05646,-2.3552 4.15845,-2.3552 1.6594,0 3.09504,0.63626 3.78062,1.56015 0.61307,-0.24015 1.31367,-0.39422 2.06112,-0.4357 -0.0157,-0.13425 -0.0248,-0.26885 -0.0248,-0.40576 0,-2.86679 3.51659,-5.19401 7.84855,-5.19401 z"
         style="fill:#ffffff;fill-opacity:1;fill-rule:nonzero;stroke:none;display:inline"
         id="path8791" />
      <path
         d="m 165.95312,149.87486 c 5.29428,0 9.68136,2.58844 10.42754,5.95571 0.18662,-0.0106 0.37446,-0.0181 0.56512,-0.0181 3.64267,0 6.60922,2.04689 6.69039,4.58842 0.60857,-0.22498 1.30777,-0.35388 2.05391,-0.35388 2.33174,0 4.22631,1.25377 4.22631,2.79688 0,1.54309 -2.38582,3.23502 -4.71756,3.23502 -19.76201,0.0422 -32.89222,0.17263 -52.58577,0.0877 -2.65139,0 -5.07651,-0.83207 -5.07651,-2.58671 0,-1.75464 2.1522,-3.17892 4.80359,-3.17892 0.69126,0 1.34741,0.0973 1.94148,0.27144 1.07633,-1.17948 3.02986,-1.96847 5.26239,-1.96847 0.87906,0 1.71675,0.12346 2.47319,0.34384 0.42134,-1.79026 2.76165,-3.16283 5.58444,-3.16283 2.22843,0 4.15638,0.85442 5.07704,2.09514 0.8233,-0.3225 1.76415,-0.52941 2.76792,-0.58511 -0.0211,-0.1803 -0.0334,-0.36104 -0.0334,-0.54491 0,-3.84985 4.72252,-6.97511 10.53997,-6.97511 z"
         style="fill:#ffffff;fill-opacity:1;fill-rule:nonzero;stroke:none;display:inline"
         id="path8793" />
      <path
         d="m 178.91245,176.12185 c 2.35381,0 4.30427,1.15079 4.636,2.64785 0.083,-0.005 0.16648,-0.008 0.25126,-0.008 1.6195,0 2.93842,0.91003 2.9745,2.03998 0.27057,-0.10004 0.58143,-0.15733 0.91315,-0.15733 1.03669,0 1.87899,0.55743 1.87899,1.24348 0,0.68604 -1.06071,1.43827 -2.0974,1.43827 -8.78605,0.0188 -14.62363,0.0768 -23.37925,0.039 -1.1788,0 -2.25697,-0.36993 -2.25697,-1.15003 0,-0.78009 0.95686,-1.41333 2.13565,-1.41333 0.30734,0 0.59902,0.0432 0.86316,0.12067 0.47852,-0.52439 1.34703,-0.87516 2.33962,-0.87516 0.39084,0 0.76324,0.0549 1.09954,0.15286 0.18735,-0.79594 1.22785,-1.40618 2.48283,-1.40618 0.99073,0 1.84789,0.37988 2.25722,0.93149 0.36603,-0.14339 0.78432,-0.23537 1.23059,-0.26014 -0.009,-0.0801 -0.0148,-0.16052 -0.0148,-0.24226 0,-1.71163 2.09958,-3.10107 4.68598,-3.10107 z"
         style="fill:#ffffff;fill-opacity:1;fill-rule:nonzero;stroke:none;display:inline"
         id="path8795" />
      <path
         d="m 191.80698,90.979596 c -3.1148,0 -5.69587,1.522858 -6.13485,3.503905 -0.10978,-0.007 -0.22031,-0.0106 -0.33248,-0.0106 -2.1431,0 -3.8884,1.20424 -3.93615,2.69951 -0.35803,-0.13238 -0.76938,-0.20821 -1.20838,-0.20821 -1.37185,0 -2.48644,0.73764 -2.48644,1.64549 0,0.90786 1.40363,1.903259 2.77547,1.903259 11.62657,0.0247 19.35146,0.10151 30.93777,0.0515 1.55992,0 2.98667,-0.48953 2.98667,-1.521849 0,-1.0323 -1.26622,-1.87024 -2.82608,-1.87024 -0.40671,0 -0.79273,0.0572 -1.14225,0.15969 -0.63324,-0.69391 -1.78256,-1.1581 -3.09602,-1.1581 -0.5172,0 -1.01002,0.0726 -1.45507,0.20227 -0.24788,-1.05325 -1.62475,-1.86078 -3.28548,-1.86078 -1.31104,0 -2.44533,0.50269 -2.98696,1.23263 -0.48439,-0.18973 -1.03789,-0.31146 -1.62847,-0.34422 0.0124,-0.10604 0.0197,-0.21242 0.0197,-0.32059 0,-2.264986 -2.77838,-4.103669 -6.20095,-4.103669 z"
         style="fill:#ffffff;fill-opacity:1;fill-rule:nonzero;stroke:none;display:inline"
         id="path8805" />
      <path
         d="m 188.74585,138.54884 c -3.12508,0 -5.71465,1.52788 -6.15509,3.51548 -0.11013,-0.007 -0.22105,-0.0106 -0.33358,-0.0106 -2.15019,0 -3.90127,1.20823 -3.94917,2.70842 -0.35922,-0.13278 -0.77194,-0.20889 -1.21236,-0.20889 -1.37637,0 -2.4947,0.74008 -2.4947,1.65092 0,0.91086 1.40829,1.90956 2.78465,1.90956 11.66503,0.0249 19.41544,0.10191 31.04001,0.0517 1.56505,0 2.99652,-0.49116 2.99652,-1.52688 0,-1.0357 -1.27037,-1.87642 -2.83541,-1.87642 -0.40805,0 -0.79537,0.0573 -1.14603,0.16023 -0.63531,-0.69621 -1.78844,-1.16195 -3.10623,-1.16195 -0.51888,0 -1.01337,0.0729 -1.45986,0.20296 -0.24872,-1.05674 -1.63013,-1.86693 -3.29636,-1.86693 -1.31538,0 -2.45339,0.50434 -2.99685,1.2367 -0.48595,-0.19035 -1.04132,-0.31248 -1.63382,-0.34537 0.0125,-0.10643 0.0197,-0.21311 0.0197,-0.32164 0,-2.27247 -2.78757,-4.11722 -6.22146,-4.11722 z"
         style="fill:#ffffff;fill-opacity:1;fill-rule:nonzero;stroke:none;display:inline"
         id="path8809" />
      <path
         d="m 200.95236,176.75684 c -2.23554,0 -4.08801,1.09298 -4.40308,2.51482 -0.0788,-0.005 -0.15811,-0.008 -0.23863,-0.008 -1.53813,0 -2.79077,0.86432 -2.82504,1.93749 -0.25698,-0.095 -0.55221,-0.14943 -0.86727,-0.14943 -0.98459,0 -1.78458,0.52942 -1.7846,1.181 0,0.65158 1.00743,1.366 1.99204,1.366 8.34457,0.0178 13.88889,0.0729 22.20457,0.037 1.11956,0 2.14358,-0.35135 2.14358,-1.09225 0,-0.7409 -0.90878,-1.34231 -2.02835,-1.34231 -0.29187,0 -0.56893,0.0411 -0.8198,0.11468 -0.45448,-0.49803 -1.27939,-0.83119 -2.22203,-0.83119 -0.37122,0 -0.72494,0.0522 -1.04434,0.14518 -0.17794,-0.75594 -1.16612,-1.33553 -2.35805,-1.33553 -0.94098,0 -1.75507,0.3608 -2.14384,0.8847 -0.3476,-0.13618 -0.74489,-0.22355 -1.16875,-0.24707 0.009,-0.0761 0.0141,-0.15245 0.0141,-0.23008 0,-1.62563 -1.99407,-2.94528 -4.45052,-2.94528 z"
         style="fill:#ffffff;fill-opacity:1;fill-rule:nonzero;stroke:none;display:inline"
         id="path8813" />
      <g
         id="g2802"
         transform="translate(-1.9035847,83.485786)"
         inkscape:export-filename="/home/filips/svn/geokrety/statpics/wzory/7.png"
         inkscape:export-xdpi="90"
         inkscape:export-ydpi="90">
        <polygon
           transform="matrix(0.603395,-6.0847932e-2,5.4738541e-2,0.6707402,-28.205989,-33.161509)"
           style="fill:#ffffff;fill-rule:nonzero;stroke-linecap:round;stroke-linejoin:round"
           class="fil59"
           points="151.143,106.696 151.073,106.766 151.143,106.696 "
           id="polygon3452" />
        <polygon
           transform="matrix(0.603395,-6.0847932e-2,5.4738541e-2,0.6707402,-28.205989,-33.161509)"
           style="fill:#ffffff;fill-rule:nonzero;stroke-linecap:round;stroke-linejoin:round"
           class="fil59"
           points="151.955,106.908 152.06,107.049 151.955,106.908 "
           id="polygon3454" />
        <polygon
           transform="matrix(0.603395,-6.0847932e-2,5.4738541e-2,0.6707402,-28.205989,-33.161509)"
           style="fill:#ffffff;fill-rule:nonzero;stroke-linecap:round;stroke-linejoin:round"
           class="fil59"
           points="147.686,117.844 147.545,117.914 147.686,117.844 "
           id="polygon3482" />
        <path
           sodipodi:nodetypes="cssz"
           id="path4963"
           d="M 45.247249,23.852843 C 49.990641,27.769439 66.154068,39.15387 67.586608,41.98419 C 68.661687,44.108258 66.283065,48.117075 64.455591,47.338024 C 60.527516,45.66349 62.290165,43.550038 45.751904,29.661349"
           style="fill:#e9c642;fill-opacity:1;fill-rule:evenodd;stroke:#000000;stroke-width:0.99375677;stroke-linecap:round;stroke-linejoin:round;stroke-miterlimit:4;stroke-dasharray:none;stroke-opacity:1" />
        <path
           sodipodi:nodetypes="cscszczzzzzzzzzczzzzzz"
           id="path4965"
           d="M 45.851242,40.212966 C 46.657756,39.756458 50.183628,39.052333 50.924996,37.986224 C 51.666189,36.920367 51.150596,35.629464 51.488666,34.732269 C 52.355378,35.431643 53.83462,35.815988 54.335878,35.575244 C 54.805843,35.349529 55.864566,33.411669 55.873138,32.65022 C 55.881711,31.888766 55.167022,31.3071 54.717261,31.025389 C 56.56511,29.740316 57.738722,29.75537 59.055916,30.091511 C 60.373109,30.427653 59.994002,31.272238 60.727784,31.771133 C 61.443628,32.257832 62.018671,32.007272 62.481231,32.479527 C 62.943791,32.951783 63.013933,33.752267 63.519312,34.369903 C 64.037024,35.002612 64.423035,34.708963 64.993491,35.495584 C 65.563949,36.282205 65.37943,36.724657 65.752067,37.598222 C 66.124704,38.47179 67.095004,38.05729 66.053443,40.2124 C 65.043345,42.302403 63.831393,43.411094 62.996579,44.111642 C 62.140914,44.82969 60.178169,45.467793 59.744594,45.029147 C 59.227451,44.505951 59.450204,44.54882 59.601362,44.037805 C 59.182896,44.227396 58.962168,44.451491 58.166575,44.598716 C 57.370983,44.74594 57.19387,44.495818 56.86681,44.033028 C 56.53975,43.570238 57.272462,42.504811 56.858334,42.747561 C 56.444207,42.990311 56.488573,44.124767 55.210298,45.004028 C 53.932023,45.883286 51.934186,46.912159 50.331045,47.207813 C 48.727904,47.503468 47.713042,46.336237 46.976167,46.316748"
           style="fill:#d4af8b;fill-opacity:1;fill-rule:evenodd;stroke:#000000;stroke-width:0.99375677;stroke-linecap:round;stroke-linejoin:round;stroke-miterlimit:4;stroke-dasharray:none;stroke-opacity:1" />
        <path
           sodipodi:nodetypes="cszz"
           id="path7908"
           d="M 52.543928,38.555107 C 54.720569,40.860426 58.142609,44.255859 60.90053,43.921295 C 62.183991,43.765926 59.874261,38.7099 58.052167,36.742145 C 56.230073,34.774391 53.777925,35.915671 53.10848,36.376149"
           style="fill:none;fill-opacity:0.75;fill-rule:evenodd;stroke:#000000;stroke-width:0.99375677;stroke-linecap:round;stroke-linejoin:round;stroke-miterlimit:4;stroke-dasharray:none;stroke-opacity:1" />
        <path
           sodipodi:nodetypes="cz"
           id="path7910"
           d="M 58.2243,36.685489 C 58.700073,36.506018 59.640489,35.298691 59.828157,33.380012"
           style="fill:none;fill-opacity:0.75;fill-rule:evenodd;stroke:#000000;stroke-width:0.99375677;stroke-linecap:round;stroke-linejoin:round;stroke-miterlimit:4;stroke-dasharray:none;stroke-opacity:1" />
        <path
           sodipodi:nodetypes="cz"
           id="path7912"
           d="M 60.350256,39.987919 C 61.287743,38.813944 62.351662,37.306319 62.548622,35.962681"
           style="fill:none;fill-opacity:0.75;fill-rule:evenodd;stroke:#000000;stroke-width:0.99375677;stroke-linecap:round;stroke-linejoin:round;stroke-miterlimit:4;stroke-dasharray:none;stroke-opacity:1" />
        <path
           sodipodi:nodetypes="cz"
           id="path7914"
           d="M 61.375577,43.244645 C 62.946234,42.025999 64.028219,40.568495 64.527645,39.02196"
           style="fill:none;fill-opacity:0.75;fill-rule:evenodd;stroke:#000000;stroke-width:0.99375677;stroke-linecap:round;stroke-linejoin:round;stroke-miterlimit:4;stroke-dasharray:none;stroke-opacity:1" />
        <g
           transform="matrix(0.2353295,1.3832325e-2,-1.2443501e-2,0.2615947,-20.558648,-247.26541)"
           id="g23226">
          <path
             style="opacity:1;fill:#667b58;fill-opacity:1;fill-rule:evenodd;stroke:#000000;stroke-width:4;stroke-linecap:butt;stroke-linejoin:round;stroke-miterlimit:4;stroke-dasharray:none;stroke-opacity:1"
             d="M 291.29335,966.00527 L 252.61617,1040.1833 L 205.71775,1025.7961 L 150.41126,971.7975 L 223.09446,944.14426 L 291.29335,966.00527 z"
             id="path17385"
             sodipodi:nodetypes="cccccc" />
          <path
             style="opacity:1;fill:#c5c5c5;fill-opacity:1;fill-rule:evenodd;stroke:#000000;stroke-width:4;stroke-linecap:butt;stroke-linejoin:round;stroke-miterlimit:4;stroke-dasharray:none;stroke-opacity:1"
             d="M 205.71775,1025.7961 L 150.41126,971.79749 L 223.09446,944.14425 L 245.42215,951.6338 L 177.66932,977.12969 L 226.97716,1032.1482 L 205.71775,1025.7961 z"
             id="path19326"
             sodipodi:nodetypes="ccccccc" />
          <path
             style="fill:#667b58;fill-opacity:1;fill-rule:evenodd;stroke:#000000;stroke-width:4;stroke-linecap:butt;stroke-linejoin:round;stroke-miterlimit:4;stroke-dasharray:none;stroke-opacity:1"
             d="M 288.17968,1000.584 L 278.98243,1020.2322 C 263.77968,1010.4249 217.31948,992.73682 226.58677,983.76771 C 235.999,974.65833 265.00274,987.54157 288.17968,1000.584 z"
             id="path20297"
             sodipodi:nodetypes="cczc" />
        </g>
        <path
           sodipodi:nodetypes="cccszscccczzc"
           id="path13486"
           d="M 50.20765,31.741912 C 49.593894,33.695637 49.130588,41.669992 51.375344,47.637497 C 33.013922,46.958472 31.945239,39.485259 18.202299,36.18541 C 20.096484,31.204406 22.539259,28.581804 26.537105,25.036964 C 28.323428,23.453053 30.50862,20.500993 32.247571,18.598455 C 33.986521,16.695917 35.44034,15.34878 37.460826,14.401277 C 41.185492,12.654604 46.46377,13.092161 49.687175,16.301772 C 48.731159,16.554616 46.416062,16.262216 46.433871,18.143875 C 46.602864,20.268215 45.092502,21.236891 43.766622,22.366201 C 42.903437,23.36021 43.398402,24.890476 42.120088,25.462806 C 42.060011,27.164814 42.654221,28.807566 43.523673,30.316954 C 44.431459,31.89288 45.374903,32.907819 46.663741,33.838091 C 47.95258,34.768391 49.388202,32.811574 50.20765,31.741912 z"
           style="fill:#5d5d5d;fill-opacity:1;fill-rule:evenodd;stroke:#000000;stroke-width:0.99384558;stroke-linecap:butt;stroke-linejoin:round;stroke-miterlimit:4;stroke-dasharray:none;stroke-opacity:1" />
        <path
           sodipodi:nodetypes="ccccczzczccczz"
           id="path16414"
           d="M 50.123954,31.629086 C 49.040814,32.933858 47.868883,34.655564 46.580045,33.725265 C 45.291206,32.794992 44.347763,31.780054 43.439976,30.204128 C 42.570525,28.69474 41.976315,27.051987 42.036392,25.34998 C 43.314706,24.77765 42.819741,23.247383 43.682926,22.253375 C 45.008805,21.124065 46.519167,20.155389 46.350174,18.031049 C 46.332366,16.149364 49.021198,16.463716 49.665749,16.500416 C 50.341355,16.538898 54.062736,17.075104 55.28305,16.997433 C 56.127569,16.33153 57.035968,15.223439 57.589564,14.840506 C 58.12874,14.467553 58.844677,13.535158 59.525815,13.809666 C 61.653486,13.965218 61.138073,16.665163 61.022565,18.439865 C 60.71635,20.762115 57.900597,21.391055 55.103959,23.685014 C 53.031083,25.435929 53.212373,25.579798 51.967371,27.565822 C 50.72237,29.551847 51.207093,30.324315 50.123954,31.629086 z"
           style="fill:#d4af8b;fill-opacity:1;fill-rule:evenodd;stroke:#000000;stroke-width:0.99384558;stroke-linecap:butt;stroke-linejoin:round;stroke-miterlimit:4;stroke-dasharray:none;stroke-opacity:1" />
        <path
           sodipodi:nodetypes="cc"
           id="path26307"
           d="M 59.09444,16.493893 C 59.138077,17.682014 58.749936,18.474155 58.131392,18.768782"
           style="fill:none;fill-opacity:0.75;fill-rule:evenodd;stroke:#000000;stroke-width:1.24230695;stroke-linecap:round;stroke-linejoin:miter;stroke-miterlimit:4;stroke-dasharray:none;stroke-opacity:1" />
        <path
           sodipodi:nodetypes="cccccccc"
           style="fill:#000000;fill-rule:nonzero;stroke:#000000;stroke-width:0.99384558;stroke-linecap:round;stroke-linejoin:round;stroke-miterlimit:4;stroke-dasharray:none;stroke-opacity:1"
           class="fil58"
           d="M 48.395749,26.943143 C 48.765285,26.929495 50.738211,25.959456 51.004104,25.810375 C 50.366262,27.041614 49.873293,27.30161 49.215552,28.892284 C 48.925773,29.77027 48.407339,30.925802 47.556023,31.50979 C 46.295631,30.487176 46.186449,28.48973 45.60416,26.982804 C 44.016705,25.851372 42.946791,23.913312 41.501115,24.205738 C 41.157466,23.322775 41.686543,22.625595 41.702933,21.812575 C 42.366146,25.630068 46.532277,26.987964 48.395749,26.943143 z"
           id="path27278" />
        <path
           style="fill:#ffffff;fill-rule:nonzero"
           class="fil59"
           d="M 48.919601,29.276186 C 48.698388,29.485362 47.045081,29.569372 46.655467,29.468387 C 46.502643,29.092107 46.377367,27.964185 46.164732,27.515395 C 46.460766,27.523595 49.208895,27.786891 50.130578,26.883023 C 49.734295,27.327936 48.792463,29.326142 48.919601,29.276186 L 48.919601,29.276186 z"
           id="path28251" />
        <path
           sodipodi:nodetypes="czzc"
           id="path30216"
           d="M 39.601432,19.497921 C 40.790857,19.115171 41.022128,18.422025 42.066671,17.966895 C 43.111214,17.511766 43.115555,17.582547 43.779607,17.677429 C 44.443659,17.772311 44.722879,18.346449 44.722879,18.346449"
           style="fill:none;fill-opacity:0.75;fill-rule:evenodd;stroke:#000000;stroke-width:0.99375677;stroke-linecap:round;stroke-linejoin:round;stroke-miterlimit:4;stroke-dasharray:none;stroke-opacity:1" />
      </g>
      <path
         d="m -19.865302,219.42224 c -4.461233,0 -8.15803,1.86909 -8.786789,4.30054 -0.15727,-0.008 -0.315531,-0.0131 -0.476203,-0.0131 -3.069506,0 -5.569276,1.47803 -5.63767,3.31324 -0.512812,-0.16244 -1.101991,-0.25553 -1.730726,-0.25553 -1.964853,0 -3.561309,0.90534 -3.561309,2.0196 0,1.11425 2.010413,2.33597 3.975266,2.33597 16.652503,0.0304 27.7166919,0.12466 44.3114956,0.0633 2.2342034,0 4.2777394,-0.60083 4.2777394,-1.86784 0,-1.267 -1.813563,-2.29546 -4.0477661,-2.29546 -0.5824947,0 -1.1353998,0.0702 -1.6360008,0.19601 -0.9069663,-0.85169 -2.5531129,-1.42141 -4.4343533,-1.42141 -0.7407438,0 -1.44662228,0.0892 -2.08403512,0.24827 -0.35505191,-1.29272 -2.32712618,-2.28384 -4.70574488,-2.28384 -1.8777789,0 -3.5023688,0.61697 -4.278181,1.51288 -0.6937514,-0.23288 -1.4865488,-0.38227 -2.3323778,-0.4225 0.01781,-0.13019 0.02816,-0.26071 0.02816,-0.39347 0,-2.77994 -3.97942,-5.03665 -8.881502,-5.03665 z"
         style="fill:#ffffff;fill-opacity:1;fill-rule:nonzero;stroke:none;display:inline"
         id="path8731" />
      <path
         d="m -22.949942,258.90268 c -3.684634,0 -6.737918,1.54372 -7.257223,3.55192 -0.129901,-0.007 -0.260613,-0.0108 -0.393307,-0.0108 -2.535173,0 -4.599812,1.22075 -4.656294,2.7365 -0.423541,-0.13417 -0.910165,-0.21106 -1.429446,-0.21106 -1.622835,0 -2.941383,0.74775 -2.941383,1.66804 0,0.92029 1.660458,1.92934 3.28327,1.92934 13.75372,0.0251 22.891908,0.10295 36.59797897,0.0523 1.84528883,0 3.53309243,-0.49624 3.53309243,-1.5427 0,-1.04644 -1.4978641,-1.89587 -3.34314097,-1.89587 -0.48110931,0 -0.93776151,0.058 -1.35122881,0.16188 -0.74907522,-0.70342 -2.10865932,-1.17398 -3.66244412,-1.17398 -0.611798,0 -1.194794,0.0736 -1.7212606,0.20506 -0.2932347,-1.06769 -1.9220261,-1.88628 -3.8865689,-1.88628 -1.55092,0 -2.892719,0.50957 -3.533474,1.24952 -0.572982,-0.19234 -1.227774,-0.31573 -1.926371,-0.34895 0.0147,-0.10752 0.02325,-0.21532 0.02325,-0.32497 0,-2.29603 -3.286683,-4.1599 -7.335451,-4.1599 z"
         style="fill:#ffffff;fill-opacity:1;fill-rule:nonzero;stroke:none;display:inline"
         id="path8737" />
      <path
         d="m -14.798943,288.54665 c -4.23644,0 -7.746974,1.77491 -8.344042,4.08385 -0.149357,-0.008 -0.299645,-0.0124 -0.452212,-0.0124 -2.914849,0 -5.288658,1.40356 -5.353602,3.1463 -0.48697,-0.15426 -1.046464,-0.24266 -1.643533,-0.24266 -1.865842,0 -3.381861,0.85972 -3.381861,1.91784 0,1.05811 1.909111,2.21826 3.774954,2.21826 15.813429,0.0289 26.3201417,0.11838 42.078784,0.0601 2.121622,0 4.062197,-0.57056 4.062197,-1.77371 0,-1.20317 -1.72218,-2.1798 -3.843802,-2.1798 -0.553167,0 -1.07819,0.0667 -1.55357,0.18613 -0.8612624,-0.80877 -2.4244768,-1.34978 -4.2109205,-1.34978 -0.7034196,0 -1.3737284,0.0847 -1.9790331,0.23576 -0.3371596,-1.22759 -2.2098657,-2.16877 -4.46863374,-2.16877 -1.78316126,0 -3.32589326,0.58588 -4.06261466,1.43666 -0.6587904,-0.22115 -1.4116494,-0.36302 -2.214867,-0.40123 0.016926,-0.12362 0.026749,-0.24756 0.026749,-0.37364 0,-2.63987 -3.7789289,-4.78287 -8.4339929,-4.78287 z"
         style="fill:#ffffff;fill-opacity:1;fill-rule:nonzero;stroke:none;display:inline"
         id="path8743" />
      <path
         d="m -12.015702,303.72976 c -4.652629,0 -8.508032,1.94927 -9.163755,4.48503 -0.164026,-0.008 -0.329079,-0.0136 -0.496638,-0.0136 -3.201197,0 -5.808213,1.54145 -5.879544,3.4554 -0.53481,-0.16942 -1.149269,-0.2665 -1.80498,-0.2665 -2.049146,0 -3.714092,0.94418 -3.714092,2.10624 0,1.16206 2.096664,2.4362 4.145809,2.4362 17.36694,0.0317 28.90580502,0.13 46.212575,0.066 2.330062,0 4.461257,-0.62662 4.461257,-1.94797 0,-1.32136 -1.891362,-2.39394 -4.221413,-2.39394 -0.607489,0 -1.184111,0.0732 -1.706185,0.20441 -0.945878,-0.88822 -2.662651,-1.48239 -4.624603,-1.4824 -0.772518,0 -1.5086904,0.093 -2.1734489,0.25893 -0.3702824,-1.34818 -2.42696,-2.38183 -4.9076325,-2.38183 -1.9583477,0 -3.65263264,0.64345 -4.46172274,1.5778 -0.72352006,-0.24287 -1.55033526,-0.39868 -2.43245056,-0.44063 0.018573,-0.13577 0.029363,-0.27189 0.029363,-0.41035 0,-2.89922 -4.1501423,-5.25273 -9.2625392,-5.25273 z"
         style="fill:#ffffff;fill-opacity:1;fill-rule:nonzero;stroke:none;display:inline"
         id="path8745" />
      <path
         d="m 46.947206,207.40698 c 4.644358,0 8.492898,1.94581 9.147463,4.47707 0.16374,-0.008 0.328506,-0.0136 0.495743,-0.0136 3.195539,0 5.797924,1.5387 5.869099,3.44925 0.533855,-0.16912 1.14724,-0.26603 1.801794,-0.26603 2.045505,0 3.707491,0.94251 3.707491,2.10251 0,1.15999 -2.09294,2.43186 -4.138457,2.43186 -17.336085,0.0317 -28.854444,0.12977 -46.130478,0.0659 -2.325896,0 -4.453307,-0.6255 -4.453307,-1.94451 0,-1.31902 1.887996,-2.38969 4.213881,-2.38969 0.606414,0 1.182022,0.0731 1.703189,0.20405 0.944171,-0.88665 2.6579,-1.47976 4.616355,-1.47976 0.771169,0 1.506017,0.0928 2.169593,0.25847 0.369626,-1.34579 2.422651,-2.3776 4.898908,-2.3776 1.954886,0 3.646151,0.6423 4.453821,1.57499 0.722231,-0.24244 1.547566,-0.39797 2.428117,-0.43985 -0.01854,-0.13553 -0.0293,-0.2714 -0.0293,-0.40962 0,-2.89406 4.142766,-5.2434 9.246091,-5.2434 z"
         style="fill:#ffffff;fill-opacity:1;fill-rule:nonzero;stroke:none;display:inline"
         id="path8749" />
      <path
         d="m 53.880184,301.6087 c 4.326642,0 7.911919,1.8127 8.521711,4.1708 0.15252,-0.008 0.306019,-0.0127 0.461833,-0.0127 2.976905,0 5.401263,1.43344 5.467592,3.21329 0.497354,-0.15755 1.068749,-0.24783 1.678518,-0.24783 1.90559,0 3.453884,0.87803 3.453884,1.95867 0,1.08064 -1.949777,2.2655 -3.855355,2.2655 -16.150137,0.0295 -26.880533,0.1209 -42.974711,0.0614 -2.166801,0 -4.148686,-0.58271 -4.148686,-1.81149 0,-1.22878 1.758847,-2.22621 3.925647,-2.22621 0.564937,0 1.101143,0.0681 1.586645,0.19009 0.879597,-0.82599 2.476089,-1.37853 4.300585,-1.37853 0.718388,0 1.402984,0.0865 2.021156,0.24078 0.344333,-1.25372 2.256918,-2.21494 4.563788,-2.21494 1.821131,0 3.396711,0.59836 4.149104,1.46724 0.672839,-0.22585 1.441717,-0.37074 2.262027,-0.40975 -0.01726,-0.12626 -0.0273,-0.25284 -0.0273,-0.3816 0,-2.69608 3.859378,-4.88471 8.61356,-4.88471 z"
         style="fill:#ffffff;fill-opacity:1;fill-rule:nonzero;stroke:none;display:inline"
         id="path8761" />
      <path
         d="m 60.79669,313.45723 c 4.760758,0 8.705755,1.99458 9.376733,4.58928 0.167833,-0.008 0.33673,-0.014 0.50818,-0.014 3.275606,0 5.943211,1.57727 6.0162,3.53571 0.547235,-0.17336 1.175971,-0.27269 1.846936,-0.27269 2.096771,0 3.800414,0.96612 3.800414,2.15519 0,1.18907 -2.145399,2.49281 -4.24217,2.49281 -17.770585,0.0324 -29.57763,0.13303 -47.286647,0.0675 -2.384205,0 -4.564947,-0.64117 -4.564947,-1.99324 0,-1.35208 1.935323,-2.44958 4.319528,-2.44958 0.621609,0 1.211636,0.0749 1.745837,0.20916 0.967876,-0.90887 2.724539,-1.51685 4.7321,-1.51685 0.790458,0 1.543746,0.0951 2.223962,0.26494 0.378889,-1.37951 2.483358,-2.43717 5.021694,-2.43717 2.00386,0 3.737511,0.65839 4.565424,1.61445 0.740314,-0.24851 1.586359,-0.40794 2.48898,-0.45087 -0.019,-0.13892 -0.03005,-0.2782 -0.03005,-0.41988 0,-2.96659 4.24661,-5.37482 9.477831,-5.37482 z"
         style="fill:#ffffff;fill-opacity:1;fill-rule:nonzero;stroke:none;display:inline"
         id="path8763" />
      <path
         d="m 104.86371,311.07584 c -4.81159,0 -8.798712,2.01587 -9.476851,4.63828 -0.169636,-0.009 -0.340299,-0.0141 -0.513611,-0.0141 -3.310544,0 -6.006651,1.59411 -6.080416,3.57345 -0.553085,-0.17521 -1.18854,-0.2756 -1.866643,-0.2756 -2.119163,0 -3.840997,0.97644 -3.840997,2.1782 0,1.20176 2.168281,2.51943 4.287456,2.51943 17.960312,0.0328 29.893432,0.13445 47.791502,0.0682 2.40966,0 4.61368,-0.64802 4.61368,-2.01453 0,-1.36651 -1.95598,-2.47573 -4.36565,-2.47573 -0.62826,0 -1.22456,0.0757 -1.76448,0.2114 -0.97819,-0.91858 -2.75363,-1.53304 -4.78261,-1.53304 -0.79892,0 -1.56023,0.0962 -2.24769,0.26777 -0.38295,-1.39425 -2.50988,-2.46321 -5.07533,-2.46321 -2.02525,0 -3.77742,0.66543 -4.61416,1.6317 -0.74825,-0.25117 -1.60329,-0.4123 -2.51555,-0.45569 0.0192,-0.14041 0.0304,-0.28117 0.0304,-0.42436 0,-2.99827 -4.29194,-5.43221 -9.57902,-5.43221 z"
         style="fill:#ffffff;fill-opacity:1;fill-rule:nonzero;stroke:none;display:inline"
         id="path8779" />
      <path
         d="m 77.51415,336.91034 c -4.324756,0 -7.908469,1.81192 -8.517988,4.16899 -0.152472,-0.008 -0.305887,-0.0127 -0.461642,-0.0127 -2.975628,0 -5.398923,1.43282 -5.465228,3.2119 -0.497116,-0.15748 -1.068271,-0.24772 -1.67779,-0.24772 -1.904742,0 -3.452356,0.87765 -3.452356,1.95782 0,1.08017 1.948906,2.26452 3.853649,2.26452 16.143118,0.0295 26.868882,0.12084 42.956065,0.0613 2.16584,0 4.14689,-0.58245 4.14689,-1.8107 0,-1.22824 -1.75809,-2.22524 -3.92395,-2.22524 -0.56469,0 -1.10068,0.0681 -1.58597,0.19001 -0.87921,-0.82563 -2.475,-1.37794 -4.298707,-1.37794 -0.718077,0 -1.402375,0.0864 -2.020284,0.24069 -0.34419,-1.25319 -2.255934,-2.21399 -4.561802,-2.21399 -1.820342,0 -3.395242,0.59811 -4.147313,1.46661 -0.672517,-0.22576 -1.441084,-0.37058 -2.261048,-0.40958 0.01727,-0.12621 0.0273,-0.25273 0.0273,-0.38143 0,-2.69491 -3.857683,-4.88259 -8.609824,-4.88259 z"
         style="fill:#ffffff;fill-opacity:1;fill-rule:nonzero;stroke:none;display:inline"
         id="path8781" />
      <path
         d="m 124.00417,197.24232 c 5.51364,0 10.08254,2.31001 10.85962,5.31506 0.19439,-0.01 0.38998,-0.0161 0.58855,-0.0161 3.79361,0 6.88309,1.8267 6.96761,4.09485 0.63379,-0.20077 1.36196,-0.31582 2.13903,-0.31582 2.42837,0 4.40143,1.11892 4.40143,2.49603 0,1.37712 -2.48468,2.88704 -4.91305,2.88704 -20.5809,0.0376 -34.25517,0.15407 -54.764777,0.0782 -2.761267,0 -5.286879,-0.74257 -5.286879,-2.30846 0,-1.5659 2.241389,-2.83697 5.002644,-2.83697 0.719915,0 1.403246,0.0868 2.021943,0.24224 1.120921,-1.0526 3.155398,-1.75673 5.480441,-1.75673 0.915489,0 1.787888,0.1102 2.575672,0.30685 0.438808,-1.59768 2.876106,-2.82262 5.815836,-2.82262 2.32078,0 4.32862,0.76253 5.28744,1.86978 0.8574,-0.28781 1.83724,-0.47245 2.8826,-0.52217 -0.022,-0.1609 -0.0348,-0.3222 -0.0348,-0.48629 0,-3.43574 4.91817,-6.22482 10.97669,-6.22482 z"
         style="fill:#ffffff;fill-opacity:1;fill-rule:nonzero;stroke:none;display:inline"
         id="path8785" />
      <path
         d="m 133.34288,324.20537 c 4.65087,0 8.50481,1.94854 9.1603,4.48335 0.16397,-0.008 0.32895,-0.0136 0.49644,-0.0136 3.2,0 5.80604,1.54087 5.87732,3.45409 0.53461,-0.16935 1.14885,-0.2664 1.8043,-0.2664 2.04837,0 3.71271,0.94383 3.71271,2.10545 0,1.16163 -2.09588,2.43528 -4.14425,2.43528 -17.3604,0.0317 -28.8949,0.12995 -46.19514,0.0659 -2.32917,0 -4.459579,-0.62637 -4.459579,-1.94723 0,-1.32087 1.890659,-2.39304 4.219829,-2.39304 0.60725,0 1.18367,0.0732 1.70555,0.20434 0.94551,-0.88789 2.66165,-1.48184 4.62285,-1.48184 0.77224,0 1.50811,0.093 2.17263,0.25883 0.37013,-1.34767 2.42603,-2.38093 4.90579,-2.38093 1.95759,0 3.65124,0.64321 4.46001,1.5772 0.72326,-0.24277 1.54975,-0.39853 2.43155,-0.44047 -0.0186,-0.13571 -0.0294,-0.27178 -0.0294,-0.41019 0,-2.89812 4.14861,-5.25075 9.25906,-5.25075 z"
         style="fill:#ffffff;fill-opacity:1;fill-rule:nonzero;stroke:none;display:inline"
         id="path8797" />
      <path
         d="m 157.42137,336.91034 c 2.81551,0 5.14858,1.17959 5.54541,2.7141 0.0993,-0.005 0.19912,-0.008 0.30053,-0.008 1.93717,0 3.51481,0.9328 3.55799,2.09101 0.32361,-0.10252 0.69545,-0.16126 1.09226,-0.16126 1.24001,0 2.24755,0.57136 2.24755,1.27457 0,0.70322 -1.26877,1.47425 -2.5088,1.47425 -10.50951,0.0192 -17.49221,0.0787 -27.96529,0.0399 -1.41001,0 -2.6997,-0.37918 -2.6997,-1.1788 0,-0.79961 1.14454,-1.44868 2.55456,-1.44868 0.36763,0 0.71655,0.0443 1.0325,0.12371 0.57238,-0.53751 1.61128,-0.89707 2.79854,-0.89707 0.46749,0 0.91298,0.0563 1.31525,0.15669 0.22408,-0.81585 1.46867,-1.44135 2.96984,-1.44135 1.18508,0 2.21036,0.38938 2.69998,0.95479 0.43784,-0.14697 0.93818,-0.24125 1.47198,-0.26664 -0.0112,-0.0822 -0.0178,-0.16454 -0.0178,-0.24832 0,-1.75444 2.51143,-3.17867 5.60517,-3.17867 z"
         style="fill:#ffffff;fill-opacity:1;fill-rule:nonzero;stroke:none;display:inline"
         id="path8799" />
      <path
         d="m 172.18874,206.76233 c -4.95256,0 -9.05653,2.07495 -9.75454,4.77419 -0.1746,-0.009 -0.3503,-0.0145 -0.52865,-0.0145 -3.40757,0 -6.18267,1.64082 -6.25861,3.67816 -0.56927,-0.18034 -1.22335,-0.28368 -1.92134,-0.28368 -2.18125,0 -3.95353,1.00505 -3.95353,2.24203 0,1.23698 2.23184,2.59326 4.41309,2.59326 18.48659,0.0337 30.76937,0.13838 49.1919,0.0702 2.48028,0 4.74887,-0.66701 4.74887,-2.07356 0,-1.40654 -2.0133,-2.54827 -4.49356,-2.54827 -0.64667,0 -1.26046,0.0779 -1.8162,0.21759 -1.00685,-0.94549 -2.8343,-1.57796 -4.92275,-1.57796 -0.82233,0 -1.60593,0.099 -2.31357,0.27562 -0.39415,-1.43511 -2.58343,-2.53539 -5.22402,-2.53539 -2.08459,0 -3.88812,0.68493 -4.74937,1.67951 -0.77017,-0.25852 -1.65028,-0.42438 -2.58927,-0.46903 0.0198,-0.14453 0.0313,-0.28942 0.0313,-0.43681 0,-3.08612 -4.4177,-5.59138 -9.85971,-5.59138 z"
         style="fill:#ffffff;fill-opacity:1;fill-rule:nonzero;stroke:none;display:inline"
         id="path8803" />
      <path
         d="m 172.29467,244.02327 c -4.69705,0 -8.58927,1.96789 -9.25127,4.52788 -0.1656,-0.008 -0.33221,-0.0138 -0.50138,-0.0138 -3.23176,0 -5.86368,1.55617 -5.93569,3.48839 -0.53992,-0.17103 -1.16024,-0.26905 -1.82221,-0.26905 -2.06872,0 -3.74957,0.9532 -3.74957,2.12636 0,1.17316 2.11668,2.45946 4.1854,2.45946 17.53281,0.032 29.18187,0.13125 46.6539,0.0666 2.35233,0 4.50388,-0.63258 4.50388,-1.96657 0,-1.33398 -1.90943,-2.4168 -4.26174,-2.4168 -0.61328,0 -1.19542,0.0739 -1.72248,0.20637 -0.95491,-0.89671 -2.68807,-1.49655 -4.66877,-1.49655 -0.7799,0 -1.52308,0.0939 -2.1942,0.26139 -0.37381,-1.36105 -2.45013,-2.40457 -4.95451,-2.40457 -1.97704,0 -3.6875,0.64959 -4.50432,1.59286 -0.73042,-0.24519 -1.56515,-0.40248 -2.45569,-0.44484 0.0188,-0.13707 0.0297,-0.27448 0.0297,-0.41426 0,-2.9269 -4.18979,-5.30291 -9.35101,-5.30291 z"
         style="fill:#ffffff;fill-opacity:1;fill-rule:nonzero;stroke:none;display:inline"
         id="path8807" />
      <path
         d="m 171.13694,270.22957 c -5.6797,0 -10.38617,2.37958 -11.18664,5.47511 -0.20024,-0.0101 -0.40174,-0.0166 -0.60629,-0.0166 -3.90785,0 -7.09035,1.88172 -7.17743,4.21817 -0.65287,-0.20682 -1.40296,-0.32533 -2.20343,-0.32533 -2.50149,0 -4.53396,1.15261 -4.53396,2.57119 0,1.41859 2.55949,2.97398 5.06099,2.97398 21.20066,0.0387 35.2867,0.1587 56.41391,0.0805 2.84442,0 5.44607,-0.76494 5.44607,-2.37799 0,-1.61305 -2.30886,-2.92239 -5.1533,-2.92239 -0.74158,0 -1.44549,0.0894 -2.0828,0.24953 -1.15469,-1.0843 -3.25042,-1.80963 -5.64549,-1.80963 -0.94305,0 -1.84172,0.11352 -2.65323,0.31609 -0.45201,-1.6458 -2.96271,-2.90762 -5.99097,-2.90762 -2.39065,0 -4.45894,0.78549 -5.44666,1.92609 -0.88321,-0.29648 -1.89257,-0.48668 -2.96939,-0.5379 0.0227,-0.16574 0.0358,-0.33191 0.0358,-0.50093 0,-3.53921 -5.06629,-6.41227 -11.30722,-6.41227 z"
         style="fill:#ffffff;fill-opacity:1;fill-rule:nonzero;stroke:none;display:inline"
         id="path8811" />
      <path
         d="m 147.49195,299.82412 c -4.10072,0 -7.49877,1.71804 -8.07673,3.953 -0.14457,-0.007 -0.29002,-0.012 -0.43771,-0.012 -2.82146,0 -5.11922,1.35859 -5.18208,3.0455 -0.47136,-0.14933 -1.01293,-0.23489 -1.59087,-0.23489 -1.80606,0 -3.27351,0.83218 -3.27351,1.85639 0,1.02421 1.84795,2.1472 3.65403,2.1472 15.30678,0.028 25.47685,0.11459 40.73062,0.0581 2.05362,0 3.93202,-0.55228 3.93202,-1.7169 0,-1.16461 -1.66699,-2.10995 -3.72064,-2.10995 -0.53543,0 -1.04365,0.0645 -1.5038,0.18017 -0.83367,-0.78287 -2.34679,-1.30655 -4.07601,-1.30655 -0.68089,0 -1.32972,0.082 -1.91563,0.22821 -0.32635,-1.18825 -2.13906,-2.09929 -4.32546,-2.09929 -1.72603,0 -3.21933,0.56712 -3.93246,1.39063 -0.63769,-0.21406 -1.36641,-0.35138 -2.14389,-0.38836 0.0164,-0.11966 0.0259,-0.23964 0.0259,-0.36167 0,-2.55529 -3.65782,-4.62963 -8.16375,-4.62963 z"
         style="fill:#ffffff;fill-opacity:1;fill-rule:nonzero;stroke:none;display:inline"
         id="path8815" />
      <path
         d="m 181.39876,317.11477 c -3.14412,0 -5.74954,1.31727 -6.19268,3.03089 -0.11082,-0.006 -0.22236,-0.009 -0.33559,-0.009 -2.16332,0 -3.92507,1.04167 -3.97326,2.33507 -0.36142,-0.11448 -0.77666,-0.18009 -1.21978,-0.18009 -1.38477,0 -2.5099,0.63806 -2.5099,1.42335 0,0.7853 1.41687,1.64633 2.80165,1.64633 11.7362,0.0214 19.53391,0.0879 31.22944,0.0446 1.57461,0 3.01481,-0.42345 3.01481,-1.3164 0,-0.89295 -1.27812,-1.61778 -2.85273,-1.61778 -0.41052,0 -0.80019,0.0495 -1.15301,0.13814 -0.6392,-0.60023 -1.79936,-1.00177 -3.12518,-1.00177 -0.52208,0 -1.01954,0.0629 -1.46878,0.17498 -0.25023,-0.91107 -1.64008,-1.60959 -3.31648,-1.60959 -1.3234,0 -2.46836,0.43483 -3.01512,1.06624 -0.48895,-0.16412 -1.04768,-0.26941 -1.64381,-0.29777 0.0126,-0.0917 0.0198,-0.18373 0.0198,-0.2773 0,-1.95922 -2.80458,-3.54968 -6.25943,-3.54968 z"
         style="fill:#ffffff;fill-opacity:1;fill-rule:nonzero;stroke:none;display:inline"
         id="path8817" />
      <path
         d="m 175.50435,344.7672 c -4.25207,0 -7.77558,1.78147 -8.37484,4.09894 -0.14991,-0.008 -0.30077,-0.0125 -0.45389,-0.0125 -2.92564,0 -5.30821,1.40875 -5.3734,3.15793 -0.48876,-0.15483 -1.05032,-0.24356 -1.64959,-0.24356 -1.87275,0 -3.39434,0.8629 -3.39434,1.92492 0,1.06202 1.91615,2.22646 3.78889,2.22647 15.87186,0.029 26.41739,0.11881 42.23424,0.0603 2.12948,0 4.0772,-0.57267 4.0772,-1.78028 0,-1.2076 -1.72854,-2.18784 -3.85801,-2.18784 -0.55519,0 -1.08217,0.0669 -1.55929,0.18681 -0.86444,-0.81176 -2.43343,-1.35477 -4.22649,-1.35477 -0.70602,0 -1.3788,0.085 -1.98633,0.23663 -0.33842,-1.23212 -2.21803,-2.17678 -4.48515,-2.17678 -1.78975,0 -3.3382,0.58806 -4.07761,1.44196 -0.66125,-0.22196 -1.41688,-0.36436 -2.22307,-0.40269 0.017,-0.12409 0.0268,-0.24848 0.0268,-0.37503 0,-2.64962 -3.79288,-4.80054 -8.46517,-4.80054 z"
         style="fill:#ffffff;fill-opacity:1;fill-rule:nonzero;stroke:none;display:inline"
         id="path8819" />
    </g>
    <polygon
       transform="matrix(1.8094894,0,0,1.8422792,-358.82239,-280.66609)"
       style="fill:#ffffff;fill-rule:nonzero"
       class="fil59"
       points="99.9553,101.792 100.167,101.792 99.9553,101.792 "
       id="polygon2519" />
    <polygon
       transform="matrix(1.8094894,0,0,1.8422792,-358.82239,-280.66609)"
       style="fill:#ffffff;fill-rule:nonzero"
       class="fil59"
       points="149.309,106.555 149.485,106.555 149.309,106.555 "
       id="polygon2521" />
    <polygon
       transform="matrix(1.8094894,0,0,1.8422792,-358.82239,-280.66609)"
       style="fill:#000000;fill-rule:nonzero"
       class="fil58"
       points="116.395,107.26 116.606,107.26 116.395,107.26 "
       id="polygon2523" />
    <polygon
       transform="matrix(1.8094894,0,0,1.8422792,-358.82239,-280.66609)"
       style="fill:#ffffff;fill-rule:nonzero"
       class="fil59"
       points="143.276,110.647 143.382,110.647 143.276,110.647 "
       id="polygon2525" />
    <polygon
       transform="matrix(1.8094894,0,0,1.8422792,-358.82239,-280.66609)"
       style="fill:#ffffff;fill-rule:nonzero"
       class="fil59"
       points="142.077,111.317 142.289,111.317 142.077,111.317 "
       id="polygon2527" />
    <polygon
       transform="matrix(1.8094894,0,0,1.8422792,-358.82239,-280.66609)"
       style="fill:#ffffff;fill-rule:nonzero"
       class="fil59"
       points="85.2445,126.981 85.3503,126.981 85.2445,126.981 "
       id="polygon2529" />
    <polygon
       transform="matrix(1.8094894,0,0,1.8422792,-358.82239,-280.66609)"
       style="fill:#ffffff;fill-rule:nonzero"
       class="fil59"
       points="149.944,135.871 150.12,135.871 149.944,135.871 "
       id="polygon2531" />
    <polygon
       transform="matrix(1.8094894,0,0,1.8422792,-358.82239,-280.66609)"
       style="fill:#ffffff;fill-rule:nonzero"
       class="fil59"
       points="82.2459,140.951 82.4575,140.951 82.2459,140.951 "
       id="polygon2533" />
    <polygon
       transform="matrix(1.8094894,0,0,1.8422792,-358.82239,-280.66609)"
       style="fill:#ffffff;fill-rule:nonzero"
       class="fil59"
       points="109.339,141.797 109.586,141.797 109.339,141.797 "
       id="polygon2535" />
    <polygon
       transform="matrix(1.8094894,0,0,1.8422792,-358.82239,-280.66609)"
       style="fill:#ffffff;fill-rule:nonzero"
       class="fil59"
       points="131.07,148.218 131.247,148.218 131.07,148.218 "
       id="polygon2537" />
    <polygon
       transform="matrix(1.8094894,0,0,1.8422792,-358.82239,-280.66609)"
       style="fill:#ffffff;fill-rule:nonzero"
       class="fil59"
       points="113.079,153.298 113.255,153.298 113.079,153.298 "
       id="polygon2539" />
    <polygon
       transform="matrix(1.8094894,0,0,1.8422792,-358.82239,-280.66609)"
       style="fill:#ffffff;fill-rule:nonzero"
       class="fil59"
       points="145.605,153.721 145.781,153.721 145.605,153.721 "
       id="polygon2541" />
    <polygon
       transform="matrix(1.8094894,0,0,1.8422792,-358.82239,-280.66609)"
       style="fill:#ffffff;fill-rule:nonzero"
       class="fil59"
       points="106.164,157.708 106.305,157.708 106.164,157.708 "
       id="polygon2543" />
    <polygon
       transform="matrix(1.8094894,0,0,1.8422792,-358.82239,-280.66609)"
       style="fill:#ffffff;fill-rule:nonzero"
       class="fil59"
       points="129.589,173.477 129.765,173.477 129.589,173.477 "
       id="polygon2545" />
    <polygon
       transform="matrix(1.8094894,0,0,1.8422792,-358.82239,-280.66609)"
       style="fill:#000000;fill-rule:nonzero"
       class="fil58"
       points="100.59,177.569 100.943,177.569 100.59,177.569 "
       id="polygon2547" />
    <polygon
       transform="matrix(1.8094894,0,0,1.8422792,-358.82239,-280.66609)"
       style="fill:#ffffff;fill-rule:nonzero"
       class="fil59"
       points="109.692,201.205 110.327,201.205 109.692,201.205 "
       id="polygon2549" />
    <polygon
       transform="matrix(1.8094894,0,0,1.8422792,-358.82239,-280.66609)"
       style="fill:#000000;fill-rule:nonzero"
       class="fil58"
       points="89.5837,203.004 89.7601,203.004 89.5837,203.004 "
       id="polygon2551" />
    <polygon
       transform="matrix(1.8094894,0,0,1.8422792,-358.82239,-280.66609)"
       style="fill:#ffffff;fill-rule:nonzero"
       class="fil59"
       points="109.621,203.251 109.974,203.251 109.621,203.251 "
       id="polygon2553" />
    <polygon
       transform="matrix(1.8094894,0,0,1.8422792,-358.82239,-280.66609)"
       style="fill:#ffffff;fill-rule:nonzero"
       class="fil59"
       points="106.023,203.322 106.199,203.322 106.023,203.322 "
       id="polygon2555" />
    <polygon
       id="polygon3440"
       points="99.9553,101.792 100.167,101.792 99.9553,101.792 "
       class="fil59"
       style="fill:#ffffff;fill-rule:nonzero"
       transform="matrix(1.2142471,0,0,1.080976,-245.96007,-261.30169)" />
    <polygon
       id="polygon3450"
       points="149.309,106.555 149.485,106.555 149.309,106.555 "
       class="fil59"
       style="fill:#ffffff;fill-rule:nonzero"
       transform="matrix(1.2142471,0,0,1.080976,-245.96007,-261.30169)" />
    <polygon
       id="polygon3456"
       points="116.395,107.26 116.606,107.26 116.395,107.26 "
       class="fil58"
       style="fill:#000000;fill-rule:nonzero"
       transform="matrix(1.2142471,0,0,1.080976,-245.96007,-261.30169)" />
    <polygon
       id="polygon3466"
       points="143.276,110.647 143.382,110.647 143.276,110.647 "
       class="fil59"
       style="fill:#ffffff;fill-rule:nonzero"
       transform="matrix(1.2142471,0,0,1.080976,-245.96007,-261.30169)" />
    <polygon
       id="polygon3472"
       points="142.077,111.317 142.289,111.317 142.077,111.317 "
       class="fil59"
       style="fill:#ffffff;fill-rule:nonzero"
       transform="matrix(1.2142471,0,0,1.080976,-245.96007,-261.30169)" />
    <polygon
       id="polygon3504"
       points="85.2445,126.981 85.3503,126.981 85.2445,126.981 "
       class="fil59"
       style="fill:#ffffff;fill-rule:nonzero"
       transform="matrix(1.2142471,0,0,1.080976,-245.96007,-261.30169)" />
    <polygon
       id="polygon3520"
       points="149.944,135.871 150.12,135.871 149.944,135.871 "
       class="fil59"
       style="fill:#ffffff;fill-rule:nonzero"
       transform="matrix(1.2142471,0,0,1.080976,-245.96007,-261.30169)" />
    <polygon
       id="polygon3532"
       points="82.2459,140.951 82.4575,140.951 82.2459,140.951 "
       class="fil59"
       style="fill:#ffffff;fill-rule:nonzero"
       transform="matrix(1.2142471,0,0,1.080976,-245.96007,-261.30169)" />
    <polygon
       id="polygon3536"
       points="109.339,141.797 109.586,141.797 109.339,141.797 "
       class="fil59"
       style="fill:#ffffff;fill-rule:nonzero"
       transform="matrix(1.2142471,0,0,1.080976,-245.96007,-261.30169)" />
    <polygon
       id="polygon3560"
       points="131.07,148.218 131.247,148.218 131.07,148.218 "
       class="fil59"
       style="fill:#ffffff;fill-rule:nonzero"
       transform="matrix(1.2142471,0,0,1.080976,-245.96007,-261.30169)" />
    <polygon
       id="polygon3572"
       points="113.079,153.298 113.255,153.298 113.079,153.298 "
       class="fil59"
       style="fill:#ffffff;fill-rule:nonzero"
       transform="matrix(1.2142471,0,0,1.080976,-245.96007,-261.30169)" />
    <polygon
       id="polygon3576"
       points="145.605,153.721 145.781,153.721 145.605,153.721 "
       class="fil59"
       style="fill:#ffffff;fill-rule:nonzero"
       transform="matrix(1.2142471,0,0,1.080976,-245.96007,-261.30169)" />
    <polygon
       id="polygon3586"
       points="106.164,157.708 106.305,157.708 106.164,157.708 "
       class="fil59"
       style="fill:#ffffff;fill-rule:nonzero"
       transform="matrix(1.2142471,0,0,1.080976,-245.96007,-261.30169)" />
    <polygon
       id="polygon3618"
       points="129.589,173.477 129.765,173.477 129.589,173.477 "
       class="fil59"
       style="fill:#ffffff;fill-rule:nonzero"
       transform="matrix(1.2142471,0,0,1.080976,-245.96007,-261.30169)" />
    <polygon
       id="polygon3630"
       points="100.59,177.569 100.943,177.569 100.59,177.569 "
       class="fil58"
       style="fill:#000000;fill-rule:nonzero"
       transform="matrix(1.2142471,0,0,1.080976,-245.96007,-261.30169)" />
    <polygon
       id="polygon3686"
       points="109.692,201.205 110.327,201.205 109.692,201.205 "
       class="fil59"
       style="fill:#ffffff;fill-rule:nonzero"
       transform="matrix(1.2142471,0,0,1.080976,-245.96007,-261.30169)" />
    <polygon
       id="polygon3690"
       points="89.5837,203.004 89.7601,203.004 89.5837,203.004 "
       class="fil58"
       style="fill:#000000;fill-rule:nonzero"
       transform="matrix(1.2142471,0,0,1.080976,-245.96007,-261.30169)" />
    <polygon
       id="polygon3694"
       points="109.621,203.251 109.974,203.251 109.621,203.251 "
       class="fil59"
       style="fill:#ffffff;fill-rule:nonzero"
       transform="matrix(1.2142471,0,0,1.080976,-245.96007,-261.30169)" />
    <polygon
       id="polygon3696"
       points="106.023,203.322 106.199,203.322 106.023,203.322 "
       class="fil59"
       style="fill:#ffffff;fill-rule:nonzero"
       transform="matrix(1.2142471,0,0,1.080976,-245.96007,-261.30169)" />
  </g>
</svg>
