<?xml version="1.0" encoding="UTF-8" standalone="no"?>
<!-- Created with Inkscape (http://www.inkscape.org/) -->
<svg
   xmlns:dc="http://purl.org/dc/elements/1.1/"
   xmlns:cc="http://creativecommons.org/ns#"
   xmlns:rdf="http://www.w3.org/1999/02/22-rdf-syntax-ns#"
   xmlns:svg="http://www.w3.org/2000/svg"
   xmlns="http://www.w3.org/2000/svg"
   xmlns:sodipodi="http://sodipodi.sourceforge.net/DTD/sodipodi-0.dtd"
   xmlns:inkscape="http://www.inkscape.org/namespaces/inkscape"
   width="220"
   height="50"
   id="svg2"
   sodipodi:version="0.32"
   inkscape:version="0.46"
   version="1.0"
   inkscape:export-filename="C:\Download\6.png"
   inkscape:export-xdpi="90.681816"
   inkscape:export-ydpi="90.681816"
   sodipodi:docname="geokret-banerek-zolty.svg"
   inkscape:output_extension="org.inkscape.output.svg.inkscape">
  <defs
     id="defs4">
    <inkscape:perspective
       sodipodi:type="inkscape:persp3d"
       inkscape:vp_x="0 : 526.18109 : 1"
       inkscape:vp_y="0 : 1000 : 0"
       inkscape:vp_z="744.09448 : 526.18109 : 1"
       inkscape:persp3d-origin="372.04724 : 350.78739 : 1"
       id="perspective10" />
    <inkscape:perspective
       id="perspective2420"
       inkscape:persp3d-origin="372.04724 : 350.78739 : 1"
       inkscape:vp_z="744.09448 : 526.18109 : 1"
       inkscape:vp_y="0 : 1000 : 0"
       inkscape:vp_x="0 : 526.18109 : 1"
       sodipodi:type="inkscape:persp3d" />
  </defs>
  <sodipodi:namedview
     id="base"
     pagecolor="#ffffff"
     bordercolor="#666666"
     borderopacity="1.0"
     gridtolerance="10000"
     guidetolerance="10"
     objecttolerance="10"
     inkscape:pageopacity="0.0"
     inkscape:pageshadow="2"
     inkscape:zoom="3.6772727"
     inkscape:cx="81.129286"
     inkscape:cy="45.264931"
     inkscape:document-units="px"
     inkscape:current-layer="layer1"
     showgrid="false"
     inkscape:window-width="1280"
     inkscape:window-height="977"
     inkscape:window-x="-4"
     inkscape:window-y="-4" />
  <metadata
     id="metadata7">
    <rdf:RDF>
      <cc:Work
         rdf:about="">
        <dc:format>image/svg+xml</dc:format>
        <dc:type
           rdf:resource="http://purl.org/dc/dcmitype/StillImage" />
      </cc:Work>
    </rdf:RDF>
  </metadata>
  <g
     inkscape:label="Layer 1"
     inkscape:groupmode="layer"
     id="layer1">
    <rect
       style="fill:#ffff00;stroke:#000000;stroke-width:0.96889281000000005;stroke-opacity:1;fill-opacity:1"
       id="rect2381"
       width="219.03108"
       height="49.031109"
       x="0.48444641"
       y="0.48444474" />
    <g
       id="g2781"
       transform="translate(2.1755254,-83.757726)">
      <g
         id="g2802"
         transform="translate(-1.9035847,83.485786)">
        <polygon
           transform="matrix(0.603395,-6.0847932e-2,5.4738541e-2,0.6707402,-28.205989,-33.161509)"
           style="fill:#ffffff;fill-rule:nonzero;stroke-linecap:round;stroke-linejoin:round"
           class="fil59"
           points="151.143,106.696 151.073,106.766 151.143,106.696 "
           id="polygon3452" />
        <polygon
           transform="matrix(0.603395,-6.0847932e-2,5.4738541e-2,0.6707402,-28.205989,-33.161509)"
           style="fill:#ffffff;fill-rule:nonzero;stroke-linecap:round;stroke-linejoin:round"
           class="fil59"
           points="151.955,106.908 152.06,107.049 151.955,106.908 "
           id="polygon3454" />
        <polygon
           transform="matrix(0.603395,-6.0847932e-2,5.4738541e-2,0.6707402,-28.205989,-33.161509)"
           style="fill:#ffffff;fill-rule:nonzero;stroke-linecap:round;stroke-linejoin:round"
           class="fil59"
           points="147.686,117.844 147.545,117.914 147.686,117.844 "
           id="polygon3482" />
        <path
           sodipodi:nodetypes="cssz"
           id="path4963"
           d="M 45.247249,23.852843 C 49.990641,27.769439 66.154068,39.15387 67.586608,41.98419 C 68.661687,44.108258 66.283065,48.117075 64.455591,47.338024 C 60.527516,45.66349 62.290165,43.550038 45.751904,29.661349"
           style="fill:#e9c642;fill-opacity:1;fill-rule:evenodd;stroke:#000000;stroke-width:0.99375677;stroke-linecap:round;stroke-linejoin:round;stroke-miterlimit:4;stroke-dasharray:none;stroke-opacity:1" />
        <path
           sodipodi:nodetypes="cscszczzzzzzzzzczzzzzz"
           id="path4965"
           d="M 45.851242,40.212966 C 46.657756,39.756458 50.183628,39.052333 50.924996,37.986224 C 51.666189,36.920367 51.150596,35.629464 51.488666,34.732269 C 52.355378,35.431643 53.83462,35.815988 54.335878,35.575244 C 54.805843,35.349529 55.864566,33.411669 55.873138,32.65022 C 55.881711,31.888766 55.167022,31.3071 54.717261,31.025389 C 56.56511,29.740316 57.738722,29.75537 59.055916,30.091511 C 60.373109,30.427653 59.994002,31.272238 60.727784,31.771133 C 61.443628,32.257832 62.018671,32.007272 62.481231,32.479527 C 62.943791,32.951783 63.013933,33.752267 63.519312,34.369903 C 64.037024,35.002612 64.423035,34.708963 64.993491,35.495584 C 65.563949,36.282205 65.37943,36.724657 65.752067,37.598222 C 66.124704,38.47179 67.095004,38.05729 66.053443,40.2124 C 65.043345,42.302403 63.831393,43.411094 62.996579,44.111642 C 62.140914,44.82969 60.178169,45.467793 59.744594,45.029147 C 59.227451,44.505951 59.450204,44.54882 59.601362,44.037805 C 59.182896,44.227396 58.962168,44.451491 58.166575,44.598716 C 57.370983,44.74594 57.19387,44.495818 56.86681,44.033028 C 56.53975,43.570238 57.272462,42.504811 56.858334,42.747561 C 56.444207,42.990311 56.488573,44.124767 55.210298,45.004028 C 53.932023,45.883286 51.934186,46.912159 50.331045,47.207813 C 48.727904,47.503468 47.713042,46.336237 46.976167,46.316748"
           style="fill:#d4af8b;fill-opacity:1;fill-rule:evenodd;stroke:#000000;stroke-width:0.99375677;stroke-linecap:round;stroke-linejoin:round;stroke-miterlimit:4;stroke-dasharray:none;stroke-opacity:1" />
        <path
           sodipodi:nodetypes="cszz"
           id="path7908"
           d="M 52.543928,38.555107 C 54.720569,40.860426 58.142609,44.255859 60.90053,43.921295 C 62.183991,43.765926 59.874261,38.7099 58.052167,36.742145 C 56.230073,34.774391 53.777925,35.915671 53.10848,36.376149"
           style="fill:none;fill-opacity:0.75;fill-rule:evenodd;stroke:#000000;stroke-width:0.99375677;stroke-linecap:round;stroke-linejoin:round;stroke-miterlimit:4;stroke-dasharray:none;stroke-opacity:1" />
        <path
           sodipodi:nodetypes="cz"
           id="path7910"
           d="M 58.2243,36.685489 C 58.700073,36.506018 59.640489,35.298691 59.828157,33.380012"
           style="fill:none;fill-opacity:0.75;fill-rule:evenodd;stroke:#000000;stroke-width:0.99375677;stroke-linecap:round;stroke-linejoin:round;stroke-miterlimit:4;stroke-dasharray:none;stroke-opacity:1" />
        <path
           sodipodi:nodetypes="cz"
           id="path7912"
           d="M 60.350256,39.987919 C 61.287743,38.813944 62.351662,37.306319 62.548622,35.962681"
           style="fill:none;fill-opacity:0.75;fill-rule:evenodd;stroke:#000000;stroke-width:0.99375677;stroke-linecap:round;stroke-linejoin:round;stroke-miterlimit:4;stroke-dasharray:none;stroke-opacity:1" />
        <path
           sodipodi:nodetypes="cz"
           id="path7914"
           d="M 61.375577,43.244645 C 62.946234,42.025999 64.028219,40.568495 64.527645,39.02196"
           style="fill:none;fill-opacity:0.75;fill-rule:evenodd;stroke:#000000;stroke-width:0.99375677;stroke-linecap:round;stroke-linejoin:round;stroke-miterlimit:4;stroke-dasharray:none;stroke-opacity:1" />
        <g
           transform="matrix(0.2353295,1.3832325e-2,-1.2443501e-2,0.2615947,-20.558648,-247.26541)"
           id="g23226">
          <path
             style="opacity:1;fill:#667b58;fill-opacity:1;fill-rule:evenodd;stroke:#000000;stroke-width:4;stroke-linecap:butt;stroke-linejoin:round;stroke-miterlimit:4;stroke-dasharray:none;stroke-opacity:1"
             d="M 291.29335,966.00527 L 252.61617,1040.1833 L 205.71775,1025.7961 L 150.41126,971.7975 L 223.09446,944.14426 L 291.29335,966.00527 z"
             id="path17385"
             sodipodi:nodetypes="cccccc" />
          <path
             style="opacity:1;fill:#c5c5c5;fill-opacity:1;fill-rule:evenodd;stroke:#000000;stroke-width:4;stroke-linecap:butt;stroke-linejoin:round;stroke-miterlimit:4;stroke-dasharray:none;stroke-opacity:1"
             d="M 205.71775,1025.7961 L 150.41126,971.79749 L 223.09446,944.14425 L 245.42215,951.6338 L 177.66932,977.12969 L 226.97716,1032.1482 L 205.71775,1025.7961 z"
             id="path19326"
             sodipodi:nodetypes="ccccccc" />
          <path
             style="fill:#667b58;fill-opacity:1;fill-rule:evenodd;stroke:#000000;stroke-width:4;stroke-linecap:butt;stroke-linejoin:round;stroke-miterlimit:4;stroke-dasharray:none;stroke-opacity:1"
             d="M 288.17968,1000.584 L 278.98243,1020.2322 C 263.77968,1010.4249 217.31948,992.73682 226.58677,983.76771 C 235.999,974.65833 265.00274,987.54157 288.17968,1000.584 z"
             id="path20297"
             sodipodi:nodetypes="cczc" />
        </g>
        <path
           sodipodi:nodetypes="cccszscccczzc"
           id="path13486"
           d="M 50.20765,31.741912 C 49.593894,33.695637 49.130588,41.669992 51.375344,47.637497 C 33.013922,46.958472 31.945239,39.485259 18.202299,36.18541 C 20.096484,31.204406 22.539259,28.581804 26.537105,25.036964 C 28.323428,23.453053 30.50862,20.500993 32.247571,18.598455 C 33.986521,16.695917 35.44034,15.34878 37.460826,14.401277 C 41.185492,12.654604 46.46377,13.092161 49.687175,16.301772 C 48.731159,16.554616 46.416062,16.262216 46.433871,18.143875 C 46.602864,20.268215 45.092502,21.236891 43.766622,22.366201 C 42.903437,23.36021 43.398402,24.890476 42.120088,25.462806 C 42.060011,27.164814 42.654221,28.807566 43.523673,30.316954 C 44.431459,31.89288 45.374903,32.907819 46.663741,33.838091 C 47.95258,34.768391 49.388202,32.811574 50.20765,31.741912 z"
           style="fill:#5d5d5d;fill-opacity:1;fill-rule:evenodd;stroke:#000000;stroke-width:0.99384558;stroke-linecap:butt;stroke-linejoin:round;stroke-miterlimit:4;stroke-dasharray:none;stroke-opacity:1" />
        <path
           sodipodi:nodetypes="ccccczzczccczz"
           id="path16414"
           d="M 50.123954,31.629086 C 49.040814,32.933858 47.868883,34.655564 46.580045,33.725265 C 45.291206,32.794992 44.347763,31.780054 43.439976,30.204128 C 42.570525,28.69474 41.976315,27.051987 42.036392,25.34998 C 43.314706,24.77765 42.819741,23.247383 43.682926,22.253375 C 45.008805,21.124065 46.519167,20.155389 46.350174,18.031049 C 46.332366,16.149364 49.021198,16.463716 49.665749,16.500416 C 50.341355,16.538898 54.062736,17.075104 55.28305,16.997433 C 56.127569,16.33153 57.035968,15.223439 57.589564,14.840506 C 58.12874,14.467553 58.844677,13.535158 59.525815,13.809666 C 61.653486,13.965218 61.138073,16.665163 61.022565,18.439865 C 60.71635,20.762115 57.900597,21.391055 55.103959,23.685014 C 53.031083,25.435929 53.212373,25.579798 51.967371,27.565822 C 50.72237,29.551847 51.207093,30.324315 50.123954,31.629086 z"
           style="fill:#d4af8b;fill-opacity:1;fill-rule:evenodd;stroke:#000000;stroke-width:0.99384558;stroke-linecap:butt;stroke-linejoin:round;stroke-miterlimit:4;stroke-dasharray:none;stroke-opacity:1" />
        <path
           sodipodi:nodetypes="cc"
           id="path26307"
           d="M 59.09444,16.493893 C 59.138077,17.682014 58.749936,18.474155 58.131392,18.768782"
           style="fill:none;fill-opacity:0.75;fill-rule:evenodd;stroke:#000000;stroke-width:1.24230695;stroke-linecap:round;stroke-linejoin:miter;stroke-miterlimit:4;stroke-dasharray:none;stroke-opacity:1" />
        <path
           sodipodi:nodetypes="cccccccc"
           style="fill:#000000;fill-rule:nonzero;stroke:#000000;stroke-width:0.99384558;stroke-linecap:round;stroke-linejoin:round;stroke-miterlimit:4;stroke-dasharray:none;stroke-opacity:1"
           class="fil58"
           d="M 48.395749,26.943143 C 48.765285,26.929495 50.738211,25.959456 51.004104,25.810375 C 50.366262,27.041614 49.873293,27.30161 49.215552,28.892284 C 48.925773,29.77027 48.407339,30.925802 47.556023,31.50979 C 46.295631,30.487176 46.186449,28.48973 45.60416,26.982804 C 44.016705,25.851372 42.946791,23.913312 41.501115,24.205738 C 41.157466,23.322775 41.686543,22.625595 41.702933,21.812575 C 42.366146,25.630068 46.532277,26.987964 48.395749,26.943143 z"
           id="path27278" />
        <path
           style="fill:#ffffff;fill-rule:nonzero"
           class="fil59"
           d="M 48.919601,29.276186 C 48.698388,29.485362 47.045081,29.569372 46.655467,29.468387 C 46.502643,29.092107 46.377367,27.964185 46.164732,27.515395 C 46.460766,27.523595 49.208895,27.786891 50.130578,26.883023 C 49.734295,27.327936 48.792463,29.326142 48.919601,29.276186 L 48.919601,29.276186 z"
           id="path28251" />
        <path
           sodipodi:nodetypes="czzc"
           id="path30216"
           d="M 39.601432,19.497921 C 40.790857,19.115171 41.022128,18.422025 42.066671,17.966895 C 43.111214,17.511766 43.115555,17.582547 43.779607,17.677429 C 44.443659,17.772311 44.722879,18.346449 44.722879,18.346449"
           style="fill:none;fill-opacity:0.75;fill-rule:evenodd;stroke:#000000;stroke-width:0.99375677;stroke-linecap:round;stroke-linejoin:round;stroke-miterlimit:4;stroke-dasharray:none;stroke-opacity:1" />
      </g>
    </g>
    <polygon
       transform="matrix(1.8094894,0,0,1.8422792,-358.82239,-280.66609)"
       style="fill:#ffffff;fill-rule:nonzero"
       class="fil59"
       points="99.9553,101.792 100.167,101.792 99.9553,101.792 "
       id="polygon2519" />
    <polygon
       transform="matrix(1.8094894,0,0,1.8422792,-358.82239,-280.66609)"
       style="fill:#ffffff;fill-rule:nonzero"
       class="fil59"
       points="149.309,106.555 149.485,106.555 149.309,106.555 "
       id="polygon2521" />
    <polygon
       transform="matrix(1.8094894,0,0,1.8422792,-358.82239,-280.66609)"
       style="fill:#000000;fill-rule:nonzero"
       class="fil58"
       points="116.395,107.26 116.606,107.26 116.395,107.26 "
       id="polygon2523" />
    <polygon
       transform="matrix(1.8094894,0,0,1.8422792,-358.82239,-280.66609)"
       style="fill:#ffffff;fill-rule:nonzero"
       class="fil59"
       points="143.276,110.647 143.382,110.647 143.276,110.647 "
       id="polygon2525" />
    <polygon
       transform="matrix(1.8094894,0,0,1.8422792,-358.82239,-280.66609)"
       style="fill:#ffffff;fill-rule:nonzero"
       class="fil59"
       points="142.077,111.317 142.289,111.317 142.077,111.317 "
       id="polygon2527" />
    <polygon
       transform="matrix(1.8094894,0,0,1.8422792,-358.82239,-280.66609)"
       style="fill:#ffffff;fill-rule:nonzero"
       class="fil59"
       points="85.2445,126.981 85.3503,126.981 85.2445,126.981 "
       id="polygon2529" />
    <polygon
       transform="matrix(1.8094894,0,0,1.8422792,-358.82239,-280.66609)"
       style="fill:#ffffff;fill-rule:nonzero"
       class="fil59"
       points="149.944,135.871 150.12,135.871 149.944,135.871 "
       id="polygon2531" />
    <polygon
       transform="matrix(1.8094894,0,0,1.8422792,-358.82239,-280.66609)"
       style="fill:#ffffff;fill-rule:nonzero"
       class="fil59"
       points="82.2459,140.951 82.4575,140.951 82.2459,140.951 "
       id="polygon2533" />
    <polygon
       transform="matrix(1.8094894,0,0,1.8422792,-358.82239,-280.66609)"
       style="fill:#ffffff;fill-rule:nonzero"
       class="fil59"
       points="109.339,141.797 109.586,141.797 109.339,141.797 "
       id="polygon2535" />
    <polygon
       transform="matrix(1.8094894,0,0,1.8422792,-358.82239,-280.66609)"
       style="fill:#ffffff;fill-rule:nonzero"
       class="fil59"
       points="131.07,148.218 131.247,148.218 131.07,148.218 "
       id="polygon2537" />
    <polygon
       transform="matrix(1.8094894,0,0,1.8422792,-358.82239,-280.66609)"
       style="fill:#ffffff;fill-rule:nonzero"
       class="fil59"
       points="113.079,153.298 113.255,153.298 113.079,153.298 "
       id="polygon2539" />
    <polygon
       transform="matrix(1.8094894,0,0,1.8422792,-358.82239,-280.66609)"
       style="fill:#ffffff;fill-rule:nonzero"
       class="fil59"
       points="145.605,153.721 145.781,153.721 145.605,153.721 "
       id="polygon2541" />
    <polygon
       transform="matrix(1.8094894,0,0,1.8422792,-358.82239,-280.66609)"
       style="fill:#ffffff;fill-rule:nonzero"
       class="fil59"
       points="106.164,157.708 106.305,157.708 106.164,157.708 "
       id="polygon2543" />
    <polygon
       transform="matrix(1.8094894,0,0,1.8422792,-358.82239,-280.66609)"
       style="fill:#ffffff;fill-rule:nonzero"
       class="fil59"
       points="129.589,173.477 129.765,173.477 129.589,173.477 "
       id="polygon2545" />
    <polygon
       transform="matrix(1.8094894,0,0,1.8422792,-358.82239,-280.66609)"
       style="fill:#000000;fill-rule:nonzero"
       class="fil58"
       points="100.59,177.569 100.943,177.569 100.59,177.569 "
       id="polygon2547" />
    <polygon
       transform="matrix(1.8094894,0,0,1.8422792,-358.82239,-280.66609)"
       style="fill:#ffffff;fill-rule:nonzero"
       class="fil59"
       points="109.692,201.205 110.327,201.205 109.692,201.205 "
       id="polygon2549" />
    <polygon
       transform="matrix(1.8094894,0,0,1.8422792,-358.82239,-280.66609)"
       style="fill:#000000;fill-rule:nonzero"
       class="fil58"
       points="89.5837,203.004 89.7601,203.004 89.5837,203.004 "
       id="polygon2551" />
    <polygon
       transform="matrix(1.8094894,0,0,1.8422792,-358.82239,-280.66609)"
       style="fill:#ffffff;fill-rule:nonzero"
       class="fil59"
       points="109.621,203.251 109.974,203.251 109.621,203.251 "
       id="polygon2553" />
    <polygon
       transform="matrix(1.8094894,0,0,1.8422792,-358.82239,-280.66609)"
       style="fill:#ffffff;fill-rule:nonzero"
       class="fil59"
       points="106.023,203.322 106.199,203.322 106.023,203.322 "
       id="polygon2555" />
    <polygon
       id="polygon3440"
       points="99.9553,101.792 100.167,101.792 99.9553,101.792 "
       class="fil59"
       style="fill:#ffffff;fill-rule:nonzero"
       transform="matrix(1.2142471,0,0,1.080976,-245.96007,-261.30169)" />
    <polygon
       id="polygon3450"
       points="149.309,106.555 149.485,106.555 149.309,106.555 "
       class="fil59"
       style="fill:#ffffff;fill-rule:nonzero"
       transform="matrix(1.2142471,0,0,1.080976,-245.96007,-261.30169)" />
    <polygon
       id="polygon3456"
       points="116.395,107.26 116.606,107.26 116.395,107.26 "
       class="fil58"
       style="fill:#000000;fill-rule:nonzero"
       transform="matrix(1.2142471,0,0,1.080976,-245.96007,-261.30169)" />
    <polygon
       id="polygon3466"
       points="143.276,110.647 143.382,110.647 143.276,110.647 "
       class="fil59"
       style="fill:#ffffff;fill-rule:nonzero"
       transform="matrix(1.2142471,0,0,1.080976,-245.96007,-261.30169)" />
    <polygon
       id="polygon3472"
       points="142.077,111.317 142.289,111.317 142.077,111.317 "
       class="fil59"
       style="fill:#ffffff;fill-rule:nonzero"
       transform="matrix(1.2142471,0,0,1.080976,-245.96007,-261.30169)" />
    <polygon
       id="polygon3504"
       points="85.2445,126.981 85.3503,126.981 85.2445,126.981 "
       class="fil59"
       style="fill:#ffffff;fill-rule:nonzero"
       transform="matrix(1.2142471,0,0,1.080976,-245.96007,-261.30169)" />
    <polygon
       id="polygon3520"
       points="149.944,135.871 150.12,135.871 149.944,135.871 "
       class="fil59"
       style="fill:#ffffff;fill-rule:nonzero"
       transform="matrix(1.2142471,0,0,1.080976,-245.96007,-261.30169)" />
    <polygon
       id="polygon3532"
       points="82.2459,140.951 82.4575,140.951 82.2459,140.951 "
       class="fil59"
       style="fill:#ffffff;fill-rule:nonzero"
       transform="matrix(1.2142471,0,0,1.080976,-245.96007,-261.30169)" />
    <polygon
       id="polygon3536"
       points="109.339,141.797 109.586,141.797 109.339,141.797 "
       class="fil59"
       style="fill:#ffffff;fill-rule:nonzero"
       transform="matrix(1.2142471,0,0,1.080976,-245.96007,-261.30169)" />
    <polygon
       id="polygon3560"
       points="131.07,148.218 131.247,148.218 131.07,148.218 "
       class="fil59"
       style="fill:#ffffff;fill-rule:nonzero"
       transform="matrix(1.2142471,0,0,1.080976,-245.96007,-261.30169)" />
    <polygon
       id="polygon3572"
       points="113.079,153.298 113.255,153.298 113.079,153.298 "
       class="fil59"
       style="fill:#ffffff;fill-rule:nonzero"
       transform="matrix(1.2142471,0,0,1.080976,-245.96007,-261.30169)" />
    <polygon
       id="polygon3576"
       points="145.605,153.721 145.781,153.721 145.605,153.721 "
       class="fil59"
       style="fill:#ffffff;fill-rule:nonzero"
       transform="matrix(1.2142471,0,0,1.080976,-245.96007,-261.30169)" />
    <polygon
       id="polygon3586"
       points="106.164,157.708 106.305,157.708 106.164,157.708 "
       class="fil59"
       style="fill:#ffffff;fill-rule:nonzero"
       transform="matrix(1.2142471,0,0,1.080976,-245.96007,-261.30169)" />
    <polygon
       id="polygon3618"
       points="129.589,173.477 129.765,173.477 129.589,173.477 "
       class="fil59"
       style="fill:#ffffff;fill-rule:nonzero"
       transform="matrix(1.2142471,0,0,1.080976,-245.96007,-261.30169)" />
    <polygon
       id="polygon3630"
       points="100.59,177.569 100.943,177.569 100.59,177.569 "
       class="fil58"
       style="fill:#000000;fill-rule:nonzero"
       transform="matrix(1.2142471,0,0,1.080976,-245.96007,-261.30169)" />
    <polygon
       id="polygon3686"
       points="109.692,201.205 110.327,201.205 109.692,201.205 "
       class="fil59"
       style="fill:#ffffff;fill-rule:nonzero"
       transform="matrix(1.2142471,0,0,1.080976,-245.96007,-261.30169)" />
    <polygon
       id="polygon3690"
       points="89.5837,203.004 89.7601,203.004 89.5837,203.004 "
       class="fil58"
       style="fill:#000000;fill-rule:nonzero"
       transform="matrix(1.2142471,0,0,1.080976,-245.96007,-261.30169)" />
    <polygon
       id="polygon3694"
       points="109.621,203.251 109.974,203.251 109.621,203.251 "
       class="fil59"
       style="fill:#ffffff;fill-rule:nonzero"
       transform="matrix(1.2142471,0,0,1.080976,-245.96007,-261.30169)" />
    <polygon
       id="polygon3696"
       points="106.023,203.322 106.199,203.322 106.023,203.322 "
       class="fil59"
       style="fill:#ffffff;fill-rule:nonzero"
       transform="matrix(1.2142471,0,0,1.080976,-245.96007,-261.30169)" />
  </g>
</svg>
