<?xml version="1.0" encoding="UTF-8" standalone="no"?>
<!-- Created with Inkscape (http://www.inkscape.org/) -->

<svg
   xmlns:dc="http://purl.org/dc/elements/1.1/"
   xmlns:cc="http://creativecommons.org/ns#"
   xmlns:rdf="http://www.w3.org/1999/02/22-rdf-syntax-ns#"
   xmlns:svg="http://www.w3.org/2000/svg"
   xmlns="http://www.w3.org/2000/svg"
   xmlns:sodipodi="http://sodipodi.sourceforge.net/DTD/sodipodi-0.dtd"
   xmlns:inkscape="http://www.inkscape.org/namespaces/inkscape"
   version="1.0"
   width="245.25632"
   height="38.064663"
   id="svg2"
   sodipodi:version="0.32"
   inkscape:version="0.48.2 r9819"
   sodipodi:docname="logo-1kwietnia2.svg"
   inkscape:output_extension="org.inkscape.output.svg.inkscape"
   inkscape:export-filename="/mnt/nfs/geokrety/templates/logo-jesien.png"
   inkscape:export-xdpi="131.54472"
   inkscape:export-ydpi="131.54472">
  <metadata
     id="metadata32">
    <rdf:RDF>
      <cc:Work
         rdf:about="">
        <dc:format>image/svg+xml</dc:format>
        <dc:type
           rdf:resource="http://purl.org/dc/dcmitype/StillImage" />
        <dc:title></dc:title>
      </cc:Work>
    </rdf:RDF>
  </metadata>
  <sodipodi:namedview
     inkscape:window-height="745"
     inkscape:window-width="1280"
     inkscape:pageshadow="2"
     inkscape:pageopacity="0.0"
     guidetolerance="10.0"
     gridtolerance="10.0"
     objecttolerance="10.0"
     borderopacity="1.0"
     bordercolor="#666666"
     pagecolor="#ffffff"
     id="base"
     showgrid="false"
     inkscape:zoom="2.7081461"
     inkscape:cx="96.580501"
     inkscape:cy="40.275556"
     inkscape:window-x="0"
     inkscape:window-y="26"
     inkscape:current-layer="svg2"
     inkscape:window-maximized="1"
     fit-margin-top="0"
     fit-margin-left="0"
     fit-margin-right="0"
     fit-margin-bottom="0" />
  <defs
     id="defs4">
    <inkscape:perspective
       sodipodi:type="inkscape:persp3d"
       inkscape:vp_x="0 : 17.129309 : 1"
       inkscape:vp_y="0 : 1000 : 0"
       inkscape:vp_z="197.98587 : 17.129309 : 1"
       inkscape:persp3d-origin="98.992935 : 11.419539 : 1"
       id="perspective34" />
    <inkscape:perspective
       id="perspective2736"
       inkscape:persp3d-origin="372.04724 : 350.78739 : 1"
       inkscape:vp_z="744.09448 : 526.18109 : 1"
       inkscape:vp_y="0 : 1000 : 0"
       inkscape:vp_x="0 : 526.18109 : 1"
       sodipodi:type="inkscape:persp3d" />
    <inkscape:perspective
       id="perspective3687"
       inkscape:persp3d-origin="372.04724 : 350.78739 : 1"
       inkscape:vp_z="744.09448 : 526.18109 : 1"
       inkscape:vp_y="0 : 1000 : 0"
       inkscape:vp_x="0 : 526.18109 : 1"
       sodipodi:type="inkscape:persp3d" />
    <inkscape:perspective
       id="perspective3743"
       inkscape:persp3d-origin="0.5 : 0.33333333 : 1"
       inkscape:vp_z="1 : 0.5 : 1"
       inkscape:vp_y="0 : 1000 : 0"
       inkscape:vp_x="0 : 0.5 : 1"
       sodipodi:type="inkscape:persp3d" />
  </defs>
  <polygon
     id="polygon3440"
     points="100.167,101.792 99.9553,101.792 99.9553,101.792 "
     class="fil59"
     style="fill:#ffffff;fill-rule:nonzero"
     transform="matrix(1.8094894,0,0,1.8094894,-997.14458,-71.777184)" />
  <polygon
     id="polygon3450"
     points="149.485,106.555 149.309,106.555 149.309,106.555 "
     class="fil59"
     style="fill:#ffffff;fill-rule:nonzero"
     transform="matrix(1.8094894,0,0,1.8094894,-997.14458,-71.777184)" />
  <polygon
     id="polygon3456"
     points="116.606,107.26 116.395,107.26 116.395,107.26 "
     class="fil58"
     style="fill:#000000;fill-rule:nonzero"
     transform="matrix(1.8094894,0,0,1.8094894,-997.14458,-71.777184)" />
  <polygon
     id="polygon3466"
     points="143.382,110.647 143.276,110.647 143.276,110.647 "
     class="fil59"
     style="fill:#ffffff;fill-rule:nonzero"
     transform="matrix(1.8094894,0,0,1.8094894,-997.14458,-71.777184)" />
  <polygon
     id="polygon3472"
     points="142.289,111.317 142.077,111.317 142.077,111.317 "
     class="fil59"
     style="fill:#ffffff;fill-rule:nonzero"
     transform="matrix(1.8094894,0,0,1.8094894,-997.14458,-71.777184)" />
  <polygon
     id="polygon3504"
     points="85.3503,126.981 85.2445,126.981 85.2445,126.981 "
     class="fil59"
     style="fill:#ffffff;fill-rule:nonzero"
     transform="matrix(1.8094894,0,0,1.8094894,-997.14458,-71.777184)" />
  <polygon
     id="polygon3520"
     points="150.12,135.871 149.944,135.871 149.944,135.871 "
     class="fil59"
     style="fill:#ffffff;fill-rule:nonzero"
     transform="matrix(1.8094894,0,0,1.8094894,-997.14458,-71.777184)" />
  <polygon
     id="polygon3532"
     points="82.4575,140.951 82.2459,140.951 82.2459,140.951 "
     class="fil59"
     style="fill:#ffffff;fill-rule:nonzero"
     transform="matrix(1.8094894,0,0,1.8094894,-997.14458,-71.777184)" />
  <polygon
     id="polygon3536"
     points="109.586,141.797 109.339,141.797 109.339,141.797 "
     class="fil59"
     style="fill:#ffffff;fill-rule:nonzero"
     transform="matrix(1.8094894,0,0,1.8094894,-997.14458,-71.777184)" />
  <polygon
     id="polygon3560"
     points="131.247,148.218 131.07,148.218 131.07,148.218 "
     class="fil59"
     style="fill:#ffffff;fill-rule:nonzero"
     transform="matrix(1.8094894,0,0,1.8094894,-997.14458,-71.777184)" />
  <polygon
     id="polygon3572"
     points="113.255,153.298 113.079,153.298 113.079,153.298 "
     class="fil59"
     style="fill:#ffffff;fill-rule:nonzero"
     transform="matrix(1.8094894,0,0,1.8094894,-997.14458,-71.777184)" />
  <polygon
     id="polygon3576"
     points="145.781,153.721 145.605,153.721 145.605,153.721 "
     class="fil59"
     style="fill:#ffffff;fill-rule:nonzero"
     transform="matrix(1.8094894,0,0,1.8094894,-997.14458,-71.777184)" />
  <polygon
     id="polygon3586"
     points="106.305,157.708 106.164,157.708 106.164,157.708 "
     class="fil59"
     style="fill:#ffffff;fill-rule:nonzero"
     transform="matrix(1.8094894,0,0,1.8094894,-997.14458,-71.777184)" />
  <polygon
     id="polygon3618"
     points="129.765,173.477 129.589,173.477 129.589,173.477 "
     class="fil59"
     style="fill:#ffffff;fill-rule:nonzero"
     transform="matrix(1.8094894,0,0,1.8094894,-997.14458,-71.777184)" />
  <polygon
     id="polygon3630"
     points="100.943,177.569 100.59,177.569 100.59,177.569 "
     class="fil58"
     style="fill:#000000;fill-rule:nonzero"
     transform="matrix(1.8094894,0,0,1.8094894,-997.14458,-71.777184)" />
  <polygon
     id="polygon3686"
     points="110.327,201.205 109.692,201.205 109.692,201.205 "
     class="fil59"
     style="fill:#ffffff;fill-rule:nonzero"
     transform="matrix(1.8094894,0,0,1.8094894,-997.14458,-71.777184)" />
  <polygon
     id="polygon3690"
     points="89.7601,203.004 89.5837,203.004 89.5837,203.004 "
     class="fil58"
     style="fill:#000000;fill-rule:nonzero"
     transform="matrix(1.8094894,0,0,1.8094894,-997.14458,-71.777184)" />
  <polygon
     id="polygon3694"
     points="109.974,203.251 109.621,203.251 109.621,203.251 "
     class="fil59"
     style="fill:#ffffff;fill-rule:nonzero"
     transform="matrix(1.8094894,0,0,1.8094894,-997.14458,-71.777184)" />
  <polygon
     id="polygon3696"
     points="106.199,203.322 106.023,203.322 106.023,203.322 "
     class="fil59"
     style="fill:#ffffff;fill-rule:nonzero"
     transform="matrix(1.8094894,0,0,1.8094894,-997.14458,-71.777184)" />
  <text
     xml:space="preserve"
     style="font-size:40px;font-style:normal;font-weight:normal;line-height:125%;letter-spacing:0px;word-spacing:0px;fill:#000000;fill-opacity:1;stroke:none;font-family:Sans"
     x="38.99577"
     y="-70.52298"
     id="text8317"
     sodipodi:linespacing="125%"><tspan
       sodipodi:role="line"
       id="tspan8319"
       x="38.99577"
       y="-70.52298" /></text>
  <text
     xml:space="preserve"
     style="font-size:29.00234985px;font-style:normal;font-weight:normal;line-height:125%;letter-spacing:0px;word-spacing:0px;fill:#000000;fill-opacity:1;stroke:none;font-family:Sans"
     x="49.255814"
     y="30.783302"
     id="text8321"
     sodipodi:linespacing="125%"
     transform="scale(0.99917777,1.0008229)"><tspan
       sodipodi:role="line"
       id="tspan8323"
       x="49.255814"
       y="30.783302">Geo</tspan></text>
  <rect
     style="fill:#ff0000;fill-opacity:1;stroke:none"
     id="rect8705"
     width="137.36334"
     height="27.324965"
     x="106.7852"
     y="5.913074" />
  <text
     xml:space="preserve"
     style="font-size:29.00234985px;font-style:normal;font-weight:normal;line-height:125%;letter-spacing:0px;word-spacing:0px;fill:#ffffff;fill-opacity:1;stroke:none;font-family:Sans"
     x="106.55057"
     y="30.783302"
     id="text8325"
     sodipodi:linespacing="125%"
     transform="scale(0.99917777,1.0008229)"><tspan
       sodipodi:role="line"
       id="tspan8327"
       x="106.55057"
       y="30.783302"
       style="fill:#ffffff">Biedronki</tspan></text>
  <g
     id="g8601"
     transform="matrix(0.38463581,0,0,0.37253379,-51.628234,-105.11433)">
    <g
       transform="matrix(1.25,0,0,-1.25,92.566388,709.17787)"
       id="g9465" />
    <g
       transform="matrix(0.97237273,0,0,-0.97237273,78.396907,511.7193)"
       id="g9655" />
    <path
       id="path2935"
       d="m 191.69247,317.74898 c -31.74068,0 -57.46619,24.72013 -57.46619,55.22237 0,1.8973 0.10122,3.78167 0.29559,5.62972 15.56085,3.61867 34.2692,5.73721 54.40276,5.73721 22.64377,0 43.48655,-2.67916 60.07281,-7.16143 0.10824,-1.3851 0.17466,-2.79379 0.17466,-4.2055 0,-30.50224 -25.73895,-55.22237 -57.47963,-55.22237 z"
       style="fill:#ff0000;fill-opacity:1;stroke:none"
       inkscape:connector-curvature="0" />
    <path
       transform="matrix(0.4299552,0,0,0.4299552,104.31526,308.34943)"
       d="m 139.77324,131.84064 c 0,13.53786 -10.9746,24.51247 -24.51247,24.51247 -13.53786,0 -24.512469,-10.97461 -24.512469,-24.51247 0,-13.53787 10.974609,-24.51247 24.512469,-24.51247 13.53787,0 24.51247,10.9746 24.51247,24.51247 z"
       sodipodi:ry="24.512472"
       sodipodi:rx="24.512472"
       sodipodi:cy="131.84064"
       sodipodi:cx="115.26077"
       id="path2937"
       style="fill:#000000;fill-opacity:1;fill-rule:evenodd;stroke:#000000;stroke-width:3;stroke-linecap:round;stroke-linejoin:round;stroke-miterlimit:4;stroke-opacity:1;stroke-dasharray:none"
       sodipodi:type="arc" />
    <path
       sodipodi:type="arc"
       style="fill:#000000;fill-opacity:1;fill-rule:evenodd;stroke:#000000;stroke-width:3;stroke-linecap:round;stroke-linejoin:round;stroke-miterlimit:4;stroke-opacity:1;stroke-dasharray:none"
       id="path2939"
       sodipodi:cx="115.26077"
       sodipodi:cy="131.84064"
       sodipodi:rx="24.512472"
       sodipodi:ry="24.512472"
       d="m 139.77324,131.84064 c 0,13.53786 -10.9746,24.51247 -24.51247,24.51247 -13.53786,0 -24.512469,-10.97461 -24.512469,-24.51247 0,-13.53787 10.974609,-24.51247 24.512469,-24.51247 13.53787,0 24.51247,10.9746 24.51247,24.51247 z"
       transform="matrix(0.4299552,0,0,0.4299552,134.19815,279.12028)" />
    <path
       transform="matrix(0.4299552,0,0,0.4299552,156.11956,310.62887)"
       d="m 139.77324,131.84064 c 0,13.53786 -10.9746,24.51247 -24.51247,24.51247 -13.53786,0 -24.512469,-10.97461 -24.512469,-24.51247 0,-13.53787 10.974609,-24.51247 24.512469,-24.51247 13.53787,0 24.51247,10.9746 24.51247,24.51247 z"
       sodipodi:ry="24.512472"
       sodipodi:rx="24.512472"
       sodipodi:cy="131.84064"
       sodipodi:cx="115.26077"
       id="path2941"
       style="fill:#000000;fill-opacity:1;fill-rule:evenodd;stroke:#000000;stroke-width:3;stroke-linecap:round;stroke-linejoin:round;stroke-miterlimit:4;stroke-opacity:1;stroke-dasharray:none"
       sodipodi:type="arc" />
    <g
       id="g2943"
       transform="translate(-137.67008,-345.02557)"
       inkscape:export-xdpi="300"
       inkscape:export-ydpi="300">
      <path
         transform="matrix(0.1497951,0,0,0.1497951,358.23032,615.04448)"
         d="m 139.77324,131.84064 c 0,13.53786 -10.9746,24.51247 -24.51247,24.51247 -13.53786,0 -24.512469,-10.97461 -24.512469,-24.51247 0,-13.53787 10.974609,-24.51247 24.512469,-24.51247 13.53787,0 24.51247,10.9746 24.51247,24.51247 z"
         sodipodi:ry="24.512472"
         sodipodi:rx="24.512472"
         sodipodi:cy="131.84064"
         sodipodi:cx="115.26077"
         id="path2945"
         style="fill:#000000;fill-opacity:1;fill-rule:evenodd;stroke:#000000;stroke-width:3;stroke-linecap:round;stroke-linejoin:round;stroke-miterlimit:4;stroke-opacity:1;stroke-dasharray:none"
         sodipodi:type="arc" />
      <path
         transform="matrix(0.1497951,0,0,0.1497951,379.48546,618.78272)"
         d="m 139.77324,131.84064 c 0,13.53786 -10.9746,24.51247 -24.51247,24.51247 -13.53786,0 -24.512469,-10.97461 -24.512469,-24.51247 0,-13.53787 10.974609,-24.51247 24.512469,-24.51247 13.53787,0 24.51247,10.9746 24.51247,24.51247 z"
         sodipodi:ry="24.512472"
         sodipodi:rx="24.512472"
         sodipodi:cy="131.84064"
         sodipodi:cx="115.26077"
         id="path2947"
         style="fill:#000000;fill-opacity:1;fill-rule:evenodd;stroke:#000000;stroke-width:3;stroke-linecap:round;stroke-linejoin:round;stroke-miterlimit:4;stroke-opacity:1;stroke-dasharray:none"
         sodipodi:type="arc" />
      <path
         style="fill:#000000;fill-opacity:1;stroke:#000000;stroke-width:1.36482584px;stroke-linecap:butt;stroke-linejoin:miter;stroke-opacity:1"
         d="m 347.3633,655.23235 c 11.24572,-10.04384 27.36314,-9.91986 39.89089,-3.28413 19.1636,10.34084 9.41027,35.77923 -1.53159,43.48057 -12.30131,8.87917 -22.86331,8.25974 -31.22837,0.65679 -8.67827,-7.23653 -19.51073,-27.605 -7.13093,-40.85323 z"
         id="path2949"
         sodipodi:nodetypes="ccccc"
         inkscape:connector-curvature="0" />
      <g
         id="g2951"
         transform="matrix(1.0284785,0,0,1.0284785,406.89136,641.18915)">
        <path
           transform="matrix(0.17771062,0,0,0.17771062,-42.905099,-80.331303)"
           d="m 177.14286,592.36218 c 0,31.55913 -25.58373,57.14286 -57.14286,57.14286 -31.559128,0 -57.142857,-25.58373 -57.142857,-57.14286 0,-31.55913 25.583729,-57.14285 57.142857,-57.14285 31.55913,0 57.14286,25.58372 57.14286,57.14285 z"
           sodipodi:ry="57.142857"
           sodipodi:rx="57.142857"
           sodipodi:cy="592.36218"
           sodipodi:cx="120"
           id="path2953"
           style="fill:#ffffff;fill-opacity:1;stroke:none"
           sodipodi:type="arc" />
        <path
           sodipodi:type="arc"
           style="fill:#000000;fill-opacity:1;stroke:#000000;stroke-width:0.1;stroke-linejoin:miter;stroke-miterlimit:4;stroke-opacity:1;stroke-dasharray:none"
           id="path2955"
           sodipodi:cx="120"
           sodipodi:cy="592.36218"
           sodipodi:rx="57.142857"
           sodipodi:ry="57.142857"
           d="m 177.14286,592.36218 c 0,31.55913 -25.58373,57.14286 -57.14286,57.14286 -31.559128,0 -57.142857,-25.58373 -57.142857,-57.14286 0,-31.55913 25.583729,-57.14285 57.142857,-57.14285 31.55913,0 57.14286,25.58372 57.14286,57.14285 z"
           transform="matrix(0.11892134,0,0,0.13545904,-35.976303,-55.557543)" />
        <path
           transform="matrix(0.04452845,0,0,0.04452845,-26.133566,-5.6169532)"
           d="m 177.14286,592.36218 c 0,31.55913 -25.58373,57.14286 -57.14286,57.14286 -31.559128,0 -57.142857,-25.58373 -57.142857,-57.14286 0,-31.55913 25.583729,-57.14285 57.142857,-57.14285 31.55913,0 57.14286,25.58372 57.14286,57.14285 z"
           sodipodi:ry="57.142857"
           sodipodi:rx="57.142857"
           sodipodi:cy="592.36218"
           sodipodi:cx="120"
           id="path2957"
           style="fill:#ffffff;fill-opacity:1;stroke:#000000;stroke-width:0.1;stroke-linejoin:miter;stroke-miterlimit:4;stroke-opacity:1;stroke-dasharray:none"
           sodipodi:type="arc" />
      </g>
      <g
         transform="matrix(1.0284785,0,0,1.0284785,382.50576,641.18915)"
         id="g2959">
        <path
           sodipodi:type="arc"
           style="fill:#ffffff;fill-opacity:1;stroke:none"
           id="path2961"
           sodipodi:cx="120"
           sodipodi:cy="592.36218"
           sodipodi:rx="57.142857"
           sodipodi:ry="57.142857"
           d="m 177.14286,592.36218 c 0,31.55913 -25.58373,57.14286 -57.14286,57.14286 -31.559128,0 -57.142857,-25.58373 -57.142857,-57.14286 0,-31.55913 25.583729,-57.14285 57.142857,-57.14285 31.55913,0 57.14286,25.58372 57.14286,57.14285 z"
           transform="matrix(0.17771062,0,0,0.17771062,-42.905099,-80.331303)" />
        <path
           transform="matrix(0.11892134,0,0,0.13545904,-35.976303,-55.557543)"
           d="m 177.14286,592.36218 c 0,31.55913 -25.58373,57.14286 -57.14286,57.14286 -31.559128,0 -57.142857,-25.58373 -57.142857,-57.14286 0,-31.55913 25.583729,-57.14285 57.142857,-57.14285 31.55913,0 57.14286,25.58372 57.14286,57.14285 z"
           sodipodi:ry="57.142857"
           sodipodi:rx="57.142857"
           sodipodi:cy="592.36218"
           sodipodi:cx="120"
           id="path2963"
           style="fill:#000000;fill-opacity:1;stroke:#000000;stroke-width:0.1;stroke-linejoin:miter;stroke-miterlimit:4;stroke-opacity:1;stroke-dasharray:none"
           sodipodi:type="arc" />
        <path
           sodipodi:type="arc"
           style="fill:#ffffff;fill-opacity:1;stroke:#000000;stroke-width:0.1;stroke-linejoin:miter;stroke-miterlimit:4;stroke-opacity:1;stroke-dasharray:none"
           id="path2965"
           sodipodi:cx="120"
           sodipodi:cy="592.36218"
           sodipodi:rx="57.142857"
           sodipodi:ry="57.142857"
           d="m 177.14286,592.36218 c 0,31.55913 -25.58373,57.14286 -57.14286,57.14286 -31.559128,0 -57.142857,-25.58373 -57.142857,-57.14286 0,-31.55913 25.583729,-57.14285 57.142857,-57.14285 31.55913,0 57.14286,25.58372 57.14286,57.14285 z"
           transform="matrix(0.04452845,0,0,0.04452845,-26.133566,-5.6169532)" />
      </g>
      <path
         inkscape:export-ydpi="1256.7957"
         inkscape:export-xdpi="1256.7957"
         sodipodi:nodetypes="cc"
         id="path2967"
         d="m 362.13072,688.7262 c 7.99315,5.97062 14.77018,4.15803 21.18072,0"
         style="fill:none;stroke:#ffffff;stroke-width:1.41813159px;stroke-linecap:round;stroke-linejoin:round;stroke-opacity:1"
         inkscape:connector-curvature="0" />
      <path
         style="fill:none;stroke:#000000;stroke-width:4.29955196;stroke-linecap:round;stroke-linejoin:round;stroke-miterlimit:4;stroke-opacity:1;stroke-dasharray:none"
         d="m 361.05449,649.04671 c 2.13757,-11.13557 2.11366,-27.84275 13.48202,-15.18417"
         id="path2969"
         sodipodi:nodetypes="cc"
         inkscape:connector-curvature="0" />
      <path
         sodipodi:nodetypes="cc"
         id="path2971"
         d="m 378.77049,647.82033 c 5.35257,-9.99599 10.2985,-25.95432 17.38779,-10.48755"
         style="fill:none;stroke:#000000;stroke-width:4.29955196;stroke-linecap:round;stroke-linejoin:round;stroke-miterlimit:4;stroke-opacity:1;stroke-dasharray:none"
         inkscape:connector-curvature="0" />
    </g>
  </g>
</svg>
