<?xml version="1.0" encoding="UTF-8" standalone="no"?>
<!-- Created with Inkscape (http://www.inkscape.org/) -->

<svg
   xmlns:dc="http://purl.org/dc/elements/1.1/"
   xmlns:cc="http://creativecommons.org/ns#"
   xmlns:rdf="http://www.w3.org/1999/02/22-rdf-syntax-ns#"
   xmlns:svg="http://www.w3.org/2000/svg"
   xmlns="http://www.w3.org/2000/svg"
   xmlns:sodipodi="http://sodipodi.sourceforge.net/DTD/sodipodi-0.dtd"
   xmlns:inkscape="http://www.inkscape.org/namespaces/inkscape"
   version="1.0"
   width="197.98587"
   height="34.258617"
   id="svg2"
   sodipodi:version="0.32"
   inkscape:version="0.47 r22583"
   sodipodi:docname="logo-wielkanoc.svg"
   inkscape:output_extension="org.inkscape.output.svg.inkscape"
   inkscape:export-filename="/mnt/nfs/geokrety/templates/logo-jesien.png"
   inkscape:export-xdpi="131.54472"
   inkscape:export-ydpi="131.54472">
  <metadata
     id="metadata32">
    <rdf:RDF>
      <cc:Work
         rdf:about="">
        <dc:format>image/svg+xml</dc:format>
        <dc:type
           rdf:resource="http://purl.org/dc/dcmitype/StillImage" />
        <dc:title></dc:title>
      </cc:Work>
    </rdf:RDF>
  </metadata>
  <sodipodi:namedview
     inkscape:window-height="747"
     inkscape:window-width="1250"
     inkscape:pageshadow="2"
     inkscape:pageopacity="0.0"
     guidetolerance="10.0"
     gridtolerance="10.0"
     objecttolerance="10.0"
     borderopacity="1.0"
     bordercolor="#666666"
     pagecolor="#ffffff"
     id="base"
     showgrid="false"
     inkscape:zoom="2.7081461"
     inkscape:cx="156.53969"
     inkscape:cy="-24.467496"
     inkscape:window-x="-4"
     inkscape:window-y="-4"
     inkscape:current-layer="svg2"
     inkscape:window-maximized="1" />
  <defs
     id="defs4"><inkscape:perspective
   sodipodi:type="inkscape:persp3d"
   inkscape:vp_x="0 : 17.129309 : 1"
   inkscape:vp_y="0 : 1000 : 0"
   inkscape:vp_z="197.98587 : 17.129309 : 1"
   inkscape:persp3d-origin="98.992935 : 11.419539 : 1"
   id="perspective34" />
<inkscape:perspective
   id="perspective2736"
   inkscape:persp3d-origin="372.04724 : 350.78739 : 1"
   inkscape:vp_z="744.09448 : 526.18109 : 1"
   inkscape:vp_y="0 : 1000 : 0"
   inkscape:vp_x="0 : 526.18109 : 1"
   sodipodi:type="inkscape:persp3d" />
<inkscape:perspective
   id="perspective3687"
   inkscape:persp3d-origin="372.04724 : 350.78739 : 1"
   inkscape:vp_z="744.09448 : 526.18109 : 1"
   inkscape:vp_y="0 : 1000 : 0"
   inkscape:vp_x="0 : 526.18109 : 1"
   sodipodi:type="inkscape:persp3d" />
<inkscape:perspective
   id="perspective910"
   inkscape:persp3d-origin="54.127998 : 49.889002 : 1"
   inkscape:vp_z="108.256 : 74.833504 : 1"
   inkscape:vp_y="0 : 1000 : 0"
   inkscape:vp_x="0 : 74.833504 : 1"
   sodipodi:type="inkscape:persp3d" />
<inkscape:perspective
   id="perspective4503"
   inkscape:persp3d-origin="0.5 : 0.33333333 : 1"
   inkscape:vp_z="1 : 0.5 : 1"
   inkscape:vp_y="0 : 1000 : 0"
   inkscape:vp_x="0 : 0.5 : 1"
   sodipodi:type="inkscape:persp3d" />
<inkscape:perspective
   id="perspective5664"
   inkscape:persp3d-origin="186.66701 : 195.18266 : 1"
   inkscape:vp_z="373.33401 : 292.77399 : 1"
   inkscape:vp_y="0 : 1000 : 0"
   inkscape:vp_x="0 : 292.77399 : 1"
   sodipodi:type="inkscape:persp3d" />

	
	
	

		
		
	
			
			
			
			
		</defs>
  <g
     id="g2490"
     transform="translate(28.751625,73.516812)"
     inkscape:export-filename="/home/filips/svn/geokrety/templates/logo/logo-wielkanoc.png"
     inkscape:export-xdpi="156.79419"
     inkscape:export-ydpi="156.79419">
    <rect
       width="61.299881"
       height="26.478128"
       x="64.375893"
       y="-68.511658"
       id="rect3251"
       style="fill:#000000;fill-opacity:1;fill-rule:nonzero;stroke:none;stroke-width:2;stroke-linejoin:round;stroke-miterlimit:4;stroke-dasharray:none;stroke-opacity:1" />
    <path
       id="text2383"
       d="M 31.101862,-50.457391 L 31.101862,-55.024164 L 27.447222,-55.024164 L 27.447222,-56.914648 L 33.316796,-56.914648 L 33.316796,-49.614645 C 32.452958,-48.984483 31.500537,-48.508065 30.459532,-48.185393 C 29.418501,-47.862721 28.307344,-47.701384 27.126057,-47.701383 C 24.54196,-47.701384 22.520836,-48.477697 21.062676,-50.030324 C 19.604509,-51.582947 18.875428,-53.744854 18.875429,-56.516052 C 18.875428,-59.294824 19.604509,-61.460528 21.062676,-63.013169 C 22.520836,-64.565779 24.54196,-65.342091 27.126057,-65.342108 C 28.20398,-65.342091 29.228387,-65.20543 30.199277,-64.932124 C 31.170143,-64.658784 32.065345,-64.256392 32.884884,-63.724947 L 32.884884,-61.276428 C 32.057962,-61.997683 31.179372,-62.540533 30.249113,-62.904978 C 29.318829,-63.269393 28.340568,-63.451608 27.314326,-63.451625 C 25.291346,-63.451608 23.772272,-62.870798 22.7571,-61.70919 C 21.741918,-60.547555 21.234329,-58.81651 21.234333,-56.516052 C 21.234329,-54.223169 21.741918,-52.495921 22.7571,-51.334303 C 23.772272,-50.172678 25.291346,-49.591867 27.314326,-49.591868 C 28.104308,-49.591867 28.809395,-49.662095 29.429588,-49.802555 C 30.049757,-49.94301 30.607182,-50.16129 31.101862,-50.457391 L 31.101862,-50.457391 z M 47.935359,-54.933056 L 47.935359,-53.908095 L 38.566189,-53.908095 C 38.654784,-52.465551 39.077466,-51.366566 39.834239,-50.611135 C 40.591002,-49.855699 41.644941,-49.477982 42.996057,-49.477983 C 43.778658,-49.477982 44.537272,-49.576682 45.271901,-49.774084 C 46.00651,-49.971481 46.735591,-50.267581 47.459148,-50.662383 L 47.459148,-48.680792 C 46.728208,-48.361914 45.978824,-48.11896 45.210991,-47.95193 C 44.443137,-47.784899 43.66422,-47.701384 42.874236,-47.701383 C 40.895556,-47.701384 39.328492,-48.293583 38.173039,-49.477983 C 37.01758,-50.662381 36.439852,-52.264356 36.439853,-54.283913 C 36.439852,-56.371789 36.988047,-58.028809 38.084441,-59.254977 C 39.180829,-60.481122 40.659296,-61.0942 42.519846,-61.094213 C 44.18842,-61.0942 45.50815,-60.541861 46.47904,-59.437192 C 47.449907,-58.332501 47.935346,-56.831124 47.935359,-54.933056 L 47.935359,-54.933056 z M 45.89762,-55.548032 C 45.882843,-56.694463 45.570906,-57.609335 44.96181,-58.292651 C 44.352694,-58.975949 43.54609,-59.317601 42.541996,-59.317613 C 41.40499,-59.317601 40.495022,-58.987337 39.812089,-58.326817 C 39.129148,-57.666277 38.735997,-56.73622 38.632637,-55.536645 L 45.89762,-55.548032 z M 56.086315,-59.317613 C 54.993608,-59.317601 54.129785,-58.879147 53.494842,-58.002246 C 52.859891,-57.125325 52.542418,-55.923844 52.542421,-54.397798 C 52.542418,-52.871739 52.858046,-51.670258 53.489305,-50.793351 C 54.120556,-49.916438 54.986225,-49.477982 56.086315,-49.477983 C 57.171625,-49.477982 58.031756,-49.918335 58.666712,-50.799045 C 59.30165,-51.679749 59.619124,-52.879332 59.619134,-54.397798 C 59.619124,-55.908659 59.30165,-57.106345 58.666712,-57.990858 C 58.031756,-58.87535 57.171625,-59.317601 56.086315,-59.317613 L 56.086315,-59.317613 z M 56.086315,-61.094213 C 57.858253,-61.0942 59.249968,-60.502001 60.261465,-59.317613 C 61.27294,-58.133203 61.778682,-56.493267 61.778694,-54.397798 C 61.778682,-52.30991 61.27294,-50.671871 60.261465,-49.483678 C 59.249968,-48.295481 57.858253,-47.701384 56.086315,-47.701383 C 54.30698,-47.701384 52.913419,-48.295481 51.905627,-49.483678 C 50.897831,-50.671871 50.393934,-52.30991 50.393935,-54.397798 C 50.393934,-56.493267 50.897831,-58.133203 51.905627,-59.317613 C 52.913419,-60.502001 54.30698,-61.0942 56.086315,-61.094213 L 56.086315,-61.094213 z"
       style="font-size:22.94870567px;font-style:normal;font-weight:normal;fill:#000000;fill-opacity:1;stroke:none;stroke-width:1px;stroke-linecap:butt;stroke-linejoin:miter;stroke-opacity:1;font-family:Bitstream Vera Sans" />
    <path
       id="text2479"
       d="M 66.871012,-65.831418 L 68.948649,-65.831418 L 68.948649,-55.510618 L 75.114176,-60.934928 L 77.753336,-60.934928 L 71.082438,-55.050168 L 78.034098,-48.356808 L 75.338786,-48.356808 L 68.948649,-54.499878 L 68.948649,-48.356808 L 66.871012,-48.356808 L 66.871012,-65.831418 z M 87.579996,-59.003288 C 87.347891,-59.138048 87.095206,-59.237248 86.82194,-59.300898 C 86.548657,-59.364528 86.247306,-59.396348 85.917887,-59.396358 C 84.749912,-59.396348 83.853347,-59.016378 83.22819,-58.256468 C 82.603023,-57.496528 82.290442,-56.405298 82.290446,-54.982788 L 82.290446,-48.356808 L 80.212809,-48.356808 L 80.212809,-60.934928 L 82.290446,-60.934928 L 82.290446,-58.980828 C 82.724686,-59.744488 83.289952,-60.311628 83.986246,-60.682248 C 84.682529,-61.052838 85.528557,-61.238138 86.524332,-61.238158 C 86.666576,-61.238138 86.823803,-61.228788 86.996012,-61.210078 C 87.168204,-61.191348 87.359121,-61.163268 87.568766,-61.125848 L 87.579996,-59.003288 z M 100.52873,-55.162468 L 100.52873,-54.151728 L 91.02775,-54.151728 C 91.117591,-52.729198 91.54622,-51.645458 92.313639,-50.900508 C 93.081049,-50.155548 94.149814,-49.783078 95.519938,-49.783078 C 96.313549,-49.783078 97.082835,-49.880408 97.827799,-50.075068 C 98.572743,-50.269728 99.312081,-50.561718 100.04582,-50.951048 L 100.04582,-48.996948 C 99.304594,-48.682488 98.544667,-48.442908 97.766032,-48.278198 C 96.987376,-48.113478 96.197501,-48.031128 95.396403,-48.031128 C 93.389887,-48.031128 91.800777,-48.615108 90.629069,-49.783078 C 89.457355,-50.951038 88.871499,-52.530798 88.8715,-54.522338 C 88.871499,-56.581248 89.427407,-58.215278 90.539225,-59.424438 C 91.651037,-60.633568 93.150303,-61.238138 95.037028,-61.238158 C 96.729076,-61.238138 98.067372,-60.693468 99.05192,-59.604118 C 100.03645,-58.514758 100.52871,-57.034208 100.52873,-55.162468 L 100.52873,-55.162468 z M 98.462321,-55.768918 C 98.447336,-56.899438 98.131011,-57.801618 97.513346,-58.475458 C 96.895661,-59.149278 96.077709,-59.486188 95.059489,-59.486198 C 93.906488,-59.486188 92.983718,-59.160508 92.291178,-58.509148 C 91.598629,-57.857778 91.199947,-56.940618 91.095133,-55.757688 L 98.462321,-55.768918 z M 105.96427,-64.506218 L 105.96427,-60.934928 L 110.22062,-60.934928 L 110.22062,-59.328978 L 105.96427,-59.328978 L 105.96427,-52.500848 C 105.96427,-51.475128 106.10465,-50.816278 106.38542,-50.524288 C 106.66617,-50.232298 107.23705,-50.086298 108.09806,-50.086298 L 110.22062,-50.086298 L 110.22062,-48.356808 L 108.09806,-48.356808 C 106.50333,-48.356808 105.40275,-48.654418 104.7963,-49.249628 C 104.18986,-49.844838 103.88663,-50.928578 103.88664,-52.500848 L 103.88664,-59.328978 L 102.37052,-59.328978 L 102.37052,-60.934928 L 103.88664,-60.934928 L 103.88664,-64.506218 L 105.96427,-64.506218 z M 118.18302,-47.188838 C 117.59903,-45.691448 117.03002,-44.714398 116.47599,-44.257688 C 115.92195,-43.800988 115.18074,-43.572628 114.25236,-43.572628 L 112.60148,-43.572628 L 112.60148,-45.302118 L 113.81437,-45.302118 C 114.38338,-45.302118 114.82511,-45.436888 115.13957,-45.706418 C 115.45401,-45.975948 115.80216,-46.612338 116.184,-47.615598 L 116.55461,-48.558958 L 111.4672,-60.934928 L 113.65714,-60.934928 L 117.58781,-51.097038 L 121.51847,-60.934928 L 123.70841,-60.934928 L 118.18302,-47.188838 z"
       style="font-size:40px;font-style:normal;font-weight:normal;fill:#ffffff;fill-opacity:1;stroke:none;stroke-width:1px;stroke-linecap:butt;stroke-linejoin:miter;stroke-opacity:1;font-family:Bitstream Vera Sans" />
    <path
       id="text2483"
       d="M 127.65643,-50.958365 L 130.02606,-50.958365 L 130.02606,-48.105825 L 127.65643,-48.105825 L 127.65643,-50.958365 z M 139.56073,-59.235225 C 138.45265,-59.235215 137.57667,-58.802835 136.9328,-57.938105 C 136.28891,-57.073345 135.96697,-55.888535 135.96698,-54.383655 C 135.96697,-52.878775 136.28704,-51.693955 136.92718,-50.829215 C 137.56731,-49.964465 138.44516,-49.532095 139.56073,-49.532095 C 140.6613,-49.532095 141.53354,-49.966335 142.17743,-50.834835 C 142.82129,-51.703315 143.14323,-52.886255 143.14325,-54.383655 C 143.14323,-55.873555 142.82129,-57.054625 142.17743,-57.926875 C 141.53354,-58.799095 140.6613,-59.235215 139.56073,-59.235225 L 139.56073,-59.235225 z M 139.56073,-60.987175 C 141.35759,-60.987165 142.76889,-60.403175 143.79461,-59.235225 C 144.82032,-58.067245 145.33317,-56.450055 145.33319,-54.383655 C 145.33317,-52.324735 144.82032,-50.709425 143.79461,-49.537715 C 142.76889,-48.365995 141.35759,-47.780145 139.56073,-47.780145 C 137.75636,-47.780145 136.34319,-48.365995 135.32122,-49.537715 C 134.29925,-50.709425 133.78826,-52.324735 133.78826,-54.383655 C 133.78826,-56.450055 134.29925,-58.067245 135.32122,-59.235225 C 136.34319,-60.403175 137.75636,-60.987165 139.56073,-60.987175 L 139.56073,-60.987175 z M 156.03582,-58.752315 C 155.80372,-58.887065 155.55103,-58.986265 155.27777,-59.049915 C 155.00448,-59.113545 154.70313,-59.145365 154.37371,-59.145375 C 153.20574,-59.145365 152.30917,-58.765405 151.68402,-58.005485 C 151.05885,-57.245545 150.74627,-56.154325 150.74627,-54.731805 L 150.74627,-48.105825 L 148.66864,-48.105825 L 148.66864,-60.683955 L 150.74627,-60.683955 L 150.74627,-58.729855 C 151.18051,-59.493515 151.74578,-60.060645 152.44207,-60.431265 C 153.13836,-60.801855 153.98438,-60.987165 154.98016,-60.987175 C 155.1224,-60.987165 155.27963,-60.977805 155.45184,-60.959095 C 155.62403,-60.940365 155.81495,-60.912295 156.02459,-60.874865 L 156.03582,-58.752315 z M 166.50262,-54.540885 C 166.50261,-56.038275 166.19377,-57.198755 165.57611,-58.022335 C 164.95842,-58.845885 164.09181,-59.257675 162.97625,-59.257685 C 161.86817,-59.257675 161.0053,-58.845885 160.38763,-58.022335 C 159.76995,-57.198755 159.46111,-56.038275 159.46112,-54.540885 C 159.46111,-53.050975 159.76995,-51.894235 160.38763,-51.070675 C 161.0053,-50.247105 161.86817,-49.835315 162.97625,-49.835315 C 164.09181,-49.835315 164.95842,-50.247105 165.57611,-51.070675 C 166.19377,-51.894235 166.50261,-53.050975 166.50262,-54.540885 L 166.50262,-54.540885 z M 168.56903,-49.666865 C 168.56901,-47.525585 168.09359,-45.932735 167.14276,-44.888295 C 166.1919,-43.843865 164.73568,-43.321652 162.7741,-43.321647 C 162.04786,-43.321652 161.3628,-43.375932 160.71893,-43.484489 C 160.07504,-43.593054 159.44988,-43.759635 158.84344,-43.984245 L 158.84344,-45.994495 C 159.44988,-45.665075 160.04884,-45.421745 160.64032,-45.264515 C 161.23178,-45.107295 161.83448,-45.028685 162.44842,-45.028675 C 163.80356,-45.028685 164.81804,-45.382445 165.49188,-46.089955 C 166.1657,-46.797475 166.50261,-47.866245 166.50262,-49.296255 L 166.50262,-50.318225 C 166.07585,-49.577015 165.5293,-49.022985 164.86297,-48.656115 C 164.19662,-48.289255 163.39926,-48.105825 162.47088,-48.105825 C 160.92856,-48.105825 159.68572,-48.693555 158.74237,-49.869015 C 157.79901,-51.044465 157.32733,-52.601755 157.32733,-54.540885 C 157.32733,-56.487495 157.79901,-58.048525 158.74237,-59.223995 C 159.68572,-60.399435 160.92856,-60.987165 162.47088,-60.987175 C 163.39926,-60.987165 164.19662,-60.803735 164.86297,-60.436885 C 165.5293,-60.070005 166.07585,-59.515975 166.50262,-58.774775 L 166.50262,-60.683955 L 168.56903,-60.683955 L 168.56903,-49.666865 z"
       style="font-size:23px;font-style:normal;font-weight:normal;fill:#000000;fill-opacity:1;stroke:none;stroke-width:1px;stroke-linecap:butt;stroke-linejoin:miter;stroke-opacity:1;font-family:Bitstream Vera Sans" />
  </g>
  <g
     id="g3417"
     transform="matrix(0.23045643,0,0,0.18661436,159.09147,5.145845)"
     inkscape:export-filename="/home/filips/svn/geokrety/templates/logo/logo-wielkanoc.png"
     inkscape:export-xdpi="156.79419"
     inkscape:export-ydpi="156.79419">
    <path
       style="fill:#e5252a"
       id="path3"
       d="m 41.230229,31.113316 c 0,0 -21.815836,-0.19287 -30.696347,42.27987 -8.8805111,42.472744 30.11717,44.403714 30.310036,44.403714 0.193445,0 37.454179,-0.77262 30.117173,-46.720424 0,0 -7.529292,-38.99768 -29.730862,-39.96316 z" />
    <ellipse
       d="m 58.104,76.750999 c 0,1.702694 -1.231217,3.083 -2.75,3.083 -1.518783,0 -2.75,-1.380306 -2.75,-3.083 0,-1.702693 1.231217,-3.082999 2.75,-3.082999 1.518783,0 2.75,1.380306 2.75,3.082999 z"
       transform="matrix(0.579176,0,0,0.579176,9.21857,31.1133)"
       style="fill:#ffffff"
       sodipodi:ry="3.0829999"
       sodipodi:rx="2.75"
       sodipodi:cy="76.750999"
       sodipodi:cx="55.354"
       id="ellipse5"
       ry="3.0829999"
       rx="2.75"
       cy="76.750999"
       cx="55.354" />
    <path
       style="fill:#ffffff"
       id="path7"
       d="m 22.793308,56.790516 c 0,0 -3.378915,4.63341 -1.641386,5.40546 0,0 1.544663,0.57975 1.641386,-5.40546 z" />
    <path
       style="fill:#ffffff"
       id="path9"
       d="m 23.053937,53.921276 c 0,0 -4.726658,3.24744 -3.344164,4.55291 -5.79e-4,0 1.264342,1.05989 3.344164,-4.55291 z" />
    <path
       style="fill:#ffffff"
       id="path11"
       d="m 24.286425,53.884786 c 0,0 -1.542926,5.52303 0.355035,5.63771 0,5.8e-4 1.649494,0.0035 -0.355035,-5.63771 z" />
    <path
       style="fill:#ffffff"
       id="path13"
       d="m 59.418106,57.239376 c 0,0 -0.406581,5.71995 1.4769,5.45295 0,0 1.616481,-0.32781 -1.4769,-5.45295 z" />
    <path
       style="fill:#ffffff"
       id="path15"
       d="m 58.117856,54.668996 c 0,0 -2.283693,5.26008 -0.420483,5.63365 0,-5.8e-4 1.632699,0.22761 0.420483,-5.63365 z" />
    <path
       style="fill:#ffffff"
       id="path17"
       d="m 59.142998,53.983826 c 0,0 1.621114,5.50102 3.29088,4.59171 0,0 1.400448,-0.87224 -3.29088,-4.59171 z" />
    <path
       style="fill:#ffffff"
       id="path19"
       d="m 20.867546,95.129666 c 0,0 0.730921,-5.68693 -1.164723,-5.52765 5.79e-4,0 -1.632698,0.2363 1.164723,5.52765 z" />
    <path
       style="fill:#ffffff"
       id="path21"
       d="m 22.021266,97.770136 c 0,0 2.577914,-5.12224 0.73787,-5.60064 5.8e-4,0 -1.617639,-0.32028 -0.73787,5.60064 z" />
    <path
       style="fill:#ffffff"
       id="path23"
       d="m 20.958477,98.395646 c 0,0 -1.307201,-5.58442 -3.026196,-4.7701 0,0 -1.446783,0.79058 3.026196,4.7701 z" />
    <path
       style="fill:#ffffff"
       id="path25"
       d="m 61.060651,95.064226 c 0,0 2.809584,-5.00003 0.99155,-5.56183 0,5.8e-4 -1.602581,-0.39211 -0.99155,5.56183 z" />
    <path
       style="fill:#ffffff"
       id="path27"
       d="m 61.139998,97.945046 c 0,0 4.309651,-3.78318 2.783521,-4.91605 0,-5.8e-4 -1.380756,-0.90351 -2.783521,4.91605 z" />
    <path
       style="fill:#ffffff"
       id="path29"
       d="m 59.920832,98.126906 c 0,0 0.880348,-5.66724 -1.018772,-5.55719 0,0 -1.637331,0.19112 1.018772,5.55719 z" />
    <path
       style="fill:#ffffff"
       id="path31"
       d="m 40.264742,80.101786 c 0,0 0.530525,-1.4966 0.917415,0 0,0 0.240937,10.9557 0.67532,12.40364 0,0 1.207003,3.13682 -1.110282,3.5712 0,0 -3.23412,-0.24094 -1.303146,-4.00559 5.79e-4,5.8e-4 1.351797,-7.8183 0.820693,-11.96925 z" />
    <path
       style="fill:#ffffff"
       id="path33"
       d="m 42.249,80.005636 c 0,0 -0.256575,-1.56667 0.803317,-0.44249 0,0 5.494068,9.48112 6.574813,10.53985 0,0 2.570385,2.1667 0.750033,3.66445 0,0 -2.950326,1.34717 -3.07427,-2.8814 0,0.0012 -2.587181,-7.50033 -5.053893,-10.88041 z" />
    <path
       style="fill:#ffffff"
       id="path35"
       d="m 44.56223,78.437806 c 0,0 -0.802159,-1.37091 0.591339,-0.70138 0,0 8.527796,6.88409 9.913765,7.48527 0,0 3.174465,1.10276 2.013217,3.15246 0,0 -2.270951,2.31497 -3.901332,-1.5881 -0.0017,5.8e-4 -5.102546,-6.07672 -8.616989,-8.34825 z" />
    <path
       style="fill:#ffffff"
       id="path37"
       d="m 45.315159,76.614556 c 0,0 -1.432882,-0.6869 0.09672,-0.91162 0,0 10.919794,0.91452 12.40596,0.63478 0,0 3.246284,-0.86877 3.435095,1.48211 0,0 -0.581493,3.18953 -4.121419,0.87282 0,-0.0012 -7.632386,-2.16844 -11.816359,-2.07809 z" />
    <path
       style="fill:#ffffff"
       id="path39"
       d="m 45.950516,74.226036 c 0,0 -1.581152,0.1419 -0.382836,-0.83285 0,0 9.855847,-4.7921 10.989295,-5.79234 0,0 2.34856,-2.40532 3.710204,-0.4813 0,0 1.128236,3.03894 -3.098014,2.85592 0,-5.8e-4 -7.668295,2.03522 -11.218649,4.25057 z" />
    <path
       style="fill:#ffffff"
       id="path41"
       d="m 44.585976,72.337926 c 0,0 -1.369752,0.80389 -0.702541,-0.59018 0,0 6.867297,-8.53995 7.466745,-9.92882 0,0 1.09696,-3.17678 3.149561,-2.01843 0,0 2.319022,2.26632 -1.581152,3.90481 -5.79e-4,0 -6.066295,5.11413 -8.332613,8.63262 z" />
    <path
       style="fill:#ffffff"
       id="path43"
       d="m 43.13514,71.223006 c 0,0 -0.789418,1.37844 -0.902936,-0.16275 0,0 1.713783,-10.82364 1.543505,-12.32602 0,0 -0.627828,-3.30131 1.727683,-3.31694 0,0 3.139136,0.81374 0.568172,4.1747 0.0012,0 -2.720392,7.45226 -2.936424,11.63101 z" />
    <path
       style="fill:#ffffff"
       id="path45"
       d="m 40.250841,70.844806 c 0,0 -0.187653,1.57768 -0.894248,0.20329 0,0 -2.656682,-10.63193 -3.400924,-11.94782 0,0 -1.869002,-2.79279 0.294222,-3.72874 0,0 3.205741,-0.4784 2.156274,3.61985 0,-5.8e-4 0.409477,7.92256 1.844676,11.85342 z" />
    <path
       style="fill:#ffffff"
       id="path47"
       d="m 38.443232,72.699906 c 0,0 0.634198,1.45663 -0.669528,0.62609 0,0 -7.657291,-7.83972 -8.963912,-8.60018 0,0 -3.023301,-1.46821 -1.628065,-3.36791 0,0 2.526946,-2.0306 3.687616,2.03812 5.79e-4,-5.8e-4 4.351931,6.63388 7.573889,9.30388 z" />
    <path
       style="fill:#ffffff"
       id="path49"
       d="m 37.428515,74.259046 c 0,0 1.331526,0.86703 -0.213716,0.89194 0,0 -10.708971,-2.32887 -12.218304,-2.24315 0,0 -3.332581,0.43901 -3.21385,-1.91592 0,0 0.99155,-3.08642 4.200766,-0.32897 0,0 7.285459,3.14203 11.445104,3.5961 z" />
    <path
       style="fill:#ffffff"
       id="path51"
       d="m 36.836018,76.443706 c 0,0 1.586943,0.03533 0.287271,0.8705 0,0 -10.327294,3.66619 -11.564993,4.53437 0,0 -2.599923,2.12963 -3.740321,0.06429 0,0 -0.784205,-3.14551 3.395711,-2.49335 0,5.8e-4 7.84726,-1.16936 11.622332,-2.97581 z" />
    <path
       style="fill:#ffffff"
       id="path53"
       d="m 37.174836,78.253626 c 0,0 1.412032,-0.72686 0.66779,0.62841 0,0 -7.330056,8.14612 -8.003059,9.49907 0,0 -1.270134,3.11192 -3.256709,1.8412 0,0 -2.189865,-2.39026 1.796026,-3.80982 -5.79e-4,0 6.339086,-4.77125 8.795952,-8.15886 z" />
    <path
       style="fill:#ffffff"
       id="path55"
       d="m 35.505649,78.421596 c 0,0 1.408557,-0.2699 0.425116,0.71991 0,0 -8.393424,5.21143 -9.315473,6.21688 0,0 -1.875372,2.38563 -3.287404,0.76335 0,0 -1.312414,-2.64799 2.505516,-2.85881 5.79e-4,0.0017 6.695858,-2.52231 9.672245,-4.84133 z" />
    <path
       style="fill:#ffffff"
       id="path57"
       d="m 37.785867,79.654656 c 0,0 1.102752,-1.05005 0.76625,0.39674 0,0 -4.624144,9.46142 -4.897515,10.88678 0,0 -0.372411,3.19937 -2.502621,2.57038 0,0 -2.596448,-1.59911 0.675899,-3.98184 0,-0.0012 4.573755,-6.09872 5.957987,-9.87206 z" />
    <path
       style="fill:#ffffff"
       id="path59"
       d="m 38.720657,80.826906 c 0,0 0.821272,-1.28287 0.838648,0.20272 0,0 -2.239096,10.2908 -2.165541,11.7399 0,0 0.400211,3.19763 -1.819193,3.09164 0,0 -2.902831,-0.93421 -0.290746,-4.02817 0,-5.8e-4 2.989708,-7.01093 3.436832,-11.00609 z" />
    <path
       style="fill:#ffffff"
       id="path61"
       d="m 41.471166,80.861666 c 0,0 0.09267,-1.52034 0.831118,-0.2311 0,0 3.048205,10.08057 3.817352,11.31074 0,0 1.904332,2.59818 -0.08572,3.58568 0,0 -2.990867,0.59481 -2.212454,-3.37892 -0.0023,0 -0.798685,-7.5791 -2.350298,-11.2864 z" />
    <path
       style="fill:#ffffff"
       id="path63"
       d="m 46.172341,77.971576 c 0,0 -1.120707,-0.92263 0.286692,-0.81375 0,0 9.484015,3.09512 10.864772,3.14551 0,0 3.070214,-0.1251 2.717495,2.0636 0,0 -1.215691,2.79743 -3.845731,-0.05444 0,0 -6.29333,-3.55904 -10.023228,-4.34092 z" />
    <path
       style="fill:#ffffff"
       id="path65"
       d="m 47.006355,75.068156 c 0,0 -1.411453,-0.34229 -0.09672,-0.85718 0,0 9.884226,-1.34542 11.149148,-1.90085 0,0 2.709966,-1.44968 3.345901,0.67416 0,0 0.124523,3.04762 -3.485483,1.62632 0.0012,-5.7e-4 -7.214221,-0.46334 -10.912843,0.45755 z" />
    <path
       style="fill:#ffffff"
       id="path67"
       d="m 46.048397,72.625196 c 0,0 -1.405661,0.36256 -0.489404,-0.71123 0,0 8.086463,-5.84388 8.940169,-6.92868 0,0 1.706832,-2.55533 3.270029,-0.98171 0,0 1.545822,2.62947 -2.308017,3.07601 -0.0012,0 -6.582921,2.99086 -9.412777,5.54561 z" />
    <path
       style="fill:#ffffff"
       id="path69"
       d="m 44.649107,70.339186 c 0,0 -0.959696,1.02167 -0.781888,-0.32839 0,0 3.518496,-8.9448 3.639544,-10.27227 0,0 0.03591,-2.96886 2.160909,-2.48756 0,0 2.675216,1.35237 -0.2531,3.70383 0.0017,-0.0012 -3.806349,5.8381 -4.765465,9.38439 z" />
    <path
       style="fill:#ffffff"
       id="path71"
       d="m 41.504179,70.566806 c 0,0 -0.472029,1.47052 -0.848493,0.011 0,0 -0.35156,-10.70433 -0.771463,-12.11578 0,0 -1.152561,-3.05168 0.987495,-3.50055 0,0 2.992025,0.19866 1.248705,3.89902 0.0012,0 -1.156036,7.65613 -0.616244,11.70631 z" />
    <path
       style="fill:#ffffff"
       id="path73"
       d="m 39.350222,71.429776 c 0,0 0.328972,1.50875 -0.728604,0.43496 0,0 -5.675349,-9.0838 -6.745667,-10.0933 0,0 -2.528684,-2.06071 -0.903515,-3.52313 0,0 2.688537,-1.32979 3.037201,2.74587 5.79e-4,5.8e-4 2.842018,7.20264 5.340585,10.4356 z" />
    <path
       style="fill:#ffffff"
       id="path75"
       d="m 37.079851,72.891036 c 0,0 1.028038,1.08422 -0.390365,0.75351 0,0 -9.264505,-4.5529 -10.661479,-4.82338 0,0 -3.136818,-0.36835 -2.511308,-2.46092 0,0 1.576518,-2.55011 3.90249,0.66895 5.79e-4,0 5.964358,4.4973 9.660662,5.86184 z" />
    <path
       style="fill:#ffffff"
       id="path77"
       d="m 36.172281,75.294616 c 0,0 1.436937,0.4089 0.04865,0.84734 0,0 -10.292543,0.80563 -11.631598,1.28403 0,0 -2.886036,1.28288 -3.414824,-0.83575 0,0 0.05618,-2.9984 3.69862,-1.41261 -5.79e-4,-0.0017 7.423303,0.82822 11.299151,0.11699 z" />
    <path
       style="fill:#ffffff"
       id="path79"
       d="m 43.948882,80.017806 c 0,0 -0.587864,-1.40509 0.643465,-0.57455 0,0 7.187002,7.69726 8.421227,8.46119 0,0 2.857077,1.48906 1.507596,3.25381 0,0 -2.420957,1.8551 -3.477954,-2.05318 0,0.0012 -4.063503,-6.44623 -7.094334,-9.08727 z" />
    <ellipse
       d="m 51.395,77.458 c 0,0.552285 -0.363545,1 -0.812,1 -0.448455,0 -0.812,-0.447715 -0.812,-1 0,-0.552285 0.363545,-1 0.812,-1 0.448455,0 0.812,0.447715 0.812,1 z"
       transform="matrix(0.579176,0,0,0.579176,9.21857,31.1133)"
       style="fill:#ffffff"
       sodipodi:ry="1"
       sodipodi:rx="0.81199998"
       sodipodi:cy="77.458"
       sodipodi:cx="50.583"
       id="ellipse81"
       ry="1"
       rx="0.81199998"
       cy="77.458"
       cx="50.583" />
    <ellipse
       d="m 52.896,80.521004 c 0,0.518043 -0.391751,0.938 -0.875,0.938 -0.483249,0 -0.875,-0.419957 -0.875,-0.938 0,-0.518043 0.391751,-0.938 0.875,-0.938 0.483249,0 0.875,0.419957 0.875,0.938 z"
       transform="matrix(0.579176,0,0,0.579176,9.21857,31.1133)"
       style="fill:#ffffff"
       sodipodi:ry="0.93800002"
       sodipodi:rx="0.875"
       sodipodi:cy="80.521004"
       sodipodi:cx="52.021"
       id="ellipse83"
       ry="0.93800002"
       rx="0.875"
       cy="80.521004"
       cx="52.021" />
    <ellipse
       d="m 56.771,81.583 c 0,0.483249 -0.447715,0.875 -1,0.875 -0.552285,0 -1,-0.391751 -1,-0.875 0,-0.483249 0.447715,-0.875 1,-0.875 0.552285,0 1,0.391751 1,0.875 z"
       transform="matrix(0.579176,0,0,0.579176,9.21857,31.1133)"
       style="fill:#ffffff"
       sodipodi:ry="0.875"
       sodipodi:rx="1"
       sodipodi:cy="81.583"
       sodipodi:cx="55.771"
       id="ellipse85"
       ry="0.875"
       rx="1"
       cy="81.583"
       cx="55.771" />
    <ellipse
       d="m 60.021,79.396004 c 0,0.586526 -0.419957,1.062 -0.938,1.062 -0.518043,0 -0.938,-0.475474 -0.938,-1.062 0,-0.586527 0.419957,-1.062 0.938,-1.062 0.518043,0 0.938,0.475473 0.938,1.062 z"
       transform="matrix(0.579176,0,0,0.579176,9.21857,31.1133)"
       style="fill:#ffffff"
       sodipodi:ry="1.062"
       sodipodi:rx="0.93800002"
       sodipodi:cy="79.396004"
       sodipodi:cx="59.083"
       id="ellipse87"
       ry="1.062"
       rx="0.93800002"
       cy="79.396004"
       cx="59.083" />
    <ellipse
       d="m 60.521,74.521004 c 0,0.656114 -0.50368,1.188 -1.125,1.188 -0.62132,0 -1.125,-0.531886 -1.125,-1.188 0,-0.656115 0.50368,-1.188 1.125,-1.188 0.62132,0 1.125,0.531885 1.125,1.188 z"
       transform="matrix(0.579176,0,0,0.579176,9.21857,31.1133)"
       style="fill:#ffffff"
       sodipodi:ry="1.188"
       sodipodi:rx="1.125"
       sodipodi:cy="74.521004"
       sodipodi:cx="59.396"
       id="ellipse89"
       ry="1.188"
       rx="1.125"
       cy="74.521004"
       cx="59.396" />
    <circle
       d="m 57.271,72.083 c 0,0.552285 -0.447715,1 -1,1 -0.552285,0 -1,-0.447715 -1,-1 0,-0.552285 0.447715,-1 1,-1 0.552285,0 1,0.447715 1,1 z"
       transform="matrix(0.579176,0,0,0.579176,9.21857,31.1133)"
       style="fill:#ffffff"
       sodipodi:ry="1"
       sodipodi:rx="1"
       sodipodi:cy="72.083"
       sodipodi:cx="56.271"
       id="circle91"
       r="1"
       cy="72.083"
       cx="56.271" />
    <circle
       d="m 53.521,73.333 c 0,0.552285 -0.447715,1 -1,1 -0.552285,0 -1,-0.447715 -1,-1 0,-0.552285 0.447715,-1 1,-1 0.552285,0 1,0.447715 1,1 z"
       transform="matrix(0.579176,0,0,0.579176,9.21857,31.1133)"
       style="fill:#ffffff"
       sodipodi:ry="1"
       sodipodi:rx="1"
       sodipodi:cy="73.333"
       sodipodi:cx="52.521"
       id="circle93"
       r="1"
       cy="73.333"
       cx="52.521" />
    <path
       style="fill:#ffffff"
       id="path95"
       d="m 39.275508,31.378576 c 0,0 -6.37094,13.24866 -4.705808,14.40701 0,0 1.23075,1.37555 2.027118,-2.89588 0,0 1.447941,-9.04963 2.67869,-11.51113 z" />
    <path
       style="fill:#ffffff"
       id="path97"
       d="m 40.361464,32.319736 c 0,0 1.375544,12.3075 0.144794,13.10387 0,0 -2.678691,1.30314 -1.592735,-3.61986 0,0 1.592735,-7.1673 1.447941,-9.48401 z" />
    <path
       style="fill:#ffffff"
       id="path99"
       d="m 42.17139,32.609326 c 0,0 3.981838,8.39806 3.040676,11.80072 0,0 -0.144794,2.60629 -1.882323,1.15835 0,0 -0.723971,-12.09031 -1.158353,-12.95907 z" />
    <path
       style="fill:#ffffff"
       id="path101"
       d="m 44.12611,32.826516 3.113074,10.93196 c 0,0 0.144794,2.3167 1.375543,2.3167 0,0 1.954723,-0.14479 0.434383,-2.96828 0,0 -1.303147,-3.83704 -4.923,-10.28038 z" />
    <path
       style="fill:#ffffff"
       id="path103"
       d="m 46.056506,33.188506 c 0,0 6.033861,9.74927 5.695622,11.87311 0,0 0.820114,1.9304 1.833672,0.91684 0,0 1.73753,-2.65437 -7.529294,-12.78995 z" />
    <path
       style="fill:#ffffff"
       id="path105"
       d="m 49.193906,35.263696 c 0,0 5.889065,7.72273 5.936558,9.60506 0,0 0.772621,2.4615 1.834831,1.20642 -5.8e-4,0 0.578597,-4.24768 -7.771389,-10.81148 z" />
    <path
       style="fill:#ffffff"
       id="path107"
       d="m 54.116905,38.739326 c 0,0 3.909441,5.64697 4.054235,6.56381 0,0 0.483033,1.93039 1.447941,1.20642 0,0 1.447941,-1.01298 -5.502176,-7.77023 z" />
    <path
       style="fill:#ffffff"
       id="path109"
       d="m 37.707099,32.416456 c 0,0 -5.64697,10.32846 -5.598898,11.6316 0,0 -0.289009,1.88233 -1.255075,1.83425 0,0 -2.606294,-0.48245 0.241516,-3.61985 0,0 5.356802,-8.63957 6.612457,-9.846 z" />
    <path
       style="fill:#ffffff"
       id="path111"
       d="m 34.280112,34.202066 c 0,0 -6.081352,10.08809 -6.178074,10.47382 -0.09614,0.38573 -0.33766,1.54408 -1.351218,1.64081 0,0 -3.571781,-0.29017 7.529292,-12.11463 z" />
    <path
       style="fill:#ffffff"
       id="path113"
       d="m 30.756982,36.857006 c 0,0 -5.69562,7.48064 -5.888485,8.34941 0,0 -0.868765,2.4615 -1.592735,1.25507 0,0 -1.785601,-0.62725 7.48122,-9.60448 z" />
    <path
       style="fill:#ffffff"
       id="path115"
       d="m 25.158085,41.635206 c 0,0 -2.847231,3.86079 -3.088748,4.68149 -0.241516,0.82069 -0.38631,0.96548 -0.820692,0.72397 0,0 -1.255076,-0.28901 3.90944,-5.40546 z" />
    <path
       style="fill:#ffffff"
       id="path117"
       d="m 38.672007,46.413416 c 0,0 -1.39929,2.4615 -1.254496,3.76465 0,0 0.241516,3.23354 1.882323,0.91683 0,0 0.579176,-0.77204 -0.627827,-4.68148 z" />
    <path
       style="fill:#ffffff"
       id="path119"
       d="m 40.988712,46.413416 -0.772042,2.9926 c 0,0 -0.675899,2.02712 0.482454,2.02712 0,0 1.399869,0.19287 1.110281,-1.54466 0,0 -0.627248,-2.94396 -0.820693,-3.47506 z" />
    <path
       style="fill:#ffffff"
       id="path121"
       d="m 36.147956,46.374606 -0.983441,3.10555 c 0,0 -0.818377,2.09372 0.337659,2.17133 0,0 1.382494,0.29828 1.217429,-1.55509 -5.79e-4,0 -0.416428,-3.1484 -0.571647,-3.72179 z" />
    <path
       style="fill:#ffffff"
       id="path123"
       d="m 34.196711,46.485236 -1.622273,2.82522 c 0,0 -1.245808,1.87074 -0.133211,2.19334 0,0 1.287509,0.58555 1.520917,-1.26029 0,0 0.264105,-3.1652 0.234567,-3.75827 z" />
    <path
       style="fill:#ffffff"
       id="path125"
       d="m 43.643656,46.558206 c 0,0 -1.255654,2.94454 -1.013558,3.95809 0,0 -0.193445,1.10971 0.820114,1.35122 0,0 0.964907,0.09673 1.062209,-1.35122 0,0 -0.09672,-1.01413 -0.868765,-3.95809 z" />
    <path
       style="fill:#ffffff"
       id="path127"
       d="m 45.86364,46.413416 c 0,0 -1.013559,3.52313 -0.530526,4.48862 0,0 0.242096,1.88232 1.496592,0.6759 -5.79e-4,0 0.723391,-0.8207 -0.966066,-5.16452 z" />
    <path
       style="fill:#ffffff"
       id="path129"
       d="m 48.083623,46.799726 c 0,0 -1.158353,4.00616 0.04865,4.77821 0,0 1.158355,0.57917 1.399292,-0.6759 0,0 -0.482456,-2.31613 -1.447943,-4.10231 z" />
    <path
       style="fill:#ffffff"
       id="path131"
       d="m 50.255536,46.896446 0.289589,4.19903 c 0,0 0.289588,1.64139 1.447941,0.72397 0,0 1.013558,-0.28959 -1.73753,-4.923 z" />
    <path
       style="fill:#ffffff"
       id="path133"
       d="m 52.331305,47.475626 c 0,0 0.04865,3.42641 0.675319,3.86079 0,0 0.579176,0.82069 1.158353,-0.04807 0.579176,-0.86877 0.09614,-0.1448 0.09614,-0.1448 0,0 -0.67532,-2.60571 -1.929815,-3.66792 z" />
    <path
       style="fill:#ffffff"
       id="path135"
       d="m 54.64801,47.668486 c 0,0 -0.483033,3.1374 0.530525,3.76465 0,0 0.868765,0.77262 1.158353,-0.19286 0,0 0.868765,-0.48304 -1.688878,-3.57179 z" />
    <path
       style="fill:#ffffff"
       id="path137"
       d="m 56.336888,47.716566 c 0,0 0.531684,3.61985 1.207004,4.29575 0,0 0.916257,0.96548 1.109702,-0.19287 0,0 -1.592735,-3.18605 -2.316706,-4.10288 z" />
    <path
       style="fill:#ffffff"
       id="path139"
       d="m 60.584568,48.199016 c 0,0 0.240937,3.57236 1.640227,3.95809 1.400449,0.38573 0,-0.14479 0,-0.14479 0,0 0.483033,0.6759 0.627827,-0.28959 0.144794,-0.96549 0.04865,-0.14479 0.04865,-0.14479 0,0 -2.171911,-3.18605 -2.316705,-3.37892 z" />
    <path
       style="fill:#ffffff"
       id="path141"
       d="m 58.17114,47.861356 c 0,0 0.240937,3.57236 1.640227,3.95809 1.400449,0.38573 0,-0.14479 0,-0.14479 0,0 0.483033,0.6759 0.627827,-0.28959 0.144794,-0.96549 0.04865,-0.14479 0.04865,-0.14479 0,0 -2.171911,-3.18605 -2.316705,-3.37892 z" />
    <path
       style="fill:#ffffff"
       id="path143"
       d="m 31.915335,46.944516 -0.531105,3.57121 c 0,0 0.193445,1.54524 -1.206424,1.06221 -1.399869,-0.48304 -0.09672,-0.04866 -0.09672,-0.04866 0,0 -0.385732,-0.53052 -0.04807,-1.25449 l 1.882323,-3.33027 z" />
    <path
       style="fill:#ffffff"
       id="path145"
       d="m 29.59863,47.089316 c 0,0 -0.04865,3.76407 -0.483033,4.29517 0,0 -0.579177,1.01414 -1.158353,0.48303 0,0 -0.723971,-1.01356 0.241516,-1.88232 l 1.39987,-2.89588 z" />
    <path
       style="fill:#ffffff"
       id="path147"
       d="m 27.764378,47.137386 c 0,0 -0.192866,3.90944 -1.06163,4.58534 -0.868765,0.6759 -1.303147,0.33476 -1.303147,-0.09672 0,-0.19287 -0.434382,-1.06221 2.364777,-4.48862 z" />
    <path
       style="fill:#ffffff"
       id="path149"
       d="m 25.785333,47.910006 c 0.131473,-0.1141 -0.33766,3.52313 -1.158353,4.10231 0,0 -1.06163,1.06279 -1.06163,0.19286 0,-0.19286 -0.04807,-2.31612 2.219983,-4.29517 z" />
    <path
       style="fill:#ffffff"
       id="path151"
       d="m 23.854938,48.778196 c 0,0 -0.675319,3.23354 -1.640806,3.47505 0,0 -0.895986,0.75988 -0.772622,0.1448 0.04865,-0.24094 -1.206424,-0.57918 2.413428,-3.61985 z" />
    <path
       style="fill:#ffffff"
       id="path153"
       d="m 21.007128,49.406016 c 0.214874,-0.12046 -0.385731,2.50957 -1.254496,2.89589 0,0 -0.868765,0.86818 -1.110281,-0.09673 0,0 1.592735,-2.36477 2.364777,-2.79916 z" />
    <g
       transform="matrix(0.579176,0,0,0.579176,9.21857,31.1133)"
       id="g155">
	<path
   style="fill:#ffffff"
   id="path157"
   d="m 4.271,68.251 c 0,-0.015 0.009,-0.054 0.025,-0.114 0.353,-1.293 4.322,-12.483 6.392,-14.553 0,0 1.916,-2.25 2.583,-0.25 0,0 0.501,2.833 -1.583,4 L 4.271,68.251 z" />

	<path
   style="fill:#ffffff"
   id="path159"
   d="m 3.938,71.334 c 0,0 5.583,-10.333 7.333,-11.5 1.75,-1.167 0.167,-0.083 0.167,-0.083 0,0 2.5,-2.418 2.916,0.666 0,0 -6.75,6.834 -10.416,10.917 z" />

	<path
   style="fill:#ffffff"
   id="path161"
   d="m 3.521,73.917 c 0,0 7.583,-9.917 10.25,-10 0,0 2.501,0.167 1.417,2.667 0,0 -9.417,5.25 -11.667,7.333 z" />

	<path
   style="fill:#ffffff"
   id="path163"
   d="m 3.771,75.833 c 0,0 8.583,1.334 10.417,0.25 0,0 2,-2.75 0.416,-4.417 0,0.001 -0.416,-1.582 -10.833,4.167 z" />

	<path
   style="fill:#ffffff"
   id="path165"
   d="m 3.354,78.333 c 0,0 6.795,6.398 9.25,5.584 0.25,-0.084 1.75,-0.668 2.334,-2.75 0,0 -0.084,-3.25 -2.334,-3.25 l -9.25,0.416 z" />

	<path
   style="fill:#ffffff"
   id="path167"
   d="m 3.771,80.417 c -0.065,-0.256 6.334,5 7.917,5 1.583,0 0.25,-0.084 0.25,-0.084 0,0 1.666,0.75 1.166,3.25 0,0 0.5,2.168 -2.333,1.25 -2.833,-0.916 0.167,-0.084 0.167,-0.084 0,0 -6,-4.832 -7.167,-9.332 z" />

	<path
   style="fill:#ffffff"
   id="path169"
   d="m 3.271,83.917 6.75,9.5 c 0,0 2.501,2.25 0.833,3.916 0,0 -2.25,2.459 -2.25,0.334 0,-0.25 -5.333,-13.75 -5.333,-13.75 z" />

	<path
   style="fill:#ffffff"
   id="path171"
   d="m 4.021,91.083 c -0.018,-0.343 4.417,8.25 4.417,8.25 0,0 2.166,2.5 -0.167,3 0,0 -3.833,-3.082 -4.25,-11.25 z" />

	<path
   style="fill:#ffffff"
   id="path173"
   d="m 3.688,96.5 c 0,0 2.084,5.918 3,7.084 0.916,1.166 0.166,3.334 -1.417,2.5 L 3.688,96.5 z" />

</g>
    <g
       transform="matrix(0.579176,0,0,0.579176,9.21857,31.1133)"
       id="g175">
	<path
   style="fill:#ffffff"
   id="path177"
   d="m 105.793,66.584 c 0,-0.015 -0.008,-0.054 -0.024,-0.114 -0.353,-1.293 -4.322,-12.483 -6.392,-14.553 0,0 -1.916,-2.25 -2.584,-0.25 0,0 -0.5,2.833 1.584,4 l 7.416,10.917 z" />

	<path
   style="fill:#ffffff"
   id="path179"
   d="m 106.127,69.667 c 0,0 -5.584,-10.333 -7.334,-11.5 -1.75,-1.167 -0.166,-0.083 -0.166,-0.083 0,0 -2.5,-2.418 -2.918,0.666 0,0 6.75,6.834 10.418,10.917 z" />

	<path
   style="fill:#ffffff"
   id="path181"
   d="m 106.543,72.25 c 0,0 -7.582,-9.917 -10.25,-10 0,0 -2.5,0.167 -1.416,2.667 0,0 9.416,5.25 11.666,7.333 z" />

	<path
   style="fill:#ffffff"
   id="path183"
   d="m 106.293,74.167 c 0,0 -8.582,1.334 -10.416,0.25 0,0 -2,-2.75 -0.418,-4.417 0,0 0.418,-1.583 10.834,4.167 z" />

	<path
   style="fill:#ffffff"
   id="path185"
   d="m 106.709,76.667 c 0,0 -6.793,6.397 -9.25,5.582 -0.25,-0.082 -1.748,-0.666 -2.332,-2.75 0,0 0.082,-3.25 2.332,-3.25 l 9.25,0.418 z" />

	<path
   style="fill:#ffffff"
   id="path187"
   d="m 106.293,78.75 c 0.065,-0.254 -6.334,5 -7.916,5 -1.584,0 -0.25,-0.082 -0.25,-0.082 0,0 -1.668,0.75 -1.168,3.25 0,0 -0.498,2.166 2.334,1.25 2.834,-0.918 -0.166,-0.084 -0.166,-0.084 0,0 6,-4.834 7.166,-9.334 z" />

	<path
   style="fill:#ffffff"
   id="path189"
   d="m 106.793,82.25 -6.75,9.5 c 0,0 -2.5,2.252 -0.834,3.918 0,0 2.25,2.457 2.25,0.332 0,-0.25 5.334,-13.75 5.334,-13.75 z" />

	<path
   style="fill:#ffffff"
   id="path191"
   d="m 106.043,89.417 c 0.019,-0.344 -4.416,8.25 -4.416,8.25 0,0 -2.166,2.5 0.166,3 0,0 3.834,-3.084 4.25,-11.25 z" />

	<path
   style="fill:#ffffff"
   id="path193"
   d="m 106.377,94.833 c 0,0 -2.084,5.918 -3,7.084 -0.918,1.166 -0.166,3.334 1.416,2.5 l 1.584,-9.584 z" />

</g>
    <path
       style="fill:#ffffff"
       id="path195"
       d="m 37.75517,105.77899 c 0,0 -2.606293,-4.923 -0.868764,-5.64697 0,0 1.882902,-1.062214 1.689457,1.01356 l -0.820693,4.63341 z" />
    <path
       style="fill:#ffffff"
       id="path197"
       d="m 40.602981,105.73034 c 0,0 -1.930974,-3.08817 -1.06221,-4.8257 0,0 2.704754,-2.036964 2.171911,0.0961 -0.04807,0.19344 -1.109701,4.72955 -1.109701,4.72955 z" />
    <path
       style="fill:#ffffff"
       id="path199"
       d="m 43.7398,105.68227 c 0,0 -2.027118,-3.95693 -1.013559,-4.97049 0,0 1.544084,-1.641394 1.833672,0.0961 l -0.820113,4.87435 z" />
    <path
       style="fill:#ffffff"
       id="path201"
       d="m 46.58761,105.73034 c 0,0 -1.205845,-3.37892 -0.964908,-4.29517 0,0 1.109702,-3.234124 1.882324,-0.57918 l -0.820114,4.87435 -0.0973,0 z" />
    <path
       style="fill:#ffffff"
       id="path203"
       d="m 48.952387,105.73034 c 0,-0.14479 -0.144794,-4.63341 -0.144794,-4.63341 0,0 1.350642,-2.608614 1.992369,-0.36662 0.01216,0.04 0.02317,0.0828 0.03475,0.12568 0.627827,2.4615 -1.882326,4.87435 -1.882326,4.87435 z" />
    <path
       style="fill:#ffffff"
       id="path205"
       d="m 51.896922,105.34461 c 0,0 -0.144794,-4.58476 -0.144794,-4.72956 0,-0.14479 2.171911,-2.799734 2.123261,-0.14479 -0.04807,2.65379 -1.978467,4.87435 -1.978467,4.87435 z" />
    <path
       style="fill:#ffffff"
       id="path207"
       d="m 54.116905,105.15116 c 0,0 -0.675319,-5.645814 1.592735,-5.260084 0,0 1.014717,0.433234 0.38689,1.833684 l -1.979625,3.4264 z" />
    <path
       style="fill:#ffffff"
       id="path209"
       d="m 56.385539,105.00637 0.72397,-4.34382 c 0,0 0.144795,-1.592744 1.205846,-0.964914 0,0 0.72397,0.483034 0.04865,1.786184 l -1.978466,3.52255 z" />
    <path
       style="fill:#ffffff"
       id="path211"
       d="m 58.847039,104.18626 0.579176,-3.90944 c 0,0 0.192286,-1.447954 0.964908,-0.964914 0,0 1.013558,0.53052 0.193445,1.640224 -0.821272,1.11087 -0.0973,0 -0.0973,0 l -1.640227,3.23413 z" />
    <path
       style="fill:#ffffff"
       id="path213"
       d="m 60.584568,104.09011 1.061051,-3.81329 c 0,0 0.144794,-1.205854 0.868764,-1.109714 0,0 0.772622,0.09615 0.290747,1.205854 l -2.220562,3.71715 z" />
    <path
       style="fill:#ffffff"
       id="path215"
       d="m 62.611685,103.60708 c 0,0 0.966066,-4.296334 1.447941,-4.488624 0.483033,-0.19344 1.11086,-0.48303 0.868764,0.53053 l -2.316705,3.958094 z" />
    <path
       style="fill:#ffffff"
       id="path217"
       d="m 64.107697,103.26884 0.02491,-0.0736 1.180941,-3.497644 c 0,0 0.917415,-1.30315 0.917415,-0.09614 l -2.123261,3.667344 z" />
    <path
       style="fill:#ffffff"
       id="path219"
       d="m 65.893298,102.35258 1.013559,-3.378914 c 0,0 0.72397,-1.11086 0.868764,-0.1448 l -1.882323,3.523714 z" />
    <path
       style="fill:#ffffff"
       id="path221"
       d="m 35.390393,105.58555 c 0,0 0.820114,-4.72956 -0.338239,-5.30873 0,0 -1.7856,-0.772634 -1.351218,1.30314 l 1.689457,4.00559 z" />
    <path
       style="fill:#ffffff"
       id="path223"
       d="m 32.156273,105.53747 c 0,0 -2.268055,-4.34382 -1.399291,-5.11528 0,0 1.447941,-0.772624 1.592735,0.53052 0.144795,1.30315 -0.09672,0.0487 -0.09672,0.0487 l -0.09672,4.53611 z" />
    <path
       style="fill:#ffffff"
       id="path225"
       d="m 29.791495,105.29596 c 0,0 -2.268633,-3.61985 -1.834251,-4.58476 0,0 0.865869,-1.442154 1.636752,-0.15233 0.0017,0.003 0.0035,0.005 0.0046,0.008 0.772042,1.30315 0.192865,4.87435 0.192865,4.87435 l 0,-0.14479 z" />
    <path
       style="fill:#ffffff"
       id="path227"
       d="m 26.943685,104.86158 c 0,0 -2.316705,-3.42757 -1.737528,-4.53727 0,0 0.820692,-1.254504 1.544663,-0.337084 0,0 0.868764,1.062214 0.192865,4.874354 z" />
    <path
       style="fill:#ffffff"
       id="path229"
       d="m 24.916568,104.71678 c 0,0 -2.847231,-3.33026 -2.364777,-4.63341 0,0 0.241517,-0.964914 1.061631,-0.144794 0,0 1.496591,3.909444 1.303146,4.778204 z" />
    <path
       style="fill:#ffffff"
       id="path231"
       d="m 22.84138,104.3797 c 0,0 -0.386311,-4.15154 -0.965487,-4.730714 -0.579177,-0.57918 -1.158353,-1.01356 -1.013559,0.19344 0.144794,1.207014 1.979046,4.537274 1.979046,4.537274 z" />
    <path
       style="fill:#ffffff"
       id="path233"
       d="m 21.151922,104.18626 c 0,0 -0.868764,-4.971654 -1.785601,-5.116454 -0.916836,-0.14479 -1.158352,0.2421 -0.675898,1.303154 0.483033,1.06221 2.461499,3.8133 2.461499,3.8133 z" />
    <path
       style="fill:#ffffff"
       id="path235"
       d="m 19.414393,103.70322 c 0,0 -1.303147,-4.921844 -2.027117,-4.970494 -0.723971,-0.04865 -0.916836,0.72397 -0.33766,1.592744 0.579176,0.86876 2.364777,3.37775 2.364777,3.37775 z" />
    <path
       style="fill:#ffffff"
       id="path237"
       d="m 17.773586,103.07655 c 0,0 -1.303146,-4.537264 -1.979045,-4.488614 -0.67532,0.04749 0.38631,3.234124 1.979045,4.488614 z" />
    <path
       style="fill:#ffffff"
       id="path239"
       d="m 16.036057,102.30393 c 0,0 -1.303147,-3.909444 -2.171911,-3.619854 -0.868765,0.28959 0.482454,2.702444 2.171911,3.619854 z" />
    <path
       style="fill:#ffffff"
       id="path241"
       d="m 39.87901,116.34896 c 0,0 -1.930395,-6.08135 -2.027117,-7.81888 -0.09672,-1.73753 0.627827,-2.17191 1.447941,-2.12326 0.820113,0.0475 1.351218,0.48187 1.351218,1.68888 0,1.207 -0.868764,8.20461 -0.772042,8.25326 z" />
    <path
       style="fill:#ffffff"
       id="path243"
       d="m 43.209274,116.34896 c 0,0 -0.385731,-7.52929 0.385732,-8.88109 0.772621,-1.3518 2.654944,-1.30315 2.171911,1.25449 -0.482454,2.55881 -2.557643,7.6266 -2.557643,7.6266 z" />
    <path
       style="fill:#ffffff"
       id="path245"
       d="m 45.52598,116.49375 3.040676,-7.86753 c 0,0 0.434382,-2.94337 1.737531,-2.07461 1.303147,0.86877 1.158353,1.68888 -0.242095,3.08817 -1.399293,1.40045 -4.536112,6.85397 -4.536112,6.85397 z" />
    <path
       style="fill:#ffffff"
       id="path247"
       d="m 49.241978,115.43154 4.102885,-7.57678 c 0,0 0.771463,-2.51015 2.219404,-1.78618 1.447941,0.72397 0.580335,1.64138 -0.771463,2.99202 -1.351798,1.3518 -5.550826,6.37094 -5.550826,6.37094 z" />
    <path
       style="fill:#ffffff"
       id="path249"
       d="m 52.13786,114.66008 5.598318,-7.62659 c 0,0 1.303147,-2.70244 2.4615,-1.54409 1.158353,1.15836 -0.868765,1.97847 -1.882323,3.18547 -1.013559,1.20701 -6.177495,5.98521 -6.177495,5.98521 z" />
    <path
       style="fill:#ffffff"
       id="path251"
       d="m 57.157581,111.95649 c 0,0 4.006742,-6.32229 5.020301,-6.66053 1.013558,-0.33708 1.496591,-0.77147 1.303147,-0.0475 -0.193445,0.72397 -6.323448,6.70802 -6.323448,6.70802 z" />
    <path
       style="fill:#ffffff"
       id="path253"
       d="m 37.707099,116.39703 c 0,0 -2.84781,-6.70918 -2.365356,-7.96367 0.483033,-1.2545 -2.412849,-3.52255 -2.509572,-1.20585 -0.09672,2.31671 3.957512,8.15596 4.874928,9.16952 z" />
    <path
       style="fill:#ffffff"
       id="path255"
       d="m 34.859289,116.01072 -4.488617,-8.01117 c 0,0 -2.992604,-4.7782 -2.316706,-0.67648 0.675899,4.10289 6.081352,8.35057 6.805323,8.68765 z" />
    <path
       style="fill:#ffffff"
       id="path257"
       d="m 31.770541,115.19061 -6.130002,-8.10847 c 0,0 -2.79858,-3.13798 -2.123261,-0.57918 0.67532,2.55764 8.253263,8.68765 8.253263,8.68765 z" />
    <path
       style="fill:#ffffff"
       id="path259"
       d="m 26.171643,112.14993 -5.067793,-6.2748 c 0,0 -2.799159,-2.02596 -1.110281,0.53169 1.689458,2.55764 6.178074,5.74311 6.178074,5.74311 z" />
    <path
       style="fill:#ffffff"
       id="path261"
       d="m 20.427952,108.91581 c 0,0 -2.219983,-4.48862 -2.943954,-4.00558 -0.72397,0.48245 2.943954,4.00558 2.943954,4.00558 z" />
  </g>
  <polygon
     id="polygon3440"
     points="99.9553,101.792 100.167,101.792 99.9553,101.792 "
     class="fil59"
     style="fill:#ffffff;fill-rule:nonzero"
     transform="matrix(1.8094894,0,0,1.8094894,-1018.7853,-73.3414)" />
  <polygon
     id="polygon3450"
     points="149.309,106.555 149.485,106.555 149.309,106.555 "
     class="fil59"
     style="fill:#ffffff;fill-rule:nonzero"
     transform="matrix(1.8094894,0,0,1.8094894,-1018.7853,-73.3414)" />
  <polygon
     id="polygon3456"
     points="116.395,107.26 116.606,107.26 116.395,107.26 "
     class="fil58"
     style="fill:#000000;fill-rule:nonzero"
     transform="matrix(1.8094894,0,0,1.8094894,-1018.7853,-73.3414)" />
  <polygon
     id="polygon3466"
     points="143.276,110.647 143.382,110.647 143.276,110.647 "
     class="fil59"
     style="fill:#ffffff;fill-rule:nonzero"
     transform="matrix(1.8094894,0,0,1.8094894,-1018.7853,-73.3414)" />
  <polygon
     id="polygon3472"
     points="142.077,111.317 142.289,111.317 142.077,111.317 "
     class="fil59"
     style="fill:#ffffff;fill-rule:nonzero"
     transform="matrix(1.8094894,0,0,1.8094894,-1018.7853,-73.3414)" />
  <polygon
     id="polygon3504"
     points="85.2445,126.981 85.3503,126.981 85.2445,126.981 "
     class="fil59"
     style="fill:#ffffff;fill-rule:nonzero"
     transform="matrix(1.8094894,0,0,1.8094894,-1018.7853,-73.3414)" />
  <polygon
     id="polygon3520"
     points="149.944,135.871 150.12,135.871 149.944,135.871 "
     class="fil59"
     style="fill:#ffffff;fill-rule:nonzero"
     transform="matrix(1.8094894,0,0,1.8094894,-1018.7853,-73.3414)" />
  <polygon
     id="polygon3532"
     points="82.2459,140.951 82.4575,140.951 82.2459,140.951 "
     class="fil59"
     style="fill:#ffffff;fill-rule:nonzero"
     transform="matrix(1.8094894,0,0,1.8094894,-1018.7853,-73.3414)" />
  <polygon
     id="polygon3536"
     points="109.339,141.797 109.586,141.797 109.339,141.797 "
     class="fil59"
     style="fill:#ffffff;fill-rule:nonzero"
     transform="matrix(1.8094894,0,0,1.8094894,-1018.7853,-73.3414)" />
  <polygon
     id="polygon3560"
     points="131.07,148.218 131.247,148.218 131.07,148.218 "
     class="fil59"
     style="fill:#ffffff;fill-rule:nonzero"
     transform="matrix(1.8094894,0,0,1.8094894,-1018.7853,-73.3414)" />
  <polygon
     id="polygon3572"
     points="113.079,153.298 113.255,153.298 113.079,153.298 "
     class="fil59"
     style="fill:#ffffff;fill-rule:nonzero"
     transform="matrix(1.8094894,0,0,1.8094894,-1018.7853,-73.3414)" />
  <polygon
     id="polygon3576"
     points="145.605,153.721 145.781,153.721 145.605,153.721 "
     class="fil59"
     style="fill:#ffffff;fill-rule:nonzero"
     transform="matrix(1.8094894,0,0,1.8094894,-1018.7853,-73.3414)" />
  <polygon
     id="polygon3586"
     points="106.164,157.708 106.305,157.708 106.164,157.708 "
     class="fil59"
     style="fill:#ffffff;fill-rule:nonzero"
     transform="matrix(1.8094894,0,0,1.8094894,-1018.7853,-73.3414)" />
  <polygon
     id="polygon3618"
     points="129.589,173.477 129.765,173.477 129.589,173.477 "
     class="fil59"
     style="fill:#ffffff;fill-rule:nonzero"
     transform="matrix(1.8094894,0,0,1.8094894,-1018.7853,-73.3414)" />
  <polygon
     id="polygon3630"
     points="100.59,177.569 100.943,177.569 100.59,177.569 "
     class="fil58"
     style="fill:#000000;fill-rule:nonzero"
     transform="matrix(1.8094894,0,0,1.8094894,-1018.7853,-73.3414)" />
  <polygon
     id="polygon3686"
     points="109.692,201.205 110.327,201.205 109.692,201.205 "
     class="fil59"
     style="fill:#ffffff;fill-rule:nonzero"
     transform="matrix(1.8094894,0,0,1.8094894,-1018.7853,-73.3414)" />
  <polygon
     id="polygon3690"
     points="89.5837,203.004 89.7601,203.004 89.5837,203.004 "
     class="fil58"
     style="fill:#000000;fill-rule:nonzero"
     transform="matrix(1.8094894,0,0,1.8094894,-1018.7853,-73.3414)" />
  <polygon
     id="polygon3694"
     points="109.621,203.251 109.974,203.251 109.621,203.251 "
     class="fil59"
     style="fill:#ffffff;fill-rule:nonzero"
     transform="matrix(1.8094894,0,0,1.8094894,-1018.7853,-73.3414)" />
  <polygon
     id="polygon3696"
     points="106.023,203.322 106.199,203.322 106.023,203.322 "
     class="fil59"
     style="fill:#ffffff;fill-rule:nonzero"
     transform="matrix(1.8094894,0,0,1.8094894,-1018.7853,-73.3414)" />
  <g
     id="g15767"
     transform="matrix(0.2230704,0,0,0.2322423,46.969368,6.5451007)"
     inkscape:export-filename="/home/filips/svn/geokrety/templates/logo/logo-wielkanoc.png"
     inkscape:export-xdpi="156.79419"
     inkscape:export-ydpi="156.79419">
    <polygon
       transform="matrix(1.8020893,-0.1634812,0.1634812,1.8020893,-298.8125,-111.4466)"
       style="fill:#ffffff;fill-rule:nonzero;stroke-linecap:round;stroke-linejoin:round"
       class="fil59"
       points="151.143,106.696 151.073,106.766 151.143,106.696 "
       id="polygon2819" />
    <polygon
       transform="matrix(1.8020893,-0.1634812,0.1634812,1.8020893,-298.8125,-111.4466)"
       style="fill:#ffffff;fill-rule:nonzero;stroke-linecap:round;stroke-linejoin:round"
       class="fil59"
       points="151.955,106.908 152.06,107.049 151.955,106.908 "
       id="polygon2821" />
    <polygon
       transform="matrix(1.8020893,-0.1634812,0.1634812,1.8020893,-298.8125,-111.4466)"
       style="fill:#ffffff;fill-rule:nonzero;stroke-linecap:round;stroke-linejoin:round"
       class="fil59"
       points="147.686,117.844 147.545,117.914 147.686,117.844 "
       id="polygon2823" />
    <path
       sodipodi:nodetypes="cssz"
       id="path2825"
       d="M -79.4383,41.734855 C -65.271766,52.257641 -16.998351,82.84439 -12.71995,90.448659 C -9.5091385,96.155432 -16.61309,106.92599 -22.070991,104.8329 C -33.802516,100.3339 -28.538218,94.655651 -77.931107,57.340667"
       style="fill:#e9c642;fill-opacity:1;fill-rule:evenodd;stroke:#000000;stroke-width:2.81500006;stroke-linecap:round;stroke-linejoin:round;stroke-miterlimit:4;stroke-dasharray:none;stroke-opacity:1" />
    <path
       sodipodi:nodetypes="cscszczzzzzzzzzczzzzzz"
       id="path2827"
       d="M -77.634427,85.689881 C -75.225706,84.463375 -64.695395,82.57159 -62.481237,79.707255 C -60.267605,76.843599 -61.807466,73.375307 -60.79779,70.964798 C -58.209285,72.843818 -53.791405,73.876445 -52.294355,73.229633 C -50.890766,72.623202 -47.728803,67.416718 -47.7032,65.370919 C -47.677598,63.325109 -49.812074,61.762336 -51.155325,61.005459 C -45.63657,57.552829 -42.13148,57.593275 -38.197571,58.496393 C -34.263663,59.399511 -35.395899,61.668673 -33.204398,63.009063 C -31.066471,64.316685 -29.349056,63.6435 -27.967583,64.912317 C -26.58611,66.181134 -26.376623,68.33181 -24.867266,69.991223 C -23.321076,71.691132 -22.168224,70.902181 -20.464508,73.015609 C -18.76079,75.129037 -19.311871,76.317782 -18.19896,78.664803 C -17.086048,81.011834 -14.188166,79.89819 -17.298876,85.688362 C -20.315615,91.303608 -23.935212,94.282349 -26.428452,96.164522 C -28.983967,98.093714 -34.845869,99.808118 -36.140775,98.629599 C -37.685268,97.22392 -37.019997,97.339096 -36.568551,95.966144 C -37.818335,96.475521 -38.477557,97.077602 -40.853661,97.473152 C -43.229764,97.868703 -43.758725,97.196695 -44.735518,95.953309 C -45.71231,94.709924 -43.524003,91.847422 -44.76083,92.499622 C -45.997657,93.151822 -45.865152,96.199786 -49.682827,98.562111 C -53.500503,100.92443 -59.467208,103.68872 -64.255122,104.48306 C -69.043036,105.2774 -72.074006,102.14138 -74.274745,102.08902"
       style="fill:#d4af8b;fill-opacity:1;fill-rule:evenodd;stroke:#000000;stroke-width:2.81500006;stroke-linecap:round;stroke-linejoin:round;stroke-miterlimit:4;stroke-dasharray:none;stroke-opacity:1" />
    <path
       sodipodi:nodetypes="cszz"
       id="path2829"
       d="M -57.646164,81.235683 C -51.145445,87.429425 -40.925237,96.551992 -32.688478,95.653113 C -28.855314,95.235682 -35.753515,81.651567 -41.195349,76.364767 C -46.637184,71.077967 -53.960729,74.144265 -55.960082,75.381439"
       style="fill:none;fill-opacity:0.75;fill-rule:evenodd;stroke:#000000;stroke-width:2.81500006;stroke-linecap:round;stroke-linejoin:round;stroke-miterlimit:4;stroke-dasharray:none;stroke-opacity:1" />
    <path
       sodipodi:nodetypes="cz"
       id="path2831"
       d="M -40.681261,76.212549 C -39.260325,75.73036 -36.451694,72.486614 -35.891209,67.331664"
       style="fill:none;fill-opacity:0.75;fill-rule:evenodd;stroke:#000000;stroke-width:2.81500006;stroke-linecap:round;stroke-linejoin:round;stroke-miterlimit:4;stroke-dasharray:none;stroke-opacity:1" />
    <path
       sodipodi:nodetypes="cz"
       id="path2833"
       d="M -34.331917,85.085243 C -31.532034,81.931105 -28.354551,77.880543 -27.766313,74.270568"
       style="fill:none;fill-opacity:0.75;fill-rule:evenodd;stroke:#000000;stroke-width:2.81500006;stroke-linecap:round;stroke-linejoin:round;stroke-miterlimit:4;stroke-dasharray:none;stroke-opacity:1" />
    <path
       sodipodi:nodetypes="cz"
       id="path2835"
       d="M -31.269709,93.835147 C -26.578812,90.56099 -23.347373,86.645088 -21.855797,82.489985"
       style="fill:none;fill-opacity:0.75;fill-rule:evenodd;stroke:#000000;stroke-width:2.81500006;stroke-linecap:round;stroke-linejoin:round;stroke-miterlimit:4;stroke-dasharray:none;stroke-opacity:1" />
    <g
       transform="matrix(0.702831,3.7163548e-2,-3.7163548e-2,0.702831,-275.97308,-686.68328)"
       id="g2837">
      <path
         style="opacity:1;fill:#667b58;fill-opacity:1;fill-rule:evenodd;stroke:#000000;stroke-width:4;stroke-linecap:butt;stroke-linejoin:round;stroke-miterlimit:4;stroke-dasharray:none;stroke-opacity:1"
         d="M 291.29335,966.00527 L 252.61617,1040.1833 L 205.71775,1025.7961 L 150.41126,971.7975 L 223.09446,944.14426 L 291.29335,966.00527 z"
         id="path2839"
         sodipodi:nodetypes="cccccc" />
      <path
         style="opacity:1;fill:#c5c5c5;fill-opacity:1;fill-rule:evenodd;stroke:#000000;stroke-width:4;stroke-linecap:butt;stroke-linejoin:round;stroke-miterlimit:4;stroke-dasharray:none;stroke-opacity:1"
         d="M 205.71775,1025.7961 L 150.41126,971.79749 L 223.09446,944.14425 L 245.42215,951.6338 L 177.66932,977.12969 L 226.97716,1032.1482 L 205.71775,1025.7961 z"
         id="path2841"
         sodipodi:nodetypes="ccccccc" />
      <path
         style="fill:#667b58;fill-opacity:1;fill-rule:evenodd;stroke:#000000;stroke-width:4;stroke-linecap:butt;stroke-linejoin:round;stroke-miterlimit:4;stroke-dasharray:none;stroke-opacity:1"
         d="M 288.17968,1000.584 L 278.98243,1020.2322 C 263.77968,1010.4249 217.31948,992.73682 226.58677,983.76771 C 235.999,974.65833 265.00274,987.54157 288.17968,1000.584 z"
         id="path2843"
         sodipodi:nodetypes="cczc" />
    </g>
    <path
       sodipodi:nodetypes="cccszscccczzc"
       id="path2845"
       d="M -64.623652,62.930554 C -66.456684,68.179661 -67.840387,89.6045 -61.136238,105.6375 C -115.97415,103.81315 -119.16586,83.734739 -160.21029,74.868976 C -154.55315,61.486426 -147.2576,54.440235 -135.3177,44.916252 C -129.9827,40.660732 -123.45644,32.72938 -118.26292,27.617798 C -113.0694,22.506216 -108.72745,18.886839 -102.6931,16.341167 C -91.569077,11.64835 -75.805061,12.823941 -66.178093,21.447259 C -69.033314,22.126579 -75.947544,21.340983 -75.894357,26.396471 C -75.389646,32.103972 -79.900467,34.706531 -83.860316,37.740668 C -86.438291,40.411287 -84.960037,44.52268 -88.777828,46.06037 C -88.957251,50.633184 -87.182594,55.046794 -84.585904,59.102094 C -81.874726,63.336162 -79.057053,66.063015 -75.20783,68.562395 C -71.358607,71.061846 -67.071,65.804434 -64.623652,62.930554 z"
       style="fill:#5d5d5d;fill-opacity:1;fill-rule:evenodd;stroke:#000000;stroke-width:2.81525159;stroke-linecap:butt;stroke-linejoin:round;stroke-miterlimit:4;stroke-dasharray:none;stroke-opacity:1" />
    <path
       sodipodi:nodetypes="ccccczzczccczz"
       id="path2847"
       d="M -64.873618,62.627422 C -68.108504,66.132974 -71.608573,70.758713 -75.457796,68.259263 C -79.307019,65.759882 -82.124692,63.03303 -84.835871,58.798962 C -87.43256,54.743662 -89.207217,50.330051 -89.027794,45.757238 C -85.210003,44.219548 -86.688257,40.108154 -84.110282,37.437536 C -80.150433,34.403399 -75.639612,31.80084 -76.144323,26.093339 C -76.19751,21.037781 -68.16709,21.882356 -66.242084,21.98096 C -64.22433,22.084351 -53.110118,23.524985 -49.465549,23.316305 C -46.943323,21.527212 -44.230314,18.550084 -42.576952,17.52125 C -40.966657,16.519232 -38.828452,14.01415 -36.794179,14.751676 C -30.439713,15.1696 -31.979036,22.423588 -32.32401,27.19171 C -33.238545,33.430941 -41.648025,35.120725 -50.000419,41.283944 C -56.191235,45.988159 -55.649798,46.374693 -59.368098,51.71058 C -63.086398,57.046467 -61.638732,59.121871 -64.873618,62.627422 z"
       style="fill:#d4af8b;fill-opacity:1;fill-rule:evenodd;stroke:#000000;stroke-width:2.81525159;stroke-linecap:butt;stroke-linejoin:round;stroke-miterlimit:4;stroke-dasharray:none;stroke-opacity:1" />
    <path
       sodipodi:nodetypes="cc"
       id="path2849"
       d="M -38.082516,21.963435 C -37.952191,25.155579 -39.111406,27.283839 -40.958739,28.075417"
       style="fill:none;fill-opacity:0.75;fill-rule:evenodd;stroke:#000000;stroke-width:3.51906443;stroke-linecap:round;stroke-linejoin:miter;stroke-miterlimit:4;stroke-dasharray:none;stroke-opacity:1" />
    <path
       sodipodi:nodetypes="cccccccc"
       style="fill:#000000;fill-rule:nonzero;stroke:#000000;stroke-width:2.81525159;stroke-linecap:round;stroke-linejoin:round;stroke-miterlimit:4;stroke-dasharray:none;stroke-opacity:1"
       class="fil58"
       d="M -70.035044,50.037617 C -68.931395,50.000948 -63.039088,47.394729 -62.244976,46.994189 C -64.149944,50.30218 -65.622236,51.000715 -67.586634,55.274407 C -68.452085,57.633307 -70.000431,60.737896 -72.542955,62.306906 C -76.307221,59.559431 -76.633304,54.192858 -78.372356,50.144174 C -83.113422,47.104336 -86.30881,41.897317 -90.626442,42.682983 C -91.652777,40.310712 -90.072647,38.437584 -90.023697,36.25323 C -88.042956,46.509755 -75.600459,50.158039 -70.035044,50.037617 z"
       id="path2851" />
    <path
       style="fill:#ffffff;fill-rule:nonzero"
       class="fil59"
       d="M -68.470517,56.305845 C -69.131187,56.86784 -74.068927,57.093553 -75.232541,56.822233 C -75.688963,55.811276 -76.06311,52.780869 -76.698161,51.575096 C -75.814031,51.597126 -67.606517,52.304528 -64.853834,49.876092 C -66.037366,51.071448 -68.850225,56.440062 -68.470517,56.305845 L -68.470517,56.305845 z"
       id="path2853" />
    <path
       sodipodi:nodetypes="czzc"
       id="path2855"
       d="M -96.300004,30.03441 C -92.747685,29.006069 -92.056977,27.14378 -88.937361,25.920975 C -85.817746,24.698171 -85.804782,24.888341 -83.821535,25.143262 C -81.838289,25.398183 -81.004377,26.94073 -81.004377,26.94073"
       style="fill:none;fill-opacity:0.75;fill-rule:evenodd;stroke:#000000;stroke-width:2.81500006;stroke-linecap:round;stroke-linejoin:round;stroke-miterlimit:4;stroke-dasharray:none;stroke-opacity:1" />
  </g>
  <g
     id="g6718"
     transform="matrix(1.1262102,0,0,1.0270667,83.156408,-67.979147)"
     inkscape:export-filename="/home/filips/svn/geokrety/templates/logo/logo-wielkanoc.png"
     inkscape:export-xdpi="156.79419"
     inkscape:export-ydpi="156.79419">
    <g
       style="stroke-width:6.90508652;stroke-miterlimit:4;stroke-dasharray:none"
       transform="matrix(0.04315791,0,0,0.04373648,-18.6356,70.379871)"
       id="g238">
		<path
   id="path3161_1_"
   style="fill:#ffffff;stroke:#010101;stroke-width:6.42037106;stroke-linecap:round;stroke-linejoin:round;stroke-miterlimit:4;stroke-dasharray:none"
   d="m 65.645,505.984 c -14.569,14.569 -38.179,14.58 -52.735,0.024 -14.555,-14.556 -14.545,-38.165 0.023,-52.734 14.569,-14.568 38.179,-14.579 52.733,-0.023 14.558,14.555 14.546,38.165 -0.021,52.733 l 0,0 z" />

		<path
   id="path241-2"
   style="fill:#010101;fill-opacity:0.3137;stroke-width:6.90508652;stroke-miterlimit:4;stroke-dasharray:none"
   d="m 72.284,459.874 c 1.805,4.381 2.806,9.178 2.806,14.211 0,20.603 -16.688,36.305 -37.273,36.305 -13.633,0 -25.55,-6.33 -32.048,-17.263 5.584,13.553 18.908,23.094 34.464,23.094 20.585,0 37.273,-16.701 37.273,-37.304 0,-6.958 -1.909,-13.468 -5.222,-19.043 z" />

	</g>
    <g
       style="stroke-width:6.90508652;stroke-miterlimit:4;stroke-dasharray:none"
       id="layer1"
       transform="matrix(0.04315791,0,0,0.04373648,-24.731914,60.76668)">
		<path
   id="path2385"
   style="fill:#ffffff;stroke:#010101;stroke-width:6.42037106;stroke-linecap:round;stroke-linejoin:round;stroke-miterlimit:4;stroke-dasharray:none"
   d="m 492.193,628.824 c 0.033,90.187 -72.987,163.321 -163.093,163.354 -90.107,0.031 -163.178,-73.053 -163.21,-163.238 0,-0.039 0,-0.078 0,-0.116 -0.032,-90.187 72.988,-163.323 163.094,-163.354 90.106,-0.031 163.178,73.053 163.209,163.238 0,0.039 0,0.078 0,0.116 z" />

		<path
   id="path3276"
   style="fill:#010101;fill-opacity:0.3137;stroke-width:6.90508652;stroke-miterlimit:4;stroke-dasharray:none"
   d="m 329.036,465.528 c -17.357,0 -34.075,2.738 -49.769,7.77 14.118,-3.3 29.008,-5.082 44.397,-5.082 42.215,0 80.714,13.276 109.693,35.071 -28.285,-23.576 -64.663,-37.759 -104.321,-37.759 z m 154.511,110.714 c 2.141,8.72 3.273,17.724 3.273,26.965 0,74.517 -73.096,134.991 -163.156,134.991 -75.312,0 -138.73,-42.283 -157.49,-99.711 5.001,85.648 76.042,153.639 162.861,153.639 90.06,0 163.155,-73.158 163.155,-163.299 0.002,-18.389 -3.036,-36.086 -8.643,-52.585 z" />

		<g
   style="stroke-width:6.90508652;stroke-miterlimit:4;stroke-dasharray:none"
   id="g246">
			<g
   style="stroke-width:6.90508652;stroke-miterlimit:4;stroke-dasharray:none"
   id="g248">
				<path
   id="path3165"
   style="fill:#ffffff;stroke:#010101;stroke-width:6.42037106;stroke-linecap:round;stroke-linejoin:round;stroke-miterlimit:4;stroke-dasharray:none"
   d="m 271.928,722.086 c -32.664,0 -59.152,26.544 -59.152,59.237 0,6.76 1.136,13.234 3.223,19.286 l 111.892,0 c 2.087,-6.052 3.223,-12.526 3.223,-19.286 -10e-4,-32.693 -26.522,-59.237 -59.186,-59.237 z" />

				<g
   style="stroke-width:6.90508652;stroke-miterlimit:4;stroke-dasharray:none"
   id="g251">
					<path
   id="path3220"
   style="fill:#f9d5e4;stroke:#010101;stroke-width:6.42037106;stroke-linecap:round;stroke-linejoin:round;stroke-miterlimit:4;stroke-dasharray:none"
   d="m 266.691,784.528 c 0,10.393 -7.094,18.817 -15.846,18.817 -8.751,0 -15.845,-8.425 -15.845,-18.817 0,-10.392 7.094,-18.815 15.845,-18.815 8.752,0 15.846,8.423 15.846,18.815 l 0,0 z" />

					<path
   id="path3224"
   style="fill:#f9d5e4;stroke:#010101;stroke-width:6.42037106;stroke-linecap:round;stroke-linejoin:round;stroke-miterlimit:4;stroke-dasharray:none"
   d="m 306.439,784.528 c 0,10.393 -7.094,18.817 -15.846,18.817 -8.751,0 -15.845,-8.425 -15.845,-18.817 0,-10.392 7.094,-18.815 15.845,-18.815 8.752,0 15.846,8.423 15.846,18.815 l 0,0 z" />

					<path
   id="path3222"
   style="fill:#f9d5e4;stroke:#010101;stroke-width:6.42037106;stroke-linecap:round;stroke-linejoin:round;stroke-miterlimit:4;stroke-dasharray:none"
   d="m 287.639,784.528 c 0,10.393 -7.095,18.817 -15.846,18.817 -8.751,0 -15.845,-8.425 -15.845,-18.817 0,-10.392 7.094,-18.815 15.845,-18.815 8.752,0 15.846,8.423 15.846,18.815 l 0,0 z" />

				</g>

			</g>

			<g
   style="stroke-width:6.90508652;stroke-miterlimit:4;stroke-dasharray:none"
   id="g256">
				<path
   id="path3163"
   style="fill:#ffffff;stroke:#010101;stroke-width:6.42037106;stroke-linecap:round;stroke-linejoin:round;stroke-miterlimit:4;stroke-dasharray:none"
   d="m 390.299,722.086 c -32.664,0 -59.186,26.544 -59.186,59.237 0,6.76 1.136,13.234 3.224,19.286 l 111.892,0 c 2.086,-6.052 3.223,-12.526 3.223,-19.286 -10e-4,-32.693 -26.489,-59.237 -59.153,-59.237 z" />

				<g
   style="stroke-width:6.90508652;stroke-miterlimit:4;stroke-dasharray:none"
   id="g259">
					<path
   id="path3226"
   style="fill:#f9d5e4;stroke:#010101;stroke-width:6.42037106;stroke-linecap:round;stroke-linejoin:round;stroke-miterlimit:4;stroke-dasharray:none"
   d="m 388.62,784.528 c 0,10.393 -7.095,18.817 -15.846,18.817 -8.75,0 -15.846,-8.425 -15.846,-18.817 0,-10.392 7.096,-18.815 15.846,-18.815 8.752,0 15.846,8.423 15.846,18.815 l 0,0 z" />

					<path
   id="path3228"
   style="fill:#f9d5e4;stroke:#010101;stroke-width:6.42037106;stroke-linecap:round;stroke-linejoin:round;stroke-miterlimit:4;stroke-dasharray:none"
   d="m 428.368,784.528 c 0,10.393 -7.094,18.817 -15.846,18.817 -8.751,0 -15.845,-8.425 -15.845,-18.817 0,-10.392 7.094,-18.815 15.845,-18.815 8.753,0 15.846,8.423 15.846,18.815 l 0,0 z" />

					<path
   id="path3230"
   style="fill:#f9d5e4;stroke:#010101;stroke-width:6.42037106;stroke-linecap:round;stroke-linejoin:round;stroke-miterlimit:4;stroke-dasharray:none"
   d="m 409.568,784.528 c 0,10.393 -7.094,18.817 -15.846,18.817 -8.751,0 -15.846,-8.425 -15.846,-18.817 0,-10.392 7.095,-18.815 15.846,-18.815 8.753,0 15.846,8.423 15.846,18.815 l 0,0 z" />

				</g>

			</g>

		</g>

		<path
   id="path3242"
   style="fill:#010101;fill-opacity:0.3137;stroke-width:6.90508652;stroke-miterlimit:4;stroke-dasharray:none"
   d="m 312.025,637.126 c 0,17.057 -13.814,30.883 -30.855,30.883 -17.041,0 -30.855,-13.826 -30.855,-30.883 0,-17.055 13.814,-30.882 30.855,-30.882 17.041,0 30.855,13.827 30.855,30.882 l 0,0 z" />

		<g
   style="stroke-width:6.90508652;stroke-miterlimit:4;stroke-dasharray:none"
   id="g265">
			<path
   id="path3242_1_"
   style="fill:#010101;fill-opacity:0.3137;stroke-width:6.90508652;stroke-miterlimit:4;stroke-dasharray:none"
   d="m 361.669,665.557 c -12.129,19.612 -34.965,27.467 -51.008,17.545 -16.043,-9.921 -19.216,-33.862 -7.088,-53.475 12.127,-19.61 34.967,-27.466 51.008,-17.545 16.043,9.922 19.216,33.863 7.088,53.475 l 0,0 z" />

			<path
   id="path268"
   style="fill:#6a3794;stroke:#010101;stroke-width:6.42037106;stroke-miterlimit:4;stroke-dasharray:none"
   d="m 363.906,649.713 c -11.126,28.046 -38.451,39.768 -61.034,26.18 -22.583,-13.588 -25.197,-43.323 -5.841,-66.417 19.356,-23.094 46.682,-34.814 61.034,-26.18 14.351,8.635 16.966,38.371 5.841,66.417 z" />

		</g>

		<path
   id="path3159"
   style="fill:#ffffff;stroke:#010101;stroke-width:6.42037106;stroke-linecap:round;stroke-linejoin:round;stroke-miterlimit:4;stroke-dasharray:none"
   d="m 302.798,615.42 c 8.528,14.771 3.478,33.651 -11.28,42.173 -14.758,8.52 -33.634,3.453 -42.162,-11.318 -8.528,-14.77 -3.478,-33.651 11.28,-42.172 14.757,-8.521 33.634,-3.453 42.162,11.317 l 0,0 z" />

		<g
   style="stroke-width:6.90508652;stroke-miterlimit:4;stroke-dasharray:none"
   id="g271">
			<path
   id="path3244"
   style="fill:#010101;fill-opacity:0.3137;stroke-width:6.90508652;stroke-miterlimit:4;stroke-dasharray:none"
   d="m 427.785,637.602 c 0,17.056 -13.814,30.882 -30.855,30.882 -17.041,0 -30.854,-13.826 -30.854,-30.882 0,-17.056 13.813,-30.882 30.854,-30.882 17.041,0 30.855,13.826 30.855,30.882 l 0,0 z" />

			<path
   id="path3161"
   style="fill:#ffffff;stroke:#010101;stroke-width:6.42037106;stroke-linecap:round;stroke-linejoin:round;stroke-miterlimit:4;stroke-dasharray:none"
   d="m 413.755,652.665 c -12.061,12.061 -31.605,12.069 -43.655,0.02 -12.05,-12.049 -12.041,-31.594 0.02,-43.654 12.061,-12.06 31.605,-12.069 43.654,-0.02 12.05,12.049 12.041,31.594 -0.019,43.654 l 0,0 z" />

		</g>

		<path
   id="path3246"
   style="fill:#010101;fill-opacity:0.3137;stroke-width:6.90508652;stroke-miterlimit:4;stroke-dasharray:none"
   d="m 406.963,408.827 c 1.531,6.336 2.35,12.976 2.35,19.782 0,46.471 -37.708,100.298 -84.137,100.298 -33.841,0 -62.994,-28.611 -76.332,-62.119 10.329,38.687 42.515,74.972 80.613,74.972 46.429,0 84.137,-53.869 84.137,-100.34 0,-11.564 -2.36,-22.563 -6.589,-32.593 l -0.042,0 0,0 z" />

		<g
   style="stroke-width:6.90508652;stroke-miterlimit:4;stroke-dasharray:none"
   id="g276">
			<path
   id="path3264"
   style="fill:#f9d5e4;stroke:#010101;stroke-width:6.42037106;stroke-linecap:round;stroke-linejoin:round;stroke-miterlimit:4;stroke-dasharray:none"
   d="m 289.795,638.242 c 5.783,3.342 8.095,10.171 5.164,15.251 -2.931,5.082 -9.995,6.492 -15.778,3.15 -5.783,-3.342 -8.095,-10.17 -5.164,-15.252 2.931,-5.08 9.995,-6.49 15.778,-3.149 l 0,0 z" />

			<path
   id="path3266"
   style="fill:#f9d5e4;stroke:#010101;stroke-width:6.42037106;stroke-linecap:round;stroke-linejoin:round;stroke-miterlimit:4;stroke-dasharray:none"
   d="m 303.108,615.163 c 5.783,3.342 8.095,10.17 5.164,15.252 -2.931,5.081 -9.995,6.491 -15.778,3.149 -5.783,-3.342 -8.095,-10.17 -5.164,-15.251 2.931,-5.081 9.995,-6.492 15.778,-3.15 l 0,0 z" />

			<path
   id="path3268"
   style="fill:#f9d5e4;stroke:#010101;stroke-width:6.42037106;stroke-linecap:round;stroke-linejoin:round;stroke-miterlimit:4;stroke-dasharray:none"
   d="m 302.161,629.974 c 5.783,3.342 8.095,10.171 5.164,15.252 -2.931,5.082 -9.995,6.492 -15.778,3.15 -5.783,-3.342 -8.095,-10.17 -5.164,-15.252 2.931,-5.081 9.995,-6.492 15.778,-3.15 l 0,0 z" />

		</g>

		<g
   style="stroke-width:6.90508652;stroke-miterlimit:4;stroke-dasharray:none"
   id="g281">
			<path
   id="path3270"
   style="fill:#f9d5e4;stroke:#010101;stroke-width:6.42037106;stroke-linecap:round;stroke-linejoin:round;stroke-miterlimit:4;stroke-dasharray:none"
   d="m 377.468,636.306 c -6.451,1.73 -10.452,7.729 -8.936,13.395 1.516,5.668 7.975,8.857 14.426,7.127 6.45,-1.731 10.451,-7.729 8.935,-13.396 -1.516,-5.667 -7.975,-8.857 -14.425,-7.126 l 0,0 z" />

			<path
   id="path3272"
   style="fill:#f9d5e4;stroke:#010101;stroke-width:6.42037106;stroke-linecap:round;stroke-linejoin:round;stroke-miterlimit:4;stroke-dasharray:none"
   d="m 370.581,610.568 c -6.45,1.731 -10.451,7.729 -8.935,13.396 1.516,5.667 7.975,8.856 14.426,7.126 6.45,-1.73 10.451,-7.729 8.935,-13.395 -1.517,-5.669 -7.975,-8.858 -14.426,-7.127 l 0,0 z" />

			<path
   id="path3274"
   style="fill:#f9d5e4;stroke:#010101;stroke-width:6.42037106;stroke-linecap:round;stroke-linejoin:round;stroke-miterlimit:4;stroke-dasharray:none"
   d="m 367.662,625.118 c -6.45,1.731 -10.45,7.729 -8.935,13.396 1.515,5.667 7.975,8.857 14.425,7.126 6.451,-1.73 10.451,-7.729 8.936,-13.395 -1.516,-5.667 -7.975,-8.857 -14.426,-7.127 l 0,0 z" />

		</g>

		<path
   id="path3293_1_"
   style="fill:#010101;fill-opacity:0.3137;stroke-width:6.90508652;stroke-miterlimit:4;stroke-dasharray:none"
   d="m 438.199,465.776 c 1.463,5.817 4.188,10.022 6.996,17.984 17.208,48.767 -52.149,92.084 -116.406,92.084 -48.192,0 -89.566,-23.19 -107.246,-56.237 10.67,42.142 57.794,73.806 114.126,70.95 80.731,-4.092 122.877,-43.759 116.406,-89.084 -1.785,-12.519 -4.143,-24.342 -13.876,-35.697 z" />

	</g>
    <g
       style="stroke-width:6.90508652;stroke-miterlimit:4;stroke-dasharray:none"
       transform="matrix(0.04315791,0,0,0.04373648,-18.6356,70.379871)"
       id="g289">
			<g
   style="stroke-width:6.90508652;stroke-miterlimit:4;stroke-dasharray:none"
   id="g291">
				<path
   d="M 371.332,2 C 252.666,37.347 231.329,104.324 231.239,147.699 218.504,139.637 203.652,135 187.786,135 171.92,135 157.068,139.637 144.332,147.7 144.243,104.325 122.905,37.347 4.239,2 c 0,0 -1.68,171.944 105.814,186.375 -4.355,10.139 -7.048,21.268 -7.668,32.994 -23.628,14.965 -38.35,36.072 -38.35,59.465 0,45.379 55.404,82.166 123.75,82.166 68.345,0 123.749,-36.787 123.749,-82.166 0,-23.393 -14.721,-44.5 -38.35,-59.465 -0.619,-11.727 -3.312,-22.855 -7.667,-32.994 C 373.013,173.943 371.332,2 371.332,2 z"
   style="fill:#ffffff;stroke:#010101;stroke-width:6.42037106;stroke-linecap:round;stroke-linejoin:round;stroke-miterlimit:4;stroke-dasharray:none"
   id="path293" />

				<path
   d="m 294.803,237.978 c 1.539,5.817 4.404,10.022 7.359,17.984 18.101,48.767 -54.856,92.084 -122.448,92.084 -50.693,0 -94.215,-23.19 -112.813,-56.237 11.225,42.142 60.795,73.806 120.051,70.95 84.922,-4.092 129.255,-43.759 122.448,-89.085 -1.879,-12.518 -4.36,-24.341 -14.597,-35.696 z"
   style="fill:#010101;fill-opacity:0.3137;stroke-width:6.90508652;stroke-miterlimit:4;stroke-dasharray:none"
   id="path3293" />

			</g>

			<g
   style="stroke-width:6.90508652;stroke-miterlimit:4;stroke-dasharray:none"
   id="g296">
				<path
   d="m 125.592,166.274 c 0,0 19.157,-104.021 -104.334,-140.805 0,0 13.686,150.002 104.334,140.805 z"
   style="fill:#f9d5e4;stroke:#010101;stroke-width:6.42037106;stroke-linecap:round;stroke-linejoin:round;stroke-miterlimit:4;stroke-dasharray:none"
   id="path298" />

				<path
   d="m 249.979,166.274 c 0,0 -19.155,-104.021 104.336,-140.805 -10e-4,0 -13.688,150.002 -104.336,140.805 z"
   style="fill:#f9d5e4;stroke:#010101;stroke-width:6.42037106;stroke-linecap:round;stroke-linejoin:round;stroke-miterlimit:4;stroke-dasharray:none"
   id="path300" />

			</g>

		</g>
    <path
       id="path3192_1_"
       style="fill:#f9d5e4;stroke:#010101;stroke-width:0.27894089;stroke-miterlimit:4;stroke-dasharray:none"
       d="m -11.241355,83.153066 c 0.232146,-0.251222 1.217873,-0.305761 1.4240381,0.0314 0.206079,0.337121 -0.3096151,1.036205 -0.7120621,1.004846 -0.401239,-0.03136 -0.92919,-0.801253 -0.711976,-1.036249 z" />
    <g
       style="stroke-width:6.90508652;stroke-miterlimit:4;stroke-dasharray:none"
       transform="matrix(0.04315791,0,0,0.04373648,-18.6356,70.379871)"
       id="g305">
				<g
   style="stroke-width:6.90508652;stroke-miterlimit:4;stroke-dasharray:none"
   id="g307">
					<path
   id="path3177_1_"
   style="fill:#ffffff;stroke:#010101;stroke-width:6.42037106;stroke-linecap:round;stroke-linejoin:round;stroke-miterlimit:4;stroke-dasharray:none"
   d="m 184.827,222.847 c 0,15.187 -12.3,27.498 -27.474,27.498 -15.173,0 -27.474,-12.312 -27.474,-27.498 0,-15.186 12.301,-27.498 27.474,-27.498 15.174,0 27.474,12.311 27.474,27.498 z" />

					<path
   id="path3181_1_"
   style="fill:#010101;stroke-width:6.90508652;stroke-miterlimit:4;stroke-dasharray:none"
   d="m 176.352,226.231 c 0,4.907 -3.974,8.884 -8.876,8.884 -4.902,0 -8.876,-3.977 -8.876,-8.884 0,-4.906 3.974,-8.884 8.876,-8.884 4.902,0 8.876,3.978 8.876,8.884 l 0,0 z" />

				</g>

				<g
   style="stroke-width:6.90508652;stroke-miterlimit:4;stroke-dasharray:none"
   id="g311">
					<path
   id="path3179_1_"
   style="fill:#ffffff;stroke:#010101;stroke-width:6.42037106;stroke-linecap:round;stroke-linejoin:round;stroke-miterlimit:4;stroke-dasharray:none"
   d="m 245.691,222.847 c 0,15.187 -12.3,27.498 -27.473,27.498 -15.173,0 -27.474,-12.312 -27.474,-27.498 0,-15.186 12.301,-27.498 27.474,-27.498 15.173,0 27.473,12.311 27.473,27.498 z" />

					<path
   id="path3183_1_"
   style="fill:#010101;stroke-width:6.90508652;stroke-miterlimit:4;stroke-dasharray:none"
   d="m 216.953,226.231 c 0,4.907 -3.975,8.884 -8.876,8.884 -4.902,0 -8.877,-3.977 -8.877,-8.884 0,-4.906 3.975,-8.884 8.877,-8.884 4.902,0.001 8.876,3.978 8.876,8.884 l 0,0 z" />

				</g>

			</g>
    <g
       style="stroke-width:6.90508652;stroke-miterlimit:4;stroke-dasharray:none"
       transform="matrix(0.04315791,0,0,0.04373648,-18.6356,70.379871)"
       id="g315">
				<path
   id="path317"
   style="fill:#ffffff;stroke:#010101;stroke-width:6.42037106;stroke-linejoin:round;stroke-miterlimit:4;stroke-dasharray:none"
   d="m 210.612,332.03 c -4.937,2.11 -14.624,-1.414 -21.206,-3.48 -0.465,-0.146 -0.84,-0.141 -1.152,-0.033 -0.311,-0.613 -0.836,-0.831 -1.642,-0.486 -4.937,2.11 -14.624,6.586 -21.206,4.52 -6.156,-1.934 1.763,16.08 3.968,17.585 2.049,1.4 11.457,1.382 13.432,-0.33 1.265,-1.097 3.747,-7.766 5.017,-13.467 1.366,5.858 4.332,12.965 5.552,13.797 2.049,1.4 11.457,1.382 13.432,-0.33 2.151,-1.867 8.874,-19.944 3.805,-17.776 z" />

				<g
   style="stroke-width:6.90508652;stroke-miterlimit:4;stroke-dasharray:none"
   id="g3178"
   transform="translate(-2.52185,-5.03617)">
					<path
   id="path2400"
   style="fill:none;stroke:#010101;stroke-width:6.42037106;stroke-linecap:round;stroke-linejoin:round;stroke-miterlimit:4;stroke-dasharray:none"
   d="m 250.136,286.4 c 5.771,21.498 -7.014,43.595 -28.559,49.355 -10.346,2.767 -21.369,1.318 -30.644,-4.026" />

					<path
   id="path3176"
   style="fill:none;stroke:#010101;stroke-width:6.42037106;stroke-linecap:round;stroke-linejoin:round;stroke-miterlimit:4;stroke-dasharray:none"
   d="m 130.481,286.4 c -5.773,21.498 7.012,43.595 28.556,49.355 10.347,2.767 21.369,1.318 30.646,-4.026" />

				</g>

			</g>
    <g
       style="stroke-width:6.90508652;stroke-miterlimit:4;stroke-dasharray:none"
       transform="matrix(0.04315791,0,0,0.04373648,-18.6356,70.379871)"
       id="g322">
				<g
   style="stroke-width:6.90508652;stroke-miterlimit:4;stroke-dasharray:none"
   id="g3188"
   transform="translate(0,-10.7019)">
					<path
   id="path3182"
   style="fill:none;stroke:#010101;stroke-width:6.42037106;stroke-linecap:round;stroke-miterlimit:4;stroke-dasharray:none"
   d="m 243.21,304.28 c 62.572,-18.329 93.15,4.298 93.15,4.298" />

					<path
   id="path3184"
   style="fill:none;stroke:#010101;stroke-width:6.42037106;stroke-linecap:round;stroke-miterlimit:4;stroke-dasharray:none"
   d="m 234.234,316.572 c 44.31,-9.886 73.328,15.327 73.328,15.327" />

					<path
   id="path3186"
   style="fill:none;stroke:#010101;stroke-width:6.42037106;stroke-linecap:round;stroke-miterlimit:4;stroke-dasharray:none"
   d="m 230.552,329.719 c 34.087,-2.844 47.141,21.108 47.141,21.108" />

				</g>

				<g
   style="stroke-width:6.90508652;stroke-miterlimit:4;stroke-dasharray:none"
   id="g3193"
   transform="matrix(-1,0,0,1,651.555,-10.7019)">
					<path
   id="path3195"
   style="fill:none;stroke:#010101;stroke-width:6.42037106;stroke-linecap:round;stroke-miterlimit:4;stroke-dasharray:none"
   d="m 519.193,304.28 c 62.572,-18.329 93.15,4.298 93.15,4.298" />

					<path
   id="path3197"
   style="fill:none;stroke:#010101;stroke-width:6.42037106;stroke-linecap:round;stroke-miterlimit:4;stroke-dasharray:none"
   d="m 510.218,316.572 c 44.308,-9.886 73.326,15.327 73.326,15.327" />

					<path
   id="path3199"
   style="fill:none;stroke:#010101;stroke-width:6.42037106;stroke-linecap:round;stroke-miterlimit:4;stroke-dasharray:none"
   d="m 506.533,329.719 c 34.09,-2.844 47.144,21.108 47.144,21.108" />

				</g>

			</g>
  </g>
</svg>
