<?xml version="1.0" encoding="UTF-8" standalone="no"?>
<!-- Created with Inkscape (http://www.inkscape.org/) -->

<svg
   xmlns:dc="http://purl.org/dc/elements/1.1/"
   xmlns:cc="http://creativecommons.org/ns#"
   xmlns:rdf="http://www.w3.org/1999/02/22-rdf-syntax-ns#"
   xmlns:svg="http://www.w3.org/2000/svg"
   xmlns="http://www.w3.org/2000/svg"
   xmlns:sodipodi="http://sodipodi.sourceforge.net/DTD/sodipodi-0.dtd"
   xmlns:inkscape="http://www.inkscape.org/namespaces/inkscape"
   version="1.0"
   width="197.98587"
   height="34.258617"
   id="svg2"
   sodipodi:version="0.32"
   inkscape:version="0.48.1 r9760"
   sodipodi:docname="logo-puste.svg"
   inkscape:output_extension="org.inkscape.output.svg.inkscape"
   inkscape:export-filename="/mnt/nfs/geokrety/templates/logo-jesien.png"
   inkscape:export-xdpi="131.54472"
   inkscape:export-ydpi="131.54472">
  <metadata
     id="metadata32">
    <rdf:RDF>
      <cc:Work
         rdf:about="">
        <dc:format>image/svg+xml</dc:format>
        <dc:type
           rdf:resource="http://purl.org/dc/dcmitype/StillImage" />
        <dc:title></dc:title>
      </cc:Work>
    </rdf:RDF>
  </metadata>
  <sodipodi:namedview
     inkscape:window-height="743"
     inkscape:window-width="1280"
     inkscape:pageshadow="2"
     inkscape:pageopacity="0.0"
     guidetolerance="10.0"
     gridtolerance="10.0"
     objecttolerance="10.0"
     borderopacity="1.0"
     bordercolor="#666666"
     pagecolor="#ffffff"
     id="base"
     showgrid="false"
     inkscape:zoom="2.9143494"
     inkscape:cx="136.09716"
     inkscape:cy="17.319697"
     inkscape:window-x="-4"
     inkscape:window-y="-4"
     inkscape:current-layer="svg2"
     inkscape:window-maximized="1" />
  <defs
     id="defs4">
    <inkscape:perspective
       sodipodi:type="inkscape:persp3d"
       inkscape:vp_x="0 : 17.129309 : 1"
       inkscape:vp_y="0 : 1000 : 0"
       inkscape:vp_z="197.98587 : 17.129309 : 1"
       inkscape:persp3d-origin="98.992935 : 11.419539 : 1"
       id="perspective34" />
    <inkscape:perspective
       id="perspective2736"
       inkscape:persp3d-origin="372.04724 : 350.78739 : 1"
       inkscape:vp_z="744.09448 : 526.18109 : 1"
       inkscape:vp_y="0 : 1000 : 0"
       inkscape:vp_x="0 : 526.18109 : 1"
       sodipodi:type="inkscape:persp3d" />
    <inkscape:perspective
       id="perspective3687"
       inkscape:persp3d-origin="372.04724 : 350.78739 : 1"
       inkscape:vp_z="744.09448 : 526.18109 : 1"
       inkscape:vp_y="0 : 1000 : 0"
       inkscape:vp_x="0 : 526.18109 : 1"
       sodipodi:type="inkscape:persp3d" />
  </defs>
  <rect
     style="fill:#000000;fill-opacity:1;fill-rule:nonzero;stroke:none"
     id="rect3251"
     y="5.0051541"
     x="93.127518"
     height="26.478128"
     width="61.299881"
     inkscape:export-filename="/home/filips/svn/geokrety/templates/logo/geokretynews.png"
     inkscape:export-xdpi="222.14017"
     inkscape:export-ydpi="222.14017" />
  <path
     inkscape:connector-curvature="0"
     style="font-size:22.94870567px;font-style:normal;font-weight:normal;fill:#000000;fill-opacity:1;stroke:none;font-family:Bitstream Vera Sans"
     d="m 59.853487,23.059421 0,-4.566773 -3.65464,0 0,-1.890484 5.869574,0 0,7.300003 c -0.863838,0.630162 -1.816259,1.10658 -2.857264,1.429252 -1.041031,0.322672 -2.152188,0.484009 -3.333475,0.48401 -2.584097,-1e-6 -4.605221,-0.776314 -6.063381,-2.328941 -1.458167,-1.552623 -2.187248,-3.71453 -2.187247,-6.485728 -1e-6,-2.778772 0.72908,-4.944476 2.187247,-6.497117 1.45816,-1.55261 3.479284,-2.328922 6.063381,-2.328939 1.077923,1.7e-5 2.10233,0.136678 3.07322,0.409984 0.970866,0.27334 1.866068,0.675732 2.685607,1.207177 l 0,2.448519 c -0.826922,-0.721255 -1.705512,-1.264105 -2.635771,-1.62855 -0.930284,-0.364415 -1.908545,-0.54663 -2.934787,-0.546647 -2.02298,1.7e-5 -3.542054,0.580827 -4.557226,1.742435 -1.015182,1.161635 -1.522771,2.89268 -1.522767,5.193138 -4e-6,2.292883 0.507585,4.020131 1.522767,5.181749 1.015172,1.161625 2.534246,1.742436 4.557226,1.742435 0.789982,1e-6 1.495069,-0.07023 2.115262,-0.210687 0.620169,-0.140455 1.177594,-0.358735 1.672274,-0.654836 l 0,0 z m 16.833497,-4.475665 0,1.024961 -9.36917,0 c 0.08859,1.442544 0.511277,2.541529 1.26805,3.29696 0.756763,0.755436 1.810702,1.133153 3.161818,1.133152 0.782601,1e-6 1.541215,-0.0987 2.275844,-0.296101 0.734609,-0.197397 1.46369,-0.493497 2.187247,-0.888299 l 0,1.981591 c -0.73094,0.318878 -1.480324,0.561832 -2.248157,0.728862 -0.767854,0.167031 -1.546771,0.250546 -2.336755,0.250547 -1.97868,-1e-6 -3.545744,-0.5922 -4.701197,-1.7766 -1.155459,-1.184398 -1.733187,-2.786373 -1.733186,-4.80593 -10e-7,-2.087876 0.548194,-3.744896 1.644588,-4.971064 1.096388,-1.226145 2.574855,-1.839223 4.435405,-1.839236 1.668574,1.3e-5 2.988304,0.552352 3.959194,1.657021 0.970867,1.104691 1.456306,2.606068 1.456319,4.504136 l 0,0 z M 74.649245,17.96878 c -0.01478,-1.146431 -0.326714,-2.061303 -0.93581,-2.744619 -0.609116,-0.683298 -1.41572,-1.02495 -2.419814,-1.024962 -1.137006,1.2e-5 -2.046974,0.330276 -2.729907,0.990796 -0.682941,0.66054 -1.076092,1.590597 -1.179452,2.790172 l 7.264983,-0.01139 z M 84.83794,14.199199 c -1.092707,1.2e-5 -1.95653,0.438466 -2.591473,1.315367 -0.634951,0.876921 -0.952424,2.078402 -0.952421,3.604448 -3e-6,1.526059 0.315625,2.72754 0.946884,3.604447 0.631251,0.876913 1.49692,1.315369 2.59701,1.315368 1.08531,1e-6 1.945441,-0.440352 2.580397,-1.321062 0.634938,-0.880704 0.952412,-2.080287 0.952422,-3.598753 -1e-5,-1.510861 -0.317484,-2.708547 -0.952422,-3.59306 -0.634956,-0.884492 -1.495087,-1.326743 -2.580397,-1.326755 l 0,0 z m 0,-1.7766 c 1.771938,1.3e-5 3.163653,0.592212 4.17515,1.7766 1.011475,1.18441 1.517217,2.824346 1.517229,4.919815 -1.2e-5,2.087888 -0.505754,3.725927 -1.517229,4.91412 -1.011497,1.188197 -2.403212,1.782294 -4.17515,1.782295 -1.779335,-1e-6 -3.172896,-0.594098 -4.180688,-1.782295 -1.007796,-1.188193 -1.511693,-2.826232 -1.511692,-4.91412 -10e-7,-2.095469 0.503896,-3.735405 1.511692,-4.919815 1.007792,-1.184388 2.401353,-1.776587 4.180688,-1.7766 l 0,0 z"
     id="text2383"
     inkscape:export-filename="/home/filips/svn/geokrety/templates/logo/geokretynews.png"
     inkscape:export-xdpi="222.14017"
     inkscape:export-ydpi="222.14017" />
  <path
     inkscape:connector-curvature="0"
     style="font-size:40px;font-style:normal;font-weight:normal;fill:#ffffff;fill-opacity:1;stroke:none;font-family:Bitstream Vera Sans"
     d="m 95.622637,7.685394 2.077637,0 0,10.3208 6.165526,-5.42431 2.63916,0 -6.670897,5.88476 6.951657,6.69336 -2.69531,0 -6.390136,-6.14307 0,6.14307 -2.077637,0 0,-17.47461 z m 20.708983,6.82813 c -0.2321,-0.13476 -0.48479,-0.23396 -0.75805,-0.29761 -0.27329,-0.06363 -0.57464,-0.09545 -0.90406,-0.09546 -1.16797,10e-6 -2.06454,0.37998 -2.68969,1.13989 -0.62517,0.75994 -0.93775,1.85117 -0.93775,3.27368 l 0,6.62598 -2.07764,0 0,-12.57812 2.07764,0 0,1.9541 c 0.43424,-0.76366 0.99951,-1.3308 1.6958,-1.70142 0.69628,-0.37059 1.54231,-0.55589 2.53809,-0.55591 0.14224,2e-5 0.29947,0.0094 0.47168,0.02808 0.17219,0.01873 0.36311,0.04681 0.57275,0.08423 l 0.0112,2.12256 z m 12.94873,3.84082 0,1.01074 -9.50097,0 c 0.0898,1.42253 0.51846,2.50627 1.28588,3.25122 0.76741,0.74496 1.83618,1.11743 3.2063,1.11743 0.79361,0 1.5629,-0.09733 2.30786,-0.29199 0.74495,-0.19466 1.48429,-0.48665 2.21802,-0.87598 l 0,1.9541 c -0.74122,0.31446 -1.50115,0.55404 -2.27978,0.71875 -0.77866,0.16472 -1.56853,0.24707 -2.36963,0.24707 -2.00652,0 -3.59563,-0.58398 -4.76734,-1.75195 -1.17171,-1.16796 -1.75757,-2.74772 -1.75757,-4.73926 0,-2.05891 0.55591,-3.69294 1.66773,-4.9021 1.11181,-1.20913 2.61108,-1.8137 4.4978,-1.81372 1.69205,2e-5 3.03035,0.54469 4.0149,1.63404 0.98452,1.08936 1.47678,2.56991 1.4768,4.44165 l 0,0 z m -2.0664,-0.60645 c -0.015,-1.13052 -0.33131,-2.0327 -0.94898,-2.70654 -0.61768,-0.67382 -1.43564,-1.01073 -2.45386,-1.01074 -1.153,10e-6 -2.07577,0.32569 -2.76831,0.97705 -0.69255,0.65137 -1.09123,1.56853 -1.19604,2.75146 l 7.36719,-0.01123 z m 7.50194,-8.7373 0,3.57129 4.25635,0 0,1.60595 -4.25635,0 0,6.82813 c 0,1.02572 0.14038,1.68457 0.42115,1.97656 0.28075,0.29199 0.85163,0.43799 1.71264,0.43799 l 2.12256,0 0,1.72949 -2.12256,0 c -1.59473,0 -2.69531,-0.29761 -3.30176,-0.89282 -0.60644,-0.59521 -0.90967,-1.67895 -0.90966,-3.25122 l 0,-6.82813 -1.51612,0 0,-1.60595 1.51612,0 0,-3.57129 2.07763,0 z m 12.21875,17.31738 c -0.58399,1.49739 -1.153,2.47444 -1.70703,2.93115 -0.55404,0.4567 -1.29525,0.68506 -2.22363,0.68506 l -1.65088,0 0,-1.72949 1.21289,0 c 0.56901,0 1.01074,-0.13477 1.3252,-0.4043 0.31444,-0.26953 0.66259,-0.90592 1.04443,-1.90918 l 0.37061,-0.94336 -5.08741,-12.37597 2.18994,0 3.93067,9.83789 3.93066,-9.83789 2.18994,0 -5.52538,13.74609 z"
     id="text2479"
     inkscape:export-filename="/home/filips/svn/geokrety/templates/logo/geokretynews.png"
     inkscape:export-xdpi="222.14017"
     inkscape:export-ydpi="222.14017" />
  <polygon
     id="polygon3440"
     points="99.9553,101.792 100.167,101.792 99.9553,101.792 "
     class="fil59"
     style="fill:#ffffff;fill-rule:nonzero"
     transform="matrix(1.8094894,0,0,1.8094894,-1018.7853,-73.3414)" />
  <polygon
     id="polygon3450"
     points="149.309,106.555 149.485,106.555 149.309,106.555 "
     class="fil59"
     style="fill:#ffffff;fill-rule:nonzero"
     transform="matrix(1.8094894,0,0,1.8094894,-1018.7853,-73.3414)" />
  <polygon
     id="polygon3456"
     points="116.395,107.26 116.606,107.26 116.395,107.26 "
     class="fil58"
     style="fill:#000000;fill-rule:nonzero"
     transform="matrix(1.8094894,0,0,1.8094894,-1018.7853,-73.3414)" />
  <polygon
     id="polygon3466"
     points="143.276,110.647 143.382,110.647 143.276,110.647 "
     class="fil59"
     style="fill:#ffffff;fill-rule:nonzero"
     transform="matrix(1.8094894,0,0,1.8094894,-1018.7853,-73.3414)" />
  <polygon
     id="polygon3472"
     points="142.077,111.317 142.289,111.317 142.077,111.317 "
     class="fil59"
     style="fill:#ffffff;fill-rule:nonzero"
     transform="matrix(1.8094894,0,0,1.8094894,-1018.7853,-73.3414)" />
  <polygon
     id="polygon3504"
     points="85.2445,126.981 85.3503,126.981 85.2445,126.981 "
     class="fil59"
     style="fill:#ffffff;fill-rule:nonzero"
     transform="matrix(1.8094894,0,0,1.8094894,-1018.7853,-73.3414)" />
  <polygon
     id="polygon3520"
     points="149.944,135.871 150.12,135.871 149.944,135.871 "
     class="fil59"
     style="fill:#ffffff;fill-rule:nonzero"
     transform="matrix(1.8094894,0,0,1.8094894,-1018.7853,-73.3414)" />
  <polygon
     id="polygon3532"
     points="82.2459,140.951 82.4575,140.951 82.2459,140.951 "
     class="fil59"
     style="fill:#ffffff;fill-rule:nonzero"
     transform="matrix(1.8094894,0,0,1.8094894,-1018.7853,-73.3414)" />
  <polygon
     id="polygon3536"
     points="109.339,141.797 109.586,141.797 109.339,141.797 "
     class="fil59"
     style="fill:#ffffff;fill-rule:nonzero"
     transform="matrix(1.8094894,0,0,1.8094894,-1018.7853,-73.3414)" />
  <polygon
     id="polygon3560"
     points="131.07,148.218 131.247,148.218 131.07,148.218 "
     class="fil59"
     style="fill:#ffffff;fill-rule:nonzero"
     transform="matrix(1.8094894,0,0,1.8094894,-1018.7853,-73.3414)" />
  <polygon
     id="polygon3572"
     points="113.079,153.298 113.255,153.298 113.079,153.298 "
     class="fil59"
     style="fill:#ffffff;fill-rule:nonzero"
     transform="matrix(1.8094894,0,0,1.8094894,-1018.7853,-73.3414)" />
  <polygon
     id="polygon3576"
     points="145.605,153.721 145.781,153.721 145.605,153.721 "
     class="fil59"
     style="fill:#ffffff;fill-rule:nonzero"
     transform="matrix(1.8094894,0,0,1.8094894,-1018.7853,-73.3414)" />
  <polygon
     id="polygon3586"
     points="106.164,157.708 106.305,157.708 106.164,157.708 "
     class="fil59"
     style="fill:#ffffff;fill-rule:nonzero"
     transform="matrix(1.8094894,0,0,1.8094894,-1018.7853,-73.3414)" />
  <polygon
     id="polygon3618"
     points="129.589,173.477 129.765,173.477 129.589,173.477 "
     class="fil59"
     style="fill:#ffffff;fill-rule:nonzero"
     transform="matrix(1.8094894,0,0,1.8094894,-1018.7853,-73.3414)" />
  <polygon
     id="polygon3630"
     points="100.59,177.569 100.943,177.569 100.59,177.569 "
     class="fil58"
     style="fill:#000000;fill-rule:nonzero"
     transform="matrix(1.8094894,0,0,1.8094894,-1018.7853,-73.3414)" />
  <polygon
     id="polygon3686"
     points="109.692,201.205 110.327,201.205 109.692,201.205 "
     class="fil59"
     style="fill:#ffffff;fill-rule:nonzero"
     transform="matrix(1.8094894,0,0,1.8094894,-1018.7853,-73.3414)" />
  <polygon
     id="polygon3690"
     points="89.5837,203.004 89.7601,203.004 89.5837,203.004 "
     class="fil58"
     style="fill:#000000;fill-rule:nonzero"
     transform="matrix(1.8094894,0,0,1.8094894,-1018.7853,-73.3414)" />
  <polygon
     id="polygon3694"
     points="109.621,203.251 109.974,203.251 109.621,203.251 "
     class="fil59"
     style="fill:#ffffff;fill-rule:nonzero"
     transform="matrix(1.8094894,0,0,1.8094894,-1018.7853,-73.3414)" />
  <polygon
     id="polygon3696"
     points="106.023,203.322 106.199,203.322 106.023,203.322 "
     class="fil59"
     style="fill:#ffffff;fill-rule:nonzero"
     transform="matrix(1.8094894,0,0,1.8094894,-1018.7853,-73.3414)" />
  <g
     id="g15767"
     transform="matrix(0.2230704,0,0,0.2322423,46.969368,6.5451007)"
     inkscape:export-filename="/home/filips/svn/geokrety/templates/logo/geokretynews.png"
     inkscape:export-xdpi="222.14017"
     inkscape:export-ydpi="222.14017">
    <polygon
       transform="matrix(1.8020893,-0.1634812,0.1634812,1.8020893,-298.8125,-111.4466)"
       style="fill:#ffffff;fill-rule:nonzero;stroke-linecap:round;stroke-linejoin:round"
       class="fil59"
       points="151.143,106.696 151.073,106.766 151.143,106.696 "
       id="polygon2819" />
    <polygon
       transform="matrix(1.8020893,-0.1634812,0.1634812,1.8020893,-298.8125,-111.4466)"
       style="fill:#ffffff;fill-rule:nonzero;stroke-linecap:round;stroke-linejoin:round"
       class="fil59"
       points="151.955,106.908 152.06,107.049 151.955,106.908 "
       id="polygon2821" />
    <polygon
       transform="matrix(1.8020893,-0.1634812,0.1634812,1.8020893,-298.8125,-111.4466)"
       style="fill:#ffffff;fill-rule:nonzero;stroke-linecap:round;stroke-linejoin:round"
       class="fil59"
       points="147.686,117.844 147.545,117.914 147.686,117.844 "
       id="polygon2823" />
    <path
       sodipodi:nodetypes="cssz"
       id="path2825"
       d="M -79.4383,41.734855 C -65.271766,52.257641 -16.998351,82.84439 -12.71995,90.448659 C -9.5091385,96.155432 -16.61309,106.92599 -22.070991,104.8329 C -33.802516,100.3339 -28.538218,94.655651 -77.931107,57.340667"
       style="fill:#e9c642;fill-opacity:1;fill-rule:evenodd;stroke:#000000;stroke-width:2.81500006;stroke-linecap:round;stroke-linejoin:round;stroke-miterlimit:4;stroke-dasharray:none;stroke-opacity:1" />
    <path
       sodipodi:nodetypes="cscszczzzzzzzzzczzzzzz"
       id="path2827"
       d="M -77.634427,85.689881 C -75.225706,84.463375 -64.695395,82.57159 -62.481237,79.707255 C -60.267605,76.843599 -61.807466,73.375307 -60.79779,70.964798 C -58.209285,72.843818 -53.791405,73.876445 -52.294355,73.229633 C -50.890766,72.623202 -47.728803,67.416718 -47.7032,65.370919 C -47.677598,63.325109 -49.812074,61.762336 -51.155325,61.005459 C -45.63657,57.552829 -42.13148,57.593275 -38.197571,58.496393 C -34.263663,59.399511 -35.395899,61.668673 -33.204398,63.009063 C -31.066471,64.316685 -29.349056,63.6435 -27.967583,64.912317 C -26.58611,66.181134 -26.376623,68.33181 -24.867266,69.991223 C -23.321076,71.691132 -22.168224,70.902181 -20.464508,73.015609 C -18.76079,75.129037 -19.311871,76.317782 -18.19896,78.664803 C -17.086048,81.011834 -14.188166,79.89819 -17.298876,85.688362 C -20.315615,91.303608 -23.935212,94.282349 -26.428452,96.164522 C -28.983967,98.093714 -34.845869,99.808118 -36.140775,98.629599 C -37.685268,97.22392 -37.019997,97.339096 -36.568551,95.966144 C -37.818335,96.475521 -38.477557,97.077602 -40.853661,97.473152 C -43.229764,97.868703 -43.758725,97.196695 -44.735518,95.953309 C -45.71231,94.709924 -43.524003,91.847422 -44.76083,92.499622 C -45.997657,93.151822 -45.865152,96.199786 -49.682827,98.562111 C -53.500503,100.92443 -59.467208,103.68872 -64.255122,104.48306 C -69.043036,105.2774 -72.074006,102.14138 -74.274745,102.08902"
       style="fill:#d4af8b;fill-opacity:1;fill-rule:evenodd;stroke:#000000;stroke-width:2.81500006;stroke-linecap:round;stroke-linejoin:round;stroke-miterlimit:4;stroke-dasharray:none;stroke-opacity:1" />
    <path
       sodipodi:nodetypes="cszz"
       id="path2829"
       d="M -57.646164,81.235683 C -51.145445,87.429425 -40.925237,96.551992 -32.688478,95.653113 C -28.855314,95.235682 -35.753515,81.651567 -41.195349,76.364767 C -46.637184,71.077967 -53.960729,74.144265 -55.960082,75.381439"
       style="fill:none;fill-opacity:0.75;fill-rule:evenodd;stroke:#000000;stroke-width:2.81500006;stroke-linecap:round;stroke-linejoin:round;stroke-miterlimit:4;stroke-dasharray:none;stroke-opacity:1" />
    <path
       sodipodi:nodetypes="cz"
       id="path2831"
       d="M -40.681261,76.212549 C -39.260325,75.73036 -36.451694,72.486614 -35.891209,67.331664"
       style="fill:none;fill-opacity:0.75;fill-rule:evenodd;stroke:#000000;stroke-width:2.81500006;stroke-linecap:round;stroke-linejoin:round;stroke-miterlimit:4;stroke-dasharray:none;stroke-opacity:1" />
    <path
       sodipodi:nodetypes="cz"
       id="path2833"
       d="M -34.331917,85.085243 C -31.532034,81.931105 -28.354551,77.880543 -27.766313,74.270568"
       style="fill:none;fill-opacity:0.75;fill-rule:evenodd;stroke:#000000;stroke-width:2.81500006;stroke-linecap:round;stroke-linejoin:round;stroke-miterlimit:4;stroke-dasharray:none;stroke-opacity:1" />
    <path
       sodipodi:nodetypes="cz"
       id="path2835"
       d="M -31.269709,93.835147 C -26.578812,90.56099 -23.347373,86.645088 -21.855797,82.489985"
       style="fill:none;fill-opacity:0.75;fill-rule:evenodd;stroke:#000000;stroke-width:2.81500006;stroke-linecap:round;stroke-linejoin:round;stroke-miterlimit:4;stroke-dasharray:none;stroke-opacity:1" />
    <g
       transform="matrix(0.702831,3.7163548e-2,-3.7163548e-2,0.702831,-275.97308,-686.68328)"
       id="g2837">
      <path
         style="opacity:1;fill:#667b58;fill-opacity:1;fill-rule:evenodd;stroke:#000000;stroke-width:4;stroke-linecap:butt;stroke-linejoin:round;stroke-miterlimit:4;stroke-dasharray:none;stroke-opacity:1"
         d="M 291.29335,966.00527 L 252.61617,1040.1833 L 205.71775,1025.7961 L 150.41126,971.7975 L 223.09446,944.14426 L 291.29335,966.00527 z"
         id="path2839"
         sodipodi:nodetypes="cccccc" />
      <path
         style="opacity:1;fill:#c5c5c5;fill-opacity:1;fill-rule:evenodd;stroke:#000000;stroke-width:4;stroke-linecap:butt;stroke-linejoin:round;stroke-miterlimit:4;stroke-dasharray:none;stroke-opacity:1"
         d="M 205.71775,1025.7961 L 150.41126,971.79749 L 223.09446,944.14425 L 245.42215,951.6338 L 177.66932,977.12969 L 226.97716,1032.1482 L 205.71775,1025.7961 z"
         id="path2841"
         sodipodi:nodetypes="ccccccc" />
      <path
         style="fill:#667b58;fill-opacity:1;fill-rule:evenodd;stroke:#000000;stroke-width:4;stroke-linecap:butt;stroke-linejoin:round;stroke-miterlimit:4;stroke-dasharray:none;stroke-opacity:1"
         d="M 288.17968,1000.584 L 278.98243,1020.2322 C 263.77968,1010.4249 217.31948,992.73682 226.58677,983.76771 C 235.999,974.65833 265.00274,987.54157 288.17968,1000.584 z"
         id="path2843"
         sodipodi:nodetypes="cczc" />
    </g>
    <path
       sodipodi:nodetypes="cccszscccczzc"
       id="path2845"
       d="M -64.623652,62.930554 C -66.456684,68.179661 -67.840387,89.6045 -61.136238,105.6375 C -115.97415,103.81315 -119.16586,83.734739 -160.21029,74.868976 C -154.55315,61.486426 -147.2576,54.440235 -135.3177,44.916252 C -129.9827,40.660732 -123.45644,32.72938 -118.26292,27.617798 C -113.0694,22.506216 -108.72745,18.886839 -102.6931,16.341167 C -91.569077,11.64835 -75.805061,12.823941 -66.178093,21.447259 C -69.033314,22.126579 -75.947544,21.340983 -75.894357,26.396471 C -75.389646,32.103972 -79.900467,34.706531 -83.860316,37.740668 C -86.438291,40.411287 -84.960037,44.52268 -88.777828,46.06037 C -88.957251,50.633184 -87.182594,55.046794 -84.585904,59.102094 C -81.874726,63.336162 -79.057053,66.063015 -75.20783,68.562395 C -71.358607,71.061846 -67.071,65.804434 -64.623652,62.930554 z"
       style="fill:#5d5d5d;fill-opacity:1;fill-rule:evenodd;stroke:#000000;stroke-width:2.81525159;stroke-linecap:butt;stroke-linejoin:round;stroke-miterlimit:4;stroke-dasharray:none;stroke-opacity:1" />
    <path
       sodipodi:nodetypes="ccccczzczccczz"
       id="path2847"
       d="M -64.873618,62.627422 C -68.108504,66.132974 -71.608573,70.758713 -75.457796,68.259263 C -79.307019,65.759882 -82.124692,63.03303 -84.835871,58.798962 C -87.43256,54.743662 -89.207217,50.330051 -89.027794,45.757238 C -85.210003,44.219548 -86.688257,40.108154 -84.110282,37.437536 C -80.150433,34.403399 -75.639612,31.80084 -76.144323,26.093339 C -76.19751,21.037781 -68.16709,21.882356 -66.242084,21.98096 C -64.22433,22.084351 -53.110118,23.524985 -49.465549,23.316305 C -46.943323,21.527212 -44.230314,18.550084 -42.576952,17.52125 C -40.966657,16.519232 -38.828452,14.01415 -36.794179,14.751676 C -30.439713,15.1696 -31.979036,22.423588 -32.32401,27.19171 C -33.238545,33.430941 -41.648025,35.120725 -50.000419,41.283944 C -56.191235,45.988159 -55.649798,46.374693 -59.368098,51.71058 C -63.086398,57.046467 -61.638732,59.121871 -64.873618,62.627422 z"
       style="fill:#d4af8b;fill-opacity:1;fill-rule:evenodd;stroke:#000000;stroke-width:2.81525159;stroke-linecap:butt;stroke-linejoin:round;stroke-miterlimit:4;stroke-dasharray:none;stroke-opacity:1" />
    <path
       sodipodi:nodetypes="cc"
       id="path2849"
       d="M -38.082516,21.963435 C -37.952191,25.155579 -39.111406,27.283839 -40.958739,28.075417"
       style="fill:none;fill-opacity:0.75;fill-rule:evenodd;stroke:#000000;stroke-width:3.51906443;stroke-linecap:round;stroke-linejoin:miter;stroke-miterlimit:4;stroke-dasharray:none;stroke-opacity:1" />
    <path
       sodipodi:nodetypes="cccccccc"
       style="fill:#000000;fill-rule:nonzero;stroke:#000000;stroke-width:2.81525159;stroke-linecap:round;stroke-linejoin:round;stroke-miterlimit:4;stroke-dasharray:none;stroke-opacity:1"
       class="fil58"
       d="M -70.035044,50.037617 C -68.931395,50.000948 -63.039088,47.394729 -62.244976,46.994189 C -64.149944,50.30218 -65.622236,51.000715 -67.586634,55.274407 C -68.452085,57.633307 -70.000431,60.737896 -72.542955,62.306906 C -76.307221,59.559431 -76.633304,54.192858 -78.372356,50.144174 C -83.113422,47.104336 -86.30881,41.897317 -90.626442,42.682983 C -91.652777,40.310712 -90.072647,38.437584 -90.023697,36.25323 C -88.042956,46.509755 -75.600459,50.158039 -70.035044,50.037617 z"
       id="path2851" />
    <path
       style="fill:#ffffff;fill-rule:nonzero"
       class="fil59"
       d="M -68.470517,56.305845 C -69.131187,56.86784 -74.068927,57.093553 -75.232541,56.822233 C -75.688963,55.811276 -76.06311,52.780869 -76.698161,51.575096 C -75.814031,51.597126 -67.606517,52.304528 -64.853834,49.876092 C -66.037366,51.071448 -68.850225,56.440062 -68.470517,56.305845 L -68.470517,56.305845 z"
       id="path2853" />
    <path
       sodipodi:nodetypes="czzc"
       id="path2855"
       d="M -96.300004,30.03441 C -92.747685,29.006069 -92.056977,27.14378 -88.937361,25.920975 C -85.817746,24.698171 -85.804782,24.888341 -83.821535,25.143262 C -81.838289,25.398183 -81.004377,26.94073 -81.004377,26.94073"
       style="fill:none;fill-opacity:0.75;fill-rule:evenodd;stroke:#000000;stroke-width:2.81500006;stroke-linecap:round;stroke-linejoin:round;stroke-miterlimit:4;stroke-dasharray:none;stroke-opacity:1" />
  </g>
  <path
     style="font-size:40px;font-style:normal;font-weight:normal;fill:#ffffff;fill-opacity:1;stroke:none;font-family:Bitstream Vera Sans"
     d="m 62.362519,54.581472 2.077637,0 0,10.3208 6.165527,-5.42431 2.63916,0 -6.670898,5.88476 6.95166,6.69336 -2.695312,0 -6.390137,-6.14307 0,6.14307 -2.077637,0 0,-17.47461 z m 20.708984,6.82813 c -0.232105,-0.13476 -0.48479,-0.23396 -0.758056,-0.29761 -0.273283,-0.06363 -0.574634,-0.09545 -0.904053,-0.09546 -1.167975,1e-5 -2.06454,0.37998 -2.689697,1.13989 -0.625167,0.75994 -0.937748,1.85117 -0.937744,3.27368 l 0,6.62598 -2.077637,0 0,-12.57812 2.077637,0 0,1.9541 c 0.43424,-0.76366 0.999506,-1.3308 1.6958,-1.70142 0.696283,-0.37059 1.542311,-0.55589 2.538086,-0.55591 0.142244,2e-5 0.299471,0.0094 0.47168,0.02808 0.172192,0.01873 0.363109,0.04681 0.572754,0.08423 l 0.01123,2.12256 z m 12.948734,3.84082 0,1.01074 -9.50098,0 c 0.08984,1.42253 0.51847,2.50627 1.285889,3.25122 0.76741,0.74496 1.836175,1.11743 3.206299,1.11743 0.793611,0 1.562897,-0.09733 2.307861,-0.29199 0.744944,-0.19466 1.484282,-0.48665 2.218021,-0.87598 l 0,1.9541 c -0.741226,0.31446 -1.501153,0.55404 -2.279788,0.71875 -0.778656,0.16472 -1.568531,0.24707 -2.369629,0.24707 -2.006516,0 -3.595626,-0.58398 -4.767334,-1.75195 -1.171714,-1.16796 -1.75757,-2.74772 -1.757569,-4.73926 -10e-7,-2.05891 0.555907,-3.69294 1.667725,-4.9021 1.111812,-1.20913 2.611078,-1.8137 4.497803,-1.81372 1.692048,2e-5 3.030344,0.54469 4.014892,1.63404 0.98453,1.08936 1.47679,2.56991 1.47681,4.44165 l 0,0 z m -2.066409,-0.60645 c -0.01498,-1.13052 -0.33131,-2.0327 -0.948975,-2.70654 -0.617685,-0.67382 -1.435637,-1.01073 -2.453857,-1.01074 -1.153001,10e-6 -2.075771,0.32569 -2.768311,0.97705 -0.692549,0.65137 -1.091231,1.56853 -1.196045,2.75146 l 7.367188,-0.01123 z m 7.501952,-8.7373 0,3.57129 4.25635,0 0,1.60595 -4.25635,0 0,6.82813 c 0,1.02572 0.14038,1.68457 0.42115,1.97656 0.28075,0.29199 0.85163,0.43799 1.71264,0.43799 l 2.12256,0 0,1.72949 -2.12256,0 c -1.59473,0 -2.69531,-0.29761 -3.30176,-0.89282 -0.606443,-0.59521 -0.909673,-1.67895 -0.909663,-3.25122 l 0,-6.82813 -1.51612,0 0,-1.60595 1.51612,0 0,-3.57129 2.077633,0 z m 12.21875,17.31738 c -0.58399,1.49739 -1.153,2.47444 -1.70703,2.93115 -0.55404,0.4567 -1.29525,0.68506 -2.22363,0.68506 l -1.65088,0 0,-1.72949 1.21289,0 c 0.56901,0 1.01074,-0.13477 1.3252,-0.4043 0.31444,-0.26953 0.66259,-0.90592 1.04443,-1.90918 l 0.37061,-0.94336 -5.08741,-12.37597 2.18994,0 3.93067,9.83789 3.93066,-9.83789 2.18994,0 -5.52539,13.74609 z"
     id="text2479-0"
     inkscape:connector-curvature="0" />
  <text
     xml:space="preserve"
     style="font-size:23.14668083px;font-style:normal;font-variant:normal;font-weight:normal;font-stretch:normal;line-height:125%;letter-spacing:0px;word-spacing:0px;fill:#000000;fill-opacity:1;stroke:none;font-family:Webdings;-inkscape-font-specification:Webdings"
     x="151.17851"
     y="28.272993"
     id="text3275"
     sodipodi:linespacing="125%"
     transform="scale(1.0723021,0.93257301)"
     inkscape:export-filename="/home/filips/svn/geokrety/templates/logo/geokretynews.png"
     inkscape:export-xdpi="222.14017"
     inkscape:export-ydpi="222.14017"><tspan
       sodipodi:role="line"
       id="tspan3277"
       x="151.17851"
       y="28.272993"
       style="font-style:normal;font-variant:normal;font-weight:normal;font-stretch:normal;font-family:Stranded BRK;-inkscape-font-specification:Stranded BRK">news</tspan></text>
</svg>
