<?xml version="1.0" encoding="UTF-8" standalone="no"?>
<!-- Created with Inkscape (http://www.inkscape.org/) -->

<svg
   xmlns:dc="http://purl.org/dc/elements/1.1/"
   xmlns:cc="http://creativecommons.org/ns#"
   xmlns:rdf="http://www.w3.org/1999/02/22-rdf-syntax-ns#"
   xmlns:svg="http://www.w3.org/2000/svg"
   xmlns="http://www.w3.org/2000/svg"
   xmlns:sodipodi="http://sodipodi.sourceforge.net/DTD/sodipodi-0.dtd"
   xmlns:inkscape="http://www.inkscape.org/namespaces/inkscape"
   width="228.48648"
   height="49.674866"
   id="svg3071"
   version="1.1"
   inkscape:version="0.48.2 r9819"
   sodipodi:docname="geokrety-czb.svg">
  <defs
     id="defs3073" />
  <sodipodi:namedview
     id="base"
     pagecolor="#ffffff"
     bordercolor="#666666"
     borderopacity="1.0"
     inkscape:pageopacity="0.0"
     inkscape:pageshadow="2"
     inkscape:zoom="2.8"
     inkscape:cx="107.21981"
     inkscape:cy="-27.933747"
     inkscape:document-units="px"
     inkscape:current-layer="layer1"
     showgrid="false"
     inkscape:window-width="1280"
     inkscape:window-height="723"
     inkscape:window-x="0"
     inkscape:window-y="24"
     inkscape:window-maximized="1"
     fit-margin-top="0"
     fit-margin-left="0"
     fit-margin-right="0"
     fit-margin-bottom="0" />
  <metadata
     id="metadata3076">
    <rdf:RDF>
      <cc:Work
         rdf:about="">
        <dc:format>image/svg+xml</dc:format>
        <dc:type
           rdf:resource="http://purl.org/dc/dcmitype/StillImage" />
        <dc:title></dc:title>
      </cc:Work>
    </rdf:RDF>
  </metadata>
  <g
     inkscape:label="Layer 1"
     inkscape:groupmode="layer"
     id="layer1"
     transform="translate(-129.86742,-245.14957)">
    <g
       id="g2490"
       transform="translate(189.78487,328.74573)"
       inkscape:export-filename="/home/filips/svn/geokrety/rzeczy/logo/doodle/geokrety-czb.png"
       inkscape:export-xdpi="144.25066"
       inkscape:export-ydpi="144.25066">
      <rect
         width="61.299881"
         height="26.478128"
         x="64.375893"
         y="-68.511658"
         id="rect3251"
         style="fill:#000000;fill-opacity:1;fill-rule:nonzero;stroke:none" />
      <path
         inkscape:connector-curvature="0"
         id="text2383"
         d="m 31.101862,-50.457391 0,-4.566773 -3.65464,0 0,-1.890484 5.869574,0 0,7.300003 c -0.863838,0.630162 -1.816259,1.10658 -2.857264,1.429252 -1.041031,0.322672 -2.152188,0.484009 -3.333475,0.48401 -2.584097,-10e-7 -4.605221,-0.776314 -6.063381,-2.328941 -1.458167,-1.552623 -2.187248,-3.71453 -2.187247,-6.485728 -1e-6,-2.778772 0.72908,-4.944476 2.187247,-6.497117 1.45816,-1.55261 3.479284,-2.328922 6.063381,-2.328939 1.077923,1.7e-5 2.10233,0.136678 3.07322,0.409984 0.970866,0.27334 1.866068,0.675732 2.685607,1.207177 l 0,2.448519 c -0.826922,-0.721255 -1.705512,-1.264105 -2.635771,-1.62855 -0.930284,-0.364415 -1.908545,-0.54663 -2.934787,-0.546647 -2.02298,1.7e-5 -3.542054,0.580827 -4.557226,1.742435 -1.015182,1.161635 -1.522771,2.89268 -1.522767,5.193138 -4e-6,2.292883 0.507585,4.020131 1.522767,5.181749 1.015172,1.161625 2.534246,1.742436 4.557226,1.742435 0.789982,10e-7 1.495069,-0.07023 2.115262,-0.210687 0.620169,-0.140455 1.177594,-0.358735 1.672274,-0.654836 l 0,0 z m 16.833497,-4.475665 0,1.024961 -9.36917,0 c 0.08859,1.442544 0.511277,2.541529 1.26805,3.29696 0.756763,0.755436 1.810702,1.133153 3.161818,1.133152 0.782601,1e-6 1.541215,-0.0987 2.275844,-0.296101 0.734609,-0.197397 1.46369,-0.493497 2.187247,-0.888299 l 0,1.981591 c -0.73094,0.318878 -1.480324,0.561832 -2.248157,0.728862 -0.767854,0.167031 -1.546771,0.250546 -2.336755,0.250547 -1.97868,-10e-7 -3.545744,-0.5922 -4.701197,-1.7766 -1.155459,-1.184398 -1.733187,-2.786373 -1.733186,-4.80593 -10e-7,-2.087876 0.548194,-3.744896 1.644588,-4.971064 1.096388,-1.226145 2.574855,-1.839223 4.435405,-1.839236 1.668574,1.3e-5 2.988304,0.552352 3.959194,1.657021 0.970867,1.104691 1.456306,2.606068 1.456319,4.504136 l 0,0 z m -2.037739,-0.614976 c -0.01478,-1.146431 -0.326714,-2.061303 -0.93581,-2.744619 -0.609116,-0.683298 -1.41572,-1.02495 -2.419814,-1.024962 -1.137006,1.2e-5 -2.046974,0.330276 -2.729907,0.990796 -0.682941,0.66054 -1.076092,1.590597 -1.179452,2.790172 l 7.264983,-0.01139 z m 10.188695,-3.769581 c -1.092707,1.2e-5 -1.95653,0.438466 -2.591473,1.315367 -0.634951,0.876921 -0.952424,2.078402 -0.952421,3.604448 -3e-6,1.526059 0.315625,2.72754 0.946884,3.604447 0.631251,0.876913 1.49692,1.315369 2.59701,1.315368 1.08531,1e-6 1.945441,-0.440352 2.580397,-1.321062 0.634938,-0.880704 0.952412,-2.080287 0.952422,-3.598753 -1e-5,-1.510861 -0.317484,-2.708547 -0.952422,-3.59306 -0.634956,-0.884492 -1.495087,-1.326743 -2.580397,-1.326755 l 0,0 z m 0,-1.7766 c 1.771938,1.3e-5 3.163653,0.592212 4.17515,1.7766 1.011475,1.18441 1.517217,2.824346 1.517229,4.919815 -1.2e-5,2.087888 -0.505754,3.725927 -1.517229,4.91412 -1.011497,1.188197 -2.403212,1.782294 -4.17515,1.782295 -1.779335,-10e-7 -3.172896,-0.594098 -4.180688,-1.782295 -1.007796,-1.188193 -1.511693,-2.826232 -1.511692,-4.91412 -10e-7,-2.095469 0.503896,-3.735405 1.511692,-4.919815 1.007792,-1.184388 2.401353,-1.776587 4.180688,-1.7766 l 0,0 z"
         style="font-size:22.94870567px;font-style:normal;font-weight:normal;fill:#000000;fill-opacity:1;stroke:none;font-family:Bitstream Vera Sans" />
      <path
         inkscape:connector-curvature="0"
         id="text2479"
         d="m 66.871012,-65.831418 2.077637,0 0,10.3208 6.165527,-5.42431 2.63916,0 -6.670898,5.88476 6.95166,6.69336 -2.695312,0 -6.390137,-6.14307 0,6.14307 -2.077637,0 0,-17.47461 z m 20.708984,6.82813 c -0.232105,-0.13476 -0.48479,-0.23396 -0.758056,-0.29761 -0.273283,-0.06363 -0.574634,-0.09545 -0.904053,-0.09546 -1.167975,10e-6 -2.06454,0.37998 -2.689697,1.13989 -0.625167,0.75994 -0.937748,1.85117 -0.937744,3.27368 l 0,6.62598 -2.077637,0 0,-12.57812 2.077637,0 0,1.9541 c 0.43424,-0.76366 0.999506,-1.3308 1.6958,-1.70142 0.696283,-0.37059 1.542311,-0.55589 2.538086,-0.55591 0.142244,2e-5 0.299471,0.0094 0.47168,0.02808 0.172192,0.01873 0.363109,0.04681 0.572754,0.08423 l 0.01123,2.12256 z m 12.948734,3.84082 0,1.01074 -9.50098,0 c 0.08984,1.42253 0.51847,2.50627 1.285889,3.25122 0.76741,0.74496 1.836175,1.11743 3.206299,1.11743 0.793611,0 1.562897,-0.09733 2.307861,-0.29199 0.744944,-0.19466 1.484282,-0.48665 2.218021,-0.87598 l 0,1.9541 c -0.741226,0.31446 -1.501153,0.55404 -2.279788,0.71875 -0.778656,0.16472 -1.568531,0.24707 -2.369629,0.24707 -2.006516,0 -3.595626,-0.58398 -4.767334,-1.75195 -1.171714,-1.16796 -1.75757,-2.74772 -1.757569,-4.73926 -10e-7,-2.05891 0.555907,-3.69294 1.667725,-4.9021 1.111812,-1.20913 2.611078,-1.8137 4.497803,-1.81372 1.692048,2e-5 3.030344,0.54469 4.014892,1.63404 0.98453,1.08936 1.47679,2.56991 1.47681,4.44165 l 0,0 z m -2.066409,-0.60645 c -0.01498,-1.13052 -0.33131,-2.0327 -0.948975,-2.70654 -0.617685,-0.67382 -1.435637,-1.01073 -2.453857,-1.01074 -1.153001,1e-5 -2.075771,0.32569 -2.768311,0.97705 -0.692549,0.65137 -1.091231,1.56853 -1.196045,2.75146 l 7.367188,-0.01123 z m 7.501949,-8.7373 0,3.57129 4.25635,0 0,1.60595 -4.25635,0 0,6.82813 c 0,1.02572 0.14038,1.68457 0.42115,1.97656 0.28075,0.29199 0.85163,0.43799 1.71264,0.43799 l 2.12256,0 0,1.72949 -2.12256,0 c -1.59473,0 -2.69531,-0.29761 -3.30176,-0.89282 -0.60644,-0.59521 -0.90967,-1.67895 -0.90966,-3.25122 l 0,-6.82813 -1.51612,0 0,-1.60595 1.51612,0 0,-3.57129 2.07763,0 z m 12.21875,17.31738 c -0.58399,1.49739 -1.153,2.47444 -1.70703,2.93115 -0.55404,0.4567 -1.29525,0.68506 -2.22363,0.68506 l -1.65088,0 0,-1.72949 1.21289,0 c 0.56901,0 1.01074,-0.13477 1.3252,-0.4043 0.31444,-0.26953 0.66259,-0.90592 1.04443,-1.90918 l 0.37061,-0.94336 -5.08741,-12.37597 2.18994,0 3.93067,9.83789 3.93066,-9.83789 2.18994,0 -5.52539,13.74609 z"
         style="font-size:40px;font-style:normal;font-weight:normal;fill:#ffffff;fill-opacity:1;stroke:none;font-family:Bitstream Vera Sans" />
      <path
         inkscape:connector-curvature="0"
         id="text2483"
         d="m 127.65643,-50.958365 2.36963,0 0,2.85254 -2.36963,0 0,-2.85254 z m 11.9043,-8.27686 c -1.10808,1e-5 -1.98406,0.43239 -2.62793,1.29712 -0.64389,0.86476 -0.96583,2.04957 -0.96582,3.55445 -1e-5,1.50488 0.32006,2.6897 0.9602,3.55444 0.64013,0.86475 1.51798,1.29712 2.63355,1.29712 1.10057,0 1.97281,-0.43424 2.6167,-1.30274 0.64386,-0.86848 0.9658,-2.05142 0.96582,-3.54882 -2e-5,-1.4899 -0.32196,-2.67097 -0.96582,-3.54322 -0.64389,-0.87222 -1.51613,-1.30834 -2.6167,-1.30835 l 0,0 z m 0,-1.75195 c 1.79686,1e-5 3.20816,0.584 4.23388,1.75195 1.02571,1.16798 1.53856,2.78517 1.53858,4.85157 -2e-5,2.05892 -0.51287,3.67423 -1.53858,4.84594 -1.02572,1.17172 -2.43702,1.75757 -4.23388,1.75757 -1.80437,0 -3.21754,-0.58585 -4.23951,-1.75757 -1.02197,-1.17171 -1.53296,-2.78702 -1.53296,-4.84594 0,-2.0664 0.51099,-3.68359 1.53296,-4.85157 1.02197,-1.16795 2.43514,-1.75194 4.23951,-1.75195 l 0,0 z m 16.47509,2.23486 c -0.2321,-0.13475 -0.48479,-0.23395 -0.75805,-0.2976 -0.27329,-0.06363 -0.57464,-0.09545 -0.90406,-0.09546 -1.16797,1e-5 -2.06454,0.37997 -2.68969,1.13989 -0.62517,0.75994 -0.93775,1.85116 -0.93775,3.27368 l 0,6.62598 -2.07763,0 0,-12.57813 2.07763,0 0,1.9541 c 0.43424,-0.76366 0.99951,-1.33079 1.6958,-1.70141 0.69629,-0.37059 1.54231,-0.5559 2.53809,-0.55591 0.14224,1e-5 0.29947,0.0094 0.47168,0.02808 0.17219,0.01873 0.36311,0.0468 0.57275,0.08423 l 0.0112,2.12255 z m 10.4668,4.21143 c -1e-5,-1.49739 -0.30885,-2.65787 -0.92651,-3.48145 -0.61769,-0.82355 -1.4843,-1.23534 -2.59986,-1.23535 -1.10808,1e-5 -1.97095,0.4118 -2.58862,1.23535 -0.61768,0.82358 -0.92652,1.98406 -0.92651,3.48145 -1e-5,1.48991 0.30883,2.64665 0.92651,3.47021 0.61767,0.82357 1.48054,1.23536 2.58862,1.23536 1.11556,0 1.98217,-0.41179 2.59986,-1.23536 0.61766,-0.82356 0.9265,-1.9803 0.92651,-3.47021 l 0,0 z m 2.06641,4.87402 c -2e-5,2.14128 -0.47544,3.73413 -1.42627,4.77857 -0.95086,1.04443 -2.40708,1.566643 -4.36866,1.566648 -0.72624,-5e-6 -1.4113,-0.05429 -2.05517,-0.162842 -0.64389,-0.108565 -1.26905,-0.275146 -1.87549,-0.499756 l 0,-2.01025 c 0.60644,0.32942 1.2054,0.57275 1.79688,0.72998 0.59146,0.15722 1.19416,0.23583 1.8081,0.23584 1.35514,-1e-5 2.36962,-0.35377 3.04346,-1.06128 0.67382,-0.70752 1.01073,-1.77629 1.01074,-3.2063 l 0,-1.02197 c -0.42677,0.74121 -0.97332,1.29524 -1.63965,1.66211 -0.66635,0.36686 -1.46371,0.55029 -2.39209,0.55029 -1.54232,0 -2.78516,-0.58773 -3.72851,-1.76319 -0.94336,-1.17545 -1.41504,-2.73274 -1.41504,-4.67187 0,-1.94661 0.47168,-3.50764 1.41504,-4.68311 0.94335,-1.17544 2.18619,-1.76317 3.72851,-1.76318 0.92838,1e-5 1.72574,0.18344 2.39209,0.55029 0.66633,0.36688 1.21288,0.92091 1.63965,1.66211 l 0,-1.90918 2.06641,0 0,11.01709 z"
         style="font-size:23px;font-style:normal;font-weight:normal;fill:#000000;fill-opacity:1;stroke:none;font-family:Bitstream Vera Sans" />
    </g>
    <g
       id="g4055"
       transform="matrix(0.64545337,0,0,0.62062278,-84.897529,59.763501)"
       inkscape:export-filename="/home/filips/svn/geokrety/rzeczy/logo/doodle/geokrety-czb.png"
       inkscape:export-xdpi="144"
       inkscape:export-ydpi="144">
      <polygon
         transform="matrix(1.0952652,-0.10620246,0.09935982,1.1706931,277.40914,236.84999)"
         style="fill:#ffffff;fill-opacity:1;fill-rule:nonzero;stroke-linecap:round;stroke-linejoin:round"
         class="fil59"
         points="151.143,106.696 151.143,106.696 151.073,106.766 "
         id="polygon2819" />
      <polygon
         transform="matrix(1.0952652,-0.10620246,0.09935982,1.1706931,277.40914,236.84999)"
         style="fill:#ffffff;fill-opacity:1;fill-rule:nonzero;stroke-linecap:round;stroke-linejoin:round"
         class="fil59"
         points="151.955,106.908 151.955,106.908 152.06,107.049 "
         id="polygon2821" />
      <polygon
         transform="matrix(1.0952652,-0.10620246,0.09935982,1.1706931,277.40914,236.84999)"
         style="fill:#ffffff;fill-opacity:1;fill-rule:nonzero;stroke-linecap:round;stroke-linejoin:round"
         class="fil59"
         points="147.686,117.844 147.686,117.844 147.545,117.914 "
         id="polygon2823" />
      <path
         inkscape:connector-curvature="0"
         sodipodi:nodetypes="cssz"
         id="path2825"
         d="m 410.73934,336.36142 c 8.61007,6.83592 37.94945,26.70602 40.54976,31.64599 1.95145,3.7073 -2.36615,10.70419 -5.68333,9.34445 -7.13013,-2.92269 -3.93062,-6.61145 -33.9504,-30.85242"
         style="fill:#ffffff;fill-opacity:1;fill-rule:evenodd;stroke:#000000;stroke-width:1.7688185;stroke-linecap:round;stroke-linejoin:round;stroke-miterlimit:4;stroke-opacity:1;stroke-dasharray:none" />
      <path
         inkscape:connector-curvature="0"
         sodipodi:nodetypes="cscszczzzzzzzzzczzzzzz"
         id="path2827"
         d="m 411.83569,364.91596 c 1.46396,-0.79677 7.86402,-2.02573 9.20973,-3.8865 1.34539,-1.86032 0.4095,-4.11343 1.02316,-5.67937 1.57323,1.22067 4.25831,1.8915 5.16818,1.47131 0.85306,-0.39396 2.77483,-3.77625 2.79039,-5.10526 0.0156,-1.32903 -1.28172,-2.34425 -2.09812,-2.83594 3.35416,-2.24294 5.48447,-2.21666 7.8754,-1.62997 2.39093,0.58669 1.70279,2.06081 3.03473,2.93157 1.29938,0.84947 2.34318,0.41215 3.18281,1.23641 0.83962,0.82427 0.96694,2.22141 1.88429,3.29942 0.93974,1.10431 1.64041,0.59179 2.67589,1.96473 1.03548,1.37295 0.70054,2.1452 1.37694,3.6699 0.6764,1.5247 2.43766,0.80124 0.54705,4.56272 -1.8335,3.64784 -4.0334,5.58292 -5.54873,6.80564 -1.55318,1.25326 -5.1159,2.36699 -5.90291,1.60139 -0.9387,-0.91318 -0.53437,-0.83835 -0.25999,-1.73027 -0.75959,0.33091 -1.16025,0.72204 -2.60438,0.979 -1.44414,0.25696 -1.76563,-0.17959 -2.3593,-0.98733 -0.59367,-0.80775 0.73633,-2.66732 -0.0154,-2.24363 -0.75171,0.42369 -0.67118,2.40374 -2.99147,3.93838 -2.32029,1.53464 -5.9467,3.33041 -8.85668,3.84644 -2.90998,0.51602 -4.75212,-1.52123 -6.08968,-1.55525"
         style="fill:#ffffff;fill-opacity:1;fill-rule:evenodd;stroke:#000000;stroke-width:1.7688185;stroke-linecap:round;stroke-linejoin:round;stroke-miterlimit:4;stroke-opacity:1;stroke-dasharray:none" />
      <path
         inkscape:connector-curvature="0"
         sodipodi:nodetypes="cszz"
         id="path2829"
         d="m 423.98406,362.02238 c 3.95098,4.02365 10.16257,9.94995 15.16866,9.36601 2.32971,-0.27118 -1.86285,-9.09584 -5.17026,-12.53031 -3.30741,-3.43447 -7.75848,-1.44251 -8.97364,-0.6388"
         style="fill:#ffffff;fill-opacity:1;stroke:#000000;stroke-width:1.7688185;stroke-linecap:round;stroke-linejoin:round;stroke-miterlimit:4;stroke-opacity:1;stroke-dasharray:none" />
      <path
         inkscape:connector-curvature="0"
         sodipodi:nodetypes="cz"
         id="path2831"
         d="m 434.29491,358.7592 c 0.86361,-0.31325 2.57062,-2.42049 2.91127,-5.7693"
         style="fill:#ffffff;fill-opacity:1;stroke:#000000;stroke-width:1.7688185;stroke-linecap:round;stroke-linejoin:round;stroke-miterlimit:4;stroke-opacity:1;stroke-dasharray:none" />
      <path
         inkscape:connector-curvature="0"
         sodipodi:nodetypes="cz"
         id="path2833"
         d="m 438.15388,364.52317 c 1.7017,-2.04902 3.6329,-4.68039 3.99041,-7.02555"
         style="fill:#ffffff;fill-opacity:1;stroke:#000000;stroke-width:1.7688185;stroke-linecap:round;stroke-linejoin:round;stroke-miterlimit:4;stroke-opacity:1;stroke-dasharray:none" />
      <path
         inkscape:connector-curvature="0"
         sodipodi:nodetypes="cz"
         id="path2835"
         d="m 440.01502,370.20738 c 2.85101,-2.12699 4.815,-4.67088 5.72154,-7.37017"
         style="fill:#ffffff;fill-opacity:1;stroke:#000000;stroke-width:1.7688185;stroke-linecap:round;stroke-linejoin:round;stroke-miterlimit:4;stroke-opacity:1;stroke-dasharray:none" />
      <g
         style="fill:#ffffff;fill-opacity:1"
         transform="matrix(0.42716327,0.02414259,-0.02258708,0.45658081,291.29037,-136.84159)"
         id="g2837">
        <path
           inkscape:connector-curvature="0"
           style="fill:#ffffff;fill-opacity:1;fill-rule:evenodd;stroke:#000000;stroke-width:4;stroke-linecap:butt;stroke-linejoin:round;stroke-miterlimit:4;stroke-opacity:1;stroke-dasharray:none"
           d="m 291.29335,966.00527 -38.67718,74.17803 -46.89842,-14.3872 -55.30649,-53.9986 72.6832,-27.65324 68.19889,21.86101 z"
           id="path2839"
           sodipodi:nodetypes="cccccc" />
        <path
           inkscape:connector-curvature="0"
           style="fill:#ffffff;fill-opacity:1;fill-rule:evenodd;stroke:#000000;stroke-width:4;stroke-linecap:butt;stroke-linejoin:round;stroke-miterlimit:4;stroke-opacity:1;stroke-dasharray:none"
           d="m 205.71775,1025.7961 -55.30649,-53.99861 72.6832,-27.65324 22.32769,7.48955 -67.75283,25.49589 49.30784,55.01851 -21.25941,-6.3521 z"
           id="path2841"
           sodipodi:nodetypes="ccccccc" />
        <path
           inkscape:connector-curvature="0"
           style="fill:#ffffff;fill-opacity:1;fill-rule:evenodd;stroke:#000000;stroke-width:4;stroke-linecap:butt;stroke-linejoin:round;stroke-miterlimit:4;stroke-opacity:1;stroke-dasharray:none"
           d="m 288.17968,1000.584 -9.19725,19.6482 c -15.20275,-9.8073 -61.66295,-27.49538 -52.39566,-36.46449 9.41223,-9.10938 38.41597,3.77386 61.59291,16.81629 z"
           id="path2843"
           sodipodi:nodetypes="cczc" />
      </g>
      <path
         inkscape:connector-curvature="0"
         sodipodi:nodetypes="cccszscccczzc"
         id="path2845"
         d="m 419.74332,350.1308 c -1.11408,3.40998 -1.95506,17.32822 2.11956,27.74376 -33.32912,-1.18516 -35.26897,-14.22872 -60.21475,-19.98819 3.43827,-8.69372 7.87232,-13.27115 15.1291,-19.45822 3.24248,-2.76452 7.20898,-7.91697 10.36547,-11.23761 3.15649,-3.32064 5.79542,-5.6719 9.46295,-7.32565 6.7609,-3.0486 16.34188,-2.2849 22.19291,3.31707 -1.73533,0.44131 -5.93763,-0.069 -5.9053,3.21517 0.30675,3.70777 -2.43481,5.39847 -4.84151,7.36954 -1.56683,1.73492 -0.66839,4.4058 -2.98874,5.40473 -0.10905,2.97065 0.96954,5.83786 2.54774,8.47231 1.64779,2.75058 3.3603,4.52203 5.69976,6.14571 2.33947,1.62372 4.94537,-1.79166 6.43281,-3.65862 z"
         style="fill:#ffffff;fill-opacity:1;fill-rule:evenodd;stroke:#000000;stroke-width:1.76897657;stroke-linecap:butt;stroke-linejoin:round;stroke-miterlimit:4;stroke-opacity:1;stroke-dasharray:none" />
      <path
         inkscape:connector-curvature="0"
         sodipodi:nodetypes="ccccczzczccczz"
         id="path2847"
         d="m 419.59139,349.93388 c -1.96608,2.27731 -4.09334,5.28233 -6.4328,3.65861 -2.33946,-1.62367 -4.05197,-3.39512 -5.69976,-6.1457 -1.5782,-2.63445 -2.6568,-5.50167 -2.54775,-8.47231 2.32036,-0.99893 1.42192,-3.66982 2.98874,-5.40474 2.4067,-1.97107 5.14827,-3.66177 4.84152,-7.36954 -0.0323,-3.28425 4.84836,-2.73558 6.01833,-2.67153 1.22634,0.0672 7.98129,1.00305 10.19637,0.86748 1.53294,-1.16225 3.18184,-3.09628 4.18671,-3.76464 0.9787,-0.65094 2.27825,-2.27832 3.51463,-1.7992 3.86209,0.27149 2.92652,4.98391 2.71686,8.08143 -0.55583,4.0532 -5.66691,5.15093 -10.74329,9.15475 -3.76262,3.056 -3.43355,3.30711 -5.69344,6.77347 -2.25989,3.46635 -1.38003,4.8146 -3.34612,7.09192 z"
         style="fill:#ffffff;fill-opacity:1;fill-rule:evenodd;stroke:#000000;stroke-width:1.76897657;stroke-linecap:butt;stroke-linejoin:round;stroke-miterlimit:4;stroke-opacity:1;stroke-dasharray:none" />
      <path
         inkscape:connector-curvature="0"
         sodipodi:nodetypes="cc"
         id="path2849"
         d="m 435.87436,323.51729 c 0.0792,2.07371 -0.62533,3.4563 -1.7481,3.97053"
         style="fill:#ffffff;fill-opacity:1;stroke:#000000;stroke-width:2.21122074;stroke-linecap:round;stroke-linejoin:miter;stroke-miterlimit:4;stroke-opacity:1;stroke-dasharray:none" />
      <path
         inkscape:connector-curvature="0"
         sodipodi:nodetypes="cccccccc"
         style="fill:#ffffff;fill-opacity:1;fill-rule:nonzero;stroke:#000000;stroke-width:1.76897657;stroke-linecap:round;stroke-linejoin:round;stroke-miterlimit:4;stroke-opacity:1;stroke-dasharray:none"
         class="fil58"
         d="m 416.45441,341.75515 c 0.67077,-0.0238 4.25196,-1.7169 4.73461,-1.97711 -1.1578,2.14898 -2.05262,2.60277 -3.24653,5.37909 -0.526,1.53241 -1.46705,3.54925 -3.01233,4.56853 -2.28783,-1.78485 -2.48601,-5.27114 -3.54297,-7.90129 -2.8815,-1.97477 -4.82358,-5.35741 -7.44773,-4.84702 -0.62378,-1.5411 0.33659,-2.75794 0.36634,-4.17697 1.20384,6.66296 8.76608,9.033 12.14861,8.95477 z"
         id="path2851" />
      <path
         inkscape:connector-curvature="0"
         style="fill:#ffffff;fill-opacity:1;fill-rule:nonzero"
         class="fil59"
         d="m 417.40529,345.82718 c -0.40154,0.36509 -3.40258,0.51172 -4.10979,0.33546 -0.27741,-0.65674 -0.5048,-2.62539 -0.89077,-3.4087 0.53735,0.0143 5.52567,0.47386 7.19869,-1.10372 -0.71932,0.77654 -2.42891,4.26415 -2.19813,4.17696 l 0,0 z"
         id="path2853" />
      <path
         inkscape:connector-curvature="0"
         sodipodi:nodetypes="czzc"
         id="path2855"
         d="m 400.49121,328.76044 c 2.15902,-0.66804 2.57881,-1.87784 4.47484,-2.67221 1.89602,-0.79437 1.9039,-0.67083 3.10927,-0.50523 1.20537,0.16561 1.7122,1.16769 1.7122,1.16769"
         style="fill:#ffffff;fill-opacity:1;stroke:#000000;stroke-width:1.7688185;stroke-linecap:round;stroke-linejoin:round;stroke-miterlimit:4;stroke-opacity:1;stroke-dasharray:none" />
    </g>
  </g>
</svg>
