<?xml version="1.0" encoding="UTF-8" standalone="no"?>
<!-- Created with Inkscape (http://www.inkscape.org/) -->

<svg
   xmlns:dc="http://purl.org/dc/elements/1.1/"
   xmlns:cc="http://creativecommons.org/ns#"
   xmlns:rdf="http://www.w3.org/1999/02/22-rdf-syntax-ns#"
   xmlns:svg="http://www.w3.org/2000/svg"
   xmlns="http://www.w3.org/2000/svg"
   xmlns:sodipodi="http://sodipodi.sourceforge.net/DTD/sodipodi-0.dtd"
   xmlns:inkscape="http://www.inkscape.org/namespaces/inkscape"
   width="698.75006"
   height="705.99982"
   id="svg2"
   version="1.1"
   inkscape:version="0.48.3.1 r9886"
   sodipodi:docname="label.svg"
   inkscape:export-filename="/home/filips/svn/geokrety/templates/labels/7/label.png"
   inkscape:export-xdpi="12.747879"
   inkscape:export-ydpi="12.747879">
  <defs
     id="defs4" />
  <sodipodi:namedview
     id="base"
     pagecolor="#ffffff"
     bordercolor="#666666"
     borderopacity="1.0"
     inkscape:pageopacity="1"
     inkscape:pageshadow="2"
     inkscape:zoom="0.7"
     inkscape:cx="269.7946"
     inkscape:cy="334.66811"
     inkscape:document-units="px"
     inkscape:current-layer="layer1"
     showgrid="false"
     fit-margin-top="0"
     fit-margin-left="0"
     fit-margin-right="0"
     fit-margin-bottom="0"
     inkscape:window-width="1280"
     inkscape:window-height="759"
     inkscape:window-x="-9"
     inkscape:window-y="-10"
     inkscape:window-maximized="1" />
  <metadata
     id="metadata7">
    <rdf:RDF>
      <cc:Work
         rdf:about="">
        <dc:format>image/svg+xml</dc:format>
        <dc:type
           rdf:resource="http://purl.org/dc/dcmitype/StillImage" />
      </cc:Work>
    </rdf:RDF>
  </metadata>
  <g
     inkscape:label="Layer 1"
     inkscape:groupmode="layer"
     id="layer1"
     transform="translate(-27.76786,-153.648)">
    <rect
       style="fill:none;stroke:#000000;stroke-width:40;stroke-miterlimit:4;stroke-opacity:1;stroke-dasharray:none"
       id="rect2011"
       width="630.40057"
       height="644.40057"
       x="63.517799"
       y="182.24738"
       inkscape:export-filename="/home/filips/svn/geokrety/rzeczy/logo/geokrety.png"
       inkscape:export-xdpi="12.747879"
       inkscape:export-ydpi="12.747879" />
    <g
       id="g6488"
       transform="translate(489.15696,8.656899)"
       inkscape:export-filename="/home/filips/svn/geokrety/rzeczy/logo/geokrety.png"
       inkscape:export-xdpi="12.747879"
       inkscape:export-ydpi="12.747879">
      <path
         transform="translate(4.6109,133.5905)"
         d="m -432,33.400574 c 0,10.49341 -7.61116,19 -17,19 -9.38884,0 -17,-8.50659 -17,-19 0,-10.493411 7.61116,-19 17,-19 9.38884,0 17,8.506589 17,19 z"
         sodipodi:ry="19"
         sodipodi:rx="17"
         sodipodi:cy="33.400574"
         sodipodi:cx="-449"
         id="path4686"
         style="fill:#ffffff;fill-opacity:1;stroke:none"
         sodipodi:type="arc" />
      <path
         transform="translate(4.6109,180.5905)"
         d="m -432,33.400574 c 0,10.49341 -7.61116,19 -17,19 -9.38884,0 -17,-8.50659 -17,-19 0,-10.493411 7.61116,-19 17,-19 9.38884,0 17,8.506589 17,19 z"
         sodipodi:ry="19"
         sodipodi:rx="17"
         sodipodi:cy="33.400574"
         sodipodi:cx="-449"
         id="path5573"
         style="fill:#ffffff;fill-opacity:1;stroke:none"
         sodipodi:type="arc" />
      <path
         transform="translate(4.6109,227.0905)"
         d="m -432,33.400574 c 0,10.49341 -7.61116,19 -17,19 -9.38884,0 -17,-8.50659 -17,-19 0,-10.493411 7.61116,-19 17,-19 9.38884,0 17,8.506589 17,19 z"
         sodipodi:ry="19"
         sodipodi:rx="17"
         sodipodi:cy="33.400574"
         sodipodi:cx="-449"
         id="path5575"
         style="fill:#ffffff;fill-opacity:1;stroke:none"
         sodipodi:type="arc" />
      <path
         transform="translate(4.6109,274.0905)"
         d="m -432,33.400574 c 0,10.49341 -7.61116,19 -17,19 -9.38884,0 -17,-8.50659 -17,-19 0,-10.493411 7.61116,-19 17,-19 9.38884,0 17,8.506589 17,19 z"
         sodipodi:ry="19"
         sodipodi:rx="17"
         sodipodi:cy="33.400574"
         sodipodi:cx="-449"
         id="path5577"
         style="fill:#ffffff;fill-opacity:1;stroke:none"
         sodipodi:type="arc" />
      <path
         transform="translate(4.6109,320.3405)"
         d="m -432,33.400574 c 0,10.49341 -7.61116,19 -17,19 -9.38884,0 -17,-8.50659 -17,-19 0,-10.493411 7.61116,-19 17,-19 9.38884,0 17,8.506589 17,19 z"
         sodipodi:ry="19"
         sodipodi:rx="17"
         sodipodi:cy="33.400574"
         sodipodi:cx="-449"
         id="path5579"
         style="fill:#ffffff;fill-opacity:1;stroke:none"
         sodipodi:type="arc" />
      <path
         transform="translate(4.6109,367.3405)"
         d="m -432,33.400574 c 0,10.49341 -7.61116,19 -17,19 -9.38884,0 -17,-8.50659 -17,-19 0,-10.493411 7.61116,-19 17,-19 9.38884,0 17,8.506589 17,19 z"
         sodipodi:ry="19"
         sodipodi:rx="17"
         sodipodi:cy="33.400574"
         sodipodi:cx="-449"
         id="path5581"
         style="fill:#ffffff;fill-opacity:1;stroke:none"
         sodipodi:type="arc" />
      <path
         transform="translate(4.6109,413.8405)"
         d="m -432,33.400574 c 0,10.49341 -7.61116,19 -17,19 -9.38884,0 -17,-8.50659 -17,-19 0,-10.493411 7.61116,-19 17,-19 9.38884,0 17,8.506589 17,19 z"
         sodipodi:ry="19"
         sodipodi:rx="17"
         sodipodi:cy="33.400574"
         sodipodi:cx="-449"
         id="path5583"
         style="fill:#ffffff;fill-opacity:1;stroke:none"
         sodipodi:type="arc" />
      <path
         transform="translate(4.6109,460.8405)"
         d="m -432,33.400574 c 0,10.49341 -7.61116,19 -17,19 -9.38884,0 -17,-8.50659 -17,-19 0,-10.493411 7.61116,-19 17,-19 9.38884,0 17,8.506589 17,19 z"
         sodipodi:ry="19"
         sodipodi:rx="17"
         sodipodi:cy="33.400574"
         sodipodi:cx="-449"
         id="path5585"
         style="fill:#ffffff;fill-opacity:1;stroke:none"
         sodipodi:type="arc" />
      <path
         transform="translate(4.6109,504.9655)"
         d="m -432,33.400574 c 0,10.49341 -7.61116,19 -17,19 -9.38884,0 -17,-8.50659 -17,-19 0,-10.493411 7.61116,-19 17,-19 9.38884,0 17,8.506589 17,19 z"
         sodipodi:ry="19"
         sodipodi:rx="17"
         sodipodi:cy="33.400574"
         sodipodi:cx="-449"
         id="path5587"
         style="fill:#ffffff;fill-opacity:1;stroke:none"
         sodipodi:type="arc" />
      <path
         transform="translate(4.6109,551.9655)"
         d="m -432,33.400574 c 0,10.49341 -7.61116,19 -17,19 -9.38884,0 -17,-8.50659 -17,-19 0,-10.493411 7.61116,-19 17,-19 9.38884,0 17,8.506589 17,19 z"
         sodipodi:ry="19"
         sodipodi:rx="17"
         sodipodi:cy="33.400574"
         sodipodi:cx="-449"
         id="path5589"
         style="fill:#ffffff;fill-opacity:1;stroke:none"
         sodipodi:type="arc" />
      <path
         transform="translate(4.6109,598.4655)"
         d="m -432,33.400574 c 0,10.49341 -7.61116,19 -17,19 -9.38884,0 -17,-8.50659 -17,-19 0,-10.493411 7.61116,-19 17,-19 9.38884,0 17,8.506589 17,19 z"
         sodipodi:ry="19"
         sodipodi:rx="17"
         sodipodi:cy="33.400574"
         sodipodi:cx="-449"
         id="path5591"
         style="fill:#ffffff;fill-opacity:1;stroke:none"
         sodipodi:type="arc" />
      <path
         transform="translate(4.6109,645.4655)"
         d="m -432,33.400574 c 0,10.49341 -7.61116,19 -17,19 -9.38884,0 -17,-8.50659 -17,-19 0,-10.493411 7.61116,-19 17,-19 9.38884,0 17,8.506589 17,19 z"
         sodipodi:ry="19"
         sodipodi:rx="17"
         sodipodi:cy="33.400574"
         sodipodi:cx="-449"
         id="path5593"
         style="fill:#ffffff;fill-opacity:1;stroke:none"
         sodipodi:type="arc" />
      <path
         transform="translate(4.6109,691.7155)"
         d="m -432,33.400574 c 0,10.49341 -7.61116,19 -17,19 -9.38884,0 -17,-8.50659 -17,-19 0,-10.493411 7.61116,-19 17,-19 9.38884,0 17,8.506589 17,19 z"
         sodipodi:ry="19"
         sodipodi:rx="17"
         sodipodi:cy="33.400574"
         sodipodi:cx="-449"
         id="path5595"
         style="fill:#ffffff;fill-opacity:1;stroke:none"
         sodipodi:type="arc" />
      <path
         transform="translate(4.6109,738.7155)"
         d="m -432,33.400574 c 0,10.49341 -7.61116,19 -17,19 -9.38884,0 -17,-8.50659 -17,-19 0,-10.493411 7.61116,-19 17,-19 9.38884,0 17,8.506589 17,19 z"
         sodipodi:ry="19"
         sodipodi:rx="17"
         sodipodi:cy="33.400574"
         sodipodi:cx="-449"
         id="path5597"
         style="fill:#ffffff;fill-opacity:1;stroke:none"
         sodipodi:type="arc" />
      <path
         transform="translate(4.6109,785.2155)"
         d="m -432,33.400574 c 0,10.49341 -7.61116,19 -17,19 -9.38884,0 -17,-8.50659 -17,-19 0,-10.493411 7.61116,-19 17,-19 9.38884,0 17,8.506589 17,19 z"
         sodipodi:ry="19"
         sodipodi:rx="17"
         sodipodi:cy="33.400574"
         sodipodi:cx="-449"
         id="path5599"
         style="fill:#ffffff;fill-opacity:1;stroke:none"
         sodipodi:type="arc" />
    </g>
    <g
       id="g6505"
       transform="translate(1153.907,11.844399)"
       inkscape:export-filename="/home/filips/svn/geokrety/rzeczy/logo/geokrety.png"
       inkscape:export-xdpi="12.747879"
       inkscape:export-ydpi="12.747879">
      <path
         transform="translate(4.6109,133.5905)"
         d="m -432,33.400574 c 0,10.49341 -7.61116,19 -17,19 -9.38884,0 -17,-8.50659 -17,-19 0,-10.493411 7.61116,-19 17,-19 9.38884,0 17,8.506589 17,19 z"
         sodipodi:ry="19"
         sodipodi:rx="17"
         sodipodi:cy="33.400574"
         sodipodi:cx="-449"
         id="path6507"
         style="fill:#ffffff;fill-opacity:1;stroke:none"
         sodipodi:type="arc" />
      <path
         transform="translate(4.6109,180.5905)"
         d="m -432,33.400574 c 0,10.49341 -7.61116,19 -17,19 -9.38884,0 -17,-8.50659 -17,-19 0,-10.493411 7.61116,-19 17,-19 9.38884,0 17,8.506589 17,19 z"
         sodipodi:ry="19"
         sodipodi:rx="17"
         sodipodi:cy="33.400574"
         sodipodi:cx="-449"
         id="path6509"
         style="fill:#ffffff;fill-opacity:1;stroke:none"
         sodipodi:type="arc" />
      <path
         transform="translate(4.6109,227.0905)"
         d="m -432,33.400574 c 0,10.49341 -7.61116,19 -17,19 -9.38884,0 -17,-8.50659 -17,-19 0,-10.493411 7.61116,-19 17,-19 9.38884,0 17,8.506589 17,19 z"
         sodipodi:ry="19"
         sodipodi:rx="17"
         sodipodi:cy="33.400574"
         sodipodi:cx="-449"
         id="path6511"
         style="fill:#ffffff;fill-opacity:1;stroke:none"
         sodipodi:type="arc" />
      <path
         transform="translate(4.6109,274.0905)"
         d="m -432,33.400574 c 0,10.49341 -7.61116,19 -17,19 -9.38884,0 -17,-8.50659 -17,-19 0,-10.493411 7.61116,-19 17,-19 9.38884,0 17,8.506589 17,19 z"
         sodipodi:ry="19"
         sodipodi:rx="17"
         sodipodi:cy="33.400574"
         sodipodi:cx="-449"
         id="path6513"
         style="fill:#ffffff;fill-opacity:1;stroke:none"
         sodipodi:type="arc" />
      <path
         transform="translate(4.6109,320.3405)"
         d="m -432,33.400574 c 0,10.49341 -7.61116,19 -17,19 -9.38884,0 -17,-8.50659 -17,-19 0,-10.493411 7.61116,-19 17,-19 9.38884,0 17,8.506589 17,19 z"
         sodipodi:ry="19"
         sodipodi:rx="17"
         sodipodi:cy="33.400574"
         sodipodi:cx="-449"
         id="path6515"
         style="fill:#ffffff;fill-opacity:1;stroke:none"
         sodipodi:type="arc" />
      <path
         transform="translate(4.6109,367.3405)"
         d="m -432,33.400574 c 0,10.49341 -7.61116,19 -17,19 -9.38884,0 -17,-8.50659 -17,-19 0,-10.493411 7.61116,-19 17,-19 9.38884,0 17,8.506589 17,19 z"
         sodipodi:ry="19"
         sodipodi:rx="17"
         sodipodi:cy="33.400574"
         sodipodi:cx="-449"
         id="path6517"
         style="fill:#ffffff;fill-opacity:1;stroke:none"
         sodipodi:type="arc" />
      <path
         transform="translate(4.6109,413.8405)"
         d="m -432,33.400574 c 0,10.49341 -7.61116,19 -17,19 -9.38884,0 -17,-8.50659 -17,-19 0,-10.493411 7.61116,-19 17,-19 9.38884,0 17,8.506589 17,19 z"
         sodipodi:ry="19"
         sodipodi:rx="17"
         sodipodi:cy="33.400574"
         sodipodi:cx="-449"
         id="path6519"
         style="fill:#ffffff;fill-opacity:1;stroke:none"
         sodipodi:type="arc" />
      <path
         transform="translate(4.6109,460.8405)"
         d="m -432,33.400574 c 0,10.49341 -7.61116,19 -17,19 -9.38884,0 -17,-8.50659 -17,-19 0,-10.493411 7.61116,-19 17,-19 9.38884,0 17,8.506589 17,19 z"
         sodipodi:ry="19"
         sodipodi:rx="17"
         sodipodi:cy="33.400574"
         sodipodi:cx="-449"
         id="path6521"
         style="fill:#ffffff;fill-opacity:1;stroke:none"
         sodipodi:type="arc" />
      <path
         transform="translate(4.6109,504.9655)"
         d="m -432,33.400574 c 0,10.49341 -7.61116,19 -17,19 -9.38884,0 -17,-8.50659 -17,-19 0,-10.493411 7.61116,-19 17,-19 9.38884,0 17,8.506589 17,19 z"
         sodipodi:ry="19"
         sodipodi:rx="17"
         sodipodi:cy="33.400574"
         sodipodi:cx="-449"
         id="path6523"
         style="fill:#ffffff;fill-opacity:1;stroke:none"
         sodipodi:type="arc" />
      <path
         transform="translate(4.6109,551.9655)"
         d="m -432,33.400574 c 0,10.49341 -7.61116,19 -17,19 -9.38884,0 -17,-8.50659 -17,-19 0,-10.493411 7.61116,-19 17,-19 9.38884,0 17,8.506589 17,19 z"
         sodipodi:ry="19"
         sodipodi:rx="17"
         sodipodi:cy="33.400574"
         sodipodi:cx="-449"
         id="path6525"
         style="fill:#ffffff;fill-opacity:1;stroke:none"
         sodipodi:type="arc" />
      <path
         transform="translate(4.6109,598.4655)"
         d="m -432,33.400574 c 0,10.49341 -7.61116,19 -17,19 -9.38884,0 -17,-8.50659 -17,-19 0,-10.493411 7.61116,-19 17,-19 9.38884,0 17,8.506589 17,19 z"
         sodipodi:ry="19"
         sodipodi:rx="17"
         sodipodi:cy="33.400574"
         sodipodi:cx="-449"
         id="path6527"
         style="fill:#ffffff;fill-opacity:1;stroke:none"
         sodipodi:type="arc" />
      <path
         transform="translate(4.6109,645.4655)"
         d="m -432,33.400574 c 0,10.49341 -7.61116,19 -17,19 -9.38884,0 -17,-8.50659 -17,-19 0,-10.493411 7.61116,-19 17,-19 9.38884,0 17,8.506589 17,19 z"
         sodipodi:ry="19"
         sodipodi:rx="17"
         sodipodi:cy="33.400574"
         sodipodi:cx="-449"
         id="path6529"
         style="fill:#ffffff;fill-opacity:1;stroke:none"
         sodipodi:type="arc" />
      <path
         transform="translate(4.6109,691.7155)"
         d="m -432,33.400574 c 0,10.49341 -7.61116,19 -17,19 -9.38884,0 -17,-8.50659 -17,-19 0,-10.493411 7.61116,-19 17,-19 9.38884,0 17,8.506589 17,19 z"
         sodipodi:ry="19"
         sodipodi:rx="17"
         sodipodi:cy="33.400574"
         sodipodi:cx="-449"
         id="path6531"
         style="fill:#ffffff;fill-opacity:1;stroke:none"
         sodipodi:type="arc" />
      <path
         transform="translate(4.6109,738.7155)"
         d="m -432,33.400574 c 0,10.49341 -7.61116,19 -17,19 -9.38884,0 -17,-8.50659 -17,-19 0,-10.493411 7.61116,-19 17,-19 9.38884,0 17,8.506589 17,19 z"
         sodipodi:ry="19"
         sodipodi:rx="17"
         sodipodi:cy="33.400574"
         sodipodi:cx="-449"
         id="path6533"
         style="fill:#ffffff;fill-opacity:1;stroke:none"
         sodipodi:type="arc" />
      <path
         transform="translate(4.6109,785.2155)"
         d="m -432,33.400574 c 0,10.49341 -7.61116,19 -17,19 -9.38884,0 -17,-8.50659 -17,-19 0,-10.493411 7.61116,-19 17,-19 9.38884,0 17,8.506589 17,19 z"
         sodipodi:ry="19"
         sodipodi:rx="17"
         sodipodi:cy="33.400574"
         sodipodi:cx="-449"
         id="path6535"
         style="fill:#ffffff;fill-opacity:1;stroke:none"
         sodipodi:type="arc" />
    </g>
    <g
       id="g6537"
       transform="matrix(0,1,-1,0,870.32136,615.0371)"
       inkscape:export-filename="/home/filips/svn/geokrety/rzeczy/logo/geokrety.png"
       inkscape:export-xdpi="12.747879"
       inkscape:export-ydpi="12.747879">
      <path
         transform="translate(4.6109,133.5905)"
         d="m -432,33.400574 c 0,10.49341 -7.61116,19 -17,19 -9.38884,0 -17,-8.50659 -17,-19 0,-10.493411 7.61116,-19 17,-19 9.38884,0 17,8.506589 17,19 z"
         sodipodi:ry="19"
         sodipodi:rx="17"
         sodipodi:cy="33.400574"
         sodipodi:cx="-449"
         id="path6539"
         style="fill:#ffffff;fill-opacity:1;stroke:none"
         sodipodi:type="arc" />
      <path
         transform="translate(4.6109,180.5905)"
         d="m -432,33.400574 c 0,10.49341 -7.61116,19 -17,19 -9.38884,0 -17,-8.50659 -17,-19 0,-10.493411 7.61116,-19 17,-19 9.38884,0 17,8.506589 17,19 z"
         sodipodi:ry="19"
         sodipodi:rx="17"
         sodipodi:cy="33.400574"
         sodipodi:cx="-449"
         id="path6541"
         style="fill:#ffffff;fill-opacity:1;stroke:none"
         sodipodi:type="arc" />
      <path
         transform="translate(4.6109,227.0905)"
         d="m -432,33.400574 c 0,10.49341 -7.61116,19 -17,19 -9.38884,0 -17,-8.50659 -17,-19 0,-10.493411 7.61116,-19 17,-19 9.38884,0 17,8.506589 17,19 z"
         sodipodi:ry="19"
         sodipodi:rx="17"
         sodipodi:cy="33.400574"
         sodipodi:cx="-449"
         id="path6543"
         style="fill:#ffffff;fill-opacity:1;stroke:none"
         sodipodi:type="arc" />
      <path
         transform="translate(4.6109,274.0905)"
         d="m -432,33.400574 c 0,10.49341 -7.61116,19 -17,19 -9.38884,0 -17,-8.50659 -17,-19 0,-10.493411 7.61116,-19 17,-19 9.38884,0 17,8.506589 17,19 z"
         sodipodi:ry="19"
         sodipodi:rx="17"
         sodipodi:cy="33.400574"
         sodipodi:cx="-449"
         id="path6545"
         style="fill:#ffffff;fill-opacity:1;stroke:none"
         sodipodi:type="arc" />
      <path
         transform="translate(4.6109,320.3405)"
         d="m -432,33.400574 c 0,10.49341 -7.61116,19 -17,19 -9.38884,0 -17,-8.50659 -17,-19 0,-10.493411 7.61116,-19 17,-19 9.38884,0 17,8.506589 17,19 z"
         sodipodi:ry="19"
         sodipodi:rx="17"
         sodipodi:cy="33.400574"
         sodipodi:cx="-449"
         id="path6547"
         style="fill:#ffffff;fill-opacity:1;stroke:none"
         sodipodi:type="arc" />
      <path
         transform="translate(4.6109,367.3405)"
         d="m -432,33.400574 c 0,10.49341 -7.61116,19 -17,19 -9.38884,0 -17,-8.50659 -17,-19 0,-10.493411 7.61116,-19 17,-19 9.38884,0 17,8.506589 17,19 z"
         sodipodi:ry="19"
         sodipodi:rx="17"
         sodipodi:cy="33.400574"
         sodipodi:cx="-449"
         id="path6549"
         style="fill:#ffffff;fill-opacity:1;stroke:none"
         sodipodi:type="arc" />
      <path
         transform="translate(4.6109,413.8405)"
         d="m -432,33.400574 c 0,10.49341 -7.61116,19 -17,19 -9.38884,0 -17,-8.50659 -17,-19 0,-10.493411 7.61116,-19 17,-19 9.38884,0 17,8.506589 17,19 z"
         sodipodi:ry="19"
         sodipodi:rx="17"
         sodipodi:cy="33.400574"
         sodipodi:cx="-449"
         id="path6551"
         style="fill:#ffffff;fill-opacity:1;stroke:none"
         sodipodi:type="arc" />
      <path
         transform="translate(4.6109,460.8405)"
         d="m -432,33.400574 c 0,10.49341 -7.61116,19 -17,19 -9.38884,0 -17,-8.50659 -17,-19 0,-10.493411 7.61116,-19 17,-19 9.38884,0 17,8.506589 17,19 z"
         sodipodi:ry="19"
         sodipodi:rx="17"
         sodipodi:cy="33.400574"
         sodipodi:cx="-449"
         id="path6553"
         style="fill:#ffffff;fill-opacity:1;stroke:none"
         sodipodi:type="arc" />
      <path
         transform="translate(4.6109,504.9655)"
         d="m -432,33.400574 c 0,10.49341 -7.61116,19 -17,19 -9.38884,0 -17,-8.50659 -17,-19 0,-10.493411 7.61116,-19 17,-19 9.38884,0 17,8.506589 17,19 z"
         sodipodi:ry="19"
         sodipodi:rx="17"
         sodipodi:cy="33.400574"
         sodipodi:cx="-449"
         id="path6555"
         style="fill:#ffffff;fill-opacity:1;stroke:none"
         sodipodi:type="arc" />
      <path
         transform="translate(4.6109,551.9655)"
         d="m -432,33.400574 c 0,10.49341 -7.61116,19 -17,19 -9.38884,0 -17,-8.50659 -17,-19 0,-10.493411 7.61116,-19 17,-19 9.38884,0 17,8.506589 17,19 z"
         sodipodi:ry="19"
         sodipodi:rx="17"
         sodipodi:cy="33.400574"
         sodipodi:cx="-449"
         id="path6557"
         style="fill:#ffffff;fill-opacity:1;stroke:none"
         sodipodi:type="arc" />
      <path
         transform="translate(4.6109,598.4655)"
         d="m -432,33.400574 c 0,10.49341 -7.61116,19 -17,19 -9.38884,0 -17,-8.50659 -17,-19 0,-10.493411 7.61116,-19 17,-19 9.38884,0 17,8.506589 17,19 z"
         sodipodi:ry="19"
         sodipodi:rx="17"
         sodipodi:cy="33.400574"
         sodipodi:cx="-449"
         id="path6559"
         style="fill:#ffffff;fill-opacity:1;stroke:none"
         sodipodi:type="arc" />
      <path
         transform="translate(4.6109,645.4655)"
         d="m -432,33.400574 c 0,10.49341 -7.61116,19 -17,19 -9.38884,0 -17,-8.50659 -17,-19 0,-10.493411 7.61116,-19 17,-19 9.38884,0 17,8.506589 17,19 z"
         sodipodi:ry="19"
         sodipodi:rx="17"
         sodipodi:cy="33.400574"
         sodipodi:cx="-449"
         id="path6561"
         style="fill:#ffffff;fill-opacity:1;stroke:none"
         sodipodi:type="arc" />
      <path
         transform="translate(4.6109,691.7155)"
         d="m -432,33.400574 c 0,10.49341 -7.61116,19 -17,19 -9.38884,0 -17,-8.50659 -17,-19 0,-10.493411 7.61116,-19 17,-19 9.38884,0 17,8.506589 17,19 z"
         sodipodi:ry="19"
         sodipodi:rx="17"
         sodipodi:cy="33.400574"
         sodipodi:cx="-449"
         id="path6563"
         style="fill:#ffffff;fill-opacity:1;stroke:none"
         sodipodi:type="arc" />
      <path
         transform="translate(4.6109,738.7155)"
         d="m -432,33.400574 c 0,10.49341 -7.61116,19 -17,19 -9.38884,0 -17,-8.50659 -17,-19 0,-10.493411 7.61116,-19 17,-19 9.38884,0 17,8.506589 17,19 z"
         sodipodi:ry="19"
         sodipodi:rx="17"
         sodipodi:cy="33.400574"
         sodipodi:cx="-449"
         id="path6565"
         style="fill:#ffffff;fill-opacity:1;stroke:none"
         sodipodi:type="arc" />
      <path
         transform="translate(4.6109,785.2155)"
         d="m -432,33.400574 c 0,10.49341 -7.61116,19 -17,19 -9.38884,0 -17,-8.50659 -17,-19 0,-10.493411 7.61116,-19 17,-19 9.38884,0 17,8.506589 17,19 z"
         sodipodi:ry="19"
         sodipodi:rx="17"
         sodipodi:cy="33.400574"
         sodipodi:cx="-449"
         id="path6567"
         style="fill:#ffffff;fill-opacity:1;stroke:none"
         sodipodi:type="arc" />
    </g>
    <g
       id="g6569"
       transform="matrix(0,1,-1,0,870.32136,1287.0369)"
       inkscape:export-filename="/home/filips/svn/geokrety/rzeczy/logo/geokrety.png"
       inkscape:export-xdpi="12.747879"
       inkscape:export-ydpi="12.747879">
      <path
         transform="translate(4.6109,133.5905)"
         d="m -432,33.400574 c 0,10.49341 -7.61116,19 -17,19 -9.38884,0 -17,-8.50659 -17,-19 0,-10.493411 7.61116,-19 17,-19 9.38884,0 17,8.506589 17,19 z"
         sodipodi:ry="19"
         sodipodi:rx="17"
         sodipodi:cy="33.400574"
         sodipodi:cx="-449"
         id="path6571"
         style="fill:#ffffff;fill-opacity:1;stroke:none"
         sodipodi:type="arc" />
      <path
         transform="translate(4.6109,180.5905)"
         d="m -432,33.400574 c 0,10.49341 -7.61116,19 -17,19 -9.38884,0 -17,-8.50659 -17,-19 0,-10.493411 7.61116,-19 17,-19 9.38884,0 17,8.506589 17,19 z"
         sodipodi:ry="19"
         sodipodi:rx="17"
         sodipodi:cy="33.400574"
         sodipodi:cx="-449"
         id="path6573"
         style="fill:#ffffff;fill-opacity:1;stroke:none"
         sodipodi:type="arc" />
      <path
         transform="translate(4.6109,227.0905)"
         d="m -432,33.400574 c 0,10.49341 -7.61116,19 -17,19 -9.38884,0 -17,-8.50659 -17,-19 0,-10.493411 7.61116,-19 17,-19 9.38884,0 17,8.506589 17,19 z"
         sodipodi:ry="19"
         sodipodi:rx="17"
         sodipodi:cy="33.400574"
         sodipodi:cx="-449"
         id="path6575"
         style="fill:#ffffff;fill-opacity:1;stroke:none"
         sodipodi:type="arc" />
      <path
         transform="translate(4.6109,274.0905)"
         d="m -432,33.400574 c 0,10.49341 -7.61116,19 -17,19 -9.38884,0 -17,-8.50659 -17,-19 0,-10.493411 7.61116,-19 17,-19 9.38884,0 17,8.506589 17,19 z"
         sodipodi:ry="19"
         sodipodi:rx="17"
         sodipodi:cy="33.400574"
         sodipodi:cx="-449"
         id="path6577"
         style="fill:#ffffff;fill-opacity:1;stroke:none"
         sodipodi:type="arc" />
      <path
         transform="translate(4.6109,320.3405)"
         d="m -432,33.400574 c 0,10.49341 -7.61116,19 -17,19 -9.38884,0 -17,-8.50659 -17,-19 0,-10.493411 7.61116,-19 17,-19 9.38884,0 17,8.506589 17,19 z"
         sodipodi:ry="19"
         sodipodi:rx="17"
         sodipodi:cy="33.400574"
         sodipodi:cx="-449"
         id="path6579"
         style="fill:#ffffff;fill-opacity:1;stroke:none"
         sodipodi:type="arc" />
      <path
         transform="translate(4.6109,367.3405)"
         d="m -432,33.400574 c 0,10.49341 -7.61116,19 -17,19 -9.38884,0 -17,-8.50659 -17,-19 0,-10.493411 7.61116,-19 17,-19 9.38884,0 17,8.506589 17,19 z"
         sodipodi:ry="19"
         sodipodi:rx="17"
         sodipodi:cy="33.400574"
         sodipodi:cx="-449"
         id="path6581"
         style="fill:#ffffff;fill-opacity:1;stroke:none"
         sodipodi:type="arc" />
      <path
         transform="translate(4.6109,413.8405)"
         d="m -432,33.400574 c 0,10.49341 -7.61116,19 -17,19 -9.38884,0 -17,-8.50659 -17,-19 0,-10.493411 7.61116,-19 17,-19 9.38884,0 17,8.506589 17,19 z"
         sodipodi:ry="19"
         sodipodi:rx="17"
         sodipodi:cy="33.400574"
         sodipodi:cx="-449"
         id="path6583"
         style="fill:#ffffff;fill-opacity:1;stroke:none"
         sodipodi:type="arc" />
      <path
         transform="translate(4.6109,460.8405)"
         d="m -432,33.400574 c 0,10.49341 -7.61116,19 -17,19 -9.38884,0 -17,-8.50659 -17,-19 0,-10.493411 7.61116,-19 17,-19 9.38884,0 17,8.506589 17,19 z"
         sodipodi:ry="19"
         sodipodi:rx="17"
         sodipodi:cy="33.400574"
         sodipodi:cx="-449"
         id="path6585"
         style="fill:#ffffff;fill-opacity:1;stroke:none"
         sodipodi:type="arc" />
      <path
         transform="translate(4.6109,504.9655)"
         d="m -432,33.400574 c 0,10.49341 -7.61116,19 -17,19 -9.38884,0 -17,-8.50659 -17,-19 0,-10.493411 7.61116,-19 17,-19 9.38884,0 17,8.506589 17,19 z"
         sodipodi:ry="19"
         sodipodi:rx="17"
         sodipodi:cy="33.400574"
         sodipodi:cx="-449"
         id="path6587"
         style="fill:#ffffff;fill-opacity:1;stroke:none"
         sodipodi:type="arc" />
      <path
         transform="translate(4.6109,551.9655)"
         d="m -432,33.400574 c 0,10.49341 -7.61116,19 -17,19 -9.38884,0 -17,-8.50659 -17,-19 0,-10.493411 7.61116,-19 17,-19 9.38884,0 17,8.506589 17,19 z"
         sodipodi:ry="19"
         sodipodi:rx="17"
         sodipodi:cy="33.400574"
         sodipodi:cx="-449"
         id="path6589"
         style="fill:#ffffff;fill-opacity:1;stroke:none"
         sodipodi:type="arc" />
      <path
         transform="translate(4.6109,598.4655)"
         d="m -432,33.400574 c 0,10.49341 -7.61116,19 -17,19 -9.38884,0 -17,-8.50659 -17,-19 0,-10.493411 7.61116,-19 17,-19 9.38884,0 17,8.506589 17,19 z"
         sodipodi:ry="19"
         sodipodi:rx="17"
         sodipodi:cy="33.400574"
         sodipodi:cx="-449"
         id="path6591"
         style="fill:#ffffff;fill-opacity:1;stroke:none"
         sodipodi:type="arc" />
      <path
         transform="translate(4.6109,645.4655)"
         d="m -432,33.400574 c 0,10.49341 -7.61116,19 -17,19 -9.38884,0 -17,-8.50659 -17,-19 0,-10.493411 7.61116,-19 17,-19 9.38884,0 17,8.506589 17,19 z"
         sodipodi:ry="19"
         sodipodi:rx="17"
         sodipodi:cy="33.400574"
         sodipodi:cx="-449"
         id="path6593"
         style="fill:#ffffff;fill-opacity:1;stroke:none"
         sodipodi:type="arc" />
      <path
         transform="translate(4.6109,691.7155)"
         d="m -432,33.400574 c 0,10.49341 -7.61116,19 -17,19 -9.38884,0 -17,-8.50659 -17,-19 0,-10.493411 7.61116,-19 17,-19 9.38884,0 17,8.506589 17,19 z"
         sodipodi:ry="19"
         sodipodi:rx="17"
         sodipodi:cy="33.400574"
         sodipodi:cx="-449"
         id="path6595"
         style="fill:#ffffff;fill-opacity:1;stroke:none"
         sodipodi:type="arc" />
      <path
         transform="translate(4.6109,738.7155)"
         d="m -432,33.400574 c 0,10.49341 -7.61116,19 -17,19 -9.38884,0 -17,-8.50659 -17,-19 0,-10.493411 7.61116,-19 17,-19 9.38884,0 17,8.506589 17,19 z"
         sodipodi:ry="19"
         sodipodi:rx="17"
         sodipodi:cy="33.400574"
         sodipodi:cx="-449"
         id="path6597"
         style="fill:#ffffff;fill-opacity:1;stroke:none"
         sodipodi:type="arc" />
      <path
         transform="translate(4.6109,785.2155)"
         d="m -432,33.400574 c 0,10.49341 -7.61116,19 -17,19 -9.38884,0 -17,-8.50659 -17,-19 0,-10.493411 7.61116,-19 17,-19 9.38884,0 17,8.506589 17,19 z"
         sodipodi:ry="19"
         sodipodi:rx="17"
         sodipodi:cy="33.400574"
         sodipodi:cx="-449"
         id="path6599"
         style="fill:#ffffff;fill-opacity:1;stroke:none"
         sodipodi:type="arc" />
    </g>
    <text
       xml:space="preserve"
       x="92.910728"
       y="273.64783"
       id="text6605"
       style="font-size:72px;font-style:normal;font-variant:normal;font-weight:normal;font-stretch:normal;text-align:start;line-height:125%;writing-mode:lr-tb;text-anchor:start;font-family:Bitstream Vera Sans"
       sodipodi:linespacing="125%"><tspan
         sodipodi:role="line"
         id="tspan6607"
         x="92.910728"
         y="273.64783">1GK</tspan></text>
    <g
       id="g15767"
       transform="matrix(2.6032066,0,0,2.8861028,640.68034,341.30562)"
       inkscape:export-filename="/home/filips/svn/geokrety/rzeczy/logo/geokrety.png"
       inkscape:export-xdpi="12.747879"
       inkscape:export-ydpi="12.747879"
       inkscape:transform-center-x="4493.9063"
       inkscape:transform-center-y="177.81916">
      <polygon
         transform="matrix(1.8020893,-0.1634812,0.1634812,1.8020893,-298.8125,-111.4466)"
         style="fill:#ffffff;fill-rule:nonzero;stroke-linecap:round;stroke-linejoin:round"
         class="fil59"
         points="151.143,106.696 151.073,106.766 151.143,106.696 "
         id="polygon2819" />
      <polygon
         transform="matrix(1.8020893,-0.1634812,0.1634812,1.8020893,-298.8125,-111.4466)"
         style="fill:#ffffff;fill-rule:nonzero;stroke-linecap:round;stroke-linejoin:round"
         class="fil59"
         points="151.955,106.908 152.06,107.049 151.955,106.908 "
         id="polygon2821" />
      <polygon
         transform="matrix(1.8020893,-0.1634812,0.1634812,1.8020893,-298.8125,-111.4466)"
         style="fill:#ffffff;fill-rule:nonzero;stroke-linecap:round;stroke-linejoin:round"
         class="fil59"
         points="147.686,117.844 147.545,117.914 147.686,117.844 "
         id="polygon2823" />
      <path
         sodipodi:nodetypes="cssz"
         id="path2825"
         d="m -79.4383,41.734855 c 14.166534,10.522786 62.439949,41.109535 66.71835,48.713804 3.2108115,5.706773 -3.89314,16.477331 -9.351041,14.384241 -11.731525,-4.499 -6.467227,-10.177249 -55.860116,-47.492233"
         style="fill:#e9c642;fill-opacity:1;fill-rule:evenodd;stroke:#000000;stroke-width:2.81500006;stroke-linecap:round;stroke-linejoin:round;stroke-miterlimit:4;stroke-opacity:1;stroke-dasharray:none"
         inkscape:connector-curvature="0" />
      <path
         sodipodi:nodetypes="cscszczzzzzzzzzczzzzzz"
         id="path2827"
         d="m -77.634427,85.689881 c 2.408721,-1.226506 12.939032,-3.118291 15.15319,-5.982626 2.213632,-2.863656 0.673771,-6.331948 1.683447,-8.742457 2.588505,1.87902 7.006385,2.911647 8.503435,2.264835 1.403589,-0.606431 4.565552,-5.812915 4.591155,-7.858714 0.0256,-2.04581 -2.108874,-3.608583 -3.452125,-4.36546 5.518755,-3.45263 9.023845,-3.412184 12.957754,-2.509066 3.933908,0.903118 2.801672,3.17228 4.993173,4.51267 2.137927,1.307622 3.855342,0.634437 5.236815,1.903254 1.381473,1.268817 1.59096,3.419493 3.100317,5.078906 1.54619,1.699909 2.699042,0.910958 4.402758,3.024386 1.703718,2.113428 1.152637,3.302173 2.265548,5.649194 1.112912,2.347031 4.010794,1.233387 0.900084,7.023559 -3.016739,5.615246 -6.636336,8.593987 -9.129576,10.47616 -2.555515,1.929192 -8.417417,3.643596 -9.712323,2.465077 -1.544493,-1.405679 -0.879222,-1.290503 -0.427776,-2.663455 -1.249784,0.509377 -1.909006,1.111458 -4.28511,1.507008 -2.376103,0.395551 -2.905064,-0.276457 -3.881857,-1.519843 -0.976792,-1.243385 1.211515,-4.105887 -0.02531,-3.453687 -1.236827,0.6522 -1.104322,3.700164 -4.921997,6.062489 -3.817676,2.362319 -9.784381,5.126609 -14.572295,5.920949 -4.787914,0.79434 -7.818884,-2.34168 -10.019623,-2.39404"
         style="fill:#d4af8b;fill-opacity:1;fill-rule:evenodd;stroke:#000000;stroke-width:2.81500006;stroke-linecap:round;stroke-linejoin:round;stroke-miterlimit:4;stroke-opacity:1;stroke-dasharray:none"
         inkscape:connector-curvature="0" />
      <path
         sodipodi:nodetypes="cszz"
         id="path2829"
         d="m -57.646164,81.235683 c 6.500719,6.193742 16.720927,15.316309 24.957686,14.41743 3.833164,-0.417431 -3.065037,-14.001546 -8.506871,-19.288346 -5.441835,-5.2868 -12.76538,-2.220502 -14.764733,-0.983328"
         style="fill:none;stroke:#000000;stroke-width:2.81500006;stroke-linecap:round;stroke-linejoin:round;stroke-miterlimit:4;stroke-opacity:1;stroke-dasharray:none"
         inkscape:connector-curvature="0" />
      <path
         sodipodi:nodetypes="cz"
         id="path2831"
         d="m -40.681261,76.212549 c 1.420936,-0.482189 4.229567,-3.725935 4.790052,-8.880885"
         style="fill:none;stroke:#000000;stroke-width:2.81500006;stroke-linecap:round;stroke-linejoin:round;stroke-miterlimit:4;stroke-opacity:1;stroke-dasharray:none"
         inkscape:connector-curvature="0" />
      <path
         sodipodi:nodetypes="cz"
         id="path2833"
         d="m -34.331917,85.085243 c 2.799883,-3.154138 5.977366,-7.2047 6.565604,-10.814675"
         style="fill:none;stroke:#000000;stroke-width:2.81500006;stroke-linecap:round;stroke-linejoin:round;stroke-miterlimit:4;stroke-opacity:1;stroke-dasharray:none"
         inkscape:connector-curvature="0" />
      <path
         sodipodi:nodetypes="cz"
         id="path2835"
         d="m -31.269709,93.835147 c 4.690897,-3.274157 7.922336,-7.190059 9.413912,-11.345162"
         style="fill:none;stroke:#000000;stroke-width:2.81500006;stroke-linecap:round;stroke-linejoin:round;stroke-miterlimit:4;stroke-opacity:1;stroke-dasharray:none"
         inkscape:connector-curvature="0" />
      <g
         transform="matrix(0.702831,0.03716355,-0.03716355,0.702831,-275.97308,-686.68328)"
         id="g2837">
        <path
           style="fill:#667b58;fill-opacity:1;fill-rule:evenodd;stroke:#000000;stroke-width:4;stroke-linecap:butt;stroke-linejoin:round;stroke-miterlimit:4;stroke-opacity:1;stroke-dasharray:none"
           d="m 291.29335,966.00527 -38.67718,74.17803 -46.89842,-14.3872 -55.30649,-53.9986 72.6832,-27.65324 68.19889,21.86101 z"
           id="path2839"
           sodipodi:nodetypes="cccccc"
           inkscape:connector-curvature="0" />
        <path
           style="fill:#c5c5c5;fill-opacity:1;fill-rule:evenodd;stroke:#000000;stroke-width:4;stroke-linecap:butt;stroke-linejoin:round;stroke-miterlimit:4;stroke-opacity:1;stroke-dasharray:none"
           d="m 205.71775,1025.7961 -55.30649,-53.99861 72.6832,-27.65324 22.32769,7.48955 -67.75283,25.49589 49.30784,55.01851 -21.25941,-6.3521 z"
           id="path2841"
           sodipodi:nodetypes="ccccccc"
           inkscape:connector-curvature="0" />
        <path
           style="fill:#667b58;fill-opacity:1;fill-rule:evenodd;stroke:#000000;stroke-width:4;stroke-linecap:butt;stroke-linejoin:round;stroke-miterlimit:4;stroke-opacity:1;stroke-dasharray:none"
           d="m 288.17968,1000.584 -9.19725,19.6482 c -15.20275,-9.8073 -61.66295,-27.49538 -52.39566,-36.46449 9.41223,-9.10938 38.41597,3.77386 61.59291,16.81629 z"
           id="path2843"
           sodipodi:nodetypes="cczc"
           inkscape:connector-curvature="0" />
      </g>
      <path
         sodipodi:nodetypes="cccszscccczzc"
         id="path2845"
         d="m -64.623652,62.930554 c -1.833032,5.249107 -3.216735,26.673946 3.487414,42.706946 -54.837912,-1.82435 -58.029622,-21.902761 -99.074052,-30.768524 5.65714,-13.38255 12.95269,-20.428741 24.89259,-29.952724 5.335,-4.25552 11.86126,-12.186872 17.05478,-17.298454 5.19352,-5.111582 9.53547,-8.730959 15.56982,-11.276631 11.124023,-4.692817 26.888039,-3.517226 36.515007,5.106092 -2.855221,0.67932 -9.769451,-0.106276 -9.716264,4.949212 0.504711,5.707501 -4.00611,8.31006 -7.965959,11.344197 -2.577975,2.670619 -1.099721,6.782012 -4.917512,8.319702 -0.179423,4.572814 1.595234,8.986424 4.191924,13.041724 2.711178,4.234068 5.528851,6.960921 9.378074,9.460301 3.849223,2.499451 8.13683,-2.757961 10.584178,-5.631841 z"
         style="fill:#5d5d5d;fill-opacity:1;fill-rule:evenodd;stroke:#000000;stroke-width:2.81525159;stroke-linecap:butt;stroke-linejoin:round;stroke-miterlimit:4;stroke-opacity:1;stroke-dasharray:none"
         inkscape:connector-curvature="0" />
      <path
         sodipodi:nodetypes="ccccczzczccczz"
         id="path2847"
         d="m -64.873618,62.627422 c -3.234886,3.505552 -6.734955,8.131291 -10.584178,5.631841 -3.849223,-2.499381 -6.666896,-5.226233 -9.378075,-9.460301 -2.596689,-4.0553 -4.371346,-8.468911 -4.191923,-13.041724 3.817791,-1.53769 2.339537,-5.649084 4.917512,-8.319702 3.959849,-3.034137 8.47067,-5.636696 7.965959,-11.344197 -0.05319,-5.055558 7.977233,-4.210983 9.902239,-4.112379 2.017754,0.103391 13.131966,1.544025 16.776535,1.335345 2.522226,-1.789093 5.235235,-4.766221 6.888597,-5.795055 1.610295,-1.002018 3.7485,-3.5071 5.782773,-2.769574 6.354466,0.417924 4.815143,7.671912 4.470169,12.440034 -0.914535,6.239231 -9.324015,7.929015 -17.676409,14.092234 -6.190816,4.704215 -5.649379,5.090749 -9.367679,10.426636 -3.7183,5.335887 -2.270634,7.411291 -5.50552,10.916842 z"
         style="fill:#d4af8b;fill-opacity:1;fill-rule:evenodd;stroke:#000000;stroke-width:2.81525159;stroke-linecap:butt;stroke-linejoin:round;stroke-miterlimit:4;stroke-opacity:1;stroke-dasharray:none"
         inkscape:connector-curvature="0" />
      <path
         sodipodi:nodetypes="cc"
         id="path2849"
         d="m -38.082516,21.963435 c 0.130325,3.192144 -1.02889,5.320404 -2.876223,6.111982"
         style="fill:none;stroke:#000000;stroke-width:3.51906443;stroke-linecap:round;stroke-linejoin:miter;stroke-miterlimit:4;stroke-opacity:1;stroke-dasharray:none"
         inkscape:connector-curvature="0" />
      <path
         sodipodi:nodetypes="cccccccc"
         style="fill:#000000;fill-rule:nonzero;stroke:#000000;stroke-width:2.81525159;stroke-linecap:round;stroke-linejoin:round;stroke-miterlimit:4;stroke-opacity:1;stroke-dasharray:none"
         class="fil58"
         d="m -70.035044,50.037617 c 1.103649,-0.03667 6.995956,-2.642888 7.790068,-3.043428 -1.904968,3.307991 -3.37726,4.006526 -5.341658,8.280218 -0.865451,2.3589 -2.413797,5.463489 -4.956321,7.032499 -3.764266,-2.747475 -4.090349,-8.114048 -5.829401,-12.162732 -4.741066,-3.039838 -7.936454,-8.246857 -12.254086,-7.461191 -1.026335,-2.372271 0.553795,-4.245399 0.602745,-6.429753 1.980741,10.256525 14.423238,13.904809 19.988653,13.784387 z"
         id="path2851"
         inkscape:connector-curvature="0" />
      <path
         style="fill:#ffffff;fill-rule:nonzero"
         class="fil59"
         d="m -68.470517,56.305845 c -0.66067,0.561995 -5.59841,0.787708 -6.762024,0.516388 -0.456422,-1.010957 -0.830569,-4.041364 -1.46562,-5.247137 0.88413,0.02203 9.091644,0.729432 11.844327,-1.699004 -1.183532,1.195356 -3.996391,6.56397 -3.616683,6.429753 l 0,0 z"
         id="path2853"
         inkscape:connector-curvature="0" />
      <path
         sodipodi:nodetypes="czzc"
         id="path2855"
         d="m -96.300004,30.03441 c 3.552319,-1.028341 4.243027,-2.89063 7.362643,-4.113435 3.119615,-1.222804 3.132579,-1.032634 5.115826,-0.777713 1.983246,0.254921 2.817158,1.797468 2.817158,1.797468"
         style="fill:none;stroke:#000000;stroke-width:2.81500006;stroke-linecap:round;stroke-linejoin:round;stroke-miterlimit:4;stroke-opacity:1;stroke-dasharray:none"
         inkscape:connector-curvature="0" />
    </g>
    <text
       xml:space="preserve"
       style="font-size:40px;font-style:normal;font-variant:normal;font-weight:normal;font-stretch:normal;line-height:125%;letter-spacing:0px;word-spacing:0px;fill:#000000;fill-opacity:1;stroke:none;font-family:Ubuntu;-inkscape-font-specification:Ubuntu"
       x="98.571419"
       y="692.36224"
       id="text3558"
       sodipodi:linespacing="125%"><tspan
         sodipodi:role="line"
         id="tspan3560"
         x="98.571419"
         y="692.36224">Tracking code:</tspan></text>
    <text
       xml:space="preserve"
       style="font-size:40px;font-style:normal;font-variant:normal;font-weight:normal;font-stretch:normal;line-height:125%;letter-spacing:0px;word-spacing:0px;fill:#000000;fill-opacity:1;stroke:none;font-family:Ubuntu;-inkscape-font-specification:Ubuntu"
       x="91.428574"
       y="775.21936"
       id="text5106"
       sodipodi:linespacing="125%"><tspan
         sodipodi:role="line"
         id="tspan5108"
         x="91.428574"
         y="775.21936"
         style="font-size:72px">{$tracking}</tspan></text>
    <text
       xml:space="preserve"
       style="font-size:40px;font-style:normal;font-variant:normal;font-weight:normal;font-stretch:normal;line-height:125%;letter-spacing:0px;word-spacing:0px;fill:#000000;fill-opacity:1;stroke:none;font-family:Ubuntu;-inkscape-font-specification:Ubuntu"
       x="208.80981"
       y="-638.88641"
       id="text5229"
       sodipodi:linespacing="125%"
       transform="matrix(-0.0037012,0.99999315,-0.99999315,-0.0037012,0,0)"><tspan
         sodipodi:role="line"
         id="tspan5231"
         x="208.80981"
         y="-638.88641"
         style="fill:#000000">Trackable at geokrety.org</tspan></text>
  </g>
</svg>
