<?xml version="1.0" encoding="UTF-8" standalone="no"?>
<svg
   xmlns:dc="http://purl.org/dc/elements/1.1/"
   xmlns:cc="http://creativecommons.org/ns#"
   xmlns:rdf="http://www.w3.org/1999/02/22-rdf-syntax-ns#"
   xmlns:svg="http://www.w3.org/2000/svg"
   xmlns="http://www.w3.org/2000/svg"
   xmlns:xlink="http://www.w3.org/1999/xlink"
   xmlns:sodipodi="http://sodipodi.sourceforge.net/DTD/sodipodi-0.dtd"
   xmlns:inkscape="http://www.inkscape.org/namespaces/inkscape"
   width="31.499886mm"
   height="45.500065mm"
   viewBox="0 0 31.499888 45.500064"
   version="1.1"
   id="svg8"
   inkscape:version="1.0 (4035a4fb49, 2020-05-01)"
   sodipodi:docname="stamp.orange.svg">
  <defs
     id="defs2">
    <rect
       x="168.45026"
       y="-4.6536322"
       width="39.82695"
       height="2.3167109"
       id="rect3801" />
    <clipPath
       clipPathUnits="userSpaceOnUse"
       id="clipPath7263">
      <rect
         ry="1.5634148"
         y="91.850594"
         x="-73.715118"
         height="8.1672974"
         width="24.934628"
         id="rect7265"
         style="display:inline;fill:#ff0000;fill-opacity:0.351308;stroke:#000000;stroke-width:0.25278;stroke-linejoin:round;stroke-miterlimit:4;stroke-dasharray:0.758338, 0.25278;stroke-dashoffset:2.5278;stroke-opacity:1" />
    </clipPath>
  </defs>
  <sodipodi:namedview
     inkscape:snap-bbox="true"
     inkscape:snap-global="true"
     id="base"
     pagecolor="#ffffff"
     bordercolor="#666666"
     borderopacity="1.0"
     inkscape:pageopacity="0.0"
     inkscape:pageshadow="2"
     inkscape:zoom="2.8284271"
     inkscape:cx="39.75418"
     inkscape:cy="102.67897"
     inkscape:document-units="mm"
     inkscape:current-layer="layer1"
     inkscape:document-rotation="0"
     showgrid="false"
     fit-margin-top="0"
     fit-margin-left="0"
     fit-margin-right="0"
     fit-margin-bottom="0"
     inkscape:window-width="1920"
     inkscape:window-height="1043"
     inkscape:window-x="1920"
     inkscape:window-y="0"
     inkscape:window-maximized="1"
     showguides="true"
     inkscape:guide-bbox="true"
     inkscape:snap-bbox-midpoints="false"
     inkscape:bbox-nodes="true"
     inkscape:snap-page="true"
     inkscape:bbox-paths="true"
     inkscape:snap-bbox-edge-midpoints="true">
    <sodipodi:guide
       id="guide1686"
       orientation="1,0"
       position="73.833251,24.078672" />
    <sodipodi:guide
       id="guide1690"
       orientation="1,0"
       position="73.833255,26.146762" />
    <sodipodi:guide
       id="guide1692"
       orientation="1,0"
       position="72.332388,22.745463" />
    <sodipodi:guide
       id="guide1696"
       orientation="1,0"
       position="73.083176,1.500167" />
    <sodipodi:guide
       id="guide1700"
       orientation="1,0"
       position="43.694523,45.500069" />
    <sodipodi:guide
       id="guide1702"
       orientation="1,0"
       position="43.071823,45.500063" />
  </sodipodi:namedview>
  <metadata
     id="metadata5">
    <rdf:RDF>
      <cc:Work
         rdf:about="">
        <dc:format>image/svg+xml</dc:format>
        <dc:type
           rdf:resource="http://purl.org/dc/dcmitype/StillImage" />
        <dc:title></dc:title>
      </cc:Work>
    </rdf:RDF>
  </metadata>
  <g
     inkscape:label="Background"
     inkscape:groupmode="layer"
     id="layer1"
     transform="translate(335.58577,57.548806)"
     style="display:inline">
    <g
       style="opacity:1;fill:#ff6600"
       id="g1715">
      <path
         id="path1717"
         d="m -334.84152,-56.804028 h 30.01138 v 44.010506 h -30.01138 z"
         style="color:#000000;font-style:normal;font-variant:normal;font-weight:normal;font-stretch:normal;font-size:medium;line-height:normal;font-family:sans-serif;font-variant-ligatures:normal;font-variant-position:normal;font-variant-caps:normal;font-variant-numeric:normal;font-variant-alternates:normal;font-variant-east-asian:normal;font-feature-settings:normal;font-variation-settings:normal;text-indent:0;text-align:start;text-decoration:none;text-decoration-line:none;text-decoration-style:solid;text-decoration-color:#000000;letter-spacing:normal;word-spacing:normal;text-transform:none;writing-mode:lr-tb;direction:ltr;text-orientation:mixed;dominant-baseline:auto;baseline-shift:baseline;text-anchor:start;white-space:normal;shape-padding:0;shape-margin:0;inline-size:0;clip-rule:nonzero;display:inline;overflow:visible;visibility:visible;isolation:auto;mix-blend-mode:normal;color-interpolation:sRGB;color-interpolation-filters:linearRGB;solid-color:#000000;solid-opacity:1;vector-effect:none;fill:#ff6600;fill-opacity:0.351308;fill-rule:nonzero;stroke:none;stroke-width:1.5;stroke-linecap:butt;stroke-linejoin:miter;stroke-miterlimit:4;stroke-dasharray:none;stroke-dashoffset:0;stroke-opacity:1;color-rendering:auto;image-rendering:auto;shape-rendering:auto;text-rendering:auto;enable-background:accumulate;stop-color:#000000;stop-opacity:1" />
      <path
         transform="matrix(0.26458333,0,0,0.26458333,-335.58577,-57.548806)"
         d="M 2.8125 -0.021484375 A 2.8348169 2.8743468 0 0 1 2.8125 0 A 2.8348169 2.8743468 0 0 1 -0.0234375 2.875 L -0.0234375 6.1757812 A 2.8348169 2.8743468 0 0 1 2.8125 9.0507812 A 2.8348169 2.8743468 0 0 1 -0.0234375 11.925781 L -0.0234375 15.228516 A 2.8348169 2.8743468 0 0 1 2.8125 18.101562 A 2.8348169 2.8743468 0 0 1 -0.0234375 20.976562 L -0.0234375 24.279297 A 2.8348169 2.8743468 0 0 1 2.8125 27.152344 A 2.8348169 2.8743468 0 0 1 -0.0234375 30.027344 L -0.0234375 33.330078 A 2.8348169 2.8743468 0 0 1 2.8125 36.203125 A 2.8348169 2.8743468 0 0 1 -0.0234375 39.078125 L -0.0234375 42.380859 A 2.8348169 2.8743468 0 0 1 2.8125 45.255859 A 2.8348169 2.8743468 0 0 1 -0.0234375 48.128906 L -0.0234375 51.431641 A 2.8348169 2.8743468 0 0 1 2.8125 54.306641 A 2.8348169 2.8743468 0 0 1 -0.0234375 57.179688 L -0.0234375 60.482422 A 2.8348169 2.8743468 0 0 1 2.8125 63.357422 A 2.8348169 2.8743468 0 0 1 -0.0234375 66.230469 L -0.0234375 69.533203 A 2.8348169 2.8743468 0 0 1 2.8125 72.408203 A 2.8348169 2.8743468 0 0 1 -0.0234375 75.283203 L -0.0234375 78.583984 A 2.8348169 2.8743468 0 0 1 2.8125 81.458984 A 2.8348169 2.8743468 0 0 1 -0.0234375 84.333984 L -0.0234375 87.634766 A 2.8348169 2.8743468 0 0 1 2.8125 90.509766 A 2.8348169 2.8743468 0 0 1 -0.0234375 93.384766 L -0.0234375 96.685547 A 2.8348169 2.8743468 0 0 1 2.8125 99.560547 A 2.8348169 2.8743468 0 0 1 -0.0234375 102.43555 L -0.0234375 105.73828 A 2.8348169 2.8743468 0 0 1 2.8125 108.61133 A 2.8348169 2.8743468 0 0 1 -0.0234375 111.48633 L -0.0234375 114.78906 A 2.8348169 2.8743468 0 0 1 2.8125 117.66211 A 2.8348169 2.8743468 0 0 1 -0.0234375 120.53711 L -0.0234375 123.83984 A 2.8348169 2.8743468 0 0 1 2.8125 126.71289 A 2.8348169 2.8743468 0 0 1 -0.0234375 129.58789 L -0.0234375 132.89062 A 2.8348169 2.8743468 0 0 1 2.8125 135.76562 A 2.8348169 2.8743468 0 0 1 -0.0234375 138.63867 L -0.0234375 141.94141 A 2.8348169 2.8743468 0 0 1 2.8125 144.81641 A 2.8348169 2.8743468 0 0 1 -0.0234375 147.68945 L -0.0234375 150.99219 A 2.8348169 2.8743468 0 0 1 2.8125 153.86719 A 2.8348169 2.8743468 0 0 1 -0.0234375 156.74023 L -0.0234375 160.04297 A 2.8348169 2.8743468 0 0 1 2.8125 162.91797 A 2.8348169 2.8743468 0 0 1 -0.0234375 165.79297 L -0.0234375 169.09375 A 2.8348169 2.8743468 0 0 1 0 169.09375 A 2.8348169 2.8743468 0 0 1 2.8339844 171.96875 A 2.8348169 2.8743468 0 0 1 2.8339844 171.99023 L 5.6484375 171.99023 A 2.8348169 2.8743468 0 0 1 5.6484375 171.96875 A 2.8348169 2.8743468 0 0 1 8.4824219 169.09375 A 2.8348169 2.8743468 0 0 1 11.318359 171.96875 A 2.8348169 2.8743468 0 0 1 11.318359 171.99023 L 14.154297 171.99023 A 2.8348169 2.8743468 0 0 1 14.154297 171.96875 A 2.8348169 2.8743468 0 0 1 16.988281 169.09375 A 2.8348169 2.8743468 0 0 1 19.822266 171.96875 A 2.8348169 2.8743468 0 0 1 19.822266 171.99023 L 22.658203 171.99023 A 2.8348169 2.8743468 0 0 1 22.658203 171.96875 A 2.8348169 2.8743468 0 0 1 25.494141 169.09375 A 2.8348169 2.8743468 0 0 1 28.328125 171.96875 A 2.8348169 2.8743468 0 0 1 28.328125 171.99023 L 31.164062 171.99023 A 2.8348169 2.8743468 0 0 1 31.164062 171.96875 A 2.8348169 2.8743468 0 0 1 34 169.09375 A 2.8348169 2.8743468 0 0 1 36.833984 171.96875 A 2.8348169 2.8743468 0 0 1 36.833984 171.99023 L 39.669922 171.99023 A 2.8348169 2.8743468 0 0 1 39.669922 171.96875 A 2.8348169 2.8743468 0 0 1 42.503906 169.09375 A 2.8348169 2.8743468 0 0 1 45.339844 171.96875 A 2.8348169 2.8743468 0 0 1 45.339844 171.99023 L 48.175781 171.99023 A 2.8348169 2.8743468 0 0 1 48.175781 171.96875 A 2.8348169 2.8743468 0 0 1 51.009766 169.09375 A 2.8348169 2.8743468 0 0 1 53.845703 171.96875 A 2.8348169 2.8743468 0 0 1 53.845703 171.99023 L 56.681641 171.99023 A 2.8348169 2.8743468 0 0 1 56.681641 171.96875 A 2.8348169 2.8743468 0 0 1 59.515625 169.09375 A 2.8348169 2.8743468 0 0 1 62.351562 171.96875 A 2.8348169 2.8743468 0 0 1 62.351562 171.99023 L 65.1875 171.99023 A 2.8348169 2.8743468 0 0 1 65.1875 171.96875 A 2.8348169 2.8743468 0 0 1 68.021484 169.09375 A 2.8348169 2.8743468 0 0 1 70.855469 171.96875 A 2.8348169 2.8743468 0 0 1 70.855469 171.99023 L 73.691406 171.99023 A 2.8348169 2.8743468 0 0 1 73.691406 171.96875 A 2.8348169 2.8743468 0 0 1 76.527344 169.09375 A 2.8348169 2.8743468 0 0 1 79.361328 171.96875 A 2.8348169 2.8743468 0 0 1 79.361328 171.99023 L 82.197266 171.99023 A 2.8348169 2.8743468 0 0 1 82.197266 171.96875 A 2.8348169 2.8743468 0 0 1 85.033203 169.09375 A 2.8348169 2.8743468 0 0 1 87.867188 171.96875 A 2.8348169 2.8743468 0 0 1 87.867188 171.99023 L 90.703125 171.99023 A 2.8348169 2.8743468 0 0 1 90.703125 171.96875 A 2.8348169 2.8743468 0 0 1 93.537109 169.09375 A 2.8348169 2.8743468 0 0 1 96.373047 171.96875 A 2.8348169 2.8743468 0 0 1 96.373047 171.99023 L 99.208984 171.99023 A 2.8348169 2.8743468 0 0 1 99.208984 171.96875 A 2.8348169 2.8743468 0 0 1 102.04297 169.09375 A 2.8348169 2.8743468 0 0 1 104.87891 171.96875 A 2.8348169 2.8743468 0 0 1 104.87891 171.99023 L 107.71484 171.99023 A 2.8348169 2.8743468 0 0 1 107.71484 171.96875 A 2.8348169 2.8743468 0 0 1 110.54883 169.09375 A 2.8348169 2.8743468 0 0 1 113.38477 171.96875 A 2.8348169 2.8743468 0 0 1 113.38477 171.99023 L 116.2207 171.99023 A 2.8348169 2.8743468 0 0 1 116.2207 171.96875 A 2.8348169 2.8743468 0 0 1 119.05469 169.09375 A 2.8348169 2.8743468 0 0 1 119.07617 169.09375 L 119.07617 165.79297 A 2.8348169 2.8743468 0 0 1 119.05469 165.79297 A 2.8348169 2.8743468 0 0 1 116.2207 162.91797 A 2.8348169 2.8743468 0 0 1 119.05469 160.04297 A 2.8348169 2.8743468 0 0 1 119.07617 160.04297 L 119.07617 156.74023 A 2.8348169 2.8743468 0 0 1 119.05469 156.74023 A 2.8348169 2.8743468 0 0 1 116.2207 153.86719 A 2.8348169 2.8743468 0 0 1 119.05469 150.99219 A 2.8348169 2.8743468 0 0 1 119.07617 150.99219 L 119.07617 147.68945 A 2.8348169 2.8743468 0 0 1 119.05469 147.68945 A 2.8348169 2.8743468 0 0 1 116.2207 144.81641 A 2.8348169 2.8743468 0 0 1 119.05469 141.94141 A 2.8348169 2.8743468 0 0 1 119.07617 141.94141 L 119.07617 138.63867 A 2.8348169 2.8743468 0 0 1 119.05469 138.63867 A 2.8348169 2.8743468 0 0 1 116.2207 135.76562 A 2.8348169 2.8743468 0 0 1 119.05469 132.89062 A 2.8348169 2.8743468 0 0 1 119.07617 132.89062 L 119.07617 129.58789 A 2.8348169 2.8743468 0 0 1 119.05469 129.58789 A 2.8348169 2.8743468 0 0 1 116.2207 126.71289 A 2.8348169 2.8743468 0 0 1 119.05469 123.83984 A 2.8348169 2.8743468 0 0 1 119.07617 123.83984 L 119.07617 120.53711 A 2.8348169 2.8743468 0 0 1 119.05469 120.53711 A 2.8348169 2.8743468 0 0 1 116.2207 117.66211 A 2.8348169 2.8743468 0 0 1 119.05469 114.78906 A 2.8348169 2.8743468 0 0 1 119.07617 114.78906 L 119.07617 111.48633 A 2.8348169 2.8743468 0 0 1 119.05469 111.48633 A 2.8348169 2.8743468 0 0 1 116.2207 108.61133 A 2.8348169 2.8743468 0 0 1 119.05469 105.73828 A 2.8348169 2.8743468 0 0 1 119.07617 105.73828 L 119.07617 102.43555 A 2.8348169 2.8743468 0 0 1 119.05469 102.43555 A 2.8348169 2.8743468 0 0 1 116.2207 99.560547 A 2.8348169 2.8743468 0 0 1 119.05469 96.685547 A 2.8348169 2.8743468 0 0 1 119.07617 96.685547 L 119.07617 93.384766 A 2.8348169 2.8743468 0 0 1 119.05469 93.384766 A 2.8348169 2.8743468 0 0 1 116.2207 90.509766 A 2.8348169 2.8743468 0 0 1 119.05469 87.634766 A 2.8348169 2.8743468 0 0 1 119.07617 87.634766 L 119.07617 84.333984 A 2.8348169 2.8743468 0 0 1 119.05469 84.333984 A 2.8348169 2.8743468 0 0 1 116.2207 81.458984 A 2.8348169 2.8743468 0 0 1 119.05469 78.583984 A 2.8348169 2.8743468 0 0 1 119.07617 78.583984 L 119.07617 75.283203 A 2.8348169 2.8743468 0 0 1 119.05469 75.283203 A 2.8348169 2.8743468 0 0 1 116.2207 72.408203 A 2.8348169 2.8743468 0 0 1 119.05469 69.533203 A 2.8348169 2.8743468 0 0 1 119.07617 69.533203 L 119.07617 66.230469 A 2.8348169 2.8743468 0 0 1 119.05469 66.230469 A 2.8348169 2.8743468 0 0 1 116.2207 63.357422 A 2.8348169 2.8743468 0 0 1 119.05469 60.482422 A 2.8348169 2.8743468 0 0 1 119.07617 60.482422 L 119.07617 57.179688 A 2.8348169 2.8743468 0 0 1 119.05469 57.179688 A 2.8348169 2.8743468 0 0 1 116.2207 54.306641 A 2.8348169 2.8743468 0 0 1 119.05469 51.431641 A 2.8348169 2.8743468 0 0 1 119.07617 51.431641 L 119.07617 48.128906 A 2.8348169 2.8743468 0 0 1 119.05469 48.128906 A 2.8348169 2.8743468 0 0 1 116.2207 45.255859 A 2.8348169 2.8743468 0 0 1 119.05469 42.380859 A 2.8348169 2.8743468 0 0 1 119.07617 42.380859 L 119.07617 39.078125 A 2.8348169 2.8743468 0 0 1 119.05469 39.078125 A 2.8348169 2.8743468 0 0 1 116.2207 36.203125 A 2.8348169 2.8743468 0 0 1 119.05469 33.330078 A 2.8348169 2.8743468 0 0 1 119.07617 33.330078 L 119.07617 30.027344 A 2.8348169 2.8743468 0 0 1 119.05469 30.027344 A 2.8348169 2.8743468 0 0 1 116.2207 27.152344 A 2.8348169 2.8743468 0 0 1 119.05469 24.279297 A 2.8348169 2.8743468 0 0 1 119.07617 24.279297 L 119.07617 20.976562 A 2.8348169 2.8743468 0 0 1 119.05469 20.976562 A 2.8348169 2.8743468 0 0 1 116.2207 18.101562 A 2.8348169 2.8743468 0 0 1 119.05469 15.228516 A 2.8348169 2.8743468 0 0 1 119.07617 15.228516 L 119.07617 11.925781 A 2.8348169 2.8743468 0 0 1 119.05469 11.925781 A 2.8348169 2.8743468 0 0 1 116.2207 9.0507812 A 2.8348169 2.8743468 0 0 1 119.05469 6.1757812 A 2.8348169 2.8743468 0 0 1 119.07617 6.1757812 L 119.07617 2.875 A 2.8348169 2.8743468 0 0 1 119.05469 2.875 A 2.8348169 2.8743468 0 0 1 116.2207 0 A 2.8348169 2.8743468 0 0 1 116.2207 -0.021484375 L 113.38477 -0.021484375 A 2.8348169 2.8743468 0 0 1 113.38477 0 A 2.8348169 2.8743468 0 0 1 110.54883 2.875 A 2.8348169 2.8743468 0 0 1 107.71484 0 A 2.8348169 2.8743468 0 0 1 107.71484 -0.021484375 L 104.87891 -0.021484375 A 2.8348169 2.8743468 0 0 1 104.87891 0 A 2.8348169 2.8743468 0 0 1 102.04297 2.875 A 2.8348169 2.8743468 0 0 1 99.208984 0 A 2.8348169 2.8743468 0 0 1 99.208984 -0.021484375 L 96.373047 -0.021484375 A 2.8348169 2.8743468 0 0 1 96.373047 0 A 2.8348169 2.8743468 0 0 1 93.537109 2.875 A 2.8348169 2.8743468 0 0 1 90.703125 0 A 2.8348169 2.8743468 0 0 1 90.703125 -0.021484375 L 87.867188 -0.021484375 A 2.8348169 2.8743468 0 0 1 87.867188 0 A 2.8348169 2.8743468 0 0 1 85.033203 2.875 A 2.8348169 2.8743468 0 0 1 82.197266 0 A 2.8348169 2.8743468 0 0 1 82.197266 -0.021484375 L 79.361328 -0.021484375 A 2.8348169 2.8743468 0 0 1 79.361328 0 A 2.8348169 2.8743468 0 0 1 76.527344 2.875 A 2.8348169 2.8743468 0 0 1 73.691406 0 A 2.8348169 2.8743468 0 0 1 73.691406 -0.021484375 L 70.855469 -0.021484375 A 2.8348169 2.8743468 0 0 1 70.855469 0 A 2.8348169 2.8743468 0 0 1 68.021484 2.875 A 2.8348169 2.8743468 0 0 1 65.1875 0 A 2.8348169 2.8743468 0 0 1 65.1875 -0.021484375 L 62.351562 -0.021484375 A 2.8348169 2.8743468 0 0 1 62.351562 0 A 2.8348169 2.8743468 0 0 1 59.515625 2.875 A 2.8348169 2.8743468 0 0 1 56.681641 0 A 2.8348169 2.8743468 0 0 1 56.681641 -0.021484375 L 53.845703 -0.021484375 A 2.8348169 2.8743468 0 0 1 53.845703 0 A 2.8348169 2.8743468 0 0 1 51.009766 2.875 A 2.8348169 2.8743468 0 0 1 48.175781 0 A 2.8348169 2.8743468 0 0 1 48.175781 -0.021484375 L 45.339844 -0.021484375 A 2.8348169 2.8743468 0 0 1 45.339844 0 A 2.8348169 2.8743468 0 0 1 42.503906 2.875 A 2.8348169 2.8743468 0 0 1 39.669922 0 A 2.8348169 2.8743468 0 0 1 39.669922 -0.021484375 L 36.833984 -0.021484375 A 2.8348169 2.8743468 0 0 1 36.833984 0 A 2.8348169 2.8743468 0 0 1 34 2.875 A 2.8348169 2.8743468 0 0 1 31.164062 0 A 2.8348169 2.8743468 0 0 1 31.164062 -0.021484375 L 28.328125 -0.021484375 A 2.8348169 2.8743468 0 0 1 28.328125 0 A 2.8348169 2.8743468 0 0 1 25.494141 2.875 A 2.8348169 2.8743468 0 0 1 22.658203 0 A 2.8348169 2.8743468 0 0 1 22.658203 -0.021484375 L 19.822266 -0.021484375 A 2.8348169 2.8743468 0 0 1 19.822266 0 A 2.8348169 2.8743468 0 0 1 16.988281 2.875 A 2.8348169 2.8743468 0 0 1 14.154297 0 A 2.8348169 2.8743468 0 0 1 14.154297 -0.021484375 L 11.318359 -0.021484375 A 2.8348169 2.8743468 0 0 1 11.318359 0 A 2.8348169 2.8743468 0 0 1 8.4824219 2.875 A 2.8348169 2.8743468 0 0 1 5.6484375 0 A 2.8348169 2.8743468 0 0 1 5.6484375 -0.021484375 L 2.8125 -0.021484375 z M 5.6464844 5.6464844 L 113.4082 5.6464844 L 113.4082 166.32031 L 5.6464844 166.32031 L 5.6464844 5.6464844 z "
         style="color:#000000;font-style:normal;font-variant:normal;font-weight:normal;font-stretch:normal;font-size:medium;line-height:normal;font-family:sans-serif;font-variant-ligatures:normal;font-variant-position:normal;font-variant-caps:normal;font-variant-numeric:normal;font-variant-alternates:normal;font-variant-east-asian:normal;font-feature-settings:normal;font-variation-settings:normal;text-indent:0;text-align:start;text-decoration:none;text-decoration-line:none;text-decoration-style:solid;text-decoration-color:#000000;letter-spacing:normal;word-spacing:normal;text-transform:none;writing-mode:lr-tb;direction:ltr;text-orientation:mixed;dominant-baseline:auto;baseline-shift:baseline;text-anchor:start;white-space:normal;shape-padding:0;shape-margin:0;inline-size:0;clip-rule:nonzero;display:inline;overflow:visible;visibility:visible;isolation:auto;mix-blend-mode:normal;color-interpolation:sRGB;color-interpolation-filters:linearRGB;solid-color:#000000;solid-opacity:1;vector-effect:none;fill:#ff6600;fill-opacity:1;fill-rule:nonzero;stroke:none;stroke-width:5.66929;stroke-linecap:butt;stroke-linejoin:miter;stroke-miterlimit:4;stroke-dasharray:none;stroke-dashoffset:0;stroke-opacity:1;color-rendering:auto;image-rendering:auto;shape-rendering:auto;text-rendering:auto;enable-background:accumulate;stop-color:#000000;stop-opacity:1"
         id="path1719" />
    </g>
    <text
       id="text960"
       y="-21.26009"
       x="-319.75659"
       style="font-style:normal;font-weight:normal;font-size:2.82222px;line-height:1.25;font-family:sans-serif;text-align:center;letter-spacing:0px;word-spacing:0px;text-anchor:middle;display:inline;fill:#000000;fill-opacity:1;stroke:none;stroke-width:0.264583"
       xml:space="preserve"><tspan
         style="font-size:2.82222px;text-align:center;text-anchor:middle;stroke-width:0.264583"
         y="-21.26009"
         x="-319.75659"
         id="tspan958"
         sodipodi:role="line">Tracking code</tspan></text>
    <text
       xml:space="preserve"
       style="font-style:normal;font-weight:normal;font-size:1.76389px;line-height:1.25;font-family:sans-serif;text-align:center;text-anchor:middle;white-space:pre;inline-size:76.1922;display:inline;fill:#000000;fill-opacity:1;stroke:none;stroke-width:0.264583"
       x="4.7114854"
       y="246.76678"
       id="text6022"
       transform="rotate(90,-19.624521,-41.003755)"><tspan
         x="4.7114854"
         y="246.76678"><tspan
           style="text-align:start;text-anchor:start">Trackable at </tspan><tspan
           style="font-style:normal;font-variant:normal;font-weight:bold;font-stretch:normal;font-size:1.76389px;font-family:sans-serif;-inkscape-font-specification:'sans-serif Bold';text-align:start;text-anchor:start">https://geokrety.org</tspan></tspan></text>
    <g
       inkscape:export-ydpi="468.53"
       inkscape:export-xdpi="468.53"
       inkscape:export-filename="/home/filips/svn/geokrety/rzeczy/logo/geokrety.png"
       transform="matrix(0.12354875,0,0,0.12862868,-307.34167,-40.638913)"
       id="use5240">
      <polygon
         id="polygon6762"
         points="151.073,106.766 151.143,106.696 "
         class="fil59"
         style="fill:#ffffff;fill-rule:nonzero;stroke-linecap:round;stroke-linejoin:round"
         transform="matrix(1.8020893,-0.1634812,0.1634812,1.8020893,-298.8125,-111.4466)" />
      <polygon
         id="polygon6764"
         points="152.06,107.049 151.955,106.908 "
         class="fil59"
         style="fill:#ffffff;fill-rule:nonzero;stroke-linecap:round;stroke-linejoin:round"
         transform="matrix(1.8020893,-0.1634812,0.1634812,1.8020893,-298.8125,-111.4466)" />
      <polygon
         id="polygon6766"
         points="147.545,117.914 147.686,117.844 "
         class="fil59"
         style="fill:#ffffff;fill-rule:nonzero;stroke-linecap:round;stroke-linejoin:round"
         transform="matrix(1.8020893,-0.1634812,0.1634812,1.8020893,-298.8125,-111.4466)" />
      <path
         style="fill:#e9c642;fill-opacity:1;fill-rule:evenodd;stroke:#000000;stroke-width:2.815;stroke-linecap:round;stroke-linejoin:round;stroke-miterlimit:4;stroke-dasharray:none;stroke-opacity:1"
         d="m -79.4383,41.734855 c 14.166534,10.522786 62.439949,41.109535 66.71835,48.713804 3.2108115,5.706773 -3.89314,16.477331 -9.351041,14.384241 -11.731525,-4.499 -6.467227,-10.177249 -55.860116,-47.492233"
         id="path6768"
         sodipodi:nodetypes="cssz"
         inkscape:connector-curvature="0" />
      <path
         style="fill:#d4af8b;fill-opacity:1;fill-rule:evenodd;stroke:#000000;stroke-width:2.815;stroke-linecap:round;stroke-linejoin:round;stroke-miterlimit:4;stroke-dasharray:none;stroke-opacity:1"
         d="m -77.634427,85.689881 c 2.408721,-1.226506 12.939032,-3.118291 15.15319,-5.982626 2.213632,-2.863656 0.673771,-6.331948 1.683447,-8.742457 2.588505,1.87902 7.006385,2.911647 8.503435,2.264835 1.403589,-0.606431 4.565552,-5.812915 4.591155,-7.858714 0.0256,-2.04581 -2.108874,-3.608583 -3.452125,-4.36546 5.518755,-3.45263 9.023845,-3.412184 12.957754,-2.509066 3.933908,0.903118 2.801672,3.17228 4.993173,4.51267 2.137927,1.307622 3.855342,0.634437 5.236815,1.903254 1.381473,1.268817 1.59096,3.419493 3.100317,5.078906 1.54619,1.699909 2.699042,0.910958 4.402758,3.024386 1.703718,2.113428 1.152637,3.302173 2.265548,5.649194 1.112912,2.347031 4.010794,1.233387 0.900084,7.023559 -3.016739,5.615246 -6.636336,8.593987 -9.129576,10.47616 -2.555515,1.929192 -8.417417,3.643596 -9.712323,2.465077 -1.544493,-1.405679 -0.879222,-1.290503 -0.427776,-2.663455 -1.249784,0.509377 -1.909006,1.111458 -4.28511,1.507008 -2.376103,0.395551 -2.905064,-0.276457 -3.881857,-1.519843 -0.976792,-1.243385 1.211515,-4.105887 -0.02531,-3.453687 -1.236827,0.6522 -1.104322,3.700164 -4.921997,6.062489 -3.817676,2.362319 -9.784381,5.126609 -14.572295,5.920949 -4.787914,0.79434 -7.818884,-2.34168 -10.019623,-2.39404"
         id="path6770"
         sodipodi:nodetypes="cscszczzzzzzzzzczzzzzz"
         inkscape:connector-curvature="0" />
      <path
         style="fill:none;fill-opacity:0.75;fill-rule:evenodd;stroke:#000000;stroke-width:2.815;stroke-linecap:round;stroke-linejoin:round;stroke-miterlimit:4;stroke-dasharray:none;stroke-opacity:1"
         d="m -57.646164,81.235683 c 6.500719,6.193742 16.720927,15.316309 24.957686,14.41743 3.833164,-0.417431 -3.065037,-14.001546 -8.506871,-19.288346 -5.441835,-5.2868 -12.76538,-2.220502 -14.764733,-0.983328"
         id="path6772"
         sodipodi:nodetypes="cszz"
         inkscape:connector-curvature="0" />
      <path
         style="fill:none;fill-opacity:0.75;fill-rule:evenodd;stroke:#000000;stroke-width:2.815;stroke-linecap:round;stroke-linejoin:round;stroke-miterlimit:4;stroke-dasharray:none;stroke-opacity:1"
         d="m -40.681261,76.212549 c 1.420936,-0.482189 4.229567,-3.725935 4.790052,-8.880885"
         id="path6774"
         sodipodi:nodetypes="cz"
         inkscape:connector-curvature="0" />
      <path
         style="fill:none;fill-opacity:0.75;fill-rule:evenodd;stroke:#000000;stroke-width:2.815;stroke-linecap:round;stroke-linejoin:round;stroke-miterlimit:4;stroke-dasharray:none;stroke-opacity:1"
         d="m -34.331917,85.085243 c 2.799883,-3.154138 5.977366,-7.2047 6.565604,-10.814675"
         id="path6776"
         sodipodi:nodetypes="cz"
         inkscape:connector-curvature="0" />
      <path
         style="fill:none;fill-opacity:0.75;fill-rule:evenodd;stroke:#000000;stroke-width:2.815;stroke-linecap:round;stroke-linejoin:round;stroke-miterlimit:4;stroke-dasharray:none;stroke-opacity:1"
         d="m -31.269709,93.835147 c 4.690897,-3.274157 7.922336,-7.190059 9.413912,-11.345162"
         id="path6778"
         sodipodi:nodetypes="cz"
         inkscape:connector-curvature="0" />
      <g
         id="g6786"
         transform="matrix(0.702831,0.03716355,-0.03716355,0.702831,-275.97308,-686.68328)">
        <path
           sodipodi:nodetypes="cccccc"
           id="path6780"
           d="m 291.29335,966.00527 -38.67718,74.17803 -46.89842,-14.3872 -55.30649,-53.9986 72.6832,-27.65324 z"
           style="opacity:1;fill:#667b58;fill-opacity:1;fill-rule:evenodd;stroke:#000000;stroke-width:4;stroke-linecap:butt;stroke-linejoin:round;stroke-miterlimit:4;stroke-dasharray:none;stroke-opacity:1"
           inkscape:connector-curvature="0" />
        <path
           sodipodi:nodetypes="ccccccc"
           id="path6782"
           d="m 205.71775,1025.7961 -55.30649,-53.99861 72.6832,-27.65324 22.32769,7.48955 -67.75283,25.49589 49.30784,55.01851 z"
           style="opacity:1;fill:#c5c5c5;fill-opacity:1;fill-rule:evenodd;stroke:#000000;stroke-width:4;stroke-linecap:butt;stroke-linejoin:round;stroke-miterlimit:4;stroke-dasharray:none;stroke-opacity:1"
           inkscape:connector-curvature="0" />
        <path
           sodipodi:nodetypes="cczc"
           id="path6784"
           d="m 288.17968,1000.584 -9.19725,19.6482 c -15.20275,-9.8073 -61.66295,-27.49538 -52.39566,-36.46449 9.41223,-9.10938 38.41597,3.77386 61.59291,16.81629 z"
           style="fill:#667b58;fill-opacity:1;fill-rule:evenodd;stroke:#000000;stroke-width:4;stroke-linecap:butt;stroke-linejoin:round;stroke-miterlimit:4;stroke-dasharray:none;stroke-opacity:1"
           inkscape:connector-curvature="0" />
      </g>
      <path
         style="fill:#5d5d5d;fill-opacity:1;fill-rule:evenodd;stroke:#000000;stroke-width:2.81525;stroke-linecap:butt;stroke-linejoin:round;stroke-miterlimit:4;stroke-dasharray:none;stroke-opacity:1"
         d="m -64.623652,62.930554 c -1.833032,5.249107 -3.216735,26.673946 3.487414,42.706946 -54.837912,-1.82435 -58.029622,-21.902761 -99.074052,-30.768524 5.65714,-13.38255 12.95269,-20.428741 24.89259,-29.952724 5.335,-4.25552 11.86126,-12.186872 17.05478,-17.298454 5.19352,-5.111582 9.53547,-8.730959 15.56982,-11.276631 11.124023,-4.692817 26.888039,-3.517226 36.515007,5.106092 -2.855221,0.67932 -9.769451,-0.106276 -9.716264,4.949212 0.504711,5.707501 -4.00611,8.31006 -7.965959,11.344197 -2.577975,2.670619 -1.099721,6.782012 -4.917512,8.319702 -0.179423,4.572814 1.595234,8.986424 4.191924,13.041724 2.711178,4.234068 5.528851,6.960921 9.378074,9.460301 3.849223,2.499451 8.13683,-2.757961 10.584178,-5.631841 z"
         id="path6788"
         sodipodi:nodetypes="cccszscccczzc"
         inkscape:connector-curvature="0" />
      <path
         style="fill:#d4af8b;fill-opacity:1;fill-rule:evenodd;stroke:#000000;stroke-width:2.81525;stroke-linecap:butt;stroke-linejoin:round;stroke-miterlimit:4;stroke-dasharray:none;stroke-opacity:1"
         d="m -64.873618,62.627422 c -3.234886,3.505552 -6.734955,8.131291 -10.584178,5.631841 -3.849223,-2.499381 -6.666896,-5.226233 -9.378075,-9.460301 -2.596689,-4.0553 -4.371346,-8.468911 -4.191923,-13.041724 3.817791,-1.53769 2.339537,-5.649084 4.917512,-8.319702 3.959849,-3.034137 8.47067,-5.636696 7.965959,-11.344197 -0.05319,-5.055558 7.977233,-4.210983 9.902239,-4.112379 2.017754,0.103391 13.131966,1.544025 16.776535,1.335345 2.522226,-1.789093 5.235235,-4.766221 6.888597,-5.795055 1.610295,-1.002018 3.7485,-3.5071 5.782773,-2.769574 6.354466,0.417924 4.815143,7.671912 4.470169,12.440034 -0.914535,6.239231 -9.324015,7.929015 -17.676409,14.092234 -6.190816,4.704215 -5.649379,5.090749 -9.367679,10.426636 -3.7183,5.335887 -2.270634,7.411291 -5.50552,10.916842 z"
         id="path6790"
         sodipodi:nodetypes="ccccczzczccczz"
         inkscape:connector-curvature="0" />
      <path
         style="fill:none;fill-opacity:0.75;fill-rule:evenodd;stroke:#000000;stroke-width:3.51906;stroke-linecap:round;stroke-linejoin:miter;stroke-miterlimit:4;stroke-dasharray:none;stroke-opacity:1"
         d="m -38.082516,21.963435 c 0.130325,3.192144 -1.02889,5.320404 -2.876223,6.111982"
         id="path6792"
         sodipodi:nodetypes="cc"
         inkscape:connector-curvature="0" />
      <path
         id="path6794"
         d="m -70.035044,50.037617 c 1.103649,-0.03667 6.995956,-2.642888 7.790068,-3.043428 -1.904968,3.307991 -3.37726,4.006526 -5.341658,8.280218 -0.865451,2.3589 -2.413797,5.463489 -4.956321,7.032499 -3.764266,-2.747475 -4.090349,-8.114048 -5.829401,-12.162732 -4.741066,-3.039838 -7.936454,-8.246857 -12.254086,-7.461191 -1.026335,-2.372271 0.553795,-4.245399 0.602745,-6.429753 1.980741,10.256525 14.423238,13.904809 19.988653,13.784387 z"
         class="fil58"
         style="fill:#000000;fill-rule:nonzero;stroke:#000000;stroke-width:2.81525;stroke-linecap:round;stroke-linejoin:round;stroke-miterlimit:4;stroke-dasharray:none;stroke-opacity:1"
         sodipodi:nodetypes="cccccccc"
         inkscape:connector-curvature="0" />
      <path
         id="path6796"
         d="m -68.470517,56.305845 c -0.66067,0.561995 -5.59841,0.787708 -6.762024,0.516388 -0.456422,-1.010957 -0.830569,-4.041364 -1.46562,-5.247137 0.88413,0.02203 9.091644,0.729432 11.844327,-1.699004 -1.183532,1.195356 -3.996391,6.56397 -3.616683,6.429753 z"
         class="fil59"
         style="fill:#ffffff;fill-rule:nonzero"
         inkscape:connector-curvature="0" />
      <path
         style="fill:none;fill-opacity:0.75;fill-rule:evenodd;stroke:#000000;stroke-width:2.815;stroke-linecap:round;stroke-linejoin:round;stroke-miterlimit:4;stroke-dasharray:none;stroke-opacity:1"
         d="m -96.300004,30.03441 c 3.552319,-1.028341 4.243027,-2.89063 7.362643,-4.113435 3.119615,-1.222804 3.132579,-1.032634 5.115826,-0.777713 1.983246,0.254921 2.817158,1.797468 2.817158,1.797468"
         id="path6798"
         sodipodi:nodetypes="czzc"
         inkscape:connector-curvature="0" />
    </g>
    <text
       xml:space="preserve"
       style="font-style:normal;font-variant:normal;font-weight:bold;font-stretch:normal;font-size:4.58611px;line-height:1.25;font-family:sans-serif;-inkscape-font-specification:'sans-serif Bold';text-align:center;letter-spacing:0px;word-spacing:0px;text-anchor:middle;display:inline;fill:#000000;fill-opacity:1;stroke:none;stroke-width:0.264583"
       x="-326.56226"
       y="-51.365414"
       id="text6891"><tspan
         sodipodi:role="line"
         id="tspan6889"
         x="-326.56226"
         y="-51.365414"
         style="font-style:normal;font-variant:normal;font-weight:bold;font-stretch:normal;font-size:4.58611px;font-family:sans-serif;-inkscape-font-specification:'sans-serif Bold';text-align:center;text-anchor:middle;stroke-width:0.264583">1GK</tspan></text>
    <rect
       y="-13.548908"
       x="-263.25269"
       height="1.5001259"
       width="1.5001736"
       id="rect1694"
       style="fill:#ff0000;fill-opacity:0.351308;stroke:none;stroke-width:1.3;stroke-miterlimit:4;stroke-dasharray:none;stroke-opacity:1" />
  </g>
  <g
     inkscape:groupmode="layer"
     id="layer2"
     inkscape:label="Label infos"
     style="display:inline"
     transform="translate(75.284343,-56.177084)">
    <text
       transform="translate(1.7134044)"
       id="text3114"
       y="97.991257"
       x="-61.268623"
       style="font-style:normal;font-variant:normal;font-weight:bold;font-stretch:normal;font-size:4.93889px;line-height:1.25;font-family:'Bitstream Vera Sans';-inkscape-font-specification:'Bitstream Vera Sans, Bold';font-variant-ligatures:normal;font-variant-caps:normal;font-variant-numeric:normal;font-variant-east-asian:normal;text-align:center;text-anchor:middle;display:inline;fill:#000000;stroke-width:0.113302"
       xml:space="preserve"
       clip-path="url(#clipPath7263)"><tspan
         style="font-style:normal;font-variant:normal;font-weight:bold;font-stretch:normal;font-size:4.93889px;font-family:'Bitstream Vera Sans';-inkscape-font-specification:'Bitstream Vera Sans, Bold';font-variant-ligatures:normal;font-variant-caps:normal;font-variant-numeric:normal;font-variant-east-asian:normal;text-align:center;text-anchor:middle;fill:#000000;stroke-width:0.113302"
         y="97.991257"
         x="-61.268623"
         id="tspan3112"
         sodipodi:role="line">{$geokret-&gt;tracking_code}</tspan></text>
  </g>
  <g
     inkscape:groupmode="layer"
     id="layer4"
     inkscape:label="Manuals"
     transform="translate(0.74982006,0.75085555)">
    <text
       xml:space="preserve"
       style="font-size:1.41111px;line-height:1.25;font-family:sans-serif;display:inline;stroke-width:0.264583"
       x="196.51727"
       y="28.816858"
       id="text3791"><tspan
         sodipodi:role="line"
         id="tspan3789"
         x="196.51727"
         y="28.816858"
         style="stroke-width:0.264583" /></text>
    <text
       xml:space="preserve"
       id="text3799"
       style="font-size:1.41111px;line-height:1.25;font-family:sans-serif;white-space:pre;shape-inside:url(#rect3801);display:inline;"
       transform="translate(83.0365,-4.4199726)" />
  </g>
  <g
     inkscape:groupmode="layer"
     id="layer3"
     inkscape:label="QRCode"
     style="display:inline"
     transform="translate(75.284343,-56.177084)">
    <g
       transform="translate(17.022028,-8.7283859)"
       id="groupMasterQR">
      <rect
         style="fill:#008000;fill-opacity:1;stroke:none;stroke-width:0.238;stroke-miterlimit:4;stroke-dasharray:none;stroke-opacity:0.998135"
         id="placeholderQR"
         width="43.391602"
         height="43.391609"
         x="-17.022028"
         y="-71.271614" />
    </g>
    <use
       x="0"
       y="0"
       xlink:href="#groupMasterQR"
       id="use2035"
       transform="matrix(0,0.21503113,-0.21503113,0,-65.142947,58.956723)"
       width="100%"
       height="100%" />
  </g>
</svg>
