<?xml version="1.0" encoding="UTF-8" standalone="no"?>
<svg
   xmlns:dc="http://purl.org/dc/elements/1.1/"
   xmlns:cc="http://creativecommons.org/ns#"
   xmlns:rdf="http://www.w3.org/1999/02/22-rdf-syntax-ns#"
   xmlns:svg="http://www.w3.org/2000/svg"
   xmlns="http://www.w3.org/2000/svg"
   xmlns:sodipodi="http://sodipodi.sourceforge.net/DTD/sodipodi-0.dtd"
   xmlns:inkscape="http://www.inkscape.org/namespaces/inkscape"
   height="480"
   width="640"
   version="1.1"
   id="svg8"
   sodipodi:docname="xyz.svg"
   inkscape:version="0.92.4 (5da689c313, 2019-01-14)">
  <metadata
     id="metadata14">
    <rdf:RDF>
      <cc:Work
         rdf:about="">
        <dc:format>image/svg+xml</dc:format>
        <dc:type
           rdf:resource="http://purl.org/dc/dcmitype/StillImage" />
      </cc:Work>
    </rdf:RDF>
  </metadata>
  <defs
     id="defs12" />
  <sodipodi:namedview
     pagecolor="#ffffff"
     bordercolor="#666666"
     borderopacity="1"
     objecttolerance="10"
     gridtolerance="10"
     guidetolerance="10"
     inkscape:pageopacity="0"
     inkscape:pageshadow="2"
     inkscape:window-width="1920"
     inkscape:window-height="1043"
     id="namedview10"
     showgrid="false"
     inkscape:zoom="0.49166667"
     inkscape:cx="242.71186"
     inkscape:cy="240"
     inkscape:window-x="1920"
     inkscape:window-y="0"
     inkscape:window-maximized="1"
     inkscape:current-layer="svg8" />
  <path
     d="M0 0h640v480H0z"
     fill="#fff"
     fill-rule="evenodd"
     id="path2"
     style="stroke:#000000;stroke-opacity:1;stroke-width:8;stroke-miterlimit:4;stroke-dasharray:none" />
  <g
     style="line-height:1.25"
     id="g6">
    <path
       d="M299.634 306.7h26.76v33.48h-26.76zm25.968-19.378h-25.177v-20.3q0-13.313 3.691-21.881t15.554-19.904l11.864-11.732q7.514-6.986 10.809-13.182 3.427-6.195 3.427-12.654 0-11.732-8.7-18.982-8.568-7.25-22.804-7.25-10.414 0-22.277 4.614-11.732 4.613-24.518 13.445v-24.781q12.39-7.514 25.045-11.205 12.786-3.69 26.364-3.69 24.254 0 38.886 12.786 14.763 12.786 14.763 33.745 0 10.018-4.745 19.113-4.746 8.964-16.61 20.3l-11.6 11.336q-6.195 6.195-8.83 9.754-2.505 3.428-3.56 6.723-.79 2.768-1.186 6.723-.396 3.954-.396 10.809z"
       aria-label="?"
       font-weight="400"
       font-size="40"
       font-family="sans-serif"
       letter-spacing="0"
       word-spacing="0"
       id="path4" />
  </g>
</svg>
