<?xml version="1.0" encoding="UTF-8" standalone="no"?>
<!-- Created with Inkscape (http://www.inkscape.org/) -->

<svg
   xmlns:dc="http://purl.org/dc/elements/1.1/"
   xmlns:cc="http://creativecommons.org/ns#"
   xmlns:rdf="http://www.w3.org/1999/02/22-rdf-syntax-ns#"
   xmlns:svg="http://www.w3.org/2000/svg"
   xmlns="http://www.w3.org/2000/svg"
   xmlns:xlink="http://www.w3.org/1999/xlink"
   xmlns:sodipodi="http://sodipodi.sourceforge.net/DTD/sodipodi-0.dtd"
   xmlns:inkscape="http://www.inkscape.org/namespaces/inkscape"
   version="1.1"
   id="svg2834"
   width="441"
   height="123"
   viewBox="0 0 441.00002 123"
   sodipodi:docname="bg.svg"
   inkscape:version="0.92.5 (2060ec1f9f, 2020-04-08)">
  <metadata
     id="metadata2840">
    <rdf:RDF>
      <cc:Work
         rdf:about="">
        <dc:format>image/svg+xml</dc:format>
        <dc:type
           rdf:resource="http://purl.org/dc/dcmitype/StillImage" />
        <dc:title />
      </cc:Work>
    </rdf:RDF>
  </metadata>
  <defs
     id="defs2838">
    <linearGradient
       inkscape:collect="always"
       id="linearGradient3273">
      <stop
         style="stop-color:#2b331e;stop-opacity:1;"
         offset="0"
         id="stop3269" />
      <stop
         style="stop-color:#27800e;stop-opacity:1"
         offset="1"
         id="stop3271" />
    </linearGradient>
    <inkscape:path-effect
       effect="skeletal"
       id="path-effect2905"
       is_visible="true"
       pattern="M 0,5 C 0,2.24 2.24,0 5,0 7.76,0 10,2.24 10,5 10,7.76 7.76,10 5,10 2.24,10 0,7.76 0,5 Z"
       copytype="single_stretched"
       prop_scale="1"
       scale_y_rel="false"
       spacing="0"
       normal_offset="0"
       tang_offset="0"
       prop_units="false"
       vertical_pattern="false"
       fuse_tolerance="0" />
    <inkscape:path-effect
       effect="skeletal"
       id="path-effect2890"
       is_visible="true"
       pattern="M 0,5 C 0,2.24 2.24,0 5,0 7.76,0 10,2.24 10,5 10,7.76 7.76,10 5,10 2.24,10 0,7.76 0,5 Z"
       copytype="single_stretched"
       prop_scale="1"
       scale_y_rel="false"
       spacing="0"
       normal_offset="0"
       tang_offset="0"
       prop_units="false"
       vertical_pattern="false"
       fuse_tolerance="0" />
    <inkscape:path-effect
       effect="skeletal"
       id="path-effect2849"
       is_visible="true"
       pattern="M 0,5 C 0,2.24 2.24,0 5,0 7.76,0 10,2.24 10,5 10,7.76 7.76,10 5,10 2.24,10 0,7.76 0,5 Z"
       copytype="single_stretched"
       prop_scale="1"
       scale_y_rel="false"
       spacing="0"
       normal_offset="0"
       tang_offset="0"
       prop_units="false"
       vertical_pattern="false"
       fuse_tolerance="0" />
    <radialGradient
       inkscape:collect="always"
       xlink:href="#linearGradient3273"
       id="radialGradient3277"
       cx="360.27094"
       cy="104.25816"
       fx="360.27094"
       fy="104.25816"
       r="4.65625"
       gradientUnits="userSpaceOnUse"
       gradientTransform="matrix(2.4426877,0,0,2.8982732,-519.81065,-195.77419)" />
    <radialGradient
       inkscape:collect="always"
       xlink:href="#linearGradient3273"
       id="radialGradient3285"
       cx="372.32544"
       cy="108.59918"
       fx="372.32544"
       fy="108.59918"
       r="8.09375"
       gradientUnits="userSpaceOnUse"
       gradientTransform="matrix(1.9773909,-1.0900285e-6,1.4572435e-6,2.6435455,-363.90763,-178.48728)" />
    <radialGradient
       inkscape:collect="always"
       xlink:href="#linearGradient3273"
       id="radialGradient3293"
       cx="379.97107"
       cy="114.86642"
       fx="379.97107"
       fy="114.86642"
       r="4.6655898"
       gradientTransform="matrix(1.5304522,-9.8101965e-7,2.0716782e-6,3.2319479,-201.55672,-255.86454)"
       gradientUnits="userSpaceOnUse" />
  </defs>
  <sodipodi:namedview
     pagecolor="#ffffff"
     bordercolor="#666666"
     borderopacity="1"
     objecttolerance="10"
     gridtolerance="10"
     guidetolerance="10"
     inkscape:pageopacity="0"
     inkscape:pageshadow="2"
     inkscape:window-width="1920"
     inkscape:window-height="1023"
     id="namedview2836"
     showgrid="false"
     borderlayer="true"
     inkscape:showpageshadow="false"
     inkscape:zoom="4"
     inkscape:cx="244.24734"
     inkscape:cy="40.328748"
     inkscape:window-x="0"
     inkscape:window-y="0"
     inkscape:window-maximized="1"
     inkscape:current-layer="layer3" />
  <g
     inkscape:groupmode="layer"
     id="layer2"
     inkscape:label="pano"
     style="display:inline">
    <path
       style="display:inline;fill:#3f4750;fill-opacity:1;stroke:none;stroke-width:1px;stroke-linecap:butt;stroke-linejoin:miter;stroke-opacity:1"
       d="M 406.52628,123 C 382.58361,112.0567 363.4794,101.1134 329.12287,90.1701 l -11.9481,-18.160026 -21.44374,-3.248562 -11.25448,-8.309835 -5.10417,-12.112955 -14.32566,-11.453817 -14.58187,-3.433077 -3.41702,0.390931 -5.12503,-3.979602 -0.0592,-3.497879 -5.45308,-8.412068 -8.50783,-2.024681 -9.37471,-6.076391 -3.98286,11.17469 -14.12555,15.699693 -7.93506,9.234492 -7.16409,3.000459 -5.04047,6.896192 -33.12436,-2.038807 -12.43534,7.757762 -3.71583,5.782177 -3.77298,0.415188 -5.88385,6.400027 C 90.688601,84.11345 59.653936,96.3067 26.202599,123 Z"
       id="path2892"
       inkscape:connector-curvature="0"
       sodipodi:nodetypes="cccccccccccccccccccccccccc" />
    <path
       sodipodi:nodetypes="cccccccccccccccccccccccccc"
       inkscape:connector-curvature="0"
       id="path3258"
       d="M 406.52628,123 C 382.58361,112.0567 362.5419,102.1134 328.18537,91.1701 l -11.5731,-17.847526 -21.19374,-3.623562 -12.37948,-9.122335 -4.22917,-11.737955 -13.95066,-10.953817 -14.33187,-3.433077 -3.85452,0.765931 -5.93753,-4.854602 0.3158,-3.997879 -5.26558,-7.537068 -7.94533,-1.712181 -8.90269,-4.690248 -2.72372,8.840324 -15.35671,15.710416 -7.02881,9.609492 -7.85159,2.844209 -4.57172,7.302442 -34.15561,-1.945057 -11.93534,7.507762 -1.71583,5.719677 -5.71048,0.696438 -6.00885,5.868777 C 91.219851,84.5197 59.653936,96.3067 26.202599,123 Z"
       style="display:inline;fill:#65728f;fill-opacity:1;stroke:none;stroke-width:1px;stroke-linecap:butt;stroke-linejoin:miter;stroke-opacity:1" />
    <path
       style="fill:#1d2124;fill-opacity:1;stroke:none;stroke-width:1px;stroke-linecap:butt;stroke-linejoin:miter;stroke-opacity:1"
       d="m 14.165127,123 10.268683,-10.8924 34.972266,-17.40167 11.008493,-9.64071 9.221828,-7.421079 2.657816,-5.561181 3.898624,2.122801 8.417351,1.02474 4.378366,3.304243 22.716456,2.844746 2.22749,1.99728 22.81793,-0.64224 c 31.26332,0.66873 40.72296,26.84365 61.08444,40.26547 z"
       id="path2870"
       inkscape:connector-curvature="0"
       sodipodi:nodetypes="cccccccccccccc" />
    <path
       style="display:inline;fill:#afbed1;fill-opacity:1;stroke:none;stroke-width:1px;stroke-linecap:butt;stroke-linejoin:miter;stroke-opacity:1"
       d="m 218.9375,12.425781 -2.0625,6.761719 2.90234,0.61914 z m 10.29688,8.619141 -13.52344,10.693359 20.41797,-9.412109 z M 239.8418,31.871094 219.82227,37.75 242.36133,35.496094 Z m -34.07422,2.033203 -4.86133,5.259765 9.8125,-3.667968 z"
       id="path2911"
       inkscape:connector-curvature="0"
       sodipodi:nodetypes="cccccccccccccccc" />
    <path
       style="display:inline;fill:#3f4750;fill-opacity:1;stroke:none;stroke-width:1px;stroke-linecap:butt;stroke-linejoin:miter;stroke-opacity:1"
       d="m 218.41406,18.443359 c -0.81982,0.01784 -1.53906,0.744141 -1.53906,0.744141 0.3933,1.606486 4.77115,-0.198286 -4.09961,10.78125 l 0.0996,4.40625 -1.77344,1.146484 -1.85937,5.052735 8.4375,3.291015 c -4.03633,2.453703 -0.66904,1.574283 -7.08594,8.009766 0.45504,1.326438 4.37214,0.962165 4.59375,2.125 0.0585,0.306975 -18.30664,12.257813 -18.30664,12.257812 l 1.05859,-0.164062 19.65235,-11.169922 -2.2461,-5.207031 4.88672,-5.886719 C 218.15016,42.636122 217.56273,41.354821 210.75,40.4375 l 0.98438,-3.796875 2.57031,-2.601563 -0.21289,-4.376953 c 0,0 6.91914,-8.015291 5.77343,-10.175781 -0.42964,-0.810184 -0.95927,-1.053675 -1.45117,-1.042969 z M 150.25,56.625 l 8.0625,1.0625 -0.75,3.0625 6.75,1.029297 -4.7207,-2.478516 0.47265,-2.367187 z m 40.64062,9.40625 -3.49609,0.716797 -5.77734,0.318359 -1.16407,0.855469 -6.45312,-1.75 -9.65625,1.40625 -2.15625,-1.265625 -3.10938,3.875 L 148,76 c -4.8125,5.0625 1.375,1.8125 1.375,1.8125 L 160.44336,70.876953 162.5,67.625 l 1.75,1.25 9.5625,-1.546875 8.42188,2.28125 2.46874,-0.705078 5.84376,0.423828 c -0.77049,-0.862598 -4.62176,-1.375479 -8.53126,-1.21875 l 8.57813,-1.1875 5.60937,1.25 z"
       id="path2895"
       inkscape:connector-curvature="0" />
    <path
       sodipodi:nodetypes="ccccccccccccscc"
       inkscape:connector-curvature="0"
       id="path3254"
       d="m 16.165127,123 8.768683,-10.0174 34.597266,-18.40167 10.008493,-7.51571 10.096828,-8.046079 3.282816,-5.686181 3.523624,1.497801 7.460244,1.106847 4.113201,3.657796 22.937428,2.314416 2.62524,2.129862 21.31532,-0.465442 c 7.355,0.15732 14.82255,1.121656 21.28653,4.73805 20.73906,11.602857 39.08872,30.98015 39.65407,34.68773 z"
       style="display:inline;fill:#3f4750;fill-opacity:1;stroke:none;stroke-width:1px;stroke-linecap:butt;stroke-linejoin:miter;stroke-opacity:1" />
    <path
       style="fill:#1d2124;fill-opacity:1;stroke:none;stroke-width:1px;stroke-linecap:butt;stroke-linejoin:miter;stroke-opacity:1"
       d="m 83.5625,74.875 2.875,3.5 -2.4375,3.5625 1.6875,5 L 82.0625,92 90.125,90.9375 80,93.125 84.5,87.1875 83.125,82 85.1875,78.375 Z"
       id="path2873"
       inkscape:connector-curvature="0"
       sodipodi:nodetypes="ccccccccccc" />
    <path
       style="display:inline;fill:#544f10;fill-opacity:1;stroke:none;stroke-width:1px;stroke-linecap:butt;stroke-linejoin:miter;stroke-opacity:1"
       d="M 135.69522,123 H 372.58966 C 354.10557,114.98612 342.43028,99.723874 317.13739,92.947962 215.16781,73.139154 172.81619,80.670572 135.69522,123 Z"
       id="path3247"
       inkscape:connector-curvature="0"
       sodipodi:nodetypes="cccc" />
    <path
       sodipodi:nodetypes="cccc"
       inkscape:connector-curvature="0"
       id="path3250"
       d="M 137.69522,123 H 372.58966 C 354.10557,114.98612 342.43028,101.72387 317.13739,94.947962 215.16781,75.139154 176.93751,85.266766 137.69522,123 Z"
       style="display:inline;fill:#655e13;fill-opacity:1;stroke:none;stroke-width:1px;stroke-linecap:butt;stroke-linejoin:miter;stroke-opacity:1" />
    <ellipse
       style="display:inline;opacity:1;vector-effect:none;fill:#129482;fill-opacity:1;stroke:none;stroke-width:3.57710505;stroke-linecap:butt;stroke-linejoin:round;stroke-miterlimit:4;stroke-dasharray:none;stroke-dashoffset:0;stroke-opacity:1"
       id="path3244"
       cx="268.17026"
       cy="114.86827"
       rx="33.410793"
       ry="5.4800777" />
    <path
       style="fill:#808e46;fill-opacity:1;stroke:none;stroke-width:1.42518258px;stroke-linecap:butt;stroke-linejoin:miter;stroke-opacity:1"
       d="M 51.431478,123 H 174.32312 C 115.16377,73.077459 51.212774,118.24233 51.431478,123 Z"
       id="path2923"
       inkscape:connector-curvature="0"
       sodipodi:nodetypes="ccc" />
    <path
       style="fill:#384e05;fill-opacity:1;stroke:none;stroke-width:1.61897159px;stroke-linecap:butt;stroke-linejoin:miter;stroke-opacity:1"
       d="M 264.07497,123 H 418.04072 C 341.20969,73.097804 266.6365,118.57501 264.07497,123 Z"
       id="path2927"
       inkscape:connector-curvature="0"
       sodipodi:nodetypes="ccc" />
    <g
       id="g2937">
      <path
         style="fill:#384e05;fill-opacity:1;stroke:none;stroke-width:1.44447637px;stroke-linecap:butt;stroke-linejoin:miter;stroke-opacity:1"
         d="M 133.85983,123 H 285.56306 C 217.7101,83.228 138.34937,116.11721 133.85983,123 Z"
         id="path2925"
         inkscape:connector-curvature="0"
         sodipodi:nodetypes="ccc" />
      <path
         inkscape:connector-curvature="0"
         id="path2932"
         d="m 211.95898,103.69336 c -6.26893,-0.028 -12.33649,0.31055 -18.16406,0.88672 -5.79151,5.85866 -11.13514,12.12718 -16.45312,18.41992 h 76.08398 c -2.97914,-5.47041 -7.14164,-11.82408 -14.18359,-16.88477 -9.30913,-1.65209 -18.4768,-2.3826 -27.28321,-2.42187 z"
         style="fill:#795b4b;fill-opacity:1;stroke:none;stroke-width:1.44447637px;stroke-linecap:butt;stroke-linejoin:miter;stroke-opacity:1" />
    </g>
    <path
       sodipodi:nodetypes="ccc"
       inkscape:connector-curvature="0"
       id="path3261"
       d="m 264.07497,123 h 153.96575 c -76.52235,-49.549423 -150.1814,-3.02748 -153.96575,0 z"
       style="fill:#808e46;fill-opacity:1;stroke:none;stroke-width:1.61897159px;stroke-linecap:butt;stroke-linejoin:miter;stroke-opacity:1" />
    <path
       style="display:inline;opacity:1;vector-effect:none;fill:#795b4b;fill-opacity:1;stroke:none;stroke-width:3;stroke-linecap:butt;stroke-linejoin:round;stroke-miterlimit:4;stroke-dasharray:none;stroke-dashoffset:0;stroke-opacity:1"
       d="m 316.875,109.25 c 1.45617,-0.6565 2.72295,-2.35567 2.8206,-3.87389 0.0976,-1.51821 -1.36177,-3.70338 -1.36177,-3.70338 l 4.21077,-0.60711 c 4.20996,6.44827 2.64067,7.03694 53.85702,8.2511 l 1.28588,3.99574 c -22.92195,2.29427 -54.52837,-2.40139 -65.28125,9.6875 h -16.1875 c 0,0 12.81086,-10.21296 20.65625,-13.75 z"
       id="rect3225"
       inkscape:connector-curvature="0"
       sodipodi:nodetypes="czccccccsc" />
    <circle
       style="display:inline;opacity:1;vector-effect:none;fill:url(#radialGradient3277);fill-opacity:1;stroke:none;stroke-width:3.08275867;stroke-linecap:butt;stroke-linejoin:round;stroke-miterlimit:4;stroke-dasharray:none;stroke-dashoffset:0;stroke-opacity:1"
       id="path3229"
       cx="360.21875"
       cy="102.59375"
       r="4.65625" />
    <path
       style="display:inline;opacity:1;vector-effect:none;fill:#2f1a21;fill-opacity:1;stroke:none;stroke-width:3;stroke-linecap:butt;stroke-linejoin:round;stroke-miterlimit:4;stroke-dasharray:none;stroke-dashoffset:0;stroke-opacity:1"
       d="m 358.9375,107.10156 -0.17188,2.35156 1.85938,0.26563 -0.10156,-2.46875 z m 8.38281,0.83399 c 0.17741,2.03569 1.1836,3.11752 2.65625,3.74023 l -0.53906,3.26172 h 4 l -0.52734,-3.48633 c 0.85966,-0.2925 1.33631,-1.35071 1.85546,-2.32422 -0.68624,0.40274 -1.71568,1.3552 -2.05273,1.19922 l -0.15234,-1.56836 -1.83789,0.14063 L 370.375,110.5 c -1.52863,0.0131 -2.0191,-1.74729 -3.05469,-2.56445 z"
       id="rect3233"
       inkscape:connector-curvature="0" />
    <path
       style="display:inline;opacity:1;vector-effect:none;fill:#2b331e;fill-opacity:1;stroke:none;stroke-width:3;stroke-linecap:butt;stroke-linejoin:round;stroke-miterlimit:4;stroke-dasharray:none;stroke-dashoffset:0;stroke-opacity:1"
       d="m 391.3125,89.15625 c -0.68631,1.548668 0.53217,2.897624 0.37213,4.002416 -0.52518,3.625595 0.57564,3.695929 0.34662,5.122584 -0.17947,1.118003 -0.90394,2.00162 -0.0799,3.29101 0.59919,0.93756 -2.00998,0.92572 -0.0765,3.89637 0.75748,1.16383 -1.93427,3.28225 -4.31231,2.59387 l -4.75,-1.375 c 0.0135,0.001 -4.61529,-2.59772 -1.2562,-5.53329 0.82778,-0.72341 2.8922,-2.940694 2.55253,-4.836093 -0.23801,-1.328151 1.82262,-1.222183 2.18657,-1.686465 0.34835,-0.444374 0.20938,-3.424808 1.02494,-3.920464 1.97936,-1.202955 1.35239,-3.163116 1.7376,-3.796648 0.43966,-0.723098 2.62962,1.395379 2.25456,2.24171 z"
       id="rect3235"
       inkscape:connector-curvature="0"
       sodipodi:nodetypes="cssssscssssssc" />
    <path
       style="display:inline;opacity:1;vector-effect:none;fill:url(#radialGradient3293);fill-opacity:1;stroke:none;stroke-width:2.96960068;stroke-linecap:butt;stroke-linejoin:round;stroke-miterlimit:4;stroke-dasharray:none;stroke-dashoffset:0;stroke-opacity:1"
       d="m 384.63665,112.1789 c 0,2.38147 -2.08886,4.31204 -4.66559,4.31204 -2.57673,0 -4.66559,-1.93057 -4.66559,-4.31204 0,-2.38147 2.08886,-6.31204 4.66559,-6.31204 2.57673,0 4.66559,3.93057 4.66559,6.31204 z"
       id="circle3242"
       inkscape:connector-curvature="0"
       sodipodi:nodetypes="scscs" />
    <circle
       cy="101.48392"
       cx="372.32544"
       id="circle3231"
       style="display:inline;opacity:1;vector-effect:none;fill:url(#radialGradient3285);fill-opacity:1;stroke:none;stroke-width:5.35862064;stroke-linecap:butt;stroke-linejoin:round;stroke-miterlimit:4;stroke-dasharray:none;stroke-dashoffset:0;stroke-opacity:1"
       r="8.09375" />
  </g>
</svg>
