<?xml version="1.0" encoding="UTF-8" standalone="no"?>
<!-- Created with Inkscape (http://www.inkscape.org/) -->

<svg
   xmlns:dc="http://purl.org/dc/elements/1.1/"
   xmlns:cc="http://creativecommons.org/ns#"
   xmlns:rdf="http://www.w3.org/1999/02/22-rdf-syntax-ns#"
   xmlns:svg="http://www.w3.org/2000/svg"
   xmlns="http://www.w3.org/2000/svg"
   xmlns:xlink="http://www.w3.org/1999/xlink"
   xmlns:sodipodi="http://sodipodi.sourceforge.net/DTD/sodipodi-0.dtd"
   xmlns:inkscape="http://www.inkscape.org/namespaces/inkscape"
   width="538.52203"
   height="307.88504"
   id="svg2"
   version="1.1"
   inkscape:version="0.48.2 r9819"
   sodipodi:docname="GKvsTB.svg">
  <defs
     id="defs4">
    <filter
       color-interpolation-filters="sRGB"
       inkscape:collect="always"
       id="filter3870"
       x="-0.25102139"
       width="1.5020428"
       y="-0.062780328"
       height="1.1255606">
      <feGaussianBlur
         inkscape:collect="always"
         stdDeviation="8.4230411"
         id="feGaussianBlur3872" />
    </filter>
    <linearGradient
       inkscape:collect="always"
       xlink:href="#linearGradient3712"
       id="linearGradient3974"
       x1="295.51218"
       y1="177.9082"
       x2="499.7627"
       y2="47.131973"
       gradientUnits="userSpaceOnUse"
       gradientTransform="matrix(0.98041621,0,0,0.96302998,-479.71275,8.7424698)" />
    <linearGradient
       id="linearGradient3712">
      <stop
         style="stop-color:#000000;stop-opacity:1;"
         offset="0"
         id="stop3714" />
      <stop
         style="stop-color:#ffffff;stop-opacity:0;"
         offset="1"
         id="stop3716" />
    </linearGradient>
    <linearGradient
       y2="47.131973"
       x2="499.7627"
       y1="177.9082"
       x1="295.51218"
       gradientTransform="matrix(-0.73342052,0,0,0.96302998,63.731144,44.115546)"
       gradientUnits="userSpaceOnUse"
       id="linearGradient7057"
       xlink:href="#linearGradient3712"
       inkscape:collect="always" />
  </defs>
  <sodipodi:namedview
     id="base"
     pagecolor="#ffffff"
     bordercolor="#666666"
     borderopacity="1.0"
     inkscape:pageopacity="0.0"
     inkscape:pageshadow="2"
     inkscape:zoom="0.7"
     inkscape:cx="449.29364"
     inkscape:cy="168.45086"
     inkscape:document-units="px"
     inkscape:current-layer="layer1"
     showgrid="false"
     inkscape:window-width="1280"
     inkscape:window-height="723"
     inkscape:window-x="0"
     inkscape:window-y="24"
     inkscape:window-maximized="1"
     showguides="true"
     inkscape:guide-bbox="true"
     fit-margin-top="0"
     fit-margin-left="0"
     fit-margin-right="0"
     fit-margin-bottom="0" />
  <metadata
     id="metadata7">
    <rdf:RDF>
      <cc:Work
         rdf:about="">
        <dc:format>image/svg+xml</dc:format>
        <dc:type
           rdf:resource="http://purl.org/dc/dcmitype/StillImage" />
        <dc:title />
      </cc:Work>
    </rdf:RDF>
  </metadata>
  <g
     inkscape:label="Layer 1"
     inkscape:groupmode="layer"
     id="layer1"
     transform="translate(452.60662,14.690739)">
    <path
       style="fill:#000000"
       d="m -361.85012,228.67452 -15.78222,-13.36458 -10.82849,11.11684 c -11.50124,11.8075 -23.18682,14.68597 -23.18682,5.71153 0,-2.97293 6.4089,-11.78263 14.24195,-19.57712 11.34766,-11.29183 13.61302,-16.58831 11.14743,-26.063 -3.48214,-13.38111 -5.95512,-14.0938 -22.9659,-6.61858 -9.04555,3.97496 -13.31834,3.99969 -17.36119,0.10048 -4.04287,-3.89921 0,-7.46144 16.44024,-14.47394 20.44806,-8.72375 21.80299,-10.36374 21.80299,-26.39059 0,-15.58848 -1.63685,-17.80069 -18.64442,-25.19749 -10.2544,-4.45979 -18.64433,-10.83592 -18.64433,-14.169166 0,-8.12494 1.21258,-7.89727 31.4699,5.908096 37.13946,16.94547 82.49342,19.29259 120.01576,6.21096 39.79745,-13.874816 48.9415,-15.621926 48.9415,-9.35101 0,2.95965 -8.38998,8.55976 -18.64439,12.44468 -17.33837,6.56868 -18.64443,8.29875 -18.64443,24.69732 0,16.30957 1.39658,18.19954 18.59702,25.16706 20.09695,8.14084 26.27107,21.40545 8.20433,17.62635 -5.76811,-1.20653 -13.89931,-3.58598 -18.06932,-5.28767 -5.62047,-2.29356 -8.40043,0.0516 -10.74605,9.06537 -2.54961,9.79739 -0.39779,14.91219 11.07765,26.33113 7.83305,7.79449 14.24189,16.60419 14.24189,19.57712 0,8.97444 -11.68557,6.09597 -23.18682,-5.71153 l -10.82849,-11.11684 -15.78222,13.36458 c -26.89461,22.77469 -28.97847,20.07512 -30.45845,-39.45725 -1.73906,-69.95133 -10.20953,-69.95133 -11.94859,0 -1.48006,59.53237 -3.56392,62.23194 -30.45853,39.45725 z m -2.02125,-124.67227 c -6.98684,-1.2979 -10.53694,-5.220116 -10.63567,-11.750346 -0.0812,-5.39119 -3.22778,-13.72899 -6.99166,-18.52846 -9.09532,-11.59779 -8.64055,-22.10769 1.31346,-30.35292 15.98191,-13.2383 22.16055,-12.52412 22.15002,2.56029 -0.009,10.41576 1.79561,13.50188 6.98185,11.95156 9.03449,-2.70066 42.23767,-2.70066 51.27207,0 5.18624,1.55032 6.98917,-1.5358 6.98185,-11.95156 -0.0107,-15.08441 6.16819,-15.79859 22.15002,-2.56029 9.95401,8.24523 10.40886,18.75513 1.31355,30.35292 -3.76388,4.79947 -6.91014,13.0251 -6.99166,18.27919 -0.10952,7.05534 -3.95643,10.287446 -14.71421,12.362556 -15.64451,3.01772 -55.70566,2.81809 -72.82962,-0.36293 z"
       id="path3015"
       inkscape:connector-curvature="0"
       inkscape:export-filename="/home/filips/svn/geokrety/templates/gkvsbug.png"
       inkscape:export-xdpi="30.108637"
       inkscape:export-ydpi="30.108637" />
    <g
       id="g4388"
       transform="matrix(0.77737724,0.10102442,-0.13707259,0.57293795,-8.7264476,23.383239)"
       inkscape:export-filename="/home/filips/svn/geokrety/templates/gkvsbug.png"
       inkscape:export-xdpi="30.108637"
       inkscape:export-ydpi="30.108637">
      <path
         sodipodi:nodetypes="csasssscc"
         inkscape:connector-curvature="0"
         id="path3849"
         d="m -20.67913,127.10203 c 0,0 30.83981,59.73855 57.67406,89.97464 34.3561,38.71152 104.43091,62.56018 134.8273,114.81535 9.5545,16.42538 21.80103,42.79536 11.73672,56.9439 -25.49062,35.83503 -70.2053,64.83719 -104.60236,67.88003 C 60.01501,458.39156 54.67682,445.72787 40.01639,421.22941 10.59168,372.05895 22.43466,286.94754 4.0825199,241.55043 -11.85836,202.118 -52.205324,135.91204 -52.205324,135.91204 z"
         style="fill:#008000;fill-opacity:1;stroke:none" />
      <path
         sodipodi:nodetypes="ccccc"
         inkscape:connector-curvature="0"
         id="path3851"
         d="M -81.006442,78.740261 -62.447035,67.14225 -14.44071,130.7867 c -5.08442,10.90918 -12.29289,20.46991 -31.98918,22.10274 z"
         style="fill:#008000;stroke:#000000;stroke-width:0.74729586px;stroke-linecap:butt;stroke-linejoin:miter;stroke-opacity:1" />
      <path
         sodipodi:nodetypes="ccsccccscccc"
         inkscape:connector-curvature="0"
         id="path3853"
         d="m -86.820529,106.0419 c 28.681616,-3.61954 47.250409,-34.263577 53.914629,-49.506968 0,0 -18.948833,-15.98463 -28.550679,-17.037942 -34.272729,-3.759679 -107.488821,44.856894 -107.488821,44.856894 1.36459,7.515585 2.86032,12.600395 4.84897,19.934046 l 28.20667,-10.910761 c 14.50076,36.019141 12.59367,53.862391 -4.69695,97.608501 12.95308,1.50768 27.14021,-37.01349 34.00809,-48.00761 2.42922,-3.88872 5.5932,-39.40397 5.5932,-39.40397 l -21.25368,-8.599311 16.72338,-2.97645 c 7.232721,10.444271 7.867599,18.649861 18.695191,14.043571 z"
         style="opacity:0.82511208;fill:#008000;stroke:none" />
      <path
         sodipodi:nodetypes="ccccc"
         inkscape:connector-curvature="0"
         id="rect3855"
         d="m -170.18208,80.306377 17.22495,-11.901476 c 12.35415,8.39252 11.45855,22.421768 11.95041,35.860769 l -20.93501,-0.24102 c -1.26749,-8.928201 -0.78301,-19.066915 -8.24035,-23.718273 z"
         style="color:#000000;fill:#5a2ca0;fill-opacity:1;fill-rule:evenodd;stroke:none;stroke-width:2;marker:none;visibility:visible;display:inline;overflow:visible;enable-background:accumulate" />
      <g
         transform="matrix(0.61583838,-0.64874821,0.53881237,0.68553721,-341.71908,361.48648)"
         id="g4055">
        <polygon
           id="polygon2819"
           points="151.143,106.696 151.073,106.766 151.143,106.696 "
           class="fil59"
           style="fill:#ffffff;fill-opacity:1;fill-rule:nonzero;stroke-linecap:round;stroke-linejoin:round"
           transform="matrix(1.0952652,-0.10620246,0.09935982,1.1706931,277.40914,236.84999)" />
        <polygon
           id="polygon2821"
           points="151.955,106.908 152.06,107.049 151.955,106.908 "
           class="fil59"
           style="fill:#ffffff;fill-opacity:1;fill-rule:nonzero;stroke-linecap:round;stroke-linejoin:round"
           transform="matrix(1.0952652,-0.10620246,0.09935982,1.1706931,277.40914,236.84999)" />
        <polygon
           id="polygon2823"
           points="147.686,117.844 147.545,117.914 147.686,117.844 "
           class="fil59"
           style="fill:#ffffff;fill-opacity:1;fill-rule:nonzero;stroke-linecap:round;stroke-linejoin:round"
           transform="matrix(1.0952652,-0.10620246,0.09935982,1.1706931,277.40914,236.84999)" />
        <path
           style="fill:#ffffff;fill-opacity:1;fill-rule:evenodd;stroke:#000000;stroke-width:1.7688185;stroke-linecap:round;stroke-linejoin:round;stroke-miterlimit:4;stroke-opacity:1;stroke-dasharray:none"
           d="m 410.73934,336.36142 c 8.61007,6.83592 37.94945,26.70602 40.54976,31.64599 1.95145,3.7073 -2.36615,10.70419 -5.68333,9.34445 -7.13013,-2.92269 -3.93062,-6.61145 -33.9504,-30.85242"
           id="path2825"
           sodipodi:nodetypes="cssz"
           inkscape:connector-curvature="0" />
        <path
           style="fill:#ffffff;fill-opacity:1;fill-rule:evenodd;stroke:#000000;stroke-width:1.7688185;stroke-linecap:round;stroke-linejoin:round;stroke-miterlimit:4;stroke-opacity:1;stroke-dasharray:none"
           d="m 411.83569,364.91596 c 1.46396,-0.79677 7.86402,-2.02573 9.20973,-3.8865 1.34539,-1.86032 0.4095,-4.11343 1.02316,-5.67937 1.57323,1.22067 4.25831,1.8915 5.16818,1.47131 0.85306,-0.39396 2.77483,-3.77625 2.79039,-5.10526 0.0156,-1.32903 -1.28172,-2.34425 -2.09812,-2.83594 3.35416,-2.24294 5.48447,-2.21666 7.8754,-1.62997 2.39093,0.58669 1.70279,2.06081 3.03473,2.93157 1.29938,0.84947 2.34318,0.41215 3.18281,1.23641 0.83962,0.82427 0.96694,2.22141 1.88429,3.29942 0.93974,1.10431 1.64041,0.59179 2.67589,1.96473 1.03548,1.37295 0.70054,2.1452 1.37694,3.6699 0.6764,1.5247 2.43766,0.80124 0.54705,4.56272 -1.8335,3.64784 -4.0334,5.58292 -5.54873,6.80564 -1.55318,1.25326 -5.1159,2.36699 -5.90291,1.60139 -0.9387,-0.91318 -0.53437,-0.83835 -0.25999,-1.73027 -0.75959,0.33091 -1.16025,0.72204 -2.60438,0.979 -1.44414,0.25696 -1.76563,-0.17959 -2.3593,-0.98733 -0.59367,-0.80775 0.73633,-2.66732 -0.0154,-2.24363 -0.75171,0.42369 -0.67118,2.40374 -2.99147,3.93838 -2.32029,1.53464 -5.9467,3.33041 -8.85668,3.84644 -2.90998,0.51602 -4.75212,-1.52123 -6.08968,-1.55525"
           id="path2827"
           sodipodi:nodetypes="cscszczzzzzzzzzczzzzzz"
           inkscape:connector-curvature="0" />
        <path
           style="fill:#ffffff;fill-opacity:1;stroke:#000000;stroke-width:1.7688185;stroke-linecap:round;stroke-linejoin:round;stroke-miterlimit:4;stroke-opacity:1;stroke-dasharray:none"
           d="m 423.98406,362.02238 c 3.95098,4.02365 10.16257,9.94995 15.16866,9.36601 2.32971,-0.27118 -1.86285,-9.09584 -5.17026,-12.53031 -3.30741,-3.43447 -7.75848,-1.44251 -8.97364,-0.6388"
           id="path2829"
           sodipodi:nodetypes="cszz"
           inkscape:connector-curvature="0" />
        <path
           style="fill:#ffffff;fill-opacity:1;stroke:#000000;stroke-width:1.7688185;stroke-linecap:round;stroke-linejoin:round;stroke-miterlimit:4;stroke-opacity:1;stroke-dasharray:none"
           d="m 434.29491,358.7592 c 0.86361,-0.31325 2.57062,-2.42049 2.91127,-5.7693"
           id="path2831"
           sodipodi:nodetypes="cz"
           inkscape:connector-curvature="0" />
        <path
           style="fill:#ffffff;fill-opacity:1;stroke:#000000;stroke-width:1.7688185;stroke-linecap:round;stroke-linejoin:round;stroke-miterlimit:4;stroke-opacity:1;stroke-dasharray:none"
           d="m 438.15388,364.52317 c 1.7017,-2.04902 3.6329,-4.68039 3.99041,-7.02555"
           id="path2833"
           sodipodi:nodetypes="cz"
           inkscape:connector-curvature="0" />
        <path
           style="fill:#ffffff;fill-opacity:1;stroke:#000000;stroke-width:1.7688185;stroke-linecap:round;stroke-linejoin:round;stroke-miterlimit:4;stroke-opacity:1;stroke-dasharray:none"
           d="m 440.01502,370.20738 c 2.85101,-2.12699 4.815,-4.67088 5.72154,-7.37017"
           id="path2835"
           sodipodi:nodetypes="cz"
           inkscape:connector-curvature="0" />
        <g
           id="g2837"
           transform="matrix(0.42716327,0.02414259,-0.02258708,0.45658081,291.29037,-136.84159)"
           style="fill:#ffffff;fill-opacity:1">
          <path
             sodipodi:nodetypes="cccccc"
             id="path2839"
             d="m 291.29335,966.00527 -38.67718,74.17803 -46.89842,-14.3872 -55.30649,-53.9986 72.6832,-27.65324 68.19889,21.86101 z"
             style="fill:#ffffff;fill-opacity:1;fill-rule:evenodd;stroke:#000000;stroke-width:4;stroke-linecap:butt;stroke-linejoin:round;stroke-miterlimit:4;stroke-opacity:1;stroke-dasharray:none"
             inkscape:connector-curvature="0" />
          <path
             sodipodi:nodetypes="ccccccc"
             id="path2841"
             d="m 205.71775,1025.7961 -55.30649,-53.99861 72.6832,-27.65324 22.32769,7.48955 -67.75283,25.49589 49.30784,55.01851 -21.25941,-6.3521 z"
             style="fill:#ffffff;fill-opacity:1;fill-rule:evenodd;stroke:#000000;stroke-width:4;stroke-linecap:butt;stroke-linejoin:round;stroke-miterlimit:4;stroke-opacity:1;stroke-dasharray:none"
             inkscape:connector-curvature="0" />
          <path
             sodipodi:nodetypes="cczc"
             id="path2843"
             d="m 288.17968,1000.584 -9.19725,19.6482 c -15.20275,-9.8073 -61.66295,-27.49538 -52.39566,-36.46449 9.41223,-9.10938 38.41597,3.77386 61.59291,16.81629 z"
             style="fill:#ffffff;fill-opacity:1;fill-rule:evenodd;stroke:#000000;stroke-width:4;stroke-linecap:butt;stroke-linejoin:round;stroke-miterlimit:4;stroke-opacity:1;stroke-dasharray:none"
             inkscape:connector-curvature="0" />
        </g>
        <path
           style="fill:#ffffff;fill-opacity:1;fill-rule:evenodd;stroke:#000000;stroke-width:1.76897657;stroke-linecap:butt;stroke-linejoin:round;stroke-miterlimit:4;stroke-opacity:1;stroke-dasharray:none"
           d="m 419.74332,350.1308 c -1.11408,3.40998 -1.95506,17.32822 2.11956,27.74376 -33.32912,-1.18516 -35.26897,-14.22872 -60.21475,-19.98819 3.43827,-8.69372 7.87232,-13.27115 15.1291,-19.45822 3.24248,-2.76452 7.20898,-7.91697 10.36547,-11.23761 3.15649,-3.32064 5.79542,-5.6719 9.46295,-7.32565 6.7609,-3.0486 16.34188,-2.2849 22.19291,3.31707 -1.73533,0.44131 -5.93763,-0.069 -5.9053,3.21517 0.30675,3.70777 -2.43481,5.39847 -4.84151,7.36954 -1.56683,1.73492 -0.66839,4.4058 -2.98874,5.40473 -0.10905,2.97065 0.96954,5.83786 2.54774,8.47231 1.64779,2.75058 3.3603,4.52203 5.69976,6.14571 2.33947,1.62372 4.94537,-1.79166 6.43281,-3.65862 z"
           id="path2845"
           sodipodi:nodetypes="cccszscccczzc"
           inkscape:connector-curvature="0" />
        <path
           style="fill:#ffffff;fill-opacity:1;fill-rule:evenodd;stroke:#000000;stroke-width:1.76897657;stroke-linecap:butt;stroke-linejoin:round;stroke-miterlimit:4;stroke-opacity:1;stroke-dasharray:none"
           d="m 419.59139,349.93388 c -1.96608,2.27731 -4.09334,5.28233 -6.4328,3.65861 -2.33946,-1.62367 -4.05197,-3.39512 -5.69976,-6.1457 -1.5782,-2.63445 -2.6568,-5.50167 -2.54775,-8.47231 2.32036,-0.99893 1.42192,-3.66982 2.98874,-5.40474 2.4067,-1.97107 5.14827,-3.66177 4.84152,-7.36954 -0.0323,-3.28425 4.84836,-2.73558 6.01833,-2.67153 1.22634,0.0672 7.98129,1.00305 10.19637,0.86748 1.53294,-1.16225 3.18184,-3.09628 4.18671,-3.76464 0.9787,-0.65094 2.27825,-2.27832 3.51463,-1.7992 3.86209,0.27149 2.92652,4.98391 2.71686,8.08143 -0.55583,4.0532 -5.66691,5.15093 -10.74329,9.15475 -3.76262,3.056 -3.43355,3.30711 -5.69344,6.77347 -2.25989,3.46635 -1.38003,4.8146 -3.34612,7.09192 z"
           id="path2847"
           sodipodi:nodetypes="ccccczzczccczz"
           inkscape:connector-curvature="0" />
        <path
           style="fill:#ffffff;fill-opacity:1;stroke:#000000;stroke-width:2.21122074;stroke-linecap:round;stroke-linejoin:miter;stroke-miterlimit:4;stroke-opacity:1;stroke-dasharray:none"
           d="m 435.87436,323.51729 c 0.0792,2.07371 -0.62533,3.4563 -1.7481,3.97053"
           id="path2849"
           sodipodi:nodetypes="cc"
           inkscape:connector-curvature="0" />
        <path
           id="path2851"
           d="m 416.45441,341.75515 c 0.67077,-0.0238 4.25196,-1.7169 4.73461,-1.97711 -1.1578,2.14898 -2.05262,2.60277 -3.24653,5.37909 -0.526,1.53241 -1.46705,3.54925 -3.01233,4.56853 -2.28783,-1.78485 -2.48601,-5.27114 -3.54297,-7.90129 -2.8815,-1.97477 -4.82358,-5.35741 -7.44773,-4.84702 -0.62378,-1.5411 0.33659,-2.75794 0.36634,-4.17697 1.20384,6.66296 8.76608,9.033 12.14861,8.95477 z"
           class="fil58"
           style="fill:#ffffff;fill-opacity:1;fill-rule:nonzero;stroke:#000000;stroke-width:1.76897657;stroke-linecap:round;stroke-linejoin:round;stroke-miterlimit:4;stroke-opacity:1;stroke-dasharray:none"
           sodipodi:nodetypes="cccccccc"
           inkscape:connector-curvature="0" />
        <path
           id="path2853"
           d="m 417.40529,345.82718 c -0.40154,0.36509 -3.40258,0.51172 -4.10979,0.33546 -0.27741,-0.65674 -0.5048,-2.62539 -0.89077,-3.4087 0.53735,0.0143 5.52567,0.47386 7.19869,-1.10372 -0.71932,0.77654 -2.42891,4.26415 -2.19813,4.17696 l 0,0 z"
           class="fil59"
           style="fill:#ffffff;fill-opacity:1;fill-rule:nonzero"
           inkscape:connector-curvature="0" />
        <path
           style="fill:#ffffff;fill-opacity:1;stroke:#000000;stroke-width:1.7688185;stroke-linecap:round;stroke-linejoin:round;stroke-miterlimit:4;stroke-opacity:1;stroke-dasharray:none"
           d="m 400.49121,328.76044 c 2.15902,-0.66804 2.57881,-1.87784 4.47484,-2.67221 1.89602,-0.79437 1.9039,-0.67083 3.10927,-0.50523 1.20537,0.16561 1.7122,1.16769 1.7122,1.16769"
           id="path2855"
           sodipodi:nodetypes="czzc"
           inkscape:connector-curvature="0" />
      </g>
      <path
         transform="matrix(0.61137248,-0.42242433,0.38328805,0.64860765,-732.54286,78.679356)"
         inkscape:transform-center-x="2.4654366"
         inkscape:transform-center-y="-48.215064"
         style="opacity:0.97309415;fill:#e5d5ff;fill-opacity:1;stroke:none;filter:url(#filter3870)"
         d="m 773.07962,666.21307 c 0,0 -7.13389,59.49101 -8.57883,95.58364 -1.84997,46.20968 -19.81518,99.89972 -21.94088,150.5778 -0.73704,17.57151 8.20063,46.3313 3.20862,52.66321 -14.53634,18.43799 -44.23302,16.65111 -52.49134,-4.13534 -3.81634,-9.60581 8.45502,-27.56654 10.99216,-53.03632 5.09225,-51.11998 42.11851,-103.46935 48.52071,-145.96909 5.56102,-36.91576 12.27708,-106.13452 12.27708,-106.13452 z"
         id="path3866"
         inkscape:connector-curvature="0"
         sodipodi:nodetypes="csasssscc" />
    </g>
    <path
       style="fill:url(#linearGradient7057);fill-opacity:1;stroke:none"
       d="m -219.53259,146.38129 c 72.43248,32.1585 79.45315,-53.112884 50.90329,-59.182274 16.32311,-9.30418 10.20192,-55.51812 -28.36041,-31.69116 22.83717,-41.98279 -59.98678,-107.97317 -112.35086,-32.07299 -14.52238,-59.94967 -80.16594,-41.77118 -88.7172,3.4364 -47.85352,-21.9623504 -66.29385,38.33838 -41.4498,58.03682 -39.22111,37.762454 22.43972,56.729114 19.27053,30.927524 9.40248,26.83717 46.00559,57.26417 65.44708,-36.273034 -12.68826,33.468214 30.1248,25.608054 69.08306,20.618364 -69.08117,4.93106 -74.727,27.20032 -74.1734,51.16403 4.32472,22.48615 22.84063,36.55717 59.99319,6.87279 11.15621,63.70649 51.49942,28.19829 60.35679,-2.67275 20.90649,38.30987 41.00985,2.97159 19.99773,-9.16372 z"
       id="path3956"
       sodipodi:nodetypes="ccccccccccccc"
       inkscape:connector-curvature="0"
       inkscape:export-filename="/home/filips/svn/geokrety/templates/gkvsbug.png"
       inkscape:export-xdpi="30.108637"
       inkscape:export-ydpi="30.108637" />
  </g>
</svg>
