  0
SECTION
  2
HEADER
  9
$ACADVER
  1
AC1009
  9
$EXTMIN
 10
0.0
 20
0.0
 30
0.0
  9
$EXTMAX
 10
1000.0
 20
1000.0
 30
0.0
  9
$FILLMODE
 70
 0
  9
$SPLFRAME
 70
 1
  0
ENDSEC
  0
SECTION
  2
TABLES
  0
TABLE
  2
LAYER
 70
1
  0
LAYER
  2
0
 70
     0
 62
     7
  6
CONTINUOUS
  0
ENDTAB
  0
ENDSEC
  0
SECTION
  2
ENTITIES
  0
POLYLINE
  8
0
 62
     7
 66
     1
 10
0
 20
0
 30
0.0
 70
     1
 40
0
 41
0
  0
VERTEX
  8
0
 10
1.16797
 20
0.311035
 30
0.0
 40
0
 41
0
  0
VERTEX
  8
0
 10
1.16732
 20
0.310221
 30
0.0
 40
0
 41
0
  0
VERTEX
  8
0
 10
1.16797
 20
0.311035
 30
0.0
 40
0
 41
0
  0
SEQEND
 8
0
  0
POLYLINE
  8
0
 62
     7
 66
     1
 10
0
 20
0
 30
0.0
 70
     1
 40
0
 41
0
  0
VERTEX
  8
0
 10
1.17676
 20
0.309571
 30
0.0
 40
0
 41
0
  0
VERTEX
  8
0
 10
1.17801
 20
0.30816
 30
0.0
 40
0
 41
0
  0
VERTEX
  8
0
 10
1.17676
 20
0.309571
 30
0.0
 40
0
 41
0
  0
SEQEND
 8
0
  0
POLYLINE
  8
0
 62
     7
 66
     1
 10
0
 20
0
 30
0.0
 70
     1
 40
0
 41
0
  0
VERTEX
  8
0
 10
1.14209
 20
0.189669
 30
0.0
 40
0
 41
0
  0
VERTEX
  8
0
 10
1.14063
 20
0.188803
 30
0.0
 40
0
 41
0
  0
VERTEX
  8
0
 10
1.14209
 20
0.189669
 30
0.0
 40
0
 41
0
  0
SEQEND
 8
0
  0
POLYLINE
  8
0
 62
     40
 66
     1
 10
0
 20
0
 30
0.0
 40
0
 41
0
  0
VERTEX
  8
0
 10
0.754069
 20
0.395562
 30
0.0
 40
0
 41
0
  0
VERTEX
  8
0
 10
0.793782
 20
0.36735
 30
0.0
 40
0
 41
0
  0
VERTEX
  8
0
 10
0.846897
 20
0.331054
 30
0.0
 40
0
 41
0
  0
VERTEX
  8
0
 10
0.90804
 20
0.289606
 30
0.0
 40
0
 41
0
  0
VERTEX
  8
0
 10
0.971843
 20
0.246039
 30
0.0
 40
0
 41
0
  0
VERTEX
  8
0
 10
1.03293
 20
0.203233
 30
0.0
 40
0
 41
0
  0
VERTEX
  8
0
 10
1.08594
 20
0.164225
 30
0.0
 40
0
 41
0
  0
VERTEX
  8
0
 10
1.12543
 20
0.131944
 30
0.0
 40
0
 41
0
  0
VERTEX
  8
0
 10
1.1461
 20
0.109321
 30
0.0
 40
0
 41
0
  0
VERTEX
  8
0
 10
1.14996
 20
0.0802951
 30
0.0
 40
0
 41
0
  0
VERTEX
  8
0
 10
1.1377
 20
0.0499132
 30
0.0
 40
0
 41
0
  0
VERTEX
  8
0
 10
1.11589
 20
0.0281575
 30
0.0
 40
0
 41
0
  0
VERTEX
  8
0
 10
1.09115
 20
0.0248481
 30
0.0
 40
0
 41
0
  0
VERTEX
  8
0
 10
1.06912
 20
0.0354818
 30
0.0
 40
0
 41
0
  0
VERTEX
  8
0
 10
1.05159
 20
0.0487739
 30
0.0
 40
0
 41
0
  0
VERTEX
  8
0
 10
1.03353
 20
0.0669488
 30
0.0
 40
0
 41
0
  0
VERTEX
  8
0
 10
1.01004
 20
0.0920682
 30
0.0
 40
0
 41
0
  0
VERTEX
  8
0
 10
0.976128
 20
0.126248
 30
0.0
 40
0
 41
0
  0
VERTEX
  8
0
 10
0.926975
 20
0.17155
 30
0.0
 40
0
 41
0
  0
VERTEX
  8
0
 10
0.857531
 20
0.230035
 30
0.0
 40
0
 41
0
  0
VERTEX
  8
0
 10
0.762967
 20
0.303874
 30
0.0
 40
0
 41
0
  0
SEQEND
 8
0
  0
POLYLINE
  8
0
 62
     0
 66
     1
 10
0
 20
0
 30
0.0
 40
1.19085
 41
1.19085
  0
VERTEX
  8
0
 10
0.754069
 20
0.395562
 30
0.0
 40
0.0165396
 41
0.0165396
  0
VERTEX
  8
0
 10
0.793782
 20
0.36735
 30
0.0
 40
0.0165396
 41
0.0165396
  0
VERTEX
  8
0
 10
0.846897
 20
0.331054
 30
0.0
 40
0.0165396
 41
0.0165396
  0
VERTEX
  8
0
 10
0.90804
 20
0.289606
 30
0.0
 40
0.0165396
 41
0.0165396
  0
VERTEX
  8
0
 10
0.971843
 20
0.246039
 30
0.0
 40
0.0165396
 41
0.0165396
  0
VERTEX
  8
0
 10
1.03293
 20
0.203233
 30
0.0
 40
0.0165396
 41
0.0165396
  0
VERTEX
  8
0
 10
1.08594
 20
0.164225
 30
0.0
 40
0.0165396
 41
0.0165396
  0
VERTEX
  8
0
 10
1.12543
 20
0.131944
 30
0.0
 40
0.0165396
 41
0.0165396
  0
VERTEX
  8
0
 10
1.1461
 20
0.109321
 30
0.0
 40
0.0165396
 41
0.0165396
  0
VERTEX
  8
0
 10
1.14996
 20
0.0802951
 30
0.0
 40
0.0165396
 41
0.0165396
  0
VERTEX
  8
0
 10
1.1377
 20
0.0499132
 30
0.0
 40
0.0165396
 41
0.0165396
  0
VERTEX
  8
0
 10
1.11589
 20
0.0281575
 30
0.0
 40
0.0165396
 41
0.0165396
  0
VERTEX
  8
0
 10
1.09115
 20
0.0248481
 30
0.0
 40
0.0165396
 41
0.0165396
  0
VERTEX
  8
0
 10
1.06912
 20
0.0354818
 30
0.0
 40
0.0165396
 41
0.0165396
  0
VERTEX
  8
0
 10
1.05159
 20
0.0487739
 30
0.0
 40
0.0165396
 41
0.0165396
  0
VERTEX
  8
0
 10
1.03353
 20
0.0669488
 30
0.0
 40
0.0165396
 41
0.0165396
  0
VERTEX
  8
0
 10
1.01004
 20
0.0920682
 30
0.0
 40
0.0165396
 41
0.0165396
  0
VERTEX
  8
0
 10
0.976128
 20
0.126248
 30
0.0
 40
0.0165396
 41
0.0165396
  0
VERTEX
  8
0
 10
0.926975
 20
0.17155
 30
0.0
 40
0.0165396
 41
0.0165396
  0
VERTEX
  8
0
 10
0.857531
 20
0.230035
 30
0.0
 40
0.0165396
 41
0.0165396
  0
VERTEX
  8
0
 10
0.762967
 20
0.303874
 30
0.0
 40
0.0165396
 41
0.0165396
  0
SEQEND
 8
0
  0
POLYLINE
  8
0
 62
     43
 66
     1
 10
0
 20
0
 30
0.0
 40
0
 41
0
  0
VERTEX
  8
0
 10
0.764703
 20
0.137316
 30
0.0
 40
0
 41
0
  0
VERTEX
  8
0
 10
0.782715
 20
0.1435
 30
0.0
 40
0
 41
0
  0
VERTEX
  8
0
 10
0.809625
 20
0.151312
 30
0.0
 40
0
 41
0
  0
VERTEX
  8
0
 10
0.836317
 20
0.160915
 30
0.0
 40
0
 41
0
  0
VERTEX
  8
0
 10
0.853733
 20
0.172472
 30
0.0
 40
0
 41
0
  0
VERTEX
  8
0
 10
0.861274
 20
0.199164
 30
0.0
 40
0
 41
0
  0
VERTEX
  8
0
 10
0.863607
 20
0.223796
 30
0.0
 40
0
 41
0
  0
VERTEX
  8
0
 10
0.89095
 20
0.211643
 30
0.0
 40
0
 41
0
  0
VERTEX
  8
0
 10
0.913574
 20
0.210503
 30
0.0
 40
0
 41
0
  0
VERTEX
  8
0
 10
0.921224
 20
0.217557
 30
0.0
 40
0
 41
0
  0
VERTEX
  8
0
 10
0.930067
 20
0.230469
 30
0.0
 40
0
 41
0
  0
VERTEX
  8
0
 10
0.937392
 20
0.244954
 30
0.0
 40
0
 41
0
  0
VERTEX
  8
0
 10
0.940539
 20
0.256674
 30
0.0
 40
0
 41
0
  0
VERTEX
  8
0
 10
0.933376
 20
0.272353
 30
0.0
 40
0
 41
0
  0
VERTEX
  8
0
 10
0.920247
 20
0.282335
 30
0.0
 40
0
 41
0
  0
VERTEX
  8
0
 10
0.961806
 20
0.299317
 30
0.0
 40
0
 41
0
  0
VERTEX
  8
0
 10
0.996419
 20
0.297092
 30
0.0
 40
0
 41
0
  0
VERTEX
  8
0
 10
1.0089
 20
0.291829
 30
0.0
 40
0
 41
0
  0
VERTEX
  8
0
 10
1.01487
 20
0.284831
 30
0.0
 40
0
 41
0
  0
VERTEX
  8
0
 10
1.01893
 20
0.277289
 30
0.0
 40
0
 41
0
  0
VERTEX
  8
0
 10
1.02572
 20
0.270562
 30
0.0
 40
0
 41
0
  0
VERTEX
  8
0
 10
1.04275
 20
0.264919
 30
0.0
 40
0
 41
0
  0
VERTEX
  8
0
 10
1.05648
 20
0.259386
 30
0.0
 40
0
 41
0
  0
VERTEX
  8
0
 10
1.06532
 20
0.245389
 30
0.0
 40
0
 41
0
  0
VERTEX
  8
0
 10
1.07471
 20
0.229546
 30
0.0
 40
0
 41
0
  0
VERTEX
  8
0
 10
1.08729
 20
0.221571
 30
0.0
 40
0
 41
0
  0
VERTEX
  8
0
 10
1.10059
 20
0.211751
 30
0.0
 40
0
 41
0
  0
VERTEX
  8
0
 10
1.10851
 20
0.195692
 30
0.0
 40
0
 41
0
  0
VERTEX
  8
0
 10
1.11388
 20
0.178603
 30
0.0
 40
0
 41
0
  0
VERTEX
  8
0
 10
1.12001
 20
0.171115
 30
0.0
 40
0
 41
0
  0
VERTEX
  8
0
 10
1.12581
 20
0.165528
 30
0.0
 40
0
 41
0
  0
VERTEX
  8
0
 10
1.12695
 20
0.156196
 30
0.0
 40
0
 41
0
  0
VERTEX
  8
0
 10
1.11919
 20
0.137316
 30
0.0
 40
0
 41
0
  0
VERTEX
  8
0
 10
1.0912
 20
0.0983072
 30
0.0
 40
0
 41
0
  0
VERTEX
  8
0
 10
1.06554
 20
0.0757378
 30
0.0
 40
0
 41
0
  0
VERTEX
  8
0
 10
1.05132
 20
0.0677626
 30
0.0
 40
0
 41
0
  0
VERTEX
  8
0
 10
1.03423
 20
0.0616863
 30
0.0
 40
0
 41
0
  0
VERTEX
  8
0
 10
1.01845
 20
0.0590278
 30
0.0
 40
0
 41
0
  0
VERTEX
  8
0
 10
1.00846
 20
0.0612522
 30
0.0
 40
0
 41
0
  0
VERTEX
  8
0
 10
1.00282
 20
0.0691732
 30
0.0
 40
0
 41
0
  0
VERTEX
  8
0
 10
1.00597
 20
0.0769314
 30
0.0
 40
0
 41
0
  0
VERTEX
  8
0
 10
0.995822
 20
0.0722656
 30
0.0
 40
0
 41
0
  0
VERTEX
  8
0
 10
0.980794
 20
0.0680881
 30
0.0
 40
0
 41
0
  0
VERTEX
  8
0
 10
0.966308
 20
0.0689561
 30
0.0
 40
0
 41
0
  0
VERTEX
  8
0
 10
0.958008
 20
0.0769857
 30
0.0
 40
0
 41
0
  0
VERTEX
  8
0
 10
0.956543
 20
0.0838217
 30
0.0
 40
0
 41
0
  0
VERTEX
  8
0
 10
0.958496
 20
0.0913628
 30
0.0
 40
0
 41
0
  0
VERTEX
  8
0
 10
0.960124
 20
0.0967882
 30
0.0
 40
0
 41
0
  0
VERTEX
  8
0
 10
0.957844
 20
0.0972765
 30
0.0
 40
0
 41
0
  0
VERTEX
  8
0
 10
0.953396
 20
0.0920682
 30
0.0
 40
0
 41
0
  0
VERTEX
  8
0
 10
0.949056
 20
0.083279
 30
0.0
 40
0
 41
0
  0
VERTEX
  8
0
 10
0.94184
 20
0.0725911
 30
0.0
 40
0
 41
0
  0
VERTEX
  8
0
 10
0.928928
 20
0.0616863
 30
0.0
 40
0
 41
0
  0
VERTEX
  8
0
 10
0.888237
 20
0.0408529
 30
0.0
 40
0
 41
0
  0
VERTEX
  8
0
 10
0.843317
 20
0.0269097
 30
0.0
 40
0
 41
0
  0
VERTEX
  8
0
 10
0.80816
 20
0.0320637
 30
0.0
 40
0
 41
0
  0
VERTEX
  8
0
 10
0.784451
 20
0.0409614
 30
0.0
 40
0
 41
0
  0
SEQEND
 8
0
  0
POLYLINE
  8
0
 62
     0
 66
     1
 10
0
 20
0
 30
0.0
 40
1.19085
 41
1.19085
  0
VERTEX
  8
0
 10
0.764703
 20
0.137316
 30
0.0
 40
0.0165396
 41
0.0165396
  0
VERTEX
  8
0
 10
0.782715
 20
0.1435
 30
0.0
 40
0.0165396
 41
0.0165396
  0
VERTEX
  8
0
 10
0.809625
 20
0.151312
 30
0.0
 40
0.0165396
 41
0.0165396
  0
VERTEX
  8
0
 10
0.836317
 20
0.160915
 30
0.0
 40
0.0165396
 41
0.0165396
  0
VERTEX
  8
0
 10
0.853733
 20
0.172472
 30
0.0
 40
0.0165396
 41
0.0165396
  0
VERTEX
  8
0
 10
0.861274
 20
0.199164
 30
0.0
 40
0.0165396
 41
0.0165396
  0
VERTEX
  8
0
 10
0.863607
 20
0.223796
 30
0.0
 40
0.0165396
 41
0.0165396
  0
VERTEX
  8
0
 10
0.89095
 20
0.211643
 30
0.0
 40
0.0165396
 41
0.0165396
  0
VERTEX
  8
0
 10
0.913574
 20
0.210503
 30
0.0
 40
0.0165396
 41
0.0165396
  0
VERTEX
  8
0
 10
0.921224
 20
0.217557
 30
0.0
 40
0.0165396
 41
0.0165396
  0
VERTEX
  8
0
 10
0.930067
 20
0.230469
 30
0.0
 40
0.0165396
 41
0.0165396
  0
VERTEX
  8
0
 10
0.937392
 20
0.244954
 30
0.0
 40
0.0165396
 41
0.0165396
  0
VERTEX
  8
0
 10
0.940539
 20
0.256674
 30
0.0
 40
0.0165396
 41
0.0165396
  0
VERTEX
  8
0
 10
0.933376
 20
0.272353
 30
0.0
 40
0.0165396
 41
0.0165396
  0
VERTEX
  8
0
 10
0.920247
 20
0.282335
 30
0.0
 40
0.0165396
 41
0.0165396
  0
VERTEX
  8
0
 10
0.961806
 20
0.299317
 30
0.0
 40
0.0165396
 41
0.0165396
  0
VERTEX
  8
0
 10
0.996419
 20
0.297092
 30
0.0
 40
0.0165396
 41
0.0165396
  0
VERTEX
  8
0
 10
1.0089
 20
0.291829
 30
0.0
 40
0.0165396
 41
0.0165396
  0
VERTEX
  8
0
 10
1.01487
 20
0.284831
 30
0.0
 40
0.0165396
 41
0.0165396
  0
VERTEX
  8
0
 10
1.01893
 20
0.277289
 30
0.0
 40
0.0165396
 41
0.0165396
  0
VERTEX
  8
0
 10
1.02572
 20
0.270562
 30
0.0
 40
0.0165396
 41
0.0165396
  0
VERTEX
  8
0
 10
1.04275
 20
0.264919
 30
0.0
 40
0.0165396
 41
0.0165396
  0
VERTEX
  8
0
 10
1.05648
 20
0.259386
 30
0.0
 40
0.0165396
 41
0.0165396
  0
VERTEX
  8
0
 10
1.06532
 20
0.245389
 30
0.0
 40
0.0165396
 41
0.0165396
  0
VERTEX
  8
0
 10
1.07471
 20
0.229546
 30
0.0
 40
0.0165396
 41
0.0165396
  0
VERTEX
  8
0
 10
1.08729
 20
0.221571
 30
0.0
 40
0.0165396
 41
0.0165396
  0
VERTEX
  8
0
 10
1.10059
 20
0.211751
 30
0.0
 40
0.0165396
 41
0.0165396
  0
VERTEX
  8
0
 10
1.10851
 20
0.195692
 30
0.0
 40
0.0165396
 41
0.0165396
  0
VERTEX
  8
0
 10
1.11388
 20
0.178603
 30
0.0
 40
0.0165396
 41
0.0165396
  0
VERTEX
  8
0
 10
1.12001
 20
0.171115
 30
0.0
 40
0.0165396
 41
0.0165396
  0
VERTEX
  8
0
 10
1.12581
 20
0.165528
 30
0.0
 40
0.0165396
 41
0.0165396
  0
VERTEX
  8
0
 10
1.12695
 20
0.156196
 30
0.0
 40
0.0165396
 41
0.0165396
  0
VERTEX
  8
0
 10
1.11919
 20
0.137316
 30
0.0
 40
0.0165396
 41
0.0165396
  0
VERTEX
  8
0
 10
1.0912
 20
0.0983072
 30
0.0
 40
0.0165396
 41
0.0165396
  0
VERTEX
  8
0
 10
1.06554
 20
0.0757378
 30
0.0
 40
0.0165396
 41
0.0165396
  0
VERTEX
  8
0
 10
1.05132
 20
0.0677626
 30
0.0
 40
0.0165396
 41
0.0165396
  0
VERTEX
  8
0
 10
1.03423
 20
0.0616863
 30
0.0
 40
0.0165396
 41
0.0165396
  0
VERTEX
  8
0
 10
1.01845
 20
0.0590278
 30
0.0
 40
0.0165396
 41
0.0165396
  0
VERTEX
  8
0
 10
1.00846
 20
0.0612522
 30
0.0
 40
0.0165396
 41
0.0165396
  0
VERTEX
  8
0
 10
1.00282
 20
0.0691732
 30
0.0
 40
0.0165396
 41
0.0165396
  0
VERTEX
  8
0
 10
1.00597
 20
0.0769314
 30
0.0
 40
0.0165396
 41
0.0165396
  0
VERTEX
  8
0
 10
0.995822
 20
0.0722656
 30
0.0
 40
0.0165396
 41
0.0165396
  0
VERTEX
  8
0
 10
0.980794
 20
0.0680881
 30
0.0
 40
0.0165396
 41
0.0165396
  0
VERTEX
  8
0
 10
0.966308
 20
0.0689561
 30
0.0
 40
0.0165396
 41
0.0165396
  0
VERTEX
  8
0
 10
0.958008
 20
0.0769857
 30
0.0
 40
0.0165396
 41
0.0165396
  0
VERTEX
  8
0
 10
0.956543
 20
0.0838217
 30
0.0
 40
0.0165396
 41
0.0165396
  0
VERTEX
  8
0
 10
0.958496
 20
0.0913628
 30
0.0
 40
0.0165396
 41
0.0165396
  0
VERTEX
  8
0
 10
0.960124
 20
0.0967882
 30
0.0
 40
0.0165396
 41
0.0165396
  0
VERTEX
  8
0
 10
0.957844
 20
0.0972765
 30
0.0
 40
0.0165396
 41
0.0165396
  0
VERTEX
  8
0
 10
0.953396
 20
0.0920682
 30
0.0
 40
0.0165396
 41
0.0165396
  0
VERTEX
  8
0
 10
0.949056
 20
0.083279
 30
0.0
 40
0.0165396
 41
0.0165396
  0
VERTEX
  8
0
 10
0.94184
 20
0.0725911
 30
0.0
 40
0.0165396
 41
0.0165396
  0
VERTEX
  8
0
 10
0.928928
 20
0.0616863
 30
0.0
 40
0.0165396
 41
0.0165396
  0
VERTEX
  8
0
 10
0.888237
 20
0.0408529
 30
0.0
 40
0.0165396
 41
0.0165396
  0
VERTEX
  8
0
 10
0.843317
 20
0.0269097
 30
0.0
 40
0.0165396
 41
0.0165396
  0
VERTEX
  8
0
 10
0.80816
 20
0.0320637
 30
0.0
 40
0.0165396
 41
0.0165396
  0
VERTEX
  8
0
 10
0.784451
 20
0.0409614
 30
0.0
 40
0.0165396
 41
0.0165396
  0
SEQEND
 8
0
  0
POLYLINE
  8
0
 62
     0
 66
     1
 10
0
 20
0
 30
0.0
 40
1.19085
 41
1.19085
  0
VERTEX
  8
0
 10
0.882107
 20
0.163465
 30
0.0
 40
0.0165396
 41
0.0165396
  0
VERTEX
  8
0
 10
0.914279
 20
0.134169
 30
0.0
 40
0.0165396
 41
0.0165396
  0
VERTEX
  8
0
 10
0.951606
 20
0.105523
 30
0.0
 40
0.0165396
 41
0.0165396
  0
VERTEX
  8
0
 10
0.990776
 20
0.0846897
 30
0.0
 40
0.0165396
 41
0.0165396
  0
VERTEX
  8
0
 10
1.02875
 20
0.0787761
 30
0.0
 40
0.0165396
 41
0.0165396
  0
VERTEX
  8
0
 10
1.03494
 20
0.0931532
 30
0.0
 40
0.0165396
 41
0.0165396
  0
VERTEX
  8
0
 10
1.0242
 20
0.124729
 30
0.0
 40
0.0165396
 41
0.0165396
  0
VERTEX
  8
0
 10
1.0032
 20
0.161675
 30
0.0
 40
0.0165396
 41
0.0165396
  0
VERTEX
  8
0
 10
0.978788
 20
0.192111
 30
0.0
 40
0.0165396
 41
0.0165396
  0
VERTEX
  8
0
 10
0.953396
 20
0.20714
 30
0.0
 40
0.0165396
 41
0.0165396
  0
VERTEX
  8
0
 10
0.927789
 20
0.209364
 30
0.0
 40
0.0165396
 41
0.0165396
  0
VERTEX
  8
0
 10
0.906033
 20
0.204428
 30
0.0
 40
0.0165396
 41
0.0165396
  0
VERTEX
  8
0
 10
0.892036
 20
0.197863
 30
0.0
 40
0.0165396
 41
0.0165396
  0
SEQEND
 8
0
  0
POLYLINE
  8
0
 62
     0
 66
     1
 10
0
 20
0
 30
0.0
 40
1.19085
 41
1.19085
  0
VERTEX
  8
0
 10
0.981825
 20
0.192979
 30
0.0
 40
0.0165396
 41
0.0165396
  0
VERTEX
  8
0
 10
0.997721
 20
0.208822
 30
0.0
 40
0.0165396
 41
0.0165396
  0
VERTEX
  8
0
 10
1.00993
 20
0.245171
 30
0.0
 40
0.0165396
 41
0.0165396
  0
SEQEND
 8
0
  0
POLYLINE
  8
0
 62
     0
 66
     1
 10
0
 20
0
 30
0.0
 40
1.19085
 41
1.19085
  0
VERTEX
  8
0
 10
1.0191
 20
0.140842
 30
0.0
 40
0.0165396
 41
0.0165396
  0
VERTEX
  8
0
 10
1.04324
 20
0.171658
 30
0.0
 40
0.0165396
 41
0.0165396
  0
VERTEX
  8
0
 10
1.05767
 20
0.204372
 30
0.0
 40
0.0165396
 41
0.0165396
  0
SEQEND
 8
0
  0
POLYLINE
  8
0
 62
     0
 66
     1
 10
0
 20
0
 30
0.0
 40
1.19085
 41
1.19085
  0
VERTEX
  8
0
 10
1.03711
 20
0.089464
 30
0.0
 40
0.0165396
 41
0.0165396
  0
VERTEX
  8
0
 10
1.07178
 20
0.120822
 30
0.0
 40
0.0165396
 41
0.0165396
  0
VERTEX
  8
0
 10
1.09239
 20
0.156088
 30
0.0
 40
0.0165396
 41
0.0165396
  0
SEQEND
 8
0
  0
POLYLINE
  8
0
 62
     75
 66
     1
 10
0
 20
0
 30
0.0
 70
     1
 40
0
 41
0
  0
VERTEX
  8
0
 10
0.591308
 20
0.622667
 30
0.0
 40
0
 41
0
  0
VERTEX
  8
0
 10
0.415364
 20
0.324815
 30
0.0
 40
0
 41
0
  0
VERTEX
  8
0
 10
0.224881
 20
0.394476
 30
0.0
 40
0
 41
0
  0
VERTEX
  8
0
 10
0.00824646
 20
0.629503
 30
0.0
 40
0
 41
0
  0
VERTEX
  8
0
 10
0.314453
 20
0.727864
 30
0.0
 40
0
 41
0
  0
VERTEX
  8
0
 10
0.591308
 20
0.622667
 30
0.0
 40
0
 41
0
  0
SEQEND
 8
0
  0
POLYLINE
  8
0
 62
     0
 66
     1
 10
0
 20
0
 30
0.0
 70
     1
 40
1.19095
 41
1.19095
  0
VERTEX
  8
0
 10
0.591308
 20
0.622667
 30
0.0
 40
0.016541
 41
0.016541
  0
VERTEX
  8
0
 10
0.415364
 20
0.324815
 30
0.0
 40
0.016541
 41
0.016541
  0
VERTEX
  8
0
 10
0.224881
 20
0.394476
 30
0.0
 40
0.016541
 41
0.016541
  0
VERTEX
  8
0
 10
0.00824646
 20
0.629503
 30
0.0
 40
0.016541
 41
0.016541
  0
VERTEX
  8
0
 10
0.314453
 20
0.727864
 30
0.0
 40
0.016541
 41
0.016541
  0
VERTEX
  8
0
 10
0.591308
 20
0.622667
 30
0.0
 40
0.016541
 41
0.016541
  0
SEQEND
 8
0
  0
POLYLINE
  8
0
 62
     254
 66
     1
 10
0
 20
0
 30
0.0
 70
     1
 40
0
 41
0
  0
VERTEX
  8
0
 10
0.224881
 20
0.394476
 30
0.0
 40
0
 41
0
  0
VERTEX
  8
0
 10
0.00824646
 20
0.629503
 30
0.0
 40
0
 41
0
  0
VERTEX
  8
0
 10
0.314453
 20
0.727864
 30
0.0
 40
0
 41
0
  0
VERTEX
  8
0
 10
0.405001
 20
0.692057
 30
0.0
 40
0
 41
0
  0
VERTEX
  8
0
 10
0.119683
 20
0.601561
 30
0.0
 40
0
 41
0
  0
VERTEX
  8
0
 10
0.311251
 20
0.363607
 30
0.0
 40
0
 41
0
  0
VERTEX
  8
0
 10
0.224881
 20
0.394476
 30
0.0
 40
0
 41
0
  0
SEQEND
 8
0
  0
POLYLINE
  8
0
 62
     0
 66
     1
 10
0
 20
0
 30
0.0
 70
     1
 40
1.19095
 41
1.19095
  0
VERTEX
  8
0
 10
0.224881
 20
0.394476
 30
0.0
 40
0.016541
 41
0.016541
  0
VERTEX
  8
0
 10
0.00824646
 20
0.629503
 30
0.0
 40
0.016541
 41
0.016541
  0
VERTEX
  8
0
 10
0.314453
 20
0.727864
 30
0.0
 40
0.016541
 41
0.016541
  0
VERTEX
  8
0
 10
0.405001
 20
0.692057
 30
0.0
 40
0.016541
 41
0.016541
  0
VERTEX
  8
0
 10
0.119683
 20
0.601561
 30
0.0
 40
0.016541
 41
0.016541
  0
VERTEX
  8
0
 10
0.311251
 20
0.363607
 30
0.0
 40
0.016541
 41
0.016541
  0
VERTEX
  8
0
 10
0.224881
 20
0.394476
 30
0.0
 40
0.016541
 41
0.016541
  0
SEQEND
 8
0
  0
POLYLINE
  8
0
 62
     75
 66
     1
 10
0
 20
0
 30
0.0
 70
     1
 40
0
 41
0
  0
VERTEX
  8
0
 10
0.57091
 20
0.480578
 30
0.0
 40
0
 41
0
  0
VERTEX
  8
0
 10
0.528646
 20
0.401421
 30
0.0
 40
0
 41
0
  0
VERTEX
  8
0
 10
0.500597
 20
0.419542
 30
0.0
 40
0
 41
0
  0
VERTEX
  8
0
 10
0.464789
 20
0.440321
 30
0.0
 40
0
 41
0
  0
VERTEX
  8
0
 10
0.425401
 20
0.462726
 30
0.0
 40
0
 41
0
  0
VERTEX
  8
0
 10
0.386556
 20
0.485785
 30
0.0
 40
0
 41
0
  0
VERTEX
  8
0
 10
0.352485
 20
0.50841
 30
0.0
 40
0
 41
0
  0
VERTEX
  8
0
 10
0.327257
 20
0.529568
 30
0.0
 40
0
 41
0
  0
VERTEX
  8
0
 10
0.315104
 20
0.548286
 30
0.0
 40
0
 41
0
  0
VERTEX
  8
0
 10
0.320204
 20
0.563476
 30
0.0
 40
0
 41
0
  0
VERTEX
  8
0
 10
0.363499
 20
0.573837
 30
0.0
 40
0
 41
0
  0
VERTEX
  8
0
 10
0.425999
 20
0.557454
 30
0.0
 40
0
 41
0
  0
VERTEX
  8
0
 10
0.498264
 20
0.523438
 30
0.0
 40
0
 41
0
  0
VERTEX
  8
0
 10
0.57091
 20
0.480578
 30
0.0
 40
0
 41
0
  0
SEQEND
 8
0
  0
POLYLINE
  8
0
 62
     0
 66
     1
 10
0
 20
0
 30
0.0
 70
     1
 40
1.19095
 41
1.19095
  0
VERTEX
  8
0
 10
0.57091
 20
0.480578
 30
0.0
 40
0.016541
 41
0.016541
  0
VERTEX
  8
0
 10
0.528646
 20
0.401421
 30
0.0
 40
0.016541
 41
0.016541
  0
VERTEX
  8
0
 10
0.500597
 20
0.419542
 30
0.0
 40
0.016541
 41
0.016541
  0
VERTEX
  8
0
 10
0.464789
 20
0.440321
 30
0.0
 40
0.016541
 41
0.016541
  0
VERTEX
  8
0
 10
0.425401
 20
0.462726
 30
0.0
 40
0.016541
 41
0.016541
  0
VERTEX
  8
0
 10
0.386556
 20
0.485785
 30
0.0
 40
0.016541
 41
0.016541
  0
VERTEX
  8
0
 10
0.352485
 20
0.50841
 30
0.0
 40
0.016541
 41
0.016541
  0
VERTEX
  8
0
 10
0.327257
 20
0.529568
 30
0.0
 40
0.016541
 41
0.016541
  0
VERTEX
  8
0
 10
0.315104
 20
0.548286
 30
0.0
 40
0.016541
 41
0.016541
  0
VERTEX
  8
0
 10
0.320204
 20
0.563476
 30
0.0
 40
0.016541
 41
0.016541
  0
VERTEX
  8
0
 10
0.363499
 20
0.573837
 30
0.0
 40
0.016541
 41
0.016541
  0
VERTEX
  8
0
 10
0.425999
 20
0.557454
 30
0.0
 40
0.016541
 41
0.016541
  0
VERTEX
  8
0
 10
0.498264
 20
0.523438
 30
0.0
 40
0.016541
 41
0.016541
  0
VERTEX
  8
0
 10
0.57091
 20
0.480578
 30
0.0
 40
0.016541
 41
0.016541
  0
SEQEND
 8
0
  0
POLYLINE
  8
0
 62
     252
 66
     1
 10
0
 20
0
 30
0.0
 70
     1
 40
0
 41
0
  0
VERTEX
  8
0
 10
0.841146
 20
0.27105
 30
0.0
 40
0
 41
0
  0
VERTEX
  8
0
 10
0.834201
 20
0.232096
 30
0.0
 40
0
 41
0
  0
VERTEX
  8
0
 10
0.832519
 20
0.169379
 30
0.0
 40
0
 41
0
  0
VERTEX
  8
0
 10
0.840224
 20
0.0947808
 30
0.0
 40
0
 41
0
  0
VERTEX
  8
0
 10
0.8616
 20
0.0201281
 30
0.0
 40
0
 41
0
  0
VERTEX
  8
0
 10
0.753961
 20
0.0288628
 30
0.0
 40
0
 41
0
  0
VERTEX
  8
0
 10
0.668619
 20
0.0455729
 30
0.0
 40
0
 41
0
  0
VERTEX
  8
0
 10
0.599392
 20
0.0683051
 30
0.0
 40
0
 41
0
  0
VERTEX
  8
0
 10
0.540147
 20
0.0949978
 30
0.0
 40
0
 41
0
  0
VERTEX
  8
0
 10
0.4847
 20
0.123644
 30
0.0
 40
0
 41
0
  0
VERTEX
  8
0
 10
0.426867
 20
0.152235
 30
0.0
 40
0
 41
0
  0
VERTEX
  8
0
 10
0.360514
 20
0.178657
 30
0.0
 40
0
 41
0
  0
VERTEX
  8
0
 10
0.279514
 20
0.2009
 30
0.0
 40
0
 41
0
  0
VERTEX
  8
0
 10
0.306532
 20
0.253743
 30
0.0
 40
0
 41
0
  0
VERTEX
  8
0
 10
0.338813
 20
0.297418
 30
0.0
 40
0
 41
0
  0
VERTEX
  8
0
 10
0.377983
 20
0.33686
 30
0.0
 40
0
 41
0
  0
VERTEX
  8
0
 10
0.425781
 20
0.376844
 30
0.0
 40
0
 41
0
  0
VERTEX
  8
0
 10
0.476128
 20
0.425836
 30
0.0
 40
0
 41
0
  0
VERTEX
  8
0
 10
0.525988
 20
0.478515
 30
0.0
 40
0
 41
0
  0
VERTEX
  8
0
 10
0.569824
 20
0.517307
 30
0.0
 40
0
 41
0
  0
VERTEX
  8
0
 10
0.617458
 20
0.54476
 30
0.0
 40
0
 41
0
  0
VERTEX
  8
0
 10
0.670572
 20
0.558865
 30
0.0
 40
0
 41
0
  0
VERTEX
  8
0
 10
0.728028
 20
0.559136
 30
0.0
 40
0
 41
0
  0
VERTEX
  8
0
 10
0.7838
 20
0.544706
 30
0.0
 40
0
 41
0
  0
VERTEX
  8
0
 10
0.831976
 20
0.514757
 30
0.0
 40
0
 41
0
  0
VERTEX
  8
0
 10
0.815918
 20
0.51275
 30
0.0
 40
0
 41
0
  0
VERTEX
  8
0
 10
0.796983
 20
0.509928
 30
0.0
 40
0
 41
0
  0
VERTEX
  8
0
 10
0.781304
 20
0.502225
 30
0.0
 40
0
 41
0
  0
VERTEX
  8
0
 10
0.774903
 20
0.485678
 30
0.0
 40
0
 41
0
  0
VERTEX
  8
0
 10
0.772081
 20
0.46365
 30
0.0
 40
0
 41
0
  0
VERTEX
  8
0
 10
0.761339
 20
0.446506
 30
0.0
 40
0
 41
0
  0
VERTEX
  8
0
 10
0.745606
 20
0.432292
 30
0.0
 40
0
 41
0
  0
VERTEX
  8
0
 10
0.728082
 20
0.419054
 30
0.0
 40
0
 41
0
  0
VERTEX
  8
0
 10
0.720324
 20
0.406088
 30
0.0
 40
0
 41
0
  0
VERTEX
  8
0
 10
0.716362
 20
0.39209
 30
0.0
 40
0
 41
0
  0
VERTEX
  8
0
 10
0.711046
 20
0.379449
 30
0.0
 40
0
 41
0
  0
VERTEX
  8
0
 10
0.699219
 20
0.370171
 30
0.0
 40
0
 41
0
  0
VERTEX
  8
0
 10
0.705404
 20
0.330729
 30
0.0
 40
0
 41
0
  0
VERTEX
  8
0
 10
0.72385
 20
0.293511
 30
0.0
 40
0
 41
0
  0
VERTEX
  8
0
 10
0.748861
 20
0.261936
 30
0.0
 40
0
 41
0
  0
VERTEX
  8
0
 10
0.778917
 20
0.237956
 30
0.0
 40
0
 41
0
  0
VERTEX
  8
0
 10
0.796115
 20
0.234592
 30
0.0
 40
0
 41
0
  0
VERTEX
  8
0
 10
0.813097
 20
0.242676
 30
0.0
 40
0
 41
0
  0
VERTEX
  8
0
 10
0.828504
 20
0.256674
 30
0.0
 40
0
 41
0
  0
VERTEX
  8
0
 10
0.841146
 20
0.27105
 30
0.0
 40
0
 41
0
  0
SEQEND
 8
0
  0
POLYLINE
  8
0
 62
     0
 66
     1
 10
0
 20
0
 30
0.0
 70
     1
 40
1.19095
 41
1.19095
  0
VERTEX
  8
0
 10
0.841146
 20
0.27105
 30
0.0
 40
0.016541
 41
0.016541
  0
VERTEX
  8
0
 10
0.834201
 20
0.232096
 30
0.0
 40
0.016541
 41
0.016541
  0
VERTEX
  8
0
 10
0.832519
 20
0.169379
 30
0.0
 40
0.016541
 41
0.016541
  0
VERTEX
  8
0
 10
0.840224
 20
0.0947808
 30
0.0
 40
0.016541
 41
0.016541
  0
VERTEX
  8
0
 10
0.8616
 20
0.0201281
 30
0.0
 40
0.016541
 41
0.016541
  0
VERTEX
  8
0
 10
0.753961
 20
0.0288628
 30
0.0
 40
0.016541
 41
0.016541
  0
VERTEX
  8
0
 10
0.668619
 20
0.0455729
 30
0.0
 40
0.016541
 41
0.016541
  0
VERTEX
  8
0
 10
0.599392
 20
0.0683051
 30
0.0
 40
0.016541
 41
0.016541
  0
VERTEX
  8
0
 10
0.540147
 20
0.0949978
 30
0.0
 40
0.016541
 41
0.016541
  0
VERTEX
  8
0
 10
0.4847
 20
0.123644
 30
0.0
 40
0.016541
 41
0.016541
  0
VERTEX
  8
0
 10
0.426867
 20
0.152235
 30
0.0
 40
0.016541
 41
0.016541
  0
VERTEX
  8
0
 10
0.360514
 20
0.178657
 30
0.0
 40
0.016541
 41
0.016541
  0
VERTEX
  8
0
 10
0.279514
 20
0.2009
 30
0.0
 40
0.016541
 41
0.016541
  0
VERTEX
  8
0
 10
0.306532
 20
0.253743
 30
0.0
 40
0.016541
 41
0.016541
  0
VERTEX
  8
0
 10
0.338813
 20
0.297418
 30
0.0
 40
0.016541
 41
0.016541
  0
VERTEX
  8
0
 10
0.377983
 20
0.33686
 30
0.0
 40
0.016541
 41
0.016541
  0
VERTEX
  8
0
 10
0.425781
 20
0.376844
 30
0.0
 40
0.016541
 41
0.016541
  0
VERTEX
  8
0
 10
0.476128
 20
0.425836
 30
0.0
 40
0.016541
 41
0.016541
  0
VERTEX
  8
0
 10
0.525988
 20
0.478515
 30
0.0
 40
0.016541
 41
0.016541
  0
VERTEX
  8
0
 10
0.569824
 20
0.517307
 30
0.0
 40
0.016541
 41
0.016541
  0
VERTEX
  8
0
 10
0.617458
 20
0.54476
 30
0.0
 40
0.016541
 41
0.016541
  0
VERTEX
  8
0
 10
0.670572
 20
0.558865
 30
0.0
 40
0.016541
 41
0.016541
  0
VERTEX
  8
0
 10
0.728028
 20
0.559136
 30
0.0
 40
0.016541
 41
0.016541
  0
VERTEX
  8
0
 10
0.7838
 20
0.544706
 30
0.0
 40
0.016541
 41
0.016541
  0
VERTEX
  8
0
 10
0.831976
 20
0.514757
 30
0.0
 40
0.016541
 41
0.016541
  0
VERTEX
  8
0
 10
0.815918
 20
0.51275
 30
0.0
 40
0.016541
 41
0.016541
  0
VERTEX
  8
0
 10
0.796983
 20
0.509928
 30
0.0
 40
0.016541
 41
0.016541
  0
VERTEX
  8
0
 10
0.781304
 20
0.502225
 30
0.0
 40
0.016541
 41
0.016541
  0
VERTEX
  8
0
 10
0.774903
 20
0.485678
 30
0.0
 40
0.016541
 41
0.016541
  0
VERTEX
  8
0
 10
0.772081
 20
0.46365
 30
0.0
 40
0.016541
 41
0.016541
  0
VERTEX
  8
0
 10
0.761339
 20
0.446506
 30
0.0
 40
0.016541
 41
0.016541
  0
VERTEX
  8
0
 10
0.745606
 20
0.432292
 30
0.0
 40
0.016541
 41
0.016541
  0
VERTEX
  8
0
 10
0.728082
 20
0.419054
 30
0.0
 40
0.016541
 41
0.016541
  0
VERTEX
  8
0
 10
0.720324
 20
0.406088
 30
0.0
 40
0.016541
 41
0.016541
  0
VERTEX
  8
0
 10
0.716362
 20
0.39209
 30
0.0
 40
0.016541
 41
0.016541
  0
VERTEX
  8
0
 10
0.711046
 20
0.379449
 30
0.0
 40
0.016541
 41
0.016541
  0
VERTEX
  8
0
 10
0.699219
 20
0.370171
 30
0.0
 40
0.016541
 41
0.016541
  0
VERTEX
  8
0
 10
0.705404
 20
0.330729
 30
0.0
 40
0.016541
 41
0.016541
  0
VERTEX
  8
0
 10
0.72385
 20
0.293511
 30
0.0
 40
0.016541
 41
0.016541
  0
VERTEX
  8
0
 10
0.748861
 20
0.261936
 30
0.0
 40
0.016541
 41
0.016541
  0
VERTEX
  8
0
 10
0.778917
 20
0.237956
 30
0.0
 40
0.016541
 41
0.016541
  0
VERTEX
  8
0
 10
0.796115
 20
0.234592
 30
0.0
 40
0.016541
 41
0.016541
  0
VERTEX
  8
0
 10
0.813097
 20
0.242676
 30
0.0
 40
0.016541
 41
0.016541
  0
VERTEX
  8
0
 10
0.828504
 20
0.256674
 30
0.0
 40
0.016541
 41
0.016541
  0
VERTEX
  8
0
 10
0.841146
 20
0.27105
 30
0.0
 40
0.016541
 41
0.016541
  0
SEQEND
 8
0
  0
POLYLINE
  8
0
 62
     43
 66
     1
 10
0
 20
0
 30
0.0
 70
     1
 40
0
 41
0
  0
VERTEX
  8
0
 10
0.839681
 20
0.272786
 30
0.0
 40
0
 41
0
  0
VERTEX
  8
0
 10
0.825086
 20
0.25689
 30
0.0
 40
0
 41
0
  0
VERTEX
  8
0
 10
0.809896
 20
0.243056
 30
0.0
 40
0
 41
0
  0
VERTEX
  8
0
 10
0.794
 20
0.23584
 30
0.0
 40
0
 41
0
  0
VERTEX
  8
0
 10
0.777453
 20
0.239692
 30
0.0
 40
0
 41
0
  0
VERTEX
  8
0
 10
0.747396
 20
0.263672
 30
0.0
 40
0
 41
0
  0
VERTEX
  8
0
 10
0.722385
 20
0.295301
 30
0.0
 40
0
 41
0
  0
VERTEX
  8
0
 10
0.703939
 20
0.332465
 30
0.0
 40
0
 41
0
  0
VERTEX
  8
0
 10
0.697754
 20
0.371907
 30
0.0
 40
0
 41
0
  0
VERTEX
  8
0
 10
0.709581
 20
0.381185
 30
0.0
 40
0
 41
0
  0
VERTEX
  8
0
 10
0.714899
 20
0.393881
 30
0.0
 40
0
 41
0
  0
VERTEX
  8
0
 10
0.718858
 20
0.407824
 30
0.0
 40
0
 41
0
  0
VERTEX
  8
0
 10
0.726617
 20
0.42079
 30
0.0
 40
0
 41
0
  0
VERTEX
  8
0
 10
0.74414
 20
0.434028
 30
0.0
 40
0
 41
0
  0
VERTEX
  8
0
 10
0.759874
 20
0.448296
 30
0.0
 40
0
 41
0
  0
VERTEX
  8
0
 10
0.770617
 20
0.46544
 30
0.0
 40
0
 41
0
  0
VERTEX
  8
0
 10
0.773438
 20
0.487468
 30
0.0
 40
0
 41
0
  0
VERTEX
  8
0
 10
0.780761
 20
0.503851
 30
0.0
 40
0
 41
0
  0
VERTEX
  8
0
 10
0.798122
 20
0.510906
 30
0.0
 40
0
 41
0
  0
VERTEX
  8
0
 10
0.817654
 20
0.512315
 30
0.0
 40
0
 41
0
  0
VERTEX
  8
0
 10
0.831597
 20
0.51161
 30
0.0
 40
0
 41
0
  0
VERTEX
  8
0
 10
0.848958
 20
0.509983
 30
0.0
 40
0
 41
0
  0
VERTEX
  8
0
 10
0.877279
 20
0.507053
 30
0.0
 40
0
 41
0
  0
VERTEX
  8
0
 10
0.907389
 20
0.504449
 30
0.0
 40
0
 41
0
  0
VERTEX
  8
0
 10
0.930176
 20
0.503797
 30
0.0
 40
0
 41
0
  0
VERTEX
  8
0
 10
0.952311
 20
0.522515
 30
0.0
 40
0
 41
0
  0
VERTEX
  8
0
 10
0.970649
 20
0.537815
 30
0.0
 40
0
 41
0
  0
VERTEX
  8
0
 10
0.986708
 20
0.549804
 30
0.0
 40
0
 41
0
  0
VERTEX
  8
0
 10
1.00467
 20
0.55409
 30
0.0
 40
0
 41
0
  0
VERTEX
  8
0
 10
1.02479
 20
0.545628
 30
0.0
 40
0
 41
0
  0
VERTEX
  8
0
 10
1.0325
 20
0.527181
 30
0.0
 40
0
 41
0
  0
VERTEX
  8
0
 10
1.03288
 20
0.503906
 30
0.0
 40
0
 41
0
  0
VERTEX
  8
0
 10
1.03093
 20
0.481011
 30
0.0
 40
0
 41
0
  0
VERTEX
  8
0
 10
1.01931
 20
0.457736
 30
0.0
 40
0
 41
0
  0
VERTEX
  8
0
 10
0.995335
 20
0.439453
 30
0.0
 40
0
 41
0
  0
VERTEX
  8
0
 10
0.963217
 20
0.421278
 30
0.0
 40
0
 41
0
  0
VERTEX
  8
0
 10
0.927029
 20
0.398221
 30
0.0
 40
0
 41
0
  0
VERTEX
  8
0
 10
0.906142
 20
0.381401
 30
0.0
 40
0
 41
0
  0
VERTEX
  8
0
 10
0.894043
 20
0.368978
 30
0.0
 40
0
 41
0
  0
VERTEX
  8
0
 10
0.884711
 20
0.355903
 30
0.0
 40
0
 41
0
  0
VERTEX
  8
0
 10
0.872017
 20
0.336968
 30
0.0
 40
0
 41
0
  0
VERTEX
  8
0
 10
0.860406
 20
0.316624
 30
0.0
 40
0
 41
0
  0
VERTEX
  8
0
 10
0.854764
 20
0.30089
 30
0.0
 40
0
 41
0
  0
VERTEX
  8
0
 10
0.849664
 20
0.28711
 30
0.0
 40
0
 41
0
  0
VERTEX
  8
0
 10
0.839681
 20
0.272786
 30
0.0
 40
0
 41
0
  0
SEQEND
 8
0
  0
POLYLINE
  8
0
 62
     0
 66
     1
 10
0
 20
0
 30
0.0
 70
     1
 40
1.19095
 41
1.19095
  0
VERTEX
  8
0
 10
0.839681
 20
0.272786
 30
0.0
 40
0.016541
 41
0.016541
  0
VERTEX
  8
0
 10
0.825086
 20
0.25689
 30
0.0
 40
0.016541
 41
0.016541
  0
VERTEX
  8
0
 10
0.809896
 20
0.243056
 30
0.0
 40
0.016541
 41
0.016541
  0
VERTEX
  8
0
 10
0.794
 20
0.23584
 30
0.0
 40
0.016541
 41
0.016541
  0
VERTEX
  8
0
 10
0.777453
 20
0.239692
 30
0.0
 40
0.016541
 41
0.016541
  0
VERTEX
  8
0
 10
0.747396
 20
0.263672
 30
0.0
 40
0.016541
 41
0.016541
  0
VERTEX
  8
0
 10
0.722385
 20
0.295301
 30
0.0
 40
0.016541
 41
0.016541
  0
VERTEX
  8
0
 10
0.703939
 20
0.332465
 30
0.0
 40
0.016541
 41
0.016541
  0
VERTEX
  8
0
 10
0.697754
 20
0.371907
 30
0.0
 40
0.016541
 41
0.016541
  0
VERTEX
  8
0
 10
0.709581
 20
0.381185
 30
0.0
 40
0.016541
 41
0.016541
  0
VERTEX
  8
0
 10
0.714899
 20
0.393881
 30
0.0
 40
0.016541
 41
0.016541
  0
VERTEX
  8
0
 10
0.718858
 20
0.407824
 30
0.0
 40
0.016541
 41
0.016541
  0
VERTEX
  8
0
 10
0.726617
 20
0.42079
 30
0.0
 40
0.016541
 41
0.016541
  0
VERTEX
  8
0
 10
0.74414
 20
0.434028
 30
0.0
 40
0.016541
 41
0.016541
  0
VERTEX
  8
0
 10
0.759874
 20
0.448296
 30
0.0
 40
0.016541
 41
0.016541
  0
VERTEX
  8
0
 10
0.770617
 20
0.46544
 30
0.0
 40
0.016541
 41
0.016541
  0
VERTEX
  8
0
 10
0.773438
 20
0.487468
 30
0.0
 40
0.016541
 41
0.016541
  0
VERTEX
  8
0
 10
0.780761
 20
0.503851
 30
0.0
 40
0.016541
 41
0.016541
  0
VERTEX
  8
0
 10
0.798122
 20
0.510906
 30
0.0
 40
0.016541
 41
0.016541
  0
VERTEX
  8
0
 10
0.817654
 20
0.512315
 30
0.0
 40
0.016541
 41
0.016541
  0
VERTEX
  8
0
 10
0.831597
 20
0.51161
 30
0.0
 40
0.016541
 41
0.016541
  0
VERTEX
  8
0
 10
0.848958
 20
0.509983
 30
0.0
 40
0.016541
 41
0.016541
  0
VERTEX
  8
0
 10
0.877279
 20
0.507053
 30
0.0
 40
0.016541
 41
0.016541
  0
VERTEX
  8
0
 10
0.907389
 20
0.504449
 30
0.0
 40
0.016541
 41
0.016541
  0
VERTEX
  8
0
 10
0.930176
 20
0.503797
 30
0.0
 40
0.016541
 41
0.016541
  0
VERTEX
  8
0
 10
0.952311
 20
0.522515
 30
0.0
 40
0.016541
 41
0.016541
  0
VERTEX
  8
0
 10
0.970649
 20
0.537815
 30
0.0
 40
0.016541
 41
0.016541
  0
VERTEX
  8
0
 10
0.986708
 20
0.549804
 30
0.0
 40
0.016541
 41
0.016541
  0
VERTEX
  8
0
 10
1.00467
 20
0.55409
 30
0.0
 40
0.016541
 41
0.016541
  0
VERTEX
  8
0
 10
1.02479
 20
0.545628
 30
0.0
 40
0.016541
 41
0.016541
  0
VERTEX
  8
0
 10
1.0325
 20
0.527181
 30
0.0
 40
0.016541
 41
0.016541
  0
VERTEX
  8
0
 10
1.03288
 20
0.503906
 30
0.0
 40
0.016541
 41
0.016541
  0
VERTEX
  8
0
 10
1.03093
 20
0.481011
 30
0.0
 40
0.016541
 41
0.016541
  0
VERTEX
  8
0
 10
1.01931
 20
0.457736
 30
0.0
 40
0.016541
 41
0.016541
  0
VERTEX
  8
0
 10
0.995335
 20
0.439453
 30
0.0
 40
0.016541
 41
0.016541
  0
VERTEX
  8
0
 10
0.963217
 20
0.421278
 30
0.0
 40
0.016541
 41
0.016541
  0
VERTEX
  8
0
 10
0.927029
 20
0.398221
 30
0.0
 40
0.016541
 41
0.016541
  0
VERTEX
  8
0
 10
0.906142
 20
0.381401
 30
0.0
 40
0.016541
 41
0.016541
  0
VERTEX
  8
0
 10
0.894043
 20
0.368978
 30
0.0
 40
0.016541
 41
0.016541
  0
VERTEX
  8
0
 10
0.884711
 20
0.355903
 30
0.0
 40
0.016541
 41
0.016541
  0
VERTEX
  8
0
 10
0.872017
 20
0.336968
 30
0.0
 40
0.016541
 41
0.016541
  0
VERTEX
  8
0
 10
0.860406
 20
0.316624
 30
0.0
 40
0.016541
 41
0.016541
  0
VERTEX
  8
0
 10
0.854764
 20
0.30089
 30
0.0
 40
0.016541
 41
0.016541
  0
VERTEX
  8
0
 10
0.849664
 20
0.28711
 30
0.0
 40
0.016541
 41
0.016541
  0
VERTEX
  8
0
 10
0.839681
 20
0.272786
 30
0.0
 40
0.016541
 41
0.016541
  0
SEQEND
 8
0
  0
POLYLINE
  8
0
 62
     0
 66
     1
 10
0
 20
0
 30
0.0
 40
1.48869
 41
1.48869
  0
VERTEX
  8
0
 10
0.997071
 20
0.511719
 30
0.0
 40
0.0206763
 41
0.0206763
  0
VERTEX
  8
0
 10
0.992947
 20
0.488499
 30
0.0
 40
0.0206763
 41
0.0206763
  0
VERTEX
  8
0
 10
0.980197
 20
0.475803
 30
0.0
 40
0.0206763
 41
0.0206763
  0
SEQEND
 8
0
  0
POLYLINE
  8
0
 62
     0
 66
     1
 10
0
 20
0
 30
0.0
 70
     1
 40
0
 41
0
  0
VERTEX
  8
0
 10
0.809353
 20
0.346789
 30
0.0
 40
0
 41
0
  0
VERTEX
  8
0
 10
0.818522
 20
0.349392
 30
0.0
 40
0
 41
0
  0
VERTEX
  8
0
 10
0.832844
 20
0.354926
 30
0.0
 40
0
 41
0
  0
VERTEX
  8
0
 10
0.846843
 20
0.360949
 30
0.0
 40
0
 41
0
  0
VERTEX
  8
0
 10
0.855089
 20
0.364638
 30
0.0
 40
0
 41
0
  0
VERTEX
  8
0
 10
0.839518
 20
0.342503
 30
0.0
 40
0
 41
0
  0
VERTEX
  8
0
 10
0.823731
 20
0.316026
 30
0.0
 40
0
 41
0
  0
VERTEX
  8
0
 10
0.812825
 20
0.293619
 30
0.0
 40
0
 41
0
  0
VERTEX
  8
0
 10
0.794596
 20
0.274685
 30
0.0
 40
0
 41
0
  0
VERTEX
  8
0
 10
0.773003
 20
0.307563
 30
0.0
 40
0
 41
0
  0
VERTEX
  8
0
 10
0.760363
 20
0.346137
 30
0.0
 40
0
 41
0
  0
VERTEX
  8
0
 10
0.740886
 20
0.361165
 30
0.0
 40
0
 41
0
  0
VERTEX
  8
0
 10
0.723361
 20
0.376519
 30
0.0
 40
0
 41
0
  0
VERTEX
  8
0
 10
0.706381
 20
0.387586
 30
0.0
 40
0
 41
0
  0
VERTEX
  8
0
 10
0.688368
 20
0.389974
 30
0.0
 40
0
 41
0
  0
VERTEX
  8
0
 10
0.687771
 20
0.409289
 30
0.0
 40
0
 41
0
  0
VERTEX
  8
0
 10
0.691894
 20
0.427789
 30
0.0
 40
0
 41
0
  0
VERTEX
  8
0
 10
0.710503
 20
0.389649
 30
0.0
 40
0
 41
0
  0
VERTEX
  8
0
 10
0.742676
 20
0.364421
 30
0.0
 40
0
 41
0
  0
VERTEX
  8
0
 10
0.778808
 20
0.350694
 30
0.0
 40
0
 41
0
  0
VERTEX
  8
0
 10
0.809353
 20
0.346789
 30
0.0
 40
0
 41
0
  0
SEQEND
 8
0
  0
POLYLINE
  8
0
 62
     0
 66
     1
 10
0
 20
0
 30
0.0
 70
     1
 40
1.19095
 41
1.19095
  0
VERTEX
  8
0
 10
0.809353
 20
0.346789
 30
0.0
 40
0.016541
 41
0.016541
  0
VERTEX
  8
0
 10
0.818522
 20
0.349392
 30
0.0
 40
0.016541
 41
0.016541
  0
VERTEX
  8
0
 10
0.832844
 20
0.354926
 30
0.0
 40
0.016541
 41
0.016541
  0
VERTEX
  8
0
 10
0.846843
 20
0.360949
 30
0.0
 40
0.016541
 41
0.016541
  0
VERTEX
  8
0
 10
0.855089
 20
0.364638
 30
0.0
 40
0.016541
 41
0.016541
  0
VERTEX
  8
0
 10
0.839518
 20
0.342503
 30
0.0
 40
0.016541
 41
0.016541
  0
VERTEX
  8
0
 10
0.823731
 20
0.316026
 30
0.0
 40
0.016541
 41
0.016541
  0
VERTEX
  8
0
 10
0.812825
 20
0.293619
 30
0.0
 40
0.016541
 41
0.016541
  0
VERTEX
  8
0
 10
0.794596
 20
0.274685
 30
0.0
 40
0.016541
 41
0.016541
  0
VERTEX
  8
0
 10
0.773003
 20
0.307563
 30
0.0
 40
0.016541
 41
0.016541
  0
VERTEX
  8
0
 10
0.760363
 20
0.346137
 30
0.0
 40
0.016541
 41
0.016541
  0
VERTEX
  8
0
 10
0.740886
 20
0.361165
 30
0.0
 40
0.016541
 41
0.016541
  0
VERTEX
  8
0
 10
0.723361
 20
0.376519
 30
0.0
 40
0.016541
 41
0.016541
  0
VERTEX
  8
0
 10
0.706381
 20
0.387586
 30
0.0
 40
0.016541
 41
0.016541
  0
VERTEX
  8
0
 10
0.688368
 20
0.389974
 30
0.0
 40
0.016541
 41
0.016541
  0
VERTEX
  8
0
 10
0.687771
 20
0.409289
 30
0.0
 40
0.016541
 41
0.016541
  0
VERTEX
  8
0
 10
0.691894
 20
0.427789
 30
0.0
 40
0.016541
 41
0.016541
  0
VERTEX
  8
0
 10
0.710503
 20
0.389649
 30
0.0
 40
0.016541
 41
0.016541
  0
VERTEX
  8
0
 10
0.742676
 20
0.364421
 30
0.0
 40
0.016541
 41
0.016541
  0
VERTEX
  8
0
 10
0.778808
 20
0.350694
 30
0.0
 40
0.016541
 41
0.016541
  0
VERTEX
  8
0
 10
0.809353
 20
0.346789
 30
0.0
 40
0.016541
 41
0.016541
  0
SEQEND
 8
0
  0
POLYLINE
  8
0
 62
     7
 66
     1
 10
0
 20
0
 30
0.0
 70
     1
 40
0
 41
0
  0
VERTEX
  8
0
 10
0.818522
 20
0.30995
 30
0.0
 40
0
 41
0
  0
VERTEX
  8
0
 10
0.79975
 20
0.30664
 30
0.0
 40
0
 41
0
  0
VERTEX
  8
0
 10
0.778808
 20
0.306913
 30
0.0
 40
0
 41
0
  0
VERTEX
  8
0
 10
0.774849
 20
0.32194
 30
0.0
 40
0
 41
0
  0
VERTEX
  8
0
 10
0.770182
 20
0.337728
 30
0.0
 40
0
 41
0
  0
VERTEX
  8
0
 10
0.780979
 20
0.337239
 30
0.0
 40
0
 41
0
  0
VERTEX
  8
0
 10
0.800836
 20
0.337349
 30
0.0
 40
0
 41
0
  0
VERTEX
  8
0
 10
0.822808
 20
0.340169
 30
0.0
 40
0
 41
0
  0
VERTEX
  8
0
 10
0.839789
 20
0.347711
 30
0.0
 40
0
 41
0
  0
VERTEX
  8
0
 10
0.833171
 20
0.338758
 30
0.0
 40
0
 41
0
  0
VERTEX
  8
0
 10
0.825683
 20
0.3259
 30
0.0
 40
0
 41
0
  0
VERTEX
  8
0
 10
0.819878
 20
0.314561
 30
0.0
 40
0
 41
0
  0
VERTEX
  8
0
 10
0.818522
 20
0.30995
 30
0.0
 40
0
 41
0
  0
VERTEX
  8
0
 10
0.818522
 20
0.30995
 30
0.0
 40
0
 41
0
  0
SEQEND
 8
0
  0
POLYLINE
  8
0
 62
     0
 66
     1
 10
0
 20
0
 30
0.0
 40
1.19085
 41
1.19085
  0
VERTEX
  8
0
 10
0.655003
 20
0.464301
 30
0.0
 40
0.0165396
 41
0.0165396
  0
VERTEX
  8
0
 10
0.677572
 20
0.475965
 30
0.0
 40
0.0165396
 41
0.0165396
  0
VERTEX
  8
0
 10
0.698296
 20
0.488499
 30
0.0
 40
0.0165396
 41
0.0165396
  0
VERTEX
  8
0
 10
0.715767
 20
0.494032
 30
0.0
 40
0.0165396
 41
0.0165396
  0
VERTEX
  8
0
 10
0.728353
 20
0.493056
 30
0.0
 40
0.0165396
 41
0.0165396
  0
VERTEX
  8
0
 10
0.74094
 20
0.487196
 30
0.0
 40
0.0165396
 41
0.0165396
  0
VERTEX
  8
0
 10
0.7449
 20
0.482476
 30
0.0
 40
0.0165396
 41
0.0165396
  0
SEQEND
 8
0
  0
POLYLINE
  8
0
 62
     7
 66
     1
 10
0
 20
0
 30
0.0
 70
     1
 40
0
 41
0
  0
VERTEX
  8
0
 10
-2.02067
 20
-0.0294596
 30
0.0
 40
0
 41
0
  0
VERTEX
  8
0
 10
-2.01639
 20
-0.0294596
 30
0.0
 40
0
 41
0
  0
VERTEX
  8
0
 10
-2.02067
 20
-0.0294596
 30
0.0
 40
0
 41
0
  0
SEQEND
 8
0
  0
POLYLINE
  8
0
 62
     7
 66
     1
 10
0
 20
0
 30
0.0
 70
     1
 40
0
 41
0
  0
VERTEX
  8
0
 10
-1.02837
 20
-0.125217
 30
0.0
 40
0
 41
0
  0
VERTEX
  8
0
 10
-1.02485
 20
-0.125217
 30
0.0
 40
0
 41
0
  0
VERTEX
  8
0
 10
-1.02837
 20
-0.125217
 30
0.0
 40
0
 41
0
  0
SEQEND
 8
0
  0
POLYLINE
  8
0
 62
     0
 66
     1
 10
0
 20
0
 30
0.0
 70
     1
 40
0
 41
0
  0
VERTEX
  8
0
 10
-1.69011
 20
-0.139378
 30
0.0
 40
0
 41
0
  0
VERTEX
  8
0
 10
-1.68588
 20
-0.139378
 30
0.0
 40
0
 41
0
  0
VERTEX
  8
0
 10
-1.69011
 20
-0.139378
 30
0.0
 40
0
 41
0
  0
SEQEND
 8
0
  0
POLYLINE
  8
0
 62
     7
 66
     1
 10
0
 20
0
 30
0.0
 70
     1
 40
0
 41
0
  0
VERTEX
  8
0
 10
-1.14968
 20
-0.207465
 30
0.0
 40
0
 41
0
  0
VERTEX
  8
0
 10
-1.14752
 20
-0.207465
 30
0.0
 40
0
 41
0
  0
VERTEX
  8
0
 10
-1.14968
 20
-0.207465
 30
0.0
 40
0
 41
0
  0
SEQEND
 8
0
  0
POLYLINE
  8
0
 62
     7
 66
     1
 10
0
 20
0
 30
0.0
 70
     1
 40
0
 41
0
  0
VERTEX
  8
0
 10
-1.17377
 20
-0.220975
 30
0.0
 40
0
 41
0
  0
VERTEX
  8
0
 10
-1.16949
 20
-0.220975
 30
0.0
 40
0
 41
0
  0
VERTEX
  8
0
 10
-1.17377
 20
-0.220975
 30
0.0
 40
0
 41
0
  0
SEQEND
 8
0
  0
POLYLINE
  8
0
 62
     7
 66
     1
 10
0
 20
0
 30
0.0
 70
     1
 40
0
 41
0
  0
VERTEX
  8
0
 10
-2.3164
 20
-0.535861
 30
0.0
 40
0
 41
0
  0
VERTEX
  8
0
 10
-2.31429
 20
-0.535861
 30
0.0
 40
0
 41
0
  0
VERTEX
  8
0
 10
-2.3164
 20
-0.535861
 30
0.0
 40
0
 41
0
  0
SEQEND
 8
0
  0
POLYLINE
  8
0
 62
     7
 66
     1
 10
0
 20
0
 30
0.0
 70
     1
 40
0
 41
0
  0
VERTEX
  8
0
 10
-1.01563
 20
-0.714626
 30
0.0
 40
0
 41
0
  0
VERTEX
  8
0
 10
-1.01204
 20
-0.714626
 30
0.0
 40
0
 41
0
  0
VERTEX
  8
0
 10
-1.01563
 20
-0.714626
 30
0.0
 40
0
 41
0
  0
SEQEND
 8
0
  0
POLYLINE
  8
0
 62
     7
 66
     1
 10
0
 20
0
 30
0.0
 70
     1
 40
0
 41
0
  0
VERTEX
  8
0
 10
-2.37668
 20
-0.816786
 30
0.0
 40
0
 41
0
  0
VERTEX
  8
0
 10
-2.37244
 20
-0.816786
 30
0.0
 40
0
 41
0
  0
VERTEX
  8
0
 10
-2.37668
 20
-0.816786
 30
0.0
 40
0
 41
0
  0
SEQEND
 8
0
  0
POLYLINE
  8
0
 62
     7
 66
     1
 10
0
 20
0
 30
0.0
 70
     1
 40
0
 41
0
  0
VERTEX
  8
0
 10
-1.83197
 20
-0.833767
 30
0.0
 40
0
 41
0
  0
VERTEX
  8
0
 10
-1.82704
 20
-0.833767
 30
0.0
 40
0
 41
0
  0
VERTEX
  8
0
 10
-1.83197
 20
-0.833767
 30
0.0
 40
0
 41
0
  0
SEQEND
 8
0
  0
POLYLINE
  8
0
 62
     7
 66
     1
 10
0
 20
0
 30
0.0
 70
     1
 40
0
 41
0
  0
VERTEX
  8
0
 10
-1.39507
 20
-0.96289
 30
0.0
 40
0
 41
0
  0
VERTEX
  8
0
 10
-1.3915
 20
-0.96289
 30
0.0
 40
0
 41
0
  0
VERTEX
  8
0
 10
-1.39507
 20
-0.96289
 30
0.0
 40
0
 41
0
  0
SEQEND
 8
0
  0
POLYLINE
  8
0
 62
     7
 66
     1
 10
0
 20
0
 30
0.0
 70
     1
 40
0
 41
0
  0
VERTEX
  8
0
 10
-1.75678
 20
-1.065
 30
0.0
 40
0
 41
0
  0
VERTEX
  8
0
 10
-1.75325
 20
-1.065
 30
0.0
 40
0
 41
0
  0
VERTEX
  8
0
 10
-1.75678
 20
-1.065
 30
0.0
 40
0
 41
0
  0
SEQEND
 8
0
  0
POLYLINE
  8
0
 62
     7
 66
     1
 10
0
 20
0
 30
0.0
 70
     1
 40
0
 41
0
  0
VERTEX
  8
0
 10
-1.10286
 20
-1.07351
 30
0.0
 40
0
 41
0
  0
VERTEX
  8
0
 10
-1.09928
 20
-1.07351
 30
0.0
 40
0
 41
0
  0
VERTEX
  8
0
 10
-1.10286
 20
-1.07351
 30
0.0
 40
0
 41
0
  0
SEQEND
 8
0
  0
POLYLINE
  8
0
 62
     7
 66
     1
 10
0
 20
0
 30
0.0
 70
     1
 40
0
 41
0
  0
VERTEX
  8
0
 10
-1.89583
 20
-1.15365
 30
0.0
 40
0
 41
0
  0
VERTEX
  8
0
 10
-1.89296
 20
-1.15365
 30
0.0
 40
0
 41
0
  0
VERTEX
  8
0
 10
-1.89583
 20
-1.15365
 30
0.0
 40
0
 41
0
  0
SEQEND
 8
0
  0
POLYLINE
  8
0
 62
     7
 66
     1
 10
0
 20
0
 30
0.0
 70
     1
 40
0
 41
0
  0
VERTEX
  8
0
 10
-1.42486
 20
-1.47071
 30
0.0
 40
0
 41
0
  0
VERTEX
  8
0
 10
-1.42133
 20
-1.47071
 30
0.0
 40
0
 41
0
  0
VERTEX
  8
0
 10
-1.42486
 20
-1.47071
 30
0.0
 40
0
 41
0
  0
SEQEND
 8
0
  0
POLYLINE
  8
0
 62
     0
 66
     1
 10
0
 20
0
 30
0.0
 70
     1
 40
0
 41
0
  0
VERTEX
  8
0
 10
-2.00786
 20
-1.553
 30
0.0
 40
0
 41
0
  0
VERTEX
  8
0
 10
-2.00082
 20
-1.553
 30
0.0
 40
0
 41
0
  0
VERTEX
  8
0
 10
-2.00786
 20
-1.553
 30
0.0
 40
0
 41
0
  0
SEQEND
 8
0
  0
POLYLINE
  8
0
 62
     7
 66
     1
 10
0
 20
0
 30
0.0
 70
     1
 40
0
 41
0
  0
VERTEX
  8
0
 10
-1.82488
 20
-2.02821
 30
0.0
 40
0
 41
0
  0
VERTEX
  8
0
 10
-1.81213
 20
-2.02821
 30
0.0
 40
0
 41
0
  0
VERTEX
  8
0
 10
-1.82488
 20
-2.02821
 30
0.0
 40
0
 41
0
  0
SEQEND
 8
0
  0
POLYLINE
  8
0
 62
     0
 66
     1
 10
0
 20
0
 30
0.0
 70
     1
 40
0
 41
0
  0
VERTEX
  8
0
 10
-2.22917
 20
-2.06435
 30
0.0
 40
0
 41
0
  0
VERTEX
  8
0
 10
-2.22564
 20
-2.06435
 30
0.0
 40
0
 41
0
  0
VERTEX
  8
0
 10
-2.22917
 20
-2.06435
 30
0.0
 40
0
 41
0
  0
SEQEND
 8
0
  0
POLYLINE
  8
0
 62
     7
 66
     1
 10
0
 20
0
 30
0.0
 70
     1
 40
0
 41
0
  0
VERTEX
  8
0
 10
-1.82633
 20
-2.06933
 30
0.0
 40
0
 41
0
  0
VERTEX
  8
0
 10
-1.81922
 20
-2.06933
 30
0.0
 40
0
 41
0
  0
VERTEX
  8
0
 10
-1.82633
 20
-2.06933
 30
0.0
 40
0
 41
0
  0
SEQEND
 8
0
  0
POLYLINE
  8
0
 62
     7
 66
     1
 10
0
 20
0
 30
0.0
 70
     1
 40
0
 41
0
  0
VERTEX
  8
0
 10
-1.89865
 20
-2.07075
 30
0.0
 40
0
 41
0
  0
VERTEX
  8
0
 10
-1.89513
 20
-2.07075
 30
0.0
 40
0
 41
0
  0
VERTEX
  8
0
 10
-1.89865
 20
-2.07075
 30
0.0
 40
0
 41
0
  0
SEQEND
 8
0
  0
ENDSEC
  0
EOF
