<?xml version="1.0" encoding="UTF-8" standalone="no"?>
<!-- Created with Inkscape (http://www.inkscape.org/) -->
<svg
   xmlns:dc="http://purl.org/dc/elements/1.1/"
   xmlns:cc="http://web.resource.org/cc/"
   xmlns:rdf="http://www.w3.org/1999/02/22-rdf-syntax-ns#"
   xmlns:svg="http://www.w3.org/2000/svg"
   xmlns="http://www.w3.org/2000/svg"
   xmlns:sodipodi="http://sodipodi.sourceforge.net/DTD/sodipodi-0.dtd"
   xmlns:inkscape="http://www.inkscape.org/namespaces/inkscape"
   height="155.72543"
   width="254.86168"
   id="svg2807"
   sodipodi:version="0.32"
   inkscape:version="0.45pre1"
   sodipodi:modified="true"
   version="1.0">
  <defs
     id="defs2809" />
  <sodipodi:namedview
     id="base"
     pagecolor="#ffffff"
     bordercolor="#666666"
     borderopacity="1.0"
     inkscape:pageopacity="0.0"
     inkscape:pageshadow="2"
     inkscape:cx="127.43084"
     inkscape:cy="77.862717"
     inkscape:zoom="2.4273492"
     inkscape:document-units="px"
     inkscape:current-layer="layer1"
     inkscape:window-width="840"
     inkscape:window-height="579"
     inkscape:window-x="110"
     inkscape:window-y="110" />
  <metadata
     id="metadata2812">
    <rdf:RDF>
      <cc:Work
         rdf:about="">
        <dc:format>image/svg+xml</dc:format>
        <dc:type
           rdf:resource="http://purl.org/dc/dcmitype/StillImage" />
      </cc:Work>
    </rdf:RDF>
  </metadata>
  <g
     inkscape:groupmode="layer"
     inkscape:label="Warstwa 1"
     id="layer1"
     transform="translate(-3.9977243,-5.92806)">
    <g
       id="g31234"
       transform="translate(-146.71853,-1083.2153)">
      <g
         transform="translate(2.3049943,146.99911)"
         id="g23226">
        <path
           style="opacity:1;fill:#667b58;fill-opacity:1;fill-rule:evenodd;stroke:#000000;stroke-width:4;stroke-linecap:butt;stroke-linejoin:round;stroke-miterlimit:4;stroke-dasharray:none;stroke-opacity:1"
           d="M 291.29335,966.00527 L 252.61617,1040.1833 L 205.71775,1025.7961 L 150.41126,971.7975 L 223.09446,944.14426 L 291.29335,966.00527 z "
           id="path17385"
           sodipodi:nodetypes="cccccc" />
        <path
           style="opacity:1;fill:#c5c5c5;fill-opacity:1;fill-rule:evenodd;stroke:#000000;stroke-width:4;stroke-linecap:butt;stroke-linejoin:round;stroke-miterlimit:4;stroke-dasharray:none;stroke-opacity:1"
           d="M 205.71775,1025.7961 L 150.41126,971.79749 L 223.09446,944.14425 L 245.95097,951.33349 L 177.66932,977.12969 L 227.46289,1031.0331 L 205.71775,1025.7961 z "
           id="path19326"
           sodipodi:nodetypes="ccccccc" />
        <path
           style="fill:#667b58;fill-opacity:1;fill-rule:evenodd;stroke:#000000;stroke-width:4;stroke-linecap:butt;stroke-linejoin:round;stroke-miterlimit:4;stroke-dasharray:none;stroke-opacity:1"
           d="M 288.17968,1000.584 L 278.98243,1020.2322 C 263.77968,1010.4249 217.31948,992.73682 226.58677,983.76771 C 235.999,974.65833 265.00274,987.54157 288.17968,1000.584 z "
           id="path20297"
           sodipodi:nodetypes="cczc" />
      </g>
      <path
         sodipodi:nodetypes="ccczczzzzcccczzc"
         id="path13486"
         d="M 357.09851,1202.3983 C 354.49408,1209.8564 351.88965,1217.3145 349.28521,1224.7727 C 296.40395,1249.1472 258.83912,1248.6532 185.20656,1224.7727 C 185.85266,1214.2838 187.06423,1202.0054 197.82233,1195.7171 C 208.58043,1189.4289 224.20844,1193.0111 236.69655,1188.2123 C 244.18164,1186.0352 249.14338,1182.9358 256.65414,1176.803 C 264.1649,1170.6702 273.507,1159.4875 280.88612,1152.2248 C 288.26523,1144.9621 293.61174,1139.8592 303.00822,1136.2026 C 312.4047,1132.5461 329.72098,1133.9241 335.94381,1134.6898 C 342.12313,1135.4501 350.2339,1138.2589 354.88991,1143.4575 C 350.83312,1144.4227 341.00916,1143.3065 341.08473,1150.4895 C 341.80184,1158.5989 335.39272,1162.2967 329.76644,1166.6077 C 326.10357,1170.4022 328.20392,1176.2438 322.77948,1178.4286 C 322.52455,1184.9258 325.04604,1191.1968 328.7355,1196.9587 C 332.58763,1202.9746 336.59107,1206.849 342.06017,1210.4002 C 347.52927,1213.9515 353.62124,1206.4816 357.09851,1202.3983 z "
         style="fill:#5d5d5d;fill-opacity:1;fill-rule:evenodd;stroke:#000000;stroke-width:4;stroke-linecap:butt;stroke-linejoin:round;stroke-miterlimit:4;stroke-dasharray:none;stroke-opacity:1" />
      <path
         sodipodi:nodetypes="ccccczzczccczz"
         id="path16414"
         d="M 356.74335,1201.9676 C 352.14712,1206.9484 347.17411,1213.5208 341.70501,1209.9695 C 336.23591,1206.4183 332.23247,1202.5439 328.38034,1196.528 C 324.69088,1190.7661 322.16939,1184.4951 322.42432,1177.9979 C 327.84876,1175.8131 325.74841,1169.9715 329.41128,1166.177 C 335.03756,1161.866 341.44668,1158.1682 340.72957,1150.0588 C 340.654,1142.8757 352.06388,1144.0757 354.79899,1144.2158 C 357.66588,1144.3627 373.45731,1146.4096 378.63563,1146.1131 C 382.21929,1143.5711 386.07402,1139.3411 388.42317,1137.8793 C 390.71113,1136.4556 393.74916,1132.8963 396.63952,1133.9442 C 405.66815,1134.538 403.48103,1144.8447 402.99088,1151.6194 C 401.69148,1160.4843 389.74302,1162.8852 377.87567,1171.6421 C 369.07956,1178.326 369.84885,1178.8752 364.56577,1186.4566 C 359.28269,1194.038 361.33958,1196.9868 356.74335,1201.9676 z "
         style="fill:#d4af8b;fill-opacity:1;fill-rule:evenodd;stroke:#000000;stroke-width:4;stroke-linecap:butt;stroke-linejoin:round;stroke-miterlimit:4;stroke-dasharray:none;stroke-opacity:1" />
      <path
         sodipodi:nodetypes="cc"
         id="path26307"
         d="M 394.80901,1144.1909 C 394.99418,1148.7264 393.34713,1151.7503 390.72238,1152.875"
         style="fill:none;fill-opacity:0.75;fill-rule:evenodd;stroke:#000000;stroke-width:5;stroke-linecap:round;stroke-linejoin:miter;stroke-miterlimit:4;stroke-dasharray:none;stroke-opacity:1" />
      <path
         sodipodi:nodetypes="cccccccc"
         style="fill:#000000;fill-rule:nonzero;stroke:#000000;stroke-width:4;stroke-linecap:round;stroke-linejoin:round;stroke-miterlimit:4;stroke-dasharray:none;stroke-opacity:1"
         class="fil58"
         d="M 349.40983,1184.0796 C 350.97793,1184.0275 359.34991,1180.3245 360.47821,1179.7554 C 357.77157,1184.4555 355.67969,1185.448 352.88861,1191.5202 C 351.65895,1194.8718 349.45901,1199.2829 345.84651,1201.5122 C 340.49812,1197.6085 340.03481,1189.9835 337.56391,1184.231 C 330.82765,1179.9119 326.28754,1172.5136 320.15291,1173.6299 C 318.69466,1170.2593 320.93976,1167.5979 321.00931,1164.4943 C 323.82361,1179.0671 341.50231,1184.2507 349.40983,1184.0796 z "
         id="path27278" />
      <path
         style="fill:#ffffff;fill-rule:nonzero"
         class="fil59"
         d="M 351.63276,1192.9857 C 350.69406,1193.7842 343.67836,1194.1049 342.02506,1193.7194 C 341.37656,1192.283 340.84496,1187.9773 339.94266,1186.2641 C 341.19886,1186.2954 352.86036,1187.3005 356.77146,1183.8501 C 355.08986,1185.5485 351.09326,1193.1764 351.63276,1192.9857 L 351.63276,1192.9857 z "
         id="path28251" />
      <path
         sodipodi:nodetypes="czzc"
         id="path30216"
         d="M 312.09173,1155.6584 C 317.13898,1154.1973 318.12036,1151.5513 322.55281,1149.8139 C 326.98526,1148.0765 327.00368,1148.3467 329.82154,1148.7089 C 332.6394,1149.0711 333.82425,1151.2628 333.82425,1151.2628"
         style="fill:none;fill-opacity:0.75;fill-rule:evenodd;stroke:#000000;stroke-width:4;stroke-linecap:round;stroke-linejoin:round;stroke-miterlimit:4;stroke-dasharray:none;stroke-opacity:1" />
    </g>
  </g>
</svg>
