<?xml version="1.0" encoding="UTF-8" standalone="no"?>
<!-- Created with Inkscape (http://www.inkscape.org/) -->

<svg
   xmlns:dc="http://purl.org/dc/elements/1.1/"
   xmlns:cc="http://creativecommons.org/ns#"
   xmlns:rdf="http://www.w3.org/1999/02/22-rdf-syntax-ns#"
   xmlns:svg="http://www.w3.org/2000/svg"
   xmlns="http://www.w3.org/2000/svg"
   xmlns:sodipodi="http://sodipodi.sourceforge.net/DTD/sodipodi-0.dtd"
   xmlns:inkscape="http://www.inkscape.org/namespaces/inkscape"
   version="1.0"
   width="197.98587"
   height="34.258617"
   id="svg2"
   sodipodi:version="0.32"
   inkscape:version="0.47 r22583"
   sodipodi:docname="logo-1kwietnia.svg"
   inkscape:output_extension="org.inkscape.output.svg.inkscape"
   inkscape:export-filename="/mnt/nfs/geokrety/templates/logo-jesien.png"
   inkscape:export-xdpi="131.54472"
   inkscape:export-ydpi="131.54472">
  <metadata
     id="metadata32">
    <rdf:RDF>
      <cc:Work
         rdf:about="">
        <dc:format>image/svg+xml</dc:format>
        <dc:type
           rdf:resource="http://purl.org/dc/dcmitype/StillImage" />
        <dc:title></dc:title>
      </cc:Work>
    </rdf:RDF>
  </metadata>
  <sodipodi:namedview
     inkscape:window-height="748"
     inkscape:window-width="1250"
     inkscape:pageshadow="2"
     inkscape:pageopacity="0.0"
     guidetolerance="10.0"
     gridtolerance="10.0"
     objecttolerance="10.0"
     borderopacity="1.0"
     bordercolor="#666666"
     pagecolor="#ffffff"
     id="base"
     showgrid="false"
     inkscape:zoom="2.7081461"
     inkscape:cx="77.01179"
     inkscape:cy="-3.3229785"
     inkscape:window-x="26"
     inkscape:window-y="-3"
     inkscape:current-layer="svg2"
     inkscape:window-maximized="1" />
  <defs
     id="defs4">
    <inkscape:perspective
       sodipodi:type="inkscape:persp3d"
       inkscape:vp_x="0 : 17.129309 : 1"
       inkscape:vp_y="0 : 1000 : 0"
       inkscape:vp_z="197.98587 : 17.129309 : 1"
       inkscape:persp3d-origin="98.992935 : 11.419539 : 1"
       id="perspective34" />
    <inkscape:perspective
       id="perspective2736"
       inkscape:persp3d-origin="372.04724 : 350.78739 : 1"
       inkscape:vp_z="744.09448 : 526.18109 : 1"
       inkscape:vp_y="0 : 1000 : 0"
       inkscape:vp_x="0 : 526.18109 : 1"
       sodipodi:type="inkscape:persp3d" />
    <inkscape:perspective
       id="perspective3687"
       inkscape:persp3d-origin="372.04724 : 350.78739 : 1"
       inkscape:vp_z="744.09448 : 526.18109 : 1"
       inkscape:vp_y="0 : 1000 : 0"
       inkscape:vp_x="0 : 526.18109 : 1"
       sodipodi:type="inkscape:persp3d" />
    <inkscape:perspective
       id="perspective3265"
       inkscape:persp3d-origin="0.5 : 0.33333333 : 1"
       inkscape:vp_z="1 : 0.5 : 1"
       inkscape:vp_y="0 : 1000 : 0"
       inkscape:vp_x="0 : 0.5 : 1"
       sodipodi:type="inkscape:persp3d" />
  </defs>
  <rect
     style="fill:#008000;fill-opacity:1;fill-rule:nonzero;stroke:none"
     id="rect3251"
     y="5.0051565"
     x="93.127525"
     height="26.478128"
     width="61.299881"
     inkscape:export-filename="/home/filips/svn/geokrety/templates/logo/logo-1kwietnia.png"
     inkscape:export-xdpi="136.15979"
     inkscape:export-ydpi="136.15979" />
  <path
     style="font-size:22.94870567px;font-style:normal;font-weight:normal;fill:#000000;fill-opacity:1;stroke:none;font-family:Bitstream Vera Sans"
     d="m 59.853493,23.059423 0,-4.566773 -3.65464,0 0,-1.890484 5.869574,0 0,7.300003 c -0.863838,0.630162 -1.816259,1.10658 -2.857264,1.429252 -1.041031,0.322672 -2.152188,0.484009 -3.333475,0.48401 -2.584097,-1e-6 -4.605221,-0.776314 -6.063381,-2.328941 -1.458167,-1.552623 -2.187248,-3.71453 -2.187247,-6.485728 -10e-7,-2.778772 0.72908,-4.944476 2.187247,-6.497117 1.45816,-1.55261 3.479284,-2.328922 6.063381,-2.328939 1.077923,1.7e-5 2.10233,0.136678 3.07322,0.409984 0.970866,0.27334 1.866068,0.675732 2.685607,1.207177 l 0,2.448519 c -0.826922,-0.721255 -1.705512,-1.264105 -2.635771,-1.62855 -0.930284,-0.364415 -1.908545,-0.54663 -2.934787,-0.546647 -2.02298,1.7e-5 -3.542054,0.580827 -4.557226,1.742435 -1.015182,1.161635 -1.522771,2.89268 -1.522767,5.193138 -4e-6,2.292883 0.507585,4.020131 1.522767,5.181749 1.015172,1.161625 2.534246,1.742436 4.557226,1.742435 0.789982,1e-6 1.495069,-0.07023 2.115262,-0.210687 0.620169,-0.140455 1.177594,-0.358735 1.672274,-0.654836 l 0,0 z m 16.833497,-4.475665 0,1.024961 -9.36917,0 c 0.08859,1.442544 0.511277,2.541529 1.26805,3.29696 0.756763,0.755436 1.810702,1.133153 3.161818,1.133152 0.782601,1e-6 1.541215,-0.0987 2.275844,-0.296101 0.734609,-0.197397 1.46369,-0.493497 2.187247,-0.888299 l 0,1.981591 c -0.73094,0.318878 -1.480324,0.561832 -2.248157,0.728862 -0.767854,0.167031 -1.546771,0.250546 -2.336755,0.250547 -1.97868,-1e-6 -3.545744,-0.5922 -4.701197,-1.7766 -1.155459,-1.184398 -1.733187,-2.786373 -1.733186,-4.80593 -10e-7,-2.087876 0.548194,-3.744896 1.644588,-4.971064 1.096388,-1.226145 2.574855,-1.839223 4.435405,-1.839236 1.668574,1.3e-5 2.988304,0.552352 3.959194,1.657021 0.970867,1.104691 1.456306,2.606068 1.456319,4.504136 l 0,0 z m -2.037739,-0.614976 c -0.01478,-1.146431 -0.326714,-2.061303 -0.93581,-2.744619 -0.609116,-0.683298 -1.41572,-1.02495 -2.419814,-1.024962 -1.137006,1.2e-5 -2.046974,0.330276 -2.729907,0.990796 -0.682941,0.66054 -1.076092,1.590597 -1.179452,2.790172 l 7.264983,-0.01139 z m 10.188695,-3.769581 c -1.092707,1.2e-5 -1.95653,0.438466 -2.591473,1.315367 -0.634951,0.876921 -0.952424,2.078402 -0.952421,3.604448 -3e-6,1.526059 0.315625,2.72754 0.946884,3.604447 0.631251,0.876913 1.49692,1.315369 2.59701,1.315368 1.08531,1e-6 1.945441,-0.440352 2.580397,-1.321062 0.634938,-0.880704 0.952412,-2.080287 0.952422,-3.598753 -1e-5,-1.510861 -0.317484,-2.708547 -0.952422,-3.59306 -0.634956,-0.884492 -1.495087,-1.326743 -2.580397,-1.326755 l 0,0 z m 0,-1.7766 c 1.771938,1.3e-5 3.163653,0.592212 4.17515,1.7766 1.011475,1.18441 1.517217,2.824346 1.517229,4.919815 -1.2e-5,2.087888 -0.505754,3.725927 -1.517229,4.91412 -1.011497,1.188197 -2.403212,1.782294 -4.17515,1.782295 -1.779335,-1e-6 -3.172896,-0.594098 -4.180688,-1.782295 -1.007796,-1.188193 -1.511693,-2.826232 -1.511692,-4.91412 -10e-7,-2.095469 0.503896,-3.735405 1.511692,-4.919815 1.007792,-1.184388 2.401353,-1.776587 4.180688,-1.7766 l 0,0 z"
     id="text2383"
     inkscape:export-filename="/home/filips/svn/geokrety/templates/logo/logo-1kwietnia.png"
     inkscape:export-xdpi="136.15979"
     inkscape:export-ydpi="136.15979" />
  <path
     style="font-size:40px;font-style:normal;font-weight:normal;fill:#ffffff;fill-opacity:1;stroke:none;font-family:Bitstream Vera Sans"
     d="m 28.048741,46.088051 2.077637,0 0,10.3208 6.16553,-5.42431 2.63916,0 -6.670901,5.88476 6.951661,6.69336 -2.69531,0 -6.39014,-6.14307 0,6.14307 -2.077637,0 0,-17.47461 z m 20.708987,6.82813 c -0.23211,-0.13476 -0.48479,-0.23396 -0.75806,-0.29761 -0.27328,-0.06363 -0.57463,-0.09545 -0.90405,-0.09546 -1.16798,1e-5 -2.06454,0.37998 -2.6897,1.13989 -0.62517,0.75994 -0.93775,1.85117 -0.93774,3.27368 l 0,6.62598 -2.07764,0 0,-12.57812 2.07764,0 0,1.9541 c 0.43424,-0.76366 0.9995,-1.3308 1.6958,-1.70142 0.69628,-0.37059 1.54231,-0.55589 2.53808,-0.55591 0.14225,2e-5 0.29947,0.0094 0.47168,0.02808 0.1722,0.01873 0.36311,0.04681 0.57276,0.08423 l 0.0112,2.12256 z m 12.94873,3.84082 0,1.01074 -9.50098,0 c 0.0898,1.42253 0.51847,2.50627 1.28589,3.25122 0.76741,0.74496 1.83617,1.11743 3.2063,1.11743 0.79361,0 1.5629,-0.09733 2.30786,-0.29199 0.74494,-0.19466 1.48428,-0.48665 2.21802,-0.87598 l 0,1.9541 c -0.74123,0.31446 -1.50115,0.55404 -2.27979,0.71875 -0.77865,0.16472 -1.56853,0.24707 -2.36963,0.24707 -2.00651,0 -3.59562,-0.58398 -4.76733,-1.75195 -1.17171,-1.16796 -1.75757,-2.74772 -1.75757,-4.73926 0,-2.05891 0.55591,-3.69294 1.66773,-4.9021 1.11181,-1.20913 2.61107,-1.8137 4.4978,-1.81372 1.69205,2e-5 3.03034,0.54469 4.01489,1.63404 0.98453,1.08936 1.47679,2.56991 1.47681,4.44165 l 0,0 z m -2.06641,-0.60645 c -0.015,-1.13052 -0.33131,-2.0327 -0.94897,-2.70654 -0.61769,-0.67382 -1.43564,-1.01073 -2.45386,-1.01074 -1.153,1e-5 -2.07577,0.32569 -2.76831,0.97705 -0.69255,0.65137 -1.09123,1.56853 -1.19605,2.75146 l 7.36719,-0.01123 z m 7.50195,-8.7373 0,3.57129 4.25635,0 0,1.60595 -4.25635,0 0,6.82813 c 0,1.02572 0.14038,1.68457 0.42115,1.97656 0.28075,0.29199 0.85163,0.43799 1.71264,0.43799 l 2.12256,0 0,1.72949 -2.12256,0 c -1.59473,0 -2.69531,-0.29761 -3.30176,-0.89282 -0.60644,-0.59521 -0.90967,-1.67895 -0.90966,-3.25122 l 0,-6.82813 -1.51612,0 0,-1.60595 1.51612,0 0,-3.57129 2.07763,0 z m 12.21875,17.31738 c -0.58399,1.49739 -1.153,2.47444 -1.70703,2.93115 -0.55404,0.4567 -1.29525,0.68506 -2.22363,0.68506 l -1.65088,0 0,-1.72949 1.21289,0 c 0.56901,0 1.01074,-0.13477 1.3252,-0.4043 0.31444,-0.26953 0.66259,-0.90592 1.04443,-1.90918 l 0.37061,-0.94336 -5.08741,-12.37597 2.18994,0 3.93067,9.83789 3.93066,-9.83789 2.18994,0 -5.52539,13.74609 z"
     id="text2479" />
  <path
     style="font-size:23px;font-style:normal;font-weight:normal;fill:#000000;fill-opacity:1;stroke:none;font-family:Bitstream Vera Sans"
     d="m 156.40806,22.558449 2.36963,0 0,2.85254 -2.36963,0 0,-2.85254 z m 11.9043,-8.27686 c -1.10808,10e-6 -1.98406,0.43239 -2.62793,1.29712 -0.64389,0.86476 -0.96583,2.04957 -0.96582,3.55445 -1e-5,1.50488 0.32006,2.6897 0.9602,3.55444 0.64013,0.86475 1.51798,1.29712 2.63355,1.29712 1.10057,0 1.97281,-0.43424 2.6167,-1.30274 0.64386,-0.86848 0.9658,-2.05142 0.96582,-3.54882 -2e-5,-1.4899 -0.32196,-2.67097 -0.96582,-3.54322 -0.64389,-0.87222 -1.51613,-1.30834 -2.6167,-1.30835 l 0,0 z m 0,-1.75195 c 1.79686,10e-6 3.20816,0.584 4.23388,1.75195 1.02571,1.16798 1.53856,2.78517 1.53858,4.85157 -2e-5,2.05892 -0.51287,3.67423 -1.53858,4.84594 -1.02572,1.17172 -2.43702,1.75757 -4.23388,1.75757 -1.80437,0 -3.21754,-0.58585 -4.23951,-1.75757 -1.02197,-1.17171 -1.53296,-2.78702 -1.53296,-4.84594 0,-2.0664 0.51099,-3.68359 1.53296,-4.85157 1.02197,-1.16795 2.43514,-1.75194 4.23951,-1.75195 l 0,0 z m 16.47509,2.23486 c -0.2321,-0.13475 -0.48479,-0.23395 -0.75805,-0.2976 -0.27329,-0.06363 -0.57464,-0.09545 -0.90406,-0.09546 -1.16797,10e-6 -2.06454,0.37997 -2.68969,1.13989 -0.62517,0.75994 -0.93775,1.85116 -0.93775,3.27368 l 0,6.62598 -2.07763,0 0,-12.57813 2.07763,0 0,1.9541 c 0.43424,-0.76366 0.99951,-1.33079 1.6958,-1.70141 0.69629,-0.37059 1.54231,-0.5559 2.53809,-0.55591 0.14224,10e-6 0.29947,0.0094 0.47168,0.02808 0.17219,0.01873 0.36311,0.0468 0.57275,0.08423 l 0.0112,2.12255 z m 10.4668,4.21143 c -1e-5,-1.49739 -0.30885,-2.65787 -0.92651,-3.48145 -0.61769,-0.82355 -1.4843,-1.23534 -2.59986,-1.23535 -1.10808,10e-6 -1.97095,0.4118 -2.58862,1.23535 -0.61768,0.82358 -0.92652,1.98406 -0.92651,3.48145 -1e-5,1.48991 0.30883,2.64665 0.92651,3.47021 0.61767,0.82357 1.48054,1.23536 2.58862,1.23536 1.11556,0 1.98217,-0.41179 2.59986,-1.23536 0.61766,-0.82356 0.9265,-1.9803 0.92651,-3.47021 l 0,0 z m 2.06641,4.87402 c -2e-5,2.14128 -0.47544,3.73413 -1.42627,4.77857 -0.95086,1.04443 -2.40708,1.566643 -4.36866,1.566648 -0.72624,-5e-6 -1.4113,-0.05429 -2.05517,-0.162842 -0.64389,-0.108565 -1.26905,-0.275146 -1.87549,-0.499756 l 0,-2.01025 c 0.60644,0.32942 1.2054,0.57275 1.79688,0.72998 0.59146,0.15722 1.19416,0.23583 1.8081,0.23584 1.35514,-10e-6 2.36962,-0.35377 3.04346,-1.06128 0.67382,-0.70752 1.01073,-1.77629 1.01074,-3.2063 l 0,-1.02197 c -0.42677,0.74121 -0.97332,1.29524 -1.63965,1.66211 -0.66635,0.36686 -1.46371,0.55029 -2.39209,0.55029 -1.54232,0 -2.78516,-0.58773 -3.72851,-1.76319 -0.94336,-1.17545 -1.41504,-2.73274 -1.41504,-4.67187 0,-1.94661 0.47168,-3.50764 1.41504,-4.68311 0.94335,-1.17544 2.18619,-1.76317 3.72851,-1.76318 0.92838,10e-6 1.72574,0.18344 2.39209,0.55029 0.66633,0.36688 1.21288,0.92091 1.63965,1.66211 l 0,-1.90918 2.06641,0 0,11.01709 z"
     id="text2483"
     inkscape:export-filename="/home/filips/svn/geokrety/templates/logo/logo-1kwietnia.png"
     inkscape:export-xdpi="136.15979"
     inkscape:export-ydpi="136.15979" />
  <polygon
     id="polygon3440"
     points="99.9553,101.792 100.167,101.792 99.9553,101.792 "
     class="fil59"
     style="fill:#ffffff;fill-rule:nonzero"
     transform="matrix(1.8094894,0,0,1.8094894,-1018.7853,-73.3414)" />
  <polygon
     id="polygon3450"
     points="149.309,106.555 149.485,106.555 149.309,106.555 "
     class="fil59"
     style="fill:#ffffff;fill-rule:nonzero"
     transform="matrix(1.8094894,0,0,1.8094894,-1018.7853,-73.3414)" />
  <polygon
     id="polygon3456"
     points="116.395,107.26 116.606,107.26 116.395,107.26 "
     class="fil58"
     style="fill:#000000;fill-rule:nonzero"
     transform="matrix(1.8094894,0,0,1.8094894,-1018.7853,-73.3414)" />
  <polygon
     id="polygon3466"
     points="143.276,110.647 143.382,110.647 143.276,110.647 "
     class="fil59"
     style="fill:#ffffff;fill-rule:nonzero"
     transform="matrix(1.8094894,0,0,1.8094894,-1018.7853,-73.3414)" />
  <polygon
     id="polygon3472"
     points="142.077,111.317 142.289,111.317 142.077,111.317 "
     class="fil59"
     style="fill:#ffffff;fill-rule:nonzero"
     transform="matrix(1.8094894,0,0,1.8094894,-1018.7853,-73.3414)" />
  <polygon
     id="polygon3504"
     points="85.2445,126.981 85.3503,126.981 85.2445,126.981 "
     class="fil59"
     style="fill:#ffffff;fill-rule:nonzero"
     transform="matrix(1.8094894,0,0,1.8094894,-1018.7853,-73.3414)" />
  <polygon
     id="polygon3520"
     points="149.944,135.871 150.12,135.871 149.944,135.871 "
     class="fil59"
     style="fill:#ffffff;fill-rule:nonzero"
     transform="matrix(1.8094894,0,0,1.8094894,-1018.7853,-73.3414)" />
  <polygon
     id="polygon3532"
     points="82.2459,140.951 82.4575,140.951 82.2459,140.951 "
     class="fil59"
     style="fill:#ffffff;fill-rule:nonzero"
     transform="matrix(1.8094894,0,0,1.8094894,-1018.7853,-73.3414)" />
  <polygon
     id="polygon3536"
     points="109.339,141.797 109.586,141.797 109.339,141.797 "
     class="fil59"
     style="fill:#ffffff;fill-rule:nonzero"
     transform="matrix(1.8094894,0,0,1.8094894,-1018.7853,-73.3414)" />
  <polygon
     id="polygon3560"
     points="131.07,148.218 131.247,148.218 131.07,148.218 "
     class="fil59"
     style="fill:#ffffff;fill-rule:nonzero"
     transform="matrix(1.8094894,0,0,1.8094894,-1018.7853,-73.3414)" />
  <polygon
     id="polygon3572"
     points="113.079,153.298 113.255,153.298 113.079,153.298 "
     class="fil59"
     style="fill:#ffffff;fill-rule:nonzero"
     transform="matrix(1.8094894,0,0,1.8094894,-1018.7853,-73.3414)" />
  <polygon
     id="polygon3576"
     points="145.605,153.721 145.781,153.721 145.605,153.721 "
     class="fil59"
     style="fill:#ffffff;fill-rule:nonzero"
     transform="matrix(1.8094894,0,0,1.8094894,-1018.7853,-73.3414)" />
  <polygon
     id="polygon3586"
     points="106.164,157.708 106.305,157.708 106.164,157.708 "
     class="fil59"
     style="fill:#ffffff;fill-rule:nonzero"
     transform="matrix(1.8094894,0,0,1.8094894,-1018.7853,-73.3414)" />
  <polygon
     id="polygon3618"
     points="129.589,173.477 129.765,173.477 129.589,173.477 "
     class="fil59"
     style="fill:#ffffff;fill-rule:nonzero"
     transform="matrix(1.8094894,0,0,1.8094894,-1018.7853,-73.3414)" />
  <polygon
     id="polygon3630"
     points="100.59,177.569 100.943,177.569 100.59,177.569 "
     class="fil58"
     style="fill:#000000;fill-rule:nonzero"
     transform="matrix(1.8094894,0,0,1.8094894,-1018.7853,-73.3414)" />
  <polygon
     id="polygon3686"
     points="109.692,201.205 110.327,201.205 109.692,201.205 "
     class="fil59"
     style="fill:#ffffff;fill-rule:nonzero"
     transform="matrix(1.8094894,0,0,1.8094894,-1018.7853,-73.3414)" />
  <polygon
     id="polygon3690"
     points="89.5837,203.004 89.7601,203.004 89.5837,203.004 "
     class="fil58"
     style="fill:#000000;fill-rule:nonzero"
     transform="matrix(1.8094894,0,0,1.8094894,-1018.7853,-73.3414)" />
  <polygon
     id="polygon3694"
     points="109.621,203.251 109.974,203.251 109.621,203.251 "
     class="fil59"
     style="fill:#ffffff;fill-rule:nonzero"
     transform="matrix(1.8094894,0,0,1.8094894,-1018.7853,-73.3414)" />
  <polygon
     id="polygon3696"
     points="106.023,203.322 106.199,203.322 106.023,203.322 "
     class="fil59"
     style="fill:#ffffff;fill-rule:nonzero"
     transform="matrix(1.8094894,0,0,1.8094894,-1018.7853,-73.3414)" />
  <g
     id="g4095"
     transform="matrix(0.2627614,0,0,0.18790802,-44.621211,-94.309842)"
     inkscape:export-filename="/home/filips/svn/geokrety/templates/logo/logo-1kwietnia.png"
     inkscape:export-xdpi="136.15979"
     inkscape:export-ydpi="136.15979">
    <path
       id="path4097"
       d="m 323.99197,513.13711 c -11.31683,-0.21979 -22.17899,8.16066 -17.0625,20.65625 -13.50011,-3.07936 -18.58157,3.92975 -22.28125,7.28125 -53.27821,27.37916 -80.43705,6.0696 -108.25,56.875 -9.65447,13.41019 9.95593,25.08529 23.53125,31.28125 5.34849,-8.85374 9.39014,-19.02356 13.28125,-23.46875 12.63526,-14.20877 48.82121,-10.21211 36.0625,22.71875 -1.06644,3.63174 -2.85363,7.17012 -6.0625,10.8125 64.5339,7.06659 79.96103,-21.30729 98.625,-39.125 -1.38769,-1.08618 -2.87344,-2.23014 -4.65625,-3.6875 -14.76827,-12.64089 13.12499,-42.39455 20.90625,-20.65625 1.25018,5.44646 2.11945,9.12596 2.875,12.09375 8.60545,-5.39551 15.29706,-27.42771 18.3125,-37.28125 9.85911,-22.12585 -18.56731,-24.15977 -37.75,-26.84375 -3.76745,-7.28356 -10.74115,-10.52438 -17.53125,-10.65625 z"
       style="fill:#55d400;fill-rule:evenodd;stroke:none" />
    <path
       transform="translate(-74.88068,70.25047)"
       d="m 406.48653,456.38568 c 0,5.06383 -4.10505,9.16887 -9.16887,9.16887 -5.06383,0 -9.16887,-4.10504 -9.16887,-9.16887 0,-5.06383 4.10504,-9.16887 9.16887,-9.16887 5.06382,0 9.16887,4.10504 9.16887,9.16887 z"
       sodipodi:ry="9.168869"
       sodipodi:rx="9.168869"
       sodipodi:cy="456.38568"
       sodipodi:cx="397.31766"
       id="path4099"
       style="fill:#ffffff;fill-opacity:1;stroke:none"
       sodipodi:type="arc" />
    <path
       transform="translate(-74.39425,69.324987)"
       d="m 403.83907,459.79868 c 0,2.78073 -2.25423,5.03496 -5.03496,5.03496 -2.78074,0 -5.03497,-2.25423 -5.03497,-5.03496 0,-2.78074 2.25423,-5.03497 5.03497,-5.03497 2.78073,0 5.03496,2.25423 5.03496,5.03497 z"
       sodipodi:ry="5.0349669"
       sodipodi:rx="5.0349669"
       sodipodi:cy="459.79868"
       sodipodi:cx="398.80411"
       id="path4101"
       style="fill:#000000;fill-opacity:1;stroke:none"
       sodipodi:type="arc" />
    <path
       sodipodi:nodetypes="cc"
       id="path4103"
       d="m 376.78324,555.8141 c -14.68386,4.8596 -26.40809,3.84924 -33.37871,-1.43051"
       style="fill:none;stroke:#008000;stroke-width:1px;stroke-linecap:butt;stroke-linejoin:miter;stroke-opacity:1" />
    <path
       sodipodi:nodetypes="ccccccccccccccc"
       id="path4105"
       d="m 214.01903,606.73981 c 11.88886,-13.36942 45.9463,-9.6035 33.94129,21.38202 -2.28679,7.78758 -8.05633,15.11105 -25.29422,24.20442 14.36144,0.0933 17.115,6.53554 20.36875,4.13098 3.81909,-3.92046 6.56428,-14.61146 12.17612,-9.09464 6.33158,6.81548 -10.50448,8.46461 -9.27006,11.61794 0.85436,4.63048 15.40724,-8.2476 18.7515,-0.62388 2.6059,9.68074 -13.89016,4.02211 -14.65632,8.39332 -0.22497,2.85717 15.62758,0.3112 11.45942,8.71913 -3.32342,7.27507 -13.07509,-8.10986 -15.29576,-6.31352 -2.7885,1.84061 6.50195,9.80017 -1.98632,12.58299 -7.80124,1.24922 -0.75607,-13.27523 -3.66203,-13.78783 -13.40299,-3.9581 -29.87405,-1.66727 -47.85013,-16.34488 -8.27543,-4.03474 -0.21338,-11.38421 1.20036,-12.90645 9.25433,-8.52072 14.81139,-25.89805 20.1174,-31.9596 z"
       style="fill:#55d400;fill-opacity:1;fill-rule:evenodd;stroke:none" />
    <path
       sodipodi:nodetypes="cccccccccccscc"
       id="path4107"
       d="m 338.2359,595.49965 c -13.29915,-11.53475 12.12,-38.3188 19.03803,-18.58691 5.27968,23.71022 4.05177,15.79939 10.87263,31.26625 3.41223,7.98916 13.53893,7.60576 24.52278,6.19633 11.31294,0.21114 -0.17511,-9.76334 6.16634,-11.80067 6.7634,-1.24358 2.44936,7.78897 5.3074,10.353 2.71485,1.78996 9.86189,-7.14073 10.69561,0.46134 0.0501,5.32094 -9.4423,2.08681 -10.05738,5.02477 -1.42718,2.2701 12.70569,4.27796 8.52177,8.91507 -5.41426,5.02337 -9.57347,-6.38631 -11.75195,-4.82221 -3.67129,2.08786 4.18355,6.85557 -0.16181,10.25911 -3.39538,2.02997 -7.7167,-4.35144 -6.33287,-8.92099 2.19298,-7.2414 -28.50139,6.88279 -34.06633,-2.8137 -9.8507,-17.5973 -7.55336,-12.93889 -22.75422,-25.53139 z"
       style="fill:#55d400;fill-opacity:1;fill-rule:evenodd;stroke:none" />
    <path
       sodipodi:nodetypes="ccc"
       id="path4109"
       d="m 199.042,586.29109 c 3.2337,-8.72173 19.49689,1.51855 16.53961,10.46749 -6.32644,-2.05388 -16.42475,2.54925 -16.53961,-10.46749 z"
       style="fill:#66ff00;fill-opacity:1;fill-rule:evenodd;stroke:none" />
    <path
       sodipodi:nodetypes="ccc"
       id="path4111"
       d="m 183.72412,611.87909 c -2.99059,-6.35601 7.03136,-15.36467 11.58948,-9.14846 4.04057,8.23796 -6.19546,14.65292 -11.58948,9.14846 z"
       style="fill:#66ff00;fill-opacity:1;fill-rule:evenodd;stroke:none" />
    <path
       sodipodi:nodetypes="ccc"
       id="path4113"
       d="m 250.57554,600.33156 c -2.99059,-6.35601 7.03136,-15.36467 11.58948,-9.14846 4.04057,8.23796 -6.19546,14.65292 -11.58948,9.14846 z"
       style="fill:#66ff00;fill-opacity:1;fill-rule:evenodd;stroke:none" />
    <path
       inkscape:transform-center-y="0.26239221"
       inkscape:transform-center-x="-2.2399326"
       sodipodi:nodetypes="ccc"
       id="path4115"
       d="m 226.03606,588.15217 c -5.13743,-7.75449 12.72282,-14.85142 18.20675,-7.1862 -5.38923,3.89854 -7.62594,14.76876 -18.20675,7.1862 z"
       style="fill:#66ff00;fill-opacity:1;fill-rule:evenodd;stroke:none" />
    <path
       inkscape:transform-center-y="-0.72095534"
       inkscape:transform-center-x="-1.9804148"
       sodipodi:nodetypes="ccc"
       id="path4117"
       d="m 237.65955,564.67411 c -0.29517,9.29722 18.62938,5.9482 19.26626,-3.45518 -6.63384,-0.48429 -14.24975,-8.55661 -19.26626,3.45518 z"
       style="fill:#66ff00;fill-opacity:1;fill-rule:evenodd;stroke:none" />
    <path
       sodipodi:nodetypes="ccc"
       id="path4119"
       d="m 321.02378,607.91849 c -2.99059,-6.35601 7.03136,-15.36467 11.58948,-9.14846 4.04057,8.23796 -6.19546,14.65292 -11.58948,9.14846 z"
       style="fill:#66ff00;fill-opacity:1;fill-rule:evenodd;stroke:none" />
    <path
       sodipodi:nodetypes="ccc"
       id="path4121"
       d="m 277.86727,617.38477 c -8.79136,-0.0828 -3.66372,-9.36125 0.42458,-14.54717 8.17595,-11.06453 7.14863,13.95635 -0.42458,14.54717 z"
       style="fill:#66ff00;fill-opacity:1;fill-rule:evenodd;stroke:none" />
    <path
       inkscape:transform-center-y="-1.5466073"
       inkscape:transform-center-x="-0.82014679"
       sodipodi:nodetypes="ccc"
       id="path4123"
       d="m 290.03702,628.89352 c 5.07277,7.79695 18.6855,-5.76948 13.83241,-13.84888 -5.7198,3.39502 -16.58323,1.12562 -13.83241,13.84888 z"
       style="fill:#66ff00;fill-opacity:1;fill-rule:evenodd;stroke:none" />
    <path
       sodipodi:nodetypes="ccc"
       id="path4125"
       d="m 206.38423,574.22497 c -5.70945,-6.68558 4.65572,-8.90955 11.25155,-9.23056 13.71371,-1.09729 -5.83376,14.55506 -11.25155,9.23056 z"
       style="fill:#66ff00;fill-opacity:1;fill-rule:evenodd;stroke:none" />
    <path
       inkscape:transform-center-y="-1.3349922"
       inkscape:transform-center-x="-0.75742509"
       sodipodi:nodetypes="ccc"
       id="path4127"
       d="m 278.00817,584.89516 c -8.82218,-2.94864 0.88433,-19.53594 9.92463,-16.87095 -1.84727,6.38983 3.08151,16.33326 -9.92463,16.87095 z"
       style="fill:#66ff00;fill-opacity:1;fill-rule:evenodd;stroke:none" />
    <path
       inkscape:transform-center-y="0.26239221"
       inkscape:transform-center-x="-2.2399326"
       sodipodi:nodetypes="ccc"
       id="path4129"
       d="m 288.91774,547.68664 c -5.13743,-7.75449 12.72282,-14.85142 18.20675,-7.1862 -5.38923,3.89854 -7.62594,14.76876 -18.20675,7.1862 z"
       style="fill:#66ff00;fill-opacity:1;fill-rule:evenodd;stroke:none" />
    <path
       inkscape:transform-center-y="-1.2816835"
       inkscape:transform-center-x="-1.0557613"
       sodipodi:nodetypes="ccc"
       id="path4131"
       d="m 303.94575,578.90659 c 4.30427,8.24613 19.15142,-3.957 15.09282,-12.46329 -6.01813,2.83275 -16.6149,-0.46465 -15.09282,12.46329 z"
       style="fill:#66ff00;fill-opacity:1;fill-rule:evenodd;stroke:none" />
    <path
       sodipodi:nodetypes="ccc"
       id="path4133"
       d="m 303.20722,562.81525 c -2.01941,-4.29193 4.74797,-10.37508 7.82586,-6.17755 2.72842,5.56273 -4.18351,9.89447 -7.82586,6.17755 z"
       style="fill:#66ff00;fill-opacity:1;fill-rule:evenodd;stroke:none" />
    <path
       sodipodi:nodetypes="ccc"
       id="path4135"
       d="m 220.23826,614.85676 c -2.99059,-6.35601 7.03136,-15.36467 11.58948,-9.14846 4.04057,8.23796 -6.19546,14.65292 -11.58948,9.14846 z"
       style="fill:#66ff00;fill-opacity:1;fill-rule:evenodd;stroke:none" />
    <path
       sodipodi:nodetypes="ccc"
       id="path4137"
       d="m 276.31774,559.25092 c -12.87048,-4.60979 -5.28454,-9.14924 0.33582,-11.36407 8.72537,-1.97617 2.9192,13.44614 -0.33582,11.36407 z"
       style="fill:#66ff00;fill-opacity:1;fill-rule:evenodd;stroke:none" />
    <path
       inkscape:transform-center-y="-2.0884372"
       inkscape:transform-center-x="-0.75069225"
       sodipodi:nodetypes="ccc"
       id="path4139"
       d="m 208.50237,642.84551 c -7.99419,-0.82949 -2.92407,-16.64193 5.20075,-16.09264 -0.35755,5.73593 5.66708,13.19594 -5.20075,16.09264 z"
       style="fill:#66ff00;fill-opacity:1;fill-rule:evenodd;stroke:none" />
    <path
       sodipodi:nodetypes="ccc"
       id="path4141"
       d="m 221.58366,661.20339 c -4.13248,2.32835 -10.69498,-3.97527 -6.73418,-7.35235 5.34794,-3.12855 10.17433,3.44752 6.73418,7.35235 z"
       style="fill:#66ff00;fill-opacity:1;fill-rule:evenodd;stroke:none" />
    <path
       sodipodi:nodetypes="ccc"
       id="path4143"
       d="m 237.32413,630.14079 c -6.23962,14.1952 -10.77208,5.25114 -12.83086,-1.28409 -1.54167,-10.0293 15.44553,-2.23305 12.83086,1.28409 z"
       style="fill:#66ff00;fill-opacity:1;fill-rule:evenodd;stroke:none" />
    <path
       inkscape:transform-center-y="0.56656618"
       inkscape:transform-center-x="-1.9189036"
       sodipodi:nodetypes="ccc"
       id="path4145"
       d="m 341.55129,580.49747 c -0.66983,-6.24535 12.24275,-4.94914 13.14804,1.35036 -4.44237,0.66223 -9.16155,6.48363 -13.14804,-1.35036 z"
       style="fill:#66ff00;fill-opacity:1;fill-rule:evenodd;stroke:none" />
    <path
       sodipodi:nodetypes="ccc"
       id="path4147"
       d="m 351.81313,600.31765 c -4.13248,2.32835 -10.69498,-3.97527 -6.73418,-7.35235 5.34794,-3.12855 10.17433,3.44752 6.73418,7.35235 z"
       style="fill:#66ff00;fill-opacity:1;fill-rule:evenodd;stroke:none" />
    <path
       sodipodi:nodetypes="ccc"
       id="path4149"
       d="m 265.26403,636.75585 c -15.00033,2.82277 -10.25431,-5.83149 -6.08993,-11.13707 7.29028,-6.82798 10.40068,11.30582 6.08993,11.13707 z"
       style="fill:#66ff00;fill-opacity:1;fill-rule:evenodd;stroke:none" />
    <path
       sodipodi:nodetypes="ccc"
       id="path4151"
       d="m 307.76265,606.03426 c -14.2771,-5.39836 -5.71979,-10.31703 0.59773,-12.67929 9.77899,-2.03491 2.99506,15.06736 -0.59773,12.67929 z"
       style="fill:#66ff00;fill-opacity:1;fill-rule:evenodd;stroke:none" />
    <path
       sodipodi:nodetypes="cccccc"
       id="path4153"
       d="m 381.91644,554.92674 c 27.2021,4.2191 53.44311,4.65926 74.84505,-14.20417 14.8345,-16.38854 -0.70011,-37.60585 -18.1746,-32.46858 -13.5944,4.08157 -14.83303,15.57309 -10.22855,24.67396 10.1071,12.46298 23.65739,-0.50895 20.01099,-8.20511 -4.08316,-8.62911 -12.43526,-4.12249 -10.44158,2.16745"
       style="fill:none;stroke:#ff0066;stroke-width:2.5999999;stroke-linecap:round;stroke-linejoin:miter;stroke-miterlimit:4;stroke-opacity:1;stroke-dasharray:none" />
    <path
       sodipodi:nodetypes="ccc"
       id="path4155"
       d="m 355.1719,607.52387 c 1.0626,-6.72653 7.58898,-1.74319 11.09779,1.97867 7.54841,7.52194 -11.50584,3.89107 -11.09779,-1.97867 z"
       style="fill:#66ff00;fill-opacity:1;fill-rule:evenodd;stroke:none" />
  </g>
  <text
     xml:space="preserve"
     style="font-size:40px;font-style:normal;font-weight:normal;fill:#00ff00;fill-opacity:1;stroke:none;font-family:Bitstream Vera Sans"
     x="94.160355"
     y="25.396469"
     id="text3373"
     inkscape:export-filename="/home/filips/svn/geokrety/templates/logo/logo-1kwietnia.png"
     inkscape:export-xdpi="136.15979"
     inkscape:export-ydpi="136.15979"><tspan
       sodipodi:role="line"
       id="tspan3375"
       x="94.160355"
       y="25.396469"
       style="font-size:25px;fill:#00ff00">żaby</tspan></text>
</svg>
