<?xml version="1.0" encoding="UTF-8" standalone="no"?>
<!-- Created with Inkscape (http://www.inkscape.org/) -->

<svg
   xmlns:dc="http://purl.org/dc/elements/1.1/"
   xmlns:cc="http://creativecommons.org/ns#"
   xmlns:rdf="http://www.w3.org/1999/02/22-rdf-syntax-ns#"
   xmlns:svg="http://www.w3.org/2000/svg"
   xmlns="http://www.w3.org/2000/svg"
   xmlns:xlink="http://www.w3.org/1999/xlink"
   xmlns:sodipodi="http://sodipodi.sourceforge.net/DTD/sodipodi-0.dtd"
   xmlns:inkscape="http://www.inkscape.org/namespaces/inkscape"
   version="1.0"
   width="197.98587"
   height="34.258617"
   id="svg2"
   sodipodi:version="0.32"
   inkscape:version="0.47pre4 r22446"
   sodipodi:docname="logo-sylwestra.svg"
   inkscape:output_extension="org.inkscape.output.svg.inkscape"
   inkscape:export-filename="/mnt/nfs/geokrety/templates/logo-jesien.png"
   inkscape:export-xdpi="131.54472"
   inkscape:export-ydpi="131.54472">
  <metadata
     id="metadata32">
    <rdf:RDF>
      <cc:Work
         rdf:about="">
        <dc:format>image/svg+xml</dc:format>
        <dc:type
           rdf:resource="http://purl.org/dc/dcmitype/StillImage" />
        <dc:title></dc:title>
      </cc:Work>
    </rdf:RDF>
  </metadata>
  <sodipodi:namedview
     inkscape:window-height="737"
     inkscape:window-width="1280"
     inkscape:pageshadow="2"
     inkscape:pageopacity="0.0"
     guidetolerance="10.0"
     gridtolerance="10.0"
     objecttolerance="10.0"
     borderopacity="1.0"
     bordercolor="#666666"
     pagecolor="#ffffff"
     id="base"
     showgrid="false"
     inkscape:zoom="2.7081461"
     inkscape:cx="39.953896"
     inkscape:cy="9.4476695"
     inkscape:window-x="-4"
     inkscape:window-y="-3"
     inkscape:current-layer="svg2"
     inkscape:window-maximized="1" />
  <defs
     id="defs4">
    <inkscape:perspective
       sodipodi:type="inkscape:persp3d"
       inkscape:vp_x="0 : 17.129309 : 1"
       inkscape:vp_y="0 : 1000 : 0"
       inkscape:vp_z="197.98587 : 17.129309 : 1"
       inkscape:persp3d-origin="98.992935 : 11.419539 : 1"
       id="perspective34" />
    <inkscape:perspective
       id="perspective2736"
       inkscape:persp3d-origin="372.04724 : 350.78739 : 1"
       inkscape:vp_z="744.09448 : 526.18109 : 1"
       inkscape:vp_y="0 : 1000 : 0"
       inkscape:vp_x="0 : 526.18109 : 1"
       sodipodi:type="inkscape:persp3d" />
    <inkscape:perspective
       id="perspective3687"
       inkscape:persp3d-origin="372.04724 : 350.78739 : 1"
       inkscape:vp_z="744.09448 : 526.18109 : 1"
       inkscape:vp_y="0 : 1000 : 0"
       inkscape:vp_x="0 : 526.18109 : 1"
       sodipodi:type="inkscape:persp3d" />
    <inkscape:perspective
       id="perspective2940"
       inkscape:persp3d-origin="0.5 : 0.33333333 : 1"
       inkscape:vp_z="1 : 0.5 : 1"
       inkscape:vp_y="0 : 1000 : 0"
       inkscape:vp_x="0 : 0.5 : 1"
       sodipodi:type="inkscape:persp3d" />
    <inkscape:perspective
       id="perspective3674"
       inkscape:persp3d-origin="208.888 : 100.22734 : 1"
       inkscape:vp_z="417.776 : 150.341 : 1"
       inkscape:vp_y="0 : 1000 : 0"
       inkscape:vp_x="0 : 150.341 : 1"
       sodipodi:type="inkscape:persp3d" />
    <linearGradient
       y2="658.74127"
       x2="477.51135"
       y1="1015.7707"
       x1="431.39035"
       gradientTransform="matrix(0.312345,0,0,0.36907,-754.843,368.468)"
       gradientUnits="userSpaceOnUse"
       id="linearGradient5544"
       xlink:href="#linearGradient2225"
       inkscape:collect="always" />
    <linearGradient
       y2="535.71051"
       x2="695.65436"
       y1="505.89154"
       x1="101.57983"
       gradientTransform="matrix(0.312345,0,0,0.254892,-754.437,443.647)"
       gradientUnits="userSpaceOnUse"
       id="linearGradient5504"
       xlink:href="#linearGradient2225"
       inkscape:collect="always" />
    <linearGradient
       y2="633.03674"
       x2="585.07648"
       y1="586.86548"
       x1="160.35934"
       gradientTransform="matrix(0.312345,0,0,0.189769,-754.437,492.383)"
       gradientUnits="userSpaceOnUse"
       id="linearGradient5501"
       xlink:href="#linearGradient2213"
       inkscape:collect="always" />
    <linearGradient
       id="linearGradient2225">
      <stop
         id="stop2227"
         offset="0"
         style="stop-color: rgb(0, 0, 121); stop-opacity: 1;" />
      <stop
         style="stop-color: rgb(0, 0, 121); stop-opacity: 1;"
         offset="1"
         id="stop2282" />
    </linearGradient>
    <linearGradient
       id="linearGradient2213">
      <stop
         id="stop2215"
         offset="0"
         style="stop-color: rgb(0, 0, 0); stop-opacity: 1;" />
      <stop
         style="stop-color: rgb(0, 0, 0); stop-opacity: 1;"
         offset="0.5"
         id="stop2223" />
      <stop
         id="stop2217"
         offset="1"
         style="stop-color: rgb(0, 0, 0); stop-opacity: 1;" />
    </linearGradient>
    <inkscape:perspective
       id="perspective4796"
       inkscape:persp3d-origin="102.80522 : 64.631912 : 1"
       inkscape:vp_z="205.61044 : 96.947868 : 1"
       inkscape:vp_y="0 : 1000 : 0"
       inkscape:vp_x="0 : 96.947868 : 1"
       sodipodi:type="inkscape:persp3d" />
    <inkscape:perspective
       id="perspective5158"
       inkscape:persp3d-origin="0.5 : 0.33333333 : 1"
       inkscape:vp_z="1 : 0.5 : 1"
       inkscape:vp_y="0 : 1000 : 0"
       inkscape:vp_x="0 : 0.5 : 1"
       sodipodi:type="inkscape:persp3d" />
    <inkscape:perspective
       id="perspective5391"
       inkscape:persp3d-origin="0.5 : 0.33333333 : 1"
       inkscape:vp_z="1 : 0.5 : 1"
       inkscape:vp_y="0 : 1000 : 0"
       inkscape:vp_x="0 : 0.5 : 1"
       sodipodi:type="inkscape:persp3d" />
  </defs>
  <image
     xlink:href="file:///tmp/ocal-39YR4U-jean_victor_balin_starplose.png"
     width="46.63168"
     height="33.230682"
     id="image4850"
     x="40.380878"
     y="2.5037618"
     inkscape:export-filename="/home/filips/svn/geokrety/templates/logo/logo-sylwestra.png"
     inkscape:export-xdpi="123.15776"
     inkscape:export-ydpi="123.15776" />
  <image
     y="0.65748185"
     x="-226.11679"
     id="image2942"
     height="33.230682"
     width="68.576286"
     xlink:href="file:///tmp/ocal-39YR4U-jean_victor_balin_starplose.png"
     transform="scale(-1,1)"
     inkscape:export-filename="/home/filips/svn/geokrety/templates/logo/logo-sylwestra.png"
     inkscape:export-xdpi="123.15776"
     inkscape:export-ydpi="123.15776"
     style="fill:#ff0000" />
  <image
     y="-0.3830221"
     x="152.61559"
     id="image5160"
     height="33.096153"
     width="34.115337"
     xlink:href="file:///tmp/ocal-2AXY4U-zeimusu_Champagne.png"
     inkscape:export-filename="/home/filips/svn/geokrety/templates/logo/logo-sylwestra.png"
     inkscape:export-xdpi="123"
     inkscape:export-ydpi="123" />
  <path
     sodipodi:type="star"
     style="fill:#ffff00"
     id="path5456"
     sodipodi:sides="5"
     sodipodi:cx="41.356705"
     sodipodi:cy="83.369705"
     sodipodi:r1="5.8384547"
     sodipodi:r2="2.9192274"
     sodipodi:arg1="-0.60554466"
     sodipodi:arg2="0.022773867"
     inkscape:flatsided="false"
     inkscape:rounded="0"
     inkscape:randomized="0"
     d="m 46.157037,80.046399 -1.881862,3.389783 1.725566,3.471952 -3.805402,-0.742256 -2.768794,2.714003 -0.470006,-3.848522 -3.436775,-1.794607 3.514922,-1.636261 0.64475,-3.823131 2.642348,2.837257 3.835253,-0.568218 z"
     transform="translate(146.22549,-66.096877)"
     inkscape:export-filename="/home/filips/svn/geokrety/templates/logo/logo-sylwestra.png"
     inkscape:export-xdpi="123"
     inkscape:export-ydpi="123" />
  <g
     id="g2490"
     transform="translate(28.751625,73.516812)"
     inkscape:export-filename="/home/filips/svn/geokrety/templates/logo/logo-sylwestra.png"
     inkscape:export-xdpi="123.15776"
     inkscape:export-ydpi="123.15776">
    <rect
       width="61.299881"
       height="26.478128"
       x="64.375893"
       y="-68.511658"
       id="rect3251"
       style="fill:#000000;fill-opacity:1;fill-rule:nonzero;stroke:none;stroke-width:2;stroke-linejoin:round;stroke-miterlimit:4;stroke-dasharray:none;stroke-opacity:1" />
    <path
       id="text2383"
       d="M 31.101862,-50.457391 L 31.101862,-55.024164 L 27.447222,-55.024164 L 27.447222,-56.914648 L 33.316796,-56.914648 L 33.316796,-49.614645 C 32.452958,-48.984483 31.500537,-48.508065 30.459532,-48.185393 C 29.418501,-47.862721 28.307344,-47.701384 27.126057,-47.701383 C 24.54196,-47.701384 22.520836,-48.477697 21.062676,-50.030324 C 19.604509,-51.582947 18.875428,-53.744854 18.875429,-56.516052 C 18.875428,-59.294824 19.604509,-61.460528 21.062676,-63.013169 C 22.520836,-64.565779 24.54196,-65.342091 27.126057,-65.342108 C 28.20398,-65.342091 29.228387,-65.20543 30.199277,-64.932124 C 31.170143,-64.658784 32.065345,-64.256392 32.884884,-63.724947 L 32.884884,-61.276428 C 32.057962,-61.997683 31.179372,-62.540533 30.249113,-62.904978 C 29.318829,-63.269393 28.340568,-63.451608 27.314326,-63.451625 C 25.291346,-63.451608 23.772272,-62.870798 22.7571,-61.70919 C 21.741918,-60.547555 21.234329,-58.81651 21.234333,-56.516052 C 21.234329,-54.223169 21.741918,-52.495921 22.7571,-51.334303 C 23.772272,-50.172678 25.291346,-49.591867 27.314326,-49.591868 C 28.104308,-49.591867 28.809395,-49.662095 29.429588,-49.802555 C 30.049757,-49.94301 30.607182,-50.16129 31.101862,-50.457391 L 31.101862,-50.457391 z M 47.935359,-54.933056 L 47.935359,-53.908095 L 38.566189,-53.908095 C 38.654784,-52.465551 39.077466,-51.366566 39.834239,-50.611135 C 40.591002,-49.855699 41.644941,-49.477982 42.996057,-49.477983 C 43.778658,-49.477982 44.537272,-49.576682 45.271901,-49.774084 C 46.00651,-49.971481 46.735591,-50.267581 47.459148,-50.662383 L 47.459148,-48.680792 C 46.728208,-48.361914 45.978824,-48.11896 45.210991,-47.95193 C 44.443137,-47.784899 43.66422,-47.701384 42.874236,-47.701383 C 40.895556,-47.701384 39.328492,-48.293583 38.173039,-49.477983 C 37.01758,-50.662381 36.439852,-52.264356 36.439853,-54.283913 C 36.439852,-56.371789 36.988047,-58.028809 38.084441,-59.254977 C 39.180829,-60.481122 40.659296,-61.0942 42.519846,-61.094213 C 44.18842,-61.0942 45.50815,-60.541861 46.47904,-59.437192 C 47.449907,-58.332501 47.935346,-56.831124 47.935359,-54.933056 L 47.935359,-54.933056 z M 45.89762,-55.548032 C 45.882843,-56.694463 45.570906,-57.609335 44.96181,-58.292651 C 44.352694,-58.975949 43.54609,-59.317601 42.541996,-59.317613 C 41.40499,-59.317601 40.495022,-58.987337 39.812089,-58.326817 C 39.129148,-57.666277 38.735997,-56.73622 38.632637,-55.536645 L 45.89762,-55.548032 z M 56.086315,-59.317613 C 54.993608,-59.317601 54.129785,-58.879147 53.494842,-58.002246 C 52.859891,-57.125325 52.542418,-55.923844 52.542421,-54.397798 C 52.542418,-52.871739 52.858046,-51.670258 53.489305,-50.793351 C 54.120556,-49.916438 54.986225,-49.477982 56.086315,-49.477983 C 57.171625,-49.477982 58.031756,-49.918335 58.666712,-50.799045 C 59.30165,-51.679749 59.619124,-52.879332 59.619134,-54.397798 C 59.619124,-55.908659 59.30165,-57.106345 58.666712,-57.990858 C 58.031756,-58.87535 57.171625,-59.317601 56.086315,-59.317613 L 56.086315,-59.317613 z M 56.086315,-61.094213 C 57.858253,-61.0942 59.249968,-60.502001 60.261465,-59.317613 C 61.27294,-58.133203 61.778682,-56.493267 61.778694,-54.397798 C 61.778682,-52.30991 61.27294,-50.671871 60.261465,-49.483678 C 59.249968,-48.295481 57.858253,-47.701384 56.086315,-47.701383 C 54.30698,-47.701384 52.913419,-48.295481 51.905627,-49.483678 C 50.897831,-50.671871 50.393934,-52.30991 50.393935,-54.397798 C 50.393934,-56.493267 50.897831,-58.133203 51.905627,-59.317613 C 52.913419,-60.502001 54.30698,-61.0942 56.086315,-61.094213 L 56.086315,-61.094213 z"
       style="font-size:22.94870567px;font-style:normal;font-weight:normal;fill:#000000;fill-opacity:1;stroke:none;stroke-width:1px;stroke-linecap:butt;stroke-linejoin:miter;stroke-opacity:1;font-family:Bitstream Vera Sans" />
    <path
       id="text2479"
       d="M 66.871012,-65.831418 L 68.948649,-65.831418 L 68.948649,-55.510618 L 75.114176,-60.934928 L 77.753336,-60.934928 L 71.082438,-55.050168 L 78.034098,-48.356808 L 75.338786,-48.356808 L 68.948649,-54.499878 L 68.948649,-48.356808 L 66.871012,-48.356808 L 66.871012,-65.831418 z M 87.579996,-59.003288 C 87.347891,-59.138048 87.095206,-59.237248 86.82194,-59.300898 C 86.548657,-59.364528 86.247306,-59.396348 85.917887,-59.396358 C 84.749912,-59.396348 83.853347,-59.016378 83.22819,-58.256468 C 82.603023,-57.496528 82.290442,-56.405298 82.290446,-54.982788 L 82.290446,-48.356808 L 80.212809,-48.356808 L 80.212809,-60.934928 L 82.290446,-60.934928 L 82.290446,-58.980828 C 82.724686,-59.744488 83.289952,-60.311628 83.986246,-60.682248 C 84.682529,-61.052838 85.528557,-61.238138 86.524332,-61.238158 C 86.666576,-61.238138 86.823803,-61.228788 86.996012,-61.210078 C 87.168204,-61.191348 87.359121,-61.163268 87.568766,-61.125848 L 87.579996,-59.003288 z M 100.52873,-55.162468 L 100.52873,-54.151728 L 91.02775,-54.151728 C 91.117591,-52.729198 91.54622,-51.645458 92.313639,-50.900508 C 93.081049,-50.155548 94.149814,-49.783078 95.519938,-49.783078 C 96.313549,-49.783078 97.082835,-49.880408 97.827799,-50.075068 C 98.572743,-50.269728 99.312081,-50.561718 100.04582,-50.951048 L 100.04582,-48.996948 C 99.304594,-48.682488 98.544667,-48.442908 97.766032,-48.278198 C 96.987376,-48.113478 96.197501,-48.031128 95.396403,-48.031128 C 93.389887,-48.031128 91.800777,-48.615108 90.629069,-49.783078 C 89.457355,-50.951038 88.871499,-52.530798 88.8715,-54.522338 C 88.871499,-56.581248 89.427407,-58.215278 90.539225,-59.424438 C 91.651037,-60.633568 93.150303,-61.238138 95.037028,-61.238158 C 96.729076,-61.238138 98.067372,-60.693468 99.05192,-59.604118 C 100.03645,-58.514758 100.52871,-57.034208 100.52873,-55.162468 L 100.52873,-55.162468 z M 98.462321,-55.768918 C 98.447336,-56.899438 98.131011,-57.801618 97.513346,-58.475458 C 96.895661,-59.149278 96.077709,-59.486188 95.059489,-59.486198 C 93.906488,-59.486188 92.983718,-59.160508 92.291178,-58.509148 C 91.598629,-57.857778 91.199947,-56.940618 91.095133,-55.757688 L 98.462321,-55.768918 z M 105.96427,-64.506218 L 105.96427,-60.934928 L 110.22062,-60.934928 L 110.22062,-59.328978 L 105.96427,-59.328978 L 105.96427,-52.500848 C 105.96427,-51.475128 106.10465,-50.816278 106.38542,-50.524288 C 106.66617,-50.232298 107.23705,-50.086298 108.09806,-50.086298 L 110.22062,-50.086298 L 110.22062,-48.356808 L 108.09806,-48.356808 C 106.50333,-48.356808 105.40275,-48.654418 104.7963,-49.249628 C 104.18986,-49.844838 103.88663,-50.928578 103.88664,-52.500848 L 103.88664,-59.328978 L 102.37052,-59.328978 L 102.37052,-60.934928 L 103.88664,-60.934928 L 103.88664,-64.506218 L 105.96427,-64.506218 z M 118.18302,-47.188838 C 117.59903,-45.691448 117.03002,-44.714398 116.47599,-44.257688 C 115.92195,-43.800988 115.18074,-43.572628 114.25236,-43.572628 L 112.60148,-43.572628 L 112.60148,-45.302118 L 113.81437,-45.302118 C 114.38338,-45.302118 114.82511,-45.436888 115.13957,-45.706418 C 115.45401,-45.975948 115.80216,-46.612338 116.184,-47.615598 L 116.55461,-48.558958 L 111.4672,-60.934928 L 113.65714,-60.934928 L 117.58781,-51.097038 L 121.51847,-60.934928 L 123.70841,-60.934928 L 118.18302,-47.188838 z"
       style="font-size:40px;font-style:normal;font-weight:normal;fill:#ffffff;fill-opacity:1;stroke:none;stroke-width:1px;stroke-linecap:butt;stroke-linejoin:miter;stroke-opacity:1;font-family:Bitstream Vera Sans" />
    <path
       id="text2483"
       d="M 127.65643,-50.958365 L 130.02606,-50.958365 L 130.02606,-48.105825 L 127.65643,-48.105825 L 127.65643,-50.958365 z M 139.56073,-59.235225 C 138.45265,-59.235215 137.57667,-58.802835 136.9328,-57.938105 C 136.28891,-57.073345 135.96697,-55.888535 135.96698,-54.383655 C 135.96697,-52.878775 136.28704,-51.693955 136.92718,-50.829215 C 137.56731,-49.964465 138.44516,-49.532095 139.56073,-49.532095 C 140.6613,-49.532095 141.53354,-49.966335 142.17743,-50.834835 C 142.82129,-51.703315 143.14323,-52.886255 143.14325,-54.383655 C 143.14323,-55.873555 142.82129,-57.054625 142.17743,-57.926875 C 141.53354,-58.799095 140.6613,-59.235215 139.56073,-59.235225 L 139.56073,-59.235225 z M 139.56073,-60.987175 C 141.35759,-60.987165 142.76889,-60.403175 143.79461,-59.235225 C 144.82032,-58.067245 145.33317,-56.450055 145.33319,-54.383655 C 145.33317,-52.324735 144.82032,-50.709425 143.79461,-49.537715 C 142.76889,-48.365995 141.35759,-47.780145 139.56073,-47.780145 C 137.75636,-47.780145 136.34319,-48.365995 135.32122,-49.537715 C 134.29925,-50.709425 133.78826,-52.324735 133.78826,-54.383655 C 133.78826,-56.450055 134.29925,-58.067245 135.32122,-59.235225 C 136.34319,-60.403175 137.75636,-60.987165 139.56073,-60.987175 L 139.56073,-60.987175 z M 156.03582,-58.752315 C 155.80372,-58.887065 155.55103,-58.986265 155.27777,-59.049915 C 155.00448,-59.113545 154.70313,-59.145365 154.37371,-59.145375 C 153.20574,-59.145365 152.30917,-58.765405 151.68402,-58.005485 C 151.05885,-57.245545 150.74627,-56.154325 150.74627,-54.731805 L 150.74627,-48.105825 L 148.66864,-48.105825 L 148.66864,-60.683955 L 150.74627,-60.683955 L 150.74627,-58.729855 C 151.18051,-59.493515 151.74578,-60.060645 152.44207,-60.431265 C 153.13836,-60.801855 153.98438,-60.987165 154.98016,-60.987175 C 155.1224,-60.987165 155.27963,-60.977805 155.45184,-60.959095 C 155.62403,-60.940365 155.81495,-60.912295 156.02459,-60.874865 L 156.03582,-58.752315 z M 166.50262,-54.540885 C 166.50261,-56.038275 166.19377,-57.198755 165.57611,-58.022335 C 164.95842,-58.845885 164.09181,-59.257675 162.97625,-59.257685 C 161.86817,-59.257675 161.0053,-58.845885 160.38763,-58.022335 C 159.76995,-57.198755 159.46111,-56.038275 159.46112,-54.540885 C 159.46111,-53.050975 159.76995,-51.894235 160.38763,-51.070675 C 161.0053,-50.247105 161.86817,-49.835315 162.97625,-49.835315 C 164.09181,-49.835315 164.95842,-50.247105 165.57611,-51.070675 C 166.19377,-51.894235 166.50261,-53.050975 166.50262,-54.540885 L 166.50262,-54.540885 z M 168.56903,-49.666865 C 168.56901,-47.525585 168.09359,-45.932735 167.14276,-44.888295 C 166.1919,-43.843865 164.73568,-43.321652 162.7741,-43.321647 C 162.04786,-43.321652 161.3628,-43.375932 160.71893,-43.484489 C 160.07504,-43.593054 159.44988,-43.759635 158.84344,-43.984245 L 158.84344,-45.994495 C 159.44988,-45.665075 160.04884,-45.421745 160.64032,-45.264515 C 161.23178,-45.107295 161.83448,-45.028685 162.44842,-45.028675 C 163.80356,-45.028685 164.81804,-45.382445 165.49188,-46.089955 C 166.1657,-46.797475 166.50261,-47.866245 166.50262,-49.296255 L 166.50262,-50.318225 C 166.07585,-49.577015 165.5293,-49.022985 164.86297,-48.656115 C 164.19662,-48.289255 163.39926,-48.105825 162.47088,-48.105825 C 160.92856,-48.105825 159.68572,-48.693555 158.74237,-49.869015 C 157.79901,-51.044465 157.32733,-52.601755 157.32733,-54.540885 C 157.32733,-56.487495 157.79901,-58.048525 158.74237,-59.223995 C 159.68572,-60.399435 160.92856,-60.987165 162.47088,-60.987175 C 163.39926,-60.987165 164.19662,-60.803735 164.86297,-60.436885 C 165.5293,-60.070005 166.07585,-59.515975 166.50262,-58.774775 L 166.50262,-60.683955 L 168.56903,-60.683955 L 168.56903,-49.666865 z"
       style="font-size:23px;font-style:normal;font-weight:normal;fill:#000000;fill-opacity:1;stroke:none;stroke-width:1px;stroke-linecap:butt;stroke-linejoin:miter;stroke-opacity:1;font-family:Bitstream Vera Sans" />
  </g>
  <polygon
     id="polygon3440"
     points="99.9553,101.792 100.167,101.792 99.9553,101.792 "
     class="fil59"
     style="fill:#ffffff;fill-rule:nonzero"
     transform="matrix(1.8094894,0,0,1.8094894,-1018.7853,-73.3414)" />
  <polygon
     id="polygon3450"
     points="149.309,106.555 149.485,106.555 149.309,106.555 "
     class="fil59"
     style="fill:#ffffff;fill-rule:nonzero"
     transform="matrix(1.8094894,0,0,1.8094894,-1018.7853,-73.3414)" />
  <polygon
     id="polygon3456"
     points="116.395,107.26 116.606,107.26 116.395,107.26 "
     class="fil58"
     style="fill:#000000;fill-rule:nonzero"
     transform="matrix(1.8094894,0,0,1.8094894,-1018.7853,-73.3414)" />
  <polygon
     id="polygon3466"
     points="143.276,110.647 143.382,110.647 143.276,110.647 "
     class="fil59"
     style="fill:#ffffff;fill-rule:nonzero"
     transform="matrix(1.8094894,0,0,1.8094894,-1018.7853,-73.3414)" />
  <polygon
     id="polygon3472"
     points="142.077,111.317 142.289,111.317 142.077,111.317 "
     class="fil59"
     style="fill:#ffffff;fill-rule:nonzero"
     transform="matrix(1.8094894,0,0,1.8094894,-1018.7853,-73.3414)" />
  <polygon
     id="polygon3504"
     points="85.2445,126.981 85.3503,126.981 85.2445,126.981 "
     class="fil59"
     style="fill:#ffffff;fill-rule:nonzero"
     transform="matrix(1.8094894,0,0,1.8094894,-1018.7853,-73.3414)" />
  <polygon
     id="polygon3520"
     points="149.944,135.871 150.12,135.871 149.944,135.871 "
     class="fil59"
     style="fill:#ffffff;fill-rule:nonzero"
     transform="matrix(1.8094894,0,0,1.8094894,-1018.7853,-73.3414)" />
  <polygon
     id="polygon3532"
     points="82.2459,140.951 82.4575,140.951 82.2459,140.951 "
     class="fil59"
     style="fill:#ffffff;fill-rule:nonzero"
     transform="matrix(1.8094894,0,0,1.8094894,-1018.7853,-73.3414)" />
  <polygon
     id="polygon3536"
     points="109.339,141.797 109.586,141.797 109.339,141.797 "
     class="fil59"
     style="fill:#ffffff;fill-rule:nonzero"
     transform="matrix(1.8094894,0,0,1.8094894,-1018.7853,-73.3414)" />
  <polygon
     id="polygon3560"
     points="131.07,148.218 131.247,148.218 131.07,148.218 "
     class="fil59"
     style="fill:#ffffff;fill-rule:nonzero"
     transform="matrix(1.8094894,0,0,1.8094894,-1018.7853,-73.3414)" />
  <polygon
     id="polygon3572"
     points="113.079,153.298 113.255,153.298 113.079,153.298 "
     class="fil59"
     style="fill:#ffffff;fill-rule:nonzero"
     transform="matrix(1.8094894,0,0,1.8094894,-1018.7853,-73.3414)" />
  <polygon
     id="polygon3576"
     points="145.605,153.721 145.781,153.721 145.605,153.721 "
     class="fil59"
     style="fill:#ffffff;fill-rule:nonzero"
     transform="matrix(1.8094894,0,0,1.8094894,-1018.7853,-73.3414)" />
  <polygon
     id="polygon3586"
     points="106.164,157.708 106.305,157.708 106.164,157.708 "
     class="fil59"
     style="fill:#ffffff;fill-rule:nonzero"
     transform="matrix(1.8094894,0,0,1.8094894,-1018.7853,-73.3414)" />
  <polygon
     id="polygon3618"
     points="129.589,173.477 129.765,173.477 129.589,173.477 "
     class="fil59"
     style="fill:#ffffff;fill-rule:nonzero"
     transform="matrix(1.8094894,0,0,1.8094894,-1018.7853,-73.3414)" />
  <polygon
     id="polygon3630"
     points="100.59,177.569 100.943,177.569 100.59,177.569 "
     class="fil58"
     style="fill:#000000;fill-rule:nonzero"
     transform="matrix(1.8094894,0,0,1.8094894,-1018.7853,-73.3414)" />
  <polygon
     id="polygon3686"
     points="109.692,201.205 110.327,201.205 109.692,201.205 "
     class="fil59"
     style="fill:#ffffff;fill-rule:nonzero"
     transform="matrix(1.8094894,0,0,1.8094894,-1018.7853,-73.3414)" />
  <polygon
     id="polygon3690"
     points="89.5837,203.004 89.7601,203.004 89.5837,203.004 "
     class="fil58"
     style="fill:#000000;fill-rule:nonzero"
     transform="matrix(1.8094894,0,0,1.8094894,-1018.7853,-73.3414)" />
  <polygon
     id="polygon3694"
     points="109.621,203.251 109.974,203.251 109.621,203.251 "
     class="fil59"
     style="fill:#ffffff;fill-rule:nonzero"
     transform="matrix(1.8094894,0,0,1.8094894,-1018.7853,-73.3414)" />
  <polygon
     id="polygon3696"
     points="106.023,203.322 106.199,203.322 106.023,203.322 "
     class="fil59"
     style="fill:#ffffff;fill-rule:nonzero"
     transform="matrix(1.8094894,0,0,1.8094894,-1018.7853,-73.3414)" />
  <g
     id="g15767"
     transform="matrix(0.2230704,0,0,0.2322423,46.969368,8.0221259)"
     inkscape:export-filename="/home/filips/svn/geokrety/templates/logo/logo-sylwestra.png"
     inkscape:export-xdpi="123.15776"
     inkscape:export-ydpi="123.15776">
    <polygon
       transform="matrix(1.8020893,-0.1634812,0.1634812,1.8020893,-298.8125,-111.4466)"
       style="fill:#ffffff;fill-rule:nonzero;stroke-linecap:round;stroke-linejoin:round"
       class="fil59"
       points="151.073,106.766 151.143,106.696 151.143,106.696 "
       id="polygon2819" />
    <polygon
       transform="matrix(1.8020893,-0.1634812,0.1634812,1.8020893,-298.8125,-111.4466)"
       style="fill:#ffffff;fill-rule:nonzero;stroke-linecap:round;stroke-linejoin:round"
       class="fil59"
       points="152.06,107.049 151.955,106.908 151.955,106.908 "
       id="polygon2821" />
    <polygon
       transform="matrix(1.8020893,-0.1634812,0.1634812,1.8020893,-298.8125,-111.4466)"
       style="fill:#ffffff;fill-rule:nonzero;stroke-linecap:round;stroke-linejoin:round"
       class="fil59"
       points="147.545,117.914 147.686,117.844 147.686,117.844 "
       id="polygon2823" />
    <path
       sodipodi:nodetypes="cssz"
       id="path2825"
       d="m -79.4383,41.734855 c 14.166534,10.522786 62.439949,41.109535 66.71835,48.713804 3.2108115,5.706773 -3.89314,16.477331 -9.351041,14.384241 -11.731525,-4.499 -6.467227,-10.177249 -55.860116,-47.492233"
       style="fill:#e9c642;fill-opacity:1;fill-rule:evenodd;stroke:#000000;stroke-width:2.81500006;stroke-linecap:round;stroke-linejoin:round;stroke-miterlimit:4;stroke-opacity:1;stroke-dasharray:none" />
    <path
       sodipodi:nodetypes="cscszczzzzzzzzzczzzzzz"
       id="path2827"
       d="m -77.634427,85.689881 c 2.408721,-1.226506 12.939032,-3.118291 15.15319,-5.982626 2.213632,-2.863656 0.673771,-6.331948 1.683447,-8.742457 2.588505,1.87902 7.006385,2.911647 8.503435,2.264835 1.403589,-0.606431 4.565552,-5.812915 4.591155,-7.858714 0.0256,-2.04581 -2.108874,-3.608583 -3.452125,-4.36546 5.518755,-3.45263 9.023845,-3.412184 12.957754,-2.509066 3.933908,0.903118 2.801672,3.17228 4.993173,4.51267 2.137927,1.307622 3.855342,0.634437 5.236815,1.903254 1.381473,1.268817 1.59096,3.419493 3.100317,5.078906 1.54619,1.699909 2.699042,0.910958 4.402758,3.024386 1.703718,2.113428 1.152637,3.302173 2.265548,5.649194 1.112912,2.347031 4.010794,1.233387 0.900084,7.023559 -3.016739,5.615246 -6.636336,8.593987 -9.129576,10.47616 -2.555515,1.929192 -8.417417,3.643596 -9.712323,2.465077 -1.544493,-1.405679 -0.879222,-1.290503 -0.427776,-2.663455 -1.249784,0.509377 -1.909006,1.111458 -4.28511,1.507008 -2.376103,0.395551 -2.905064,-0.276457 -3.881857,-1.519843 -0.976792,-1.243385 1.211515,-4.105887 -0.02531,-3.453687 -1.236827,0.6522 -1.104322,3.700164 -4.921997,6.062489 -3.817676,2.362319 -9.784381,5.126609 -14.572295,5.920949 -4.787914,0.79434 -7.818884,-2.34168 -10.019623,-2.39404"
       style="fill:#d4af8b;fill-opacity:1;fill-rule:evenodd;stroke:#000000;stroke-width:2.81500006;stroke-linecap:round;stroke-linejoin:round;stroke-miterlimit:4;stroke-opacity:1;stroke-dasharray:none" />
    <path
       sodipodi:nodetypes="cszz"
       id="path2829"
       d="m -57.646164,81.235683 c 6.500719,6.193742 16.720927,15.316309 24.957686,14.41743 3.833164,-0.417431 -3.065037,-14.001546 -8.506871,-19.288346 -5.441835,-5.2868 -12.76538,-2.220502 -14.764733,-0.983328"
       style="fill:none;stroke:#000000;stroke-width:2.81500006;stroke-linecap:round;stroke-linejoin:round;stroke-miterlimit:4;stroke-opacity:1;stroke-dasharray:none" />
    <path
       sodipodi:nodetypes="cz"
       id="path2831"
       d="m -40.681261,76.212549 c 1.420936,-0.482189 4.229567,-3.725935 4.790052,-8.880885"
       style="fill:none;stroke:#000000;stroke-width:2.81500006;stroke-linecap:round;stroke-linejoin:round;stroke-miterlimit:4;stroke-opacity:1;stroke-dasharray:none" />
    <path
       sodipodi:nodetypes="cz"
       id="path2833"
       d="m -34.331917,85.085243 c 2.799883,-3.154138 5.977366,-7.2047 6.565604,-10.814675"
       style="fill:none;stroke:#000000;stroke-width:2.81500006;stroke-linecap:round;stroke-linejoin:round;stroke-miterlimit:4;stroke-opacity:1;stroke-dasharray:none" />
    <path
       sodipodi:nodetypes="cz"
       id="path2835"
       d="m -31.269709,93.835147 c 4.690897,-3.274157 7.922336,-7.190059 9.413912,-11.345162"
       style="fill:none;stroke:#000000;stroke-width:2.81500006;stroke-linecap:round;stroke-linejoin:round;stroke-miterlimit:4;stroke-opacity:1;stroke-dasharray:none" />
    <g
       transform="matrix(0.702831,0.03716355,-0.03716355,0.702831,-275.97308,-686.68328)"
       id="g2837">
      <path
         style="fill:#667b58;fill-opacity:1;fill-rule:evenodd;stroke:#000000;stroke-width:4;stroke-linecap:butt;stroke-linejoin:round;stroke-miterlimit:4;stroke-opacity:1;stroke-dasharray:none"
         d="m 291.29335,966.00527 -38.67718,74.17803 -46.89842,-14.3872 -55.30649,-53.9986 72.6832,-27.65324 68.19889,21.86101 z"
         id="path2839"
         sodipodi:nodetypes="cccccc" />
      <path
         style="fill:#c5c5c5;fill-opacity:1;fill-rule:evenodd;stroke:#000000;stroke-width:4;stroke-linecap:butt;stroke-linejoin:round;stroke-miterlimit:4;stroke-opacity:1;stroke-dasharray:none"
         d="m 205.71775,1025.7961 -55.30649,-53.99861 72.6832,-27.65324 22.32769,7.48955 -67.75283,25.49589 49.30784,55.01851 -21.25941,-6.3521 z"
         id="path2841"
         sodipodi:nodetypes="ccccccc" />
      <path
         style="fill:#667b58;fill-opacity:1;fill-rule:evenodd;stroke:#000000;stroke-width:4;stroke-linecap:butt;stroke-linejoin:round;stroke-miterlimit:4;stroke-opacity:1;stroke-dasharray:none"
         d="m 288.17968,1000.584 -9.19725,19.6482 c -15.20275,-9.8073 -61.66295,-27.49538 -52.39566,-36.46449 9.41223,-9.10938 38.41597,3.77386 61.59291,16.81629 z"
         id="path2843"
         sodipodi:nodetypes="cczc" />
    </g>
    <path
       sodipodi:nodetypes="cccszscccczzc"
       id="path2845"
       d="m -64.623652,62.930554 c -1.833032,5.249107 -3.216735,26.673946 3.487414,42.706946 -54.837912,-1.82435 -58.029622,-21.902761 -99.074052,-30.768524 5.65714,-13.38255 12.95269,-20.428741 24.89259,-29.952724 5.335,-4.25552 11.86126,-12.186872 17.05478,-17.298454 5.19352,-5.111582 9.53547,-8.730959 15.56982,-11.276631 11.124023,-4.692817 26.888039,-3.517226 36.515007,5.106092 -2.855221,0.67932 -9.769451,-0.106276 -9.716264,4.949212 0.504711,5.707501 -4.00611,8.31006 -7.965959,11.344197 -2.577975,2.670619 -1.099721,6.782012 -4.917512,8.319702 -0.179423,4.572814 1.595234,8.986424 4.191924,13.041724 2.711178,4.234068 5.528851,6.960921 9.378074,9.460301 3.849223,2.499451 8.13683,-2.757961 10.584178,-5.631841 z"
       style="fill:#5d5d5d;fill-opacity:1;fill-rule:evenodd;stroke:#000000;stroke-width:2.81525159;stroke-linecap:butt;stroke-linejoin:round;stroke-miterlimit:4;stroke-opacity:1;stroke-dasharray:none" />
    <path
       sodipodi:nodetypes="ccccczzczccczz"
       id="path2847"
       d="m -64.873618,62.627422 c -3.234886,3.505552 -6.734955,8.131291 -10.584178,5.631841 -3.849223,-2.499381 -6.666896,-5.226233 -9.378075,-9.460301 -2.596689,-4.0553 -4.371346,-8.468911 -4.191923,-13.041724 3.817791,-1.53769 2.339537,-5.649084 4.917512,-8.319702 3.959849,-3.034137 8.47067,-5.636696 7.965959,-11.344197 -0.05319,-5.055558 7.977233,-4.210983 9.902239,-4.112379 2.017754,0.103391 13.131966,1.544025 16.776535,1.335345 2.522226,-1.789093 5.235235,-4.766221 6.888597,-5.795055 1.610295,-1.002018 3.7485,-3.5071 5.782773,-2.769574 6.354466,0.417924 4.815143,7.671912 4.470169,12.440034 -0.914535,6.239231 -9.324015,7.929015 -17.676409,14.092234 -6.190816,4.704215 -5.649379,5.090749 -9.367679,10.426636 -3.7183,5.335887 -2.270634,7.411291 -5.50552,10.916842 z"
       style="fill:#d4af8b;fill-opacity:1;fill-rule:evenodd;stroke:#000000;stroke-width:2.81525159;stroke-linecap:butt;stroke-linejoin:round;stroke-miterlimit:4;stroke-opacity:1;stroke-dasharray:none" />
    <path
       sodipodi:nodetypes="cc"
       id="path2849"
       d="m -38.082516,21.963435 c 0.130325,3.192144 -1.02889,5.320404 -2.876223,6.111982"
       style="fill:none;stroke:#000000;stroke-width:3.51906443;stroke-linecap:round;stroke-linejoin:miter;stroke-miterlimit:4;stroke-opacity:1;stroke-dasharray:none" />
    <path
       sodipodi:nodetypes="cccccccc"
       style="fill:#000000;fill-rule:nonzero;stroke:#000000;stroke-width:2.81525159;stroke-linecap:round;stroke-linejoin:round;stroke-miterlimit:4;stroke-opacity:1;stroke-dasharray:none"
       class="fil58"
       d="m -70.035044,50.037617 c 1.103649,-0.03667 6.995956,-2.642888 7.790068,-3.043428 -1.904968,3.307991 -3.37726,4.006526 -5.341658,8.280218 -0.865451,2.3589 -2.413797,5.463489 -4.956321,7.032499 -3.764266,-2.747475 -4.090349,-8.114048 -5.829401,-12.162732 -4.741066,-3.039838 -7.936454,-8.246857 -12.254086,-7.461191 -1.026335,-2.372271 0.553795,-4.245399 0.602745,-6.429753 1.980741,10.256525 14.423238,13.904809 19.988653,13.784387 z"
       id="path2851" />
    <path
       style="fill:#ffffff;fill-rule:nonzero"
       class="fil59"
       d="m -68.470517,56.305845 c -0.66067,0.561995 -5.59841,0.787708 -6.762024,0.516388 -0.456422,-1.010957 -0.830569,-4.041364 -1.46562,-5.247137 0.88413,0.02203 9.091644,0.729432 11.844327,-1.699004 -1.183532,1.195356 -3.996391,6.56397 -3.616683,6.429753 l 0,0 z"
       id="path2853" />
    <path
       sodipodi:nodetypes="czzc"
       id="path2855"
       d="m -96.300004,30.03441 c 3.552319,-1.028341 4.243027,-2.89063 7.362643,-4.113435 3.119615,-1.222804 3.132579,-1.032634 5.115826,-0.777713 1.983246,0.254921 2.817158,1.797468 2.817158,1.797468"
       style="fill:none;stroke:#000000;stroke-width:2.81500006;stroke-linecap:round;stroke-linejoin:round;stroke-miterlimit:4;stroke-opacity:1;stroke-dasharray:none" />
  </g>
  <g
     inkscape:label="Layer 1"
     id="layer1"
     transform="matrix(-0.13073649,0.03356742,0.01780262,0.06933661,-70.229777,-10.120846)"
     inkscape:export-filename="/home/filips/svn/geokrety/templates/logo/logo-sylwestra.png"
     inkscape:export-xdpi="123.15776"
     inkscape:export-ydpi="123.15776"
     style="fill:#ffff00">
    <g
       id="g2411"
       style="fill:#ffff00">
      <path
         sodipodi:nodetypes="csscccc"
         id="path2183"
         d="m -700.01916,622.52113 c 0,0 35.10335,-116.66716 68.34344,-150.35013 13.83548,-14.01982 30.88814,-9.11852 35.68031,-5.5552 13.86533,10.30986 18.97109,25.17339 26.48543,37.73759 -22.01217,-5.32173 -14.6258,-15.6099 -38.86149,-13.48503 l 14.39086,132.22971 -106.03855,-0.57694 z"
         style="fill:#ffff00;fill-opacity:1;fill-rule:evenodd;stroke:#000000;stroke-width:2;stroke-linecap:butt;stroke-linejoin:miter;stroke-miterlimit:4;stroke-opacity:1;stroke-dasharray:none" />
      <path
         sodipodi:nodetypes="ccccc"
         id="path2185"
         d="m -701.34479,628.49582 10.55254,-35.52884 c 15.70248,-5.65329 49.49224,-5.34283 93.58274,5.80925 l 4.29915,34.04964 -108.43443,-4.33005 z"
         style="fill:#ffff00;fill-opacity:1;fill-rule:evenodd;stroke:none" />
      <path
         sodipodi:nodetypes="ccccccccccccccc"
         d="m -632.79591,620.66242 0.32721,-30.74723 3.10846,-1.35251 c 10.57969,0.18033 19.19614,1.80335 25.84935,4.86906 l 3.76288,29.57504 -3.76288,1.62302 -29.28502,-3.96738 z m 9.65947,-26.80819 1.13217,18.83788 13.54898,2.04067 -1.07112,-6.19081 -10.97132,-5.04837 9.72999,-1.92623 -0.86277,-5.81601 c -3.83531,-1.74533 -7.67062,-2.08454 -11.50593,-1.89713 z"
         style="fill:#ffff00;fill-opacity:1;fill-rule:evenodd;stroke:#000000;stroke-width:1;stroke-linecap:butt;stroke-linejoin:miter;stroke-miterlimit:4;stroke-opacity:1;stroke-dasharray:none"
         id="path2187" />
      <path
         id="path2201"
         d="m -632.45193,590.01378 3.35179,-1.43016 0.64873,30.5101 -4.21676,1.60893 0.21624,-30.68887 z"
         style="fill:#ffff00;fill-opacity:1;fill-rule:evenodd;stroke:#000000;stroke-width:1;stroke-linecap:butt;stroke-linejoin:miter;stroke-miterlimit:4;stroke-opacity:1;stroke-dasharray:none" />
      <path
         sodipodi:nodetypes="ccccccc"
         id="path2203"
         d="m -623.2842,592.0936 0.0498,1.76344 c 3.18958,-0.2648 6.91818,-0.0784 11.62788,1.79088 l 0.78942,5.81771 2.78646,-0.69845 -1.24035,-6.29452 c -5.31451,-2.41774 -9.69691,-2.67547 -14.0132,-2.37906 z"
         style="fill:#ffff00;fill-opacity:1;fill-rule:evenodd;stroke:#000000;stroke-width:1;stroke-linecap:butt;stroke-linejoin:miter;stroke-miterlimit:4;stroke-opacity:1;stroke-dasharray:none" />
      <path
         sodipodi:nodetypes="cccccc"
         id="path2205"
         d="m -620.02964,603.53264 10.45119,4.44574 1.30104,6.89933 2.77506,0.53493 -1.87338,-9.50908 -12.65391,-2.37092 z"
         style="fill:#ffff00;fill-opacity:1;fill-rule:evenodd;stroke:#000000;stroke-width:1;stroke-linecap:butt;stroke-linejoin:miter;stroke-miterlimit:4;stroke-opacity:1;stroke-dasharray:none" />
      <path
         sodipodi:nodetypes="csscszsz"
         id="path1308"
         d="m -701.36281,640.3391 c 31.03143,3.14281 68.80968,-1.89891 117.90451,1.37061 13.50816,0.89959 30.68983,1.03361 44.0246,-9.13922 2.37888,-1.81481 6.28534,-7.03655 -4.05128,-8.67875 -2.87826,-1.04393 -2.86711,5.28055 -29.22419,1.91886 -34.21487,-4.3639 -68.59182,-16.2345 -98.0858,-18.64035 -29.49398,-2.40584 -54.3528,-2.55052 -66.17433,10.96491 -10.52637,12.0347 4.57507,19.06113 35.60649,22.20394 z"
         style="fill:#ffff00;fill-opacity:1;fill-rule:evenodd;stroke:#000000;stroke-width:2;stroke-linecap:butt;stroke-linejoin:miter;stroke-miterlimit:4;stroke-opacity:1;stroke-dasharray:none" />
      <path
         sodipodi:nodetypes="ccccccccccc"
         id="path2237"
         d="m -702.85753,612.35396 c -9.6729,0.33939 -19.65891,0.63011 -28.76499,4.77483 -3.30747,1.40454 -5.83407,4.47571 -7.16441,8.28101 -1.99581,4.31351 -1.60766,10.12248 1.55196,13.55178 5.52009,6.27954 13.3015,8.48398 20.52093,10.60239 23.70528,6.32207 48.22762,4.41282 72.34253,3.71996 21.03371,-0.78613 42.11216,-0.6328 63.09416,1.40924 26.25756,-1.11247 36.12739,-6.74794 42.59175,-22.55278 -17.11189,6.20898 -19.27211,10.50726 -50.75444,4.34412 -25.623,-6.45049 -50.30627,-17.84383 -76.3656,-21.80079 -12.27883,-1.5518 -24.68113,-2.49987 -37.05189,-2.32976 z"
         style="fill:#ffff00;fill-opacity:1;fill-rule:evenodd;stroke:#000000;stroke-width:2;stroke-linecap:butt;stroke-linejoin:miter;stroke-miterlimit:4;stroke-opacity:1;stroke-dasharray:none" />
      <path
         sodipodi:nodetypes="csc"
         id="path5447"
         d="m -608.18028,491.50501 c -1.23628,-3.42492 -2.69643,-6.89471 -1.3525,-8.75029 1.75203,-2.41902 5.9665,-3.40558 4.0406,2.97345"
         style="fill:#ffff00;stroke:#000000;stroke-width:2;stroke-linecap:butt;stroke-linejoin:miter;stroke-miterlimit:4;stroke-opacity:1;stroke-dasharray:none" />
    </g>
  </g>
  <image
     transform="scale(-1,1)"
     xlink:href="file:///tmp/ocal-39YR4U-jean_victor_balin_starplose.png"
     width="47.528675"
     height="33.230682"
     id="image4846"
     x="-135.64899"
     y="1.3959944"
     inkscape:export-filename="/home/filips/svn/geokrety/templates/logo/logo-sylwestra.png"
     inkscape:export-xdpi="123.15776"
     inkscape:export-ydpi="123.15776" />
  <image
     y="1.3959944"
     x="-135.64899"
     id="image4848"
     height="33.230682"
     width="47.528675"
     xlink:href="file:///tmp/ocal-39YR4U-jean_victor_balin_starplose.png"
     transform="scale(-1,1)"
     inkscape:export-filename="/home/filips/svn/geokrety/templates/logo/logo-sylwestra.png"
     inkscape:export-xdpi="123.15776"
     inkscape:export-ydpi="123.15776" />
  <path
     sodipodi:type="star"
     style="fill:#ffff00"
     id="path5454"
     sodipodi:sides="5"
     sodipodi:cx="51.695881"
     sodipodi:cy="-15.221726"
     sodipodi:r1="7.7894702"
     sodipodi:r2="3.8947351"
     sodipodi:arg1="0.5485494"
     sodipodi:arg2="1.1768679"
     inkscape:flatsided="false"
     inkscape:rounded="0"
     inkscape:randomized="0"
     d="m 58.342494,-11.159907 -5.15174,-0.465388 -3.303976,3.9800448 -1.149365,-5.0434088 -4.806233,-1.912367 4.441394,-2.65161 0.333561,-5.161953 3.894297,3.404624 5.012385,-1.277895 -2.034586,4.755783 2.764263,4.37217 z"
     transform="translate(-7.0158696,41.725962)"
     inkscape:export-filename="/home/filips/svn/geokrety/templates/logo/logo-sylwestra.png"
     inkscape:export-xdpi="123"
     inkscape:export-ydpi="123" />
  <path
     sodipodi:type="star"
     style="fill:#ffff00"
     id="path5458"
     sodipodi:sides="5"
     sodipodi:cx="97.483665"
     sodipodi:cy="80.784912"
     sodipodi:r1="7.0546317"
     sodipodi:r2="3.5273159"
     sodipodi:arg1="1.4659194"
     sodipodi:arg2="2.0942379"
     inkscape:flatsided="false"
     inkscape:rounded="0"
     inkscape:randomized="0"
     d="m 98.222178,87.800782 -2.50169,-3.960848 -4.681098,-0.184632 2.993925,-3.603218 -1.270943,-4.509043 4.352037,1.733936 3.895611,-2.602109 -0.30422,4.674849 3.67857,2.900851 -4.540057,1.15528 -1.622135,4.394934 z"
     transform="translate(49.8496,-72.374234)"
     inkscape:export-filename="/home/filips/svn/geokrety/templates/logo/logo-sylwestra.png"
     inkscape:export-xdpi="123"
     inkscape:export-ydpi="123" />
  <path
     sodipodi:type="star"
     style="fill:#aa4400"
     id="path5466"
     sodipodi:sides="5"
     sodipodi:cx="88.621511"
     sodipodi:cy="4.3488574"
     sodipodi:r1="6.2882081"
     sodipodi:r2="3.1441041"
     sodipodi:arg1="1.6295521"
     sodipodi:arg2="2.2578707"
     inkscape:flatsided="false"
     inkscape:rounded="0"
     inkscape:randomized="0"
     d="M 88.252257,10.626214 86.627277,6.7795799 82.537286,5.9374841 85.693506,3.2033606 85.23051,-0.94667425 88.806142,1.210179 92.609986,-0.51258781 91.663627,3.5545443 94.477528,6.6398507 90.317015,6.9966233 88.252257,10.626214 z"
     inkscape:export-filename="/home/filips/svn/geokrety/templates/logo/logo-sylwestra.png"
     inkscape:export-xdpi="123"
     inkscape:export-ydpi="123" />
  <path
     sodipodi:type="star"
     style="fill:#ff7f2a"
     id="path5470"
     sodipodi:sides="5"
     sodipodi:cx="149.17954"
     sodipodi:cy="30.196798"
     sodipodi:r1="4.1284109"
     sodipodi:r2="2.0642055"
     sodipodi:arg1="1.3909428"
     sodipodi:arg2="2.0192614"
     inkscape:flatsided="false"
     inkscape:rounded="0"
     inkscape:randomized="0"
     d="m 149.91805,34.258617 -1.63352,-2.201735 -2.7398,0.09745 1.58919,-2.233941 -0.93933,-2.575592 2.61569,0.821085 2.15926,-1.689258 0.0274,2.741398 2.27383,1.531573 -2.59876,0.873193 -0.75396,2.635822 z"
     inkscape:export-filename="/home/filips/svn/geokrety/templates/logo/logo-sylwestra.png"
     inkscape:export-xdpi="123"
     inkscape:export-ydpi="123" />
  <path
     sodipodi:type="star"
     style="fill:#800080"
     id="path5472"
     sodipodi:sides="5"
     sodipodi:cx="81.974898"
     sodipodi:cy="29.458286"
     sodipodi:r1="4.7287879"
     sodipodi:r2="2.364394"
     sodipodi:arg1="0.89605538"
     sodipodi:arg2="1.5243739"
     inkscape:flatsided="false"
     inkscape:rounded="0"
     inkscape:randomized="0"
     d="m 84.92895,33.150849 -2.844329,-1.330716 -2.708706,1.588687 0.38664,-3.116332 -2.347967,-2.085201 3.083286,-0.595282 1.257582,-2.877412 1.518935,2.748426 3.125196,0.306863 -2.144532,2.293904 0.673895,3.067063 z"
     inkscape:export-filename="/home/filips/svn/geokrety/templates/logo/logo-sylwestra.png"
     inkscape:export-xdpi="123"
     inkscape:export-ydpi="123" />
  <path
     sodipodi:type="star"
     style="fill:#800080"
     id="path5474"
     sodipodi:sides="5"
     sodipodi:cx="67.943159"
     sodipodi:cy="3.9796011"
     sodipodi:r1="3.6554508"
     sodipodi:r2="1.8277255"
     sodipodi:arg1="0.78539816"
     sodipodi:arg2="1.4137167"
     inkscape:flatsided="false"
     inkscape:rounded="0"
     inkscape:randomized="0"
     d="M 70.527955,6.5643952 68.22908,5.7848243 66.283621,7.2366317 66.314646,4.8093712 64.332715,3.4077627 66.650764,2.687204 l 0.720559,-2.31804901 1.401608,1.98193081 2.427261,-0.031025 -1.451808,1.9454592 0.779571,2.2988748 z"
     inkscape:export-filename="/home/filips/svn/geokrety/templates/logo/logo-sylwestra.png"
     inkscape:export-xdpi="123"
     inkscape:export-ydpi="123" />
</svg>
