<?xml version="1.0" encoding="UTF-8"?>
<!-- Generator: Adobe Illustrator 19.1.0, SVG Export Plug-In . SVG Version: 6.00 Build 0)  -->
<svg version="1.1" id="Layer_1" xmlns="http://www.w3.org/2000/svg" xmlns:xlink="http://www.w3.org/1999/xlink" x="0px" y="0px" viewBox="0 0 441 123.3" style="enable-background:new 0 0 441 123.3;" xml:space="preserve" data-ember-extension="1">
<style type="text/css">
	.st0{fill-rule:evenodd;clip-rule:evenodd;fill:#A5CC25;}
	.st1{fill-rule:evenodd;clip-rule:evenodd;fill:#FFFFFF;}
	.st2{fill-rule:evenodd;clip-rule:evenodd;fill:#CBEEF5;}
	.st3{fill-rule:evenodd;clip-rule:evenodd;fill:#4F4642;}
	.st4{fill-rule:evenodd;clip-rule:evenodd;fill:#332D2A;}
	.st5{opacity:0.5;fill-rule:evenodd;clip-rule:evenodd;}
	.st6{opacity:0.5;fill-rule:evenodd;clip-rule:evenodd;fill:#5C5E56;}
	.st7{fill-rule:evenodd;clip-rule:evenodd;fill:#ADD628;}
	.st8{fill-rule:evenodd;clip-rule:evenodd;fill:#82A315;}
	.st9{fill-rule:evenodd;clip-rule:evenodd;fill:#402E26;}
	.st10{fill-rule:evenodd;clip-rule:evenodd;fill:#2E211B;}
	.st11{fill-rule:evenodd;clip-rule:evenodd;fill:#BEE735;}
	.st12{fill-rule:evenodd;clip-rule:evenodd;fill:#9ABE2A;}
	.st13{fill-rule:evenodd;clip-rule:evenodd;fill:#AB7130;}
	.st14{fill-rule:evenodd;clip-rule:evenodd;fill:#936126;}
	.st15{fill-rule:evenodd;clip-rule:evenodd;fill:#754B1C;}
</style>
<path class="st0" d="M11.7,99.9h417.6c6.4,0,11.7,5.3,11.7,11.7l0,0c0,6.4-5.3,11.7-11.7,11.7H11.7c-6.4,0-11.7-5.3-11.7-11.7l0,0  C0,105.2,5.3,99.9,11.7,99.9z"/>
<g>
	<polygon class="st1" points="307.4,101.7 365,23.4 422.5,101.7  "/>
	<polygon class="st2" points="365,23.4 422.5,101.7 365,101.7  "/>
	<polygon class="st3" points="307.4,101.7 341.6,55.2 352.4,45.3 356.3,52.1 359.3,47.4 365,56.3 370.6,47.4 373.6,52.1 377.5,45.3    388.3,55.2 422.5,101.7  "/>
	<polygon class="st4" points="365,56.3 370.6,47.4 373.6,52.1 377.5,45.3 388.3,55.2 422.5,101.7 365,101.7  "/>
</g>
<polygon class="st5" points="398.8,69.7 401.7,101.7 422.4,101.8 "/>
<g>
	<polygon class="st1" points="202.3,101.7 266,15 329.7,101.7  "/>
	<polygon class="st2" points="266,15 329.7,101.7 266,101.7  "/>
	<polygon class="st3" points="202.3,101.7 240.1,50.2 252.1,39.2 256.4,46.7 259.7,41.6 266,51.4 272.3,41.6 275.6,46.7 279.9,39.2    291.9,50.2 329.7,101.7  "/>
	<polygon class="st4" points="266,51.4 272.3,41.6 275.6,46.7 279.9,39.2 291.9,50.2 329.7,101.7 266,101.7  "/>
</g>
<polygon class="st6" points="282.2,101.7 281.8,101.3 235.5,56.3 213.5,86.3 210.5,101.7 "/>
<g>
	<polygon class="st1" points="44.3,101.2 112.5,0 180.8,101.2  "/>
	<polygon class="st2" points="112.5,0 180.8,101.2 112.5,101.2  "/>
	<polygon class="st3" points="44.3,101.2 84.9,41.1 97.6,28.3 102.2,37.1 105.8,31 112.5,42.5 119.3,31 122.8,37.1 127.5,28.3    140.2,41.1 180.8,101.2  "/>
	<polygon class="st4" points="112.5,42.5 119.3,31 122.8,37.1 127.5,28.3 140.2,41.1 180.8,101.2 112.5,101.2  "/>
</g>
<polygon class="st5" points="372.7,102 335,64.3 322.1,78.6 "/>
<g>
	<polygon class="st1" points="282.5,101.7 321,49.2 359.6,101.7  "/>
	<polygon class="st2" points="321,49.2 359.6,101.7 321,101.7  "/>
	<polygon class="st3" points="282.5,101.7 305.4,70.5 312.6,63.9 315.2,68.5 317.2,65.3 321,71.3 324.8,65.3 326.9,68.5 329.5,63.9    336.7,70.5 359.6,101.7  "/>
	<polygon class="st4" points="321,71.3 324.8,65.3 326.9,68.5 329.5,63.9 336.7,70.5 359.6,101.7 321,101.7  "/>
</g>
<g>
	<polygon class="st1" points="27.6,101.7 66.2,49.2 104.7,101.7  "/>
	<polygon class="st2" points="66.2,49.2 104.7,101.7 66.2,101.7  "/>
	<polygon class="st3" points="27.6,101.7 50.5,70.5 57.7,63.9 60.3,68.5 62.4,65.3 66.2,71.3 70,65.3 72,68.5 74.6,63.9 81.8,70.5    104.7,101.7  "/>
	<polygon class="st4" points="66.2,71.3 70,65.3 72,68.5 74.6,63.9 81.8,70.5 104.7,101.7 66.2,101.7  "/>
</g>
<g>
	<polygon class="st1" points="158.4,106.7 197,54.2 235.5,106.7  "/>
	<polygon class="st2" points="197,54.2 235.5,106.7 197,106.7  "/>
	<polygon class="st3" points="158.4,106.7 181.3,75.5 188.5,68.9 191.1,73.5 193.2,70.3 197,76.3 200.8,70.3 202.8,73.5 205.4,68.9    212.6,75.5 235.5,106.7  "/>
	<polygon class="st4" points="197,76.3 200.8,70.3 202.8,73.5 205.4,68.9 212.6,75.5 235.5,106.7 197,106.7  "/>
</g>
<g>
	<path class="st7" d="M322.5,74.9c27.7,0.1,42.8,27,66.2,27.9H250.8C274.2,100.4,294.8,74.8,322.5,74.9z"/>
	<path class="st8" d="M322.5,74.9c27.7,0.1,42.8,27,66.2,27.9h-68.9V75C320.6,74.9,321.6,74.9,322.5,74.9z"/>
</g>
<g>
	<path class="st7" d="M245.5,74.9c27.7,0.1,42.8,27,66.2,27.9H173.8C197.2,100.4,217.8,74.8,245.5,74.9z"/>
	<path class="st8" d="M245.5,74.9c27.7,0.1,42.8,27,66.2,27.9h-68.9V75C243.6,74.9,244.5,74.9,245.5,74.9z"/>
</g>
<g>
	<path class="st7" d="M86,81.8c26.2,0.1,40.5,25.6,62.7,26.5H18.1C40.3,106,59.7,81.7,86,81.8z"/>
	<path class="st8" d="M86,81.8c26.2,0.1,40.5,25.6,62.7,26.5H83.4V81.9C84.2,81.9,85.1,81.8,86,81.8z"/>
</g>
<g>
	<path class="st7" d="M177.2,81.8c26.2,0.1,40.5,25.6,62.7,26.5H109.4C131.6,106,151,81.7,177.2,81.8z"/>
	<path class="st8" d="M177.2,81.8c26.2,0.1,40.5,25.6,62.7,26.5h-65.3V81.9C175.5,81.9,176.4,81.8,177.2,81.8z"/>
</g>
<g>
	<g>
		<rect x="325.8" y="85.2" class="st9" width="1.8" height="11.1"/>
		<rect x="326.7" y="85.2" class="st10" width="0.9" height="11.1"/>
	</g>
	<g>
		<path class="st11" d="M326.7,87.5c3.9,0,7-3.8,7-8.5c0-4.7-3.2-8.5-7-8.5c-3.9,0-7,3.8-7,8.5C319.7,83.7,322.8,87.5,326.7,87.5z"/>
		<path class="st12" d="M326.7,70.5c3.9,0,7,3.8,7,8.5c0,4.7-3.1,8.5-7,8.5V70.5z"/>
	</g>
</g>
<g>
	<g>
		<rect x="413.2" y="104.4" class="st9" width="2.1" height="7.6"/>
		<rect x="414.3" y="104.4" class="st10" width="1.1" height="7.6"/>
	</g>
	<g>
		<polygon class="st11" points="405,105.9 414.3,87.1 423.6,105.9   "/>
		<polygon class="st12" points="414.3,87.1 423.6,105.9 414.3,105.9   "/>
	</g>
	<g>
		<polygon class="st11" points="405.4,97.7 414.3,86.2 423.3,97.7   "/>
		<polygon class="st12" points="414.3,86.2 423.3,97.7 414.3,97.7   "/>
	</g>
	<g>
		<polygon class="st11" points="407.8,90.8 414.3,82.4 420.9,90.8   "/>
		<polygon class="st12" points="414.3,82.4 420.9,90.8 414.3,90.8   "/>
	</g>
</g>
<g>
	<path class="st1" d="M45.2,7.6c0.7-2.9,3.9-5,7.6-5s6.9,2.2,7.6,5c1.1-0.5,2.5-0.8,3.9-0.8c3.9,0,7.1,2.3,7.7,5.3   c3,0.7,5.1,3,5.1,5.6v0c0,3.2-3.2,5.8-7.2,5.8H35.7c-3.9,0-7.2-2.6-7.2-5.8v0c0-2.6,2.2-4.9,5.1-5.6c0.6-3,3.8-5.3,7.7-5.3   C42.7,6.8,44.1,7.1,45.2,7.6z"/>
	<path class="st2" d="M52.8,2.6c3.7,0,6.9,2.2,7.6,5c1.1-0.5,2.5-0.8,3.9-0.8c3.9,0,7.1,2.3,7.7,5.3c3,0.7,5.1,3,5.1,5.6v0   c0,3.2-3.2,5.8-7.2,5.8H52.8V2.6z"/>
</g>
<g>
	<path class="st1" d="M210.6,22.5c0.7-3.2,3.5-5.6,6.8-5.6c3.4,0,6.2,2.4,6.8,5.6c1-0.6,2.2-0.9,3.5-0.9c3.5,0,6.4,2.5,6.9,5.9   c2.7,0.8,4.6,3.3,4.6,6.2v0c0,3.5-2.9,6.4-6.4,6.4H202c-3.5,0-6.4-2.9-6.4-6.4v0c0-2.9,2-5.4,4.6-6.2c0.5-3.3,3.4-5.9,6.9-5.9   C208.3,21.6,209.5,21.9,210.6,22.5z"/>
	<path class="st2" d="M217.4,16.9c3.4,0,6.2,2.4,6.8,5.6c1-0.6,2.2-0.9,3.5-0.9c3.5,0,6.4,2.5,6.9,5.9c2.7,0.8,4.6,3.3,4.6,6.2v0   c0,3.5-2.9,6.4-6.4,6.4h-15.4V16.9z"/>
</g>
<g>
	<path class="st1" d="M326.4,5.5c0.6-2.9,3.1-5,6.1-5c3,0,5.6,2.1,6.1,5c0.9-0.5,2-0.8,3.1-0.8c3.1,0,5.7,2.3,6.2,5.3   c2.4,0.7,4.2,2.9,4.2,5.6v0c0,3.2-2.6,5.8-5.8,5.8h-27.7c-3.2,0-5.8-2.6-5.8-5.8v0c0-2.6,1.8-4.9,4.2-5.6c0.5-3,3.1-5.3,6.2-5.3   C324.4,4.7,325.5,5,326.4,5.5z"/>
	<path class="st2" d="M332.6,0.5c3,0,5.6,2.1,6.1,5c0.9-0.5,2-0.8,3.1-0.8c3.1,0,5.7,2.3,6.2,5.3c2.4,0.7,4.2,2.9,4.2,5.6l0,0   c0,3.2-2.6,5.8-5.8,5.8h-13.8V0.5z"/>
</g>
<polygon class="st6" points="316.4,110.8 292.1,86.3 266.3,110.8 "/>
<polygon class="st6" points="380.4,115.1 378.5,110.1 356.1,87.5 356.3,115.1 "/>
<g>
	<g>
		<rect x="355" y="108.8" class="st9" width="2" height="7.4"/>
		<rect x="356.1" y="108.8" class="st10" width="1" height="7.4"/>
	</g>
	<g>
		<polygon class="st11" points="347.1,110.2 356.1,92.1 365,110.2   "/>
		<polygon class="st12" points="356.1,92.1 365,110.2 356.1,110.2   "/>
	</g>
	<g>
		<polygon class="st11" points="347.4,102.3 356.1,91.2 364.7,102.3   "/>
		<polygon class="st12" points="356.1,91.2 364.7,102.3 356.1,102.3   "/>
	</g>
	<g>
		<polygon class="st11" points="349.7,95.6 356.1,87.5 362.4,95.6   "/>
		<polygon class="st12" points="356.1,87.5 362.4,95.6 356.1,95.6   "/>
	</g>
</g>
<g>
	<path class="st0" d="M391.6,97.4c16.7,0.1,25.7,18.7,39.8,19.3h-83C362.6,115.1,375,97.3,391.6,97.4z"/>
	<path class="st8" d="M391.6,97.4c16.7,0.1,25.7,18.7,39.8,19.3H390V97.4C390.5,97.4,391.1,97.4,391.6,97.4z"/>
</g>
<polygon class="st6" points="121.9,108.3 121.7,108.1 92.3,78.7 91.4,108.3 "/>
<g>
	<g>
		<rect x="90.2" y="98.8" class="st9" width="2.6" height="9.5"/>
		<rect x="91.5" y="98.8" class="st10" width="1.3" height="9.5"/>
	</g>
	<g>
		<polygon class="st11" points="79.9,100.6 91.5,77.2 103.1,100.6   "/>
		<polygon class="st12" points="91.5,77.2 103.1,100.6 91.5,100.6   "/>
	</g>
	<g>
		<polygon class="st11" points="80.3,90.4 91.5,76.1 102.6,90.4   "/>
		<polygon class="st12" points="91.5,76.1 102.6,90.4 91.5,90.4   "/>
	</g>
	<g>
		<polygon class="st11" points="83.3,81.8 91.5,71.3 99.6,81.8   "/>
		<polygon class="st12" points="91.5,71.3 99.6,81.8 91.5,81.8   "/>
	</g>
</g>
<g>
	<g>
		<rect x="293.4" y="108.9" class="st9" width="1.8" height="6.4"/>
		<rect x="294.3" y="108.9" class="st10" width="0.9" height="6.4"/>
	</g>
	<g>
		<polygon class="st11" points="286.5,110.1 294.3,94.5 302.1,110.1   "/>
		<polygon class="st12" points="294.3,94.5 302.1,110.1 294.3,110.1   "/>
	</g>
	<g>
		<polygon class="st11" points="286.8,103.3 294.3,93.7 301.8,103.3   "/>
		<polygon class="st12" points="294.3,93.7 301.8,103.3 294.3,103.3   "/>
	</g>
	<g>
		<polygon class="st11" points="288.8,97.5 294.3,90.5 299.8,97.5   "/>
		<polygon class="st12" points="294.3,90.5 299.8,97.5 294.3,97.5   "/>
	</g>
</g>
<g>
	<rect x="57.4" y="106.8" class="st9" width="3.1" height="12.6"/>
	<rect x="59" y="106.8" class="st10" width="1.5" height="12.6"/>
	<path class="st11" d="M59,110.7c4.9,0,9-6.4,9-14.2c0-7.8-4-14.2-9-14.2s-9,6.4-9,14.2C50,104.3,54,110.7,59,110.7z"/>
	<path class="st12" d="M59,82.3c5,0,9,6.4,9,14.2c0,7.8-4,14.2-9,14.2V82.3z"/>
</g>
<polygon class="st6" points="136.9,110.7 121.2,95 121.4,110.7 "/>
<g>
	<g>
		<rect x="120.6" y="109.6" class="st9" width="1.4" height="5.1"/>
		<rect x="121.3" y="109.6" class="st10" width="0.7" height="5.1"/>
	</g>
	<g>
		<polygon class="st11" points="115.1,110.6 121.3,98.1 127.5,110.6   "/>
		<polygon class="st12" points="121.3,98.1 127.5,110.6 121.3,110.6   "/>
	</g>
	<g>
		<polygon class="st11" points="115.3,105.2 121.3,97.5 127.2,105.2   "/>
		<polygon class="st12" points="121.3,97.5 127.2,105.2 121.3,105.2   "/>
	</g>
	<g>
		<polygon class="st11" points="116.9,100.6 121.3,95 125.6,100.6   "/>
		<polygon class="st12" points="121.3,95 125.6,100.6 121.3,100.6   "/>
	</g>
</g>
<polygon class="st6" points="43.6,108.3 43.5,108.1 15.8,81.2 14.9,108.3 "/>
<g>
	<g>
		<rect x="13.7" y="100.7" class="st9" width="2.1" height="7.6"/>
		<rect x="14.8" y="100.7" class="st10" width="1.1" height="7.6"/>
	</g>
	<g>
		<polygon class="st11" points="5.5,102.1 14.8,83.4 24,102.1   "/>
		<polygon class="st12" points="14.8,83.4 24,102.1 14.8,102.1   "/>
	</g>
	<g>
		<polygon class="st11" points="5.9,94 14.8,82.6 23.7,94   "/>
		<polygon class="st12" points="14.8,82.6 23.7,94 14.8,94   "/>
	</g>
	<g>
		<polygon class="st11" points="8.2,87.1 14.8,78.7 21.3,87.1   "/>
		<polygon class="st12" points="14.8,78.7 21.3,87.1 14.8,87.1   "/>
	</g>
</g>
<g>
	<path class="st13" d="M40.3,119.2c0,0,0.2-1.8,0.6-1.8c0.4-0.1,2.4-1.1,2.4-1.1l1.2-3l7.9-2.4l1.8,2.3l0.5,2.1l1.9,0.8l2.3,3.5   L40.3,119.2z"/>
	<polygon class="st14" points="49.5,111.7 52.3,110.8 54.1,113.1 54.6,115.2 56.5,116 58.8,119.5 49.5,119.3  "/>
</g>
<g>
	<path class="st14" d="M60.6,119.3c0,0,0.2-1.2,0.6-1.2c0.5,0,2.5-0.8,2.5-0.8l1.2-2.1l8.2-1.6l1.8,1.6l0.5,1.4l2,0.5l2.4,2.4   L60.6,119.3z"/>
	<polygon class="st15" points="70.3,114.2 73.1,113.6 75,115.2 75.5,116.6 77.5,117.1 79.9,119.5 70.3,119.4  "/>
</g>
<g>
	<path class="st14" d="M290.9,117.3c0,0,0.1-1.2,0.5-1.2c0.4,0,2.2-0.8,2.2-0.8l1.1-2.1l7.2-1.6l1.6,1.6l0.5,1.4l1.7,0.5l2.1,2.4   L290.9,117.3z"/>
	<polygon class="st15" points="299.4,112.2 301.9,111.6 303.5,113.2 304,114.6 305.7,115.1 307.8,117.5 299.4,117.4  "/>
</g>
<g>
	<path class="st14" d="M330,110.7c0,0,0.1-1.2,0.5-1.2c0.4,0,2.2-0.8,2.2-0.8l1.1-2.1l7.2-1.6l1.6,1.6l0.5,1.4l1.7,0.5l2.1,2.4   L330,110.7z"/>
	<polygon class="st15" points="338.5,105.6 341,105.1 342.6,106.6 343.1,108 344.8,108.6 347,110.9 338.5,110.8  "/>
</g>
</svg>