<?xml version="1.0" encoding="UTF-8"?>
<!-- Generator: Adobe Illustrator 19.1.0, SVG Export Plug-In . SVG Version: 6.00 Build 0)  -->
<svg version="1.1" id="Layer_1" xmlns="http://www.w3.org/2000/svg" xmlns:xlink="http://www.w3.org/1999/xlink" x="0px" y="0px" viewBox="0 0 49.6 49.6" style="enable-background:new 0 0 49.6 49.6;" xml:space="preserve" data-ember-extension="1">
<style type="text/css">
	.st0{fill-rule:evenodd;clip-rule:evenodd;fill:#FFE291;}
	.st1{fill-rule:evenodd;clip-rule:evenodd;fill:#FFD45E;}
</style>
<g>
	<g>
		<path class="st0" d="M24.8,41.5c9.2,0,16.7-7.5,16.7-16.7c0-9.2-7.5-16.7-16.7-16.7c-9.2,0-16.7,7.5-16.7,16.7    C8.1,34,15.6,41.5,24.8,41.5z"/>
		<g>
			<polygon class="st0" points="29.5,7.3 24.8,0 20.1,7.3    "/>
			<polygon class="st0" points="29.5,42.3 24.8,49.6 20.1,42.3    "/>
		</g>
		<g>
			<polygon class="st0" points="7.3,20.1 0,24.8 7.3,29.5    "/>
			<polygon class="st0" points="42.3,20.1 49.6,24.8 42.3,29.5    "/>
		</g>
		<g>
			<polygon class="st0" points="9.1,33.9 7.3,42.4 15.8,40.5    "/>
			<polygon class="st0" points="33.9,9.1 42.4,7.3 40.5,15.8    "/>
		</g>
		<g>
			<polygon class="st0" points="15.8,9.1 7.3,7.3 9.1,15.8    "/>
			<polygon class="st0" points="40.5,33.9 42.4,42.4 33.9,40.5    "/>
		</g>
	</g>
	<g>
		<path class="st1" d="M24.8,8.1c9.2,0,16.7,7.5,16.7,16.7c0,9.2-7.5,16.7-16.7,16.7V8.1z"/>
		<g>
			<polygon class="st1" points="29.5,7.3 24.8,0 24.8,7.3    "/>
			<polygon class="st1" points="29.5,42.3 24.8,49.6 24.8,42.3    "/>
		</g>
		<polygon class="st1" points="42.3,20.1 49.6,24.8 42.3,29.5   "/>
		<polygon class="st1" points="33.9,9.1 42.4,7.3 40.5,15.8   "/>
		<polygon class="st1" points="40.5,33.9 42.4,42.4 33.9,40.5   "/>
	</g>
</g>
</svg>