<?xml version="1.0" encoding="UTF-8" standalone="no"?><!--Created with Inkscape (http://www.inkscape.org/)--><svg width="390.22" height="391.697" viewBox="0 0 103.246 103.636" inkscape:version="1.1.2 (0a00cf5339, 2022-02-04)" sodipodi:docname="plane.svg" xmlns:inkscape="http://www.inkscape.org/namespaces/inkscape" xmlns:sodipodi="http://sodipodi.sourceforge.net/DTD/sodipodi-0.dtd" xmlns="http://www.w3.org/2000/svg"><sodipodi:namedview pagecolor="#ffffff" bordercolor="#666666" borderopacity="1" inkscape:pageshadow="2" inkscape:pageopacity="0" inkscape:pagecheckerboard="0" inkscape:document-units="mm" showgrid="false" fit-margin-top="0" fit-margin-left="0" fit-margin-right="0" fit-margin-bottom="0" inkscape:zoom="2.201" inkscape:cx="262.438" inkscape:cy="186.093" inkscape:window-width="2490" inkscape:window-height="1376" inkscape:window-x="2560" inkscape:window-y="27" inkscape:window-maximized="1" inkscape:current-layer="g1358"/><g style="fill:#020202;fill-opacity:1;stroke:none" inkscape:label="Layer 1" inkscape:groupmode="layer"><path style="fill:#020202;fill-opacity:1;stroke:none;stroke-width:0.264583" d="M33.396 103.017c-.265-.34-2.744-4.223-5.509-8.628-2.765-4.404-5.297-8.19-5.628-8.41-.552-.37-.725-.347-2.15.293-.85.382-1.802.695-2.11.695-.682 0-1.622-.884-1.619-1.522.002-.254.3-1.1.662-1.878.362-.778.66-1.62.66-1.872 0-.25-.269-.698-.597-.994-.327-.295-3.63-2.467-7.342-4.827-3.71-2.36-7.402-4.73-8.202-5.267C.736 70.054.073 69.4.03 69.098c-.054-.376.69-1.285 2.543-3.106C4.54 64.06 5.363 63.42 5.884 63.42c.381 0 4.935 1.2 10.12 2.667 5.703 1.614 9.666 2.607 10.031 2.516.358-.09 1.554-1.365 2.937-3.13 3.001-3.833 6.69-8.239 11.416-13.636 2.074-2.37 3.77-4.416 3.77-4.55 0-.133-.267-.53-.594-.883-.328-.353-3.156-2.468-6.284-4.699-12.734-9.08-30.332-21.778-30.89-22.286-.328-.298-.596-.66-.596-.807 0-.147 1.87-2.15 4.157-4.452 2.287-2.303 4.37-4.186 4.63-4.186.438 0 15.733 6.318 36.23 14.965 4.605 1.942 8.683 3.61 9.062 3.705.38.095 1.007.093 1.395-.004.42-.106 2.9-2.327 6.16-5.519 3-2.938 6.821-6.547 8.49-8.019C80.112 11.4 85.835 6.853 89.09 4.637c1.502-1.023 3.704-2.315 4.895-2.873 1.19-.557 2.963-1.214 3.938-1.458 1.544-.388 1.917-.399 2.887-.085 2.03.655 2.81 2.535 2.215 5.331-.193.904-.616 2.238-.94 2.966-1.439 3.218-5.655 9.236-10.007 14.284-2.79 3.236-8.044 8.877-13.59 14.59-3.129 3.224-4.167 4.46-4.167 4.957 0 .364 3.404 8.796 7.564 18.738 4.16 9.94 8.386 20.002 9.392 22.357 1.007 2.355 1.83 4.61 1.83 5.008 0 .581-.799 1.53-4.024 4.78-2.248 2.264-4.236 4.054-4.504 4.054-.299 0-1.08-.829-2.057-2.183-.867-1.2-5.888-8.136-11.158-15.412-5.27-7.276-10.7-14.777-12.066-16.669-1.367-1.892-2.66-3.538-2.873-3.66-.237-.133-.614-.068-.97.168-.319.212-1.77 1.434-3.226 2.715-3.626 3.192-11.026 9.333-14.587 12.106-1.62 1.262-3.012 2.55-3.094 2.86-.085.326 1.031 4.705 2.632 10.324 1.87 6.568 2.718 9.95 2.592 10.346-.102.323-1.372 1.75-2.82 3.171-1.45 1.421-2.734 2.584-2.854 2.584-.12 0-.436-.279-.702-.62z"/></g></svg>