<?xml version="1.0" encoding="UTF-8" standalone="no"?>
<!-- Created with Inkscape (http://www.inkscape.org/) -->
<svg
   xmlns:dc="http://purl.org/dc/elements/1.1/"
   xmlns:cc="http://creativecommons.org/ns#"
   xmlns:rdf="http://www.w3.org/1999/02/22-rdf-syntax-ns#"
   xmlns:svg="http://www.w3.org/2000/svg"
   xmlns="http://www.w3.org/2000/svg"
   xmlns:sodipodi="http://sodipodi.sourceforge.net/DTD/sodipodi-0.dtd"
   xmlns:inkscape="http://www.inkscape.org/namespaces/inkscape"
   version="1.0"
   width="197.98587"
   height="34.258617"
   id="svg2"
   sodipodi:version="0.32"
   inkscape:version="0.46"
   sodipodi:docname="logo.svg"
   inkscape:output_extension="org.inkscape.output.svg.inkscape">
  <metadata
     id="metadata32">
    <rdf:RDF>
      <cc:Work
         rdf:about="">
        <dc:format>image/svg+xml</dc:format>
        <dc:type
           rdf:resource="http://purl.org/dc/dcmitype/StillImage" />
      </cc:Work>
    </rdf:RDF>
  </metadata>
  <sodipodi:namedview
     inkscape:window-height="977"
     inkscape:window-width="1280"
     inkscape:pageshadow="2"
     inkscape:pageopacity="0.0"
     guidetolerance="10.0"
     gridtolerance="10.0"
     objecttolerance="10.0"
     borderopacity="1.0"
     bordercolor="#666666"
     pagecolor="#ffffff"
     id="base"
     showgrid="false"
     inkscape:zoom="2.7476708"
     inkscape:cx="45.493077"
     inkscape:cy="17.129309"
     inkscape:window-x="-4"
     inkscape:window-y="-4"
     inkscape:current-layer="svg2" />
  <defs
     id="defs4">
    <inkscape:perspective
       sodipodi:type="inkscape:persp3d"
       inkscape:vp_x="0 : 17.129309 : 1"
       inkscape:vp_y="0 : 1000 : 0"
       inkscape:vp_z="197.98587 : 17.129309 : 1"
       inkscape:persp3d-origin="98.992935 : 11.419539 : 1"
       id="perspective34" />
  </defs>
  <g
     transform="matrix(0.7309384,0,0,0.7477357,-1.6390525,-1.7290094)"
     id="g2802">
    <polygon
       points="151.143,106.696 151.073,106.766 151.143,106.696 "
       transform="matrix(0.603395,-6.0847932e-2,5.4738541e-2,0.6707402,-28.205989,-33.161509)"
       id="polygon3452"
       style="fill:#ffffff;fill-rule:nonzero;stroke-linecap:round;stroke-linejoin:round" />
    <polygon
       points="151.955,106.908 152.06,107.049 151.955,106.908 "
       transform="matrix(0.603395,-6.0847932e-2,5.4738541e-2,0.6707402,-28.205989,-33.161509)"
       id="polygon3454"
       style="fill:#ffffff;fill-rule:nonzero;stroke-linecap:round;stroke-linejoin:round" />
    <polygon
       points="147.686,117.844 147.545,117.914 147.686,117.844 "
       transform="matrix(0.603395,-6.0847932e-2,5.4738541e-2,0.6707402,-28.205989,-33.161509)"
       id="polygon3482"
       style="fill:#ffffff;fill-rule:nonzero;stroke-linecap:round;stroke-linejoin:round" />
    <path
       d="M 45.247249,23.852843 C 49.990641,27.769439 66.154068,39.15387 67.586608,41.98419 C 68.661687,44.108258 66.283065,48.117075 64.455591,47.338024 C 60.527516,45.66349 62.290165,43.550038 45.751904,29.661349"
       id="path4963"
       style="fill:#cdcdcd;fill-opacity:1;fill-rule:evenodd;stroke:#0c0c0c;stroke-width:0.99375677;stroke-linecap:round;stroke-linejoin:round;stroke-miterlimit:4;stroke-dasharray:none;stroke-opacity:1" />
    <path
       d="M 45.851242,40.212966 C 46.657756,39.756458 50.183628,39.052333 50.924996,37.986224 C 51.666189,36.920367 51.150596,35.629464 51.488666,34.732269 C 52.355378,35.431643 53.83462,35.815988 54.335878,35.575244 C 54.805843,35.349529 55.864566,33.411669 55.873138,32.65022 C 55.881711,31.888766 55.167022,31.3071 54.717261,31.025389 C 56.56511,29.740316 57.738722,29.75537 59.055916,30.091511 C 60.373109,30.427653 59.994002,31.272238 60.727784,31.771133 C 61.443628,32.257832 62.018671,32.007272 62.481231,32.479527 C 62.943791,32.951783 63.013933,33.752267 63.519312,34.369903 C 64.037024,35.002612 64.423035,34.708963 64.993491,35.495584 C 65.563949,36.282205 65.37943,36.724657 65.752067,37.598222 C 66.124704,38.47179 67.095004,38.05729 66.053443,40.2124 C 65.043345,42.302403 63.831393,43.411094 62.996579,44.111642 C 62.140914,44.82969 60.178169,45.467793 59.744594,45.029147 C 59.227451,44.505951 59.450204,44.54882 59.601362,44.037805 C 59.182896,44.227396 58.962168,44.451491 58.166575,44.598716 C 57.370983,44.74594 57.19387,44.495818 56.86681,44.033028 C 56.53975,43.570238 57.272462,42.504811 56.858334,42.747561 C 56.444207,42.990311 56.488573,44.124767 55.210298,45.004028 C 53.932023,45.883286 51.934186,46.912159 50.331045,47.207813 C 48.727904,47.503468 47.713042,46.336237 46.976167,46.316748"
       id="path4965"
       style="fill:#c2c2c2;fill-opacity:1;fill-rule:evenodd;stroke:#0c0c0c;stroke-width:0.99375677;stroke-linecap:round;stroke-linejoin:round;stroke-miterlimit:4;stroke-dasharray:none;stroke-opacity:1" />
    <path
       d="M 52.543928,38.555107 C 54.720569,40.860426 58.142609,44.255859 60.90053,43.921295 C 62.183991,43.765926 59.874261,38.7099 58.052167,36.742145 C 56.230073,34.774391 53.777925,35.915671 53.10848,36.376149"
       id="path7908"
       style="fill:none;fill-opacity:0.75;fill-rule:evenodd;stroke:#0c0c0c;stroke-width:0.99375677;stroke-linecap:round;stroke-linejoin:round;stroke-miterlimit:4;stroke-dasharray:none;stroke-opacity:1" />
    <path
       d="M 58.2243,36.685489 C 58.700073,36.506018 59.640489,35.298691 59.828157,33.380012"
       id="path7910"
       style="fill:none;fill-opacity:0.75;fill-rule:evenodd;stroke:#0c0c0c;stroke-width:0.99375677;stroke-linecap:round;stroke-linejoin:round;stroke-miterlimit:4;stroke-dasharray:none;stroke-opacity:1" />
    <path
       d="M 60.350256,39.987919 C 61.287743,38.813944 62.351662,37.306319 62.548622,35.962681"
       id="path7912"
       style="fill:none;fill-opacity:0.75;fill-rule:evenodd;stroke:#0c0c0c;stroke-width:0.99375677;stroke-linecap:round;stroke-linejoin:round;stroke-miterlimit:4;stroke-dasharray:none;stroke-opacity:1" />
    <path
       d="M 61.375577,43.244645 C 62.946234,42.025999 64.028219,40.568495 64.527645,39.02196"
       id="path7914"
       style="fill:none;fill-opacity:0.75;fill-rule:evenodd;stroke:#0c0c0c;stroke-width:0.99375677;stroke-linecap:round;stroke-linejoin:round;stroke-miterlimit:4;stroke-dasharray:none;stroke-opacity:1" />
    <g
       transform="matrix(0.2353295,1.3832325e-2,-1.2443501e-2,0.2615947,-20.558648,-247.26541)"
       id="g23226">
      <path
         d="M 291.29335,966.00527 L 252.61617,1040.1833 L 205.71775,1025.7961 L 150.41126,971.7975 L 223.09446,944.14426 L 291.29335,966.00527 z"
         id="path17385"
         style="opacity:1;fill:#7d7d7d;fill-opacity:1;fill-rule:evenodd;stroke:#0c0c0c;stroke-width:4;stroke-linecap:butt;stroke-linejoin:round;stroke-miterlimit:4;stroke-dasharray:none;stroke-opacity:1" />
      <path
         d="M 205.71775,1025.7961 L 150.41126,971.79749 L 223.09446,944.14425 L 245.42215,951.6338 L 177.66932,977.12969 L 226.97716,1032.1482 L 205.71775,1025.7961 z"
         id="path19326"
         style="opacity:1;fill:#d1d1d1;fill-opacity:1;fill-rule:evenodd;stroke:#0c0c0c;stroke-width:4;stroke-linecap:butt;stroke-linejoin:round;stroke-miterlimit:4;stroke-dasharray:none;stroke-opacity:1" />
      <path
         d="M 288.17968,1000.584 L 278.98243,1020.2322 C 263.77968,1010.4249 217.31948,992.73682 226.58677,983.76771 C 235.999,974.65833 265.00274,987.54157 288.17968,1000.584 z"
         id="path20297"
         style="fill:#7d7d7d;fill-opacity:1;fill-rule:evenodd;stroke:#0c0c0c;stroke-width:4;stroke-linecap:butt;stroke-linejoin:round;stroke-miterlimit:4;stroke-dasharray:none;stroke-opacity:1" />
    </g>
    <path
       d="M 50.20765,31.741912 C 49.593894,33.695637 49.130588,41.669992 51.375344,47.637497 C 33.013922,46.958472 31.945239,39.485259 18.202299,36.18541 C 20.096484,31.204406 22.539259,28.581804 26.537105,25.036964 C 28.323428,23.453053 30.50862,20.500993 32.247571,18.598455 C 33.986521,16.695917 35.44034,15.34878 37.460826,14.401277 C 41.185492,12.654604 46.46377,13.092161 49.687175,16.301772 C 48.731159,16.554616 46.416062,16.262216 46.433871,18.143875 C 46.602864,20.268215 45.092502,21.236891 43.766622,22.366201 C 42.903437,23.36021 43.398402,24.890476 42.120088,25.462806 C 42.060011,27.164814 42.654221,28.807566 43.523673,30.316954 C 44.431459,31.89288 45.374903,32.907819 46.663741,33.838091 C 47.95258,34.768391 49.388202,32.811574 50.20765,31.741912 z"
       id="path13486"
       style="fill:#696969;fill-opacity:1;fill-rule:evenodd;stroke:#0c0c0c;stroke-width:0.99384558;stroke-linecap:butt;stroke-linejoin:round;stroke-miterlimit:4;stroke-dasharray:none;stroke-opacity:1" />
    <path
       d="M 50.123954,31.629086 C 49.040814,32.933858 47.868883,34.655564 46.580045,33.725265 C 45.291206,32.794992 44.347763,31.780054 43.439976,30.204128 C 42.570525,28.69474 41.976315,27.051987 42.036392,25.34998 C 43.314706,24.77765 42.819741,23.247383 43.682926,22.253375 C 45.008805,21.124065 46.519167,20.155389 46.350174,18.031049 C 46.332366,16.149364 49.021198,16.463716 49.665749,16.500416 C 50.341355,16.538898 54.062736,17.075104 55.28305,16.997433 C 56.127569,16.33153 57.035968,15.223439 57.589564,14.840506 C 58.12874,14.467553 58.844677,13.535158 59.525815,13.809666 C 61.653486,13.965218 61.138073,16.665163 61.022565,18.439865 C 60.71635,20.762115 57.900597,21.391055 55.103959,23.685014 C 53.031083,25.435929 53.212373,25.579798 51.967371,27.565822 C 50.72237,29.551847 51.207093,30.324315 50.123954,31.629086 z"
       id="path16414"
       style="fill:#c2c2c2;fill-opacity:1;fill-rule:evenodd;stroke:#0c0c0c;stroke-width:0.99384558;stroke-linecap:butt;stroke-linejoin:round;stroke-miterlimit:4;stroke-dasharray:none;stroke-opacity:1" />
    <path
       d="M 59.09444,16.493893 C 59.138077,17.682014 58.749936,18.474155 58.131392,18.768782"
       id="path26307"
       style="fill:none;fill-opacity:0.75;fill-rule:evenodd;stroke:#0c0c0c;stroke-width:1.24230695;stroke-linecap:round;stroke-linejoin:miter;stroke-miterlimit:4;stroke-dasharray:none;stroke-opacity:1" />
    <path
       d="M 48.395749,26.943143 C 48.765285,26.929495 50.738211,25.959456 51.004104,25.810375 C 50.366262,27.041614 49.873293,27.30161 49.215552,28.892284 C 48.925773,29.77027 48.407339,30.925802 47.556023,31.50979 C 46.295631,30.487176 46.186449,28.48973 45.60416,26.982804 C 44.016705,25.851372 42.946791,23.913312 41.501115,24.205738 C 41.157466,23.322775 41.686543,22.625595 41.702933,21.812575 C 42.366146,25.630068 46.532277,26.987964 48.395749,26.943143 z"
       id="path27278"
       style="fill:#0c0c0c;fill-rule:nonzero;stroke:#0c0c0c;stroke-width:0.99384558;stroke-linecap:round;stroke-linejoin:round;stroke-miterlimit:4;stroke-dasharray:none;stroke-opacity:1" />
    <path
       d="M 48.919601,29.276186 C 48.698388,29.485362 47.045081,29.569372 46.655467,29.468387 C 46.502643,29.092107 46.377367,27.964185 46.164732,27.515395 C 46.460766,27.523595 49.208895,27.786891 50.130578,26.883023 C 49.734295,27.327936 48.792463,29.326142 48.919601,29.276186 L 48.919601,29.276186 z"
       id="path28251"
       style="fill:#ffffff;fill-rule:nonzero" />
    <path
       d="M 39.601432,19.497921 C 40.790857,19.115171 41.022128,18.422025 42.066671,17.966895 C 43.111214,17.511766 43.115555,17.582547 43.779607,17.677429 C 44.443659,17.772311 44.722879,18.346449 44.722879,18.346449"
       id="path30216"
       style="fill:none;fill-opacity:0.75;fill-rule:evenodd;stroke:#0c0c0c;stroke-width:0.99375677;stroke-linecap:round;stroke-linejoin:round;stroke-miterlimit:4;stroke-dasharray:none;stroke-opacity:1" />
  </g>
  <g
     id="g2490"
     transform="translate(28.751625,73.516812)">
    <rect
       width="61.299881"
       height="26.478128"
       x="64.375893"
       y="-68.511658"
       id="rect3251"
       style="fill:#000000;fill-opacity:1;fill-rule:nonzero;stroke:none;stroke-width:2;stroke-linejoin:round;stroke-miterlimit:4;stroke-dasharray:none;stroke-opacity:1" />
    <path
       id="text2383"
       d="M 31.101862,-50.457391 L 31.101862,-55.024164 L 27.447222,-55.024164 L 27.447222,-56.914648 L 33.316796,-56.914648 L 33.316796,-49.614645 C 32.452958,-48.984483 31.500537,-48.508065 30.459532,-48.185393 C 29.418501,-47.862721 28.307344,-47.701384 27.126057,-47.701383 C 24.54196,-47.701384 22.520836,-48.477697 21.062676,-50.030324 C 19.604509,-51.582947 18.875428,-53.744854 18.875429,-56.516052 C 18.875428,-59.294824 19.604509,-61.460528 21.062676,-63.013169 C 22.520836,-64.565779 24.54196,-65.342091 27.126057,-65.342108 C 28.20398,-65.342091 29.228387,-65.20543 30.199277,-64.932124 C 31.170143,-64.658784 32.065345,-64.256392 32.884884,-63.724947 L 32.884884,-61.276428 C 32.057962,-61.997683 31.179372,-62.540533 30.249113,-62.904978 C 29.318829,-63.269393 28.340568,-63.451608 27.314326,-63.451625 C 25.291346,-63.451608 23.772272,-62.870798 22.7571,-61.70919 C 21.741918,-60.547555 21.234329,-58.81651 21.234333,-56.516052 C 21.234329,-54.223169 21.741918,-52.495921 22.7571,-51.334303 C 23.772272,-50.172678 25.291346,-49.591867 27.314326,-49.591868 C 28.104308,-49.591867 28.809395,-49.662095 29.429588,-49.802555 C 30.049757,-49.94301 30.607182,-50.16129 31.101862,-50.457391 L 31.101862,-50.457391 z M 47.935359,-54.933056 L 47.935359,-53.908095 L 38.566189,-53.908095 C 38.654784,-52.465551 39.077466,-51.366566 39.834239,-50.611135 C 40.591002,-49.855699 41.644941,-49.477982 42.996057,-49.477983 C 43.778658,-49.477982 44.537272,-49.576682 45.271901,-49.774084 C 46.00651,-49.971481 46.735591,-50.267581 47.459148,-50.662383 L 47.459148,-48.680792 C 46.728208,-48.361914 45.978824,-48.11896 45.210991,-47.95193 C 44.443137,-47.784899 43.66422,-47.701384 42.874236,-47.701383 C 40.895556,-47.701384 39.328492,-48.293583 38.173039,-49.477983 C 37.01758,-50.662381 36.439852,-52.264356 36.439853,-54.283913 C 36.439852,-56.371789 36.988047,-58.028809 38.084441,-59.254977 C 39.180829,-60.481122 40.659296,-61.0942 42.519846,-61.094213 C 44.18842,-61.0942 45.50815,-60.541861 46.47904,-59.437192 C 47.449907,-58.332501 47.935346,-56.831124 47.935359,-54.933056 L 47.935359,-54.933056 z M 45.89762,-55.548032 C 45.882843,-56.694463 45.570906,-57.609335 44.96181,-58.292651 C 44.352694,-58.975949 43.54609,-59.317601 42.541996,-59.317613 C 41.40499,-59.317601 40.495022,-58.987337 39.812089,-58.326817 C 39.129148,-57.666277 38.735997,-56.73622 38.632637,-55.536645 L 45.89762,-55.548032 z M 56.086315,-59.317613 C 54.993608,-59.317601 54.129785,-58.879147 53.494842,-58.002246 C 52.859891,-57.125325 52.542418,-55.923844 52.542421,-54.397798 C 52.542418,-52.871739 52.858046,-51.670258 53.489305,-50.793351 C 54.120556,-49.916438 54.986225,-49.477982 56.086315,-49.477983 C 57.171625,-49.477982 58.031756,-49.918335 58.666712,-50.799045 C 59.30165,-51.679749 59.619124,-52.879332 59.619134,-54.397798 C 59.619124,-55.908659 59.30165,-57.106345 58.666712,-57.990858 C 58.031756,-58.87535 57.171625,-59.317601 56.086315,-59.317613 L 56.086315,-59.317613 z M 56.086315,-61.094213 C 57.858253,-61.0942 59.249968,-60.502001 60.261465,-59.317613 C 61.27294,-58.133203 61.778682,-56.493267 61.778694,-54.397798 C 61.778682,-52.30991 61.27294,-50.671871 60.261465,-49.483678 C 59.249968,-48.295481 57.858253,-47.701384 56.086315,-47.701383 C 54.30698,-47.701384 52.913419,-48.295481 51.905627,-49.483678 C 50.897831,-50.671871 50.393934,-52.30991 50.393935,-54.397798 C 50.393934,-56.493267 50.897831,-58.133203 51.905627,-59.317613 C 52.913419,-60.502001 54.30698,-61.0942 56.086315,-61.094213 L 56.086315,-61.094213 z"
       style="font-size:22.94870567px;font-style:normal;font-weight:normal;fill:#000000;fill-opacity:1;stroke:none;stroke-width:1px;stroke-linecap:butt;stroke-linejoin:miter;stroke-opacity:1;font-family:Bitstream Vera Sans" />
    <path
       id="text2479"
       d="M 66.871012,-65.831418 L 68.948649,-65.831418 L 68.948649,-55.510618 L 75.114176,-60.934928 L 77.753336,-60.934928 L 71.082438,-55.050168 L 78.034098,-48.356808 L 75.338786,-48.356808 L 68.948649,-54.499878 L 68.948649,-48.356808 L 66.871012,-48.356808 L 66.871012,-65.831418 z M 87.579996,-59.003288 C 87.347891,-59.138048 87.095206,-59.237248 86.82194,-59.300898 C 86.548657,-59.364528 86.247306,-59.396348 85.917887,-59.396358 C 84.749912,-59.396348 83.853347,-59.016378 83.22819,-58.256468 C 82.603023,-57.496528 82.290442,-56.405298 82.290446,-54.982788 L 82.290446,-48.356808 L 80.212809,-48.356808 L 80.212809,-60.934928 L 82.290446,-60.934928 L 82.290446,-58.980828 C 82.724686,-59.744488 83.289952,-60.311628 83.986246,-60.682248 C 84.682529,-61.052838 85.528557,-61.238138 86.524332,-61.238158 C 86.666576,-61.238138 86.823803,-61.228788 86.996012,-61.210078 C 87.168204,-61.191348 87.359121,-61.163268 87.568766,-61.125848 L 87.579996,-59.003288 z M 100.52873,-55.162468 L 100.52873,-54.151728 L 91.02775,-54.151728 C 91.117591,-52.729198 91.54622,-51.645458 92.313639,-50.900508 C 93.081049,-50.155548 94.149814,-49.783078 95.519938,-49.783078 C 96.313549,-49.783078 97.082835,-49.880408 97.827799,-50.075068 C 98.572743,-50.269728 99.312081,-50.561718 100.04582,-50.951048 L 100.04582,-48.996948 C 99.304594,-48.682488 98.544667,-48.442908 97.766032,-48.278198 C 96.987376,-48.113478 96.197501,-48.031128 95.396403,-48.031128 C 93.389887,-48.031128 91.800777,-48.615108 90.629069,-49.783078 C 89.457355,-50.951038 88.871499,-52.530798 88.8715,-54.522338 C 88.871499,-56.581248 89.427407,-58.215278 90.539225,-59.424438 C 91.651037,-60.633568 93.150303,-61.238138 95.037028,-61.238158 C 96.729076,-61.238138 98.067372,-60.693468 99.05192,-59.604118 C 100.03645,-58.514758 100.52871,-57.034208 100.52873,-55.162468 L 100.52873,-55.162468 z M 98.462321,-55.768918 C 98.447336,-56.899438 98.131011,-57.801618 97.513346,-58.475458 C 96.895661,-59.149278 96.077709,-59.486188 95.059489,-59.486198 C 93.906488,-59.486188 92.983718,-59.160508 92.291178,-58.509148 C 91.598629,-57.857778 91.199947,-56.940618 91.095133,-55.757688 L 98.462321,-55.768918 z M 105.96427,-64.506218 L 105.96427,-60.934928 L 110.22062,-60.934928 L 110.22062,-59.328978 L 105.96427,-59.328978 L 105.96427,-52.500848 C 105.96427,-51.475128 106.10465,-50.816278 106.38542,-50.524288 C 106.66617,-50.232298 107.23705,-50.086298 108.09806,-50.086298 L 110.22062,-50.086298 L 110.22062,-48.356808 L 108.09806,-48.356808 C 106.50333,-48.356808 105.40275,-48.654418 104.7963,-49.249628 C 104.18986,-49.844838 103.88663,-50.928578 103.88664,-52.500848 L 103.88664,-59.328978 L 102.37052,-59.328978 L 102.37052,-60.934928 L 103.88664,-60.934928 L 103.88664,-64.506218 L 105.96427,-64.506218 z M 118.18302,-47.188838 C 117.59903,-45.691448 117.03002,-44.714398 116.47599,-44.257688 C 115.92195,-43.800988 115.18074,-43.572628 114.25236,-43.572628 L 112.60148,-43.572628 L 112.60148,-45.302118 L 113.81437,-45.302118 C 114.38338,-45.302118 114.82511,-45.436888 115.13957,-45.706418 C 115.45401,-45.975948 115.80216,-46.612338 116.184,-47.615598 L 116.55461,-48.558958 L 111.4672,-60.934928 L 113.65714,-60.934928 L 117.58781,-51.097038 L 121.51847,-60.934928 L 123.70841,-60.934928 L 118.18302,-47.188838 z"
       style="font-size:40px;font-style:normal;font-weight:normal;fill:#ffffff;fill-opacity:1;stroke:none;stroke-width:1px;stroke-linecap:butt;stroke-linejoin:miter;stroke-opacity:1;font-family:Bitstream Vera Sans" />
    <path
       id="text2483"
       d="M 127.65643,-50.958365 L 130.02606,-50.958365 L 130.02606,-48.105825 L 127.65643,-48.105825 L 127.65643,-50.958365 z M 139.56073,-59.235225 C 138.45265,-59.235215 137.57667,-58.802835 136.9328,-57.938105 C 136.28891,-57.073345 135.96697,-55.888535 135.96698,-54.383655 C 135.96697,-52.878775 136.28704,-51.693955 136.92718,-50.829215 C 137.56731,-49.964465 138.44516,-49.532095 139.56073,-49.532095 C 140.6613,-49.532095 141.53354,-49.966335 142.17743,-50.834835 C 142.82129,-51.703315 143.14323,-52.886255 143.14325,-54.383655 C 143.14323,-55.873555 142.82129,-57.054625 142.17743,-57.926875 C 141.53354,-58.799095 140.6613,-59.235215 139.56073,-59.235225 L 139.56073,-59.235225 z M 139.56073,-60.987175 C 141.35759,-60.987165 142.76889,-60.403175 143.79461,-59.235225 C 144.82032,-58.067245 145.33317,-56.450055 145.33319,-54.383655 C 145.33317,-52.324735 144.82032,-50.709425 143.79461,-49.537715 C 142.76889,-48.365995 141.35759,-47.780145 139.56073,-47.780145 C 137.75636,-47.780145 136.34319,-48.365995 135.32122,-49.537715 C 134.29925,-50.709425 133.78826,-52.324735 133.78826,-54.383655 C 133.78826,-56.450055 134.29925,-58.067245 135.32122,-59.235225 C 136.34319,-60.403175 137.75636,-60.987165 139.56073,-60.987175 L 139.56073,-60.987175 z M 156.03582,-58.752315 C 155.80372,-58.887065 155.55103,-58.986265 155.27777,-59.049915 C 155.00448,-59.113545 154.70313,-59.145365 154.37371,-59.145375 C 153.20574,-59.145365 152.30917,-58.765405 151.68402,-58.005485 C 151.05885,-57.245545 150.74627,-56.154325 150.74627,-54.731805 L 150.74627,-48.105825 L 148.66864,-48.105825 L 148.66864,-60.683955 L 150.74627,-60.683955 L 150.74627,-58.729855 C 151.18051,-59.493515 151.74578,-60.060645 152.44207,-60.431265 C 153.13836,-60.801855 153.98438,-60.987165 154.98016,-60.987175 C 155.1224,-60.987165 155.27963,-60.977805 155.45184,-60.959095 C 155.62403,-60.940365 155.81495,-60.912295 156.02459,-60.874865 L 156.03582,-58.752315 z M 166.50262,-54.540885 C 166.50261,-56.038275 166.19377,-57.198755 165.57611,-58.022335 C 164.95842,-58.845885 164.09181,-59.257675 162.97625,-59.257685 C 161.86817,-59.257675 161.0053,-58.845885 160.38763,-58.022335 C 159.76995,-57.198755 159.46111,-56.038275 159.46112,-54.540885 C 159.46111,-53.050975 159.76995,-51.894235 160.38763,-51.070675 C 161.0053,-50.247105 161.86817,-49.835315 162.97625,-49.835315 C 164.09181,-49.835315 164.95842,-50.247105 165.57611,-51.070675 C 166.19377,-51.894235 166.50261,-53.050975 166.50262,-54.540885 L 166.50262,-54.540885 z M 168.56903,-49.666865 C 168.56901,-47.525585 168.09359,-45.932735 167.14276,-44.888295 C 166.1919,-43.843865 164.73568,-43.321652 162.7741,-43.321647 C 162.04786,-43.321652 161.3628,-43.375932 160.71893,-43.484489 C 160.07504,-43.593054 159.44988,-43.759635 158.84344,-43.984245 L 158.84344,-45.994495 C 159.44988,-45.665075 160.04884,-45.421745 160.64032,-45.264515 C 161.23178,-45.107295 161.83448,-45.028685 162.44842,-45.028675 C 163.80356,-45.028685 164.81804,-45.382445 165.49188,-46.089955 C 166.1657,-46.797475 166.50261,-47.866245 166.50262,-49.296255 L 166.50262,-50.318225 C 166.07585,-49.577015 165.5293,-49.022985 164.86297,-48.656115 C 164.19662,-48.289255 163.39926,-48.105825 162.47088,-48.105825 C 160.92856,-48.105825 159.68572,-48.693555 158.74237,-49.869015 C 157.79901,-51.044465 157.32733,-52.601755 157.32733,-54.540885 C 157.32733,-56.487495 157.79901,-58.048525 158.74237,-59.223995 C 159.68572,-60.399435 160.92856,-60.987165 162.47088,-60.987175 C 163.39926,-60.987165 164.19662,-60.803735 164.86297,-60.436885 C 165.5293,-60.070005 166.07585,-59.515975 166.50262,-58.774775 L 166.50262,-60.683955 L 168.56903,-60.683955 L 168.56903,-49.666865 z"
       style="font-size:23px;font-style:normal;font-weight:normal;fill:#000000;fill-opacity:1;stroke:none;stroke-width:1px;stroke-linecap:butt;stroke-linejoin:miter;stroke-opacity:1;font-family:Bitstream Vera Sans" />
  </g>
</svg>
