<?xml version="1.0" encoding="UTF-8" standalone="no"?>
<!-- Created with Inkscape (http://www.inkscape.org/) -->

<svg
   xmlns:dc="http://purl.org/dc/elements/1.1/"
   xmlns:cc="http://creativecommons.org/ns#"
   xmlns:rdf="http://www.w3.org/1999/02/22-rdf-syntax-ns#"
   xmlns:svg="http://www.w3.org/2000/svg"
   xmlns="http://www.w3.org/2000/svg"
   xmlns:xlink="http://www.w3.org/1999/xlink"
   xmlns:sodipodi="http://sodipodi.sourceforge.net/DTD/sodipodi-0.dtd"
   xmlns:inkscape="http://www.inkscape.org/namespaces/inkscape"
   version="1.0"
   width="274"
   height="40"
   id="svg2"
   sodipodi:version="0.32"
   inkscape:version="0.48.2 r9819"
   sodipodi:docname="geokrety+pumpkin.svg"
   inkscape:output_extension="org.inkscape.output.svg.inkscape"
   inkscape:export-filename="/mnt/nfs/geokrety/templates/logo-jesien.png"
   inkscape:export-xdpi="131.54472"
   inkscape:export-ydpi="131.54472">
  <metadata
     id="metadata32">
    <rdf:RDF>
      <cc:Work
         rdf:about="">
        <dc:format>image/svg+xml</dc:format>
        <dc:type
           rdf:resource="http://purl.org/dc/dcmitype/StillImage" />
        <dc:title></dc:title>
      </cc:Work>
    </rdf:RDF>
  </metadata>
  <sodipodi:namedview
     inkscape:window-height="723"
     inkscape:window-width="1280"
     inkscape:pageshadow="2"
     inkscape:pageopacity="1"
     guidetolerance="10.0"
     gridtolerance="10.0"
     objecttolerance="10.0"
     borderopacity="1.0"
     bordercolor="#666666"
     pagecolor="#ffffff"
     id="base"
     showgrid="false"
     inkscape:zoom="2.8284271"
     inkscape:cx="153.01486"
     inkscape:cy="35.646045"
     inkscape:window-x="0"
     inkscape:window-y="24"
     inkscape:current-layer="svg2"
     inkscape:window-maximized="1" />
  <defs
     id="defs4">
    <inkscape:perspective
       sodipodi:type="inkscape:persp3d"
       inkscape:vp_x="0 : 17.129309 : 1"
       inkscape:vp_y="0 : 1000 : 0"
       inkscape:vp_z="197.98587 : 17.129309 : 1"
       inkscape:persp3d-origin="98.992935 : 11.419539 : 1"
       id="perspective34" />
    <inkscape:perspective
       id="perspective2736"
       inkscape:persp3d-origin="372.04724 : 350.78739 : 1"
       inkscape:vp_z="744.09448 : 526.18109 : 1"
       inkscape:vp_y="0 : 1000 : 0"
       inkscape:vp_x="0 : 526.18109 : 1"
       sodipodi:type="inkscape:persp3d" />
    <inkscape:perspective
       id="perspective3687"
       inkscape:persp3d-origin="372.04724 : 350.78739 : 1"
       inkscape:vp_z="744.09448 : 526.18109 : 1"
       inkscape:vp_y="0 : 1000 : 0"
       inkscape:vp_x="0 : 526.18109 : 1"
       sodipodi:type="inkscape:persp3d" />
    <inkscape:perspective
       id="perspective3743"
       inkscape:persp3d-origin="0.5 : 0.33333333 : 1"
       inkscape:vp_z="1 : 0.5 : 1"
       inkscape:vp_y="0 : 1000 : 0"
       inkscape:vp_x="0 : 0.5 : 1"
       sodipodi:type="inkscape:persp3d" />
    <linearGradient
       inkscape:collect="always"
       xlink:href="#linearGradient4026"
       id="linearGradient6740"
       gradientUnits="userSpaceOnUse"
       gradientTransform="translate(0.29478707,-0.33857183)"
       x1="133.80026"
       y1="121.48946"
       x2="145.55229"
       y2="115.93391" />
    <linearGradient
       id="linearGradient4026">
      <stop
         style="stop-color:#808000;stop-opacity:1;"
         offset="0"
         id="stop4028" />
      <stop
         id="stop4034"
         offset="0.46836185"
         style="stop-color:#9b9b00;stop-opacity:1;" />
      <stop
         style="stop-color:#c2c200;stop-opacity:1;"
         offset="1"
         id="stop4030" />
    </linearGradient>
    <radialGradient
       inkscape:collect="always"
       xlink:href="#linearGradient3841"
       id="radialGradient6742"
       gradientUnits="userSpaceOnUse"
       gradientTransform="matrix(0.99998747,0.00500651,-0.01244974,2.4866776,5.1319845,-284.42799)"
       cx="118.22814"
       cy="187.61165"
       fx="118.22814"
       fy="187.61165"
       r="22.311939" />
    <linearGradient
       id="linearGradient3841">
      <stop
         id="stop3843"
         offset="0"
         style="stop-color:#d98402;stop-opacity:1;" />
      <stop
         id="stop3849"
         offset="1"
         style="stop-color:#d45500;stop-opacity:1;" />
    </linearGradient>
    <radialGradient
       inkscape:collect="always"
       xlink:href="#linearGradient3895"
       id="radialGradient6744"
       gradientUnits="userSpaceOnUse"
       gradientTransform="matrix(1.3983915,-0.01244972,0.0275686,3.0965921,-37.675632,-397.66173)"
       cx="126.61558"
       cy="189.0188"
       fx="126.61558"
       fy="189.0188"
       r="22.311939" />
    <linearGradient
       id="linearGradient3895">
      <stop
         style="stop-color:#d98402;stop-opacity:1;"
         offset="0"
         id="stop3897" />
      <stop
         style="stop-color:#d45500;stop-opacity:1;"
         offset="1"
         id="stop3903" />
    </linearGradient>
    <radialGradient
       inkscape:collect="always"
       xlink:href="#linearGradient3895-0-2"
       id="radialGradient6746"
       gradientUnits="userSpaceOnUse"
       gradientTransform="matrix(-1.5880721,0.48757752,1.0522391,3.4272125,205.54211,-532.8094)"
       cx="131.00592"
       cy="188.82793"
       fx="131.00592"
       fy="188.82793"
       r="22.311939" />
    <linearGradient
       id="linearGradient3895-0-2">
      <stop
         style="stop-color:#d98402;stop-opacity:1;"
         offset="0"
         id="stop3897-1-4" />
      <stop
         style="stop-color:#d45500;stop-opacity:1;"
         offset="1"
         id="stop3903-8-6" />
    </linearGradient>
    <radialGradient
       inkscape:collect="always"
       xlink:href="#linearGradient3895-0-7"
       id="radialGradient6748"
       gradientUnits="userSpaceOnUse"
       gradientTransform="matrix(-1.3672842,0.4772734,1.0343071,2.963064,162.66455,-437.2647)"
       cx="125.65099"
       cy="188.69373"
       fx="125.65099"
       fy="188.69373"
       r="22.311939" />
    <linearGradient
       id="linearGradient3895-0-7">
      <stop
         style="stop-color:#d98402;stop-opacity:1;"
         offset="0"
         id="stop3897-1-8" />
      <stop
         style="stop-color:#d45500;stop-opacity:1;"
         offset="1"
         id="stop3903-8-7" />
    </linearGradient>
    <radialGradient
       inkscape:collect="always"
       xlink:href="#linearGradient4016"
       id="radialGradient6750"
       gradientUnits="userSpaceOnUse"
       gradientTransform="matrix(1.0059473,-0.28210919,1.0334103,3.6849424,-158.74528,-474.21817)"
       cx="122.27438"
       cy="188.19704"
       fx="122.27438"
       fy="188.19704"
       r="22.311939" />
    <linearGradient
       id="linearGradient4016">
      <stop
         id="stop4018"
         offset="0"
         style="stop-color:#d98402;stop-opacity:1;" />
      <stop
         id="stop4024"
         offset="1"
         style="stop-color:#d45500;stop-opacity:1;" />
    </linearGradient>
    <linearGradient
       inkscape:collect="always"
       xlink:href="#linearGradient3668"
       id="linearGradient6752"
       gradientUnits="userSpaceOnUse"
       gradientTransform="translate(98.261683,104.15547)"
       x1="56.111111"
       y1="67.330124"
       x2="75.277779"
       y2="67.330124" />
    <linearGradient
       inkscape:collect="always"
       id="linearGradient3668">
      <stop
         style="stop-color:#fff35c;stop-opacity:1"
         offset="0"
         id="stop3670" />
      <stop
         style="stop-color:#fb9902;stop-opacity:1"
         offset="1"
         id="stop3672" />
    </linearGradient>
    <linearGradient
       inkscape:collect="always"
       xlink:href="#linearGradient3678"
       id="linearGradient6754"
       gradientUnits="userSpaceOnUse"
       gradientTransform="translate(98.261683,104.15547)"
       x1="83.333328"
       y1="44.784073"
       x2="96.785629"
       y2="47.83963" />
    <linearGradient
       inkscape:collect="always"
       id="linearGradient3678">
      <stop
         style="stop-color:#fff35c;stop-opacity:1"
         offset="0"
         id="stop3680" />
      <stop
         style="stop-color:#fb9902;stop-opacity:1"
         offset="1"
         id="stop3682" />
    </linearGradient>
    <linearGradient
       inkscape:collect="always"
       xlink:href="#linearGradient3678-9"
       id="linearGradient6756"
       gradientUnits="userSpaceOnUse"
       gradientTransform="matrix(-1,0,0,1,212.26953,114.43325)"
       x1="81.811592"
       y1="44.506294"
       x2="96.785629"
       y2="47.83963" />
    <linearGradient
       inkscape:collect="always"
       id="linearGradient3678-9">
      <stop
         style="stop-color:#fff35c;stop-opacity:1"
         offset="0"
         id="stop3680-6" />
      <stop
         style="stop-color:#fb9902;stop-opacity:1"
         offset="1"
         id="stop3682-7" />
    </linearGradient>
    <linearGradient
       inkscape:collect="always"
       xlink:href="#linearGradient3726"
       id="linearGradient6758"
       gradientUnits="userSpaceOnUse"
       gradientTransform="translate(98.261683,104.15547)"
       x1="64.738831"
       y1="78.779961"
       x2="68.050308"
       y2="126.67469" />
    <linearGradient
       inkscape:collect="always"
       id="linearGradient3726">
      <stop
         style="stop-color:#fff35c;stop-opacity:1"
         offset="0"
         id="stop3728" />
      <stop
         style="stop-color:#fb9902;stop-opacity:1"
         offset="1"
         id="stop3730" />
    </linearGradient>
    <radialGradient
       inkscape:collect="always"
       xlink:href="#linearGradient3652"
       id="radialGradient6760"
       gradientUnits="userSpaceOnUse"
       gradientTransform="matrix(0.3280349,0.98264145,-0.92185785,0.30774355,202.33738,94.408792)"
       cx="59.797661"
       cy="69.35405"
       fx="59.797661"
       fy="69.35405"
       r="38.201561" />
    <linearGradient
       id="linearGradient3652">
      <stop
         style="stop-color:#ffff98;stop-opacity:1"
         offset="0"
         id="stop3654" />
      <stop
         id="stop3662"
         offset="0.86598408"
         style="stop-color:#ffff7a;stop-opacity:1" />
      <stop
         style="stop-color:#fff35c;stop-opacity:1"
         offset="1"
         id="stop3656" />
    </linearGradient>
    <radialGradient
       r="38.201561"
       fy="69.35405"
       fx="59.797661"
       cy="69.35405"
       cx="59.797661"
       gradientTransform="matrix(0.3280349,0.98264145,-0.92185785,0.30774355,202.33738,94.408792)"
       gradientUnits="userSpaceOnUse"
       id="radialGradient6831"
       xlink:href="#linearGradient3652"
       inkscape:collect="always" />
  </defs>
  <polygon
     id="polygon3440"
     points="99.9553,101.792 100.167,101.792 99.9553,101.792 "
     class="fil59"
     style="fill:#ffffff;fill-rule:nonzero"
     transform="matrix(1.8094894,0,0,1.8094894,-1018.7853,-67.600017)" />
  <polygon
     id="polygon3450"
     points="149.309,106.555 149.485,106.555 149.309,106.555 "
     class="fil59"
     style="fill:#ffffff;fill-rule:nonzero"
     transform="matrix(1.8094894,0,0,1.8094894,-1018.7853,-67.600017)" />
  <polygon
     id="polygon3456"
     points="116.395,107.26 116.606,107.26 116.395,107.26 "
     class="fil58"
     style="fill:#000000;fill-rule:nonzero"
     transform="matrix(1.8094894,0,0,1.8094894,-1018.7853,-67.600017)" />
  <polygon
     id="polygon3466"
     points="143.276,110.647 143.382,110.647 143.276,110.647 "
     class="fil59"
     style="fill:#ffffff;fill-rule:nonzero"
     transform="matrix(1.8094894,0,0,1.8094894,-1018.7853,-67.600017)" />
  <polygon
     id="polygon3472"
     points="142.077,111.317 142.289,111.317 142.077,111.317 "
     class="fil59"
     style="fill:#ffffff;fill-rule:nonzero"
     transform="matrix(1.8094894,0,0,1.8094894,-1018.7853,-67.600017)" />
  <polygon
     id="polygon3504"
     points="85.2445,126.981 85.3503,126.981 85.2445,126.981 "
     class="fil59"
     style="fill:#ffffff;fill-rule:nonzero"
     transform="matrix(1.8094894,0,0,1.8094894,-1018.7853,-67.600017)" />
  <polygon
     id="polygon3520"
     points="149.944,135.871 150.12,135.871 149.944,135.871 "
     class="fil59"
     style="fill:#ffffff;fill-rule:nonzero"
     transform="matrix(1.8094894,0,0,1.8094894,-1018.7853,-67.600017)" />
  <polygon
     id="polygon3532"
     points="82.2459,140.951 82.4575,140.951 82.2459,140.951 "
     class="fil59"
     style="fill:#ffffff;fill-rule:nonzero"
     transform="matrix(1.8094894,0,0,1.8094894,-1018.7853,-67.600017)" />
  <polygon
     id="polygon3536"
     points="109.339,141.797 109.586,141.797 109.339,141.797 "
     class="fil59"
     style="fill:#ffffff;fill-rule:nonzero"
     transform="matrix(1.8094894,0,0,1.8094894,-1018.7853,-67.600017)" />
  <polygon
     id="polygon3560"
     points="131.07,148.218 131.247,148.218 131.07,148.218 "
     class="fil59"
     style="fill:#ffffff;fill-rule:nonzero"
     transform="matrix(1.8094894,0,0,1.8094894,-1018.7853,-67.600017)" />
  <polygon
     id="polygon3572"
     points="113.079,153.298 113.255,153.298 113.079,153.298 "
     class="fil59"
     style="fill:#ffffff;fill-rule:nonzero"
     transform="matrix(1.8094894,0,0,1.8094894,-1018.7853,-67.600017)" />
  <polygon
     id="polygon3576"
     points="145.605,153.721 145.781,153.721 145.605,153.721 "
     class="fil59"
     style="fill:#ffffff;fill-rule:nonzero"
     transform="matrix(1.8094894,0,0,1.8094894,-1018.7853,-67.600017)" />
  <polygon
     id="polygon3586"
     points="106.164,157.708 106.305,157.708 106.164,157.708 "
     class="fil59"
     style="fill:#ffffff;fill-rule:nonzero"
     transform="matrix(1.8094894,0,0,1.8094894,-1018.7853,-67.600017)" />
  <polygon
     id="polygon3618"
     points="129.589,173.477 129.765,173.477 129.589,173.477 "
     class="fil59"
     style="fill:#ffffff;fill-rule:nonzero"
     transform="matrix(1.8094894,0,0,1.8094894,-1018.7853,-67.600017)" />
  <polygon
     id="polygon3630"
     points="100.59,177.569 100.943,177.569 100.59,177.569 "
     class="fil58"
     style="fill:#000000;fill-rule:nonzero"
     transform="matrix(1.8094894,0,0,1.8094894,-1018.7853,-67.600017)" />
  <polygon
     id="polygon3686"
     points="109.692,201.205 110.327,201.205 109.692,201.205 "
     class="fil59"
     style="fill:#ffffff;fill-rule:nonzero"
     transform="matrix(1.8094894,0,0,1.8094894,-1018.7853,-67.600017)" />
  <polygon
     id="polygon3690"
     points="89.5837,203.004 89.7601,203.004 89.5837,203.004 "
     class="fil58"
     style="fill:#000000;fill-rule:nonzero"
     transform="matrix(1.8094894,0,0,1.8094894,-1018.7853,-67.600017)" />
  <polygon
     id="polygon3694"
     points="109.621,203.251 109.974,203.251 109.621,203.251 "
     class="fil59"
     style="fill:#ffffff;fill-rule:nonzero"
     transform="matrix(1.8094894,0,0,1.8094894,-1018.7853,-67.600017)" />
  <polygon
     id="polygon3696"
     points="106.023,203.322 106.199,203.322 106.023,203.322 "
     class="fil59"
     style="fill:#ffffff;fill-rule:nonzero"
     transform="matrix(1.8094894,0,0,1.8094894,-1018.7853,-67.600017)" />
  <g
     id="g2490"
     transform="matrix(1.3540786,0,0,1.3449296,40.482725,95.524571)"
     inkscape:export-filename="/home/filips/svn/geokrety/templates/logo/geokrety+pumpkin.png"
     inkscape:export-xdpi="110.66658"
     inkscape:export-ydpi="110.66658">
    <rect
       width="61.299881"
       height="26.478128"
       x="64.375893"
       y="-68.511658"
       id="rect3251"
       style="fill:#000000;fill-opacity:1;fill-rule:nonzero;stroke:none" />
    <path
       id="text2383"
       d="m 31.101862,-50.457391 0,-4.566773 -3.65464,0 0,-1.890484 5.869574,0 0,7.300003 c -0.863838,0.630162 -1.816259,1.10658 -2.857264,1.429252 -1.041031,0.322672 -2.152188,0.484009 -3.333475,0.48401 -2.584097,-10e-7 -4.605221,-0.776314 -6.063381,-2.328941 -1.458167,-1.552623 -2.187248,-3.71453 -2.187247,-6.485728 -1e-6,-2.778772 0.72908,-4.944476 2.187247,-6.497117 1.45816,-1.55261 3.479284,-2.328922 6.063381,-2.328939 1.077923,1.7e-5 2.10233,0.136678 3.07322,0.409984 0.970866,0.27334 1.866068,0.675732 2.685607,1.207177 l 0,2.448519 c -0.826922,-0.721255 -1.705512,-1.264105 -2.635771,-1.62855 -0.930284,-0.364415 -1.908545,-0.54663 -2.934787,-0.546647 -2.02298,1.7e-5 -3.542054,0.580827 -4.557226,1.742435 -1.015182,1.161635 -1.522771,2.89268 -1.522767,5.193138 -4e-6,2.292883 0.507585,4.020131 1.522767,5.181749 1.015172,1.161625 2.534246,1.742436 4.557226,1.742435 0.789982,10e-7 1.495069,-0.07023 2.115262,-0.210687 0.620169,-0.140455 1.177594,-0.358735 1.672274,-0.654836 l 0,0 z m 16.833497,-4.475665 0,1.024961 -9.36917,0 c 0.08859,1.442544 0.511277,2.541529 1.26805,3.29696 0.756763,0.755436 1.810702,1.133153 3.161818,1.133152 0.782601,1e-6 1.541215,-0.0987 2.275844,-0.296101 0.734609,-0.197397 1.46369,-0.493497 2.187247,-0.888299 l 0,1.981591 c -0.73094,0.318878 -1.480324,0.561832 -2.248157,0.728862 -0.767854,0.167031 -1.546771,0.250546 -2.336755,0.250547 -1.97868,-10e-7 -3.545744,-0.5922 -4.701197,-1.7766 -1.155459,-1.184398 -1.733187,-2.786373 -1.733186,-4.80593 -10e-7,-2.087876 0.548194,-3.744896 1.644588,-4.971064 1.096388,-1.226145 2.574855,-1.839223 4.435405,-1.839236 1.668574,1.3e-5 2.988304,0.552352 3.959194,1.657021 0.970867,1.104691 1.456306,2.606068 1.456319,4.504136 l 0,0 z m -2.037739,-0.614976 c -0.01478,-1.146431 -0.326714,-2.061303 -0.93581,-2.744619 -0.609116,-0.683298 -1.41572,-1.02495 -2.419814,-1.024962 -1.137006,1.2e-5 -2.046974,0.330276 -2.729907,0.990796 -0.682941,0.66054 -1.076092,1.590597 -1.179452,2.790172 l 7.264983,-0.01139 z m 10.188695,-3.769581 c -1.092707,1.2e-5 -1.95653,0.438466 -2.591473,1.315367 -0.634951,0.876921 -0.952424,2.078402 -0.952421,3.604448 -3e-6,1.526059 0.315625,2.72754 0.946884,3.604447 0.631251,0.876913 1.49692,1.315369 2.59701,1.315368 1.08531,1e-6 1.945441,-0.440352 2.580397,-1.321062 0.634938,-0.880704 0.952412,-2.080287 0.952422,-3.598753 -1e-5,-1.510861 -0.317484,-2.708547 -0.952422,-3.59306 -0.634956,-0.884492 -1.495087,-1.326743 -2.580397,-1.326755 l 0,0 z m 0,-1.7766 c 1.771938,1.3e-5 3.163653,0.592212 4.17515,1.7766 1.011475,1.18441 1.517217,2.824346 1.517229,4.919815 -1.2e-5,2.087888 -0.505754,3.725927 -1.517229,4.91412 -1.011497,1.188197 -2.403212,1.782294 -4.17515,1.782295 -1.779335,-10e-7 -3.172896,-0.594098 -4.180688,-1.782295 -1.007796,-1.188193 -1.511693,-2.826232 -1.511692,-4.91412 -10e-7,-2.095469 0.503896,-3.735405 1.511692,-4.919815 1.007792,-1.184388 2.401353,-1.776587 4.180688,-1.7766 l 0,0 z"
       style="font-size:22.94870567px;font-style:normal;font-weight:normal;fill:#000000;fill-opacity:1;stroke:none;font-family:Bitstream Vera Sans"
       inkscape:connector-curvature="0" />
    <path
       id="text2479"
       d="m 66.871012,-65.831418 2.077637,0 0,10.3208 6.165527,-5.42431 2.63916,0 -6.670898,5.88476 6.95166,6.69336 -2.695312,0 -6.390137,-6.14307 0,6.14307 -2.077637,0 0,-17.47461 z m 20.708984,6.82813 c -0.232105,-0.13476 -0.48479,-0.23396 -0.758056,-0.29761 -0.273283,-0.06363 -0.574634,-0.09545 -0.904053,-0.09546 -1.167975,10e-6 -2.06454,0.37998 -2.689697,1.13989 -0.625167,0.75994 -0.937748,1.85117 -0.937744,3.27368 l 0,6.62598 -2.077637,0 0,-12.57812 2.077637,0 0,1.9541 c 0.43424,-0.76366 0.999506,-1.3308 1.6958,-1.70142 0.696283,-0.37059 1.542311,-0.55589 2.538086,-0.55591 0.142244,2e-5 0.299471,0.0094 0.47168,0.02808 0.172192,0.01873 0.363109,0.04681 0.572754,0.08423 l 0.01123,2.12256 z m 12.948734,3.84082 0,1.01074 -9.50098,0 c 0.08984,1.42253 0.51847,2.50627 1.285889,3.25122 0.76741,0.74496 1.836175,1.11743 3.206299,1.11743 0.793611,0 1.562897,-0.09733 2.307861,-0.29199 0.744944,-0.19466 1.484282,-0.48665 2.218021,-0.87598 l 0,1.9541 c -0.741226,0.31446 -1.501153,0.55404 -2.279788,0.71875 -0.778656,0.16472 -1.568531,0.24707 -2.369629,0.24707 -2.006516,0 -3.595626,-0.58398 -4.767334,-1.75195 -1.171714,-1.16796 -1.75757,-2.74772 -1.757569,-4.73926 -10e-7,-2.05891 0.555907,-3.69294 1.667725,-4.9021 1.111812,-1.20913 2.611078,-1.8137 4.497803,-1.81372 1.692048,2e-5 3.030344,0.54469 4.014892,1.63404 0.98453,1.08936 1.47679,2.56991 1.47681,4.44165 l 0,0 z m -2.066409,-0.60645 c -0.01498,-1.13052 -0.33131,-2.0327 -0.948975,-2.70654 -0.617685,-0.67382 -1.435637,-1.01073 -2.453857,-1.01074 -1.153001,1e-5 -2.075771,0.32569 -2.768311,0.97705 -0.692549,0.65137 -1.091231,1.56853 -1.196045,2.75146 l 7.367188,-0.01123 z m 7.501949,-8.7373 0,3.57129 4.25635,0 0,1.60595 -4.25635,0 0,6.82813 c 0,1.02572 0.14038,1.68457 0.42115,1.97656 0.28075,0.29199 0.85163,0.43799 1.71264,0.43799 l 2.12256,0 0,1.72949 -2.12256,0 c -1.59473,0 -2.69531,-0.29761 -3.30176,-0.89282 -0.60644,-0.59521 -0.90967,-1.67895 -0.90966,-3.25122 l 0,-6.82813 -1.51612,0 0,-1.60595 1.51612,0 0,-3.57129 2.07763,0 z m 12.21875,17.31738 c -0.58399,1.49739 -1.153,2.47444 -1.70703,2.93115 -0.55404,0.4567 -1.29525,0.68506 -2.22363,0.68506 l -1.65088,0 0,-1.72949 1.21289,0 c 0.56901,0 1.01074,-0.13477 1.3252,-0.4043 0.31444,-0.26953 0.66259,-0.90592 1.04443,-1.90918 l 0.37061,-0.94336 -5.08741,-12.37597 2.18994,0 3.93067,9.83789 3.93066,-9.83789 2.18994,0 -5.52539,13.74609 z"
       style="font-size:40px;font-style:normal;font-weight:normal;fill:#ffffff;fill-opacity:1;stroke:none;font-family:Bitstream Vera Sans"
       inkscape:connector-curvature="0" />
    <path
       id="text2483"
       d="m 127.65643,-50.958365 2.36963,0 0,2.85254 -2.36963,0 0,-2.85254 z m 11.9043,-8.27686 c -1.10808,1e-5 -1.98406,0.43239 -2.62793,1.29712 -0.64389,0.86476 -0.96583,2.04957 -0.96582,3.55445 -1e-5,1.50488 0.32006,2.6897 0.9602,3.55444 0.64013,0.86475 1.51798,1.29712 2.63355,1.29712 1.10057,0 1.97281,-0.43424 2.6167,-1.30274 0.64386,-0.86848 0.9658,-2.05142 0.96582,-3.54882 -2e-5,-1.4899 -0.32196,-2.67097 -0.96582,-3.54322 -0.64389,-0.87222 -1.51613,-1.30834 -2.6167,-1.30835 l 0,0 z m 0,-1.75195 c 1.79686,1e-5 3.20816,0.584 4.23388,1.75195 1.02571,1.16798 1.53856,2.78517 1.53858,4.85157 -2e-5,2.05892 -0.51287,3.67423 -1.53858,4.84594 -1.02572,1.17172 -2.43702,1.75757 -4.23388,1.75757 -1.80437,0 -3.21754,-0.58585 -4.23951,-1.75757 -1.02197,-1.17171 -1.53296,-2.78702 -1.53296,-4.84594 0,-2.0664 0.51099,-3.68359 1.53296,-4.85157 1.02197,-1.16795 2.43514,-1.75194 4.23951,-1.75195 l 0,0 z m 16.47509,2.23486 c -0.2321,-0.13475 -0.48479,-0.23395 -0.75805,-0.2976 -0.27329,-0.06363 -0.57464,-0.09545 -0.90406,-0.09546 -1.16797,1e-5 -2.06454,0.37997 -2.68969,1.13989 -0.62517,0.75994 -0.93775,1.85116 -0.93775,3.27368 l 0,6.62598 -2.07763,0 0,-12.57813 2.07763,0 0,1.9541 c 0.43424,-0.76366 0.99951,-1.33079 1.6958,-1.70141 0.69629,-0.37059 1.54231,-0.5559 2.53809,-0.55591 0.14224,1e-5 0.29947,0.0094 0.47168,0.02808 0.17219,0.01873 0.36311,0.0468 0.57275,0.08423 l 0.0112,2.12255 z m 10.4668,4.21143 c -1e-5,-1.49739 -0.30885,-2.65787 -0.92651,-3.48145 -0.61769,-0.82355 -1.4843,-1.23534 -2.59986,-1.23535 -1.10808,1e-5 -1.97095,0.4118 -2.58862,1.23535 -0.61768,0.82358 -0.92652,1.98406 -0.92651,3.48145 -1e-5,1.48991 0.30883,2.64665 0.92651,3.47021 0.61767,0.82357 1.48054,1.23536 2.58862,1.23536 1.11556,0 1.98217,-0.41179 2.59986,-1.23536 0.61766,-0.82356 0.9265,-1.9803 0.92651,-3.47021 l 0,0 z m 2.06641,4.87402 c -2e-5,2.14128 -0.47544,3.73413 -1.42627,4.77857 -0.95086,1.04443 -2.40708,1.566643 -4.36866,1.566648 -0.72624,-5e-6 -1.4113,-0.05429 -2.05517,-0.162842 -0.64389,-0.108565 -1.26905,-0.275146 -1.87549,-0.499756 l 0,-2.01025 c 0.60644,0.32942 1.2054,0.57275 1.79688,0.72998 0.59146,0.15722 1.19416,0.23583 1.8081,0.23584 1.35514,-1e-5 2.36962,-0.35377 3.04346,-1.06128 0.67382,-0.70752 1.01073,-1.77629 1.01074,-3.2063 l 0,-1.02197 c -0.42677,0.74121 -0.97332,1.29524 -1.63965,1.66211 -0.66635,0.36686 -1.46371,0.55029 -2.39209,0.55029 -1.54232,0 -2.78516,-0.58773 -3.72851,-1.76319 -0.94336,-1.17545 -1.41504,-2.73274 -1.41504,-4.67187 0,-1.94661 0.47168,-3.50764 1.41504,-4.68311 0.94335,-1.17544 2.18619,-1.76317 3.72851,-1.76318 0.92838,1e-5 1.72574,0.18344 2.39209,0.55029 0.66633,0.36688 1.21288,0.92091 1.63965,1.66211 l 0,-1.90918 2.06641,0 0,11.01709 z"
       style="font-size:23px;font-style:normal;font-weight:normal;fill:#000000;fill-opacity:1;stroke:none;font-family:Bitstream Vera Sans"
       inkscape:connector-curvature="0" />
  </g>
  <g
     id="g2837"
     transform="matrix(0.21229351,0.01160802,-0.01122543,0.21952895,-19.622238,-205.1438)"
     inkscape:export-filename="/home/filips/svn/geokrety/templates/logo/geokrety+pumpkin.png"
     inkscape:export-xdpi="110.66658"
     inkscape:export-ydpi="110.66658">
    <path
       inkscape:connector-curvature="0"
       sodipodi:nodetypes="cccccc"
       id="path2839"
       d="m 291.29335,966.00527 -38.67718,74.17803 -46.89842,-14.3872 -55.30649,-53.9986 72.6832,-27.65324 68.19889,21.86101 z"
       style="fill:#667b58;fill-opacity:1;fill-rule:evenodd;stroke:#000000;stroke-width:4;stroke-linecap:butt;stroke-linejoin:round;stroke-miterlimit:4;stroke-opacity:1;stroke-dasharray:none" />
    <path
       inkscape:connector-curvature="0"
       sodipodi:nodetypes="ccccccc"
       id="path2841"
       d="m 205.71775,1025.7961 -55.30649,-53.99861 72.6832,-27.65324 22.32769,7.48955 -67.75283,25.49589 49.30784,55.01851 -21.25941,-6.3521 z"
       style="fill:#c5c5c5;fill-opacity:1;fill-rule:evenodd;stroke:#000000;stroke-width:4;stroke-linecap:butt;stroke-linejoin:round;stroke-miterlimit:4;stroke-opacity:1;stroke-dasharray:none" />
    <path
       inkscape:connector-curvature="0"
       sodipodi:nodetypes="cczc"
       id="path2843"
       d="m 288.17968,1000.584 -9.19725,19.6482 c -15.20275,-9.8073 -61.66295,-27.49538 -52.39566,-36.46449 9.41223,-9.10938 38.41597,3.77386 61.59291,16.81629 z"
       style="fill:#667b58;fill-opacity:1;fill-rule:evenodd;stroke:#000000;stroke-width:4;stroke-linecap:butt;stroke-linejoin:round;stroke-miterlimit:4;stroke-opacity:1;stroke-dasharray:none" />
  </g>
  <g
     transform="matrix(1.3540786,0,0,1.3449296,40.482725,95.524571)"
     id="g3693"
     inkscape:export-filename="/home/filips/svn/geokrety/templates/logo/geokrety+pumpkin.png"
     inkscape:export-xdpi="110.66658"
     inkscape:export-ydpi="110.66658">
    <rect
       style="fill:#000000;fill-opacity:1;fill-rule:nonzero;stroke:none"
       id="rect3695"
       y="-68.511658"
       x="64.375893"
       height="26.478128"
       width="61.299881" />
    <path
       style="font-size:22.94870567px;font-style:normal;font-weight:normal;fill:#000000;fill-opacity:1;stroke:none;font-family:Bitstream Vera Sans"
       d="m 31.101862,-50.457391 0,-4.566773 -3.65464,0 0,-1.890484 5.869574,0 0,7.300003 c -0.863838,0.630162 -1.816259,1.10658 -2.857264,1.429252 -1.041031,0.322672 -2.152188,0.484009 -3.333475,0.48401 -2.584097,-10e-7 -4.605221,-0.776314 -6.063381,-2.328941 -1.458167,-1.552623 -2.187248,-3.71453 -2.187247,-6.485728 -1e-6,-2.778772 0.72908,-4.944476 2.187247,-6.497117 1.45816,-1.55261 3.479284,-2.328922 6.063381,-2.328939 1.077923,1.7e-5 2.10233,0.136678 3.07322,0.409984 0.970866,0.27334 1.866068,0.675732 2.685607,1.207177 l 0,2.448519 c -0.826922,-0.721255 -1.705512,-1.264105 -2.635771,-1.62855 -0.930284,-0.364415 -1.908545,-0.54663 -2.934787,-0.546647 -2.02298,1.7e-5 -3.542054,0.580827 -4.557226,1.742435 -1.015182,1.161635 -1.522771,2.89268 -1.522767,5.193138 -4e-6,2.292883 0.507585,4.020131 1.522767,5.181749 1.015172,1.161625 2.534246,1.742436 4.557226,1.742435 0.789982,10e-7 1.495069,-0.07023 2.115262,-0.210687 0.620169,-0.140455 1.177594,-0.358735 1.672274,-0.654836 l 0,0 z m 16.833497,-4.475665 0,1.024961 -9.36917,0 c 0.08859,1.442544 0.511277,2.541529 1.26805,3.29696 0.756763,0.755436 1.810702,1.133153 3.161818,1.133152 0.782601,1e-6 1.541215,-0.0987 2.275844,-0.296101 0.734609,-0.197397 1.46369,-0.493497 2.187247,-0.888299 l 0,1.981591 c -0.73094,0.318878 -1.480324,0.561832 -2.248157,0.728862 -0.767854,0.167031 -1.546771,0.250546 -2.336755,0.250547 -1.97868,-10e-7 -3.545744,-0.5922 -4.701197,-1.7766 -1.155459,-1.184398 -1.733187,-2.786373 -1.733186,-4.80593 -10e-7,-2.087876 0.548194,-3.744896 1.644588,-4.971064 1.096388,-1.226145 2.574855,-1.839223 4.435405,-1.839236 1.668574,1.3e-5 2.988304,0.552352 3.959194,1.657021 0.970867,1.104691 1.456306,2.606068 1.456319,4.504136 l 0,0 z m -2.037739,-0.614976 c -0.01478,-1.146431 -0.326714,-2.061303 -0.93581,-2.744619 -0.609116,-0.683298 -1.41572,-1.02495 -2.419814,-1.024962 -1.137006,1.2e-5 -2.046974,0.330276 -2.729907,0.990796 -0.682941,0.66054 -1.076092,1.590597 -1.179452,2.790172 l 7.264983,-0.01139 z m 10.188695,-3.769581 c -1.092707,1.2e-5 -1.95653,0.438466 -2.591473,1.315367 -0.634951,0.876921 -0.952424,2.078402 -0.952421,3.604448 -3e-6,1.526059 0.315625,2.72754 0.946884,3.604447 0.631251,0.876913 1.49692,1.315369 2.59701,1.315368 1.08531,1e-6 1.945441,-0.440352 2.580397,-1.321062 0.634938,-0.880704 0.952412,-2.080287 0.952422,-3.598753 -1e-5,-1.510861 -0.317484,-2.708547 -0.952422,-3.59306 -0.634956,-0.884492 -1.495087,-1.326743 -2.580397,-1.326755 l 0,0 z m 0,-1.7766 c 1.771938,1.3e-5 3.163653,0.592212 4.17515,1.7766 1.011475,1.18441 1.517217,2.824346 1.517229,4.919815 -1.2e-5,2.087888 -0.505754,3.725927 -1.517229,4.91412 -1.011497,1.188197 -2.403212,1.782294 -4.17515,1.782295 -1.779335,-10e-7 -3.172896,-0.594098 -4.180688,-1.782295 -1.007796,-1.188193 -1.511693,-2.826232 -1.511692,-4.91412 -10e-7,-2.095469 0.503896,-3.735405 1.511692,-4.919815 1.007792,-1.184388 2.401353,-1.776587 4.180688,-1.7766 l 0,0 z"
       id="path3697"
       inkscape:connector-curvature="0" />
    <path
       style="font-size:40px;font-style:normal;font-weight:normal;fill:#ffffff;fill-opacity:1;stroke:none;font-family:Bitstream Vera Sans"
       d="m 66.871012,-65.831418 2.077637,0 0,10.3208 6.165527,-5.42431 2.63916,0 -6.670898,5.88476 6.95166,6.69336 -2.695312,0 -6.390137,-6.14307 0,6.14307 -2.077637,0 0,-17.47461 z m 20.708984,6.82813 c -0.232105,-0.13476 -0.48479,-0.23396 -0.758056,-0.29761 -0.273283,-0.06363 -0.574634,-0.09545 -0.904053,-0.09546 -1.167975,10e-6 -2.06454,0.37998 -2.689697,1.13989 -0.625167,0.75994 -0.937748,1.85117 -0.937744,3.27368 l 0,6.62598 -2.077637,0 0,-12.57812 2.077637,0 0,1.9541 c 0.43424,-0.76366 0.999506,-1.3308 1.6958,-1.70142 0.696283,-0.37059 1.542311,-0.55589 2.538086,-0.55591 0.142244,2e-5 0.299471,0.0094 0.47168,0.02808 0.172192,0.01873 0.363109,0.04681 0.572754,0.08423 l 0.01123,2.12256 z m 12.948734,3.84082 0,1.01074 -9.50098,0 c 0.08984,1.42253 0.51847,2.50627 1.285889,3.25122 0.76741,0.74496 1.836175,1.11743 3.206299,1.11743 0.793611,0 1.562897,-0.09733 2.307861,-0.29199 0.744944,-0.19466 1.484282,-0.48665 2.218021,-0.87598 l 0,1.9541 c -0.741226,0.31446 -1.501153,0.55404 -2.279788,0.71875 -0.778656,0.16472 -1.568531,0.24707 -2.369629,0.24707 -2.006516,0 -3.595626,-0.58398 -4.767334,-1.75195 -1.171714,-1.16796 -1.75757,-2.74772 -1.757569,-4.73926 -10e-7,-2.05891 0.555907,-3.69294 1.667725,-4.9021 1.111812,-1.20913 2.611078,-1.8137 4.497803,-1.81372 1.692048,2e-5 3.030344,0.54469 4.014892,1.63404 0.98453,1.08936 1.47679,2.56991 1.47681,4.44165 l 0,0 z m -2.066409,-0.60645 c -0.01498,-1.13052 -0.33131,-2.0327 -0.948975,-2.70654 -0.617685,-0.67382 -1.435637,-1.01073 -2.453857,-1.01074 -1.153001,1e-5 -2.075771,0.32569 -2.768311,0.97705 -0.692549,0.65137 -1.091231,1.56853 -1.196045,2.75146 l 7.367188,-0.01123 z m 7.501949,-8.7373 0,3.57129 4.25635,0 0,1.60595 -4.25635,0 0,6.82813 c 0,1.02572 0.14038,1.68457 0.42115,1.97656 0.28075,0.29199 0.85163,0.43799 1.71264,0.43799 l 2.12256,0 0,1.72949 -2.12256,0 c -1.59473,0 -2.69531,-0.29761 -3.30176,-0.89282 -0.60644,-0.59521 -0.90967,-1.67895 -0.90966,-3.25122 l 0,-6.82813 -1.51612,0 0,-1.60595 1.51612,0 0,-3.57129 2.07763,0 z m 12.21875,17.31738 c -0.58399,1.49739 -1.153,2.47444 -1.70703,2.93115 -0.55404,0.4567 -1.29525,0.68506 -2.22363,0.68506 l -1.65088,0 0,-1.72949 1.21289,0 c 0.56901,0 1.01074,-0.13477 1.3252,-0.4043 0.31444,-0.26953 0.66259,-0.90592 1.04443,-1.90918 l 0.37061,-0.94336 -5.08741,-12.37597 2.18994,0 3.93067,9.83789 3.93066,-9.83789 2.18994,0 -5.52539,13.74609 z"
       id="path3699"
       inkscape:connector-curvature="0" />
    <path
       style="font-size:23px;font-style:normal;font-weight:normal;fill:#000000;fill-opacity:1;stroke:none;font-family:Bitstream Vera Sans"
       d="m 127.65643,-50.958365 2.36963,0 0,2.85254 -2.36963,0 0,-2.85254 z m 11.9043,-8.27686 c -1.10808,1e-5 -1.98406,0.43239 -2.62793,1.29712 -0.64389,0.86476 -0.96583,2.04957 -0.96582,3.55445 -1e-5,1.50488 0.32006,2.6897 0.9602,3.55444 0.64013,0.86475 1.51798,1.29712 2.63355,1.29712 1.10057,0 1.97281,-0.43424 2.6167,-1.30274 0.64386,-0.86848 0.9658,-2.05142 0.96582,-3.54882 -2e-5,-1.4899 -0.32196,-2.67097 -0.96582,-3.54322 -0.64389,-0.87222 -1.51613,-1.30834 -2.6167,-1.30835 l 0,0 z m 0,-1.75195 c 1.79686,1e-5 3.20816,0.584 4.23388,1.75195 1.02571,1.16798 1.53856,2.78517 1.53858,4.85157 -2e-5,2.05892 -0.51287,3.67423 -1.53858,4.84594 -1.02572,1.17172 -2.43702,1.75757 -4.23388,1.75757 -1.80437,0 -3.21754,-0.58585 -4.23951,-1.75757 -1.02197,-1.17171 -1.53296,-2.78702 -1.53296,-4.84594 0,-2.0664 0.51099,-3.68359 1.53296,-4.85157 1.02197,-1.16795 2.43514,-1.75194 4.23951,-1.75195 l 0,0 z m 16.47509,2.23486 c -0.2321,-0.13475 -0.48479,-0.23395 -0.75805,-0.2976 -0.27329,-0.06363 -0.57464,-0.09545 -0.90406,-0.09546 -1.16797,1e-5 -2.06454,0.37997 -2.68969,1.13989 -0.62517,0.75994 -0.93775,1.85116 -0.93775,3.27368 l 0,6.62598 -2.07763,0 0,-12.57813 2.07763,0 0,1.9541 c 0.43424,-0.76366 0.99951,-1.33079 1.6958,-1.70141 0.69629,-0.37059 1.54231,-0.5559 2.53809,-0.55591 0.14224,1e-5 0.29947,0.0094 0.47168,0.02808 0.17219,0.01873 0.36311,0.0468 0.57275,0.08423 l 0.0112,2.12255 z m 10.4668,4.21143 c -1e-5,-1.49739 -0.30885,-2.65787 -0.92651,-3.48145 -0.61769,-0.82355 -1.4843,-1.23534 -2.59986,-1.23535 -1.10808,1e-5 -1.97095,0.4118 -2.58862,1.23535 -0.61768,0.82358 -0.92652,1.98406 -0.92651,3.48145 -1e-5,1.48991 0.30883,2.64665 0.92651,3.47021 0.61767,0.82357 1.48054,1.23536 2.58862,1.23536 1.11556,0 1.98217,-0.41179 2.59986,-1.23536 0.61766,-0.82356 0.9265,-1.9803 0.92651,-3.47021 l 0,0 z m 2.06641,4.87402 c -2e-5,2.14128 -0.47544,3.73413 -1.42627,4.77857 -0.95086,1.04443 -2.40708,1.566643 -4.36866,1.566648 -0.72624,-5e-6 -1.4113,-0.05429 -2.05517,-0.162842 -0.64389,-0.108565 -1.26905,-0.275146 -1.87549,-0.499756 l 0,-2.01025 c 0.60644,0.32942 1.2054,0.57275 1.79688,0.72998 0.59146,0.15722 1.19416,0.23583 1.8081,0.23584 1.35514,-1e-5 2.36962,-0.35377 3.04346,-1.06128 0.67382,-0.70752 1.01073,-1.77629 1.01074,-3.2063 l 0,-1.02197 c -0.42677,0.74121 -0.97332,1.29524 -1.63965,1.66211 -0.66635,0.36686 -1.46371,0.55029 -2.39209,0.55029 -1.54232,0 -2.78516,-0.58773 -3.72851,-1.76319 -0.94336,-1.17545 -1.41504,-2.73274 -1.41504,-4.67187 0,-1.94661 0.47168,-3.50764 1.41504,-4.68311 0.94335,-1.17544 2.18619,-1.76317 3.72851,-1.76318 0.92838,1e-5 1.72574,0.18344 2.39209,0.55029 0.66633,0.36688 1.21288,0.92091 1.63965,1.66211 l 0,-1.90918 2.06641,0 0,11.01709 z"
       id="path3701"
       inkscape:connector-curvature="0" />
  </g>
  <g
     id="g4293"
     transform="matrix(0.48915731,0,0,0.7087991,182.16713,16.720327)"
     inkscape:export-filename="/home/filips/svn/geokrety/templates/logo/geokrety+pumpkin.png"
     inkscape:export-xdpi="110.66658"
     inkscape:export-ydpi="110.66658">
    <path
       inkscape:connector-curvature="0"
       sodipodi:nodetypes="ccccc"
       id="path4677"
       d="m 96.528034,-11.786428 c -2.815694,1.490821 -2.558227,5.1993936 -3.144548,8.2990459 l 4.791692,0.6483638 c -1.540292,-4.6868106 -0.872452,-6.3119638 1.946622,-7.9100257 l -3.593766,-1.037384 z"
       style="fill:#784421;stroke:none" />
    <g
       transform="matrix(0.08984419,0,0,0.07780356,60.740098,-15.546931)"
       id="g5281">
      <path
         inkscape:connector-curvature="0"
         style="fill:#a05a2c;stroke:none"
         d="m 400.5,55.5 c -20.4423,-0.680263 -34.51732,73.25403 -30,91.5 l 37,3 c -4.63176,-58.973071 -37.77243,-25.07123 -7,-94.5 z"
         id="path5279"
         sodipodi:nodetypes="cccc" />
    </g>
    <path
       inkscape:connector-curvature="0"
       sodipodi:nodetypes="ccc"
       id="path4675"
       d="M 95.189117,-4.9121535 C 126.01251,-11.27805 124.78291,28.845443 95.018537,21.151942 61.527594,27.092895 67.295224,-13.753121 95.189117,-4.9121535 z"
       style="fill:#ff6600;stroke:none" />
    <path
       inkscape:connector-curvature="0"
       sodipodi:nodetypes="ccc"
       id="path5189"
       d="M 83.35483,-4.2688308 C 74.429442,-0.0780831 72.805728,12.413084 78.69589,18.17136 70.065581,13.085776 71.620828,-2.4901257 83.35483,-4.2688308 z"
       style="fill:#d45500;stroke:none" />
    <path
       inkscape:connector-curvature="0"
       sodipodi:nodetypes="ccc"
       id="path5189-0"
       d="M 89.508415,-4.4617145 C 78.012532,3.4525346 81.61671,12.865323 84.628128,20.281026 77.561798,13.677821 73.444118,1.4531227 89.508415,-4.4617145 z"
       style="fill:#d45500;stroke:none" />
    <path
       inkscape:connector-curvature="0"
       sodipodi:nodetypes="ccc"
       id="path5189-0-4"
       d="m 96.387989,-4.3827261 c 9.261501,8.3775 11.274451,18.3300071 5.756631,24.8724131 8.75943,-2.123718 8.19764,-16.9798743 -5.756631,-24.8724131 z"
       style="fill:#d45500;stroke:none" />
    <path
       inkscape:connector-curvature="0"
       sodipodi:nodetypes="ccc"
       id="path5189-0-4-3"
       d="m 102.75195,-4.7717421 c 12.56847,8.3497739 11.09842,18.1831281 5.93734,24.4833971 8.59686,-6.302775 11.47761,-16.769063 -5.93734,-24.4833971 z"
       style="fill:#d45500;stroke:none" />
    <path
       inkscape:connector-curvature="0"
       sodipodi:nodetypes="ccc"
       id="path5189-2"
       d="M 92.558689,-3.1017754 C 90.371618,6.0165309 90.544783,14.487844 91.343773,20.375795 88.55334,14.512175 87.263524,8.7913908 92.558689,-3.1017754 z"
       style="fill:#d45500;stroke:none" />
  </g>
  <g
     id="g6726"
     transform="matrix(0.30517781,0,0,0.29396958,-11.482273,-32.637621)"
     inkscape:export-filename="/home/filips/svn/geokrety/templates/logo/geokrety+pumpkin.png"
     inkscape:export-xdpi="110.66658"
     inkscape:export-ydpi="110.66658">
    <path
       sodipodi:nodetypes="cccccssscccccccc"
       id="path2453"
       d="m 142.61772,130.90362 c 0.001,0.29012 -4.00643,-0.2399 -8.47376,-0.42136 -4.4397,-1.36351 -7.93858,1.11216 -11.86986,1.82992 -2.00419,0 -10.13337,8.36902 -12.62744,13 -2.82095,4.12879 -4.29624,8.79132 -5.89118,13.5 -2.85471,8.58189 -2.99379,9.78977 -2.99379,26 0,9.35 0.49789,19.025 1.10643,21.5 2.05385,8.35325 6.56692,16.31646 12.82126,22.62282 9.7731,9.8544 14.25881,11.46562 33.57231,12.05879 9.31775,1.11142 17.70222,-1.20669 27,-1.23161 10.30607,-0.0448 12.07101,-0.32349 17,-2.68425 18.23169,-6.23342 33.66813,-17.99305 41.69829,-35.76575 1.68049,-4.62546 1.60385,-22.93821 -0.12629,-30.17504 -5.10069,-15.66091 -13.96576,-32.47712 -28.12325,-41.84445 -11.44962,-6.46659 -25.6916,-11.3767 -38.72879,-7.50848 -4.72973,-0.5871 -12.24162,9.207 -15.25105,6.41247"
       style="fill:#d45500;fill-opacity:1"
       inkscape:connector-curvature="0" />
    <path
       sodipodi:nodetypes="cscscccc"
       id="path3226"
       d="m 142.20974,131.32943 c -2.38722,-0.18415 -5.5187,-4.24277 -5.56867,-8.60903 -0.0753,-6.57978 -12.30576,-9.04471 -12.26815,-11.74806 2.83454,1.60947 5.388,2.76549 9.40278,2.69444 3.83054,-0.0678 6.13274,-3.21759 11.96644,0.0936 -3.8273,9.77978 6.21605,15.28185 6.21605,15.28185 l -8.63734,2.00946 -1.11111,0.27774 z"
       style="fill:url(#linearGradient6740);fill-opacity:1;fill-rule:evenodd;stroke:#000000;stroke-width:0;stroke-linecap:butt;stroke-linejoin:miter;stroke-miterlimit:4;stroke-opacity:1;stroke-dasharray:none"
       inkscape:connector-curvature="0" />
    <path
       sodipodi:nodetypes="cccsc"
       id="path2861-0-1"
       d="m 138.53827,129.43324 c -26.14448,-10.32433 -41.483258,30.97694 -38.930511,60.27777 5.652191,52.01001 30.569641,51.66823 59.838721,51.38891 25.65797,-7.50154 -18.94254,-29.58876 -22.92709,-48.88891 -4.12295,-19.97053 32.94873,-53.15921 2.01888,-62.77777 z"
       style="fill:url(#radialGradient6742);fill-opacity:1;stroke:none"
       inkscape:connector-curvature="0" />
    <path
       sodipodi:nodetypes="cczsc"
       id="path2861-0-1-7"
       d="m 140.76049,131.37769 c -20.54328,-2.94619 -26.94654,30.19443 -25.87495,58.33332 -1.19948,35.64101 27.30841,52.97347 40.39427,51.11113 13.08586,-1.86234 0.50281,-29.3095 -3.48264,-48.61113 -4.12354,-19.97041 -1.66146,-58.89493 -11.03668,-60.83332 z"
       style="fill:url(#radialGradient6744);fill-opacity:1;stroke:none"
       inkscape:connector-curvature="0" />
    <path
       sodipodi:nodetypes="cszsc"
       id="path2861-0-1-7-0-6"
       d="m 149.32137,128.80991 c 23.0404,-27.66546 80.03054,3.99172 87.4709,43.5969 8.36484,44.52623 -40.93505,68.23121 -52.64088,66.39075 -11.70583,-1.84047 12.9422,-33.88488 11.28809,-53.52251 -1.71158,-20.31972 -54.55832,-51.94685 -46.11811,-56.46514 z"
       style="fill:url(#radialGradient6746);fill-opacity:1;stroke:none"
       inkscape:connector-curvature="0" />
    <path
       sodipodi:nodetypes="cczsc"
       id="path2861-0-1-7-0-2"
       d="m 158.42002,125.98973 c 18.75617,-8.88326 46.88574,25.05351 54.17428,52.25319 11.67449,33.69477 -17.54002,60.89382 -28.85862,60.84396 -11.3186,-0.0499 -3.77265,-27.93583 -5.66723,-47.55172 -1.96041,-20.29723 -28.03265,-60.92408 -19.64843,-65.54543 z"
       style="fill:url(#radialGradient6748);fill-opacity:1;stroke:none"
       inkscape:connector-curvature="0" />
    <path
       sodipodi:nodetypes="cszsc"
       id="path2861-0-1-7-0"
       d="m 148.53827,130.14055 c -12.80216,1.39666 -9.51167,22.37806 -8.09717,50.4038 1.79048,35.47513 15.26618,62.29231 30.39427,58.33335 15.12809,-3.95896 12.72414,-28.47765 8.73958,-47.7778 -4.12295,-19.97053 -16.20751,-64.14698 -31.03668,-60.95935 z"
       style="fill:url(#radialGradient6750);fill-opacity:1;stroke:none"
       inkscape:connector-curvature="0" />
    <path
       sodipodi:nodetypes="cccc"
       id="path3666"
       d="m 155.76168,161.37769 17.77778,13.61111 c -6.33862,8.13054 -18.9261,7.90413 -22.5,3.88889 l 4.72222,-17.5 z"
       style="fill:url(#linearGradient6752);fill-opacity:1;stroke:none"
       inkscape:connector-curvature="0" />
    <path
       sodipodi:nodetypes="ccc"
       id="path3676"
       d="m 182.15057,144.9888 c 19.46524,-5.66951 16.69405,28.32758 -6.94444,20 9.18656,-6.66666 15.38453,-13.33333 6.94444,-20 z"
       style="fill:url(#linearGradient6754);fill-opacity:1;stroke:none"
       inkscape:connector-curvature="0" />
    <path
       sodipodi:nodetypes="ccc"
       id="path3676-7"
       d="m 128.38065,155.26658 c -16.56108,1.21526 -9.87542,31.10755 13.33333,17.22222 -17.35124,-0.54316 -21.85671,-10.49308 -13.33333,-17.22222 z"
       style="fill:url(#linearGradient6756);fill-opacity:1;stroke:none"
       inkscape:connector-curvature="0" />
    <path
       sodipodi:nodetypes="cssc"
       id="path3724"
       d="m 131.87279,188.59991 c -10.01248,2.74567 -1.21778,28.74684 12.22223,37.77778 18.31498,12.30666 66.11944,0.2728 51.66666,-50.83333 -3.58884,-12.69043 -18.85459,41.2603 -63.88889,13.05555 z"
       style="fill:url(#linearGradient6758);fill-opacity:1;stroke:none"
       inkscape:connector-curvature="0" />
    <path
       sodipodi:nodetypes="ccccccsscccccccc"
       d="m 155.76168,162.21103 -4.72222,16.38888 c 5.96054,2.82928 13.0191,2.2532 17.5,-3.05555 l -12.77778,-13.33333 z m -16.801,27.60118 c 24.61162,6.68046 36.20498,-2.45408 49.14196,-11.61977 5.84964,-4.15354 10.55181,-16.0459 4.00823,27.83904 -2.37572,15.93292 -34.59849,28.9956 -51.21356,10.65146 -8.62229,-9.51958 -22.35727,-34.8673 -1.93663,-26.87073 z m 3.77591,-17.69493 c -6.91443,-1.22939 -20.54624,-7.49501 -14.27524,-17.72007 -16.55208,5.33891 -2.94714,23.24401 14.27524,17.72003 l 0,4e-5 z m 32.46954,-7.40625 c 4.24275,-3.08292 13.38546,-12.61305 5.83333,-19.72223 18.69026,-3.20299 11.98348,19.19247 -5.83333,19.72223 z"
       style="fill:url(#radialGradient6831);fill-opacity:1;stroke:none"
       id="path2876"
       inkscape:connector-curvature="0" />
  </g>
</svg>
