<?xml version="1.0" encoding="UTF-8" standalone="no"?>
<!-- Created with Inkscape (http://www.inkscape.org/) -->

<svg
   xmlns:dc="http://purl.org/dc/elements/1.1/"
   xmlns:cc="http://creativecommons.org/ns#"
   xmlns:rdf="http://www.w3.org/1999/02/22-rdf-syntax-ns#"
   xmlns:svg="http://www.w3.org/2000/svg"
   xmlns="http://www.w3.org/2000/svg"
   xmlns:xlink="http://www.w3.org/1999/xlink"
   xmlns:sodipodi="http://sodipodi.sourceforge.net/DTD/sodipodi-0.dtd"
   xmlns:inkscape="http://www.inkscape.org/namespaces/inkscape"
   version="1.0"
   width="197.98587"
   height="34.258617"
   id="svg2"
   sodipodi:version="0.32"
   inkscape:version="0.47 r22583"
   sodipodi:docname="logo-wiosna.svg"
   inkscape:output_extension="org.inkscape.output.svg.inkscape"
   inkscape:export-filename="/home/filips/svn/geokrety/templates/logo/logo-wiosna.png"
   inkscape:export-xdpi="105.08305"
   inkscape:export-ydpi="105.08305">
  <metadata
     id="metadata32">
    <rdf:RDF>
      <cc:Work
         rdf:about="">
        <dc:format>image/svg+xml</dc:format>
        <dc:type
           rdf:resource="http://purl.org/dc/dcmitype/StillImage" />
        <dc:title></dc:title>
      </cc:Work>
    </rdf:RDF>
  </metadata>
  <sodipodi:namedview
     inkscape:window-height="748"
     inkscape:window-width="1250"
     inkscape:pageshadow="2"
     inkscape:pageopacity="0.0"
     guidetolerance="10.0"
     gridtolerance="10.0"
     objecttolerance="10.0"
     borderopacity="1.0"
     bordercolor="#666666"
     pagecolor="#ffffff"
     id="base"
     showgrid="false"
     inkscape:zoom="2.7081461"
     inkscape:cx="85.923643"
     inkscape:cy="35.186136"
     inkscape:window-x="26"
     inkscape:window-y="-3"
     inkscape:current-layer="svg2"
     inkscape:window-maximized="1" />
  <defs
     id="defs4">
    <inkscape:perspective
       sodipodi:type="inkscape:persp3d"
       inkscape:vp_x="0 : 17.129309 : 1"
       inkscape:vp_y="0 : 1000 : 0"
       inkscape:vp_z="197.98587 : 17.129309 : 1"
       inkscape:persp3d-origin="98.992935 : 11.419539 : 1"
       id="perspective34" />
    <inkscape:perspective
       id="perspective2736"
       inkscape:persp3d-origin="372.04724 : 350.78739 : 1"
       inkscape:vp_z="744.09448 : 526.18109 : 1"
       inkscape:vp_y="0 : 1000 : 0"
       inkscape:vp_x="0 : 526.18109 : 1"
       sodipodi:type="inkscape:persp3d" />
    <inkscape:perspective
       id="perspective3687"
       inkscape:persp3d-origin="372.04724 : 350.78739 : 1"
       inkscape:vp_z="744.09448 : 526.18109 : 1"
       inkscape:vp_y="0 : 1000 : 0"
       inkscape:vp_x="0 : 526.18109 : 1"
       sodipodi:type="inkscape:persp3d" />
    <inkscape:perspective
       id="perspective3249"
       inkscape:persp3d-origin="0.5 : 0.33333333 : 1"
       inkscape:vp_z="1 : 0.5 : 1"
       inkscape:vp_y="0 : 1000 : 0"
       inkscape:vp_x="0 : 0.5 : 1"
       sodipodi:type="inkscape:persp3d" />
    <inkscape:perspective
       id="perspective2824"
       inkscape:persp3d-origin="0.5 : 0.33333333 : 1"
       inkscape:vp_z="1 : 0.5 : 1"
       inkscape:vp_y="0 : 1000 : 0"
       inkscape:vp_x="0 : 0.5 : 1"
       sodipodi:type="inkscape:persp3d" />
    <inkscape:perspective
       id="perspective2838"
       inkscape:persp3d-origin="0.5 : 0.33333333 : 1"
       inkscape:vp_z="1 : 0.5 : 1"
       inkscape:vp_y="0 : 1000 : 0"
       inkscape:vp_x="0 : 0.5 : 1"
       sodipodi:type="inkscape:persp3d" />
    <inkscape:perspective
       id="perspective3781"
       inkscape:persp3d-origin="0.5 : 0.33333333 : 1"
       inkscape:vp_z="1 : 0.5 : 1"
       inkscape:vp_y="0 : 1000 : 0"
       inkscape:vp_x="0 : 0.5 : 1"
       sodipodi:type="inkscape:persp3d" />
    <filter
       color-interpolation-filters="sRGB"
       id="filter45478">
      <feGaussianBlur
         id="feGaussianBlur45480"
         stdDeviation="1.0311306"
         inkscape:collect="always" />
    </filter>
    <linearGradient
       x1="-142.24962"
       y1="924.2464"
       x2="-142.24962"
       y2="1008.7444"
       id="linearGradient45395"
       xlink:href="#linearGradient45397"
       gradientUnits="userSpaceOnUse"
       gradientTransform="matrix(1.0071448,0,0,1.0071448,1.1622629,-6.9076778)" />
    <linearGradient
       id="linearGradient45397">
      <stop
         id="stop45399"
         style="stop-color:#f80000;stop-opacity:1"
         offset="0" />
      <stop
         id="stop45401"
         style="stop-color:#f74f4f;stop-opacity:1"
         offset="1" />
    </linearGradient>
    <radialGradient
       cx="64.585625"
       cy="64.20507"
       r="47.328125"
       fx="64.585625"
       fy="64.20507"
       id="radialGradient45434"
       xlink:href="#linearGradient45426"
       gradientUnits="userSpaceOnUse"
       gradientTransform="matrix(-6.1526273e-7,0.7769902,-1.0349248,0,131.03309,13.733943)" />
    <linearGradient
       id="linearGradient45426">
      <stop
         id="stop45428"
         style="stop-color:#f20000;stop-opacity:1"
         offset="0" />
      <stop
         id="stop45430"
         style="stop-color:#bf0000;stop-opacity:1"
         offset="1" />
    </linearGradient>
    <linearGradient
       x1="-142.24962"
       y1="921.46686"
       x2="-142.24962"
       y2="1011.369"
       id="linearGradient45381"
       xlink:href="#linearGradient45375"
       gradientUnits="userSpaceOnUse" />
    <linearGradient
       id="linearGradient45375">
      <stop
         id="stop45377"
         style="stop-color:#663333;stop-opacity:1"
         offset="0" />
      <stop
         id="stop45379"
         style="stop-color:#8c0000;stop-opacity:1"
         offset="1" />
    </linearGradient>
    <linearGradient
       x1="42.164707"
       y1="23.759478"
       x2="42.164707"
       y2="74.565262"
       id="linearGradient45462"
       xlink:href="#linearGradient45456"
       gradientUnits="userSpaceOnUse" />
    <linearGradient
       id="linearGradient45456">
      <stop
         id="stop45458"
         style="stop-color:#ffe9e9;stop-opacity:1"
         offset="0" />
      <stop
         id="stop45460"
         style="stop-color:#fe4242;stop-opacity:1"
         offset="1" />
    </linearGradient>
    <inkscape:perspective
       id="perspective4072"
       inkscape:persp3d-origin="0.5 : 0.33333333 : 1"
       inkscape:vp_z="1 : 0.5 : 1"
       inkscape:vp_y="0 : 1000 : 0"
       inkscape:vp_x="0 : 0.5 : 1"
       sodipodi:type="inkscape:persp3d" />
    <inkscape:perspective
       id="perspective4251"
       inkscape:persp3d-origin="0.5 : 0.33333333 : 1"
       inkscape:vp_z="1 : 0.5 : 1"
       inkscape:vp_y="0 : 1000 : 0"
       inkscape:vp_x="0 : 0.5 : 1"
       sodipodi:type="inkscape:persp3d" />
    <inkscape:perspective
       id="perspective2470"
       inkscape:persp3d-origin="526.18109 : 248.03149 : 1"
       inkscape:vp_z="1052.3622 : 372.04724 : 1"
       inkscape:vp_y="0 : 1000 : 0"
       inkscape:vp_x="0 : 372.04724 : 1"
       sodipodi:type="inkscape:persp3d" />
    <inkscape:perspective
       id="perspective3753"
       inkscape:persp3d-origin="372.04724 : 350.78739 : 1"
       inkscape:vp_z="744.09448 : 526.18109 : 1"
       inkscape:vp_y="0 : 1000 : 0"
       inkscape:vp_x="0 : 526.18109 : 1"
       sodipodi:type="inkscape:persp3d" />
    <inkscape:perspective
       id="perspective4935"
       inkscape:persp3d-origin="0.5 : 0.33333333 : 1"
       inkscape:vp_z="1 : 0.5 : 1"
       inkscape:vp_y="0 : 1000 : 0"
       inkscape:vp_x="0 : 0.5 : 1"
       sodipodi:type="inkscape:persp3d" />
    <inkscape:perspective
       id="perspective5048"
       inkscape:persp3d-origin="0.5 : 0.33333333 : 1"
       inkscape:vp_z="1 : 0.5 : 1"
       inkscape:vp_y="0 : 1000 : 0"
       inkscape:vp_x="0 : 0.5 : 1"
       sodipodi:type="inkscape:persp3d" />
    <inkscape:perspective
       id="perspective5101"
       inkscape:persp3d-origin="0.5 : 0.33333333 : 1"
       inkscape:vp_z="1 : 0.5 : 1"
       inkscape:vp_y="0 : 1000 : 0"
       inkscape:vp_x="0 : 0.5 : 1"
       sodipodi:type="inkscape:persp3d" />
    <inkscape:perspective
       id="perspective5298"
       inkscape:persp3d-origin="0.5 : 0.33333333 : 1"
       inkscape:vp_z="1 : 0.5 : 1"
       inkscape:vp_y="0 : 1000 : 0"
       inkscape:vp_x="0 : 0.5 : 1"
       sodipodi:type="inkscape:persp3d" />
    <inkscape:perspective
       id="perspective5441"
       inkscape:persp3d-origin="0.5 : 0.33333333 : 1"
       inkscape:vp_z="1 : 0.5 : 1"
       inkscape:vp_y="0 : 1000 : 0"
       inkscape:vp_x="0 : 0.5 : 1"
       sodipodi:type="inkscape:persp3d" />
    <inkscape:perspective
       id="perspective5572"
       inkscape:persp3d-origin="0.5 : 0.33333333 : 1"
       inkscape:vp_z="1 : 0.5 : 1"
       inkscape:vp_y="0 : 1000 : 0"
       inkscape:vp_x="0 : 0.5 : 1"
       sodipodi:type="inkscape:persp3d" />
    <inkscape:perspective
       id="perspective5841"
       inkscape:persp3d-origin="0.5 : 0.33333333 : 1"
       inkscape:vp_z="1 : 0.5 : 1"
       inkscape:vp_y="0 : 1000 : 0"
       inkscape:vp_x="0 : 0.5 : 1"
       sodipodi:type="inkscape:persp3d" />
    <inkscape:perspective
       id="perspective3532"
       inkscape:persp3d-origin="0.5 : 0.33333333 : 1"
       inkscape:vp_z="1 : 0.5 : 1"
       inkscape:vp_y="0 : 1000 : 0"
       inkscape:vp_x="0 : 0.5 : 1"
       sodipodi:type="inkscape:persp3d" />
    <inkscape:perspective
       id="perspective3621"
       inkscape:persp3d-origin="0.5 : 0.33333333 : 1"
       inkscape:vp_z="1 : 0.5 : 1"
       inkscape:vp_y="0 : 1000 : 0"
       inkscape:vp_x="0 : 0.5 : 1"
       sodipodi:type="inkscape:persp3d" />
    <inkscape:perspective
       id="perspective3707"
       inkscape:persp3d-origin="0.5 : 0.33333333 : 1"
       inkscape:vp_z="1 : 0.5 : 1"
       inkscape:vp_y="0 : 1000 : 0"
       inkscape:vp_x="0 : 0.5 : 1"
       sodipodi:type="inkscape:persp3d" />
    <inkscape:perspective
       id="perspective5046"
       inkscape:persp3d-origin="0.5 : 0.33333333 : 1"
       inkscape:vp_z="1 : 0.5 : 1"
       inkscape:vp_y="0 : 1000 : 0"
       inkscape:vp_x="0 : 0.5 : 1"
       sodipodi:type="inkscape:persp3d" />
    <inkscape:perspective
       id="perspective5095"
       inkscape:persp3d-origin="0.5 : 0.33333333 : 1"
       inkscape:vp_z="1 : 0.5 : 1"
       inkscape:vp_y="0 : 1000 : 0"
       inkscape:vp_x="0 : 0.5 : 1"
       sodipodi:type="inkscape:persp3d" />
  </defs>
  <image
     sodipodi:absref="/home/filips/svn/geokrety/templates/logo/grass.png"
     xlink:href="grass.png"
     inkscape:export-ydpi="130.90273"
     inkscape:export-xdpi="130.90273"
     inkscape:export-filename="/home/filips/svn/geokrety/templates/logo/logo-wiosna.png"
     y="-0.14700307"
     x="0.20597993"
     id="image3697"
     height="34.278294"
     width="268.91898" />
  <g
     id="g15767"
     transform="matrix(0.2230704,0,0,0.2322423,46.969368,6.5451007)"
     inkscape:export-filename="/home/filips/svn/geokrety/templates/logo/logo-wiosna.png"
     inkscape:export-xdpi="130.90273"
     inkscape:export-ydpi="130.90273">
    <polygon
       transform="matrix(1.8020893,-0.1634812,0.1634812,1.8020893,-298.8125,-111.4466)"
       style="fill:#ffffff;fill-rule:nonzero;stroke-linecap:round;stroke-linejoin:round"
       class="fil59"
       points="151.143,106.696 151.073,106.766 151.143,106.696 "
       id="polygon2819" />
    <polygon
       transform="matrix(1.8020893,-0.1634812,0.1634812,1.8020893,-298.8125,-111.4466)"
       style="fill:#ffffff;fill-rule:nonzero;stroke-linecap:round;stroke-linejoin:round"
       class="fil59"
       points="151.955,106.908 152.06,107.049 151.955,106.908 "
       id="polygon2821" />
    <polygon
       transform="matrix(1.8020893,-0.1634812,0.1634812,1.8020893,-298.8125,-111.4466)"
       style="fill:#ffffff;fill-rule:nonzero;stroke-linecap:round;stroke-linejoin:round"
       class="fil59"
       points="147.686,117.844 147.545,117.914 147.686,117.844 "
       id="polygon2823" />
    <path
       sodipodi:nodetypes="cssz"
       id="path2825"
       d="M -79.4383,41.734855 C -65.271766,52.257641 -16.998351,82.84439 -12.71995,90.448659 C -9.5091385,96.155432 -16.61309,106.92599 -22.070991,104.8329 C -33.802516,100.3339 -28.538218,94.655651 -77.931107,57.340667"
       style="fill:#e9c642;fill-opacity:1;fill-rule:evenodd;stroke:#000000;stroke-width:2.81500006;stroke-linecap:round;stroke-linejoin:round;stroke-miterlimit:4;stroke-dasharray:none;stroke-opacity:1" />
    <path
       sodipodi:nodetypes="cscszczzzzzzzzzczzzzzz"
       id="path2827"
       d="M -77.634427,85.689881 C -75.225706,84.463375 -64.695395,82.57159 -62.481237,79.707255 C -60.267605,76.843599 -61.807466,73.375307 -60.79779,70.964798 C -58.209285,72.843818 -53.791405,73.876445 -52.294355,73.229633 C -50.890766,72.623202 -47.728803,67.416718 -47.7032,65.370919 C -47.677598,63.325109 -49.812074,61.762336 -51.155325,61.005459 C -45.63657,57.552829 -42.13148,57.593275 -38.197571,58.496393 C -34.263663,59.399511 -35.395899,61.668673 -33.204398,63.009063 C -31.066471,64.316685 -29.349056,63.6435 -27.967583,64.912317 C -26.58611,66.181134 -26.376623,68.33181 -24.867266,69.991223 C -23.321076,71.691132 -22.168224,70.902181 -20.464508,73.015609 C -18.76079,75.129037 -19.311871,76.317782 -18.19896,78.664803 C -17.086048,81.011834 -14.188166,79.89819 -17.298876,85.688362 C -20.315615,91.303608 -23.935212,94.282349 -26.428452,96.164522 C -28.983967,98.093714 -34.845869,99.808118 -36.140775,98.629599 C -37.685268,97.22392 -37.019997,97.339096 -36.568551,95.966144 C -37.818335,96.475521 -38.477557,97.077602 -40.853661,97.473152 C -43.229764,97.868703 -43.758725,97.196695 -44.735518,95.953309 C -45.71231,94.709924 -43.524003,91.847422 -44.76083,92.499622 C -45.997657,93.151822 -45.865152,96.199786 -49.682827,98.562111 C -53.500503,100.92443 -59.467208,103.68872 -64.255122,104.48306 C -69.043036,105.2774 -72.074006,102.14138 -74.274745,102.08902"
       style="fill:#d4af8b;fill-opacity:1;fill-rule:evenodd;stroke:#000000;stroke-width:2.81500006;stroke-linecap:round;stroke-linejoin:round;stroke-miterlimit:4;stroke-dasharray:none;stroke-opacity:1" />
    <path
       sodipodi:nodetypes="cszz"
       id="path2829"
       d="M -57.646164,81.235683 C -51.145445,87.429425 -40.925237,96.551992 -32.688478,95.653113 C -28.855314,95.235682 -35.753515,81.651567 -41.195349,76.364767 C -46.637184,71.077967 -53.960729,74.144265 -55.960082,75.381439"
       style="fill:none;fill-opacity:0.75;fill-rule:evenodd;stroke:#000000;stroke-width:2.81500006;stroke-linecap:round;stroke-linejoin:round;stroke-miterlimit:4;stroke-dasharray:none;stroke-opacity:1" />
    <path
       sodipodi:nodetypes="cz"
       id="path2831"
       d="M -40.681261,76.212549 C -39.260325,75.73036 -36.451694,72.486614 -35.891209,67.331664"
       style="fill:none;fill-opacity:0.75;fill-rule:evenodd;stroke:#000000;stroke-width:2.81500006;stroke-linecap:round;stroke-linejoin:round;stroke-miterlimit:4;stroke-dasharray:none;stroke-opacity:1" />
    <path
       sodipodi:nodetypes="cz"
       id="path2833"
       d="M -34.331917,85.085243 C -31.532034,81.931105 -28.354551,77.880543 -27.766313,74.270568"
       style="fill:none;fill-opacity:0.75;fill-rule:evenodd;stroke:#000000;stroke-width:2.81500006;stroke-linecap:round;stroke-linejoin:round;stroke-miterlimit:4;stroke-dasharray:none;stroke-opacity:1" />
    <path
       sodipodi:nodetypes="cz"
       id="path2835"
       d="M -31.269709,93.835147 C -26.578812,90.56099 -23.347373,86.645088 -21.855797,82.489985"
       style="fill:none;fill-opacity:0.75;fill-rule:evenodd;stroke:#000000;stroke-width:2.81500006;stroke-linecap:round;stroke-linejoin:round;stroke-miterlimit:4;stroke-dasharray:none;stroke-opacity:1" />
    <g
       transform="matrix(0.702831,3.7163548e-2,-3.7163548e-2,0.702831,-275.97308,-686.68328)"
       id="g2837">
      <path
         style="opacity:1;fill:#667b58;fill-opacity:1;fill-rule:evenodd;stroke:#000000;stroke-width:4;stroke-linecap:butt;stroke-linejoin:round;stroke-miterlimit:4;stroke-dasharray:none;stroke-opacity:1"
         d="M 291.29335,966.00527 L 252.61617,1040.1833 L 205.71775,1025.7961 L 150.41126,971.7975 L 223.09446,944.14426 L 291.29335,966.00527 z"
         id="path2839"
         sodipodi:nodetypes="cccccc" />
      <path
         style="opacity:1;fill:#c5c5c5;fill-opacity:1;fill-rule:evenodd;stroke:#000000;stroke-width:4;stroke-linecap:butt;stroke-linejoin:round;stroke-miterlimit:4;stroke-dasharray:none;stroke-opacity:1"
         d="M 205.71775,1025.7961 L 150.41126,971.79749 L 223.09446,944.14425 L 245.42215,951.6338 L 177.66932,977.12969 L 226.97716,1032.1482 L 205.71775,1025.7961 z"
         id="path2841"
         sodipodi:nodetypes="ccccccc" />
      <path
         style="fill:#667b58;fill-opacity:1;fill-rule:evenodd;stroke:#000000;stroke-width:4;stroke-linecap:butt;stroke-linejoin:round;stroke-miterlimit:4;stroke-dasharray:none;stroke-opacity:1"
         d="M 288.17968,1000.584 L 278.98243,1020.2322 C 263.77968,1010.4249 217.31948,992.73682 226.58677,983.76771 C 235.999,974.65833 265.00274,987.54157 288.17968,1000.584 z"
         id="path2843"
         sodipodi:nodetypes="cczc" />
    </g>
    <path
       sodipodi:nodetypes="cccszscccczzc"
       id="path2845"
       d="M -64.623652,62.930554 C -66.456684,68.179661 -67.840387,89.6045 -61.136238,105.6375 C -115.97415,103.81315 -119.16586,83.734739 -160.21029,74.868976 C -154.55315,61.486426 -147.2576,54.440235 -135.3177,44.916252 C -129.9827,40.660732 -123.45644,32.72938 -118.26292,27.617798 C -113.0694,22.506216 -108.72745,18.886839 -102.6931,16.341167 C -91.569077,11.64835 -75.805061,12.823941 -66.178093,21.447259 C -69.033314,22.126579 -75.947544,21.340983 -75.894357,26.396471 C -75.389646,32.103972 -79.900467,34.706531 -83.860316,37.740668 C -86.438291,40.411287 -84.960037,44.52268 -88.777828,46.06037 C -88.957251,50.633184 -87.182594,55.046794 -84.585904,59.102094 C -81.874726,63.336162 -79.057053,66.063015 -75.20783,68.562395 C -71.358607,71.061846 -67.071,65.804434 -64.623652,62.930554 z"
       style="fill:#5d5d5d;fill-opacity:1;fill-rule:evenodd;stroke:#000000;stroke-width:2.81525159;stroke-linecap:butt;stroke-linejoin:round;stroke-miterlimit:4;stroke-dasharray:none;stroke-opacity:1" />
    <path
       sodipodi:nodetypes="ccccczzczccczz"
       id="path2847"
       d="M -64.873618,62.627422 C -68.108504,66.132974 -71.608573,70.758713 -75.457796,68.259263 C -79.307019,65.759882 -82.124692,63.03303 -84.835871,58.798962 C -87.43256,54.743662 -89.207217,50.330051 -89.027794,45.757238 C -85.210003,44.219548 -86.688257,40.108154 -84.110282,37.437536 C -80.150433,34.403399 -75.639612,31.80084 -76.144323,26.093339 C -76.19751,21.037781 -68.16709,21.882356 -66.242084,21.98096 C -64.22433,22.084351 -53.110118,23.524985 -49.465549,23.316305 C -46.943323,21.527212 -44.230314,18.550084 -42.576952,17.52125 C -40.966657,16.519232 -38.828452,14.01415 -36.794179,14.751676 C -30.439713,15.1696 -31.979036,22.423588 -32.32401,27.19171 C -33.238545,33.430941 -41.648025,35.120725 -50.000419,41.283944 C -56.191235,45.988159 -55.649798,46.374693 -59.368098,51.71058 C -63.086398,57.046467 -61.638732,59.121871 -64.873618,62.627422 z"
       style="fill:#d4af8b;fill-opacity:1;fill-rule:evenodd;stroke:#000000;stroke-width:2.81525159;stroke-linecap:butt;stroke-linejoin:round;stroke-miterlimit:4;stroke-dasharray:none;stroke-opacity:1" />
    <path
       sodipodi:nodetypes="cc"
       id="path2849"
       d="M -38.082516,21.963435 C -37.952191,25.155579 -39.111406,27.283839 -40.958739,28.075417"
       style="fill:none;fill-opacity:0.75;fill-rule:evenodd;stroke:#000000;stroke-width:3.51906443;stroke-linecap:round;stroke-linejoin:miter;stroke-miterlimit:4;stroke-dasharray:none;stroke-opacity:1" />
    <path
       sodipodi:nodetypes="cccccccc"
       style="fill:#000000;fill-rule:nonzero;stroke:#000000;stroke-width:2.81525159;stroke-linecap:round;stroke-linejoin:round;stroke-miterlimit:4;stroke-dasharray:none;stroke-opacity:1"
       class="fil58"
       d="M -70.035044,50.037617 C -68.931395,50.000948 -63.039088,47.394729 -62.244976,46.994189 C -64.149944,50.30218 -65.622236,51.000715 -67.586634,55.274407 C -68.452085,57.633307 -70.000431,60.737896 -72.542955,62.306906 C -76.307221,59.559431 -76.633304,54.192858 -78.372356,50.144174 C -83.113422,47.104336 -86.30881,41.897317 -90.626442,42.682983 C -91.652777,40.310712 -90.072647,38.437584 -90.023697,36.25323 C -88.042956,46.509755 -75.600459,50.158039 -70.035044,50.037617 z"
       id="path2851" />
    <path
       style="fill:#ffffff;fill-rule:nonzero"
       class="fil59"
       d="M -68.470517,56.305845 C -69.131187,56.86784 -74.068927,57.093553 -75.232541,56.822233 C -75.688963,55.811276 -76.06311,52.780869 -76.698161,51.575096 C -75.814031,51.597126 -67.606517,52.304528 -64.853834,49.876092 C -66.037366,51.071448 -68.850225,56.440062 -68.470517,56.305845 L -68.470517,56.305845 z"
       id="path2853" />
    <path
       sodipodi:nodetypes="czzc"
       id="path2855"
       d="M -96.300004,30.03441 C -92.747685,29.006069 -92.056977,27.14378 -88.937361,25.920975 C -85.817746,24.698171 -85.804782,24.888341 -83.821535,25.143262 C -81.838289,25.398183 -81.004377,26.94073 -81.004377,26.94073"
       style="fill:none;fill-opacity:0.75;fill-rule:evenodd;stroke:#000000;stroke-width:2.81500006;stroke-linecap:round;stroke-linejoin:round;stroke-miterlimit:4;stroke-dasharray:none;stroke-opacity:1" />
  </g>
  <g
     style="fill:#ffd400;fill-opacity:1"
     transform="matrix(0.19130287,0,0,0.14886395,45.84036,-0.54573131)"
     id="g3950"
     inkscape:export-filename="/home/filips/svn/geokrety/templates/logo/logo-wiosna.png"
     inkscape:export-xdpi="130"
     inkscape:export-ydpi="130">
    <g
       style="fill:#ffd400;fill-opacity:1"
       id="g3952">
      <path
         style="fill:#ffd400;fill-opacity:1"
         id="path3954"
         d="m 668.588,74.617 c 0,0 -23.128,-34.584 20.567,-67.36 8.178,25.802 1.37,52.648 -20.567,67.36 z" />
      <path
         style="fill:#ffd400;fill-opacity:1"
         id="path3956"
         d="m 664.054,85.565 c 0,0 -40.81,-8.101 -33.087,-62.176 24.026,12.465 38.195,36.26 33.087,62.176 z" />
      <path
         style="fill:#ffd400;fill-opacity:1"
         id="path3958"
         d="m 668.588,96.513 c 0,0 -34.584,23.128 -67.36,-20.569 25.801,-8.177 52.648,-1.37 67.36,20.569 z" />
      <path
         style="fill:#ffd400;fill-opacity:1"
         id="path3960"
         d="m 679.535,101.047 c 0,0 -8.1,40.81 -62.174,33.086 12.463,-24.026 36.259,-38.195 62.174,-33.086 z" />
      <path
         style="fill:#ffd400;fill-opacity:1"
         id="path3962"
         d="m 690.482,96.513 c 0,0 23.129,34.584 -20.568,67.36 -8.175,-25.803 -1.369,-52.648 20.568,-67.36 z" />
      <path
         style="fill:#ffd400;fill-opacity:1"
         id="path3964"
         d="m 695.018,85.565 c 0,0 40.809,8.101 33.087,62.175 -24.028,-12.464 -38.196,-36.26 -33.087,-62.175 z" />
      <path
         style="fill:#ffd400;fill-opacity:1"
         id="path3966"
         d="m 723.053,100.976 c 0,0 19.798,-3.354 25.599,22.362 -12.977,-1.497 -23.453,-9.796 -25.599,-22.362 z" />
      <path
         style="fill:#ffd400;fill-opacity:1"
         id="path3968"
         d="m 721.205,65.691 c 0,0 11.626,-16.37 33.913,-2.288 -10.236,8.116 -23.512,9.656 -33.913,2.288 z" />
      <path
         style="fill:#ffd400;fill-opacity:1"
         id="path3970"
         d="m 694.947,42.047 c 0,0 -3.354,-19.797 22.36,-25.597 -1.494,12.976 -9.795,23.452 -22.36,25.597 z" />
      <path
         style="fill:#ffd400;fill-opacity:1"
         id="path3972"
         d="m 659.661,43.896 c 0,0 -16.369,-11.627 -2.289,-33.912 8.118,10.233 9.658,23.51 2.289,33.912 z" />
      <path
         style="fill:#ffd400;fill-opacity:1"
         id="path3974"
         d="m 636.02,70.153 c 0,0 -19.799,3.354 -25.599,-22.362 12.975,1.498 23.452,9.796 25.599,22.362 z" />
      <path
         style="fill:#ffd400;fill-opacity:1"
         id="path3976"
         d="m 637.866,105.44 c 0,0 -11.627,16.369 -33.912,2.287 10.234,-8.117 23.511,-9.656 33.912,-2.287 z" />
      <path
         style="fill:#ffd400;fill-opacity:1"
         id="path3978"
         d="m 664.123,129.083 c 0,0 3.354,19.798 -22.361,25.598 1.497,-12.977 9.797,-23.453 22.361,-25.598 z" />
      <path
         style="fill:#ffd400;fill-opacity:1"
         id="path3980"
         d="m 699.41,127.234 c 0,0 16.369,11.628 2.289,33.912 -8.119,-10.234 -9.657,-23.51 -2.289,-33.912 z" />
      <path
         style="fill:#ffd400;fill-opacity:1"
         id="path3982"
         d="m 690.484,74.617 c 0,0 34.583,-23.128 67.36,20.569 -25.802,8.176 -52.649,1.369 -67.36,-20.569 z" />
      <path
         style="fill:#ffd400;fill-opacity:1"
         id="path3984"
         d="m 679.536,70.083 c 0,0 8.101,-40.81 62.176,-33.086 -12.465,24.025 -36.261,38.194 -62.176,33.086 z" />
      <circle
         style="fill:#ffd400;fill-opacity:1"
         sodipodi:ry="13.37"
         sodipodi:rx="13.37"
         sodipodi:cy="85.565002"
         sodipodi:cx="679.53601"
         d="m 692.90601,85.565002 c 0,7.384047 -5.98595,13.37 -13.37,13.37 -7.38405,0 -13.37,-5.985953 -13.37,-13.37 0,-7.384047 5.98595,-13.369999 13.37,-13.369999 7.38405,0 13.37,5.985952 13.37,13.369999 z"
         id="circle3986"
         r="13.37"
         cy="85.565002"
         cx="679.53601" />
    </g>
    <g
       style="fill:#ffd400;fill-opacity:1"
       id="g3988">
      <path
         style="fill:#ffd400;fill-opacity:1;stroke:#ffffff;stroke-width:1.22039998"
         id="path3990"
         d="m 669.35,71.236 c -1.624,-3.201 -4.377,-9.835 -4.544,-18.292 -0.3,-15.189 7.463,-29.225 23.077,-41.757 3.047,11.423 3.073,22.857 0.05,33.26 -3.164,10.889 -9.566,20.101 -18.583,26.789 l 0,0 z" />
      <path
         style="fill:#ffd400;fill-opacity:1;stroke:#ffffff;stroke-width:1.22039998"
         id="path3992"
         d="M 662.203,82.634 C 658.791,81.52 652.15,78.776 646.054,72.914 635.103,62.386 630.666,46.973 632.845,27.07 c 10.231,5.922 18.335,13.988 23.554,23.482 5.462,9.938 7.45,20.978 5.804,32.082 l 0,0 z" />
      <path
         style="fill:#ffd400;fill-opacity:1;stroke:#ffffff;stroke-width:1.22039998"
         id="path3994"
         d="m 646.102,100.302 c -14.883,0 -28.643,-7.762 -40.943,-23.084 5.715,-1.522 11.462,-2.292 17.127,-2.292 17.558,0 33.058,7.556 42.92,20.825 -3.303,1.675 -10.26,4.551 -19.104,4.551 l 0,0 z" />
      <path
         style="fill:#ffd400;fill-opacity:1;stroke:#ffffff;stroke-width:1.22039998"
         id="path3996"
         d="m 630.377,132.782 c -2.984,0 -6.113,-0.176 -9.336,-0.527 10.875,-18.801 28.595,-29.921 47.979,-29.921 2.511,0 5.054,0.189 7.587,0.566 -0.977,2.992 -3.205,8.464 -7.686,13.867 -8.816,10.626 -21.784,16.015 -38.544,16.015 l 0,0 z" />
      <path
         style="fill:#ffd400;fill-opacity:1;stroke:#ffffff;stroke-width:1.22039998"
         id="path3998"
         d="m 671.19,159.941 c -3.048,-11.422 -3.073,-22.855 -0.052,-33.258 3.164,-10.889 9.567,-20.102 18.584,-26.789 1.623,3.199 4.378,9.834 4.543,18.291 0.3,15.189 -7.461,29.226 -23.075,41.756 l 0,0 z" />
      <path
         style="fill:#ffd400;fill-opacity:1;stroke:#ffffff;stroke-width:1.22039998"
         id="path4000"
         d="m 726.227,144.06 c -10.23,-5.924 -18.335,-13.99 -23.554,-23.483 -5.462,-9.937 -7.45,-20.977 -5.802,-32.081 3.411,1.115 10.052,3.859 16.146,9.72 10.953,10.528 15.388,25.941 13.21,45.844 l 0,0 z" />
      <path
         style="fill:#ffd400;fill-opacity:1;stroke:#ffffff;stroke-width:1.22039998"
         id="path4002"
         d="m 745.477,120.448 c -9.739,-2.187 -17.037,-8.626 -19.539,-17.28 4.909,0.17 14.936,2.434 19.539,17.28 l 0,0 z" />
      <path
         style="fill:#ffd400;fill-opacity:1;stroke:#ffffff;stroke-width:1.22039998"
         id="path4004"
         d="m 736.06,68.116 c -3.968,0 -7.82,-1.003 -11.278,-2.919 2.22,-2.086 6.618,-5.185 13.147,-5.185 4.054,0 8.381,1.206 12.899,3.589 -4.633,2.931 -9.772,4.515 -14.768,4.515 l 0,0 z" />
      <path
         style="fill:#ffd400;fill-opacity:1;stroke:#ffffff;stroke-width:1.22039998"
         id="path4006"
         d="m 697.122,39.168 c 0.142,-4.735 2.281,-14.894 17.297,-19.546 -2.189,9.749 -8.635,17.05 -17.297,19.546 l 0,0 z" />
      <path
         style="fill:#ffd400;fill-opacity:1;stroke:#ffffff;stroke-width:1.22039998"
         id="path4008"
         d="m 659.165,40.323 c -3.249,-3.447 -8.922,-12.145 -1.593,-26.052 5.347,8.44 5.95,18.161 1.593,26.052 l 0,0 z" />
      <path
         style="fill:#ffd400;fill-opacity:1;stroke:#ffffff;stroke-width:1.22039998"
         id="path4010"
         d="m 633.135,67.96 c -4.905,-0.168 -14.938,-2.432 -19.541,-17.277 9.741,2.187 17.039,8.626 19.541,17.277 l 0,0 z" />
      <path
         style="fill:#ffd400;fill-opacity:1;stroke:#ffffff;stroke-width:1.22039998"
         id="path4012"
         d="m 621.143,111.118 c -4.054,0 -8.38,-1.205 -12.898,-3.589 4.633,-2.93 9.772,-4.515 14.771,-4.515 3.967,0 7.816,1.003 11.273,2.919 -2.221,2.086 -6.617,5.185 -13.146,5.185 l 0,0 z" />
      <path
         style="fill:#ffd400;fill-opacity:1;stroke:#ffffff;stroke-width:1.22039998"
         id="path4014"
         d="m 644.653,151.507 c 2.188,-9.748 8.634,-17.049 17.297,-19.545 -0.14,4.736 -2.276,14.896 -17.297,19.545 l 0,0 z" />
      <path
         style="fill:#ffd400;fill-opacity:1;stroke:#ffffff;stroke-width:1.22039998"
         id="path4016"
         d="m 701.497,156.86 c -5.344,-8.44 -5.948,-18.162 -1.59,-26.052 3.249,3.446 8.922,12.144 1.59,26.052 l 0,0 z" />
      <path
         style="fill:#ffd400;fill-opacity:1;stroke:#ffffff;stroke-width:1.22039998"
         id="path4018"
         d="m 736.785,96.204 c -17.557,0 -33.056,-7.556 -42.919,-20.825 3.304,-1.675 10.262,-4.552 19.104,-4.552 14.882,0 28.645,7.762 40.941,23.085 -5.713,1.522 -11.461,2.292 -17.126,2.292 l 0,0 z" />
      <path
         style="fill:#ffd400;fill-opacity:1;stroke:#ffffff;stroke-width:1.22039998"
         id="path4020"
         d="m 690.051,68.796 c -2.51,0 -5.052,-0.19 -7.585,-0.566 0.976,-2.991 3.205,-8.464 7.685,-13.866 8.818,-10.627 21.786,-16.016 38.547,-16.016 2.982,0 6.111,0.177 9.333,0.527 -10.876,18.801 -28.594,29.921 -47.98,29.921 l 0,0 z" />
      <path
         style="fill:#ffd400;fill-opacity:1;stroke:#ffffff;stroke-width:1.22039998"
         id="path4022"
         d="m 679.537,96.609 c -6.091,0 -11.045,-4.954 -11.045,-11.044 0,-6.089 4.954,-11.043 11.045,-11.043 6.089,0 11.043,4.954 11.043,11.043 0,6.09 -4.954,11.044 -11.043,11.044 l 0,0 z" />
    </g>
  </g>
  <g
     inkscape:export-ydpi="130"
     inkscape:export-xdpi="130"
     inkscape:export-filename="/home/filips/svn/geokrety/templates/logo/logo-wiosna.png"
     id="g4862"
     transform="matrix(0.17479885,0,0,0.14414851,-31.012189,-0.14225509)"
     style="fill:#ffd400;fill-opacity:1">
    <g
       id="g4864"
       style="fill:#ffd400;fill-opacity:1">
      <path
         d="m 668.588,74.617 c 0,0 -23.128,-34.584 20.567,-67.36 8.178,25.802 1.37,52.648 -20.567,67.36 z"
         id="path4866"
         style="fill:#ffd400;fill-opacity:1" />
      <path
         d="m 664.054,85.565 c 0,0 -40.81,-8.101 -33.087,-62.176 24.026,12.465 38.195,36.26 33.087,62.176 z"
         id="path4868"
         style="fill:#ffd400;fill-opacity:1" />
      <path
         d="m 668.588,96.513 c 0,0 -34.584,23.128 -67.36,-20.569 25.801,-8.177 52.648,-1.37 67.36,20.569 z"
         id="path4870"
         style="fill:#ffd400;fill-opacity:1" />
      <path
         d="m 679.535,101.047 c 0,0 -8.1,40.81 -62.174,33.086 12.463,-24.026 36.259,-38.195 62.174,-33.086 z"
         id="path4872"
         style="fill:#ffd400;fill-opacity:1" />
      <path
         d="m 690.482,96.513 c 0,0 23.129,34.584 -20.568,67.36 -8.175,-25.803 -1.369,-52.648 20.568,-67.36 z"
         id="path4874"
         style="fill:#ffd400;fill-opacity:1" />
      <path
         d="m 695.018,85.565 c 0,0 40.809,8.101 33.087,62.175 -24.028,-12.464 -38.196,-36.26 -33.087,-62.175 z"
         id="path4876"
         style="fill:#ffd400;fill-opacity:1" />
      <path
         d="m 723.053,100.976 c 0,0 19.798,-3.354 25.599,22.362 -12.977,-1.497 -23.453,-9.796 -25.599,-22.362 z"
         id="path4878"
         style="fill:#ffd400;fill-opacity:1" />
      <path
         d="m 721.205,65.691 c 0,0 11.626,-16.37 33.913,-2.288 -10.236,8.116 -23.512,9.656 -33.913,2.288 z"
         id="path4880"
         style="fill:#ffd400;fill-opacity:1" />
      <path
         d="m 694.947,42.047 c 0,0 -3.354,-19.797 22.36,-25.597 -1.494,12.976 -9.795,23.452 -22.36,25.597 z"
         id="path4882"
         style="fill:#ffd400;fill-opacity:1" />
      <path
         d="m 659.661,43.896 c 0,0 -16.369,-11.627 -2.289,-33.912 8.118,10.233 9.658,23.51 2.289,33.912 z"
         id="path4884"
         style="fill:#ffd400;fill-opacity:1" />
      <path
         d="m 636.02,70.153 c 0,0 -19.799,3.354 -25.599,-22.362 12.975,1.498 23.452,9.796 25.599,22.362 z"
         id="path4886"
         style="fill:#ffd400;fill-opacity:1" />
      <path
         d="m 637.866,105.44 c 0,0 -11.627,16.369 -33.912,2.287 10.234,-8.117 23.511,-9.656 33.912,-2.287 z"
         id="path4888"
         style="fill:#ffd400;fill-opacity:1" />
      <path
         d="m 664.123,129.083 c 0,0 3.354,19.798 -22.361,25.598 1.497,-12.977 9.797,-23.453 22.361,-25.598 z"
         id="path4890"
         style="fill:#ffd400;fill-opacity:1" />
      <path
         d="m 699.41,127.234 c 0,0 16.369,11.628 2.289,33.912 -8.119,-10.234 -9.657,-23.51 -2.289,-33.912 z"
         id="path4892"
         style="fill:#ffd400;fill-opacity:1" />
      <path
         d="m 690.484,74.617 c 0,0 34.583,-23.128 67.36,20.569 -25.802,8.176 -52.649,1.369 -67.36,-20.569 z"
         id="path4894"
         style="fill:#ffd400;fill-opacity:1" />
      <path
         d="m 679.536,70.083 c 0,0 8.101,-40.81 62.176,-33.086 -12.465,24.025 -36.261,38.194 -62.176,33.086 z"
         id="path4896"
         style="fill:#ffd400;fill-opacity:1" />
      <circle
         cx="679.53601"
         cy="85.565002"
         r="13.37"
         id="circle4898"
         d="m 692.90601,85.565002 c 0,7.384047 -5.98595,13.37 -13.37,13.37 -7.38405,0 -13.37,-5.985953 -13.37,-13.37 0,-7.384047 5.98595,-13.369999 13.37,-13.369999 7.38405,0 13.37,5.985952 13.37,13.369999 z"
         sodipodi:cx="679.53601"
         sodipodi:cy="85.565002"
         sodipodi:rx="13.37"
         sodipodi:ry="13.37"
         style="fill:#ffd400;fill-opacity:1" />
    </g>
    <g
       id="g4900"
       style="fill:#ffd400;fill-opacity:1">
      <path
         d="m 669.35,71.236 c -1.624,-3.201 -4.377,-9.835 -4.544,-18.292 -0.3,-15.189 7.463,-29.225 23.077,-41.757 3.047,11.423 3.073,22.857 0.05,33.26 -3.164,10.889 -9.566,20.101 -18.583,26.789 l 0,0 z"
         id="path4902"
         style="fill:#ffd400;fill-opacity:1;stroke:#ffffff;stroke-width:1.22039998" />
      <path
         d="M 662.203,82.634 C 658.791,81.52 652.15,78.776 646.054,72.914 635.103,62.386 630.666,46.973 632.845,27.07 c 10.231,5.922 18.335,13.988 23.554,23.482 5.462,9.938 7.45,20.978 5.804,32.082 l 0,0 z"
         id="path4904"
         style="fill:#ffd400;fill-opacity:1;stroke:#ffffff;stroke-width:1.22039998" />
      <path
         d="m 646.102,100.302 c -14.883,0 -28.643,-7.762 -40.943,-23.084 5.715,-1.522 11.462,-2.292 17.127,-2.292 17.558,0 33.058,7.556 42.92,20.825 -3.303,1.675 -10.26,4.551 -19.104,4.551 l 0,0 z"
         id="path4906"
         style="fill:#ffd400;fill-opacity:1;stroke:#ffffff;stroke-width:1.22039998" />
      <path
         d="m 630.377,132.782 c -2.984,0 -6.113,-0.176 -9.336,-0.527 10.875,-18.801 28.595,-29.921 47.979,-29.921 2.511,0 5.054,0.189 7.587,0.566 -0.977,2.992 -3.205,8.464 -7.686,13.867 -8.816,10.626 -21.784,16.015 -38.544,16.015 l 0,0 z"
         id="path4908"
         style="fill:#ffd400;fill-opacity:1;stroke:#ffffff;stroke-width:1.22039998" />
      <path
         d="m 671.19,159.941 c -3.048,-11.422 -3.073,-22.855 -0.052,-33.258 3.164,-10.889 9.567,-20.102 18.584,-26.789 1.623,3.199 4.378,9.834 4.543,18.291 0.3,15.189 -7.461,29.226 -23.075,41.756 l 0,0 z"
         id="path4910"
         style="fill:#ffd400;fill-opacity:1;stroke:#ffffff;stroke-width:1.22039998" />
      <path
         d="m 726.227,144.06 c -10.23,-5.924 -18.335,-13.99 -23.554,-23.483 -5.462,-9.937 -7.45,-20.977 -5.802,-32.081 3.411,1.115 10.052,3.859 16.146,9.72 10.953,10.528 15.388,25.941 13.21,45.844 l 0,0 z"
         id="path4912"
         style="fill:#ffd400;fill-opacity:1;stroke:#ffffff;stroke-width:1.22039998" />
      <path
         d="m 745.477,120.448 c -9.739,-2.187 -17.037,-8.626 -19.539,-17.28 4.909,0.17 14.936,2.434 19.539,17.28 l 0,0 z"
         id="path4914"
         style="fill:#ffd400;fill-opacity:1;stroke:#ffffff;stroke-width:1.22039998" />
      <path
         d="m 736.06,68.116 c -3.968,0 -7.82,-1.003 -11.278,-2.919 2.22,-2.086 6.618,-5.185 13.147,-5.185 4.054,0 8.381,1.206 12.899,3.589 -4.633,2.931 -9.772,4.515 -14.768,4.515 l 0,0 z"
         id="path4916"
         style="fill:#ffd400;fill-opacity:1;stroke:#ffffff;stroke-width:1.22039998" />
      <path
         d="m 697.122,39.168 c 0.142,-4.735 2.281,-14.894 17.297,-19.546 -2.189,9.749 -8.635,17.05 -17.297,19.546 l 0,0 z"
         id="path4918"
         style="fill:#ffd400;fill-opacity:1;stroke:#ffffff;stroke-width:1.22039998" />
      <path
         d="m 659.165,40.323 c -3.249,-3.447 -8.922,-12.145 -1.593,-26.052 5.347,8.44 5.95,18.161 1.593,26.052 l 0,0 z"
         id="path4920"
         style="fill:#ffd400;fill-opacity:1;stroke:#ffffff;stroke-width:1.22039998" />
      <path
         d="m 633.135,67.96 c -4.905,-0.168 -14.938,-2.432 -19.541,-17.277 9.741,2.187 17.039,8.626 19.541,17.277 l 0,0 z"
         id="path4922"
         style="fill:#ffd400;fill-opacity:1;stroke:#ffffff;stroke-width:1.22039998" />
      <path
         d="m 621.143,111.118 c -4.054,0 -8.38,-1.205 -12.898,-3.589 4.633,-2.93 9.772,-4.515 14.771,-4.515 3.967,0 7.816,1.003 11.273,2.919 -2.221,2.086 -6.617,5.185 -13.146,5.185 l 0,0 z"
         id="path4924"
         style="fill:#ffd400;fill-opacity:1;stroke:#ffffff;stroke-width:1.22039998" />
      <path
         d="m 644.653,151.507 c 2.188,-9.748 8.634,-17.049 17.297,-19.545 -0.14,4.736 -2.276,14.896 -17.297,19.545 l 0,0 z"
         id="path4926"
         style="fill:#ffd400;fill-opacity:1;stroke:#ffffff;stroke-width:1.22039998" />
      <path
         d="m 701.497,156.86 c -5.344,-8.44 -5.948,-18.162 -1.59,-26.052 3.249,3.446 8.922,12.144 1.59,26.052 l 0,0 z"
         id="path4928"
         style="fill:#ffd400;fill-opacity:1;stroke:#ffffff;stroke-width:1.22039998" />
      <path
         d="m 736.785,96.204 c -17.557,0 -33.056,-7.556 -42.919,-20.825 3.304,-1.675 10.262,-4.552 19.104,-4.552 14.882,0 28.645,7.762 40.941,23.085 -5.713,1.522 -11.461,2.292 -17.126,2.292 l 0,0 z"
         id="path4930"
         style="fill:#ffd400;fill-opacity:1;stroke:#ffffff;stroke-width:1.22039998" />
      <path
         d="m 690.051,68.796 c -2.51,0 -5.052,-0.19 -7.585,-0.566 0.976,-2.991 3.205,-8.464 7.685,-13.866 8.818,-10.627 21.786,-16.016 38.547,-16.016 2.982,0 6.111,0.177 9.333,0.527 -10.876,18.801 -28.594,29.921 -47.98,29.921 l 0,0 z"
         id="path4932"
         style="fill:#ffd400;fill-opacity:1;stroke:#ffffff;stroke-width:1.22039998" />
      <path
         d="m 679.537,96.609 c -6.091,0 -11.045,-4.954 -11.045,-11.044 0,-6.089 4.954,-11.043 11.045,-11.043 6.089,0 11.043,4.954 11.043,11.043 0,6.09 -4.954,11.044 -11.043,11.044 l 0,0 z"
         id="path4934"
         style="fill:#ffd400;fill-opacity:1;stroke:#ffffff;stroke-width:1.22039998" />
    </g>
  </g>
  <g
     id="g2490"
     transform="translate(28.751625,73.516812)"
     inkscape:export-filename="/home/filips/svn/geokrety/templates/logo/logo-wiosna.png"
     inkscape:export-xdpi="130.90273"
     inkscape:export-ydpi="130.90273">
    <rect
       width="61.299881"
       height="26.478128"
       x="64.375893"
       y="-68.511658"
       id="rect3251"
       style="fill:#000000;fill-opacity:1;fill-rule:nonzero;stroke:none;stroke-width:2;stroke-linejoin:round;stroke-miterlimit:4;stroke-dasharray:none;stroke-opacity:1" />
    <path
       id="text2383"
       d="M 31.101862,-50.457391 L 31.101862,-55.024164 L 27.447222,-55.024164 L 27.447222,-56.914648 L 33.316796,-56.914648 L 33.316796,-49.614645 C 32.452958,-48.984483 31.500537,-48.508065 30.459532,-48.185393 C 29.418501,-47.862721 28.307344,-47.701384 27.126057,-47.701383 C 24.54196,-47.701384 22.520836,-48.477697 21.062676,-50.030324 C 19.604509,-51.582947 18.875428,-53.744854 18.875429,-56.516052 C 18.875428,-59.294824 19.604509,-61.460528 21.062676,-63.013169 C 22.520836,-64.565779 24.54196,-65.342091 27.126057,-65.342108 C 28.20398,-65.342091 29.228387,-65.20543 30.199277,-64.932124 C 31.170143,-64.658784 32.065345,-64.256392 32.884884,-63.724947 L 32.884884,-61.276428 C 32.057962,-61.997683 31.179372,-62.540533 30.249113,-62.904978 C 29.318829,-63.269393 28.340568,-63.451608 27.314326,-63.451625 C 25.291346,-63.451608 23.772272,-62.870798 22.7571,-61.70919 C 21.741918,-60.547555 21.234329,-58.81651 21.234333,-56.516052 C 21.234329,-54.223169 21.741918,-52.495921 22.7571,-51.334303 C 23.772272,-50.172678 25.291346,-49.591867 27.314326,-49.591868 C 28.104308,-49.591867 28.809395,-49.662095 29.429588,-49.802555 C 30.049757,-49.94301 30.607182,-50.16129 31.101862,-50.457391 L 31.101862,-50.457391 z M 47.935359,-54.933056 L 47.935359,-53.908095 L 38.566189,-53.908095 C 38.654784,-52.465551 39.077466,-51.366566 39.834239,-50.611135 C 40.591002,-49.855699 41.644941,-49.477982 42.996057,-49.477983 C 43.778658,-49.477982 44.537272,-49.576682 45.271901,-49.774084 C 46.00651,-49.971481 46.735591,-50.267581 47.459148,-50.662383 L 47.459148,-48.680792 C 46.728208,-48.361914 45.978824,-48.11896 45.210991,-47.95193 C 44.443137,-47.784899 43.66422,-47.701384 42.874236,-47.701383 C 40.895556,-47.701384 39.328492,-48.293583 38.173039,-49.477983 C 37.01758,-50.662381 36.439852,-52.264356 36.439853,-54.283913 C 36.439852,-56.371789 36.988047,-58.028809 38.084441,-59.254977 C 39.180829,-60.481122 40.659296,-61.0942 42.519846,-61.094213 C 44.18842,-61.0942 45.50815,-60.541861 46.47904,-59.437192 C 47.449907,-58.332501 47.935346,-56.831124 47.935359,-54.933056 L 47.935359,-54.933056 z M 45.89762,-55.548032 C 45.882843,-56.694463 45.570906,-57.609335 44.96181,-58.292651 C 44.352694,-58.975949 43.54609,-59.317601 42.541996,-59.317613 C 41.40499,-59.317601 40.495022,-58.987337 39.812089,-58.326817 C 39.129148,-57.666277 38.735997,-56.73622 38.632637,-55.536645 L 45.89762,-55.548032 z M 56.086315,-59.317613 C 54.993608,-59.317601 54.129785,-58.879147 53.494842,-58.002246 C 52.859891,-57.125325 52.542418,-55.923844 52.542421,-54.397798 C 52.542418,-52.871739 52.858046,-51.670258 53.489305,-50.793351 C 54.120556,-49.916438 54.986225,-49.477982 56.086315,-49.477983 C 57.171625,-49.477982 58.031756,-49.918335 58.666712,-50.799045 C 59.30165,-51.679749 59.619124,-52.879332 59.619134,-54.397798 C 59.619124,-55.908659 59.30165,-57.106345 58.666712,-57.990858 C 58.031756,-58.87535 57.171625,-59.317601 56.086315,-59.317613 L 56.086315,-59.317613 z M 56.086315,-61.094213 C 57.858253,-61.0942 59.249968,-60.502001 60.261465,-59.317613 C 61.27294,-58.133203 61.778682,-56.493267 61.778694,-54.397798 C 61.778682,-52.30991 61.27294,-50.671871 60.261465,-49.483678 C 59.249968,-48.295481 57.858253,-47.701384 56.086315,-47.701383 C 54.30698,-47.701384 52.913419,-48.295481 51.905627,-49.483678 C 50.897831,-50.671871 50.393934,-52.30991 50.393935,-54.397798 C 50.393934,-56.493267 50.897831,-58.133203 51.905627,-59.317613 C 52.913419,-60.502001 54.30698,-61.0942 56.086315,-61.094213 L 56.086315,-61.094213 z"
       style="font-size:22.94870567px;font-style:normal;font-weight:normal;fill:#000000;fill-opacity:1;stroke:none;stroke-width:1px;stroke-linecap:butt;stroke-linejoin:miter;stroke-opacity:1;font-family:Bitstream Vera Sans" />
    <path
       id="text2479"
       d="M 66.871012,-65.831418 L 68.948649,-65.831418 L 68.948649,-55.510618 L 75.114176,-60.934928 L 77.753336,-60.934928 L 71.082438,-55.050168 L 78.034098,-48.356808 L 75.338786,-48.356808 L 68.948649,-54.499878 L 68.948649,-48.356808 L 66.871012,-48.356808 L 66.871012,-65.831418 z M 87.579996,-59.003288 C 87.347891,-59.138048 87.095206,-59.237248 86.82194,-59.300898 C 86.548657,-59.364528 86.247306,-59.396348 85.917887,-59.396358 C 84.749912,-59.396348 83.853347,-59.016378 83.22819,-58.256468 C 82.603023,-57.496528 82.290442,-56.405298 82.290446,-54.982788 L 82.290446,-48.356808 L 80.212809,-48.356808 L 80.212809,-60.934928 L 82.290446,-60.934928 L 82.290446,-58.980828 C 82.724686,-59.744488 83.289952,-60.311628 83.986246,-60.682248 C 84.682529,-61.052838 85.528557,-61.238138 86.524332,-61.238158 C 86.666576,-61.238138 86.823803,-61.228788 86.996012,-61.210078 C 87.168204,-61.191348 87.359121,-61.163268 87.568766,-61.125848 L 87.579996,-59.003288 z M 100.52873,-55.162468 L 100.52873,-54.151728 L 91.02775,-54.151728 C 91.117591,-52.729198 91.54622,-51.645458 92.313639,-50.900508 C 93.081049,-50.155548 94.149814,-49.783078 95.519938,-49.783078 C 96.313549,-49.783078 97.082835,-49.880408 97.827799,-50.075068 C 98.572743,-50.269728 99.312081,-50.561718 100.04582,-50.951048 L 100.04582,-48.996948 C 99.304594,-48.682488 98.544667,-48.442908 97.766032,-48.278198 C 96.987376,-48.113478 96.197501,-48.031128 95.396403,-48.031128 C 93.389887,-48.031128 91.800777,-48.615108 90.629069,-49.783078 C 89.457355,-50.951038 88.871499,-52.530798 88.8715,-54.522338 C 88.871499,-56.581248 89.427407,-58.215278 90.539225,-59.424438 C 91.651037,-60.633568 93.150303,-61.238138 95.037028,-61.238158 C 96.729076,-61.238138 98.067372,-60.693468 99.05192,-59.604118 C 100.03645,-58.514758 100.52871,-57.034208 100.52873,-55.162468 L 100.52873,-55.162468 z M 98.462321,-55.768918 C 98.447336,-56.899438 98.131011,-57.801618 97.513346,-58.475458 C 96.895661,-59.149278 96.077709,-59.486188 95.059489,-59.486198 C 93.906488,-59.486188 92.983718,-59.160508 92.291178,-58.509148 C 91.598629,-57.857778 91.199947,-56.940618 91.095133,-55.757688 L 98.462321,-55.768918 z M 105.96427,-64.506218 L 105.96427,-60.934928 L 110.22062,-60.934928 L 110.22062,-59.328978 L 105.96427,-59.328978 L 105.96427,-52.500848 C 105.96427,-51.475128 106.10465,-50.816278 106.38542,-50.524288 C 106.66617,-50.232298 107.23705,-50.086298 108.09806,-50.086298 L 110.22062,-50.086298 L 110.22062,-48.356808 L 108.09806,-48.356808 C 106.50333,-48.356808 105.40275,-48.654418 104.7963,-49.249628 C 104.18986,-49.844838 103.88663,-50.928578 103.88664,-52.500848 L 103.88664,-59.328978 L 102.37052,-59.328978 L 102.37052,-60.934928 L 103.88664,-60.934928 L 103.88664,-64.506218 L 105.96427,-64.506218 z M 118.18302,-47.188838 C 117.59903,-45.691448 117.03002,-44.714398 116.47599,-44.257688 C 115.92195,-43.800988 115.18074,-43.572628 114.25236,-43.572628 L 112.60148,-43.572628 L 112.60148,-45.302118 L 113.81437,-45.302118 C 114.38338,-45.302118 114.82511,-45.436888 115.13957,-45.706418 C 115.45401,-45.975948 115.80216,-46.612338 116.184,-47.615598 L 116.55461,-48.558958 L 111.4672,-60.934928 L 113.65714,-60.934928 L 117.58781,-51.097038 L 121.51847,-60.934928 L 123.70841,-60.934928 L 118.18302,-47.188838 z"
       style="font-size:40px;font-style:normal;font-weight:normal;fill:#ffffff;fill-opacity:1;stroke:none;stroke-width:1px;stroke-linecap:butt;stroke-linejoin:miter;stroke-opacity:1;font-family:Bitstream Vera Sans" />
    <path
       id="text2483"
       d="M 127.65643,-50.958365 L 130.02606,-50.958365 L 130.02606,-48.105825 L 127.65643,-48.105825 L 127.65643,-50.958365 z M 139.56073,-59.235225 C 138.45265,-59.235215 137.57667,-58.802835 136.9328,-57.938105 C 136.28891,-57.073345 135.96697,-55.888535 135.96698,-54.383655 C 135.96697,-52.878775 136.28704,-51.693955 136.92718,-50.829215 C 137.56731,-49.964465 138.44516,-49.532095 139.56073,-49.532095 C 140.6613,-49.532095 141.53354,-49.966335 142.17743,-50.834835 C 142.82129,-51.703315 143.14323,-52.886255 143.14325,-54.383655 C 143.14323,-55.873555 142.82129,-57.054625 142.17743,-57.926875 C 141.53354,-58.799095 140.6613,-59.235215 139.56073,-59.235225 L 139.56073,-59.235225 z M 139.56073,-60.987175 C 141.35759,-60.987165 142.76889,-60.403175 143.79461,-59.235225 C 144.82032,-58.067245 145.33317,-56.450055 145.33319,-54.383655 C 145.33317,-52.324735 144.82032,-50.709425 143.79461,-49.537715 C 142.76889,-48.365995 141.35759,-47.780145 139.56073,-47.780145 C 137.75636,-47.780145 136.34319,-48.365995 135.32122,-49.537715 C 134.29925,-50.709425 133.78826,-52.324735 133.78826,-54.383655 C 133.78826,-56.450055 134.29925,-58.067245 135.32122,-59.235225 C 136.34319,-60.403175 137.75636,-60.987165 139.56073,-60.987175 L 139.56073,-60.987175 z M 156.03582,-58.752315 C 155.80372,-58.887065 155.55103,-58.986265 155.27777,-59.049915 C 155.00448,-59.113545 154.70313,-59.145365 154.37371,-59.145375 C 153.20574,-59.145365 152.30917,-58.765405 151.68402,-58.005485 C 151.05885,-57.245545 150.74627,-56.154325 150.74627,-54.731805 L 150.74627,-48.105825 L 148.66864,-48.105825 L 148.66864,-60.683955 L 150.74627,-60.683955 L 150.74627,-58.729855 C 151.18051,-59.493515 151.74578,-60.060645 152.44207,-60.431265 C 153.13836,-60.801855 153.98438,-60.987165 154.98016,-60.987175 C 155.1224,-60.987165 155.27963,-60.977805 155.45184,-60.959095 C 155.62403,-60.940365 155.81495,-60.912295 156.02459,-60.874865 L 156.03582,-58.752315 z M 166.50262,-54.540885 C 166.50261,-56.038275 166.19377,-57.198755 165.57611,-58.022335 C 164.95842,-58.845885 164.09181,-59.257675 162.97625,-59.257685 C 161.86817,-59.257675 161.0053,-58.845885 160.38763,-58.022335 C 159.76995,-57.198755 159.46111,-56.038275 159.46112,-54.540885 C 159.46111,-53.050975 159.76995,-51.894235 160.38763,-51.070675 C 161.0053,-50.247105 161.86817,-49.835315 162.97625,-49.835315 C 164.09181,-49.835315 164.95842,-50.247105 165.57611,-51.070675 C 166.19377,-51.894235 166.50261,-53.050975 166.50262,-54.540885 L 166.50262,-54.540885 z M 168.56903,-49.666865 C 168.56901,-47.525585 168.09359,-45.932735 167.14276,-44.888295 C 166.1919,-43.843865 164.73568,-43.321652 162.7741,-43.321647 C 162.04786,-43.321652 161.3628,-43.375932 160.71893,-43.484489 C 160.07504,-43.593054 159.44988,-43.759635 158.84344,-43.984245 L 158.84344,-45.994495 C 159.44988,-45.665075 160.04884,-45.421745 160.64032,-45.264515 C 161.23178,-45.107295 161.83448,-45.028685 162.44842,-45.028675 C 163.80356,-45.028685 164.81804,-45.382445 165.49188,-46.089955 C 166.1657,-46.797475 166.50261,-47.866245 166.50262,-49.296255 L 166.50262,-50.318225 C 166.07585,-49.577015 165.5293,-49.022985 164.86297,-48.656115 C 164.19662,-48.289255 163.39926,-48.105825 162.47088,-48.105825 C 160.92856,-48.105825 159.68572,-48.693555 158.74237,-49.869015 C 157.79901,-51.044465 157.32733,-52.601755 157.32733,-54.540885 C 157.32733,-56.487495 157.79901,-58.048525 158.74237,-59.223995 C 159.68572,-60.399435 160.92856,-60.987165 162.47088,-60.987175 C 163.39926,-60.987165 164.19662,-60.803735 164.86297,-60.436885 C 165.5293,-60.070005 166.07585,-59.515975 166.50262,-58.774775 L 166.50262,-60.683955 L 168.56903,-60.683955 L 168.56903,-49.666865 z"
       style="font-size:23px;font-style:normal;font-weight:normal;fill:#000000;fill-opacity:1;stroke:none;stroke-width:1px;stroke-linecap:butt;stroke-linejoin:miter;stroke-opacity:1;font-family:Bitstream Vera Sans" />
  </g>
  <g
     id="layer1"
     inkscape:label="Layer 1"
     transform="matrix(0.01964236,0.22451313,-0.14588971,0.01276369,113.66817,-57.894364)"
     inkscape:export-filename="/home/filips/svn/geokrety/templates/logo/logo-wiosna.png"
     inkscape:export-xdpi="130.90273"
     inkscape:export-ydpi="130.90273">
    <path
       id="path3757"
       d="m 304.38916,389.78198 c 0,9.90131 -8.08156,17.92791 -18.05067,17.92791 -9.9691,0 -18.05067,-8.0266 -18.05067,-17.92791 0,-9.90133 8.08157,-17.9279 18.05067,-17.9279 9.96911,0 18.05067,8.02657 18.05067,17.9279 z"
       style="fill:#000000;stroke:none" />
    <path
       transform="matrix(0.9329933,0.80749519,-0.55142461,1.3662568,230.87092,-414.08235)"
       d="m 364.0718,418.98038 c 0,8.40621 -12.91474,15.2208 -28.84588,15.2208 -15.93114,0 -28.84588,-6.81459 -28.84588,-15.2208 0,-8.40622 12.91474,-15.22081 28.84588,-15.22081 15.93114,0 28.84588,6.81459 28.84588,15.22081 z"
       sodipodi:ry="15.220803"
       sodipodi:rx="28.845877"
       sodipodi:cy="418.98038"
       sodipodi:cx="335.22592"
       id="path3759"
       style="fill:none;stroke:#000000;stroke-width:1.5;stroke-miterlimit:4;stroke-opacity:1;stroke-dasharray:none"
       sodipodi:type="arc" />
    <path
       transform="matrix(0.95235856,-0.96242582,0.688227,1.3317909,-343.58497,196.13654)"
       sodipodi:type="arc"
       style="fill:none;stroke:#000000;stroke-width:1.5;stroke-miterlimit:4;stroke-opacity:1;stroke-dasharray:none"
       id="path3761"
       sodipodi:cx="335.22592"
       sodipodi:cy="418.98038"
       sodipodi:rx="28.845877"
       sodipodi:ry="15.220803"
       d="m 364.0718,418.98038 c 0,8.40621 -12.91474,15.2208 -28.84588,15.2208 -15.93114,0 -28.84588,-6.81459 -28.84588,-15.2208 0,-8.40622 12.91474,-15.22081 28.84588,-15.22081 15.93114,0 28.84588,6.81459 28.84588,15.22081 z" />
    <path
       sodipodi:nodetypes="cssssc"
       id="path3769"
       d="m 312.66326,431.04758 c 0,22.32812 -11.29607,40.42864 -25.2305,40.42864 -13.93441,0 -25.23049,-18.10052 -25.23049,-40.42864 0,-14.97223 4.78677,-27.00222 12.1421,-33.30368 3.6137,-3.09593 7.84739,-4.80911 12.43802,-4.80911 16.25353,0 25.88087,15.78466 25.88087,38.11279 z"
       style="fill:#ffff00;stroke:#000000;stroke-width:2.00794864;stroke-miterlimit:4;stroke-opacity:1;stroke-dasharray:none" />
    <path
       sodipodi:nodetypes="csccs"
       id="rect3775"
       d="m 266.66308,406.5404 c 2.12936,-5.43207 39.48152,-5.98352 41.12613,-0.26204 l 3.61546,12.57808 c -16.45608,-10.50889 -32.50165,-8.759 -48.35706,0.26205 l 3.61547,-12.57809 z"
       style="fill:#000000;stroke:none" />
    <path
       sodipodi:nodetypes="ccccc"
       id="rect3779"
       d="m 261.96364,426.07629 c 21.52809,-10.65548 38.03805,-9.45199 51.507,0.29471 l -1.34866,11.49336 c -13.63319,-11.59013 -37.35397,-7.71022 -49.75437,-0.63862 l -0.40397,-11.14945 z"
       style="fill:#000000;stroke:none" />
    <path
       sodipodi:nodetypes="cccc"
       id="rect3781"
       d="m 284.77631,471.0257 7.63929,0 -3.32143,11.29285 -4.31786,-11.29285 z"
       style="fill:#000000;stroke:none" />
    <path
       sodipodi:nodetypes="ccccc"
       id="rect4299"
       d="m 263.14955,444.44136 c 15.3967,-6.13104 31.72076,-7.16888 47.74829,1.09777 l -5.72259,12.99162 c -11.4646,-9.81307 -25.27525,-9.34819 -36.08986,0.36126 l -5.93584,-14.45065 z"
       style="fill:#000000;fill-opacity:1;stroke:none" />
    <path
       sodipodi:nodetypes="ccccc"
       id="rect4302"
       d="m 275.44742,465.13377 c 7.6451,-2.42288 15.51492,-3.04798 23.81319,-0.2455 l -3.92794,3.19146 c -5.11093,2.77367 -10.43893,3.59377 -16.20279,0.491 l -3.68246,-3.43696 z"
       style="fill:#000000;fill-opacity:1;stroke:#000000;stroke-width:2.20000005;stroke-miterlimit:4;stroke-opacity:1" />
    <path
       sodipodi:nodetypes="cssss"
       id="rect4312"
       d="m 306.35303,349.38892 c 2.8754,-1.3707 4.62223,2.1238 1.55107,3.1054 -33.87713,10.82776 -21.70995,28.1911 -16.99745,30.1403 1.16743,0.48288 -1.65395,3.45713 -2.27876,2.45818 -11.45357,-18.31167 -3.07367,-25.789 17.72514,-35.70388 z"
       style="fill:#000000;fill-opacity:1;stroke:none" />
    <path
       style="fill:#000000;fill-opacity:1;stroke:none"
       d="m 259.4238,353.16224 c -3.08489,-1.17203 -4.77682,2.07725 -1.50224,2.88745 36.12107,8.93712 24.04253,25.18241 19.16334,27.10241 -1.20874,0.47566 1.88676,3.1172 2.50252,2.18474 11.28732,-17.0929 2.15037,-23.69675 -20.16362,-32.1746 z"
       id="path4315"
       sodipodi:nodetypes="cssss" />
  </g>
  <polygon
     id="polygon3440"
     points="99.9553,101.792 100.167,101.792 99.9553,101.792 "
     class="fil59"
     style="fill:#ffffff;fill-rule:nonzero"
     transform="matrix(1.8094894,0,0,1.8094894,-1018.7853,-73.3414)"
     inkscape:export-filename="/home/filips/svn/geokrety/templates/logo/logo-wiosna.png"
     inkscape:export-xdpi="130"
     inkscape:export-ydpi="130" />
  <polygon
     id="polygon3450"
     points="149.309,106.555 149.485,106.555 149.309,106.555 "
     class="fil59"
     style="fill:#ffffff;fill-rule:nonzero"
     transform="matrix(1.8094894,0,0,1.8094894,-1018.7853,-73.3414)"
     inkscape:export-filename="/home/filips/svn/geokrety/templates/logo/logo-wiosna.png"
     inkscape:export-xdpi="130"
     inkscape:export-ydpi="130" />
  <polygon
     id="polygon3456"
     points="116.395,107.26 116.606,107.26 116.395,107.26 "
     class="fil58"
     style="fill:#000000;fill-rule:nonzero"
     transform="matrix(1.8094894,0,0,1.8094894,-1018.7853,-73.3414)"
     inkscape:export-filename="/home/filips/svn/geokrety/templates/logo/logo-wiosna.png"
     inkscape:export-xdpi="130"
     inkscape:export-ydpi="130" />
  <polygon
     id="polygon3466"
     points="143.276,110.647 143.382,110.647 143.276,110.647 "
     class="fil59"
     style="fill:#ffffff;fill-rule:nonzero"
     transform="matrix(1.8094894,0,0,1.8094894,-1018.7853,-73.3414)"
     inkscape:export-filename="/home/filips/svn/geokrety/templates/logo/logo-wiosna.png"
     inkscape:export-xdpi="130"
     inkscape:export-ydpi="130" />
  <polygon
     id="polygon3472"
     points="142.077,111.317 142.289,111.317 142.077,111.317 "
     class="fil59"
     style="fill:#ffffff;fill-rule:nonzero"
     transform="matrix(1.8094894,0,0,1.8094894,-1018.7853,-73.3414)"
     inkscape:export-filename="/home/filips/svn/geokrety/templates/logo/logo-wiosna.png"
     inkscape:export-xdpi="130"
     inkscape:export-ydpi="130" />
  <polygon
     id="polygon3504"
     points="85.2445,126.981 85.3503,126.981 85.2445,126.981 "
     class="fil59"
     style="fill:#ffffff;fill-rule:nonzero"
     transform="matrix(1.8094894,0,0,1.8094894,-1018.7853,-73.3414)"
     inkscape:export-filename="/home/filips/svn/geokrety/templates/logo/logo-wiosna.png"
     inkscape:export-xdpi="130"
     inkscape:export-ydpi="130" />
  <polygon
     id="polygon3520"
     points="149.944,135.871 150.12,135.871 149.944,135.871 "
     class="fil59"
     style="fill:#ffffff;fill-rule:nonzero"
     transform="matrix(1.8094894,0,0,1.8094894,-1018.7853,-73.3414)"
     inkscape:export-filename="/home/filips/svn/geokrety/templates/logo/logo-wiosna.png"
     inkscape:export-xdpi="130"
     inkscape:export-ydpi="130" />
  <polygon
     id="polygon3532"
     points="82.2459,140.951 82.4575,140.951 82.2459,140.951 "
     class="fil59"
     style="fill:#ffffff;fill-rule:nonzero"
     transform="matrix(1.8094894,0,0,1.8094894,-1018.7853,-73.3414)"
     inkscape:export-filename="/home/filips/svn/geokrety/templates/logo/logo-wiosna.png"
     inkscape:export-xdpi="130"
     inkscape:export-ydpi="130" />
  <polygon
     id="polygon3536"
     points="109.339,141.797 109.586,141.797 109.339,141.797 "
     class="fil59"
     style="fill:#ffffff;fill-rule:nonzero"
     transform="matrix(1.8094894,0,0,1.8094894,-1018.7853,-73.3414)"
     inkscape:export-filename="/home/filips/svn/geokrety/templates/logo/logo-wiosna.png"
     inkscape:export-xdpi="130"
     inkscape:export-ydpi="130" />
  <polygon
     id="polygon3560"
     points="131.07,148.218 131.247,148.218 131.07,148.218 "
     class="fil59"
     style="fill:#ffffff;fill-rule:nonzero"
     transform="matrix(1.8094894,0,0,1.8094894,-1018.7853,-73.3414)"
     inkscape:export-filename="/home/filips/svn/geokrety/templates/logo/logo-wiosna.png"
     inkscape:export-xdpi="130"
     inkscape:export-ydpi="130" />
  <polygon
     id="polygon3572"
     points="113.079,153.298 113.255,153.298 113.079,153.298 "
     class="fil59"
     style="fill:#ffffff;fill-rule:nonzero"
     transform="matrix(1.8094894,0,0,1.8094894,-1018.7853,-73.3414)"
     inkscape:export-filename="/home/filips/svn/geokrety/templates/logo/logo-wiosna.png"
     inkscape:export-xdpi="130"
     inkscape:export-ydpi="130" />
  <polygon
     id="polygon3576"
     points="145.605,153.721 145.781,153.721 145.605,153.721 "
     class="fil59"
     style="fill:#ffffff;fill-rule:nonzero"
     transform="matrix(1.8094894,0,0,1.8094894,-1018.7853,-73.3414)"
     inkscape:export-filename="/home/filips/svn/geokrety/templates/logo/logo-wiosna.png"
     inkscape:export-xdpi="130"
     inkscape:export-ydpi="130" />
  <polygon
     id="polygon3586"
     points="106.164,157.708 106.305,157.708 106.164,157.708 "
     class="fil59"
     style="fill:#ffffff;fill-rule:nonzero"
     transform="matrix(1.8094894,0,0,1.8094894,-1018.7853,-73.3414)"
     inkscape:export-filename="/home/filips/svn/geokrety/templates/logo/logo-wiosna.png"
     inkscape:export-xdpi="130"
     inkscape:export-ydpi="130" />
  <polygon
     id="polygon3618"
     points="129.589,173.477 129.765,173.477 129.589,173.477 "
     class="fil59"
     style="fill:#ffffff;fill-rule:nonzero"
     transform="matrix(1.8094894,0,0,1.8094894,-1018.7853,-73.3414)"
     inkscape:export-filename="/home/filips/svn/geokrety/templates/logo/logo-wiosna.png"
     inkscape:export-xdpi="130"
     inkscape:export-ydpi="130" />
  <polygon
     id="polygon3630"
     points="100.59,177.569 100.943,177.569 100.59,177.569 "
     class="fil58"
     style="fill:#000000;fill-rule:nonzero"
     transform="matrix(1.8094894,0,0,1.8094894,-1018.7853,-73.3414)"
     inkscape:export-filename="/home/filips/svn/geokrety/templates/logo/logo-wiosna.png"
     inkscape:export-xdpi="130"
     inkscape:export-ydpi="130" />
  <polygon
     id="polygon3686"
     points="109.692,201.205 110.327,201.205 109.692,201.205 "
     class="fil59"
     style="fill:#ffffff;fill-rule:nonzero"
     transform="matrix(1.8094894,0,0,1.8094894,-1018.7853,-73.3414)"
     inkscape:export-filename="/home/filips/svn/geokrety/templates/logo/logo-wiosna.png"
     inkscape:export-xdpi="130"
     inkscape:export-ydpi="130" />
  <polygon
     id="polygon3690"
     points="89.5837,203.004 89.7601,203.004 89.5837,203.004 "
     class="fil58"
     style="fill:#000000;fill-rule:nonzero"
     transform="matrix(1.8094894,0,0,1.8094894,-1018.7853,-73.3414)"
     inkscape:export-filename="/home/filips/svn/geokrety/templates/logo/logo-wiosna.png"
     inkscape:export-xdpi="130"
     inkscape:export-ydpi="130" />
  <polygon
     id="polygon3694"
     points="109.621,203.251 109.974,203.251 109.621,203.251 "
     class="fil59"
     style="fill:#ffffff;fill-rule:nonzero"
     transform="matrix(1.8094894,0,0,1.8094894,-1018.7853,-73.3414)"
     inkscape:export-filename="/home/filips/svn/geokrety/templates/logo/logo-wiosna.png"
     inkscape:export-xdpi="130"
     inkscape:export-ydpi="130" />
  <polygon
     id="polygon3696"
     points="106.023,203.322 106.199,203.322 106.023,203.322 "
     class="fil59"
     style="fill:#ffffff;fill-rule:nonzero"
     transform="matrix(1.8094894,0,0,1.8094894,-1018.7853,-73.3414)"
     inkscape:export-filename="/home/filips/svn/geokrety/templates/logo/logo-wiosna.png"
     inkscape:export-xdpi="130"
     inkscape:export-ydpi="130" />
  <g
     transform="matrix(0.14486552,0.172644,-0.1121849,0.0941343,132.90818,-77.802504)"
     inkscape:label="Layer 1"
     id="g4941"
     inkscape:export-filename="/home/filips/svn/geokrety/templates/logo/logo-wiosna.png"
     inkscape:export-xdpi="130.90273"
     inkscape:export-ydpi="130.90273">
    <path
       style="fill:#000000;stroke:none"
       d="m 304.38916,389.78198 c 0,9.90131 -8.08156,17.92791 -18.05067,17.92791 -9.9691,0 -18.05067,-8.0266 -18.05067,-17.92791 0,-9.90133 8.08157,-17.9279 18.05067,-17.9279 9.96911,0 18.05067,8.02657 18.05067,17.9279 z"
       id="path4943" />
    <path
       sodipodi:type="arc"
       style="fill:none;stroke:#000000;stroke-width:1.5;stroke-miterlimit:4;stroke-opacity:1;stroke-dasharray:none"
       id="path4945"
       sodipodi:cx="335.22592"
       sodipodi:cy="418.98038"
       sodipodi:rx="28.845877"
       sodipodi:ry="15.220803"
       d="m 364.0718,418.98038 c 0,8.40621 -12.91474,15.2208 -28.84588,15.2208 -15.93114,0 -28.84588,-6.81459 -28.84588,-15.2208 0,-8.40622 12.91474,-15.22081 28.84588,-15.22081 15.93114,0 28.84588,6.81459 28.84588,15.22081 z"
       transform="matrix(0.9329933,0.80749519,-0.55142461,1.3662568,230.87092,-414.08235)" />
    <path
       d="m 364.0718,418.98038 c 0,8.40621 -12.91474,15.2208 -28.84588,15.2208 -15.93114,0 -28.84588,-6.81459 -28.84588,-15.2208 0,-8.40622 12.91474,-15.22081 28.84588,-15.22081 15.93114,0 28.84588,6.81459 28.84588,15.22081 z"
       sodipodi:ry="15.220803"
       sodipodi:rx="28.845877"
       sodipodi:cy="418.98038"
       sodipodi:cx="335.22592"
       id="path4947"
       style="fill:none;stroke:#000000;stroke-width:1.5;stroke-miterlimit:4;stroke-opacity:1;stroke-dasharray:none"
       sodipodi:type="arc"
       transform="matrix(0.95235856,-0.96242582,0.688227,1.3317909,-343.58497,196.13654)" />
    <path
       style="fill:#ffff00;stroke:#000000;stroke-width:2.00794864;stroke-miterlimit:4;stroke-opacity:1;stroke-dasharray:none"
       d="m 312.66326,431.04758 c 0,22.32812 -11.29607,40.42864 -25.2305,40.42864 -13.93441,0 -25.23049,-18.10052 -25.23049,-40.42864 0,-14.97223 4.78677,-27.00222 12.1421,-33.30368 3.6137,-3.09593 7.84739,-4.80911 12.43802,-4.80911 16.25353,0 25.88087,15.78466 25.88087,38.11279 z"
       id="path4949"
       sodipodi:nodetypes="cssssc" />
    <path
       style="fill:#000000;stroke:none"
       d="m 266.66308,406.5404 c 2.12936,-5.43207 39.48152,-5.98352 41.12613,-0.26204 l 3.61546,12.57808 c -16.45608,-10.50889 -32.50165,-8.759 -48.35706,0.26205 l 3.61547,-12.57809 z"
       id="path4951"
       sodipodi:nodetypes="csccs" />
    <path
       style="fill:#000000;stroke:none"
       d="m 261.96364,426.07629 c 21.52809,-10.65548 38.03805,-9.45199 51.507,0.29471 l -1.34866,11.49336 c -13.63319,-11.59013 -37.35397,-7.71022 -49.75437,-0.63862 l -0.40397,-11.14945 z"
       id="path4953"
       sodipodi:nodetypes="ccccc" />
    <path
       style="fill:#000000;stroke:none"
       d="m 284.77631,471.0257 7.63929,0 -3.32143,11.29285 -4.31786,-11.29285 z"
       id="path4955"
       sodipodi:nodetypes="cccc" />
    <path
       style="fill:#000000;fill-opacity:1;stroke:none"
       d="m 263.14955,444.44136 c 15.3967,-6.13104 31.72076,-7.16888 47.74829,1.09777 l -5.72259,12.99162 c -11.4646,-9.81307 -25.27525,-9.34819 -36.08986,0.36126 l -5.93584,-14.45065 z"
       id="path4957"
       sodipodi:nodetypes="ccccc" />
    <path
       style="fill:#000000;fill-opacity:1;stroke:#000000;stroke-width:2.20000005;stroke-miterlimit:4;stroke-opacity:1"
       d="m 275.44742,465.13377 c 7.6451,-2.42288 15.51492,-3.04798 23.81319,-0.2455 l -3.92794,3.19146 c -5.11093,2.77367 -10.43893,3.59377 -16.20279,0.491 l -3.68246,-3.43696 z"
       id="path4959"
       sodipodi:nodetypes="ccccc" />
    <path
       style="fill:#000000;fill-opacity:1;stroke:none"
       d="m 306.35303,349.38892 c 2.8754,-1.3707 4.62223,2.1238 1.55107,3.1054 -33.87713,10.82776 -21.70995,28.1911 -16.99745,30.1403 1.16743,0.48288 -1.65395,3.45713 -2.27876,2.45818 -11.45357,-18.31167 -3.07367,-25.789 17.72514,-35.70388 z"
       id="path4961"
       sodipodi:nodetypes="cssss" />
    <path
       sodipodi:nodetypes="cssss"
       id="path4963"
       d="m 259.4238,353.16224 c -3.08489,-1.17203 -4.77682,2.07725 -1.50224,2.88745 36.12107,8.93712 24.04253,25.18241 19.16334,27.10241 -1.20874,0.47566 1.88676,3.1172 2.50252,2.18474 11.28732,-17.0929 2.15037,-23.69675 -20.16362,-32.1746 z"
       style="fill:#000000;fill-opacity:1;stroke:none" />
  </g>
  <g
     transform="matrix(0.01964236,0.22451313,-0.14588971,0.01276369,281.31052,-53.832546)"
     inkscape:label="Layer 1"
     id="g5447"
     inkscape:export-filename="/home/filips/svn/geokrety/templates/logo/logo-wiosna.png"
     inkscape:export-xdpi="130.90273"
     inkscape:export-ydpi="130.90273">
    <path
       style="fill:#000000;stroke:none"
       d="m 304.38916,389.78198 c 0,9.90131 -8.08156,17.92791 -18.05067,17.92791 -9.9691,0 -18.05067,-8.0266 -18.05067,-17.92791 0,-9.90133 8.08157,-17.9279 18.05067,-17.9279 9.96911,0 18.05067,8.02657 18.05067,17.9279 z"
       id="path5449" />
    <path
       sodipodi:type="arc"
       style="fill:none;stroke:#000000;stroke-width:1.5;stroke-miterlimit:4;stroke-opacity:1;stroke-dasharray:none"
       id="path5451"
       sodipodi:cx="335.22592"
       sodipodi:cy="418.98038"
       sodipodi:rx="28.845877"
       sodipodi:ry="15.220803"
       d="m 364.0718,418.98038 c 0,8.40621 -12.91474,15.2208 -28.84588,15.2208 -15.93114,0 -28.84588,-6.81459 -28.84588,-15.2208 0,-8.40622 12.91474,-15.22081 28.84588,-15.22081 15.93114,0 28.84588,6.81459 28.84588,15.22081 z"
       transform="matrix(0.9329933,0.80749519,-0.55142461,1.3662568,230.87092,-414.08235)" />
    <path
       d="m 364.0718,418.98038 c 0,8.40621 -12.91474,15.2208 -28.84588,15.2208 -15.93114,0 -28.84588,-6.81459 -28.84588,-15.2208 0,-8.40622 12.91474,-15.22081 28.84588,-15.22081 15.93114,0 28.84588,6.81459 28.84588,15.22081 z"
       sodipodi:ry="15.220803"
       sodipodi:rx="28.845877"
       sodipodi:cy="418.98038"
       sodipodi:cx="335.22592"
       id="path5453"
       style="fill:none;stroke:#000000;stroke-width:1.5;stroke-miterlimit:4;stroke-opacity:1;stroke-dasharray:none"
       sodipodi:type="arc"
       transform="matrix(0.95235856,-0.96242582,0.688227,1.3317909,-343.58497,196.13654)" />
    <path
       style="fill:#ffff00;stroke:#000000;stroke-width:2.00794864;stroke-miterlimit:4;stroke-opacity:1;stroke-dasharray:none"
       d="m 312.66326,431.04758 c 0,22.32812 -11.29607,40.42864 -25.2305,40.42864 -13.93441,0 -25.23049,-18.10052 -25.23049,-40.42864 0,-14.97223 4.78677,-27.00222 12.1421,-33.30368 3.6137,-3.09593 7.84739,-4.80911 12.43802,-4.80911 16.25353,0 25.88087,15.78466 25.88087,38.11279 z"
       id="path5455"
       sodipodi:nodetypes="cssssc" />
    <path
       style="fill:#000000;stroke:none"
       d="m 266.66308,406.5404 c 2.12936,-5.43207 39.48152,-5.98352 41.12613,-0.26204 l 3.61546,12.57808 c -16.45608,-10.50889 -32.50165,-8.759 -48.35706,0.26205 l 3.61547,-12.57809 z"
       id="path5457"
       sodipodi:nodetypes="csccs" />
    <path
       style="fill:#000000;stroke:none"
       d="m 261.96364,426.07629 c 21.52809,-10.65548 38.03805,-9.45199 51.507,0.29471 l -1.34866,11.49336 c -13.63319,-11.59013 -37.35397,-7.71022 -49.75437,-0.63862 l -0.40397,-11.14945 z"
       id="path5459"
       sodipodi:nodetypes="ccccc" />
    <path
       style="fill:#000000;stroke:none"
       d="m 284.77631,471.0257 7.63929,0 -3.32143,11.29285 -4.31786,-11.29285 z"
       id="path5461"
       sodipodi:nodetypes="cccc" />
    <path
       style="fill:#000000;fill-opacity:1;stroke:none"
       d="m 263.14955,444.44136 c 15.3967,-6.13104 31.72076,-7.16888 47.74829,1.09777 l -5.72259,12.99162 c -11.4646,-9.81307 -25.27525,-9.34819 -36.08986,0.36126 l -5.93584,-14.45065 z"
       id="path5463"
       sodipodi:nodetypes="ccccc" />
    <path
       style="fill:#000000;fill-opacity:1;stroke:#000000;stroke-width:2.20000005;stroke-miterlimit:4;stroke-opacity:1"
       d="m 275.44742,465.13377 c 7.6451,-2.42288 15.51492,-3.04798 23.81319,-0.2455 l -3.92794,3.19146 c -5.11093,2.77367 -10.43893,3.59377 -16.20279,0.491 l -3.68246,-3.43696 z"
       id="path5465"
       sodipodi:nodetypes="ccccc" />
    <path
       style="fill:#000000;fill-opacity:1;stroke:none"
       d="m 306.35303,349.38892 c 2.8754,-1.3707 4.62223,2.1238 1.55107,3.1054 -33.87713,10.82776 -21.70995,28.1911 -16.99745,30.1403 1.16743,0.48288 -1.65395,3.45713 -2.27876,2.45818 -11.45357,-18.31167 -3.07367,-25.789 17.72514,-35.70388 z"
       id="path5467"
       sodipodi:nodetypes="cssss" />
    <path
       sodipodi:nodetypes="cssss"
       id="path5469"
       d="m 259.4238,353.16224 c -3.08489,-1.17203 -4.77682,2.07725 -1.50224,2.88745 36.12107,8.93712 24.04253,25.18241 19.16334,27.10241 -1.20874,0.47566 1.88676,3.1172 2.50252,2.18474 11.28732,-17.0929 2.15037,-23.69675 -20.16362,-32.1746 z"
       style="fill:#000000;fill-opacity:1;stroke:none" />
  </g>
</svg>
