<?xml version="1.0" encoding="UTF-8" standalone="no"?>
<!-- Created with Inkscape (http://www.inkscape.org/) -->

<svg
   xmlns:dc="http://purl.org/dc/elements/1.1/"
   xmlns:cc="http://creativecommons.org/ns#"
   xmlns:rdf="http://www.w3.org/1999/02/22-rdf-syntax-ns#"
   xmlns:svg="http://www.w3.org/2000/svg"
   xmlns="http://www.w3.org/2000/svg"
   xmlns:sodipodi="http://sodipodi.sourceforge.net/DTD/sodipodi-0.dtd"
   xmlns:inkscape="http://www.inkscape.org/namespaces/inkscape"
   version="1.0"
   width="274"
   height="40"
   id="svg2"
   sodipodi:version="0.32"
   inkscape:version="0.48.3.1 r9886"
   sodipodi:docname="geokrety.svg"
   inkscape:output_extension="org.inkscape.output.svg.inkscape"
   inkscape:export-filename="/mnt/nfs/geokrety/templates/logo-jesien.png"
   inkscape:export-xdpi="131.54472"
   inkscape:export-ydpi="131.54472">
  <metadata
     id="metadata32">
    <rdf:RDF>
      <cc:Work
         rdf:about="">
        <dc:format>image/svg+xml</dc:format>
        <dc:type
           rdf:resource="http://purl.org/dc/dcmitype/StillImage" />
        <dc:title></dc:title>
      </cc:Work>
    </rdf:RDF>
  </metadata>
  <sodipodi:namedview
     inkscape:window-height="761"
     inkscape:window-width="1280"
     inkscape:pageshadow="2"
     inkscape:pageopacity="0.0"
     guidetolerance="10.0"
     gridtolerance="10.0"
     objecttolerance="10.0"
     borderopacity="1.0"
     bordercolor="#666666"
     pagecolor="#ffffff"
     id="base"
     showgrid="false"
     inkscape:zoom="2.8284271"
     inkscape:cx="191.87881"
     inkscape:cy="25.518665"
     inkscape:window-x="-9"
     inkscape:window-y="-10"
     inkscape:current-layer="svg2"
     inkscape:window-maximized="1" />
  <defs
     id="defs4">
    <inkscape:perspective
       sodipodi:type="inkscape:persp3d"
       inkscape:vp_x="0 : 17.129309 : 1"
       inkscape:vp_y="0 : 1000 : 0"
       inkscape:vp_z="197.98587 : 17.129309 : 1"
       inkscape:persp3d-origin="98.992935 : 11.419539 : 1"
       id="perspective34" />
    <inkscape:perspective
       id="perspective2736"
       inkscape:persp3d-origin="372.04724 : 350.78739 : 1"
       inkscape:vp_z="744.09448 : 526.18109 : 1"
       inkscape:vp_y="0 : 1000 : 0"
       inkscape:vp_x="0 : 526.18109 : 1"
       sodipodi:type="inkscape:persp3d" />
    <inkscape:perspective
       id="perspective3687"
       inkscape:persp3d-origin="372.04724 : 350.78739 : 1"
       inkscape:vp_z="744.09448 : 526.18109 : 1"
       inkscape:vp_y="0 : 1000 : 0"
       inkscape:vp_x="0 : 526.18109 : 1"
       sodipodi:type="inkscape:persp3d" />
    <inkscape:perspective
       id="perspective3743"
       inkscape:persp3d-origin="0.5 : 0.33333333 : 1"
       inkscape:vp_z="1 : 0.5 : 1"
       inkscape:vp_y="0 : 1000 : 0"
       inkscape:vp_x="0 : 0.5 : 1"
       sodipodi:type="inkscape:persp3d" />
  </defs>
  <polygon
     id="polygon3440"
     points="99.9553,101.792 100.167,101.792 99.9553,101.792 "
     class="fil59"
     style="fill:#ffffff;fill-rule:nonzero"
     transform="matrix(1.8094894,0,0,1.8094894,-1018.7853,-67.600017)" />
  <polygon
     id="polygon3450"
     points="149.309,106.555 149.485,106.555 149.309,106.555 "
     class="fil59"
     style="fill:#ffffff;fill-rule:nonzero"
     transform="matrix(1.8094894,0,0,1.8094894,-1018.7853,-67.600017)" />
  <polygon
     id="polygon3456"
     points="116.395,107.26 116.606,107.26 116.395,107.26 "
     class="fil58"
     style="fill:#000000;fill-rule:nonzero"
     transform="matrix(1.8094894,0,0,1.8094894,-1018.7853,-67.600017)" />
  <polygon
     id="polygon3466"
     points="143.276,110.647 143.382,110.647 143.276,110.647 "
     class="fil59"
     style="fill:#ffffff;fill-rule:nonzero"
     transform="matrix(1.8094894,0,0,1.8094894,-1018.7853,-67.600017)" />
  <polygon
     id="polygon3472"
     points="142.077,111.317 142.289,111.317 142.077,111.317 "
     class="fil59"
     style="fill:#ffffff;fill-rule:nonzero"
     transform="matrix(1.8094894,0,0,1.8094894,-1018.7853,-67.600017)" />
  <polygon
     id="polygon3504"
     points="85.2445,126.981 85.3503,126.981 85.2445,126.981 "
     class="fil59"
     style="fill:#ffffff;fill-rule:nonzero"
     transform="matrix(1.8094894,0,0,1.8094894,-1018.7853,-67.600017)" />
  <polygon
     id="polygon3520"
     points="149.944,135.871 150.12,135.871 149.944,135.871 "
     class="fil59"
     style="fill:#ffffff;fill-rule:nonzero"
     transform="matrix(1.8094894,0,0,1.8094894,-1018.7853,-67.600017)" />
  <polygon
     id="polygon3532"
     points="82.2459,140.951 82.4575,140.951 82.2459,140.951 "
     class="fil59"
     style="fill:#ffffff;fill-rule:nonzero"
     transform="matrix(1.8094894,0,0,1.8094894,-1018.7853,-67.600017)" />
  <polygon
     id="polygon3536"
     points="109.339,141.797 109.586,141.797 109.339,141.797 "
     class="fil59"
     style="fill:#ffffff;fill-rule:nonzero"
     transform="matrix(1.8094894,0,0,1.8094894,-1018.7853,-67.600017)" />
  <polygon
     id="polygon3560"
     points="131.07,148.218 131.247,148.218 131.07,148.218 "
     class="fil59"
     style="fill:#ffffff;fill-rule:nonzero"
     transform="matrix(1.8094894,0,0,1.8094894,-1018.7853,-67.600017)" />
  <polygon
     id="polygon3572"
     points="113.079,153.298 113.255,153.298 113.079,153.298 "
     class="fil59"
     style="fill:#ffffff;fill-rule:nonzero"
     transform="matrix(1.8094894,0,0,1.8094894,-1018.7853,-67.600017)" />
  <polygon
     id="polygon3576"
     points="145.605,153.721 145.781,153.721 145.605,153.721 "
     class="fil59"
     style="fill:#ffffff;fill-rule:nonzero"
     transform="matrix(1.8094894,0,0,1.8094894,-1018.7853,-67.600017)" />
  <polygon
     id="polygon3586"
     points="106.164,157.708 106.305,157.708 106.164,157.708 "
     class="fil59"
     style="fill:#ffffff;fill-rule:nonzero"
     transform="matrix(1.8094894,0,0,1.8094894,-1018.7853,-67.600017)" />
  <polygon
     id="polygon3618"
     points="129.589,173.477 129.765,173.477 129.589,173.477 "
     class="fil59"
     style="fill:#ffffff;fill-rule:nonzero"
     transform="matrix(1.8094894,0,0,1.8094894,-1018.7853,-67.600017)" />
  <polygon
     id="polygon3630"
     points="100.59,177.569 100.943,177.569 100.59,177.569 "
     class="fil58"
     style="fill:#000000;fill-rule:nonzero"
     transform="matrix(1.8094894,0,0,1.8094894,-1018.7853,-67.600017)" />
  <polygon
     id="polygon3686"
     points="109.692,201.205 110.327,201.205 109.692,201.205 "
     class="fil59"
     style="fill:#ffffff;fill-rule:nonzero"
     transform="matrix(1.8094894,0,0,1.8094894,-1018.7853,-67.600017)" />
  <polygon
     id="polygon3690"
     points="89.5837,203.004 89.7601,203.004 89.5837,203.004 "
     class="fil58"
     style="fill:#000000;fill-rule:nonzero"
     transform="matrix(1.8094894,0,0,1.8094894,-1018.7853,-67.600017)" />
  <polygon
     id="polygon3694"
     points="109.621,203.251 109.974,203.251 109.621,203.251 "
     class="fil59"
     style="fill:#ffffff;fill-rule:nonzero"
     transform="matrix(1.8094894,0,0,1.8094894,-1018.7853,-67.600017)" />
  <polygon
     id="polygon3696"
     points="106.023,203.322 106.199,203.322 106.023,203.322 "
     class="fil59"
     style="fill:#ffffff;fill-rule:nonzero"
     transform="matrix(1.8094894,0,0,1.8094894,-1018.7853,-67.600017)" />
  <text
     xml:space="preserve"
     style="font-size:23.13551712px;font-style:normal;font-weight:normal;line-height:125%;letter-spacing:0px;word-spacing:0px;fill:#000000;fill-opacity:1;stroke:none;font-family:Sans"
     x="209.79828"
     y="-99.294235"
     id="text3753"
     sodipodi:linespacing="125%"
     transform="matrix(0.95987115,0.46132522,-0.44081971,0.82994343,0,0)"
     inkscape:export-filename="/mnt/nfs/geokrety/templates/logo/logo-sylwestra.png"
     inkscape:export-xdpi="115.51091"
     inkscape:export-ydpi="115.51091"><tspan
       sodipodi:role="line"
       id="tspan3755"
       x="209.79828"
       y="-99.294235"
       style="fill:#d40000">2013</tspan></text>
  <g
     id="g3832"
     transform="matrix(0.03451292,0,0,0.01313054,39.63881,0.60571584)"
     inkscape:export-filename="/mnt/nfs/geokrety/templates/logo/logo-sylwestra.png"
     inkscape:export-xdpi="115.51091"
     inkscape:export-ydpi="115.51091">
    <path
       sodipodi:nodetypes="ssssss"
       inkscape:connector-curvature="0"
       id="path3873"
       d="M 1119.2708,164.4752 C 1960.6522,73.881804 2844.4314,1056.4293 2620.4086,1928.9705 2407.0565,2759.9504 1819.9838,3215.7325 1237.7817,3114.0794 570.73181,2997.6116 1.2778901,2746.5338 0.00125415,2238.4156 -0.86758285,1892.6642 449.94373,1694.9501 566.21995,1369.3358 706.42183,976.7215 534.36415,227.4534 1119.2708,164.4752 z"
       style="fill:#e6e6ff;fill-opacity:1;stroke:none" />
    <g
       transform="matrix(2.7442729,0,0,2.7442729,-2146.3625,477.7663)"
       id="g3837">
      <path
         inkscape:connector-curvature="0"
         id="path3839"
         d="m 1194.3073,658.5361 115.3592,74.6442"
         style="fill:#b8b8d9;fill-opacity:1;stroke:#b8b8d9;stroke-width:6.56699991;stroke-linecap:round;stroke-linejoin:round;stroke-miterlimit:4;stroke-opacity:1;stroke-dasharray:none" />
      <path
         inkscape:connector-curvature="0"
         id="path3841"
         d="m 1283.7955,607.2182 -75.4924,166.67713"
         style="fill:#b8b8d9;fill-opacity:1;stroke:#b8b8d9;stroke-width:6.56699991;stroke-linecap:round;stroke-linejoin:round;stroke-miterlimit:4;stroke-opacity:1;stroke-dasharray:none" />
      <path
         inkscape:connector-curvature="0"
         id="path3843"
         d="m 1237.1429,654.29495 16.9646,81.85416"
         style="fill:#b8b8d9;fill-opacity:1;stroke:#b8b8d9;stroke-width:4.96700001;stroke-linecap:round;stroke-linejoin:round;stroke-miterlimit:4;stroke-opacity:1;stroke-dasharray:none" />
      <path
         inkscape:connector-curvature="0"
         id="path3845"
         d="m 1287.1884,676.34892 -72.9477,23.75043"
         style="fill:#b8b8d9;fill-opacity:1;stroke:#b8b8d9;stroke-width:4.96700001;stroke-linecap:round;stroke-linejoin:round;stroke-miterlimit:4;stroke-opacity:1;stroke-dasharray:none" />
      <path
         transform="translate(-521.66122,4.2411482)"
         d="m 1734.6296,696.28229 c 0,2.57655 -2.0887,4.66526 -4.6652,4.66526 -2.5766,0 -4.6653,-2.08871 -4.6653,-4.66526 0,-2.57656 2.0887,-4.66527 4.6653,-4.66527 2.5765,0 4.6652,2.08871 4.6652,4.66527 z"
         sodipodi:ry="4.6652632"
         sodipodi:rx="4.6652632"
         sodipodi:cy="696.28229"
         sodipodi:cx="1729.9644"
         id="path3847"
         style="fill:#b8b8d9;fill-opacity:1;stroke:#b8b8d9;stroke-width:4.96700001;stroke-linecap:round;stroke-linejoin:round;stroke-miterlimit:4;stroke-opacity:1;stroke-dasharray:none;stroke-dashoffset:0"
         sodipodi:type="arc" />
      <path
         sodipodi:type="arc"
         style="fill:#b8b8d9;fill-opacity:1;stroke:#b8b8d9;stroke-width:4.96700001;stroke-linecap:round;stroke-linejoin:round;stroke-miterlimit:4;stroke-opacity:1;stroke-dasharray:none;stroke-dashoffset:0"
         id="path3849"
         sodipodi:cx="1729.9644"
         sodipodi:cy="696.28229"
         sodipodi:rx="4.6652632"
         sodipodi:ry="4.6652632"
         d="m 1734.6296,696.28229 c 0,2.57655 -2.0887,4.66526 -4.6652,4.66526 -2.5766,0 -4.6653,-2.08871 -4.6653,-4.66526 0,-2.57656 2.0887,-4.66527 4.6653,-4.66527 2.5765,0 4.6652,2.08871 4.6652,4.66527 z"
         transform="translate(-415.63252,40.715022)" />
    </g>
    <g
       transform="matrix(2.7442729,0,0,2.7442729,-2126.6106,-825.8533)"
       id="g3851">
      <path
         style="fill:#b8b8d9;fill-opacity:1;stroke:#b8b8d9;stroke-width:6.56699991;stroke-linecap:round;stroke-linejoin:round;stroke-miterlimit:4;stroke-opacity:1;stroke-dasharray:none"
         d="m 1194.3073,658.5361 115.3592,74.6442"
         id="path3853"
         inkscape:connector-curvature="0" />
      <path
         style="fill:#b8b8d9;fill-opacity:1;stroke:#b8b8d9;stroke-width:6.56699991;stroke-linecap:round;stroke-linejoin:round;stroke-miterlimit:4;stroke-opacity:1;stroke-dasharray:none"
         d="m 1283.7955,607.2182 -75.4924,166.67713"
         id="path3855"
         inkscape:connector-curvature="0" />
      <path
         style="fill:#b8b8d9;fill-opacity:1;stroke:#b8b8d9;stroke-width:4.96700001;stroke-linecap:round;stroke-linejoin:round;stroke-miterlimit:4;stroke-opacity:1;stroke-dasharray:none"
         d="m 1237.1429,654.29495 16.9646,81.85416"
         id="path3857"
         inkscape:connector-curvature="0" />
      <path
         style="fill:#b8b8d9;fill-opacity:1;stroke:#b8b8d9;stroke-width:4.96700001;stroke-linecap:round;stroke-linejoin:round;stroke-miterlimit:4;stroke-opacity:1;stroke-dasharray:none"
         d="m 1287.1884,676.34892 -72.9477,23.75043"
         id="path3859"
         inkscape:connector-curvature="0" />
      <path
         sodipodi:type="arc"
         style="fill:#b8b8d9;fill-opacity:1;stroke:#b8b8d9;stroke-width:4.96700001;stroke-linecap:round;stroke-linejoin:round;stroke-miterlimit:4;stroke-opacity:1;stroke-dasharray:none;stroke-dashoffset:0"
         id="path3861"
         sodipodi:cx="1729.9644"
         sodipodi:cy="696.28229"
         sodipodi:rx="4.6652632"
         sodipodi:ry="4.6652632"
         d="m 1734.6296,696.28229 c 0,2.57655 -2.0887,4.66526 -4.6652,4.66526 -2.5766,0 -4.6653,-2.08871 -4.6653,-4.66526 0,-2.57656 2.0887,-4.66527 4.6653,-4.66527 2.5765,0 4.6652,2.08871 4.6652,4.66527 z"
         transform="translate(-521.66122,4.2411482)" />
      <path
         transform="translate(-415.63252,40.715022)"
         d="m 1734.6296,696.28229 c 0,2.57655 -2.0887,4.66526 -4.6652,4.66526 -2.5766,0 -4.6653,-2.08871 -4.6653,-4.66526 0,-2.57656 2.0887,-4.66527 4.6653,-4.66527 2.5765,0 4.6652,2.08871 4.6652,4.66527 z"
         sodipodi:ry="4.6652632"
         sodipodi:rx="4.6652632"
         sodipodi:cy="696.28229"
         sodipodi:cx="1729.9644"
         id="path3863"
         style="fill:#b8b8d9;fill-opacity:1;stroke:#b8b8d9;stroke-width:4.96700001;stroke-linecap:round;stroke-linejoin:round;stroke-miterlimit:4;stroke-opacity:1;stroke-dasharray:none;stroke-dashoffset:0"
         sodipodi:type="arc" />
    </g>
    <path
       sodipodi:nodetypes="ccssssccssssc"
       inkscape:connector-curvature="0"
       id="path2987"
       d="m 1772.2988,85.928304 147.9552,-65.7579 c 0,0 198.0265,316.723296 151.2432,476.744796 -33.6274,115.0218 -219.9432,124.3325 -276.1832,230.1526 -59.9689,112.8365 18.504,270.06073 -38.6327,381.3958 -25.7821,50.2381 -298.0762,172.8906 -296.7325,313.172 1.8135,189.3346 67.4752,275.4006 246.5921,298.3764 l -82.1974,88.7732 c -182.2285,-63.3936 -308.0422,-306.368 -230.1526,-458.6613 58.6226,-114.6216 276.1853,-150.3082 286.0468,-284.4029 3.8881,-52.869 -90.0849,-299.7235 -26.3031,-427.4264 C 1707.3121,531.4229 1922.6037,556.5142 1953.133,441.021 1987.0789,312.6028 1772.2988,85.928304 1772.2988,85.928304 z"
       style="fill:#ffe600;fill-opacity:1;stroke:#000000;stroke-width:40.34080887;stroke-linecap:round;stroke-linejoin:round;stroke-miterlimit:4;stroke-opacity:1;stroke-dasharray:none" />
    <path
       sodipodi:nodetypes="ccaaaaccaaaac"
       inkscape:connector-curvature="0"
       id="path2989"
       d="m 907.58246,1289.2978 c 13.1516,-6.5758 121.65214,-115.0763 121.65214,-115.0763 0,0 166.8014,175.0427 170.9705,286.0468 5.7025,151.8334 -187.128,256.6815 -203.84947,407.699 -15.53346,140.2883 97.09687,269.9238 101.92477,410.9868 5.177,151.2658 -134.53112,306.3902 -78.9095,447.1537 18.1241,45.8675 118.3642,88.7731 118.3642,88.7731 l -101.9247,134.8036 c 0,0 -153.52313,-121.7496 -170.97056,-210.4251 -26.30507,-133.6939 126.26674,-255.2317 118.36422,-391.2595 -8.45483,-145.5344 -182.01047,-255.5496 -174.25842,-401.1231 9.9178,-186.2435 302.95056,-302.0319 276.18316,-486.6085 -11.7917,-81.3102 -177.54634,-170.9705 -177.54634,-170.9705 z"
       style="fill:#8fccf0;fill-opacity:1;stroke:#000000;stroke-width:40.34080887;stroke-linecap:round;stroke-linejoin:round;stroke-miterlimit:4;stroke-opacity:1;stroke-dasharray:none" />
    <path
       inkscape:connector-curvature="0"
       id="path2993"
       d="m 2143.8309,727.0678 180.8342,46.0305 -26.3032,161.1069 -105.2126,6.5758 z"
       style="fill:#ffe600;fill-opacity:1;stroke:#000000;stroke-width:40.34080887;stroke-linecap:round;stroke-linejoin:round;stroke-miterlimit:4;stroke-opacity:1;stroke-dasharray:none" />
    <path
       inkscape:connector-curvature="0"
       id="path2995"
       d="m 2347.6803,865.1594 65.7579,62.47 0,147.9552 -141.3794,36.1669 -13.1516,-128.2279 z"
       style="fill:#8fccf0;fill-opacity:1;stroke:#000000;stroke-width:40.34080887;stroke-linecap:round;stroke-linejoin:round;stroke-miterlimit:4;stroke-opacity:1;stroke-dasharray:none" />
    <path
       inkscape:connector-curvature="0"
       id="path2997"
       d="m 2373.9835,582.4004 138.0916,-98.6368 65.7579,115.0763 -124.94,85.4853 z"
       style="fill:#f02424;fill-opacity:1;stroke:#000000;stroke-width:40.34080887;stroke-linecap:round;stroke-linejoin:round;stroke-miterlimit:4;stroke-opacity:1;stroke-dasharray:none" />
    <path
       inkscape:connector-curvature="0"
       id="path2999"
       d="m 2620.5756,1246.5552 95.3489,108.5005 -141.3794,98.6368 -65.7579,-105.2126 z"
       style="fill:#ffe600;fill-opacity:1;stroke:#000000;stroke-width:40.34080887;stroke-linecap:round;stroke-linejoin:round;stroke-miterlimit:4;stroke-opacity:1;stroke-dasharray:none" />
    <path
       inkscape:connector-curvature="0"
       id="path3001"
       d="m 2886.8952,1286.0099 138.0916,65.7579 -98.6369,144.6674 -118.3643,-98.6369 z"
       style="fill:#ff6600;fill-opacity:1;stroke:#000000;stroke-width:40.34080887;stroke-linecap:round;stroke-linejoin:round;stroke-miterlimit:4;stroke-opacity:1;stroke-dasharray:none" />
    <path
       inkscape:connector-curvature="0"
       id="path3003"
       d="m 1456.6609,362.1115 217.001,49.3184 -95.3489,177.5463 -157.8189,-59.1821 z"
       style="fill:#ff4db3;fill-opacity:1;stroke:#000000;stroke-width:40.34080887;stroke-linecap:round;stroke-linejoin:round;stroke-miterlimit:4;stroke-opacity:1;stroke-dasharray:none" />
    <path
       inkscape:connector-curvature="0"
       id="path3005"
       d="m 1187.0535,644.8704 170.9705,49.3185 -190.6978,240.0163 -157.819,-184.1221 z"
       style="fill:#f02424;fill-opacity:1;stroke:#000000;stroke-width:40.34080887;stroke-linecap:round;stroke-linejoin:round;stroke-miterlimit:4;stroke-opacity:1;stroke-dasharray:none" />
    <path
       inkscape:connector-curvature="0"
       id="path3007"
       d="M 769.4909,569.2489 910.87038,704.0525 815.52141,848.7199 631.39931,694.1889 z"
       style="fill:#8fccf0;fill-opacity:1;stroke:#000000;stroke-width:40.34080887;stroke-linecap:round;stroke-linejoin:round;stroke-miterlimit:4;stroke-opacity:1;stroke-dasharray:none" />
    <path
       inkscape:connector-curvature="0"
       id="path3009"
       d="M 595.23248,1092.0241 631.39931,1200.5247 516.323,1282.722 450.56509,1180.7973 z"
       style="fill:#ffe600;fill-opacity:1;stroke:#000000;stroke-width:40.34080887;stroke-linecap:round;stroke-linejoin:round;stroke-miterlimit:4;stroke-opacity:1;stroke-dasharray:none" />
    <path
       inkscape:connector-curvature="0"
       id="path3011"
       d="m 588.65668,1529.3141 121.65211,39.4548 -52.60631,128.2278 -141.37948,-26.3031 z"
       style="fill:#ff6600;fill-opacity:1;stroke:#000000;stroke-width:40.34080887;stroke-linecap:round;stroke-linejoin:round;stroke-miterlimit:4;stroke-opacity:1;stroke-dasharray:none" />
    <path
       sodipodi:nodetypes="ccaaaccaasc"
       inkscape:connector-curvature="0"
       id="path3013"
       d="m 401.24669,1608.2236 78.90946,72.3337 c 0,0 -47.42809,50.0821 -52.60631,82.1974 -9.18193,56.9459 34.79046,110.5519 42.74262,167.6826 5.5925,40.1781 -12.29264,84.198 3.28791,121.6521 12.50162,30.0526 67.3713,70.6836 67.3713,70.6836 l -72.26444,88.7569 c 0,0 -50.04665,-53.9437 -64.1282,-87.1476 -15.39002,-36.2892 -11.0716,-78.1418 -19.75182,-116.5919 -17.6919,-78.3686 -52.81812,-111.3365 -65.73752,-231.8842 -11.89127,-110.9544 82.177,-167.6826 82.177,-167.6826 z"
       style="fill:#8ad100;fill-opacity:1;stroke:#000000;stroke-width:40.34080887;stroke-linecap:round;stroke-linejoin:round;stroke-miterlimit:4;stroke-opacity:1;stroke-dasharray:none" />
    <path
       inkscape:connector-curvature="0"
       id="path3015"
       d="m 276.30668,2091.5441 72.33369,118.3642 -207.13737,95.349 0,-167.6827 z"
       style="fill:#f02424;fill-opacity:1;stroke:#000000;stroke-width:40.34080887;stroke-linecap:round;stroke-linejoin:round;stroke-miterlimit:4;stroke-opacity:1;stroke-dasharray:none" />
    <path
       inkscape:connector-curvature="0"
       id="path3017"
       d="m 624.82354,2265.8025 c 26.30314,0 151.24316,13.1516 151.24316,13.1516 l -26.30317,170.9705 -138.09156,-16.4394 z"
       style="fill:#ff4db3;fill-opacity:1;stroke:#000000;stroke-width:40.34080887;stroke-linecap:round;stroke-linejoin:round;stroke-miterlimit:4;stroke-opacity:1;stroke-dasharray:none" />
    <path
       inkscape:connector-curvature="0"
       id="path3019"
       d="m 1328.433,2209.9083 213.7131,-98.6368 52.6064,131.5158 -138.0916,115.0763 z"
       style="fill:#ffe600;fill-opacity:1;stroke:#000000;stroke-width:40.34080887;stroke-linecap:round;stroke-linejoin:round;stroke-miterlimit:4;stroke-opacity:1;stroke-dasharray:none" />
    <path
       inkscape:connector-curvature="0"
       id="path3021"
       d="m 1958.0648,1302.4494 120.0082,64.1139 -69.0458,138.0916 -115.0763,-100.2808 z"
       style="fill:#8ad100;fill-opacity:1;stroke:#000000;stroke-width:40.34080887;stroke-linecap:round;stroke-linejoin:round;stroke-miterlimit:4;stroke-opacity:1;stroke-dasharray:none" />
    <path
       sodipodi:nodetypes="ccccc"
       inkscape:connector-curvature="0"
       id="path3023"
       d="m 1614.4798,2624.1831 37.8108,157.8576 -143.0642,70.6409 -68.9622,-164.4212 z"
       style="fill:#f02424;fill-opacity:1;stroke:#000000;stroke-width:40.34080887;stroke-linecap:round;stroke-linejoin:round;stroke-miterlimit:4;stroke-opacity:1;stroke-dasharray:none" />
    <path
       sodipodi:nodetypes="cscsc"
       style="fill:#8fccf0;fill-opacity:1;stroke:#000000;stroke-width:40.34080887;stroke-linecap:round;stroke-linejoin:round;stroke-miterlimit:4;stroke-opacity:1;stroke-dasharray:none"
       d="m 2508.7872,1854.8157 c 26.3031,0 113.4051,29.3154 144.6592,69.115 35.612,45.3491 -1.6134,123.237 -1.6134,123.237 0,0 -126.7971,11.17 -156.1974,-24.6694 -35.5589,-43.3468 13.1516,-167.6826 13.1516,-167.6826 z"
       id="path3793"
       inkscape:connector-curvature="0" />
    <path
       sodipodi:nodetypes="cccsc"
       inkscape:connector-curvature="0"
       id="path3795"
       d="m 2298.4353,2206.596 c 26.3031,0 115.0315,100.3888 115.0315,100.3888 l -105.3104,161.0946 c 0,0 -101.27,-90.0574 -98.588,-149.7642 2.1354,-47.5365 88.8669,-111.7192 88.8669,-111.7192 z"
       style="fill:#8ad100;fill-opacity:1;stroke:#000000;stroke-width:40.34080887;stroke-linecap:round;stroke-linejoin:round;stroke-miterlimit:4;stroke-opacity:1;stroke-dasharray:none" />
    <path
       sodipodi:nodetypes="ccccc"
       style="fill:#8fccf0;fill-opacity:1;stroke:#000000;stroke-width:40.34080887;stroke-linecap:round;stroke-linejoin:round;stroke-miterlimit:4;stroke-opacity:1;stroke-dasharray:none"
       d="m 2056.7404,2676.8097 c 26.3031,0 116.6775,67.4691 116.6775,67.4691 l -54.2849,110.0691 -128.2157,-65.8189 z"
       id="path3797"
       inkscape:connector-curvature="0" />
    <path
       sodipodi:nodetypes="ccccc"
       inkscape:connector-curvature="0"
       id="path3799"
       d="m 682.47371,2920.1386 c 26.30314,0 103.50961,47.7171 103.50961,47.7171 l -111.89435,118.299 -121.63172,-59.2351 z"
       style="fill:#8fccf0;fill-opacity:1;stroke:#000000;stroke-width:40.34080887;stroke-linecap:round;stroke-linejoin:round;stroke-miterlimit:4;stroke-opacity:1;stroke-dasharray:none" />
    <g
       transform="matrix(2.7442729,0,0,2.7442729,98.760368,10.306804)"
       id="g3809">
      <path
         style="fill:#ff4db3;fill-opacity:1;stroke:#000000;stroke-width:14.69999981;stroke-linecap:round;stroke-linejoin:round;stroke-miterlimit:4;stroke-opacity:1;stroke-dasharray:none"
         d="m 765.58157,451.68114 56.31038,-3.59428 c 0,0 7.55099,209.65123 -58.70657,276.75954 -29.33837,29.71507 -88.85694,52.68776 -122.20551,27.55614 -27.79347,-20.94527 -32.76166,-81.9971 -5.99046,-104.23411 24.36452,-20.23795 73.63229,-2.85784 92.25318,22.76377 7.25279,9.97955 9.71503,12.07062 10.73215,24.2709 0.50153,6.01578 -0.73031,21.2282 -2.05372,34.16854 -0.71475,6.98881 -1.45621,13.31488 -1.96573,17.17153 -3.52669,26.69367 -9.42706,35.70077 -16.29745,57.37738 -13.80256,43.54815 -63.92981,72.23255 -70.6875,117.41314 -2.43577,16.28506 11.98093,47.92373 11.98093,47.92373 l -49.12182,17.97139 c 0,0 -19.17213,-44.72938 -14.37712,-67.09322 11.73876,-54.74937 81.69138,-82.27882 99.44174,-135.38453 10.88843,-32.57612 26.1182,-79.39813 1.19809,-103.03602 -9.0009,-8.53777 -29.21083,-7.14445 -37.14089,2.39619 -6.42773,7.73319 -4.59571,24.11778 3.59428,29.95233 19.9688,14.22576 53.51796,0.66533 71.88559,-15.57521 26.30449,-23.25826 28.58764,-64.8735 34.74471,-99.44174 8.54481,-47.97397 2.39618,-146.16737 2.39618,-146.16737 l -5.24165,-1.34786 z"
         id="path2991"
         inkscape:connector-curvature="0"
         sodipodi:nodetypes="ccaaasssssaccaaaaaaaccc" />
      <path
         style="fill:#ff4db3;fill-opacity:1;stroke:#ff4db3;stroke-width:13.61534214;stroke-linecap:butt;stroke-linejoin:miter;stroke-miterlimit:4;stroke-opacity:1;stroke-dasharray:none"
         d="m 706.9071,729.50647 14.51217,-6.78935 19.26106,-13.7468 -3.57743,18.91294 -21.10066,12.76925 -11.50311,3.33758 1.00126,-6.8881 z"
         id="path3801"
         inkscape:connector-curvature="0"
         sodipodi:nodetypes="cccccccc" />
    </g>
    <g
       transform="matrix(2.7442729,0,0,2.7442729,-3002.2743,609.4451)"
       id="g3825">
      <path
         style="fill:#b8b8d9;fill-opacity:1;stroke:#b8b8d9;stroke-width:6.56699991;stroke-linecap:round;stroke-linejoin:round;stroke-miterlimit:4;stroke-opacity:1;stroke-dasharray:none"
         d="m 1194.3073,658.5361 115.3592,74.6442"
         id="path3813"
         inkscape:connector-curvature="0" />
      <path
         style="fill:#b8b8d9;fill-opacity:1;stroke:#b8b8d9;stroke-width:6.56699991;stroke-linecap:round;stroke-linejoin:round;stroke-miterlimit:4;stroke-opacity:1;stroke-dasharray:none"
         d="m 1283.7955,607.2182 -75.4924,166.67713"
         id="path3815"
         inkscape:connector-curvature="0" />
      <path
         style="fill:#b8b8d9;fill-opacity:1;stroke:#b8b8d9;stroke-width:4.96700001;stroke-linecap:round;stroke-linejoin:round;stroke-miterlimit:4;stroke-opacity:1;stroke-dasharray:none"
         d="m 1237.1429,654.29495 16.9646,81.85416"
         id="path3817"
         inkscape:connector-curvature="0" />
      <path
         style="fill:#b8b8d9;fill-opacity:1;stroke:#b8b8d9;stroke-width:4.96700001;stroke-linecap:round;stroke-linejoin:round;stroke-miterlimit:4;stroke-opacity:1;stroke-dasharray:none"
         d="m 1287.1884,676.34892 -72.9477,23.75043"
         id="path3819"
         inkscape:connector-curvature="0" />
      <path
         sodipodi:type="arc"
         style="fill:#b8b8d9;fill-opacity:1;stroke:#b8b8d9;stroke-width:4.96700001;stroke-linecap:round;stroke-linejoin:round;stroke-miterlimit:4;stroke-opacity:1;stroke-dasharray:none;stroke-dashoffset:0"
         id="path3821"
         sodipodi:cx="1729.9644"
         sodipodi:cy="696.28229"
         sodipodi:rx="4.6652632"
         sodipodi:ry="4.6652632"
         d="m 1734.6296,696.28229 c 0,2.57655 -2.0887,4.66526 -4.6652,4.66526 -2.5766,0 -4.6653,-2.08871 -4.6653,-4.66526 0,-2.57656 2.0887,-4.66527 4.6653,-4.66527 2.5765,0 4.6652,2.08871 4.6652,4.66527 z"
         transform="translate(-521.66122,4.2411482)" />
      <path
         transform="translate(-415.63252,40.715022)"
         d="m 1734.6296,696.28229 c 0,2.57655 -2.0887,4.66526 -4.6652,4.66526 -2.5766,0 -4.6653,-2.08871 -4.6653,-4.66526 0,-2.57656 2.0887,-4.66527 4.6653,-4.66527 2.5765,0 4.6652,2.08871 4.6652,4.66527 z"
         sodipodi:ry="4.6652632"
         sodipodi:rx="4.6652632"
         sodipodi:cy="696.28229"
         sodipodi:cx="1729.9644"
         id="path3823"
         style="fill:#b8b8d9;fill-opacity:1;stroke:#b8b8d9;stroke-width:4.96700001;stroke-linecap:round;stroke-linejoin:round;stroke-miterlimit:4;stroke-opacity:1;stroke-dasharray:none;stroke-dashoffset:0"
         sodipodi:type="arc" />
    </g>
    <path
       transform="matrix(2.7442729,0,0,2.7442729,-3687.0039,97.543904)"
       d="m 1993.0986,804.7148 -12.5053,-30.11376 -29.4217,14.56442 19.8267,-25.88672 -27.3241,-18.19777 32.3319,4.22705 2.0977,-32.7622 12.5053,30.11376 29.4217,-14.56442 -19.8267,25.88672 27.3241,18.19777 -32.3319,-4.22705 z"
       inkscape:randomized="0"
       inkscape:rounded="0"
       inkscape:flatsided="false"
       sodipodi:arg2="1.9149823"
       sodipodi:arg1="1.4023401"
       sodipodi:r2="14.841152"
       sodipodi:r1="44.717472"
       sodipodi:cy="760.63031"
       sodipodi:cx="1985.6012"
       sodipodi:sides="6"
       id="path3833"
       style="fill:#b8b8d9;fill-opacity:1;stroke:#b8b8d9;stroke-width:1.60000002;stroke-linecap:butt;stroke-linejoin:miter;stroke-miterlimit:4;stroke-opacity:1;stroke-dasharray:none;stroke-dashoffset:0"
       sodipodi:type="star" />
    <path
       sodipodi:type="star"
       style="fill:#b8b8d9;fill-opacity:1;stroke:#b8b8d9;stroke-width:1.60000002;stroke-linecap:butt;stroke-linejoin:miter;stroke-miterlimit:4;stroke-opacity:1;stroke-dasharray:none;stroke-dashoffset:0"
       id="path3865"
       sodipodi:sides="6"
       sodipodi:cx="1985.6012"
       sodipodi:cy="760.63031"
       sodipodi:r1="44.717472"
       sodipodi:r2="14.841152"
       sodipodi:arg1="1.4023401"
       sodipodi:arg2="1.9149823"
       inkscape:flatsided="false"
       inkscape:rounded="0"
       inkscape:randomized="0"
       d="m 1993.0986,804.7148 -12.5053,-30.11376 -29.4217,14.56442 19.8267,-25.88672 -27.3241,-18.19777 32.3319,4.22705 2.0977,-32.7622 12.5053,30.11376 29.4217,-14.56442 -19.8267,25.88672 27.3241,18.19777 -32.3319,-4.22705 z"
       transform="matrix(2.7442729,0,0,2.7442729,-2890.3475,-462.0908)" />
    <path
       transform="matrix(2.7442729,0,0,2.7442729,-3476.3181,-1054.6452)"
       d="m 1993.0986,804.7148 -12.5053,-30.11376 -29.4217,14.56442 19.8267,-25.88672 -27.3241,-18.19777 32.3319,4.22705 2.0977,-32.7622 12.5053,30.11376 29.4217,-14.56442 -19.8267,25.88672 27.3241,18.19777 -32.3319,-4.22705 z"
       inkscape:randomized="0"
       inkscape:rounded="0"
       inkscape:flatsided="false"
       sodipodi:arg2="1.9149823"
       sodipodi:arg1="1.4023401"
       sodipodi:r2="14.841152"
       sodipodi:r1="44.717472"
       sodipodi:cy="760.63031"
       sodipodi:cx="1985.6012"
       sodipodi:sides="6"
       id="path3867"
       style="fill:#b8b8d9;fill-opacity:1;stroke:#b8b8d9;stroke-width:1.60000002;stroke-linecap:butt;stroke-linejoin:miter;stroke-miterlimit:4;stroke-opacity:1;stroke-dasharray:none;stroke-dashoffset:0"
       sodipodi:type="star" />
    <path
       sodipodi:type="star"
       style="fill:#b8b8d9;fill-opacity:1;stroke:#b8b8d9;stroke-width:1.60000002;stroke-linecap:butt;stroke-linejoin:miter;stroke-miterlimit:4;stroke-opacity:1;stroke-dasharray:none;stroke-dashoffset:0"
       id="path3869"
       sodipodi:sides="6"
       sodipodi:cx="1985.6012"
       sodipodi:cy="760.63031"
       sodipodi:r1="44.717472"
       sodipodi:r2="14.841152"
       sodipodi:arg1="1.4023401"
       sodipodi:arg2="1.9149823"
       inkscape:flatsided="false"
       inkscape:rounded="0"
       inkscape:randomized="0"
       d="m 1993.0986,804.7148 -12.5053,-30.11376 -29.4217,14.56442 19.8267,-25.88672 -27.3241,-18.19777 32.3319,4.22705 2.0977,-32.7622 12.5053,30.11376 29.4217,-14.56442 -19.8267,25.88672 27.3241,18.19777 -32.3319,-4.22705 z"
       transform="matrix(2.7442729,0,0,2.7442729,-4740.4342,-705.6965)" />
    <path
       transform="matrix(2.7442729,0,0,2.7442729,-4549.5,-1752.5426)"
       d="m 1993.0986,804.7148 -12.5053,-30.11376 -29.4217,14.56442 19.8267,-25.88672 -27.3241,-18.19777 32.3319,4.22705 2.0977,-32.7622 12.5053,30.11376 29.4217,-14.56442 -19.8267,25.88672 27.3241,18.19777 -32.3319,-4.22705 z"
       inkscape:randomized="0"
       inkscape:rounded="0"
       inkscape:flatsided="false"
       sodipodi:arg2="1.9149823"
       sodipodi:arg1="1.4023401"
       sodipodi:r2="14.841152"
       sodipodi:r1="44.717472"
       sodipodi:cy="760.63031"
       sodipodi:cx="1985.6012"
       sodipodi:sides="6"
       id="path3871"
       style="fill:#b8b8d9;fill-opacity:1;stroke:#b8b8d9;stroke-width:1.60000002;stroke-linecap:butt;stroke-linejoin:miter;stroke-miterlimit:4;stroke-opacity:1;stroke-dasharray:none;stroke-dashoffset:0"
       sodipodi:type="star" />
  </g>
  <g
     id="g3042"
     inkscape:export-filename="/mnt/nfs/geokrety/templates/logo/logo-sylwestra.png"
     inkscape:export-xdpi="115.51091"
     inkscape:export-ydpi="115.51091">
    <g
       inkscape:export-ydpi="468.53"
       inkscape:export-xdpi="468.53"
       inkscape:export-filename="/home/filips/svn/geokrety/rzeczy/logo/geokrety.png"
       transform="matrix(1.3540786,0,0,1.3449296,40.482725,95.524571)"
       id="g2490">
      <rect
         style="fill:#000000;fill-opacity:1;fill-rule:nonzero;stroke:none"
         id="rect3251"
         y="-68.511658"
         x="64.375893"
         height="26.478128"
         width="61.299881" />
      <path
         inkscape:connector-curvature="0"
         style="font-size:22.94870567px;font-style:normal;font-weight:normal;fill:#000000;fill-opacity:1;stroke:none;font-family:Bitstream Vera Sans"
         d="m 31.101862,-50.457391 0,-4.566773 -3.65464,0 0,-1.890484 5.869574,0 0,7.300003 c -0.863838,0.630162 -1.816259,1.10658 -2.857264,1.429252 -1.041031,0.322672 -2.152188,0.484009 -3.333475,0.48401 -2.584097,-10e-7 -4.605221,-0.776314 -6.063381,-2.328941 -1.458167,-1.552623 -2.187248,-3.71453 -2.187247,-6.485728 -1e-6,-2.778772 0.72908,-4.944476 2.187247,-6.497117 1.45816,-1.55261 3.479284,-2.328922 6.063381,-2.328939 1.077923,1.7e-5 2.10233,0.136678 3.07322,0.409984 0.970866,0.27334 1.866068,0.675732 2.685607,1.207177 l 0,2.448519 c -0.826922,-0.721255 -1.705512,-1.264105 -2.635771,-1.62855 -0.930284,-0.364415 -1.908545,-0.54663 -2.934787,-0.546647 -2.02298,1.7e-5 -3.542054,0.580827 -4.557226,1.742435 -1.015182,1.161635 -1.522771,2.89268 -1.522767,5.193138 -4e-6,2.292883 0.507585,4.020131 1.522767,5.181749 1.015172,1.161625 2.534246,1.742436 4.557226,1.742435 0.789982,10e-7 1.495069,-0.07023 2.115262,-0.210687 0.620169,-0.140455 1.177594,-0.358735 1.672274,-0.654836 l 0,0 z m 16.833497,-4.475665 0,1.024961 -9.36917,0 c 0.08859,1.442544 0.511277,2.541529 1.26805,3.29696 0.756763,0.755436 1.810702,1.133153 3.161818,1.133152 0.782601,1e-6 1.541215,-0.0987 2.275844,-0.296101 0.734609,-0.197397 1.46369,-0.493497 2.187247,-0.888299 l 0,1.981591 c -0.73094,0.318878 -1.480324,0.561832 -2.248157,0.728862 -0.767854,0.167031 -1.546771,0.250546 -2.336755,0.250547 -1.97868,-10e-7 -3.545744,-0.5922 -4.701197,-1.7766 -1.155459,-1.184398 -1.733187,-2.786373 -1.733186,-4.80593 -10e-7,-2.087876 0.548194,-3.744896 1.644588,-4.971064 1.096388,-1.226145 2.574855,-1.839223 4.435405,-1.839236 1.668574,1.3e-5 2.988304,0.552352 3.959194,1.657021 0.970867,1.104691 1.456306,2.606068 1.456319,4.504136 l 0,0 z m -2.037739,-0.614976 c -0.01478,-1.146431 -0.326714,-2.061303 -0.93581,-2.744619 -0.609116,-0.683298 -1.41572,-1.02495 -2.419814,-1.024962 -1.137006,1.2e-5 -2.046974,0.330276 -2.729907,0.990796 -0.682941,0.66054 -1.076092,1.590597 -1.179452,2.790172 l 7.264983,-0.01139 z m 10.188695,-3.769581 c -1.092707,1.2e-5 -1.95653,0.438466 -2.591473,1.315367 -0.634951,0.876921 -0.952424,2.078402 -0.952421,3.604448 -3e-6,1.526059 0.315625,2.72754 0.946884,3.604447 0.631251,0.876913 1.49692,1.315369 2.59701,1.315368 1.08531,1e-6 1.945441,-0.440352 2.580397,-1.321062 0.634938,-0.880704 0.952412,-2.080287 0.952422,-3.598753 -1e-5,-1.510861 -0.317484,-2.708547 -0.952422,-3.59306 -0.634956,-0.884492 -1.495087,-1.326743 -2.580397,-1.326755 l 0,0 z m 0,-1.7766 c 1.771938,1.3e-5 3.163653,0.592212 4.17515,1.7766 1.011475,1.18441 1.517217,2.824346 1.517229,4.919815 -1.2e-5,2.087888 -0.505754,3.725927 -1.517229,4.91412 -1.011497,1.188197 -2.403212,1.782294 -4.17515,1.782295 -1.779335,-10e-7 -3.172896,-0.594098 -4.180688,-1.782295 -1.007796,-1.188193 -1.511693,-2.826232 -1.511692,-4.91412 -10e-7,-2.095469 0.503896,-3.735405 1.511692,-4.919815 1.007792,-1.184388 2.401353,-1.776587 4.180688,-1.7766 l 0,0 z"
         id="text2383" />
      <path
         inkscape:connector-curvature="0"
         style="font-size:40px;font-style:normal;font-weight:normal;fill:#ffffff;fill-opacity:1;stroke:none;font-family:Bitstream Vera Sans"
         d="m 66.871012,-65.831418 2.077637,0 0,10.3208 6.165527,-5.42431 2.63916,0 -6.670898,5.88476 6.95166,6.69336 -2.695312,0 -6.390137,-6.14307 0,6.14307 -2.077637,0 0,-17.47461 z m 20.708984,6.82813 c -0.232105,-0.13476 -0.48479,-0.23396 -0.758056,-0.29761 -0.273283,-0.06363 -0.574634,-0.09545 -0.904053,-0.09546 -1.167975,10e-6 -2.06454,0.37998 -2.689697,1.13989 -0.625167,0.75994 -0.937748,1.85117 -0.937744,3.27368 l 0,6.62598 -2.077637,0 0,-12.57812 2.077637,0 0,1.9541 c 0.43424,-0.76366 0.999506,-1.3308 1.6958,-1.70142 0.696283,-0.37059 1.542311,-0.55589 2.538086,-0.55591 0.142244,2e-5 0.299471,0.0094 0.47168,0.02808 0.172192,0.01873 0.363109,0.04681 0.572754,0.08423 l 0.01123,2.12256 z m 12.948734,3.84082 0,1.01074 -9.50098,0 c 0.08984,1.42253 0.51847,2.50627 1.285889,3.25122 0.76741,0.74496 1.836175,1.11743 3.206299,1.11743 0.793611,0 1.562897,-0.09733 2.307861,-0.29199 0.744944,-0.19466 1.484282,-0.48665 2.218021,-0.87598 l 0,1.9541 c -0.741226,0.31446 -1.501153,0.55404 -2.279788,0.71875 -0.778656,0.16472 -1.568531,0.24707 -2.369629,0.24707 -2.006516,0 -3.595626,-0.58398 -4.767334,-1.75195 -1.171714,-1.16796 -1.75757,-2.74772 -1.757569,-4.73926 -10e-7,-2.05891 0.555907,-3.69294 1.667725,-4.9021 1.111812,-1.20913 2.611078,-1.8137 4.497803,-1.81372 1.692048,2e-5 3.030344,0.54469 4.014892,1.63404 0.98453,1.08936 1.47679,2.56991 1.47681,4.44165 l 0,0 z m -2.066409,-0.60645 c -0.01498,-1.13052 -0.33131,-2.0327 -0.948975,-2.70654 -0.617685,-0.67382 -1.435637,-1.01073 -2.453857,-1.01074 -1.153001,1e-5 -2.075771,0.32569 -2.768311,0.97705 -0.692549,0.65137 -1.091231,1.56853 -1.196045,2.75146 l 7.367188,-0.01123 z m 7.501949,-8.7373 0,3.57129 4.25635,0 0,1.60595 -4.25635,0 0,6.82813 c 0,1.02572 0.14038,1.68457 0.42115,1.97656 0.28075,0.29199 0.85163,0.43799 1.71264,0.43799 l 2.12256,0 0,1.72949 -2.12256,0 c -1.59473,0 -2.69531,-0.29761 -3.30176,-0.89282 -0.60644,-0.59521 -0.90967,-1.67895 -0.90966,-3.25122 l 0,-6.82813 -1.51612,0 0,-1.60595 1.51612,0 0,-3.57129 2.07763,0 z m 12.21875,17.31738 c -0.58399,1.49739 -1.153,2.47444 -1.70703,2.93115 -0.55404,0.4567 -1.29525,0.68506 -2.22363,0.68506 l -1.65088,0 0,-1.72949 1.21289,0 c 0.56901,0 1.01074,-0.13477 1.3252,-0.4043 0.31444,-0.26953 0.66259,-0.90592 1.04443,-1.90918 l 0.37061,-0.94336 -5.08741,-12.37597 2.18994,0 3.93067,9.83789 3.93066,-9.83789 2.18994,0 -5.52539,13.74609 z"
         id="text2479" />
      <path
         inkscape:connector-curvature="0"
         style="font-size:23px;font-style:normal;font-weight:normal;fill:#000000;fill-opacity:1;stroke:none;font-family:Bitstream Vera Sans"
         d="m 127.65643,-50.958365 2.36963,0 0,2.85254 -2.36963,0 0,-2.85254 z m 11.9043,-8.27686 c -1.10808,1e-5 -1.98406,0.43239 -2.62793,1.29712 -0.64389,0.86476 -0.96583,2.04957 -0.96582,3.55445 -1e-5,1.50488 0.32006,2.6897 0.9602,3.55444 0.64013,0.86475 1.51798,1.29712 2.63355,1.29712 1.10057,0 1.97281,-0.43424 2.6167,-1.30274 0.64386,-0.86848 0.9658,-2.05142 0.96582,-3.54882 -2e-5,-1.4899 -0.32196,-2.67097 -0.96582,-3.54322 -0.64389,-0.87222 -1.51613,-1.30834 -2.6167,-1.30835 l 0,0 z m 0,-1.75195 c 1.79686,1e-5 3.20816,0.584 4.23388,1.75195 1.02571,1.16798 1.53856,2.78517 1.53858,4.85157 -2e-5,2.05892 -0.51287,3.67423 -1.53858,4.84594 -1.02572,1.17172 -2.43702,1.75757 -4.23388,1.75757 -1.80437,0 -3.21754,-0.58585 -4.23951,-1.75757 -1.02197,-1.17171 -1.53296,-2.78702 -1.53296,-4.84594 0,-2.0664 0.51099,-3.68359 1.53296,-4.85157 1.02197,-1.16795 2.43514,-1.75194 4.23951,-1.75195 l 0,0 z m 16.47509,2.23486 c -0.2321,-0.13475 -0.48479,-0.23395 -0.75805,-0.2976 -0.27329,-0.06363 -0.57464,-0.09545 -0.90406,-0.09546 -1.16797,1e-5 -2.06454,0.37997 -2.68969,1.13989 -0.62517,0.75994 -0.93775,1.85116 -0.93775,3.27368 l 0,6.62598 -2.07763,0 0,-12.57813 2.07763,0 0,1.9541 c 0.43424,-0.76366 0.99951,-1.33079 1.6958,-1.70141 0.69629,-0.37059 1.54231,-0.5559 2.53809,-0.55591 0.14224,1e-5 0.29947,0.0094 0.47168,0.02808 0.17219,0.01873 0.36311,0.0468 0.57275,0.08423 l 0.0112,2.12255 z m 10.4668,4.21143 c -1e-5,-1.49739 -0.30885,-2.65787 -0.92651,-3.48145 -0.61769,-0.82355 -1.4843,-1.23534 -2.59986,-1.23535 -1.10808,1e-5 -1.97095,0.4118 -2.58862,1.23535 -0.61768,0.82358 -0.92652,1.98406 -0.92651,3.48145 -1e-5,1.48991 0.30883,2.64665 0.92651,3.47021 0.61767,0.82357 1.48054,1.23536 2.58862,1.23536 1.11556,0 1.98217,-0.41179 2.59986,-1.23536 0.61766,-0.82356 0.9265,-1.9803 0.92651,-3.47021 l 0,0 z m 2.06641,4.87402 c -2e-5,2.14128 -0.47544,3.73413 -1.42627,4.77857 -0.95086,1.04443 -2.40708,1.566643 -4.36866,1.566648 -0.72624,-5e-6 -1.4113,-0.05429 -2.05517,-0.162842 -0.64389,-0.108565 -1.26905,-0.275146 -1.87549,-0.499756 l 0,-2.01025 c 0.60644,0.32942 1.2054,0.57275 1.79688,0.72998 0.59146,0.15722 1.19416,0.23583 1.8081,0.23584 1.35514,-1e-5 2.36962,-0.35377 3.04346,-1.06128 0.67382,-0.70752 1.01073,-1.77629 1.01074,-3.2063 l 0,-1.02197 c -0.42677,0.74121 -0.97332,1.29524 -1.63965,1.66211 -0.66635,0.36686 -1.46371,0.55029 -2.39209,0.55029 -1.54232,0 -2.78516,-0.58773 -3.72851,-1.76319 -0.94336,-1.17545 -1.41504,-2.73274 -1.41504,-4.67187 0,-1.94661 0.47168,-3.50764 1.41504,-4.68311 0.94335,-1.17544 2.18619,-1.76317 3.72851,-1.76318 0.92838,1e-5 1.72574,0.18344 2.39209,0.55029 0.66633,0.36688 1.21288,0.92091 1.63965,1.66211 l 0,-1.90918 2.06641,0 0,11.01709 z"
         id="text2483" />
    </g>
    <g
       inkscape:export-ydpi="468.53"
       inkscape:export-xdpi="468.53"
       inkscape:export-filename="/home/filips/svn/geokrety/rzeczy/logo/geokrety.png"
       transform="matrix(0.30205485,0,0,0.31234955,65.150981,5.4523323)"
       id="g15767">
      <polygon
         id="polygon2819"
         points="151.143,106.696 151.143,106.696 151.073,106.766 "
         class="fil59"
         style="fill:#ffffff;fill-rule:nonzero;stroke-linecap:round;stroke-linejoin:round"
         transform="matrix(1.8020893,-0.1634812,0.1634812,1.8020893,-298.8125,-111.4466)" />
      <polygon
         id="polygon2821"
         points="151.955,106.908 151.955,106.908 152.06,107.049 "
         class="fil59"
         style="fill:#ffffff;fill-rule:nonzero;stroke-linecap:round;stroke-linejoin:round"
         transform="matrix(1.8020893,-0.1634812,0.1634812,1.8020893,-298.8125,-111.4466)" />
      <polygon
         id="polygon2823"
         points="147.686,117.844 147.686,117.844 147.545,117.914 "
         class="fil59"
         style="fill:#ffffff;fill-rule:nonzero;stroke-linecap:round;stroke-linejoin:round"
         transform="matrix(1.8020893,-0.1634812,0.1634812,1.8020893,-298.8125,-111.4466)" />
      <path
         inkscape:connector-curvature="0"
         style="fill:#e9c642;fill-opacity:1;fill-rule:evenodd;stroke:#000000;stroke-width:2.81500006;stroke-linecap:round;stroke-linejoin:round;stroke-miterlimit:4;stroke-opacity:1;stroke-dasharray:none"
         d="m -79.4383,41.734855 c 14.166534,10.522786 62.439949,41.109535 66.71835,48.713804 3.2108115,5.706773 -3.89314,16.477331 -9.351041,14.384241 -11.731525,-4.499 -6.467227,-10.177249 -55.860116,-47.492233"
         id="path2825"
         sodipodi:nodetypes="cssz" />
      <path
         inkscape:connector-curvature="0"
         style="fill:#d4af8b;fill-opacity:1;fill-rule:evenodd;stroke:#000000;stroke-width:2.81500006;stroke-linecap:round;stroke-linejoin:round;stroke-miterlimit:4;stroke-opacity:1;stroke-dasharray:none"
         d="m -77.634427,85.689881 c 2.408721,-1.226506 12.939032,-3.118291 15.15319,-5.982626 2.213632,-2.863656 0.673771,-6.331948 1.683447,-8.742457 2.588505,1.87902 7.006385,2.911647 8.503435,2.264835 1.403589,-0.606431 4.565552,-5.812915 4.591155,-7.858714 0.0256,-2.04581 -2.108874,-3.608583 -3.452125,-4.36546 5.518755,-3.45263 9.023845,-3.412184 12.957754,-2.509066 3.933908,0.903118 2.801672,3.17228 4.993173,4.51267 2.137927,1.307622 3.855342,0.634437 5.236815,1.903254 1.381473,1.268817 1.59096,3.419493 3.100317,5.078906 1.54619,1.699909 2.699042,0.910958 4.402758,3.024386 1.703718,2.113428 1.152637,3.302173 2.265548,5.649194 1.112912,2.347031 4.010794,1.233387 0.900084,7.023559 -3.016739,5.615246 -6.636336,8.593987 -9.129576,10.47616 -2.555515,1.929192 -8.417417,3.643596 -9.712323,2.465077 -1.544493,-1.405679 -0.879222,-1.290503 -0.427776,-2.663455 -1.249784,0.509377 -1.909006,1.111458 -4.28511,1.507008 -2.376103,0.395551 -2.905064,-0.276457 -3.881857,-1.519843 -0.976792,-1.243385 1.211515,-4.105887 -0.02531,-3.453687 -1.236827,0.6522 -1.104322,3.700164 -4.921997,6.062489 -3.817676,2.362319 -9.784381,5.126609 -14.572295,5.920949 -4.787914,0.79434 -7.818884,-2.34168 -10.019623,-2.39404"
         id="path2827"
         sodipodi:nodetypes="cscszczzzzzzzzzczzzzzz" />
      <path
         inkscape:connector-curvature="0"
         style="fill:none;stroke:#000000;stroke-width:2.81500006;stroke-linecap:round;stroke-linejoin:round;stroke-miterlimit:4;stroke-opacity:1;stroke-dasharray:none"
         d="m -57.646164,81.235683 c 6.500719,6.193742 16.720927,15.316309 24.957686,14.41743 3.833164,-0.417431 -3.065037,-14.001546 -8.506871,-19.288346 -5.441835,-5.2868 -12.76538,-2.220502 -14.764733,-0.983328"
         id="path2829"
         sodipodi:nodetypes="cszz" />
      <path
         inkscape:connector-curvature="0"
         style="fill:none;stroke:#000000;stroke-width:2.81500006;stroke-linecap:round;stroke-linejoin:round;stroke-miterlimit:4;stroke-opacity:1;stroke-dasharray:none"
         d="m -40.681261,76.212549 c 1.420936,-0.482189 4.229567,-3.725935 4.790052,-8.880885"
         id="path2831"
         sodipodi:nodetypes="cz" />
      <path
         inkscape:connector-curvature="0"
         style="fill:none;stroke:#000000;stroke-width:2.81500006;stroke-linecap:round;stroke-linejoin:round;stroke-miterlimit:4;stroke-opacity:1;stroke-dasharray:none"
         d="m -34.331917,85.085243 c 2.799883,-3.154138 5.977366,-7.2047 6.565604,-10.814675"
         id="path2833"
         sodipodi:nodetypes="cz" />
      <path
         inkscape:connector-curvature="0"
         style="fill:none;stroke:#000000;stroke-width:2.81500006;stroke-linecap:round;stroke-linejoin:round;stroke-miterlimit:4;stroke-opacity:1;stroke-dasharray:none"
         d="m -31.269709,93.835147 c 4.690897,-3.274157 7.922336,-7.190059 9.413912,-11.345162"
         id="path2835"
         sodipodi:nodetypes="cz" />
      <g
         id="g2837"
         transform="matrix(0.702831,0.03716355,-0.03716355,0.702831,-275.97308,-686.68328)">
        <path
           inkscape:connector-curvature="0"
           sodipodi:nodetypes="cccccc"
           id="path2839"
           d="m 291.29335,966.00527 -38.67718,74.17803 -46.89842,-14.3872 -55.30649,-53.9986 72.6832,-27.65324 68.19889,21.86101 z"
           style="fill:#667b58;fill-opacity:1;fill-rule:evenodd;stroke:#000000;stroke-width:4;stroke-linecap:butt;stroke-linejoin:round;stroke-miterlimit:4;stroke-opacity:1;stroke-dasharray:none" />
        <path
           inkscape:connector-curvature="0"
           sodipodi:nodetypes="ccccccc"
           id="path2841"
           d="m 205.71775,1025.7961 -55.30649,-53.99861 72.6832,-27.65324 22.32769,7.48955 -67.75283,25.49589 49.30784,55.01851 -21.25941,-6.3521 z"
           style="fill:#c5c5c5;fill-opacity:1;fill-rule:evenodd;stroke:#000000;stroke-width:4;stroke-linecap:butt;stroke-linejoin:round;stroke-miterlimit:4;stroke-opacity:1;stroke-dasharray:none" />
        <path
           inkscape:connector-curvature="0"
           sodipodi:nodetypes="cczc"
           id="path2843"
           d="m 288.17968,1000.584 -9.19725,19.6482 c -15.20275,-9.8073 -61.66295,-27.49538 -52.39566,-36.46449 9.41223,-9.10938 38.41597,3.77386 61.59291,16.81629 z"
           style="fill:#667b58;fill-opacity:1;fill-rule:evenodd;stroke:#000000;stroke-width:4;stroke-linecap:butt;stroke-linejoin:round;stroke-miterlimit:4;stroke-opacity:1;stroke-dasharray:none" />
      </g>
      <path
         inkscape:connector-curvature="0"
         style="fill:#5d5d5d;fill-opacity:1;fill-rule:evenodd;stroke:#000000;stroke-width:2.81525159;stroke-linecap:butt;stroke-linejoin:round;stroke-miterlimit:4;stroke-opacity:1;stroke-dasharray:none"
         d="m -64.623652,62.930554 c -1.833032,5.249107 -3.216735,26.673946 3.487414,42.706946 -54.837912,-1.82435 -58.029622,-21.902761 -99.074052,-30.768524 5.65714,-13.38255 12.95269,-20.428741 24.89259,-29.952724 5.335,-4.25552 11.86126,-12.186872 17.05478,-17.298454 5.19352,-5.111582 9.53547,-8.730959 15.56982,-11.276631 11.124023,-4.692817 26.888039,-3.517226 36.515007,5.106092 -2.855221,0.67932 -9.769451,-0.106276 -9.716264,4.949212 0.504711,5.707501 -4.00611,8.31006 -7.965959,11.344197 -2.577975,2.670619 -1.099721,6.782012 -4.917512,8.319702 -0.179423,4.572814 1.595234,8.986424 4.191924,13.041724 2.711178,4.234068 5.528851,6.960921 9.378074,9.460301 3.849223,2.499451 8.13683,-2.757961 10.584178,-5.631841 z"
         id="path2845"
         sodipodi:nodetypes="cccszscccczzc" />
      <path
         inkscape:connector-curvature="0"
         style="fill:#d4af8b;fill-opacity:1;fill-rule:evenodd;stroke:#000000;stroke-width:2.81525159;stroke-linecap:butt;stroke-linejoin:round;stroke-miterlimit:4;stroke-opacity:1;stroke-dasharray:none"
         d="m -64.873618,62.627422 c -3.234886,3.505552 -6.734955,8.131291 -10.584178,5.631841 -3.849223,-2.499381 -6.666896,-5.226233 -9.378075,-9.460301 -2.596689,-4.0553 -4.371346,-8.468911 -4.191923,-13.041724 3.817791,-1.53769 2.339537,-5.649084 4.917512,-8.319702 3.959849,-3.034137 8.47067,-5.636696 7.965959,-11.344197 -0.05319,-5.055558 7.977233,-4.210983 9.902239,-4.112379 2.017754,0.103391 13.131966,1.544025 16.776535,1.335345 2.522226,-1.789093 5.235235,-4.766221 6.888597,-5.795055 1.610295,-1.002018 3.7485,-3.5071 5.782773,-2.769574 6.354466,0.417924 4.815143,7.671912 4.470169,12.440034 -0.914535,6.239231 -9.324015,7.929015 -17.676409,14.092234 -6.190816,4.704215 -5.649379,5.090749 -9.367679,10.426636 -3.7183,5.335887 -2.270634,7.411291 -5.50552,10.916842 z"
         id="path2847"
         sodipodi:nodetypes="ccccczzczccczz" />
      <path
         inkscape:connector-curvature="0"
         style="fill:none;stroke:#000000;stroke-width:3.51906443;stroke-linecap:round;stroke-linejoin:miter;stroke-miterlimit:4;stroke-opacity:1;stroke-dasharray:none"
         d="m -38.082516,21.963435 c 0.130325,3.192144 -1.02889,5.320404 -2.876223,6.111982"
         id="path2849"
         sodipodi:nodetypes="cc" />
      <path
         inkscape:connector-curvature="0"
         id="path2851"
         d="m -70.035044,50.037617 c 1.103649,-0.03667 6.995956,-2.642888 7.790068,-3.043428 -1.904968,3.307991 -3.37726,4.006526 -5.341658,8.280218 -0.865451,2.3589 -2.413797,5.463489 -4.956321,7.032499 -3.764266,-2.747475 -4.090349,-8.114048 -5.829401,-12.162732 -4.741066,-3.039838 -7.936454,-8.246857 -12.254086,-7.461191 -1.026335,-2.372271 0.553795,-4.245399 0.602745,-6.429753 1.980741,10.256525 14.423238,13.904809 19.988653,13.784387 z"
         class="fil58"
         style="fill:#000000;fill-rule:nonzero;stroke:#000000;stroke-width:2.81525159;stroke-linecap:round;stroke-linejoin:round;stroke-miterlimit:4;stroke-opacity:1;stroke-dasharray:none"
         sodipodi:nodetypes="cccccccc" />
      <path
         inkscape:connector-curvature="0"
         id="path2853"
         d="m -68.470517,56.305845 c -0.66067,0.561995 -5.59841,0.787708 -6.762024,0.516388 -0.456422,-1.010957 -0.830569,-4.041364 -1.46562,-5.247137 0.88413,0.02203 9.091644,0.729432 11.844327,-1.699004 -1.183532,1.195356 -3.996391,6.56397 -3.616683,6.429753 l 0,0 z"
         class="fil59"
         style="fill:#ffffff;fill-rule:nonzero" />
      <path
         inkscape:connector-curvature="0"
         style="fill:none;stroke:#000000;stroke-width:2.81500006;stroke-linecap:round;stroke-linejoin:round;stroke-miterlimit:4;stroke-opacity:1;stroke-dasharray:none"
         d="m -96.300004,30.03441 c 3.552319,-1.028341 4.243027,-2.89063 7.362643,-4.113435 3.119615,-1.222804 3.132579,-1.032634 5.115826,-0.777713 1.983246,0.254921 2.817158,1.797468 2.817158,1.797468"
         id="path2855"
         sodipodi:nodetypes="czzc" />
    </g>
    <g
       inkscape:export-ydpi="468.53"
       inkscape:export-xdpi="468.53"
       inkscape:export-filename="/home/filips/svn/geokrety/rzeczy/logo/geokrety.png"
       id="g3693"
       transform="matrix(1.3540786,0,0,1.3449296,40.482725,95.524571)">
      <rect
         width="61.299881"
         height="26.478128"
         x="64.375893"
         y="-68.511658"
         id="rect3695"
         style="fill:#000000;fill-opacity:1;fill-rule:nonzero;stroke:none" />
      <path
         inkscape:connector-curvature="0"
         id="path3697"
         d="m 31.101862,-50.457391 0,-4.566773 -3.65464,0 0,-1.890484 5.869574,0 0,7.300003 c -0.863838,0.630162 -1.816259,1.10658 -2.857264,1.429252 -1.041031,0.322672 -2.152188,0.484009 -3.333475,0.48401 -2.584097,-10e-7 -4.605221,-0.776314 -6.063381,-2.328941 -1.458167,-1.552623 -2.187248,-3.71453 -2.187247,-6.485728 -1e-6,-2.778772 0.72908,-4.944476 2.187247,-6.497117 1.45816,-1.55261 3.479284,-2.328922 6.063381,-2.328939 1.077923,1.7e-5 2.10233,0.136678 3.07322,0.409984 0.970866,0.27334 1.866068,0.675732 2.685607,1.207177 l 0,2.448519 c -0.826922,-0.721255 -1.705512,-1.264105 -2.635771,-1.62855 -0.930284,-0.364415 -1.908545,-0.54663 -2.934787,-0.546647 -2.02298,1.7e-5 -3.542054,0.580827 -4.557226,1.742435 -1.015182,1.161635 -1.522771,2.89268 -1.522767,5.193138 -4e-6,2.292883 0.507585,4.020131 1.522767,5.181749 1.015172,1.161625 2.534246,1.742436 4.557226,1.742435 0.789982,10e-7 1.495069,-0.07023 2.115262,-0.210687 0.620169,-0.140455 1.177594,-0.358735 1.672274,-0.654836 l 0,0 z m 16.833497,-4.475665 0,1.024961 -9.36917,0 c 0.08859,1.442544 0.511277,2.541529 1.26805,3.29696 0.756763,0.755436 1.810702,1.133153 3.161818,1.133152 0.782601,1e-6 1.541215,-0.0987 2.275844,-0.296101 0.734609,-0.197397 1.46369,-0.493497 2.187247,-0.888299 l 0,1.981591 c -0.73094,0.318878 -1.480324,0.561832 -2.248157,0.728862 -0.767854,0.167031 -1.546771,0.250546 -2.336755,0.250547 -1.97868,-10e-7 -3.545744,-0.5922 -4.701197,-1.7766 -1.155459,-1.184398 -1.733187,-2.786373 -1.733186,-4.80593 -10e-7,-2.087876 0.548194,-3.744896 1.644588,-4.971064 1.096388,-1.226145 2.574855,-1.839223 4.435405,-1.839236 1.668574,1.3e-5 2.988304,0.552352 3.959194,1.657021 0.970867,1.104691 1.456306,2.606068 1.456319,4.504136 l 0,0 z m -2.037739,-0.614976 c -0.01478,-1.146431 -0.326714,-2.061303 -0.93581,-2.744619 -0.609116,-0.683298 -1.41572,-1.02495 -2.419814,-1.024962 -1.137006,1.2e-5 -2.046974,0.330276 -2.729907,0.990796 -0.682941,0.66054 -1.076092,1.590597 -1.179452,2.790172 l 7.264983,-0.01139 z m 10.188695,-3.769581 c -1.092707,1.2e-5 -1.95653,0.438466 -2.591473,1.315367 -0.634951,0.876921 -0.952424,2.078402 -0.952421,3.604448 -3e-6,1.526059 0.315625,2.72754 0.946884,3.604447 0.631251,0.876913 1.49692,1.315369 2.59701,1.315368 1.08531,1e-6 1.945441,-0.440352 2.580397,-1.321062 0.634938,-0.880704 0.952412,-2.080287 0.952422,-3.598753 -1e-5,-1.510861 -0.317484,-2.708547 -0.952422,-3.59306 -0.634956,-0.884492 -1.495087,-1.326743 -2.580397,-1.326755 l 0,0 z m 0,-1.7766 c 1.771938,1.3e-5 3.163653,0.592212 4.17515,1.7766 1.011475,1.18441 1.517217,2.824346 1.517229,4.919815 -1.2e-5,2.087888 -0.505754,3.725927 -1.517229,4.91412 -1.011497,1.188197 -2.403212,1.782294 -4.17515,1.782295 -1.779335,-10e-7 -3.172896,-0.594098 -4.180688,-1.782295 -1.007796,-1.188193 -1.511693,-2.826232 -1.511692,-4.91412 -10e-7,-2.095469 0.503896,-3.735405 1.511692,-4.919815 1.007792,-1.184388 2.401353,-1.776587 4.180688,-1.7766 l 0,0 z"
         style="font-size:22.94870567px;font-style:normal;font-weight:normal;fill:#000000;fill-opacity:1;stroke:none;font-family:Bitstream Vera Sans" />
      <path
         inkscape:connector-curvature="0"
         id="path3699"
         d="m 66.871012,-65.831418 2.077637,0 0,10.3208 6.165527,-5.42431 2.63916,0 -6.670898,5.88476 6.95166,6.69336 -2.695312,0 -6.390137,-6.14307 0,6.14307 -2.077637,0 0,-17.47461 z m 20.708984,6.82813 c -0.232105,-0.13476 -0.48479,-0.23396 -0.758056,-0.29761 -0.273283,-0.06363 -0.574634,-0.09545 -0.904053,-0.09546 -1.167975,10e-6 -2.06454,0.37998 -2.689697,1.13989 -0.625167,0.75994 -0.937748,1.85117 -0.937744,3.27368 l 0,6.62598 -2.077637,0 0,-12.57812 2.077637,0 0,1.9541 c 0.43424,-0.76366 0.999506,-1.3308 1.6958,-1.70142 0.696283,-0.37059 1.542311,-0.55589 2.538086,-0.55591 0.142244,2e-5 0.299471,0.0094 0.47168,0.02808 0.172192,0.01873 0.363109,0.04681 0.572754,0.08423 l 0.01123,2.12256 z m 12.948734,3.84082 0,1.01074 -9.50098,0 c 0.08984,1.42253 0.51847,2.50627 1.285889,3.25122 0.76741,0.74496 1.836175,1.11743 3.206299,1.11743 0.793611,0 1.562897,-0.09733 2.307861,-0.29199 0.744944,-0.19466 1.484282,-0.48665 2.218021,-0.87598 l 0,1.9541 c -0.741226,0.31446 -1.501153,0.55404 -2.279788,0.71875 -0.778656,0.16472 -1.568531,0.24707 -2.369629,0.24707 -2.006516,0 -3.595626,-0.58398 -4.767334,-1.75195 -1.171714,-1.16796 -1.75757,-2.74772 -1.757569,-4.73926 -10e-7,-2.05891 0.555907,-3.69294 1.667725,-4.9021 1.111812,-1.20913 2.611078,-1.8137 4.497803,-1.81372 1.692048,2e-5 3.030344,0.54469 4.014892,1.63404 0.98453,1.08936 1.47679,2.56991 1.47681,4.44165 l 0,0 z m -2.066409,-0.60645 c -0.01498,-1.13052 -0.33131,-2.0327 -0.948975,-2.70654 -0.617685,-0.67382 -1.435637,-1.01073 -2.453857,-1.01074 -1.153001,1e-5 -2.075771,0.32569 -2.768311,0.97705 -0.692549,0.65137 -1.091231,1.56853 -1.196045,2.75146 l 7.367188,-0.01123 z m 7.501949,-8.7373 0,3.57129 4.25635,0 0,1.60595 -4.25635,0 0,6.82813 c 0,1.02572 0.14038,1.68457 0.42115,1.97656 0.28075,0.29199 0.85163,0.43799 1.71264,0.43799 l 2.12256,0 0,1.72949 -2.12256,0 c -1.59473,0 -2.69531,-0.29761 -3.30176,-0.89282 -0.60644,-0.59521 -0.90967,-1.67895 -0.90966,-3.25122 l 0,-6.82813 -1.51612,0 0,-1.60595 1.51612,0 0,-3.57129 2.07763,0 z m 12.21875,17.31738 c -0.58399,1.49739 -1.153,2.47444 -1.70703,2.93115 -0.55404,0.4567 -1.29525,0.68506 -2.22363,0.68506 l -1.65088,0 0,-1.72949 1.21289,0 c 0.56901,0 1.01074,-0.13477 1.3252,-0.4043 0.31444,-0.26953 0.66259,-0.90592 1.04443,-1.90918 l 0.37061,-0.94336 -5.08741,-12.37597 2.18994,0 3.93067,9.83789 3.93066,-9.83789 2.18994,0 -5.52539,13.74609 z"
         style="font-size:40px;font-style:normal;font-weight:normal;fill:#ffffff;fill-opacity:1;stroke:none;font-family:Bitstream Vera Sans" />
      <path
         inkscape:connector-curvature="0"
         id="path3701"
         d="m 127.65643,-50.958365 2.36963,0 0,2.85254 -2.36963,0 0,-2.85254 z m 11.9043,-8.27686 c -1.10808,1e-5 -1.98406,0.43239 -2.62793,1.29712 -0.64389,0.86476 -0.96583,2.04957 -0.96582,3.55445 -1e-5,1.50488 0.32006,2.6897 0.9602,3.55444 0.64013,0.86475 1.51798,1.29712 2.63355,1.29712 1.10057,0 1.97281,-0.43424 2.6167,-1.30274 0.64386,-0.86848 0.9658,-2.05142 0.96582,-3.54882 -2e-5,-1.4899 -0.32196,-2.67097 -0.96582,-3.54322 -0.64389,-0.87222 -1.51613,-1.30834 -2.6167,-1.30835 l 0,0 z m 0,-1.75195 c 1.79686,1e-5 3.20816,0.584 4.23388,1.75195 1.02571,1.16798 1.53856,2.78517 1.53858,4.85157 -2e-5,2.05892 -0.51287,3.67423 -1.53858,4.84594 -1.02572,1.17172 -2.43702,1.75757 -4.23388,1.75757 -1.80437,0 -3.21754,-0.58585 -4.23951,-1.75757 -1.02197,-1.17171 -1.53296,-2.78702 -1.53296,-4.84594 0,-2.0664 0.51099,-3.68359 1.53296,-4.85157 1.02197,-1.16795 2.43514,-1.75194 4.23951,-1.75195 l 0,0 z m 16.47509,2.23486 c -0.2321,-0.13475 -0.48479,-0.23395 -0.75805,-0.2976 -0.27329,-0.06363 -0.57464,-0.09545 -0.90406,-0.09546 -1.16797,1e-5 -2.06454,0.37997 -2.68969,1.13989 -0.62517,0.75994 -0.93775,1.85116 -0.93775,3.27368 l 0,6.62598 -2.07763,0 0,-12.57813 2.07763,0 0,1.9541 c 0.43424,-0.76366 0.99951,-1.33079 1.6958,-1.70141 0.69629,-0.37059 1.54231,-0.5559 2.53809,-0.55591 0.14224,1e-5 0.29947,0.0094 0.47168,0.02808 0.17219,0.01873 0.36311,0.0468 0.57275,0.08423 l 0.0112,2.12255 z m 10.4668,4.21143 c -1e-5,-1.49739 -0.30885,-2.65787 -0.92651,-3.48145 -0.61769,-0.82355 -1.4843,-1.23534 -2.59986,-1.23535 -1.10808,1e-5 -1.97095,0.4118 -2.58862,1.23535 -0.61768,0.82358 -0.92652,1.98406 -0.92651,3.48145 -1e-5,1.48991 0.30883,2.64665 0.92651,3.47021 0.61767,0.82357 1.48054,1.23536 2.58862,1.23536 1.11556,0 1.98217,-0.41179 2.59986,-1.23536 0.61766,-0.82356 0.9265,-1.9803 0.92651,-3.47021 l 0,0 z m 2.06641,4.87402 c -2e-5,2.14128 -0.47544,3.73413 -1.42627,4.77857 -0.95086,1.04443 -2.40708,1.566643 -4.36866,1.566648 -0.72624,-5e-6 -1.4113,-0.05429 -2.05517,-0.162842 -0.64389,-0.108565 -1.26905,-0.275146 -1.87549,-0.499756 l 0,-2.01025 c 0.60644,0.32942 1.2054,0.57275 1.79688,0.72998 0.59146,0.15722 1.19416,0.23583 1.8081,0.23584 1.35514,-1e-5 2.36962,-0.35377 3.04346,-1.06128 0.67382,-0.70752 1.01073,-1.77629 1.01074,-3.2063 l 0,-1.02197 c -0.42677,0.74121 -0.97332,1.29524 -1.63965,1.66211 -0.66635,0.36686 -1.46371,0.55029 -2.39209,0.55029 -1.54232,0 -2.78516,-0.58773 -3.72851,-1.76319 -0.94336,-1.17545 -1.41504,-2.73274 -1.41504,-4.67187 0,-1.94661 0.47168,-3.50764 1.41504,-4.68311 0.94335,-1.17544 2.18619,-1.76317 3.72851,-1.76318 0.92838,1e-5 1.72574,0.18344 2.39209,0.55029 0.66633,0.36688 1.21288,0.92091 1.63965,1.66211 l 0,-1.90918 2.06641,0 0,11.01709 z"
         style="font-size:23px;font-style:normal;font-weight:normal;fill:#000000;fill-opacity:1;stroke:none;font-family:Bitstream Vera Sans" />
    </g>
  </g>
</svg>
