<svg xmlns="http://www.w3.org/2000/svg" width="37mm" height="37mm" viewBox="0 0 37 37"><g transform="matrix(0 1.33706 -1.33159 0 901.129 -1560.108)"><circle cx="-662.839" cy="1180.659" r="10.52" transform="rotate(-90)" fill="#8bb92d" stroke="#00ce00" stroke-width=".131"/><path d="M1188.558 662.838a.306.306 0 0 1-.12.245l-7.533 5.792a.31.31 0 0 1-.373.002.31.31 0 0 1-.101-.359l1.515-3.835h-8.879a.308.308 0 0 1-.307-.308v-3.073c0-.17.138-.307.308-.307h8.879l-1.516-3.835a.307.307 0 0 1 .102-.359.306.306 0 0 1 .372.002l7.534 5.792c.075.058.12.148.12.243zm3.312.001c0 6.181-5.029 11.21-11.21 11.21-6.182 0-11.211-5.029-11.211-11.21 0-6.182 5.029-11.21 11.21-11.21 6.182 0 11.211 5.028 11.211 11.21zm-1.23 0c0-5.504-4.477-9.981-9.98-9.981-5.504 0-9.982 4.477-9.982 9.981 0 5.503 4.477 9.981 9.981 9.981s9.982-4.478 9.982-9.981z" stroke="#000" stroke-width=".048"/></g></svg>