<svg xmlns="http://www.w3.org/2000/svg" width="37mm" height="37mm" viewBox="0 0 37 37"><g transform="matrix(0 1.33706 -1.33159 0 901.129 -1560.108)"><circle transform="rotate(-90)" r="10.52" cy="1180.659" cx="-662.839" fill="#ff412d" stroke="#00ce00" stroke-width=".131"/><path d="M1172.76 662.84c0-.097.045-.187.12-.245l7.534-5.792a.31.31 0 0 1 .373-.002.31.31 0 0 1 .1.358l-1.514 3.836h8.878c.17 0 .308.137.308.307v3.073c0 .17-.138.308-.308.308h-8.879l1.516 3.835a.307.307 0 0 1-.102.358.306.306 0 0 1-.372-.002l-7.535-5.791a.308.308 0 0 1-.119-.244zm-3.311-.001c0-6.182 5.029-11.21 11.21-11.21 6.182 0 11.211 5.028 11.211 11.21 0 6.181-5.03 11.21-11.21 11.21-6.182 0-11.211-5.029-11.211-11.21zm1.23 0c0 5.504 4.477 9.98 9.98 9.98 5.504 0 9.982-4.477 9.982-9.98 0-5.504-4.478-9.981-9.982-9.981-5.503 0-9.98 4.477-9.98 9.98z" stroke="#000" stroke-width=".048"/></g></svg>