<svg xmlns="http://www.w3.org/2000/svg" width="37" height="37"><path d="M26.652 12.42a19.24 19.24 0 0 0-1.75-2.141c-.683-.73-1.394-1.396-2.003-1.872-1.037-.813-1.538-.907-1.826-.907h-9.965c-.886 0-1.608.77-1.608 1.72v18.56c0 .948.72 1.72 1.608 1.72h14.784c.886 0 1.608-.77 1.608-1.72V14.376c0-.31-.088-.846-.848-1.955zm-2.661-1.17c.617.66 1.1 1.256 1.458 1.75h-3.091V9.692c.46.382 1.018.898 1.633 1.558zm2.222 16.528c0 .187-.147.344-.32.344H11.107c-.174 0-.321-.157-.321-.344V9.22c0-.186.147-.343.32-.343h9.964v4.813c0 .379.288.686.642.686h4.5z"/><path d="M23 25.374h-9c-.355 0-.642-.307-.642-.687 0-.379.287-.686.642-.686h9c.355 0 .642.307.642.686 0 .38-.287.687-.642.687zM23 22.625h-9c-.355 0-.642-.308-.642-.687 0-.38.287-.687.642-.687h9c.355 0 .642.307.642.687 0 .38-.287.687-.642.687zM23 19.875h-9c-.355 0-.642-.308-.642-.687 0-.38.287-.687.642-.687h9c.355 0 .642.308.642.687 0 .38-.287.687-.642.687z"/></svg>