<svg xmlns="http://www.w3.org/2000/svg" width="37mm" height="37mm" viewBox="0 0 37 37"><path d="M1169.449 662.839c0-6.182 5.029-11.21 11.21-11.21 6.182 0 11.211 5.028 11.211 11.21 0 6.181-5.03 11.21-11.21 11.21-6.182 0-11.211-5.029-11.211-11.21zm1.23 0c0 5.504 4.477 9.98 9.98 9.98 5.504 0 9.982-4.477 9.982-9.98 0-5.504-4.478-9.981-9.982-9.981-5.503 0-9.98 4.477-9.98 9.98z" stroke="#000" stroke-width=".048" transform="matrix(0 1.33515 -1.33519 0 903.516 -1557.86)"/><g transform="translate(2.462 2.463) scale(.25059)"><circle class="cls-1" cx="64" cy="64" r="58" fill="#f8dc25"/><path class="cls-2" d="M53 107a71.65 71.65 0 0 1-36.75-10.09A58 58 0 0 0 121.56 57 72 72 0 0 1 53 107z" opacity=".7" fill="#f2bc0f"/><path class="cls-3" d="M24.94 69.47a9.94 9.94 0 1 1 19.88 0M83.18 69.47a9.94 9.94 0 1 1 19.88 0" fill="none" stroke="#393c54" stroke-width="4" stroke-linecap="round" stroke-miterlimit="10"/><path class="cls-4" opacity=".5" fill="none" stroke="#f2bc0f" stroke-width="4" stroke-linecap="round" stroke-linejoin="round" d="M83 44l16 4M29 48l16-4"/><ellipse class="cls-5" cx="28.63" cy="82.03" rx="12" ry="6.73" opacity=".7" fill="#f85565"/><ellipse class="cls-5" cx="99.67" cy="82.03" rx="12" ry="6.73" opacity=".7" fill="#f85565"/><path class="cls-3" d="M83 91.22a38 38 0 0 1-38 0M82.5 89a9.79 9.79 0 0 0 5 5M45.5 89a9.79 9.79 0 0 1-5 5" fill="none" stroke="#393c54" stroke-width="4" stroke-linecap="round" stroke-miterlimit="10"/></g></svg>