<svg xmlns="http://www.w3.org/2000/svg" width="37mm" height="37mm" viewBox="0 0 37 37"><path d="M-25.82 59.407c8.231 0 14.928 6.724 14.928 14.989S-17.59 89.385-25.82 89.385c-8.231 0-14.928-6.724-14.928-14.99 0-8.264 6.697-14.988 14.928-14.988zm0 1.643c-7.329 0-13.29 5.987-13.29 13.346S-33.15 87.74-25.82 87.74c7.328 0 13.29-5.986 13.29-13.345 0-7.359-5.962-13.346-13.29-13.346z" stroke="#000" stroke-width=".063" transform="matrix(1.0027 0 0 .9986 44.43 -55.771)"/><g transform="matrix(.24053 0 0 .24053 3.106 3.106)"><circle class="cls-1" cx="64" cy="64" r="58" fill="#f8dc25"/><path class="cls-2" d="M53 107a71.65 71.65 0 0 1-36.75-10.09A58 58 0 0 0 121.56 57 72 72 0 0 1 53 107z" opacity=".7" fill="#f2bc0f"/></g><path d="M9.864 17.494a.664.664 0 0 1-.47-1.134l5.637-5.637a.664.664 0 1 1 .94.939l-5.638 5.637a.66.66 0 0 1-.47.195z" fill="#393c54"/><path d="M15.5 17.494a.663.663 0 0 1-.47-.195l-5.636-5.637a.664.664 0 1 1 .94-.94l5.636 5.638a.664.664 0 0 1-.47 1.134zM21.5 17.494a.664.664 0 0 1-.47-1.134l5.637-5.637a.664.664 0 1 1 .939.939l-5.637 5.637a.66.66 0 0 1-.47.195z" fill="#393c54"/><path d="M27.136 17.494a.663.663 0 0 1-.47-.195l-5.636-5.637a.664.664 0 1 1 .94-.94l5.636 5.638a.664.664 0 0 1-.47 1.134z" fill="#393c54"/><path d="M18.5 21.822v5.182a2.665 2.665 0 0 0 2.657 2.657h.665a2.665 2.665 0 0 0 2.657-2.657v-5.182c-1.135.014-4.775 0-5.979 0z" opacity=".7" fill="#f85565"/><path d="M21.511 26.214a.664.664 0 0 1-.664-.665v-.11c0-1.701-.047-2.753-.143-3.132a.664.664 0 0 1 .453-1.15c.858 0 .922 1.11.974 2.002.045.78.045 1.683.045 2.282v.109a.664.664 0 0 1-.665.664z" fill="#e64c3c"/><path d="M25.143 22.486H10.528a.664.664 0 1 1 0-1.329h14.615a.664.664 0 1 1 0 1.329z" fill="#393c54"/></svg>
