<svg xmlns="http://www.w3.org/2000/svg" width="37mm" height="37mm" viewBox="0 0 37 37"><g transform="matrix(1.0027 0 0 .9986 44.43 -55.771)"><circle cy="74.396" cx="-25.762" r="13.914" fill="#ff412d"/><path d="M-25.762 60.482V88.31a13.913 13.913 0 0 0 13.914-13.913 13.913 13.913 0 0 0-13.914-13.914z" fill="#8bb92d"/></g><path d="M-25.82 59.407c8.231 0 14.928 6.724 14.928 14.989S-17.59 89.385-25.82 89.385c-8.231 0-14.928-6.724-14.928-14.99 0-8.264 6.697-14.988 14.928-14.988zm0 1.643c-7.329 0-13.29 5.987-13.29 13.346S-33.15 87.74-25.82 87.74c7.328 0 13.29-5.986 13.29-13.345 0-7.359-5.962-13.346-13.29-13.346z" stroke="#000" stroke-width=".063" transform="matrix(1.0027 0 0 .9986 44.43 -55.771)"/><g stroke="#000" stroke-width=".063"><path d="M-25.775 87.265a.407.407 0 0 1-.325-.16l-7.712-10.073a.416.416 0 0 1-.003-.499.41.41 0 0 1 .477-.135l5.107 2.026V66.553a.41.41 0 0 1 .41-.411h4.092a.41.41 0 0 1 .41.411v11.871l5.106-2.026a.408.408 0 0 1 .478.137.41.41 0 0 1-.003.497l-7.713 10.074a.41.41 0 0 1-.323.159z" transform="matrix(1.0027 0 0 .9986 44.43 -55.771)"/><path d="M-25.866 61.527c.128 0 .248.059.326.16l7.712 10.073a.416.416 0 0 1 .002.498.41.41 0 0 1-.477.136l-5.107-2.026v11.871a.41.41 0 0 1-.41.411h-4.091a.41.41 0 0 1-.41-.411V70.367l-5.106 2.027a.408.408 0 0 1-.478-.137.41.41 0 0 1 .003-.497l7.712-10.074a.41.41 0 0 1 .324-.16z" transform="matrix(1.0027 0 0 .9986 44.43 -55.771)"/></g></svg>