<svg id="Layer_1" xmlns="http://www.w3.org/2000/svg" viewBox="0 0 441 123.3" data-ember-extension="1"><style>.st0,.st1,.st2,.st3,.st4{fill-rule:evenodd;clip-rule:evenodd;fill:#a5cc25}.st1,.st2,.st3,.st4{fill:#fff}.st2,.st3,.st4{fill:#cbeef5}.st3,.st4{fill:#4f4642}.st4{fill:#332d2a}.st5{opacity:.5}.st5,.st6,.st7,.st8,.st9{fill-rule:evenodd;clip-rule:evenodd}.st6{opacity:.5;fill:#5c5e56}.st7,.st8,.st9{fill:#add628}.st8,.st9{fill:#82a315}.st9{fill:#402e26}.st10,.st11,.st12,.st13,.st14,.st15{fill-rule:evenodd;clip-rule:evenodd;fill:#2e211b}.st11,.st12,.st13,.st14,.st15{fill:#bee735}.st12,.st13,.st14,.st15{fill:#9abe2a}.st13,.st14,.st15{fill:#ab7130}.st14,.st15{fill:#936126}.st15{fill:#754b1c}</style><path class="st0" d="M11.7 99.9h417.6c6.4 0 11.7 5.3 11.7 11.7 0 6.4-5.3 11.7-11.7 11.7H11.7C5.3 123.3 0 118 0 111.6c0-6.4 5.3-11.7 11.7-11.7z"/><path class="st1" d="M307.4 101.7L365 23.4l57.5 78.3z"/><path class="st2" d="M365 23.4l57.5 78.3H365z"/><path class="st3" d="M307.4 101.7l34.2-46.5 10.8-9.9 3.9 6.8 3-4.7 5.7 8.9 5.6-8.9 3 4.7 3.9-6.8 10.8 9.9 34.2 46.5z"/><path class="st4" d="M365 56.3l5.6-8.9 3 4.7 3.9-6.8 10.8 9.9 34.2 46.5H365z"/><path class="st5" d="M398.8 69.7l2.9 32 20.7.1z"/><path class="st1" d="M202.3 101.7L266 15l63.7 86.7z"/><path class="st2" d="M266 15l63.7 86.7H266z"/><path class="st3" d="M202.3 101.7l37.8-51.5 12-11 4.3 7.5 3.3-5.1 6.3 9.8 6.3-9.8 3.3 5.1 4.3-7.5 12 11 37.8 51.5z"/><path class="st4" d="M266 51.4l6.3-9.8 3.3 5.1 4.3-7.5 12 11 37.8 51.5H266z"/><path class="st6" d="M282.2 101.7l-.4-.4-46.3-45-22 30-3 15.4z"/><path class="st1" d="M44.3 101.2L112.5 0l68.3 101.2z"/><path class="st2" d="M112.5 0l68.3 101.2h-68.3z"/><path class="st3" d="M44.3 101.2l40.6-60.1 12.7-12.8 4.6 8.8 3.6-6.1 6.7 11.5 6.8-11.5 3.5 6.1 4.7-8.8 12.7 12.8 40.6 60.1z"/><path class="st4" d="M112.5 42.5l6.8-11.5 3.5 6.1 4.7-8.8 12.7 12.8 40.6 60.1h-68.3z"/><path class="st5" d="M372.7 102L335 64.3l-12.9 14.3z"/><path class="st1" d="M282.5 101.7L321 49.2l38.6 52.5z"/><path class="st2" d="M321 49.2l38.6 52.5H321z"/><path class="st3" d="M282.5 101.7l22.9-31.2 7.2-6.6 2.6 4.6 2-3.2 3.8 6 3.8-6 2.1 3.2 2.6-4.6 7.2 6.6 22.9 31.2z"/><path class="st4" d="M321 71.3l3.8-6 2.1 3.2 2.6-4.6 7.2 6.6 22.9 31.2H321z"/><path class="st1" d="M27.6 101.7l38.6-52.5 38.5 52.5z"/><path class="st2" d="M66.2 49.2l38.5 52.5H66.2z"/><path class="st3" d="M27.6 101.7l22.9-31.2 7.2-6.6 2.6 4.6 2.1-3.2 3.8 6 3.8-6 2 3.2 2.6-4.6 7.2 6.6 22.9 31.2z"/><path class="st4" d="M66.2 71.3l3.8-6 2 3.2 2.6-4.6 7.2 6.6 22.9 31.2H66.2z"/><path class="st1" d="M158.4 106.7L197 54.2l38.5 52.5z"/><path class="st2" d="M197 54.2l38.5 52.5H197z"/><path class="st3" d="M158.4 106.7l22.9-31.2 7.2-6.6 2.6 4.6 2.1-3.2 3.8 6 3.8-6 2 3.2 2.6-4.6 7.2 6.6 22.9 31.2z"/><path class="st4" d="M197 76.3l3.8-6 2 3.2 2.6-4.6 7.2 6.6 22.9 31.2H197z"/><path class="st7" d="M322.5 74.9c27.7.1 42.8 27 66.2 27.9H250.8c23.4-2.4 44-28 71.7-27.9z"/><path class="st8" d="M322.5 74.9c27.7.1 42.8 27 66.2 27.9h-68.9V75c.8-.1 1.8-.1 2.7-.1z"/><path class="st7" d="M245.5 74.9c27.7.1 42.8 27 66.2 27.9H173.8c23.4-2.4 44-28 71.7-27.9z"/><path class="st8" d="M245.5 74.9c27.7.1 42.8 27 66.2 27.9h-68.9V75c.8-.1 1.7-.1 2.7-.1z"/><path class="st7" d="M86 81.8c26.2.1 40.5 25.6 62.7 26.5H18.1C40.3 106 59.7 81.7 86 81.8z"/><path class="st8" d="M86 81.8c26.2.1 40.5 25.6 62.7 26.5H83.4V81.9c.8 0 1.7-.1 2.6-.1z"/><path class="st7" d="M177.2 81.8c26.2.1 40.5 25.6 62.7 26.5H109.4c22.2-2.3 41.6-26.6 67.8-26.5z"/><path class="st8" d="M177.2 81.8c26.2.1 40.5 25.6 62.7 26.5h-65.3V81.9c.9 0 1.8-.1 2.6-.1z"/><g><path class="st9" d="M325.8 85.2h1.8v11.1h-1.8z"/><path class="st10" d="M326.7 85.2h.9v11.1h-.9z"/><g><path class="st11" d="M326.7 87.5c3.9 0 7-3.8 7-8.5s-3.2-8.5-7-8.5c-3.9 0-7 3.8-7 8.5s3.1 8.5 7 8.5z"/><path class="st12" d="M326.7 70.5c3.9 0 7 3.8 7 8.5s-3.1 8.5-7 8.5v-17z"/></g></g><g><path class="st9" d="M413.2 104.4h2.1v7.6h-2.1z"/><path class="st10" d="M414.3 104.4h1.1v7.6h-1.1z"/><path class="st11" d="M405 105.9l9.3-18.8 9.3 18.8z"/><path class="st12" d="M414.3 87.1l9.3 18.8h-9.3z"/><g><path class="st11" d="M405.4 97.7l8.9-11.5 9 11.5z"/><path class="st12" d="M414.3 86.2l9 11.5h-9z"/></g><g><path class="st11" d="M407.8 90.8l6.5-8.4 6.6 8.4z"/><path class="st12" d="M414.3 82.4l6.6 8.4h-6.6z"/></g></g><g><path class="st1" d="M45.2 7.6c.7-2.9 3.9-5 7.6-5s6.9 2.2 7.6 5c1.1-.5 2.5-.8 3.9-.8 3.9 0 7.1 2.3 7.7 5.3 3 .7 5.1 3 5.1 5.6 0 3.2-3.2 5.8-7.2 5.8H35.7c-3.9 0-7.2-2.6-7.2-5.8 0-2.6 2.2-4.9 5.1-5.6.6-3 3.8-5.3 7.7-5.3 1.4 0 2.8.3 3.9.8z"/><path class="st2" d="M52.8 2.6c3.7 0 6.9 2.2 7.6 5 1.1-.5 2.5-.8 3.9-.8 3.9 0 7.1 2.3 7.7 5.3 3 .7 5.1 3 5.1 5.6 0 3.2-3.2 5.8-7.2 5.8H52.8V2.6z"/></g><g><path class="st1" d="M210.6 22.5c.7-3.2 3.5-5.6 6.8-5.6 3.4 0 6.2 2.4 6.8 5.6 1-.6 2.2-.9 3.5-.9 3.5 0 6.4 2.5 6.9 5.9 2.7.8 4.6 3.3 4.6 6.2 0 3.5-2.9 6.4-6.4 6.4H202c-3.5 0-6.4-2.9-6.4-6.4 0-2.9 2-5.4 4.6-6.2.5-3.3 3.4-5.9 6.9-5.9 1.2 0 2.4.3 3.5.9z"/><path class="st2" d="M217.4 16.9c3.4 0 6.2 2.4 6.8 5.6 1-.6 2.2-.9 3.5-.9 3.5 0 6.4 2.5 6.9 5.9 2.7.8 4.6 3.3 4.6 6.2 0 3.5-2.9 6.4-6.4 6.4h-15.4V16.9z"/></g><g><path class="st1" d="M326.4 5.5c.6-2.9 3.1-5 6.1-5 3 0 5.6 2.1 6.1 5 .9-.5 2-.8 3.1-.8 3.1 0 5.7 2.3 6.2 5.3 2.4.7 4.2 2.9 4.2 5.6 0 3.2-2.6 5.8-5.8 5.8h-27.7c-3.2 0-5.8-2.6-5.8-5.8 0-2.6 1.8-4.9 4.2-5.6.5-3 3.1-5.3 6.2-5.3 1.2 0 2.3.3 3.2.8z"/><path class="st2" d="M332.6.5c3 0 5.6 2.1 6.1 5 .9-.5 2-.8 3.1-.8 3.1 0 5.7 2.3 6.2 5.3 2.4.7 4.2 2.9 4.2 5.6 0 3.2-2.6 5.8-5.8 5.8h-13.8V.5z"/></g><path class="st6" d="M316.4 110.8l-24.3-24.5-25.8 24.5zM380.4 115.1l-1.9-5-22.4-22.6.2 27.6z"/><g><path class="st9" d="M355 108.8h2v7.4h-2z"/><path class="st10" d="M356.1 108.8h1v7.4h-1z"/><path class="st11" d="M347.1 110.2l9-18.1 8.9 18.1z"/><path class="st12" d="M356.1 92.1l8.9 18.1h-8.9z"/><g><path class="st11" d="M347.4 102.3l8.7-11.1 8.6 11.1z"/><path class="st12" d="M356.1 91.2l8.6 11.1h-8.6z"/></g><g><path class="st11" d="M349.7 95.6l6.4-8.1 6.3 8.1z"/><path class="st12" d="M356.1 87.5l6.3 8.1h-6.3z"/></g></g><g><path class="st0" d="M391.6 97.4c16.7.1 25.7 18.7 39.8 19.3h-83c14.2-1.6 26.6-19.4 43.2-19.3z"/><path class="st8" d="M391.6 97.4c16.7.1 25.7 18.7 39.8 19.3H390V97.4h1.6z"/></g><path class="st6" d="M121.9 108.3l-.2-.2-29.4-29.4-.9 29.6z"/><g><path class="st9" d="M90.2 98.8h2.6v9.5h-2.6z"/><path class="st10" d="M91.5 98.8h1.3v9.5h-1.3z"/><path class="st11" d="M79.9 100.6l11.6-23.4 11.6 23.4z"/><path class="st12" d="M91.5 77.2l11.6 23.4H91.5z"/><g><path class="st11" d="M80.3 90.4l11.2-14.3 11.1 14.3z"/><path class="st12" d="M91.5 76.1l11.1 14.3H91.5z"/></g><g><path class="st11" d="M83.3 81.8l8.2-10.5 8.1 10.5z"/><path class="st12" d="M91.5 71.3l8.1 10.5h-8.1z"/></g></g><g><path class="st9" d="M293.4 108.9h1.8v6.4h-1.8z"/><path class="st10" d="M294.3 108.9h.9v6.4h-.9z"/><path class="st11" d="M286.5 110.1l7.8-15.6 7.8 15.6z"/><path class="st12" d="M294.3 94.5l7.8 15.6h-7.8z"/><g><path class="st11" d="M286.8 103.3l7.5-9.6 7.5 9.6z"/><path class="st12" d="M294.3 93.7l7.5 9.6h-7.5z"/></g><g><path class="st11" d="M288.8 97.5l5.5-7 5.5 7z"/><path class="st12" d="M294.3 90.5l5.5 7h-5.5z"/></g></g><g><path class="st9" d="M57.4 106.8h3.1v12.6h-3.1z"/><path class="st10" d="M59 106.8h1.5v12.6H59z"/><path class="st11" d="M59 110.7c4.9 0 9-6.4 9-14.2 0-7.8-4-14.2-9-14.2s-9 6.4-9 14.2c0 7.8 4 14.2 9 14.2z"/><path class="st12" d="M59 82.3c5 0 9 6.4 9 14.2 0 7.8-4 14.2-9 14.2V82.3z"/></g><path class="st6" d="M136.9 110.7L121.2 95l.2 15.7z"/><g><path class="st9" d="M120.6 109.6h1.4v5.1h-1.4z"/><path class="st10" d="M121.3 109.6h.7v5.1h-.7z"/><path class="st11" d="M115.1 110.6l6.2-12.5 6.2 12.5z"/><path class="st12" d="M121.3 98.1l6.2 12.5h-6.2z"/><g><path class="st11" d="M115.3 105.2l6-7.7 5.9 7.7z"/><path class="st12" d="M121.3 97.5l5.9 7.7h-5.9z"/></g><g><path class="st11" d="M116.9 100.6l4.4-5.6 4.3 5.6z"/><path class="st12" d="M121.3 95l4.3 5.6h-4.3z"/></g></g><path class="st6" d="M43.6 108.3l-.1-.2-27.7-26.9-.9 27.1z"/><g><path class="st9" d="M13.7 100.7h2.1v7.6h-2.1z"/><path class="st10" d="M14.8 100.7h1.1v7.6h-1.1z"/><path class="st11" d="M5.5 102.1l9.3-18.7 9.2 18.7z"/><path class="st12" d="M14.8 83.4l9.2 18.7h-9.2z"/><g><path class="st11" d="M5.9 94l8.9-11.4L23.7 94z"/><path class="st12" d="M14.8 82.6L23.7 94h-8.9z"/></g><g><path class="st11" d="M8.2 87.1l6.6-8.4 6.5 8.4z"/><path class="st12" d="M14.8 78.7l6.5 8.4h-6.5z"/></g></g><g><path class="st13" d="M40.3 119.2s.2-1.8.6-1.8c.4-.1 2.4-1.1 2.4-1.1l1.2-3 7.9-2.4 1.8 2.3.5 2.1 1.9.8 2.3 3.5-18.6-.4z"/><path class="st14" d="M49.5 111.7l2.8-.9 1.8 2.3.5 2.1 1.9.8 2.3 3.5-9.3-.2z"/></g><g><path class="st14" d="M60.6 119.3s.2-1.2.6-1.2c.5 0 2.5-.8 2.5-.8l1.2-2.1 8.2-1.6 1.8 1.6.5 1.4 2 .5 2.4 2.4-19.2-.2z"/><path class="st15" d="M70.3 114.2l2.8-.6 1.9 1.6.5 1.4 2 .5 2.4 2.4-9.6-.1z"/></g><g><path class="st14" d="M290.9 117.3s.1-1.2.5-1.2 2.2-.8 2.2-.8l1.1-2.1 7.2-1.6 1.6 1.6.5 1.4 1.7.5 2.1 2.4-16.9-.2z"/><path class="st15" d="M299.4 112.2l2.5-.6 1.6 1.6.5 1.4 1.7.5 2.1 2.4-8.4-.1z"/></g><g><path class="st14" d="M330 110.7s.1-1.2.5-1.2 2.2-.8 2.2-.8l1.1-2.1 7.2-1.6 1.6 1.6.5 1.4 1.7.5 2.1 2.4-16.9-.2z"/><path class="st15" d="M338.5 105.6l2.5-.5 1.6 1.5.5 1.4 1.7.6 2.2 2.3-8.5-.1z"/></g></svg>