<svg id="Layer_1" xmlns="http://www.w3.org/2000/svg" viewBox="0 0 49.6 49.6" data-ember-extension="1"><style>.st0,.st1{fill-rule:evenodd;clip-rule:evenodd;fill:#ffe291}.st1{fill:#ffd45e}</style><path class="st0" d="M24.8 41.5c9.2 0 16.7-7.5 16.7-16.7S34 8.1 24.8 8.1 8.1 15.6 8.1 24.8s7.5 16.7 16.7 16.7zM29.5 7.3L24.8 0l-4.7 7.3zM29.5 42.3l-4.7 7.3-4.7-7.3zM7.3 20.1L0 24.8l7.3 4.7zM42.3 20.1l7.3 4.7-7.3 4.7z"/><g><path class="st0" d="M9.1 33.9l-1.8 8.5 8.5-1.9zM33.9 9.1l8.5-1.8-1.9 8.5z"/></g><g><path class="st0" d="M15.8 9.1L7.3 7.3l1.8 8.5zM40.5 33.9l1.9 8.5-8.5-1.9z"/></g><g><path class="st1" d="M24.8 8.1c9.2 0 16.7 7.5 16.7 16.7S34 41.5 24.8 41.5V8.1zM29.5 7.3L24.8 0v7.3zM29.5 42.3l-4.7 7.3v-7.3zM42.3 20.1l7.3 4.7-7.3 4.7z"/><path class="st1" d="M33.9 9.1l8.5-1.8-1.9 8.5zM40.5 33.9l1.9 8.5-8.5-1.9z"/></g></svg>